<svg version="1.1" id="Layer_1" xmlns="http://www.w3.org/2000/svg" xmlns:xlink="http://www.w3.org/1999/xlink" x="0px" y="0px"
	  viewBox="0 0 1536 1024" enable-background="new 0 0 1536 1024" xml:space="preserve">
<path fill="#060D1B" opacity="1.000000" stroke="none" 
	d="
M974.000000,1025.000000 
	C649.333313,1025.000000 325.166656,1025.000000 1.000000,1025.000000 
	C1.000000,683.666687 1.000000,342.333344 1.000000,1.000000 
	C513.000000,1.000000 1025.000000,1.000000 1537.000000,1.000000 
	C1537.000000,342.333344 1537.000000,683.666687 1537.000000,1025.000000 
	C1349.500000,1025.000000 1162.000000,1025.000000 974.000000,1025.000000 
M460.841461,438.890228 
	C460.841461,438.890228 460.674530,439.247742 460.316864,439.361572 
	C459.989624,439.512299 459.662384,439.663025 458.954803,439.950104 
	C458.954803,439.950104 458.783264,440.315887 458.135742,440.491211 
	C456.287231,442.087036 452.533020,441.725464 452.887146,445.696594 
	C452.919617,446.061157 451.330719,446.570312 450.494751,447.012360 
	C450.024658,446.034973 449.554565,445.057617 447.952698,446.148468 
	C447.530975,446.811615 447.109222,447.474731 446.830261,447.456238 
	C446.535645,447.362305 446.130676,447.093201 445.962158,447.199371 
	C433.948883,454.768921 421.928802,462.328583 410.003510,470.034882 
	C408.961395,470.708282 408.543976,472.356628 407.851257,473.560638 
	C406.471191,475.959351 405.253296,476.219604 401.624908,476.167480 
	C400.864197,477.311829 400.103455,478.456207 398.107788,479.538910 
	C398.112152,478.703705 398.116547,477.868530 398.120911,477.033325 
	C398.767059,477.600739 399.413239,478.168182 398.658142,479.826599 
	C398.219818,480.224426 397.781464,480.622284 396.823700,480.892487 
	C397.025818,480.430450 397.227905,479.968414 396.595520,479.771240 
	C391.500946,483.193176 386.438477,486.664520 381.294220,490.010010 
	C379.517120,491.165741 377.637177,492.505829 375.632111,492.911896 
	C364.330139,495.200500 353.188599,499.043365 341.362579,497.010834 
	C340.881165,496.928101 340.355957,496.980164 339.868896,497.067932 
	C325.788208,499.605957 312.241943,496.248993 299.140656,492.101135 
	C284.217010,487.376282 269.680878,486.887451 255.061172,492.072571 
	C245.352692,495.515869 235.684219,499.210480 226.387360,503.614777 
	C222.043289,505.672760 217.995468,509.166138 214.928024,512.919800 
	C210.282333,518.604858 205.252014,521.309998 197.819824,518.155457 
	C197.982513,516.048279 197.955994,513.904785 198.351288,511.842194 
	C198.976532,508.579742 200.164978,505.409515 200.609924,502.131714 
	C201.362991,496.584229 198.991425,493.953705 193.529343,492.745392 
	C188.609177,491.657013 183.792755,490.084564 178.963394,488.617554 
	C178.269150,488.406647 177.458313,487.700623 177.211945,487.034851 
	C175.411057,482.167877 172.053314,483.000305 168.207657,484.108673 
	C164.429123,485.197723 160.135757,487.052582 156.660065,486.189178 
	C143.136108,482.829834 131.884842,487.556000 121.729340,495.307190 
	C105.444283,507.736755 101.269997,529.418030 111.293358,547.825012 
	C119.335472,562.593506 135.579269,572.379456 157.431198,565.269653 
	C161.839493,563.835327 166.456772,563.043518 171.321121,562.309326 
	C171.552658,562.542786 171.790100,562.770081 172.252823,563.669373 
	C177.260986,576.386169 187.696915,581.157288 200.254333,583.116150 
	C205.754944,583.974121 211.402924,584.853088 216.544418,586.852722 
	C228.315872,591.430908 240.372925,594.342041 252.950104,595.053955 
	C262.685303,595.604797 272.650116,594.480103 281.656616,599.692383 
	C282.888580,600.405334 284.572723,600.308899 286.026611,600.670959 
	C304.462463,605.261841 323.055176,604.380859 341.669708,602.208191 
	C347.881073,601.483093 353.873444,601.525452 359.778564,604.147949 
	C368.488190,608.015991 377.359222,610.764099 387.258606,610.339478 
	C392.463959,610.116211 397.934387,612.062683 403.006531,613.829285 
	C408.500885,615.742981 413.632507,619.224548 419.254822,614.325195 
	C419.670776,613.962708 420.526062,614.096436 421.179077,614.015259 
	C425.968964,613.419189 430.808136,613.062561 435.519257,612.087219 
	C436.893494,611.802734 438.526855,609.919006 438.901703,608.472900 
	C439.264709,607.072510 438.669739,604.761414 437.624237,603.759705 
	C425.937927,592.562988 411.612610,586.976868 395.892456,584.127563 
	C376.563354,580.624268 357.309875,576.703613 338.063019,572.419128 
	C338.096558,572.057983 338.130066,571.696777 338.764587,570.985229 
	C340.848267,570.016479 342.931946,569.047729 345.638947,568.491333 
	C356.312195,570.934021 367.067352,571.806702 378.698242,570.279541 
	C379.932343,570.495789 381.166412,570.712097 382.877594,571.431519 
	C401.569427,576.928894 420.098297,579.311584 438.342163,569.177490 
	C443.852509,573.885803 450.480286,572.805908 456.924164,572.834106 
	C461.708649,572.855042 466.529572,572.777466 471.266113,573.328918 
	C476.413971,573.928406 480.970703,573.962402 483.046021,567.946289 
	C484.623901,568.540039 485.926147,568.864441 487.065765,569.486633 
	C492.937836,572.692688 498.570007,572.051147 503.957672,568.435242 
	C504.963531,567.760132 505.828918,566.605957 506.259766,565.481567 
	C506.423676,565.053894 505.326599,563.738831 504.558563,563.419922 
	C495.981720,559.858215 487.457001,556.128601 478.708252,553.038879 
	C473.221558,551.101257 467.378723,550.171997 460.879974,548.592041 
	C473.421783,535.374512 485.719086,522.353638 498.100098,509.412842 
	C500.915924,506.469788 504.021606,503.804016 507.337769,501.593445 
	C514.543457,513.199097 525.438171,520.781189 536.442383,528.231140 
	C543.712646,533.153137 551.247864,537.719482 558.221191,543.027405 
	C561.144653,545.252686 562.921448,548.984192 564.683777,552.534424 
	C563.957153,554.012207 562.917969,555.417358 562.554932,556.979614 
	C560.312256,566.631104 558.123657,576.297791 556.120605,586.001404 
	C555.050415,591.185913 556.884827,594.912842 562.087036,595.762329 
	C569.879944,597.034790 577.937195,598.106567 585.746643,597.505310 
	C595.862427,596.726318 605.524231,597.057129 615.238220,600.199280 
	C636.272583,607.003418 655.556580,601.253296 674.042358,591.115540 
	C675.722778,590.193970 676.974121,588.489807 678.813660,586.950745 
	C679.178101,586.707092 679.542542,586.463440 680.710144,586.170959 
	C687.118713,585.198975 692.004395,581.581177 696.379272,577.106140 
	C701.602112,571.763733 700.939392,566.762695 693.969910,563.967590 
	C688.789551,561.889954 683.175171,560.698608 677.646179,559.725647 
	C664.626343,557.434509 652.837036,552.609009 642.329407,544.482361 
	C638.566406,541.572021 634.221741,539.413635 629.528076,536.503845 
	C628.256409,536.133057 626.867676,535.229065 625.732239,535.478455 
	C618.593262,537.046692 614.908875,532.453430 611.637085,527.566284 
	C605.532471,518.447876 599.561890,509.231049 593.821228,499.879791 
	C585.298035,485.995880 577.015930,471.963837 568.646484,457.985687 
	C565.328064,452.443451 562.037170,446.884613 558.758057,441.319031 
	C555.052612,435.029968 551.951050,428.267578 547.460083,422.604675 
	C544.921631,419.403870 540.186462,416.250366 536.323486,416.100647 
	C522.704346,415.572693 508.807892,415.832458 496.042145,421.269989 
	C484.317596,426.264008 473.159302,432.587311 461.534241,438.425415 
	C461.534241,438.425415 461.219635,438.777679 460.841461,438.890228 
M1126.573486,421.176453 
	C1123.867065,422.222839 1121.060913,423.070587 1118.479004,424.365356 
	C1115.182739,426.018463 1112.067505,428.032501 1108.137329,430.077850 
	C1098.198486,431.814880 1089.602173,437.351685 1079.362671,438.998901 
	C1065.692871,441.197998 1051.951782,445.003326 1039.218872,450.417664 
	C1025.661133,456.182709 1011.904785,459.899658 997.461853,461.252899 
	C961.956848,464.579681 933.326843,479.674408 912.980774,509.449097 
	C912.526611,510.113831 911.777710,510.577118 910.605103,511.215576 
	C909.779297,511.591888 908.953552,511.968231 907.423767,512.371460 
	C906.767883,510.861115 905.448914,509.283081 905.594666,507.854492 
	C905.894714,504.913147 907.642578,502.027283 907.537598,499.164673 
	C907.445618,496.657013 906.299683,492.973633 904.452942,491.982239 
	C899.731934,489.447845 894.472107,487.394928 889.207642,486.590149 
	C886.028931,486.104279 884.264404,485.516083 882.614563,482.768524 
	C881.893921,481.568512 878.913879,480.552704 877.606079,481.074127 
	C870.727356,483.816711 863.891968,483.497192 856.608337,483.134430 
	C829.543640,481.786438 808.322876,505.951752 812.413147,532.633728 
	C816.298523,557.979492 837.912720,571.880859 860.646240,565.009216 
	C866.532471,563.230042 872.601074,562.054077 879.412781,560.733765 
	C879.961731,560.809570 880.510681,560.885376 881.346619,561.609314 
	C887.146179,575.296753 900.299744,582.302979 916.835815,580.889771 
	C920.005859,580.618896 923.570679,580.910645 926.463013,582.117798 
	C942.988098,589.014771 959.837952,593.530579 978.004333,591.731506 
	C980.980713,591.436768 984.150940,592.762634 987.190674,593.506470 
	C995.873779,595.631348 1004.481018,599.386169 1013.217712,599.696594 
	C1031.144897,600.333435 1049.135742,598.950989 1067.103271,598.831665 
	C1071.921509,598.799683 1076.775635,600.198730 1081.568237,601.163940 
	C1089.005859,602.661987 1096.345581,605.179504 1103.837769,605.716187 
	C1110.720581,606.209290 1117.205444,606.531189 1123.544312,609.881836 
	C1128.200562,612.343140 1133.663086,615.083130 1138.627075,609.689514 
	C1138.959961,609.327820 1140.007202,609.229553 1140.498657,609.468506 
	C1145.691528,611.993530 1150.179932,608.676758 1154.899292,607.694397 
	C1158.497192,606.945496 1159.602783,601.914795 1156.894043,599.430359 
	C1144.597046,588.151917 1130.186523,581.840942 1113.509155,580.126282 
	C1101.939941,578.936890 1090.472168,576.761902 1079.496094,574.475769 
	C1081.716431,573.967834 1083.914307,573.301208 1086.161621,572.983948 
	C1091.425171,572.240723 1096.712280,571.665039 1102.919434,571.027649 
	C1107.404663,570.765991 1111.895630,570.576477 1116.373901,570.225159 
	C1122.576294,569.738586 1128.394531,570.011353 1134.255615,573.111023 
	C1138.174194,575.183350 1143.166260,575.718262 1147.730957,575.967041 
	C1155.658203,576.399109 1163.628540,575.969116 1171.576904,576.113953 
	C1175.989868,576.194336 1178.133911,574.338562 1178.758789,569.920654 
	C1181.464478,571.150574 1184.105225,572.559021 1186.889526,573.573486 
	C1192.723022,575.699097 1199.847900,572.850281 1202.530396,566.764404 
	C1193.689697,563.248474 1184.879272,559.694824 1176.025024,556.254395 
	C1173.458252,555.257019 1170.765381,554.583801 1167.541382,553.279541 
	C1166.618652,552.939087 1165.718628,552.395081 1164.769653,552.288635 
	C1148.846680,550.502502 1132.917603,548.770874 1116.303101,546.706299 
	C1109.833130,545.238586 1103.238525,544.174072 1096.918579,542.221130 
	C1082.776245,537.851013 1068.404419,536.283752 1053.652588,536.904053 
	C1050.157593,537.050964 1046.593994,535.567932 1043.589600,534.308228 
	C1054.205078,524.952820 1066.778076,523.994324 1080.754272,526.010681 
	C1083.959229,526.884583 1087.133423,527.898682 1090.374023,528.610107 
	C1114.879639,533.989624 1136.519165,529.348206 1154.125000,510.403473 
	C1156.017944,508.366669 1158.525391,506.900970 1161.493774,505.099274 
	C1163.997437,503.480957 1166.679321,502.080841 1168.973633,500.206451 
	C1178.618286,492.326843 1187.913940,484.186737 1199.062378,478.126587 
	C1207.113770,473.750000 1213.779663,466.824677 1221.556396,461.087738 
	C1221.882324,461.131317 1222.208618,461.171631 1222.600098,462.115906 
	C1221.204956,481.489258 1228.751221,497.366547 1241.259155,511.614746 
	C1248.057373,519.358704 1254.150513,527.744141 1260.255371,536.065002 
	C1263.390991,540.338928 1266.013184,545.020996 1268.521362,549.704041 
	C1269.239258,551.044250 1269.193115,553.170166 1268.721680,554.696167 
	C1267.580566,558.389404 1265.679932,561.856140 1264.633667,565.568665 
	C1262.619995,572.713806 1261.317261,580.069580 1259.103394,587.145203 
	C1256.771973,594.596741 1258.133179,598.853333 1265.785522,600.091003 
	C1273.736328,601.377014 1281.959595,600.938232 1290.057495,601.367554 
	C1297.964844,601.786682 1306.471191,600.631653 1313.655151,603.168091 
	C1336.144409,611.108337 1356.634521,606.123840 1376.719604,596.008362 
	C1379.010864,594.854370 1380.524658,592.156677 1382.993286,590.053406 
	C1383.394043,589.978699 1383.794800,589.903992 1384.930420,589.763550 
	C1392.849121,587.942200 1400.088989,584.985474 1405.800049,578.796570 
	C1411.679810,572.425049 1411.037964,567.635376 1402.831055,564.463379 
	C1397.755859,562.501709 1392.277344,561.402893 1386.883179,560.483398 
	C1373.074585,558.129578 1360.762817,552.802368 1350.244995,543.419556 
	C1347.771484,541.212891 1345.070435,539.146057 1342.174805,537.562073 
	C1339.607788,536.157654 1336.425171,534.332581 1333.864868,534.765747 
	C1327.438477,535.852966 1324.834839,531.988159 1322.103516,527.649719 
	C1314.980103,516.334839 1311.406372,503.665741 1308.151733,490.898315 
	C1304.242310,475.561951 1301.056519,459.918060 1292.899292,446.131622 
	C1288.755005,439.127502 1285.870117,432.011627 1284.309326,424.022980 
	C1283.176636,418.224579 1280.794434,412.566864 1278.272949,407.171844 
	C1275.689697,401.644684 1271.123657,397.981079 1264.846313,397.071472 
	C1242.348267,393.811310 1220.399902,397.568390 1198.585938,403.264252 
	C1193.092285,404.079102 1187.463623,404.385529 1182.129395,405.800964 
	C1163.740479,410.680542 1145.454590,415.947296 1126.573486,421.176453 
z"/>
<path fill="#373F4D" opacity="1.000000" stroke="none" 
	d="
M1080.000122,525.820312 
	C1066.778076,523.994324 1054.205078,524.952820 1043.063965,534.659363 
	C1031.628662,542.272766 1020.680115,549.477600 1009.828552,556.825623 
	C1005.514648,559.746704 1001.073669,560.657227 995.989563,558.646240 
	C995.351135,558.269043 994.873230,558.049316 994.395264,557.829590 
	C994.305115,558.036926 994.214905,558.244263 994.124756,558.451599 
	C994.693604,558.697205 995.262451,558.942810 996.121704,559.448730 
	C998.139099,560.140564 999.899475,561.048950 1001.587891,560.930542 
	C1020.152527,559.628479 1037.769165,564.181702 1055.359619,569.197876 
	C1063.146973,571.418518 1071.087769,573.100647 1078.958984,575.027222 
	C1090.472168,576.761902 1101.939941,578.936890 1113.509155,580.126282 
	C1130.186523,581.840942 1144.597046,588.151917 1156.894043,599.430359 
	C1159.602783,601.914795 1158.497192,606.945496 1154.899292,607.694397 
	C1150.179932,608.676758 1145.691528,611.993530 1140.498657,609.468506 
	C1140.007202,609.229553 1138.959961,609.327820 1138.627075,609.689514 
	C1133.663086,615.083130 1128.200562,612.343140 1123.544312,609.881836 
	C1117.205444,606.531189 1110.720581,606.209290 1103.837769,605.716187 
	C1096.345581,605.179504 1089.005859,602.661987 1081.568237,601.163940 
	C1076.775635,600.198730 1071.921509,598.799683 1067.103271,598.831665 
	C1049.135742,598.950989 1031.144897,600.333435 1013.217712,599.696594 
	C1004.481018,599.386169 995.873779,595.631348 987.190674,593.506470 
	C984.150940,592.762634 980.980713,591.436768 978.004333,591.731506 
	C959.837952,593.530579 942.988098,589.014771 926.463013,582.117798 
	C923.570679,580.910645 920.005859,580.618896 916.835815,580.889771 
	C900.299744,582.302979 887.146179,575.296753 881.197388,560.846985 
	C879.778625,551.012268 879.392029,542.017395 883.658813,533.229126 
	C885.750061,531.157410 887.570679,529.263367 889.725708,527.265503 
	C893.470154,525.520325 896.997925,524.077087 900.238464,522.150574 
	C901.767456,521.241638 902.745422,519.405640 904.156128,517.834106 
	C904.574463,517.460388 904.791687,517.225525 905.011230,516.964722 
	C905.031616,516.955627 905.026428,517.009460 904.845703,517.167480 
	C904.429810,517.543579 904.211731,517.777466 903.676880,518.161194 
	C898.482788,521.117065 893.622498,523.938965 888.478516,526.924561 
	C886.386902,528.983093 884.579041,530.877930 882.535950,533.032959 
	C878.530762,538.931274 878.041992,545.248108 878.401733,551.769165 
	C878.563965,554.707581 878.530518,557.656799 878.585815,560.601074 
	C872.601074,562.054077 866.532471,563.230042 860.646240,565.009216 
	C837.912720,571.880859 816.298523,557.979492 812.413147,532.633728 
	C808.322876,505.951752 829.543640,481.786438 856.608337,483.134430 
	C863.891968,483.497192 870.727356,483.816711 877.606079,481.074127 
	C878.913879,480.552704 881.893921,481.568512 882.614563,482.768524 
	C884.264404,485.516083 886.028931,486.104279 889.207642,486.590149 
	C894.472107,487.394928 899.731934,489.447845 904.452942,491.982239 
	C906.299683,492.973633 907.445618,496.657013 907.537598,499.164673 
	C907.642578,502.027283 905.894714,504.913147 905.594666,507.854492 
	C905.448914,509.283081 906.767883,510.861115 907.958618,512.521729 
	C909.384399,512.159424 910.275330,511.646912 911.166260,511.134399 
	C911.777710,510.577118 912.526611,510.113831 912.980774,509.449097 
	C933.326843,479.674408 961.956848,464.579681 997.461853,461.252899 
	C1011.904785,459.899658 1025.661133,456.182709 1039.218872,450.417664 
	C1051.951782,445.003326 1065.692871,441.197998 1079.362671,438.998901 
	C1089.602173,437.351685 1098.198486,431.814880 1108.902100,429.963959 
	C1117.446777,427.181610 1125.226807,424.513153 1132.987061,421.881226 
	C1132.967407,421.917725 1132.894409,421.878387 1133.320557,421.905396 
	C1153.157837,417.099121 1172.568970,412.265900 1192.402222,407.343079 
	C1213.528320,403.736359 1234.227905,399.178101 1254.985352,407.004333 
	C1254.992065,407.011719 1255.010132,407.019135 1255.113159,407.235077 
	C1255.412964,407.717651 1255.669678,407.899963 1255.990723,408.001770 
	C1255.995117,408.005646 1256.001953,408.013824 1256.110107,408.229248 
	C1256.415405,408.713287 1256.672607,408.899200 1256.992432,409.003082 
	C1256.995239,409.003662 1256.997925,409.010498 1257.107422,409.226074 
	C1257.411133,409.715057 1257.668457,409.901642 1257.991943,410.002258 
	C1257.995117,410.003113 1257.993652,410.012543 1258.002197,410.378296 
	C1263.440918,420.225037 1265.208740,430.643127 1266.293457,441.338745 
	C1266.563232,443.999481 1268.725342,446.468323 1270.012207,449.010620 
	C1270.006714,448.995819 1269.988037,448.970490 1270.004517,449.299377 
	C1270.350342,450.428802 1270.679565,451.229340 1271.003296,452.015472 
	C1270.997803,452.001068 1270.976318,451.978821 1271.112061,452.188477 
	C1271.455078,452.667633 1271.712158,452.875427 1272.012573,453.008728 
	C1272.005981,452.996002 1271.984131,452.977448 1272.000488,453.358765 
	C1276.506714,471.062988 1280.662720,488.482208 1285.617554,505.671173 
	C1288.398926,515.320190 1292.501221,524.588562 1296.004395,534.013916 
	C1296.000244,533.999390 1295.983276,533.974548 1296.057251,534.255615 
	C1296.424805,535.034180 1296.718262,535.531677 1297.005859,536.014832 
	C1297.000000,536.000549 1296.977783,535.978943 1297.060303,536.306824 
	C1298.098511,538.098328 1299.054199,539.561951 1300.004883,541.012573 
	C1299.999878,540.999573 1299.978638,540.981323 1300.116211,541.189453 
	C1300.464844,541.662048 1300.721191,541.870728 1301.015747,542.009521 
	C1301.008423,541.995361 1300.987183,541.971680 1300.932617,542.308105 
	C1300.431885,544.133301 1299.985718,545.622070 1299.335571,547.791138 
	C1307.772217,545.202454 1314.431519,548.158630 1320.462891,553.405823 
	C1321.397095,554.218506 1322.803589,554.488159 1323.995850,555.004517 
	C1324.000000,555.000000 1323.991821,555.010437 1324.066650,555.345642 
	C1325.768066,556.792969 1327.394775,557.905029 1329.012451,559.006470 
	C1329.003418,558.995789 1328.978638,558.983276 1329.057861,559.318115 
	C1330.756226,560.772339 1332.375610,561.891785 1333.997437,563.005615 
	C1334.000000,563.000000 1333.990723,563.008545 1334.115723,563.306152 
	C1335.154419,564.069214 1336.068115,564.534546 1336.987671,565.004883 
	C1336.993408,565.009766 1337.005249,565.017700 1337.126953,565.332886 
	C1338.837158,566.437012 1340.425781,567.225952 1342.008057,568.005981 
	C1342.001709,567.997131 1341.980591,567.992920 1342.126465,568.300476 
	C1346.320801,570.423096 1350.250488,572.604492 1354.446655,573.962524 
	C1359.973999,575.751282 1365.782959,576.658875 1371.337036,578.377686 
	C1377.120728,580.167664 1382.185059,582.993652 1382.398926,590.174805 
	C1380.524658,592.156677 1379.010864,594.854370 1376.719604,596.008362 
	C1356.634521,606.123840 1336.144409,611.108337 1313.655151,603.168091 
	C1306.471191,600.631653 1297.964844,601.786682 1290.057495,601.367554 
	C1281.959595,600.938232 1273.736328,601.377014 1265.785522,600.091003 
	C1258.133179,598.853333 1256.771973,594.596741 1259.103394,587.145203 
	C1261.317261,580.069580 1262.619995,572.713806 1264.633667,565.568665 
	C1265.679932,561.856140 1267.580566,558.389404 1268.721680,554.696167 
	C1269.193115,553.170166 1269.239258,551.044250 1268.521362,549.704041 
	C1266.013184,545.020996 1263.390991,540.338928 1260.255371,536.065002 
	C1254.150513,527.744141 1248.057373,519.358704 1241.259155,511.614746 
	C1228.751221,497.366547 1221.204956,481.489258 1222.637451,461.293854 
	C1223.092163,456.494141 1221.107910,456.157257 1218.179688,457.632996 
	C1210.762939,461.371002 1203.390625,465.196869 1195.989868,468.966888 
	C1195.189209,469.374664 1194.319702,469.647186 1193.482178,469.982483 
	C1193.918579,470.494110 1194.354980,471.005707 1194.791382,471.517334 
	C1201.880859,467.953735 1208.918335,464.278687 1216.106323,460.926178 
	C1217.449341,460.299713 1219.395508,460.966217 1221.063354,461.036072 
	C1213.779663,466.824677 1207.113770,473.750000 1199.062378,478.126587 
	C1187.913940,484.186737 1178.618286,492.326843 1168.973633,500.206451 
	C1166.679321,502.080841 1163.997437,503.480957 1161.101318,504.726288 
	C1164.027710,499.299652 1167.182861,494.128448 1170.706055,489.221710 
	C1175.248413,482.895630 1180.183105,476.851624 1184.730347,470.528992 
	C1185.958496,468.821320 1186.396362,466.545319 1187.311157,464.242218 
	C1185.746216,463.971436 1185.023682,463.611053 1184.470581,463.786255 
	C1177.058594,466.134308 1169.346802,467.860382 1162.344238,471.108978 
	C1148.489624,477.536255 1137.242554,487.806763 1125.576294,497.490143 
	C1112.323364,508.490417 1099.529541,520.516357 1081.736084,524.208496 
	C1081.074463,524.345825 1080.575073,525.265320 1080.000122,525.820312 
M940.006897,530.311279 
	C939.800964,530.085938 939.577881,529.879089 939.057007,529.131897 
	C938.123291,528.333557 937.189575,527.535217 935.750671,526.272217 
	C931.420776,523.335876 926.901367,520.988892 921.374817,521.749268 
	C926.126160,523.614685 930.877502,525.480164 935.968201,527.857544 
	C936.894897,528.667297 937.821655,529.476990 939.064087,530.617615 
	C939.276794,530.836426 939.496948,531.047607 940.031128,531.612183 
	C940.248413,531.841858 940.479065,532.057190 941.033447,532.614014 
	C941.252563,532.840637 941.484924,533.052673 942.037964,533.737976 
	C942.583252,534.272766 943.128479,534.807556 943.755859,535.931458 
	C944.345642,538.735168 942.509949,539.288513 940.612793,538.634155 
	C937.715210,537.634705 935.012268,536.070862 932.054810,534.693054 
	C932.054810,534.693054 931.765076,534.844910 931.765076,534.844910 
	C931.765076,534.844910 931.792786,535.184814 932.093994,535.807495 
	C934.954041,540.572388 939.920959,540.633850 944.466125,540.815918 
	C959.517029,541.418640 973.087341,546.363892 985.841797,554.022461 
	C987.319702,554.909912 988.881287,555.657837 990.404114,556.470459 
	C990.622498,556.132385 990.840881,555.794250 991.059265,555.456116 
	C989.979980,554.616211 988.966614,553.670044 987.811096,552.953003 
	C977.238464,546.391602 965.842163,542.030273 953.629395,539.507080 
	C950.318726,538.823120 947.371521,536.379944 943.940979,534.266663 
	C943.399353,533.731018 942.857727,533.195374 942.018677,532.291809 
	C941.815918,532.045959 941.584106,531.831543 941.023438,531.279907 
	C940.813416,531.038025 940.573730,530.830200 940.006897,530.311279 
M1187.522705,475.159668 
	C1187.271973,475.352905 1187.045166,475.571014 1186.313965,476.001923 
	C1185.860107,476.323181 1185.406128,476.644440 1184.578125,477.251648 
	C1184.340210,477.462372 1184.143921,477.706512 1183.920898,478.018097 
	C1183.920898,478.018097 1184.018799,478.013062 1184.422241,477.766876 
	C1184.680298,477.578217 1184.891357,477.346741 1185.625854,476.960571 
	C1186.126587,476.675446 1186.627197,476.390320 1187.500854,475.812012 
	C1187.746948,475.608429 1187.958862,475.374054 1188.188965,475.006348 
	C1188.188965,475.006348 1187.910400,474.888763 1187.522705,475.159668 
M1272.973145,559.825378 
	C1272.973145,559.825378 1272.745850,559.911621 1272.745850,559.911621 
	C1272.745850,559.911621 1272.796387,560.170898 1273.098022,560.539429 
	C1273.320557,560.766357 1273.564331,560.967712 1274.184692,561.738708 
	C1279.084961,565.425781 1282.784424,565.521667 1285.696411,562.825195 
	C1282.258301,562.261597 1278.161499,561.589905 1273.773682,560.544678 
	C1273.567627,560.303406 1273.338745,560.085999 1272.973145,559.825378 
M1076.377563,442.795349 
	C1076.370117,443.055573 1076.362549,443.315826 1076.355103,443.576080 
	C1076.634644,443.441956 1076.914062,443.307831 1077.616577,442.966827 
	C1077.894775,442.814209 1078.144897,442.624420 1078.662842,442.233795 
	C1078.715576,442.003967 1078.768188,441.774139 1078.820801,441.544250 
	C1078.477783,441.633545 1078.134766,441.722839 1077.381104,442.038391 
	C1077.111938,442.204102 1076.874268,442.406799 1076.377563,442.795349 
M1050.549927,484.508209 
	C1051.122192,504.126312 1064.597778,515.323120 1084.076172,512.291382 
	C1094.898071,510.606995 1104.123047,505.359039 1112.866821,499.102966 
	C1128.434692,487.964233 1144.054199,476.896240 1159.527954,465.628387 
	C1164.218384,462.212891 1168.882812,458.601166 1172.868408,454.420868 
	C1177.440796,449.625244 1176.466064,445.735107 1170.372070,443.213287 
	C1165.160034,441.056427 1159.742798,439.293884 1154.286743,437.845032 
	C1127.109131,430.627960 1100.757935,431.952423 1076.129028,446.693787 
	C1062.148438,455.061707 1051.623047,466.179138 1050.549927,484.508209 
M1132.914429,604.778870 
	C1129.611694,602.872986 1126.308838,600.967102 1123.006104,599.061218 
	C1122.685547,599.626099 1122.364990,600.190918 1122.044434,600.755737 
	C1125.474365,602.678223 1128.899902,604.608704 1132.366821,606.461914 
	C1132.431396,606.496399 1132.986084,605.614136 1132.914429,604.778870 
M1294.065063,552.847290 
	C1294.759277,551.692017 1295.453613,550.536682 1296.147949,549.381409 
	C1295.685669,549.121338 1295.223389,548.861267 1294.761108,548.601257 
	C1292.834473,552.042053 1290.907837,555.482849 1288.981201,558.923645 
	C1289.432373,559.183167 1289.883423,559.442688 1290.334595,559.702209 
	C1291.461182,557.608704 1292.587769,555.515137 1294.065063,552.847290 
M1190.943237,472.793671 
	C1191.001587,472.793518 1191.059937,472.793335 1190.943237,472.793671 
M1118.968506,598.475098 
	C1118.968506,598.475098 1119.000610,598.477661 1118.968506,598.475098 
M1136.450684,607.499023 
	C1136.450684,607.499023 1136.507568,607.477722 1136.450684,607.499023 
M930.468445,532.515686 
	C930.468445,532.515686 930.517944,532.496338 930.468445,532.515686 
z"/>
<path fill="#363E4D" opacity="1.000000" stroke="none" 
	d="
M338.023712,572.963379 
	C357.309875,576.703613 376.563354,580.624268 395.892456,584.127563 
	C411.612610,586.976868 425.937927,592.562988 437.624237,603.759705 
	C438.669739,604.761414 439.264709,607.072510 438.901703,608.472900 
	C438.526855,609.919006 436.893494,611.802734 435.519257,612.087219 
	C430.808136,613.062561 425.968964,613.419189 421.179077,614.015259 
	C420.526062,614.096436 419.670776,613.962708 419.254822,614.325195 
	C413.632507,619.224548 408.500885,615.742981 403.006531,613.829285 
	C397.934387,612.062683 392.463959,610.116211 387.258606,610.339478 
	C377.359222,610.764099 368.488190,608.015991 359.778564,604.147949 
	C353.873444,601.525452 347.881073,601.483093 341.669708,602.208191 
	C323.055176,604.380859 304.462463,605.261841 286.026611,600.670959 
	C284.572723,600.308899 282.888580,600.405334 281.656616,599.692383 
	C272.650116,594.480103 262.685303,595.604797 252.950104,595.053955 
	C240.372925,594.342041 228.315872,591.430908 216.544418,586.852722 
	C211.402924,584.853088 205.754944,583.974121 200.254333,583.116150 
	C187.696915,581.157288 177.260986,576.386169 172.121063,562.901245 
	C170.719452,553.152039 169.834808,544.215576 175.008850,535.991455 
	C175.000549,536.001282 174.981369,536.018738 175.185532,535.879028 
	C175.646500,535.525574 175.856262,535.272827 176.010162,534.991089 
	C176.001297,535.001160 175.981094,535.018982 176.185440,534.879761 
	C176.647171,534.527527 176.856506,534.274719 177.009476,533.991577 
	C177.001190,534.001099 176.981995,534.017761 177.188354,533.881714 
	C177.655182,533.535217 177.862198,533.281128 178.008392,532.992004 
	C178.001022,533.000549 177.983337,533.014771 178.261047,532.899475 
	C179.032455,532.182007 179.526184,531.579834 180.008911,530.987305 
	C179.997940,530.996948 179.973312,531.012634 180.354172,530.995667 
	C185.626953,529.175781 190.574493,527.502808 195.360703,525.453003 
	C196.244568,525.074463 196.476151,523.172852 197.002426,521.990723 
	C196.996048,522.007202 196.980743,522.038940 197.152512,521.797791 
	C197.555481,521.011414 197.786697,520.466248 198.027191,519.644287 
	C198.044098,519.182983 198.051758,518.998535 198.059402,518.814026 
	C205.252014,521.309998 210.282333,518.604858 214.928024,512.919800 
	C217.995468,509.166138 222.043289,505.672760 226.387360,503.614777 
	C235.684219,499.210480 245.352692,495.515869 255.061172,492.072571 
	C269.680878,486.887451 284.217010,487.376282 299.140656,492.101135 
	C312.241943,496.248993 325.788208,499.605957 339.868896,497.067932 
	C340.355957,496.980164 340.881165,496.928101 341.362579,497.010834 
	C353.188599,499.043365 364.330139,495.200500 375.632111,492.911896 
	C377.637177,492.505829 379.517120,491.165741 381.294220,490.010010 
	C386.438477,486.664520 391.500946,483.193176 397.004883,479.619049 
	C397.390564,479.984619 397.366852,480.502380 397.343140,481.020142 
	C397.781464,480.622284 398.219818,480.224426 399.285156,479.380249 
	C399.827576,479.253021 399.637756,479.475250 399.342743,479.600555 
	C400.103455,478.456207 400.864197,477.311829 402.170807,475.364563 
	C403.951019,473.232635 405.739746,470.549683 406.330780,470.791687 
	C410.554962,472.521332 412.718597,469.125000 415.413727,467.501556 
	C425.915680,461.175385 436.275055,454.612640 446.687469,448.137848 
	C447.109222,447.474731 447.530975,446.811615 448.469421,445.073730 
	C450.745239,443.136749 452.504395,442.274445 455.082611,441.010620 
	C455.372253,440.133026 455.710052,437.284973 458.783264,440.315887 
	C458.783264,440.315887 458.954803,439.950104 458.798523,439.403381 
	C459.319672,438.987030 459.997101,439.117371 460.674530,439.247742 
	C460.674530,439.247742 460.841461,438.890228 460.847107,438.599243 
	C461.152313,438.313812 461.451935,438.319397 461.751526,438.324982 
	C473.159302,432.587311 484.317596,426.264008 496.042145,421.269989 
	C508.807892,415.832458 522.704346,415.572693 536.323486,416.100647 
	C540.186462,416.250366 544.921631,419.403870 547.460083,422.604675 
	C551.951050,428.267578 555.052612,435.029968 558.758057,441.319031 
	C562.037170,446.884613 565.328064,452.443451 568.646484,457.985687 
	C577.015930,471.963837 585.298035,485.995880 593.821228,499.879791 
	C599.561890,509.231049 605.532471,518.447876 611.637085,527.566284 
	C614.908875,532.453430 618.593262,537.046692 625.732239,535.478455 
	C626.867676,535.229065 628.256409,536.133057 629.515259,536.871582 
	C627.927002,538.600952 626.298950,539.906982 624.788452,541.337219 
	C622.479553,543.523376 620.251831,545.795288 617.694763,547.906738 
	C616.593140,547.517029 615.786377,547.251404 614.989990,546.992920 
	C615.000244,547.000122 615.018005,547.018250 614.879150,546.814209 
	C614.528442,546.352722 614.276184,546.143982 613.991211,545.991272 
	C613.998901,545.998474 614.009766,546.016174 614.061523,545.658752 
	C614.415466,543.365173 614.717712,541.429016 615.227295,538.164795 
	C613.479553,540.766907 612.595581,542.082947 611.855164,543.185242 
	C606.314453,542.163269 601.211731,541.222107 596.400513,540.334717 
	C595.262268,541.890869 594.119751,543.452942 592.987549,545.006104 
	C592.997864,544.997253 593.020203,544.981873 592.688293,545.079834 
	C590.238892,549.120422 588.121399,553.062988 586.001953,557.002808 
	C586.000000,557.000000 586.005432,557.003906 585.612000,556.998413 
	C579.143250,559.064392 573.209778,560.489624 568.723022,553.904419 
	C568.188416,553.119751 567.241638,552.615784 566.274597,551.990112 
	C565.782043,552.009216 565.500793,552.020020 565.219604,552.030945 
	C562.921448,548.984192 561.144653,545.252686 558.221191,543.027405 
	C551.247864,537.719482 543.712646,533.153137 536.442383,528.231140 
	C525.438171,520.781189 514.543457,513.199097 507.074097,500.952057 
	C502.237701,490.888611 499.037750,481.076263 498.214935,470.563751 
	C497.970276,467.438171 496.471436,465.276001 493.064117,464.833954 
	C493.012024,464.819244 492.867035,465.105896 493.094696,465.371704 
	C499.084259,472.044403 498.845428,482.631073 492.834595,488.659607 
	C486.533539,494.979248 480.185028,501.254486 474.011261,507.696686 
	C471.521820,510.294373 469.441254,513.283875 467.166199,515.708679 
	C468.341522,510.077484 469.525177,504.832703 471.027222,498.177216 
	C467.631744,499.394806 465.555542,499.645081 464.117767,500.736389 
	C455.797302,507.051910 446.701874,512.696838 439.633118,520.225342 
	C430.095642,530.383179 422.220520,542.092651 413.513092,553.041748 
	C405.528168,563.082397 395.602661,569.892212 382.400513,570.928406 
	C381.166412,570.712097 379.932343,570.495789 378.040680,570.009033 
	C372.238953,568.044678 367.047211,566.481201 361.962677,564.624146 
	C355.535706,562.276672 350.060333,563.967346 345.015625,568.078979 
	C342.931946,569.047729 340.848267,570.016479 338.039917,571.093262 
	C328.709290,569.335388 320.171021,567.004211 311.477661,565.738708 
	C303.305573,564.549011 294.969757,564.484375 286.705963,563.924683 
	C286.672241,564.518127 286.638489,565.111511 286.604736,565.704895 
	C293.335510,566.023499 300.153656,565.773438 306.776947,566.791199 
	C317.261108,568.402344 327.614807,570.862488 338.023712,572.963379 
M593.857178,536.466431 
	C593.649170,536.239563 593.425781,536.028992 592.930664,535.258057 
	C592.014832,534.122925 591.098999,532.987793 589.938293,531.198486 
	C586.860596,526.144470 583.782898,521.090393 580.705200,516.036377 
	C580.168274,516.392700 579.631348,516.749084 579.094421,517.105408 
	C582.604736,522.173828 586.115051,527.242188 589.877686,532.899353 
	C590.838928,534.025269 591.800171,535.151245 593.071899,536.609497 
	C593.280212,536.830627 593.497986,537.041931 593.898682,537.338318 
	C593.898682,537.338318 594.226318,537.188354 594.226318,537.188354 
	C594.226318,537.188354 594.157959,536.814941 593.857178,536.466431 
M529.983582,426.862488 
	C529.983582,426.862488 529.902588,427.075745 529.978394,427.162323 
	C529.978394,427.162323 530.058472,426.923676 529.983582,426.862488 
M532.904724,430.664154 
	C532.683472,430.495605 532.462280,430.327057 532.241028,430.158508 
	C532.215149,430.293671 532.123291,430.507233 532.174744,430.550507 
	C532.406555,430.745483 532.679016,430.892181 532.971558,431.507721 
	C533.212402,431.921326 533.453186,432.334930 533.694031,432.748505 
	C533.876160,432.617065 534.058289,432.485626 534.240417,432.354156 
	C533.836609,431.891449 533.432861,431.428772 532.904724,430.664154 
M544.985901,451.856049 
	C544.985901,451.856049 544.884155,452.090424 544.984131,452.739166 
	C545.600342,453.869781 546.216492,455.000397 547.005981,456.678467 
	C547.583557,457.429077 548.161072,458.179657 548.738647,458.930267 
	C548.960388,458.715424 549.182068,458.500610 549.403809,458.285767 
	C548.704834,457.437378 548.005920,456.589020 547.096619,455.142334 
	C546.420044,454.066162 545.743469,452.989990 544.985901,451.856049 
M561.014954,480.128204 
	C561.014954,480.128204 561.086731,479.933746 560.988586,479.200836 
	C558.039734,473.419189 555.090881,467.637512 552.142029,461.855835 
	C551.507935,462.219818 550.873779,462.583801 550.239624,462.947754 
	C553.808960,468.654755 557.378296,474.361786 561.014954,480.128204 
M282.945862,563.328064 
	C282.945862,563.328064 283.254486,563.179382 283.254486,563.179382 
	C283.254486,563.179382 283.194733,562.827026 282.727264,562.342896 
	C266.829163,550.514282 249.188370,543.338196 229.180969,542.540405 
	C231.299301,543.618958 233.552917,544.472778 235.872513,544.728821 
	C250.253967,546.316284 263.250244,551.486694 275.262787,559.424622 
	C277.592133,560.963867 280.254639,561.999084 282.945862,563.328064 
M423.787384,528.293152 
	C425.631226,526.371216 427.586761,524.543396 429.299500,522.510925 
	C436.474060,513.996765 444.084961,505.786530 450.558319,496.763519 
	C456.787537,488.080841 454.294708,483.534149 443.746826,483.095490 
	C435.609924,482.757111 427.411621,482.655060 419.297577,483.238983 
	C394.526489,485.021515 373.922699,495.495667 357.630646,514.217041 
	C354.827698,517.437927 352.216187,521.085510 350.532715,524.975830 
	C343.007965,542.364197 352.058960,562.044006 373.998413,561.781555 
	C382.772644,561.676575 390.466644,558.648865 396.902649,553.153809 
	C406.000336,545.386108 414.529053,536.952087 423.787384,528.293152 
M569.831665,498.666931 
	C572.265808,503.433258 574.700012,508.199585 577.134155,512.965942 
	C577.595337,512.722900 578.056580,512.479858 578.517761,512.236816 
	C573.989563,503.147614 569.461304,494.058441 564.933105,484.969269 
	C564.445190,485.208496 563.957275,485.447754 563.469360,485.686981 
	C565.482544,489.789673 567.495728,493.892365 569.831665,498.666931 
M403.568054,605.212219 
	C407.304321,607.430603 411.040558,609.649048 414.776825,611.867493 
	C415.093750,611.286316 415.410706,610.705139 415.727631,610.123962 
	C410.923645,607.463440 406.119629,604.802917 401.315643,602.142334 
	C401.079956,602.555481 400.844238,602.968567 400.608551,603.381653 
	C401.406525,603.894958 402.204529,604.408203 403.568054,605.212219 
M231.856888,536.690247 
	C228.253265,534.490356 224.649658,532.290466 221.046036,530.090576 
	C220.685211,530.778137 220.324387,531.465698 219.963577,532.153259 
	C223.999786,533.817383 228.035995,535.481445 231.856888,536.690247 
M538.833191,442.112640 
	C539.989258,444.358551 541.145386,446.604462 542.301514,448.850342 
	C542.799133,448.499603 543.296814,448.148834 543.794434,447.798096 
	C542.152344,445.747375 540.510193,443.696655 538.833191,442.112640 
M535.796387,436.707550 
	C536.035828,437.084473 536.275269,437.461395 536.514709,437.838287 
	C536.734985,437.556122 536.955261,437.273926 537.175537,436.991730 
	C536.737183,436.782532 536.298828,436.573334 535.796387,436.707550 
M225.509506,538.920898 
	C225.509506,538.920898 225.582169,538.981018 225.509506,538.920898 
M222.951813,536.510193 
	C222.951813,536.510193 222.993774,536.463257 222.951813,536.510193 
M562.442993,482.500183 
	C562.442993,482.500183 562.524719,482.458679 562.442993,482.500183 
M217.497284,529.474365 
	C217.497284,529.474365 217.516357,529.517883 217.497284,529.474365 
M215.523041,528.488770 
	C215.523041,528.488770 215.498123,528.487671 215.523041,528.488770 
M201.486649,521.520813 
	C201.486649,521.520813 201.507935,521.520752 201.486649,521.520813 
z"/>
<path fill="#353D4C" opacity="1.000000" stroke="none" 
	d="
M1198.539673,402.367828 
	C1220.399902,397.568390 1242.348267,393.811310 1264.846313,397.071472 
	C1271.123657,397.981079 1275.689697,401.644684 1278.272949,407.171844 
	C1280.794434,412.566864 1283.176636,418.224579 1284.309326,424.022980 
	C1285.870117,432.011627 1288.755005,439.127502 1292.899292,446.131622 
	C1301.056519,459.918060 1304.242310,475.561951 1308.151733,490.898315 
	C1311.406372,503.665741 1314.980103,516.334839 1322.103516,527.649719 
	C1324.834839,531.988159 1327.438477,535.852966 1333.864868,534.765747 
	C1336.425171,534.332581 1339.607788,536.157654 1342.174805,537.562073 
	C1345.070435,539.146057 1347.771484,541.212891 1350.244995,543.419556 
	C1360.762817,552.802368 1373.074585,558.129578 1386.883179,560.483398 
	C1392.277344,561.402893 1397.755859,562.501709 1402.831055,564.463379 
	C1411.037964,567.635376 1411.679810,572.425049 1405.800049,578.796570 
	C1400.088989,584.985474 1392.849121,587.942200 1384.531982,589.411377 
	C1383.727051,581.487244 1378.168091,578.587219 1372.176392,576.679626 
	C1362.200439,573.503418 1352.054810,570.860413 1341.980591,567.992920 
	C1341.980591,567.992920 1342.001709,567.997131 1341.815063,567.737915 
	C1340.087402,566.658325 1338.546265,565.838013 1337.005249,565.017700 
	C1337.005249,565.017700 1336.993408,565.009766 1336.819580,564.744995 
	C1335.760742,563.989685 1334.875732,563.499146 1333.990723,563.008545 
	C1333.990723,563.008545 1334.000000,563.000000 1333.835449,562.720825 
	C1332.106689,561.288818 1330.542725,560.136047 1328.978638,558.983276 
	C1328.978638,558.983276 1329.003418,558.995789 1328.835327,558.729736 
	C1327.108765,557.312622 1325.550293,556.161560 1323.991821,555.010437 
	C1323.991821,555.010437 1324.000000,555.000000 1323.847656,554.714600 
	C1322.457153,551.950989 1321.218994,549.472717 1320.258301,546.794678 
	C1322.042969,543.411133 1323.550171,540.227417 1325.083984,537.018616 
	C1325.110596,536.993591 1324.965454,536.953735 1324.650024,537.094238 
	C1322.895752,540.499573 1321.456909,543.764343 1319.675781,547.111572 
	C1313.034180,546.098511 1306.360962,546.317444 1300.987183,541.971680 
	C1300.987183,541.971680 1301.008423,541.995361 1300.871948,541.806763 
	C1300.525391,541.355774 1300.273071,541.143433 1299.978638,540.981323 
	C1299.978638,540.981323 1299.999878,540.999573 1299.982666,540.659058 
	C1298.969604,538.871948 1297.973755,537.425476 1296.977783,535.978943 
	C1296.977783,535.978943 1297.000000,536.000549 1296.944580,535.727783 
	C1296.587280,534.961487 1296.285278,534.468018 1295.983276,533.974548 
	C1295.983276,533.974548 1296.000244,533.999390 1296.010010,533.618530 
	C1290.230103,511.432892 1284.598633,489.584015 1278.535278,467.855713 
	C1277.093506,462.689240 1274.206299,457.926147 1271.984131,452.977478 
	C1271.984131,452.977448 1272.005981,452.996002 1271.875000,452.800812 
	C1271.533813,452.340790 1271.277832,452.131866 1270.976318,451.978821 
	C1270.976318,451.978821 1270.997803,452.001068 1270.981812,451.687500 
	C1270.639893,450.572815 1270.313965,449.771667 1269.988037,448.970520 
	C1269.988037,448.970490 1270.006714,448.995819 1269.917725,448.640167 
	C1268.543213,441.454651 1267.312500,434.613861 1265.956299,427.798065 
	C1264.659058,421.277710 1263.395996,414.709381 1257.993652,410.012543 
	C1257.993652,410.012543 1257.995117,410.003113 1257.868042,409.798950 
	C1257.540894,409.339508 1257.293213,409.144775 1256.997925,409.010498 
	C1256.997925,409.010498 1256.995239,409.003662 1256.871826,408.797791 
	C1256.549194,408.335449 1256.300293,408.142731 1256.001953,408.013824 
	C1256.001953,408.013824 1255.995117,408.005646 1255.872559,407.797882 
	C1255.553467,407.334839 1255.306885,407.144531 1255.010132,407.019135 
	C1255.010132,407.019135 1254.992065,407.011719 1254.803467,406.714355 
	C1249.572510,401.883698 1243.236328,400.773804 1236.986084,401.156464 
	C1223.327759,401.992584 1209.715332,403.579468 1196.006836,404.311401 
	C1195.871216,403.398651 1195.812988,403.034180 1195.200806,402.121582 
	C1195.969238,400.879608 1197.291504,400.185730 1198.613770,399.491882 
	C1198.589111,400.450562 1198.564453,401.409180 1198.539673,402.367828 
z"/>
<path fill="#373F4D" opacity="1.000000" stroke="none" 
	d="
M197.939606,518.484741 
	C198.051758,518.998535 198.044098,519.182983 197.853699,519.887085 
	C197.440872,520.950806 197.210800,521.494873 196.980743,522.038940 
	C196.980743,522.038940 196.996048,522.007202 196.667114,522.099731 
	C190.883240,525.132385 185.428284,528.072510 179.973328,531.012634 
	C179.973312,531.012634 179.997940,530.996948 179.732574,531.105164 
	C178.972580,531.813843 178.477966,532.414307 177.983337,533.014771 
	C177.983337,533.014771 178.001022,533.000549 177.793503,533.118164 
	C177.316635,533.443848 177.115295,533.704529 176.981995,534.017761 
	C176.981995,534.017761 177.001190,534.001099 176.795242,534.119385 
	C176.322083,534.447937 176.119339,534.708374 175.981094,535.018982 
	C175.981094,535.018982 176.001297,535.001160 175.796082,535.119446 
	C175.323532,535.447998 175.120377,535.708374 174.981369,536.018738 
	C174.981369,536.018738 175.000549,536.001282 174.675980,536.087158 
	C173.109192,537.843750 171.393768,539.341675 170.709396,541.216064 
	C168.194962,548.102722 168.538757,555.071472 170.977707,561.955444 
	C166.456772,563.043518 161.839493,563.835327 157.431198,565.269653 
	C135.579269,572.379456 119.335472,562.593506 111.293358,547.825012 
	C101.269997,529.418030 105.444283,507.736755 121.729340,495.307190 
	C131.884842,487.556000 143.136108,482.829834 156.660065,486.189178 
	C160.135757,487.052582 164.429123,485.197723 168.207657,484.108673 
	C172.053314,483.000305 175.411057,482.167877 177.211945,487.034851 
	C177.458313,487.700623 178.269150,488.406647 178.963394,488.617554 
	C183.792755,490.084564 188.609177,491.657013 193.529343,492.745392 
	C198.991425,493.953705 201.362991,496.584229 200.609924,502.131714 
	C200.164978,505.409515 198.976532,508.579742 198.351288,511.842194 
	C197.955994,513.904785 197.982513,516.048279 197.939606,518.484741 
z"/>
<path fill="#373F4D" opacity="1.000000" stroke="none" 
	d="
M564.951660,552.282715 
	C565.500793,552.020020 565.782043,552.009216 566.402588,552.346619 
	C570.674561,561.659363 578.788269,563.474365 586.005432,557.003906 
	C586.005432,557.003906 586.000000,557.000000 586.294373,556.825745 
	C588.732544,552.761597 590.876343,548.871704 593.020142,544.981873 
	C593.020203,544.981873 592.997864,544.997253 593.389160,544.973511 
	C600.688232,542.182678 607.367371,543.750427 614.009766,546.016174 
	C614.009766,546.016174 613.998901,545.998474 614.119507,546.204102 
	C614.453552,546.671143 614.712830,546.874023 615.018005,547.018250 
	C615.018005,547.018250 615.000244,547.000122 615.127502,547.287354 
	C616.173035,548.056702 617.091248,548.538818 618.005310,549.009155 
	C618.001099,548.997437 617.981384,548.982056 618.070312,549.275024 
	C618.777039,550.051025 619.394897,550.534058 620.007568,551.007202 
	C620.002441,550.997375 619.981445,550.990356 620.080811,551.312256 
	C621.127014,552.599121 622.073853,553.564026 623.095093,554.606201 
	C623.169556,554.683350 623.478149,554.981201 623.778320,555.155090 
	C624.724304,555.556763 625.370117,555.784546 626.009460,556.004028 
	C626.003052,555.995789 625.982422,555.991638 626.088013,556.271729 
	C626.799805,557.041199 627.406067,557.530579 628.006165,558.009888 
	C628.000000,557.999878 627.977478,557.992432 628.189087,558.194336 
	C628.940552,558.602173 629.480408,558.808105 630.011719,559.004822 
	C630.003113,558.995667 629.979004,558.988647 630.117798,559.282227 
	C631.178772,560.056091 632.100952,560.536377 633.013000,561.006348 
	C633.002869,560.996033 632.976379,560.984558 633.108154,561.291992 
	C635.167175,562.740234 637.094482,563.881042 639.010254,565.011658 
	C638.998779,565.001465 638.969849,564.991150 639.236084,565.213379 
	C644.100952,567.289551 648.624695,569.365601 653.315308,570.946716 
	C660.822998,573.477295 668.441223,575.679749 676.007202,578.009460 
	C676.001587,577.998047 675.980042,577.984497 676.117737,578.189941 
	C676.468323,578.653381 676.721924,578.861694 677.009521,579.009033 
	C677.002808,578.997803 676.980103,578.984680 677.082397,579.377197 
	C677.598083,582.229431 678.011414,584.689270 678.424683,587.149048 
	C676.974121,588.489807 675.722778,590.193970 674.042358,591.115540 
	C655.556580,601.253296 636.272583,607.003418 615.238220,600.199280 
	C605.524231,597.057129 595.862427,596.726318 585.746643,597.505310 
	C577.937195,598.106567 569.879944,597.034790 562.087036,595.762329 
	C556.884827,594.912842 555.050415,591.185913 556.120605,586.001404 
	C558.123657,576.297791 560.312256,566.631104 562.554932,556.979614 
	C562.917969,555.417358 563.957153,554.012207 564.951660,552.282715 
z"/>
<path fill="#1E2532" opacity="1.000000" stroke="none" 
	d="
M1079.227539,574.751465 
	C1071.087769,573.100647 1063.146973,571.418518 1055.359619,569.197876 
	C1037.769165,564.181702 1020.152527,559.628479 1001.587891,560.930542 
	C999.899475,561.048950 998.139099,560.140564 996.201477,559.352661 
	C995.990845,558.996277 996.150024,558.803772 996.150024,558.803772 
	C1001.073669,560.657227 1005.514648,559.746704 1009.828552,556.825623 
	C1020.680115,549.477600 1031.628662,542.272766 1042.800171,534.922607 
	C1046.593994,535.567932 1050.157593,537.050964 1053.652588,536.904053 
	C1068.404419,536.283752 1082.776245,537.851013 1096.918579,542.221130 
	C1103.238525,544.174072 1109.833130,545.238586 1116.522217,547.231323 
	C1116.173340,552.356750 1115.094116,556.785400 1110.141724,558.548035 
	C1104.141602,560.683533 1102.502075,565.426086 1101.989868,571.021606 
	C1096.712280,571.665039 1091.425171,572.240723 1086.161621,572.983948 
	C1083.914307,573.301208 1081.716431,573.967834 1079.227539,574.751465 
z"/>
<path fill="#4765BF" opacity="1.000000" stroke="none" 
	d="
M1080.377197,525.915527 
	C1080.575073,525.265320 1081.074463,524.345825 1081.736084,524.208496 
	C1099.529541,520.516357 1112.323364,508.490417 1125.576294,497.490143 
	C1137.242554,487.806763 1148.489624,477.536255 1162.344238,471.108978 
	C1169.346802,467.860382 1177.058594,466.134308 1184.470581,463.786255 
	C1185.023682,463.611053 1185.746216,463.971436 1187.311157,464.242218 
	C1186.396362,466.545319 1185.958496,468.821320 1184.730347,470.528992 
	C1180.183105,476.851624 1175.248413,482.895630 1170.706055,489.221710 
	C1167.182861,494.128448 1164.027710,499.299652 1160.728271,504.761810 
	C1158.525391,506.900970 1156.017944,508.366669 1154.125000,510.403473 
	C1136.519165,529.348206 1114.879639,533.989624 1090.374023,528.610107 
	C1087.133423,527.898682 1083.959229,526.884583 1080.377197,525.915527 
z"/>
<path fill="#4765BF" opacity="1.000000" stroke="none" 
	d="
M382.639038,571.179932 
	C395.602661,569.892212 405.528168,563.082397 413.513092,553.041748 
	C422.220520,542.092651 430.095642,530.383179 439.633118,520.225342 
	C446.701874,512.696838 455.797302,507.051910 464.117767,500.736389 
	C465.555542,499.645081 467.631744,499.394806 471.027222,498.177216 
	C469.525177,504.832703 468.341522,510.077484 467.006042,516.049866 
	C460.337738,535.778809 454.803589,555.328735 437.939728,568.551331 
	C420.098297,579.311584 401.569427,576.928894 382.639038,571.179932 
z"/>
<path fill="#262D3B" opacity="1.000000" stroke="none" 
	d="
M438.140930,568.864380 
	C454.803589,555.328735 460.337738,535.778809 467.014404,516.436279 
	C469.441254,513.283875 471.521820,510.294373 474.011261,507.696686 
	C480.185028,501.254486 486.533539,494.979248 492.834595,488.659607 
	C498.845428,482.631073 499.084259,472.044403 493.157227,465.307678 
	C492.992126,464.977783 493.116211,464.848663 493.116211,464.848663 
	C496.471436,465.276001 497.970276,467.438171 498.214935,470.563751 
	C499.037750,481.076263 502.237701,490.888611 506.902161,500.660645 
	C504.021606,503.804016 500.915924,506.469788 498.100098,509.412842 
	C485.719086,522.353638 473.421783,535.374512 460.879974,548.592041 
	C467.378723,550.171997 473.221558,551.101257 478.708252,553.038879 
	C487.457001,556.128601 495.981720,559.858215 504.558563,563.419922 
	C505.326599,563.738831 506.423676,565.053894 506.259766,565.481567 
	C505.828918,566.605957 504.963531,567.760132 503.957672,568.435242 
	C498.570007,572.051147 492.937836,572.692688 487.065765,569.486633 
	C485.926147,568.864441 484.623901,568.540039 483.046021,567.946289 
	C480.970703,573.962402 476.413971,573.928406 471.266113,573.328918 
	C466.529572,572.777466 461.708649,572.855042 456.924164,572.834106 
	C450.480286,572.805908 443.852509,573.885803 438.140930,568.864380 
z"/>
<path fill="#353D4C" opacity="1.000000" stroke="none" 
	d="
M623.478149,554.981201 
	C623.478149,554.981201 623.169556,554.683350 623.026367,554.250427 
	C621.915894,552.875122 620.948669,551.932739 619.981445,550.990356 
	C619.981445,550.990356 620.002441,550.997375 619.866089,550.751465 
	C619.146973,549.997681 618.564209,549.489868 617.981384,548.982056 
	C617.981384,548.982056 618.001099,548.997437 618.004089,548.761597 
	C618.007080,548.525696 617.989685,548.030762 617.989685,548.030762 
	C620.251831,545.795288 622.479553,543.523376 624.788452,541.337219 
	C626.298950,539.906982 627.927002,538.600952 629.822510,537.075684 
	C634.221741,539.413635 638.566406,541.572021 642.329407,544.482361 
	C652.837036,552.609009 664.626343,557.434509 677.646179,559.725647 
	C683.175171,560.698608 688.789551,561.889954 693.969910,563.967590 
	C700.939392,566.762695 701.602112,571.763733 696.379272,577.106140 
	C692.004395,581.581177 687.118713,585.198975 680.322449,585.785583 
	C678.949890,583.261719 677.964966,581.123169 676.980103,578.984680 
	C676.980103,578.984680 677.002808,578.997803 676.877930,578.798340 
	C676.542114,578.335144 676.284485,578.130371 675.980042,577.984497 
	C675.980042,577.984497 676.001587,577.998047 675.906250,577.678650 
	C674.550415,576.335266 673.442627,574.794922 672.004944,574.369385 
	C661.029480,571.120911 649.989685,568.089844 638.969849,564.991089 
	C638.969849,564.991150 638.998779,565.001465 638.873108,564.707642 
	C636.823730,563.270752 634.900085,562.127625 632.976379,560.984558 
	C632.976379,560.984558 633.002869,560.996033 632.822144,560.759460 
	C631.753906,560.011475 630.866455,559.500061 629.979004,558.988647 
	C629.979004,558.988647 630.003113,558.995667 629.797913,558.805908 
	C629.054321,558.408264 628.515869,558.200317 627.977478,557.992432 
	C627.977478,557.992432 628.000000,557.999878 627.899536,557.730530 
	C627.193481,556.971313 626.587952,556.481506 625.982422,555.991638 
	C625.982422,555.991638 626.003052,555.995789 625.739502,555.784607 
	C624.810059,555.376038 624.144104,555.178650 623.478149,554.981201 
z"/>
<path fill="#262D3B" opacity="1.000000" stroke="none" 
	d="
M1102.454590,571.024658 
	C1102.502075,565.426086 1104.141602,560.683533 1110.141724,558.548035 
	C1115.094116,556.785400 1116.173340,552.356750 1116.865723,547.391724 
	C1132.917603,548.770874 1148.846680,550.502502 1164.769653,552.288635 
	C1165.718628,552.395081 1166.618652,552.939087 1167.630127,553.817017 
	C1165.452759,557.811646 1163.186768,561.268799 1161.281006,564.933350 
	C1164.438965,565.419556 1167.236572,565.698364 1170.014648,565.996460 
	C1169.995117,566.015808 1169.981934,565.962402 1170.253418,566.146057 
	C1171.363281,566.548767 1172.201904,566.767761 1173.016479,567.004395 
	C1172.992554,567.022034 1172.977295,566.964661 1173.249878,567.149048 
	C1174.361938,567.551697 1175.201538,567.769958 1176.016479,568.002502 
	C1175.991943,568.016785 1175.989014,567.960083 1176.125977,568.169189 
	C1176.521729,568.585815 1176.780396,568.793335 1177.011963,569.007446 
	C1176.984985,569.013916 1176.999634,568.960327 1177.134521,569.167114 
	C1177.479614,569.635071 1177.735229,569.839294 1178.010254,569.974854 
	C1177.984131,569.963013 1178.020386,569.919861 1178.020386,569.919861 
	C1178.133911,574.338562 1175.989868,576.194336 1171.576904,576.113953 
	C1163.628540,575.969116 1155.658203,576.399109 1147.730957,575.967041 
	C1143.166260,575.718262 1138.174194,575.183350 1134.255615,573.111023 
	C1128.394531,570.011353 1122.576294,569.738586 1116.373901,570.225159 
	C1111.895630,570.576477 1107.404663,570.765991 1102.454590,571.024658 
z"/>
<path fill="#353D4C" opacity="1.000000" stroke="none" 
	d="
M1160.920654,564.725952 
	C1163.186768,561.268799 1165.452759,557.811646 1167.924561,554.058228 
	C1170.765381,554.583801 1173.458252,555.257019 1176.025024,556.254395 
	C1184.879272,559.694824 1193.689697,563.248474 1202.530396,566.764404 
	C1199.847900,572.850281 1192.723022,575.699097 1186.889526,573.573486 
	C1184.105225,572.559021 1181.464478,571.150574 1178.389648,569.920288 
	C1178.020386,569.919861 1177.984131,569.963013 1177.926514,569.727783 
	C1177.579224,569.315186 1177.289429,569.137756 1176.999634,568.960327 
	C1176.999634,568.960327 1176.984985,569.013916 1176.914551,568.766785 
	C1176.559082,568.333130 1176.274048,568.146606 1175.989014,567.960083 
	C1175.989014,567.960083 1175.991943,568.016785 1175.781494,567.755920 
	C1174.706421,567.318237 1173.841797,567.141418 1172.977295,566.964661 
	C1172.977295,566.964661 1172.992554,567.022034 1172.795898,566.739441 
	C1171.726929,566.292053 1170.854370,566.127258 1169.981934,565.962402 
	C1169.981934,565.962402 1169.995117,566.015808 1169.689331,565.750977 
	C1166.562622,565.232727 1163.741577,564.979309 1160.920654,564.725952 
z"/>
<path fill="#7BC8AD" opacity="1.000000" stroke="none" 
	d="
M1198.562744,402.816040 
	C1198.564453,401.409180 1198.589111,400.450562 1198.613770,399.491882 
	C1197.291504,400.185730 1195.969238,400.879608 1194.835938,401.870117 
	C1183.243164,405.782959 1171.437988,409.325378 1159.687012,413.039185 
	C1150.720581,415.872986 1141.822754,418.924011 1132.894409,421.878387 
	C1132.894409,421.878387 1132.967407,421.917725 1132.594238,421.783020 
	C1130.523804,421.454437 1128.826538,421.260498 1127.129395,421.066559 
	C1145.454590,415.947296 1163.740479,410.680542 1182.129395,405.800964 
	C1187.463623,404.385529 1193.092285,404.079102 1198.562744,402.816040 
z"/>

<path fill="#7BC8AD" opacity="1.000000" stroke="none" 
	d="
M446.758850,447.797058 
	C436.275055,454.612640 425.915680,461.175385 415.413727,467.501556 
	C412.718597,469.125000 410.554962,472.521332 406.330780,470.791687 
	C405.739746,470.549683 403.951019,473.232635 402.835480,474.576904 
	C405.253296,476.219604 406.471191,475.959351 407.851257,473.560638 
	C408.543976,472.356628 408.961395,470.708282 410.003510,470.034882 
	C421.928802,462.328583 433.948883,454.768921 445.962158,447.199371 
	C446.130676,447.093201 446.535645,447.362305 446.758850,447.797058 
z"/>
<path fill="#181E2C" opacity="1.000000" stroke="none" 
	d="
M1342.126465,568.300476 
	C1352.054810,570.860413 1362.200439,573.503418 1372.176392,576.679626 
	C1378.168091,578.587219 1383.727051,581.487244 1384.164551,589.444275 
	C1383.794800,589.903992 1383.394043,589.978699 1382.696045,590.114075 
	C1382.185059,582.993652 1377.120728,580.167664 1371.337036,578.377686 
	C1365.782959,576.658875 1359.973999,575.751282 1354.446655,573.962524 
	C1350.250488,572.604492 1346.320801,570.423096 1342.126465,568.300476 
z"/>
<path fill="#181E2C" opacity="1.000000" stroke="none" 
	d="
M338.043365,572.691284 
	C327.614807,570.862488 317.261108,568.402344 306.776947,566.791199 
	C300.153656,565.773438 293.335510,566.023499 286.604736,565.704895 
	C286.638489,565.111511 286.672241,564.518127 286.705963,563.924683 
	C294.969757,564.484375 303.305573,564.549011 311.477661,565.738708 
	C320.171021,567.004211 328.709290,569.335388 337.739441,571.268433 
	C338.130066,571.696777 338.096558,572.057983 338.043365,572.691284 
z"/>
<path fill="#181E2C" opacity="1.000000" stroke="none" 
	d="
M1221.309814,461.061890 
	C1219.395508,460.966217 1217.449341,460.299713 1216.106323,460.926178 
	C1208.918335,464.278687 1201.880859,467.953735 1194.791382,471.517334 
	C1194.354980,471.005707 1193.918579,470.494110 1193.482178,469.982483 
	C1194.319702,469.647186 1195.189209,469.374664 1195.989868,468.966888 
	C1203.390625,465.196869 1210.762939,461.371002 1218.179688,457.632996 
	C1221.107910,456.157257 1223.092163,456.494141 1222.604980,460.840240 
	C1222.208618,461.171631 1221.882324,461.131317 1221.309814,461.061890 
z"/>
<path fill="#262D3B" opacity="1.000000" stroke="none" 
	d="
M1126.851440,421.121521 
	C1128.826538,421.260498 1130.523804,421.454437 1132.613770,421.746521 
	C1125.226807,424.513153 1117.446777,427.181610 1109.270508,429.870483 
	C1112.067505,428.032501 1115.182739,426.018463 1118.479004,424.365356 
	C1121.060913,423.070587 1123.867065,422.222839 1126.851440,421.121521 
z"/>
<path fill="#181E2C" opacity="1.000000" stroke="none" 
	d="
M883.388123,533.406860 
	C879.392029,542.017395 879.778625,551.012268 881.053955,560.522949 
	C880.510681,560.885376 879.961731,560.809570 878.999268,560.667419 
	C878.530518,557.656799 878.563965,554.707581 878.401733,551.769165 
	C878.041992,545.248108 878.530762,538.931274 882.689331,533.192261 
	C883.077942,533.091431 883.388123,533.406860 883.388123,533.406860 
z"/>
<path fill="#181E2C" opacity="1.000000" stroke="none" 
	d="
M171.149414,562.132385 
	C168.538757,555.071472 168.194962,548.102722 170.709396,541.216064 
	C171.393768,539.341675 173.109192,537.843750 174.684265,536.077271 
	C169.834808,544.215576 170.719452,553.152039 172.011383,562.562134 
	C171.790100,562.770081 171.552658,562.542786 171.149414,562.132385 
z"/>
<path fill="#7BC8AD" opacity="1.000000" stroke="none" 
	d="
M458.459503,440.403564 
	C455.710052,437.284973 455.372253,440.133026 455.082611,441.010620 
	C452.504395,442.274445 450.745239,443.136749 449.035278,444.039612 
	C449.554565,445.057617 450.024658,446.034973 450.494751,447.012329 
	C451.330719,446.570312 452.919617,446.061157 452.887146,445.696594 
	C452.533020,441.725464 456.287231,442.087036 458.459503,440.403564 
z"/>






<path fill="#7BC8AD" opacity="1.000000" stroke="none" 
	d="
M1050.555176,484.082458 
	C1051.623047,466.179138 1062.148438,455.061707 1076.129028,446.693787 
	C1100.757935,431.952423 1127.109131,430.627960 1154.286743,437.845032 
	C1159.742798,439.293884 1165.160034,441.056427 1170.372070,443.213287 
	C1176.466064,445.735107 1177.440796,449.625244 1172.868408,454.420868 
	C1168.882812,458.601166 1164.218384,462.212891 1159.527954,465.628387 
	C1144.054199,476.896240 1128.434692,487.964233 1112.866821,499.102966 
	C1104.123047,505.359039 1094.898071,510.606995 1084.076172,512.291382 
	C1064.597778,515.323120 1051.122192,504.126312 1050.555176,484.082458 
z"/>
<path fill="#262D3B" opacity="1.000000" stroke="none" 
	d="
M1133.320557,421.905396 
	C1141.822754,418.924011 1150.720581,415.872986 1159.687012,413.039185 
	C1171.437988,409.325378 1183.243164,405.782959 1195.389893,402.418274 
	C1195.812988,403.034180 1195.871216,403.398651 1195.696655,404.469818 
	C1194.302612,405.928528 1193.141235,406.680603 1191.979980,407.432678 
	C1172.568970,412.265900 1153.157837,417.099121 1133.320557,421.905396 
z"/>
<path fill="#181E2C" opacity="1.000000" stroke="none" 
	d="
M1272.000366,453.358765 
	C1274.206299,457.926147 1277.093506,462.689240 1278.535278,467.855713 
	C1284.598633,489.584015 1290.230103,511.432892 1296.014038,533.632996 
	C1292.501221,524.588562 1288.398926,515.320190 1285.617554,505.671173 
	C1280.662720,488.482208 1276.506714,471.062988 1272.000366,453.358765 
z"/>
<path fill="#1E2532" opacity="1.000000" stroke="none" 
	d="
M944.257507,534.744263 
	C947.371521,536.379944 950.318726,538.823120 953.629395,539.507080 
	C965.842163,542.030273 977.238464,546.391602 987.811096,552.953003 
	C988.966614,553.670044 989.979980,554.616211 991.059265,555.456116 
	C990.840881,555.794250 990.622498,556.132385 990.404114,556.470459 
	C988.881287,555.657837 987.319702,554.909912 985.841797,554.022461 
	C973.087341,546.363892 959.517029,541.418640 944.466125,540.815918 
	C939.920959,540.633850 934.954041,540.572388 932.051147,535.385864 
	C932.008240,534.964172 932.226685,534.746582 932.226685,534.746582 
	C935.012268,536.070862 937.715210,537.634705 940.612793,538.634155 
	C942.509949,539.288513 944.345642,538.735168 943.861755,535.486572 
	C943.967651,535.041626 944.257507,534.744263 944.257507,534.744263 
z"/>
<path fill="#181E2C" opacity="1.000000" stroke="none" 
	d="
M1192.402222,407.343079 
	C1193.141235,406.680603 1194.302612,405.928528 1195.774048,405.018066 
	C1209.715332,403.579468 1223.327759,401.992584 1236.986084,401.156464 
	C1243.236328,400.773804 1249.572510,401.883698 1254.796631,406.706970 
	C1234.227905,399.178101 1213.528320,403.736359 1192.402222,407.343079 
z"/>
<path fill="#181E2C" opacity="1.000000" stroke="none" 
	d="
M1258.002197,410.378296 
	C1263.395996,414.709381 1264.659058,421.277710 1265.956299,427.798065 
	C1267.312500,434.613861 1268.543213,441.454651 1269.923340,448.654968 
	C1268.725342,446.468323 1266.563232,443.999481 1266.293457,441.338745 
	C1265.208740,430.643127 1263.440918,420.225037 1258.002197,410.378296 
z"/>
<path fill="#181E2C" opacity="1.000000" stroke="none" 
	d="
M1319.980957,546.994446 
	C1321.218994,549.472717 1322.457153,551.950989 1323.843506,554.719116 
	C1322.803589,554.488159 1321.397095,554.218506 1320.462891,553.405823 
	C1314.431519,548.158630 1307.772217,545.202454 1299.335571,547.791138 
	C1299.985718,545.622070 1300.431885,544.133301 1300.932617,542.308105 
	C1306.360962,546.317444 1313.034180,546.098511 1319.667480,547.101074 
	C1320.001587,547.008118 1319.980957,546.994446 1319.980957,546.994446 
z"/>
<path fill="#181E2C" opacity="1.000000" stroke="none" 
	d="
M903.973083,517.989746 
	C902.745422,519.405640 901.767456,521.241638 900.238464,522.150574 
	C896.997925,524.077087 893.470154,525.520325 889.567749,527.111755 
	C889.075317,527.061829 888.762207,526.760864 888.762207,526.760864 
	C893.622498,523.938965 898.482788,521.117065 903.669434,518.149841 
	C903.995850,518.004517 903.973083,517.989746 903.973083,517.989746 
z"/>
<path fill="#181E2C" opacity="1.000000" stroke="none" 
	d="
M1133.113281,604.969238 
	C1132.986084,605.614136 1132.431396,606.496399 1132.366821,606.461914 
	C1128.899902,604.608704 1125.474365,602.678223 1122.044434,600.755737 
	C1122.364990,600.190918 1122.685547,599.626099 1123.006104,599.061218 
	C1126.308838,600.967102 1129.611694,602.872986 1133.113281,604.969238 
z"/>

<path fill="#181E2C" opacity="1.000000" stroke="none" 
	d="
M1293.889648,553.134399 
	C1292.587769,555.515137 1291.461182,557.608704 1290.334595,559.702209 
	C1289.883423,559.442688 1289.432373,559.183167 1288.981201,558.923645 
	C1290.907837,555.482849 1292.834473,552.042053 1294.761108,548.601257 
	C1295.223389,548.861267 1295.685669,549.121338 1296.147949,549.381409 
	C1295.453613,550.536682 1294.759277,551.692017 1293.889648,553.134399 
z"/>

<path fill="#181E2C" opacity="1.000000" stroke="none" 
	d="
M882.924561,532.932129 
	C884.579041,530.877930 886.386902,528.983093 888.478516,526.924561 
	C888.762207,526.760864 889.075317,527.061829 889.233276,527.215576 
	C887.570679,529.263367 885.750061,531.157410 883.658813,533.229126 
	C883.388123,533.406860 883.077942,533.091431 882.924561,532.932129 
z"/>




<path fill="#1E2532" opacity="1.000000" stroke="none" 
	d="
M938.748413,530.286682 
	C937.821655,529.476990 936.894897,528.667297 935.798523,527.601562 
	C935.628845,527.345581 935.940552,527.042114 936.098206,526.889526 
	C937.189575,527.535217 938.123291,528.333557 939.048828,529.560852 
	C939.040649,529.989807 938.748413,530.286682 938.748413,530.286682 
z"/>

<path fill="#1E2532" opacity="1.000000" stroke="none" 
	d="
M995.911072,559.092346 
	C995.262451,558.942810 994.693604,558.697205 994.124756,558.451599 
	C994.214905,558.244263 994.305115,558.036926 994.395264,557.829590 
	C994.873230,558.049316 995.351135,558.269043 995.989563,558.646240 
	C996.150024,558.803772 995.990845,558.996277 995.911072,559.092346 
z"/>

<path fill="#1E2532" opacity="1.000000" stroke="none" 
	d="
M942.316162,532.659668 
	C942.857727,533.195374 943.399353,533.731018 944.099243,534.505493 
	C944.257507,534.744263 943.967651,535.041626 943.820679,535.192017 
	C943.128479,534.807556 942.583252,534.272766 942.031555,533.345825 
	C942.025146,532.953613 942.316162,532.659668 942.316162,532.659668 
z"/>

<path fill="#181E2C" opacity="1.000000" stroke="none" 
	d="
M1187.127930,476.105225 
	C1186.627197,476.390320 1186.126587,476.675446 1185.314941,476.987732 
	C1185.004028,477.014923 1184.952271,476.965668 1184.952271,476.965698 
	C1185.406128,476.644440 1185.860107,476.323181 1186.650146,475.982361 
	C1186.986450,475.962799 1187.127930,476.105194 1187.127930,476.105225 
z"/>





<path fill="#181E2C" opacity="1.000000" stroke="none" 
	d="
M1273.888428,561.087708 
	C1273.564331,560.967712 1273.320557,560.766357 1273.020264,560.285828 
	C1272.942383,560.032227 1273.087280,559.892578 1273.087280,559.892578 
	C1273.338745,560.085999 1273.567627,560.303406 1273.919189,560.731445 
	C1274.064575,560.918274 1273.947754,561.031799 1273.888428,561.087708 
z"/>


<path fill="#181E2C" opacity="1.000000" stroke="none" 
	d="
M1183.995117,477.992218 
	C1184.143921,477.706512 1184.340210,477.462372 1184.765137,477.108643 
	C1184.952271,476.965668 1185.004028,477.014923 1185.029663,477.043701 
	C1184.891357,477.346741 1184.680298,477.578217 1184.220459,477.889954 
	C1184.018799,478.013062 1184.001099,478.000305 1183.995117,477.992218 
z"/>
<path fill="#181E2C" opacity="1.000000" stroke="none" 
	d="
M1188.136719,475.108887 
	C1187.958862,475.374054 1187.746948,475.608429 1187.314453,475.958618 
	C1187.127930,476.105194 1186.986450,475.962799 1186.914307,475.888367 
	C1187.045166,475.571014 1187.271973,475.352905 1187.772705,475.079712 
	C1188.022583,474.999786 1188.136719,475.108887 1188.136719,475.108887 
z"/>



<path fill="#060D1B" opacity="1.000000" stroke="none" 
	d="
M1078.223633,442.250610 
	C1078.144897,442.624420 1077.894775,442.814209 1077.405029,443.070251 
	C1077.193604,443.173645 1076.933228,442.913177 1076.800781,442.779846 
	C1076.874268,442.406799 1077.111938,442.204102 1077.586426,441.925293 
	C1077.791748,441.812164 1078.080322,442.103790 1078.223633,442.250610 
z"/>



<path fill="#1E2532" opacity="1.000000" stroke="none" 
	d="
M941.323303,531.648438 
	C941.584106,531.831543 941.815918,532.045959 942.167419,532.475708 
	C942.316162,532.659668 942.025146,532.953613 941.877808,533.101868 
	C941.484924,533.052673 941.252563,532.840637 941.029419,532.283203 
	C941.025330,531.952454 941.323303,531.648438 941.323303,531.648438 
z"/>



<path fill="#1E2532" opacity="1.000000" stroke="none" 
	d="
M940.304443,530.656494 
	C940.573730,530.830200 940.813416,531.038025 941.173340,531.464172 
	C941.323303,531.648438 941.025330,531.952454 940.874207,532.105225 
	C940.479065,532.057190 940.248413,531.841858 940.023071,531.283264 
	C940.015015,530.954346 940.304443,530.656494 940.304443,530.656494 
z"/>
<path fill="#1E2532" opacity="1.000000" stroke="none" 
	d="
M939.869751,531.102783 
	C939.496948,531.047607 939.276794,530.836426 938.906250,530.452148 
	C938.748413,530.286682 939.040649,529.989807 939.189087,529.840271 
	C939.577881,529.879089 939.800964,530.085938 940.155640,530.483887 
	C940.304443,530.656494 940.015015,530.954346 939.869751,531.102783 
z"/>
<path fill="#181E2C" opacity="1.000000" stroke="none" 
	d="
M904.003296,518.015869 
	C904.211731,517.777466 904.429810,517.543579 904.845703,517.167480 
	C905.026428,517.009460 905.004272,516.995850 904.997559,516.984863 
	C904.791687,517.225525 904.574463,517.460388 904.156128,517.834106 
	C903.973083,517.989746 903.995850,518.004517 904.003296,518.015869 
z"/>
<path fill="#7DC9AE" opacity="1.000000" stroke="none" 
	d="
M423.544189,528.548035 
	C414.529053,536.952087 406.000336,545.386108 396.902649,553.153809 
	C390.466644,558.648865 382.772644,561.676575 373.998413,561.781555 
	C352.058960,562.044006 343.007965,542.364197 350.532715,524.975830 
	C352.216187,521.085510 354.827698,517.437927 357.630646,514.217041 
	C373.922699,495.495667 394.526489,485.021515 419.297577,483.238983 
	C427.411621,482.655060 435.609924,482.757111 443.746826,483.095490 
	C454.294708,483.534149 456.787537,488.080841 450.558319,496.763519 
	C444.084961,505.786530 436.474060,513.996765 429.299500,522.510925 
	C427.586761,524.543396 425.631226,526.371216 423.544189,528.548035 
z"/>
<path fill="#181E2C" opacity="1.000000" stroke="none" 
	d="
M282.763489,563.266724 
	C280.254639,561.999084 277.592133,560.963867 275.262787,559.424622 
	C263.250244,551.486694 250.253967,546.316284 235.872513,544.728821 
	C233.552917,544.472778 231.299301,543.618958 229.180969,542.540405 
	C249.188370,543.338196 266.829163,550.514282 282.853577,562.695251 
	C282.979858,563.047607 282.763489,563.266724 282.763489,563.266724 
z"/>
<path fill="#181E2C" opacity="1.000000" stroke="none" 
	d="
M569.670288,498.330994 
	C567.495728,493.892365 565.482544,489.789673 563.469360,485.686981 
	C563.957275,485.447754 564.445190,485.208496 564.933105,484.969269 
	C569.461304,494.058441 573.989563,503.147614 578.517761,512.236816 
	C578.056580,512.479858 577.595337,512.722900 577.134155,512.965942 
	C574.700012,508.199585 572.265808,503.433258 569.670288,498.330994 
z"/>
<path fill="#181E2C" opacity="1.000000" stroke="none" 
	d="
M614.061523,545.658752 
	C607.367371,543.750427 600.688232,542.182678 593.378906,544.982361 
	C594.119751,543.452942 595.262268,541.890869 596.400513,540.334717 
	C601.211731,541.222107 606.314453,542.163269 611.855164,543.185242 
	C612.595581,542.082947 613.479553,540.766907 615.227295,538.164795 
	C614.717712,541.429016 614.415466,543.365173 614.061523,545.658752 
z"/>


<path fill="#181E2C" opacity="1.000000" stroke="none" 
	d="
M560.947632,480.068787 
	C557.378296,474.361786 553.808960,468.654755 550.239624,462.947754 
	C550.873779,462.583801 551.507935,462.219818 552.142029,461.855835 
	C555.090881,467.637512 558.039734,473.419189 561.002441,479.600616 
	C561.016357,480.000397 560.947632,480.068787 560.947632,480.068787 
z"/>
<path fill="#181E2C" opacity="1.000000" stroke="none" 
	d="
M403.285278,605.066833 
	C402.204529,604.408203 401.406525,603.894958 400.608551,603.381653 
	C400.844238,602.968567 401.079956,602.555481 401.315643,602.142334 
	C406.119629,604.802917 410.923645,607.463440 415.727631,610.123962 
	C415.410706,610.705139 415.093750,611.286316 414.776825,611.867493 
	C411.040558,609.649048 407.304321,607.430603 403.285278,605.066833 
z"/>
<path fill="#181E2C" opacity="1.000000" stroke="none" 
	d="
M589.625366,532.310608 
	C586.115051,527.242188 582.604736,522.173828 579.094421,517.105408 
	C579.631348,516.749084 580.168274,516.392700 580.705200,516.036377 
	C583.782898,521.090393 586.860596,526.144470 589.921509,531.640259 
	C589.904663,532.082092 589.625366,532.310608 589.625366,532.310608 
z"/>




<path fill="#181E2C" opacity="1.000000" stroke="none" 
	d="
M547.306946,455.740631 
	C548.005920,456.589020 548.704834,457.437378 549.403809,458.285767 
	C549.182068,458.500610 548.960388,458.715424 548.738647,458.930267 
	C548.161072,458.179657 547.583557,457.429077 547.037720,456.306885 
	C547.069397,455.935303 547.306946,455.740631 547.306946,455.740631 
z"/>
<path fill="#181E2C" opacity="1.000000" stroke="none" 
	d="
M590.043945,531.967407 
	C591.098999,532.987793 592.014832,534.122925 592.951660,535.657471 
	C592.972595,536.056824 592.761414,536.277161 592.761414,536.277161 
	C591.800171,535.151245 590.838928,534.025269 589.751526,532.604980 
	C589.625366,532.310608 589.904663,532.082092 590.043945,531.967407 
z"/>
<path fill="#181E2C" opacity="1.000000" stroke="none" 
	d="
M546.951050,456.033142 
	C546.216492,455.000397 545.600342,453.869781 544.980347,452.371216 
	C544.976562,452.003235 545.066833,451.913849 545.066833,451.913849 
	C545.743469,452.989990 546.420044,454.066162 547.201782,455.441467 
	C547.306946,455.740631 547.069397,455.935303 546.951050,456.033142 
z"/>
<path fill="#181E2C" opacity="1.000000" stroke="none" 
	d="
M533.029053,430.966064 
	C533.432861,431.428772 533.836609,431.891449 534.240417,432.354156 
	C534.058289,432.485626 533.876160,432.617065 533.694031,432.748505 
	C533.453186,432.334930 533.212402,431.921326 532.977478,431.259705 
	C532.983398,431.011688 533.029053,430.966064 533.029053,430.966064 
z"/>


<path fill="#181E2C" opacity="1.000000" stroke="none" 
	d="
M532.960083,431.033997 
	C532.679016,430.892181 532.406555,430.745483 532.174744,430.550507 
	C532.123291,430.507233 532.215149,430.293671 532.241028,430.158508 
	C532.462280,430.327057 532.683472,430.495605 532.966919,430.815125 
	C533.029053,430.966064 532.983398,431.011688 532.960083,431.033997 
z"/>











<path fill="#181E2C" opacity="1.000000" stroke="none" 
	d="
M593.833679,537.136475 
	C593.497986,537.041931 593.280212,536.830627 592.916626,536.443359 
	C592.761414,536.277161 592.972595,536.056824 593.079834,535.945801 
	C593.425781,536.028992 593.649170,536.239563 594.007568,536.640686 
	C594.157959,536.814941 593.942017,537.029541 593.833679,537.136475 
z"/>







<path fill="#181E2C" opacity="1.000000" stroke="none" 
	d="
M1320.009888,547.018616 
	C1321.456909,543.764343 1322.895752,540.499573 1324.672852,537.116943 
	C1325.011108,536.999084 1325.057373,537.043640 1325.057373,537.043640 
	C1323.550171,540.227417 1322.042969,543.411133 1320.258301,546.794678 
	C1319.980957,546.994446 1320.001587,547.008118 1320.009888,547.018616 
z"/>

<path fill="#181E2C" opacity="1.000000" stroke="none" 
	d="
M639.236084,565.213379 
	C649.989685,568.089844 661.029480,571.120911 672.004944,574.369385 
	C673.442627,574.794922 674.550415,576.335266 675.911865,577.690063 
	C668.441223,575.679749 660.822998,573.477295 653.315308,570.946716 
	C648.624695,569.365601 644.100952,567.289551 639.236084,565.213379 
z"/>













</svg>