<?xml version="1.0" encoding="UTF-8"?>
<svg version="1.1" xmlns="http://www.w3.org/2000/svg"  >

<path d="M0 0 C1.54880859 -0.00483398 1.54880859 -0.00483398 3.12890625 -0.00976562 C15.24718119 0.07513949 24.63657494 3.23958413 33.6875 11.5625 C42.99421042 21.56995097 45.04229335 35.13527376 45.6640625 48.28125 C45.83971495 50.80544076 46.23566844 52.88815472 46.875 55.3125 C47.09627864 58.03988784 47.00819739 60.55975385 46.875 63.3125 C46.215 63.9725 45.555 64.6325 44.875 65.3125 C44.46161752 67.45503435 44.46161752 67.45503435 44.34765625 69.92578125 C44.24227539 71.3034668 44.24227539 71.3034668 44.13476562 72.70898438 C44.00406199 74.64106886 43.87641899 76.57336302 43.75195312 78.50585938 C43.05386621 87.50552047 43.05386621 87.50552047 39.875 91.3125 C34.74816199 94.30315551 30.11351903 94.73612603 24.23046875 95.00390625 C21.68755658 95.09376933 21.68755658 95.09376933 19.875 97.3125 C18.32670676 107.54690039 18.32670676 107.54690039 21.72265625 116.8515625 C26.72978321 120.45415464 32.39297452 122.36015817 38.203125 124.296875 C47.08293277 127.67224053 53.79985403 133.96030249 58.1875 142.3125 C60.42873802 147.67480088 60.49487904 153.2296811 60.69921875 158.95703125 C60.74538258 162.0996535 60.74538258 162.0996535 61.39086914 164.21191406 C61.95545458 166.66158281 61.90507722 168.76681713 61.796875 171.27734375 C61.44422578 182.84190668 61.4472106 191.8644129 66.875 202.3125 C70.31704846 209.85852931 72.80400062 217.66860692 73.125 226 C73.61465243 231.61060076 77.06643019 235.39147242 80.875 239.3125 C81.6690625 239.92351562 82.463125 240.53453125 83.28125 241.1640625 C86.38832716 243.73769569 88.74828198 246.64557289 91.125 249.875 C91.60026123 250.52049805 92.07552246 251.16599609 92.56518555 251.83105469 C97.73572669 259.12800139 101.28124927 267.10011686 104.92871094 275.22998047 C108.22310988 282.48003799 112.26989597 289.10571939 116.8125 295.625 C117.40502563 296.48798706 117.40502563 296.48798706 118.00952148 297.3684082 C122.54486629 303.69878314 127.99868188 307.98616143 134.77539062 311.73388672 C143.53249414 316.63929202 149.23012369 321.63472497 152.875 331.3125 C154.04200539 336.56083572 154.17417837 340.87753686 151.6015625 345.69921875 C146.95569827 351.5992482 140.95500841 354.77363096 133.5625 355.75 C130.43338945 355.24060991 128.99660469 354.67890524 126.875 352.3125 C126.625 349.75 126.625 349.75 126.875 347.3125 C126.875 343.59634124 123.55720096 341.0434296 121.125 338.4375 C119.01565036 336.36731588 119.01565036 336.36731588 117.08984375 334.96484375 C111.50075878 330.58188117 108.85885078 325.97611771 106.00390625 319.49609375 C103.05960777 315.09315199 99.32381862 313.05475054 94.875 310.3125 C77.04338165 298.09925194 61.58349783 286.48762752 50.875 267.3125 C50.83761719 268.41722656 50.80023438 269.52195312 50.76171875 270.66015625 C50.4057708 279.51436144 49.67974912 288.17190133 48.375 296.9375 C46.73322328 308.17450624 46.40606552 319.35502769 46.25390625 330.69189453 C46.15440977 336.84924174 45.91039996 342.7937563 44.78515625 348.86328125 C43.16571236 357.77958146 45.64477385 363.47214072 49.625 371.3125 C53.34265643 378.84814733 56.47771095 386.25076221 58.9375 394.28125 C59.80260296 397.24911399 59.80260296 397.24911399 60.90234375 399.7734375 C63.68419962 407.03531025 64.8346928 415.39529901 65.375 423.125 C65.8130988 429.12427125 67.19772927 434.99618472 69.92480469 440.38818359 C71.24500976 444.45124022 71.02582864 448.15219774 70.89453125 452.390625 C70.8643145 454.21092246 70.83505013 456.03123593 70.80664062 457.8515625 C70.75145198 460.68830753 70.68859231 463.52421897 70.60766602 466.36035156 C70.25928844 479.33141953 71.44956653 490.09685459 75.875 502.3125 C77.06375832 505.77496714 78.14959595 509.18271075 78.953125 512.75390625 C79.14148926 513.57455566 79.32985352 514.39520508 79.52392578 515.24072266 C79.72228027 516.11003418 79.92063477 516.9793457 80.125 517.875 C82.4960138 528.06191068 85.30871437 538.08605193 88.24658203 548.12158203 C89.03180047 550.85916956 89.73655496 553.61478141 90.4375 556.375 C92.85342365 565.31815596 96.97915966 573.69998531 100.95703125 582.03515625 C101.875 584.3125 101.875 584.3125 101.875 587.3125 C100.47572432 588.43874628 99.07270898 589.56062646 97.65234375 590.66015625 C95.48978901 592.67061922 94.01263268 594.85787463 92.375 597.3125 C86.06379609 606.54504721 86.06379609 606.54504721 80.78125 607.81640625 C75.55165008 608.23728159 71.8273774 606.95366861 67.83984375 603.58203125 C63.45809837 598.52081044 60.75356562 592.30675722 57.875 586.3125 C53.35504475 576.97253936 48.58170718 567.88303822 43.3125 558.9375 C42.78245361 558.03443115 42.25240723 557.1313623 41.70629883 556.20092773 C38.49290186 550.80501412 35.04719779 545.65161999 31.41235352 540.53173828 C22.33467101 527.42769922 19.80451853 512.64208299 19.6640625 497.02734375 C19.63601293 495.26236021 19.60734862 493.49738636 19.578125 491.73242188 C19.53683294 488.98527102 19.49988823 486.238305 19.47363281 483.4909668 C19.44592722 480.81522747 19.40008838 478.14027595 19.3515625 475.46484375 C19.3466832 474.24425514 19.3466832 474.24425514 19.34170532 472.99900818 C19.18481225 465.66428085 17.13398143 460.39424468 12.375 454.6875 C11.33859375 453.43453125 11.33859375 453.43453125 10.28125 452.15625 C9.4871875 451.2178125 8.693125 450.279375 7.875 449.3125 C6.88527798 448.13553327 5.89570178 446.95844392 4.90625 445.78125 C2.23978087 442.61588758 -0.43965354 439.46185853 -3.125 436.3125 C-3.56328125 436.64121094 -4.0015625 436.96992187 -4.453125 437.30859375 C-5.08734375 437.78425781 -5.7215625 438.25992187 -6.375 438.75 C-7.10203125 439.30429687 -7.8290625 439.85859375 -8.578125 440.4296875 C-10.36742618 441.75245309 -12.19467393 443.02466259 -14.046875 444.2578125 C-20.930885 448.99275339 -25.16365454 453.58787534 -29.2109375 460.90625 C-33.71362408 468.91919429 -38.56620184 475.07755817 -45.4375 481.1875 C-51.99632575 487.18724723 -57.77835877 493.19122891 -63.125 500.3125 C-67.52384915 506.06782245 -72.06058173 511.56450119 -76.9453125 516.91796875 C-78.82657261 518.98465773 -80.6713115 521.07444607 -82.5 523.1875 C-85.48417743 526.61583407 -88.54732983 529.96828855 -91.625 533.3125 C-102.4128675 545.05985228 -112.81873389 557.08928615 -121.6875 570.375 C-122.09266846 570.98158447 -122.49783691 571.58816895 -122.9152832 572.21313477 C-125.26058699 575.79799253 -127.28310743 579.446291 -129.125 583.3125 C-128.36445313 583.61542969 -127.60390625 583.91835938 -126.8203125 584.23046875 C-122.84989619 587.29747149 -122.27558554 590.90390826 -121 595.625 C-118.70274021 605.22932903 -118.70274021 605.22932903 -113.125 613 C-109.42926339 614.61688477 -105.68011964 615.55500593 -101.78125 616.56640625 C-96.69308978 617.99558066 -92.32295572 620.00755961 -89.125 624.3125 C-88.40107145 628.09301577 -88.7292328 629.69686214 -90.8125 632.9375 C-100.351296 641.31762869 -119.1647807 642.18256091 -131.42578125 641.7421875 C-139.55628934 640.7977779 -143.72038028 635.77408135 -149.1875 630.125 C-154.51011994 624.68844018 -158.16845766 622.98089548 -165.5703125 621.73046875 C-177.07503356 619.74328966 -186.48458612 615.85561946 -193.921875 606.46875 C-196.23628349 602.32084906 -196.38738758 598.85574515 -195.125 594.3125 C-189.23362581 583.01101881 -177.34493572 571.2993371 -166.125 565.3125 C-165.31289063 565.06757812 -164.50078125 564.82265625 -163.6640625 564.5703125 C-160.11024223 562.80980461 -158.4908566 560.07221404 -156.4375 556.8125 C-156.0132373 556.15757568 -155.58897461 555.50265137 -155.15185547 554.82788086 C-150.08591077 546.88427835 -145.53853502 538.63225579 -141.125 530.3125 C-140.61755249 529.3992395 -140.61755249 529.3992395 -140.09985352 528.4675293 C-136.22770411 521.2318482 -134.12221069 513.30743973 -131.74414062 505.48632812 C-125.20051671 484.95527532 -109.67256132 467.60585664 -91.93310547 455.69726562 C-81.51255051 448.67952637 -77.94222037 439.84692372 -75.40283203 427.92089844 C-74.66160828 424.05554631 -73.94848808 420.18574227 -73.25 416.3125 C-69.87594332 397.67152241 -64.62483852 380.1784207 -55.91870117 363.28417969 C-53.15294299 358.07162265 -53.15294299 358.07162265 -53.125 352.3125 C-54.60651567 349.11168461 -54.60651567 349.11168461 -56.5625 345.875 C-63.57750497 333.87154705 -62.55514435 317.09411714 -59.30859375 303.859375 C-56.67329336 295.96217119 -52.83621202 288.59319327 -49.04150391 281.20214844 C-44.65505911 272.5826734 -41.20948516 263.92741125 -44.00390625 254.27734375 C-46.33428716 247.70151643 -49.23808145 242.1912631 -53.41015625 236.61328125 C-55.87263523 233.30940854 -57.9772918 229.82693159 -60.125 226.3125 C-64.13494805 229.57245204 -64.13494805 229.57245204 -67.875 233.125 C-69.125 234.3125 -69.125 234.3125 -71.125 234.3125 C-70.98570068 234.96951904 -70.84640137 235.62653809 -70.70288086 236.3034668 C-69.31534153 243.28669687 -68.70502772 250.00987472 -68.6875 257.125 C-68.68278687 258.73665039 -68.68278687 258.73665039 -68.67797852 260.38085938 C-68.81541708 269.79022119 -70.51602857 278.43871757 -72.93359375 287.5 C-74.14072808 292.09261829 -74.76032668 296.58395565 -75.125 301.3125 C-75.1861499 302.01213867 -75.2472998 302.71177734 -75.31030273 303.43261719 C-76.22426697 315.49300192 -74.06217278 321.95671071 -66.359375 331.5 C-62.24283775 337.25515887 -61.45570522 342.46230045 -61.0625 349.375 C-61.0123877 350.21409912 -60.96227539 351.05319824 -60.91064453 351.91772461 C-60.74827416 357.63372167 -61.31649139 363.22040383 -64.125 368.3125 C-65.115 368.6425 -66.105 368.9725 -67.125 369.3125 C-67.455 370.9625 -67.785 372.6125 -68.125 374.3125 C-87.78357701 375.08342459 -87.78357701 375.08342459 -96.125 370.3125 C-97.26582031 369.68214844 -97.26582031 369.68214844 -98.4296875 369.0390625 C-101.89242033 367.00578521 -103.85664261 365.71503608 -106.125 362.3125 C-106.38378906 360.05102539 -106.38378906 360.05102539 -106.390625 357.41015625 C-106.39449219 355.94932617 -106.39449219 355.94932617 -106.3984375 354.45898438 C-106.39070313 353.44126953 -106.38296875 352.42355469 -106.375 351.375 C-106.38660156 349.90063477 -106.38660156 349.90063477 -106.3984375 348.39648438 C-106.38493875 343.23658757 -106.04304706 338.37768923 -105.1015625 333.30078125 C-104.00745889 327.25527057 -103.9619976 321.56051643 -104.25 315.4375 C-104.31852173 313.74161743 -104.31852173 313.74161743 -104.38842773 312.01147461 C-104.89494046 301.58453837 -106.03029158 291.24569494 -107.1875 280.875 C-109.06892928 263.94794147 -110.73939846 248.05925697 -106.83984375 231.29296875 C-105.88177556 226.63526519 -105.85698392 221.99024341 -105.75 217.25 C-105.49096009 207.96003701 -104.33684705 198.90591036 -102.8125 189.75 C-102.61156738 188.51435303 -102.41063477 187.27870605 -102.20361328 186.00561523 C-100.96990817 178.88142284 -99.28802334 172.12908536 -96.9543457 165.28344727 C-96.05987365 162.07919929 -95.781046 159.12972739 -95.625 155.8125 C-94.83706873 141.57835024 -88.86835017 127.83943701 -78.35546875 118.05859375 C-70.46196115 111.87926294 -61.36485505 108.22588474 -51.5625 106.5 C-47.07449109 105.59452452 -44.21402018 103.47656148 -40.75390625 100.5546875 C-39.125 99.3125 -39.125 99.3125 -37.125 99.3125 C-36.856875 98.755625 -36.58875 98.19875 -36.3125 97.625 C-35.125 95.3125 -35.125 95.3125 -33.59375 93.125 C-30.64102747 87.47085048 -30.96992419 80.49651436 -32.125 74.3125 C-33.85010489 69.2674667 -36.48729465 64.71269498 -39.13134766 60.10498047 C-44.4759662 50.4636563 -45.57245645 39.1804189 -44.125 28.3125 C-40.92477115 17.95603985 -33.74344987 9.73526094 -24.34765625 4.42480469 C-16.45521327 0.47511552 -8.7033614 -0.1368453 0 0 Z " fill="#293142" transform="translate(430.125,152.6875)"/>
<path d="M0 0 C8.17282141 6.24243108 12.36816871 13.96236577 14.546875 23.9453125 C16.14457535 38.28072933 17.1850367 53.00322282 15.859375 67.3828125 C15.78162842 68.24374512 15.70388184 69.10467773 15.6237793 69.99169922 C14.95581753 75.917719 13.96834968 82.52383782 9.609375 86.8828125 C5.49846439 89.00055433 1.37053789 89.1876561 -3.203125 89.5078125 C-4.37359375 89.59160156 -5.5440625 89.67539062 -6.75 89.76171875 C-7.64203125 89.82230469 -8.5340625 89.88289063 -9.453125 89.9453125 C-11.63519325 97.88494397 -11.63519325 97.88494397 -11.453125 105.9453125 C-6.05121731 110.78321591 -0.3473549 112.05302251 6.734375 112.5078125 C8.64283203 112.63349609 8.64283203 112.63349609 10.58984375 112.76171875 C11.56566406 112.82230469 12.54148437 112.88289063 13.546875 112.9453125 C13.546875 113.6053125 13.546875 114.2653125 13.546875 114.9453125 C14.51625 114.9865625 15.485625 115.0278125 16.484375 115.0703125 C24.48353037 116.23382601 31.60692737 122.86368809 36.546875 128.9453125 C41.62295883 136.09013992 45.04331687 142.9319093 47.5703125 151.29296875 C49.94983747 157.75575856 55.3213862 161.6645483 60.4140625 166.01171875 C66.27633569 171.32641697 71.23919479 177.5315559 76.171875 183.6953125 C79.6548484 188.01395552 83.2597221 191.44559585 87.546875 194.9453125 C89.80160676 198.32741015 90.07428431 200.45236682 90.609375 204.4453125 C91.06354776 207.77841509 91.48256345 210.75237785 92.546875 213.9453125 C92.97266655 219.48060264 91.85907251 222.95096587 89.546875 227.9453125 C88.50941159 230.27687393 88.50941159 230.27687393 88.546875 232.9453125 C90.06023125 235.21236783 91.47287354 237.02682731 93.296875 239.0078125 C94.2090125 240.03976467 95.1204859 241.07230427 96.03125 242.10546875 C96.86140625 243.04261719 97.6915625 243.97976563 98.546875 244.9453125 C101.41329448 248.47715078 102.5994154 251.44487939 103.546875 255.9453125 C103.05907012 260.43311738 103.05907012 260.43311738 101.546875 261.9453125 C90.61915022 262.30487998 90.61915022 262.30487998 86.45703125 259.57421875 C85.07174679 258.10433676 83.80056682 256.52892322 82.546875 254.9453125 C81.556875 254.6153125 80.566875 254.2853125 79.546875 253.9453125 C79.88460938 254.40421875 80.22234375 254.863125 80.5703125 255.3359375 C81.01632812 255.94953125 81.46234375 256.563125 81.921875 257.1953125 C82.58316406 258.10023438 82.58316406 258.10023438 83.2578125 259.0234375 C88.98943272 267.5687622 87.64504187 279.09684419 86.546875 288.9453125 C84.83554107 297.41456628 82.20386685 305.61764759 79.5390625 313.8269043 C77.31962809 320.80250364 75.46986092 327.80146212 74.171875 335.0078125 C72.91441187 341.49921905 71.27071358 347.8052431 69.46020508 354.16210938 C68.00954868 359.25827133 66.63890729 364.36594321 65.359375 369.5078125 C65.1938916 370.17224365 65.0284082 370.8366748 64.85791016 371.52124023 C64.00448772 374.98448636 63.21251872 378.45380366 62.484375 381.9453125 C61.89846196 384.70064935 61.15199215 386.93040795 60.0859375 389.58984375 C58.61675271 393.41406487 57.96543256 397.11138147 57.37060547 401.15087891 C55.70713633 411.84040309 55.70713633 411.84040309 52.41796875 414.97265625 C49.921875 416.0703125 49.921875 416.0703125 47.2734375 416.9140625 C42.97112483 418.54129824 40.20568237 421.67675357 36.96875 424.859375 C32.80636291 428.44439872 28.88340894 430.37424811 23.359375 430.3828125 C22.10060547 430.41181641 22.10060547 430.41181641 20.81640625 430.44140625 C18.546875 429.9453125 18.546875 429.9453125 16.859375 428.203125 C10.50468285 417.27154148 13.12002879 405.71794937 14.85107422 393.86181641 C16.0631788 385.54698616 16.74800679 377.46824082 16.796875 369.0703125 C16.80605957 368.21453613 16.81524414 367.35875977 16.82470703 366.47705078 C16.80397059 362.18958352 16.48175588 358.23798938 15.55859375 354.046875 C12.5429474 340.20735716 12.53856838 323.52186274 19.546875 310.9453125 C22.27397502 306.72032843 25.31058758 302.79501388 28.546875 298.9453125 C27.886875 299.2753125 27.226875 299.6053125 26.546875 299.9453125 C25.350625 300.2959375 24.154375 300.6465625 22.921875 301.0078125 C11.75322029 304.7306974 1.48969759 310.92838708 -8.640625 316.8203125 C-32.00030912 330.35455476 -57.22534348 342.55691061 -84.453125 344.9453125 C-85.113125 345.2753125 -85.773125 345.6053125 -86.453125 345.9453125 C-88.32692105 346.01565019 -90.20313602 346.0296147 -92.078125 346.0078125 C-93.08101562 345.99878906 -94.08390625 345.98976563 -95.1171875 345.98046875 C-96.27347656 345.96306641 -96.27347656 345.96306641 -97.453125 345.9453125 C-97.453125 346.6053125 -97.453125 347.2653125 -97.453125 347.9453125 C-98.113125 347.9453125 -98.773125 347.9453125 -99.453125 347.9453125 C-99.60007812 348.47898437 -99.74703125 349.01265625 -99.8984375 349.5625 C-101.51981337 354.94844974 -103.74330285 359.41353615 -106.734375 364.1640625 C-108.64991701 367.26375776 -110.38577502 370.43956091 -112.140625 373.6328125 C-118.79632992 385.46211048 -127.08870309 396.13981274 -136.453125 405.9453125 C-137.1234375 406.69039062 -137.79375 407.43546875 -138.484375 408.203125 C-144.46766548 414.61060399 -151.34556667 419.09572645 -158.67871094 423.78173828 C-161.9577566 425.93197653 -165.08246676 428.30087444 -168.20703125 430.66796875 C-174.82097614 434.42929045 -185.06773339 433.86918433 -192.30859375 432.34375 C-194.7268917 431.61935818 -197.08411547 430.81621314 -199.453125 429.9453125 C-210.66462744 426.07397005 -221.85917887 424.37662148 -233.640625 423.3203125 C-236.2177651 423.08152377 -238.7946092 422.8395111 -241.37109375 422.59375 C-242.49281982 422.49239746 -243.6145459 422.39104492 -244.77026367 422.28662109 C-247.453125 421.9453125 -247.453125 421.9453125 -249.453125 420.9453125 C-251.48980127 420.62062498 -253.53289797 420.3358659 -255.578125 420.0703125 C-264.36510439 418.8642565 -273.12854632 417.36327854 -281.78564453 415.42236328 C-284.75696708 414.89097354 -287.61236724 414.73292484 -290.62890625 414.62890625 C-291.78583984 414.58701172 -292.94277344 414.54511719 -294.13476562 414.50195312 C-295.93204102 414.44297852 -295.93204102 414.44297852 -297.765625 414.3828125 C-298.98314453 414.33962891 -300.20066406 414.29644531 -301.45507812 414.25195312 C-304.4543197 414.14609754 -307.45364091 414.04401524 -310.453125 413.9453125 C-310.59621094 415.2034375 -310.73929688 416.4615625 -310.88671875 417.7578125 C-311.1882871 420.40944052 -311.61226859 422.39465912 -312.515625 424.9453125 C-313.68465848 428.68621964 -314.27507494 432.09804597 -313.453125 435.9453125 C-311.67766396 438.26306308 -309.50390643 439.72871329 -307.078125 441.3203125 C-305.88241181 442.16088865 -304.68708328 443.0020123 -303.4921875 443.84375 C-302.48929688 444.53726562 -301.48640625 445.23078125 -300.453125 445.9453125 C-298.03825557 448.36018193 -298.1569325 449.07239039 -298.140625 452.3828125 C-298.12386719 453.16527344 -298.10710937 453.94773437 -298.08984375 454.75390625 C-298.453125 456.9453125 -298.453125 456.9453125 -299.47265625 458.60546875 C-305.47929988 462.66913496 -313.23605891 462.29985152 -320.203125 462.2578125 C-321.17451416 462.25217285 -322.14590332 462.2465332 -323.14672852 462.24072266 C-332.91762253 462.07568205 -341.71853995 461.47384333 -349.1484375 454.54296875 C-352.01120994 451.03735819 -352.6897411 448.22074887 -352.65625 443.7265625 C-352.66454107 427.42020431 -352.66454107 427.42020431 -359.453125 412.9453125 C-360.37368192 411.48943172 -361.2906889 410.0312965 -362.203125 408.5703125 C-362.60402344 407.94125 -363.00492188 407.3121875 -363.41796875 406.6640625 C-367.48511407 399.91106649 -367.09949042 392.58846303 -365.765625 385.0703125 C-364.12954543 381.17488496 -363.15715326 380.01956833 -359.453125 377.9453125 C-348.51663381 374.39015574 -334.45273631 371.34082404 -323.453125 375.9453125 C-322.85371094 376.29207031 -322.25429688 376.63882812 -321.63671875 376.99609375 C-305.61716179 383.95987254 -276.44517523 374.93766127 -260.453125 370.0234375 C-243.51466174 365.14442363 -225.74644634 367.9425099 -209.453125 373.9453125 C-209.453125 374.6053125 -209.453125 375.2653125 -209.453125 375.9453125 C-208.7725 376.2134375 -208.091875 376.4815625 -207.390625 376.7578125 C-204.05601691 378.10584556 -200.75569263 379.52067548 -197.453125 380.9453125 C-197.28369385 380.37353271 -197.1142627 379.80175293 -196.93969727 379.21264648 C-195.49129331 374.35197462 -194.0068961 369.50473831 -192.48046875 364.66796875 C-192.13822266 363.57677734 -191.79597656 362.48558594 -191.44335938 361.36132812 C-190.74230076 359.12808575 -190.03657867 356.89630191 -189.32617188 354.66601562 C-185.42951944 342.18052247 -184.13662345 330.75106878 -183.97460938 317.70507812 C-183.71396163 307.00580591 -181.73961396 297.36768632 -176.703125 287.8828125 C-176.35531982 287.20436279 -176.00751465 286.52591309 -175.64916992 285.8269043 C-173.55915268 281.81917876 -171.27349231 278.02235731 -168.765625 274.2578125 C-166.22575977 270.43368133 -164.51105315 266.76386902 -162.953125 262.4453125 C-159.65605828 253.40772184 -154.8147749 246.42070207 -148.453125 239.2578125 C-139.68666633 228.91925334 -135.98223128 216.7854343 -133.27734375 203.6875 C-132.453125 199.9453125 -132.453125 199.9453125 -131.4453125 197.1953125 C-129.93256797 192.24018081 -129.46469992 187.20828307 -128.890625 182.0703125 C-128.75914062 180.92788086 -128.62765625 179.78544922 -128.4921875 178.60839844 C-127.64080331 170.80189337 -127.18174735 163.04238317 -126.953125 155.1953125 C-126.37598201 136.84542943 -122.57648175 122.4621732 -109.453125 108.9453125 C-105.67661074 105.64531451 -101.61593831 102.73602533 -97.453125 99.9453125 C-96.2775 99.15253906 -96.2775 99.15253906 -95.078125 98.34375 C-91.75323682 96.5724554 -88.30740444 95.59157443 -84.703125 94.5703125 C-73.17376063 91.17557144 -73.17376063 91.17557144 -64.390625 83.3203125 C-61.66756899 78.11475314 -61.16809055 73.67854312 -62.453125 67.9453125 C-64.37120082 62.97252334 -66.76268536 58.23490527 -69.19140625 53.49609375 C-72.76972057 46.41401333 -74.98922648 40.57595769 -74.828125 32.5703125 C-74.81072266 31.45342041 -74.81072266 31.45342041 -74.79296875 30.31396484 C-74.46437659 19.21189889 -71.07298447 11.19805066 -63.453125 2.9453125 C-46.05316911 -11.87483921 -18.57248656 -12.53905166 0 0 Z " fill="#262E40" transform="translate(1145.453125,324.0546875)"/>
<path d="M0 0 C4.32706301 0.64518957 8.57259939 0.69647664 12.94165039 0.7487793 C14.82707137 0.78173686 16.71248792 0.81494816 18.59790039 0.84838867 C21.539925 0.89556471 24.48193423 0.93999217 27.42407227 0.97949219 C46.7051344 1.25053069 46.7051344 1.25053069 55.89331055 3.06396484 C59.76714091 3.74980456 63.57364642 3.75868843 67.49633789 3.69018555 C68.6062207 3.68921875 68.6062207 3.68921875 69.73852539 3.68823242 C73.68463975 3.72237192 73.68463975 3.72237192 77.37133789 2.50268555 C82.75348979 1.83402716 87.15137285 2.16519095 91.73852539 5.1628418 C96.28872844 8.89662085 100.7686999 13.73557468 101.7253418 19.71557617 C102.56306889 36.41671718 99.50474061 50.54613316 94.36352539 66.38427734 C92.14409098 73.35987669 90.29432381 80.35883516 88.99633789 87.56518555 C87.73887476 94.05659209 86.09517648 100.36261615 84.28466797 106.71948242 C82.83401157 111.81564437 81.46337018 116.92331626 80.18383789 122.06518555 C80.01835449 122.7296167 79.85287109 123.39404785 79.68237305 124.07861328 C78.82895061 127.5418594 78.03698161 131.01117671 77.30883789 134.50268555 C76.72292485 137.2580224 75.97645504 139.48778099 74.91040039 142.1472168 C73.4412156 145.97143792 72.78989545 149.66875452 72.19506836 153.70825195 C70.53159922 164.39777613 70.53159922 164.39777613 67.24243164 167.5300293 C64.74633789 168.62768555 64.74633789 168.62768555 62.09790039 169.47143555 C57.79558773 171.09867128 55.03014526 174.23412662 51.79321289 177.41674805 C47.6308258 181.00177177 43.70787183 182.93162115 38.18383789 182.94018555 C37.3446582 182.95952148 36.50547852 182.97885742 35.64086914 182.9987793 C33.37133789 182.50268555 33.37133789 182.50268555 31.68383789 180.76049805 C25.32914574 169.82891452 27.94449168 158.27532242 29.67553711 146.41918945 C30.88764169 138.1043592 31.57246968 130.02561387 31.62133789 121.62768555 C31.63052246 120.77190918 31.63970703 119.91613281 31.64916992 119.03442383 C31.62843348 114.74695657 31.30621877 110.79536243 30.38305664 106.60424805 C27.36741029 92.7647302 27.36303127 76.07923578 34.37133789 63.50268555 C37.09843791 59.27770147 40.13505047 55.35238693 43.37133789 51.50268555 C42.38133789 51.99768555 42.38133789 51.99768555 41.37133789 52.50268555 C40.17508789 52.85331055 38.97883789 53.20393555 37.74633789 53.56518555 C26.57768318 57.28807045 16.31416048 63.48576012 6.18383789 69.37768555 C-26.68307895 88.42027244 -66.82347178 105.77517682 -105.62866211 95.50268555 C-124.93263622 89.44525662 -124.93263622 89.44525662 -131.62866211 83.50268555 C-133.05701337 82.592336 -134.49438046 81.69595025 -135.94116211 80.81518555 C-145.62448807 74.39191266 -151.23474509 65.96216934 -153.87866211 54.75268555 C-156.20461813 41.25794971 -154.50054921 28.85952267 -146.62866211 17.50268555 C-140.85736247 10.36585519 -133.66583796 5.4718309 -124.62866211 3.50268555 C-108.74370247 1.96461494 -96.77607181 4.86849875 -83.87084961 14.5378418 C-81.76234937 16.38553452 -80.20249091 18.19337467 -78.62866211 20.50268555 C-78.95866211 21.16268555 -79.28866211 21.82268555 -79.62866211 22.50268555 C-76.00661312 21.90792475 -73.0910976 20.91798276 -69.81225586 19.2800293 C-68.89299316 18.82756836 -67.97373047 18.37510742 -67.02661133 17.90893555 C-66.04966309 17.42424805 -65.07271484 16.93956055 -64.06616211 16.44018555 C-21.77307974 -4.1192313 -21.77307974 -4.1192313 0 0 Z " fill="#2A3245" transform="translate(1130.628662109375,571.497314453125)"/>
<path d="M0 0 C1.27005624 1.03844278 2.5214876 2.10022656 3.75 3.1875 C4.56404297 3.88359375 4.56404297 3.88359375 5.39453125 4.59375 C7.43111781 6.61350526 8.69328787 8.38606807 8.8984375 11.28515625 C8.48861596 15.709711 7.32145972 19.91608903 6.16015625 24.19140625 C5.47111156 27.54475707 5.62814496 30.7755588 5.75 34.1875 C7.25560497 31.33339666 8.38216796 28.50625358 9.375 25.4375 C9.63539063 24.63828125 9.89578125 23.8390625 10.1640625 23.015625 C10.35742188 22.41234375 10.55078125 21.8090625 10.75 21.1875 C14.09320381 21.75283876 15.49569473 22.61869547 17.59765625 25.2578125 C18.11448975 25.89823486 18.63132324 26.53865723 19.16381836 27.19848633 C19.97991577 28.2449231 19.97991577 28.2449231 20.8125 29.3125 C21.38685791 30.04041748 21.96121582 30.76833496 22.55297852 31.51831055 C23.73348173 33.02202932 24.9088498 34.52979335 26.07910156 36.04150391 C27.54752401 37.92745266 29.04429004 39.7844371 30.5546875 41.63671875 C43.4529931 57.86177967 52.57865417 77.50415488 58.75 97.1875 C59.25803503 98.52324184 59.77256476 99.85652835 60.29296875 101.1875 C61.70518672 104.90327225 62.6111617 108.59267333 63.375 112.5 C63.50197266 113.14735107 63.62894531 113.79470215 63.75976562 114.46166992 C64.48551273 118.30556479 64.97302768 122.10022975 65.25 126 C65.6880988 131.99927125 67.07272927 137.87118472 69.79980469 143.26318359 C71.12000976 147.32624022 70.90082864 151.02719774 70.76953125 155.265625 C70.7393145 157.08592246 70.71005013 158.90623593 70.68164062 160.7265625 C70.62645198 163.56330753 70.56359231 166.39921897 70.48266602 169.23535156 C70.13428844 182.20641953 71.32456653 192.97185459 75.75 205.1875 C76.93875832 208.64996714 78.02459595 212.05771075 78.828125 215.62890625 C79.01648926 216.44955566 79.20485352 217.27020508 79.39892578 218.11572266 C79.59728027 218.98503418 79.79563477 219.8543457 80 220.75 C82.3710138 230.93691068 85.18371437 240.96105193 88.12158203 250.99658203 C88.90680047 253.73416956 89.61155496 256.48978141 90.3125 259.25 C92.72842365 268.19315596 96.85415966 276.57498531 100.83203125 284.91015625 C101.75 287.1875 101.75 287.1875 101.75 290.1875 C100.35072432 291.31374628 98.94770898 292.43562646 97.52734375 293.53515625 C95.36478901 295.54561922 93.88763268 297.73287463 92.25 300.1875 C85.93879609 309.42004721 85.93879609 309.42004721 80.65625 310.69140625 C75.42665008 311.11228159 71.7023774 309.82866861 67.71484375 306.45703125 C63.33309837 301.39581044 60.62856562 295.18175722 57.75 289.1875 C53.23004475 279.84753936 48.45670718 270.75803822 43.1875 261.8125 C42.65745361 260.90943115 42.12740723 260.0063623 41.58129883 259.07592773 C38.36790186 253.68001412 34.92219779 248.52661999 31.28735352 243.40673828 C22.20967101 230.30269922 19.67951853 215.51708299 19.5390625 199.90234375 C19.51101293 198.13736021 19.48234862 196.37238636 19.453125 194.60742188 C19.41183294 191.86027102 19.37488823 189.113305 19.34863281 186.3659668 C19.32092722 183.69022747 19.27508838 181.01527595 19.2265625 178.33984375 C19.22330963 177.52611801 19.22005676 176.71239227 19.21670532 175.87400818 C19.05981225 168.53928085 17.00898143 163.26924468 12.25 157.5625 C11.55390625 156.71945312 10.8578125 155.87640625 10.140625 155.0078125 C8.40366047 152.95864846 6.66426212 150.91172947 4.921875 148.8671875 C4.43783203 148.29822754 3.95378906 147.72926758 3.45507812 147.14306641 C2.50986858 146.03514126 1.5608527 144.93044809 0.60742188 143.82958984 C-2.30148027 140.43904633 -4.81237849 136.92691513 -7.25 133.1875 C-8.11476645 132.07530037 -8.98895607 130.97032424 -9.875 129.875 C-19.64344663 116.93304786 -28.12561808 101.60907703 -31.66796875 85.76171875 C-32.22972448 83.06738307 -32.22972448 83.06738307 -33.3125 80.0625 C-34.25 77.1875 -34.25 77.1875 -34.46484375 74.9609375 C-35.29161175 67.644607 -38.39316853 64.59120174 -43.70703125 59.69140625 C-51.37404119 52.14216912 -55.55821731 41.8470599 -55.71899414 31.14819336 C-55.70340454 29.96108765 -55.70340454 29.96108765 -55.6875 28.75 C-55.67775146 27.91670166 -55.66800293 27.08340332 -55.65795898 26.22485352 C-55.34579867 15.39659437 -51.88583254 9.24684551 -44.56640625 1.31640625 C-32.98509059 -9.32746733 -12.45384177 -8.80317943 0 0 Z " fill="#2A3244" transform="translate(430.25,449.8125)"/>
<path d="M0 0 C1.57618629 1.36602812 3.1506489 2.73407322 4.71875 4.109375 C7.04441821 6.0851476 7.04441821 6.0851476 9.84375 8.015625 C18.49246521 14.34284297 18.49246521 14.34284297 19.5 20.5 C19.58378906 21.42425781 19.66757812 22.34851563 19.75390625 23.30078125 C20.13148325 27.44214173 21.55887678 31.12497977 23 35 C23.21003662 35.5870874 23.42007324 36.1741748 23.63647461 36.77905273 C25.37817942 41.57005029 27.39272243 46.13714755 29.6875 50.6875 C30.20751587 51.72015991 30.20751587 51.72015991 30.73803711 52.77368164 C35.88568292 62.84253724 41.78204934 72.27079092 49 81 C46.23734977 84.93036837 43.26245018 87.37250005 39.36474609 90.0456543 C31.95191937 95.14357727 27.03574828 99.6839953 22.7734375 107.69921875 C18.45033169 115.74552803 13.50195041 121.81560705 6.6875 127.875 C0.12867425 133.87474723 -5.65335877 139.87872891 -11 147 C-15.39884915 152.75532245 -19.93558173 158.25200119 -24.8203125 163.60546875 C-26.70157261 165.67215773 -28.5463115 167.76194607 -30.375 169.875 C-33.35917743 173.30333407 -36.42232983 176.65578855 -39.5 180 C-50.2878675 191.74735228 -60.69373389 203.77678615 -69.5625 217.0625 C-69.96766846 217.66908447 -70.37283691 218.27566895 -70.7902832 218.90063477 C-73.13558699 222.48549253 -75.15810743 226.133791 -77 230 C-76.23945313 230.30292969 -75.47890625 230.60585938 -74.6953125 230.91796875 C-70.72489619 233.98497149 -70.15058554 237.59140826 -68.875 242.3125 C-66.57774021 251.91682903 -66.57774021 251.91682903 -61 259.6875 C-57.30426339 261.30438477 -53.55511964 262.24250593 -49.65625 263.25390625 C-44.56808978 264.68308066 -40.19795572 266.69505961 -37 271 C-36.27607145 274.78051577 -36.6042328 276.38436214 -38.6875 279.625 C-48.226296 288.00512869 -67.0397807 288.87006091 -79.30078125 288.4296875 C-87.43128934 287.4852779 -91.59538028 282.46158135 -97.0625 276.8125 C-102.38511994 271.37594018 -106.04345766 269.66839548 -113.4453125 268.41796875 C-124.95003356 266.43078966 -134.35958612 262.54311946 -141.796875 253.15625 C-144.11128349 249.00834906 -144.26238758 245.54324515 -143 241 C-137.10862581 229.69851881 -125.21993572 217.9868371 -114 212 C-113.18789063 211.75507812 -112.37578125 211.51015625 -111.5390625 211.2578125 C-107.98524223 209.49730461 -106.3658566 206.75971404 -104.3125 203.5 C-103.8882373 202.84507568 -103.46397461 202.19015137 -103.02685547 201.51538086 C-97.96091077 193.57177835 -93.41353502 185.31975579 -89 177 C-88.66170166 176.39115967 -88.32340332 175.78231934 -87.97485352 175.1550293 C-84.10270411 167.9193482 -81.99721069 159.99493973 -79.61914062 152.17382812 C-73.07551671 131.64277532 -57.54756132 114.29335664 -39.80810547 102.38476562 C-29.38755051 95.36702637 -25.81722037 86.53442372 -23.27783203 74.60839844 C-22.53660828 70.74304631 -21.82348808 66.87324227 -21.125 63 C-17.45742651 42.73740165 -11.26046057 24.13878921 -1.81274414 5.81738281 C-0.95617292 3.90199796 -0.44934778 2.04593043 0 0 Z " fill="#1C2538" transform="translate(378,506)"/>
<path d="M0 0 C0.33 0 0.66 0 1 0 C1.00410889 0.5983667 1.00821777 1.1967334 1.01245117 1.81323242 C1.21760698 18.90353202 2.50146606 32.16244615 15 45 C15.96808594 45.72445312 16.93617187 46.44890625 17.93359375 47.1953125 C21.95146395 50.46927311 23.87716419 54.79423679 26.125 59.375 C26.95985128 61.02919448 27.79577264 62.68284938 28.6328125 64.3359375 C29.03226074 65.13008057 29.43170898 65.92422363 29.84326172 66.74243164 C36.43462503 79.60658033 45.20998987 89.43658412 55.45751953 99.4699707 C60.78690851 104.70824469 65.51525049 110.02033399 70 116 C72.36251562 118.36251562 72.82506313 118.25494692 76.03125 118.30859375 C76.8867041 118.33187744 77.7421582 118.35516113 78.62353516 118.37915039 C79.57276855 118.39840576 80.52200195 118.41766113 81.5 118.4375 C90.86489092 118.71912262 100.14178879 119.4358685 109.46099854 120.35095215 C125.70774635 121.93919719 141.67134599 122.33450202 158 122 C158 117.71 158 113.42 158 109 C157.34 109 156.68 109 156 109 C156.33 107.35 156.66 105.7 157 104 C156.42894531 103.82984375 155.85789062 103.6596875 155.26953125 103.484375 C153.52432094 102.96275411 151.78101488 102.43474328 150.0390625 101.90234375 C148.00211168 101.29754216 145.95455382 100.72744665 143.8984375 100.19140625 C136.45518004 98.15401826 130.56113614 95.17687997 124.1015625 90.97265625 C119.89604935 88.29786514 115.50662788 86.11597878 111 84 C111.52708039 79.56773313 113.13201045 77.15893916 115.875 73.6875 C119.23880864 69.16644524 121.65665014 65.46355714 123 60 C123.26425781 58.93007813 123.52851562 57.86015625 123.80078125 56.7578125 C126.35267796 44.92958986 126.71290376 33.0675589 127 21 C127.66 21 128.32 21 129 21 C129.92915003 24.79214078 130.12997923 28.40248677 130.23852539 32.28100586 C130.70101837 46.93577517 134.74589578 57.21551157 144.9453125 68.0703125 C150.01902829 72.81536654 156.15872576 77.2672666 163.16796875 78.328125 C167.60725131 78.1563926 169.8677767 76.5195073 173 73.4375 C174.01826258 72.30786495 175.02488839 71.16708671 176 70 C176.66 70.33 177.32 70.66 178 71 C177.05125 71.886875 176.1025 72.77375 175.125 73.6875 C170.75696766 78.67365013 170.55688443 84.61503201 170 91 C170.57105469 90.95359375 171.14210938 90.9071875 171.73046875 90.859375 C181.11479167 90.4416309 190.44660026 92.24741196 197.5625 98.6875 C198.43068359 99.59048828 198.43068359 99.59048828 199.31640625 100.51171875 C201.20149569 102.17812032 202.54465245 102.59704362 205 103 C205.33 102.01 205.66 101.02 206 100 C206.33 100.66 206.66 101.32 207 102 C206.2575 103.175625 206.2575 103.175625 205.5 104.375 C203.81241145 106.76155725 203.81241145 106.76155725 204.1328125 108.8203125 C205.35009863 111.87997764 207.24854111 113.99504519 209.375 116.5 C217.57253827 126.21955677 217.57253827 126.21955677 219 133 C218.51219512 137.48780488 218.51219512 137.48780488 217 139 C206.00577671 139.36175556 206.00577671 139.36175556 201.98046875 136.62890625 C200.61176159 135.12296723 199.30277315 133.56332778 198 132 C195.52391899 131.25475806 195.52391899 131.25475806 193 131 C191.63875 130.2265625 191.63875 130.2265625 190.25 129.4375 C186.0904657 127.59770598 182.49009757 127.53302985 178 128 C177.34 128.33 176.68 128.66 176 129 C173.36258014 129.12685577 170.76286689 129.18520221 168.125 129.1875 C167.42375 129.19974609 166.7225 129.21199219 166 129.22460938 C161.79578541 129.23591103 157.92191743 128.83758089 153.796875 128.0234375 C144.34043407 126.33526988 134.70221063 126.56607996 125.125 126.4375 C122.20010959 126.39335162 119.27531928 126.3465679 116.35055542 126.29469299 C114.54311824 126.2630986 112.73559281 126.23610118 110.92800903 126.21446228 C106.50889417 126.14191434 102.35564579 125.82976269 98 125 C78.32713691 123.66957356 60.92965572 129.77661705 43.6328125 138.74609375 C41 140 41 140 38 140 C37.74992187 139.16726563 37.49984375 138.33453125 37.2421875 137.4765625 C35.60667311 132.89917945 33.38198572 128.73125079 31.09765625 124.44921875 C25.52363268 113.66146971 23.56060128 104.44575293 24.1574707 92.33114624 C24.74460215 79.12552985 24.01665908 68.94424448 16 58 C15.30648438 57.01 14.61296875 56.02 13.8984375 55 C12.58774314 53.17818545 11.25303534 51.37331397 9.890625 49.58984375 C-0.3154947 35.60914673 -2.60681313 20.13229704 -0.5 3.1875 C-0.335 2.135625 -0.17 1.08375 0 0 Z " fill="#1C2435" transform="translate(1030,447)"/>
<path d="M0 0 C0.33 0 0.66 0 1 0 C1.38865234 1.70929688 1.38865234 1.70929688 1.78515625 3.453125 C2.93834525 8.06588099 4.63764095 12.35779246 6.4375 16.75 C9.80583646 25.20381301 12.84030126 33.5165513 13.25 42.6875 C13.73965243 48.29810076 17.19143019 52.07897242 21 56 C21.7940625 56.61101562 22.588125 57.22203125 23.40625 57.8515625 C26.51332716 60.42519569 28.87328198 63.33307289 31.25 66.5625 C31.72526123 67.20799805 32.20052246 67.85349609 32.69018555 68.51855469 C37.86072669 75.81550139 41.40624927 83.78761686 45.05371094 91.91748047 C48.34810988 99.16753799 52.39489597 105.79321939 56.9375 112.3125 C57.33251709 112.88782471 57.72753418 113.46314941 58.13452148 114.0559082 C62.66986629 120.38628314 68.12368188 124.67366143 74.90039062 128.42138672 C83.65749414 133.32679202 89.35512369 138.32222497 93 148 C94.16700539 153.24833572 94.29917837 157.56503686 91.7265625 162.38671875 C87.08069827 168.2867482 81.08000841 171.46113096 73.6875 172.4375 C70.55838945 171.92810991 69.12160469 171.36640524 67 169 C66.75 166.4375 66.75 166.4375 67 164 C67 160.28384124 63.68220096 157.7309296 61.25 155.125 C59.14065036 153.05481588 59.14065036 153.05481588 57.21484375 151.65234375 C51.62575878 147.26938117 48.98385078 142.66361771 46.12890625 136.18359375 C43.18460777 131.78065199 39.44881862 129.74225054 35 127 C17.46039644 114.98675897 1.07230791 103.26876296 -9 84 C-9.99 84.495 -9.99 84.495 -11 85 C-11.10971926 81.91566976 -11.1881156 78.83537953 -11.25 75.75 C-11.28351563 74.89664063 -11.31703125 74.04328125 -11.3515625 73.1640625 C-11.42690536 68.11609098 -10.87207182 64.33325755 -8.97265625 59.64453125 C-5.44802103 49.95918908 -6.87439108 39.25033268 -7.30834961 29.11499023 C-8.0651085 10.09335048 -8.0651085 10.09335048 -1.62231445 1.67016602 C-1.08695068 1.11901123 -0.55158691 0.56785645 0 0 Z " fill="#1D2538" transform="translate(490,336)"/>
<path d="M0 0 C4.26943591 2.98191672 7.91363732 5.69353973 10.8671875 10.02734375 C10.34769531 10.34445312 9.82820313 10.6615625 9.29296875 10.98828125 C3.35231641 14.96335731 -0.09790789 19.11424316 -2.1328125 26.02734375 C-3.364287 34.22463967 -2.84805442 40.95456825 1.96484375 47.83984375 C7.32016005 53.99790766 13.13547839 57.61910649 20.8671875 60.02734375 C22.0221875 60.41921875 23.1771875 60.81109375 24.3671875 61.21484375 C25.1921875 61.48296875 26.0171875 61.75109375 26.8671875 62.02734375 C26.8671875 63.01734375 26.8671875 64.00734375 26.8671875 65.02734375 C6.91396129 74.82506586 -16.53510671 80.47926029 -38.5703125 74.40234375 C-48.53232154 70.65840868 -56.82841585 63.31205003 -61.4453125 53.65234375 C-66.22312376 41.6360459 -67.13697293 28.09382738 -62.1328125 16.02734375 C-57.40415991 5.31622917 -50.00971531 -1.66259102 -39.1328125 -5.97265625 C-25.85186794 -9.76991067 -11.49559077 -7.23849543 0 0 Z " fill="#67B09A" transform="translate(1041.1328125,581.97265625)"/>
<path d="M0 0 C0.78747645 3.14990581 1.36458744 6.17820556 1.875 9.375 C2.65443284 13.78588133 3.71826702 17.16253999 6 21 C14.26169516 21.94921604 19.46086435 20.07614259 26 15 C27.21357999 13.79657549 28.40303272 12.56814429 29.5625 11.3125 C33.12413062 7.46116737 36.97864115 6.19556163 42 5 C42.928125 5.99 42.928125 5.99 43.875 7 C47.93153404 11.04520294 52.49112051 14.47953523 57 18 C57.79929932 18.63059326 57.79929932 18.63059326 58.61474609 19.27392578 C60.3016433 20.60449847 61.99383831 21.92805196 63.6875 23.25 C64.72261719 24.05953125 65.75773437 24.8690625 66.82421875 25.703125 C72.51637573 29.81996178 77.48797427 32.40685312 84.375 34.125 C85.02984375 34.29257812 85.6846875 34.46015625 86.359375 34.6328125 C89.88871377 35.52560966 93.4282633 36.30038147 97 37 C101.87914351 38.05146004 106.2379127 39.87081118 109.5 43.8125 C110.26669055 47.16677114 109.83014941 49.67940234 109 53 C105.58925256 57.87514445 100.60725202 58.42254357 95.125 59.625 C93.35629186 60.03177713 91.58804902 60.44058352 89.8203125 60.8515625 C88.98516113 61.04411621 88.15000977 61.23666992 87.28955078 61.43505859 C84.46666017 62.13160038 81.74221744 63.03695935 79 64 C65.32813788 68.17894653 50.09795726 67.29577902 37 62 C30.24205849 60.00333546 23.45176751 59.12345043 16.48046875 60.49609375 C11.32378604 61.24268418 6.20389284 61.22486042 1 61.25 C-0.60101562 61.2809375 -0.60101562 61.2809375 -2.234375 61.3125 C-9.28843455 61.34759482 -13.8342986 60.66585381 -19.375 56 C-22.92557995 49.44508317 -21.27685221 42.26126134 -19.5 35.3125 C-17.78173225 29.75881316 -15.56732324 24.58764262 -13 19.375 C-12.66806641 18.69993408 -12.33613281 18.02486816 -11.99414062 17.3293457 C-10.10358607 13.65734276 -8.25524663 10.58582091 -5 8 C-4.01 8 -3.02 8 -2 8 C-1.34 5.36 -0.68 2.72 0 0 Z " fill="#21293C" transform="translate(1158,732)"/>
<path d="M0 0 C0.495 0.99 0.495 0.99 1 2 C1.75023437 2.14824219 2.50046875 2.29648437 3.2734375 2.44921875 C6.32967558 3.06659636 8.04162116 4.08323501 10.625 5.8125 C11.57117188 6.43125 12.51734375 7.05 13.4921875 7.6875 C14.03327148 8.04457031 14.57435547 8.40164063 15.13183594 8.76953125 C18.98818669 11.30952181 22.86529428 13.81615172 26.75 16.3125 C27.9558374 17.10394409 27.9558374 17.10394409 29.18603516 17.91137695 C38.12310655 23.64422637 47.29129391 24.81317308 57.63867188 26.32421875 C64.56081314 27.43646353 68.91811957 28.81539022 73.875 33.9375 C75.34382268 36.63034159 75.59036459 37.97438146 75 41 C68.63550814 49.48598915 56.5318047 52.47737652 47 56 C45.49980186 56.56197133 43.99976729 57.12437983 42.5 57.6875 C41.345 58.120625 40.19 58.55375 39 59 C38.30519531 59.35191406 37.61039063 59.70382812 36.89453125 60.06640625 C32.65977096 61.4322736 28.60829066 61.28903568 24.1875 61.25 C22.89102539 61.26160156 22.89102539 61.26160156 21.56835938 61.2734375 C16.76378308 61.25893312 12.64524815 60.74949603 8.03442383 59.44970703 C4.14529581 58.59001979 0.21388972 58.75338391 -3.75 58.8125 C-4.58660156 58.81314453 -5.42320312 58.81378906 -6.28515625 58.81445312 C-10.66613486 58.80021452 -10.66613486 58.80021452 -14.96826172 59.49780273 C-19.01159395 60.49721807 -23.23102793 60.2272933 -27.375 60.25 C-28.30828125 60.270625 -29.2415625 60.29125 -30.203125 60.3125 C-35.51439756 60.3425922 -39.50370051 60.16882059 -44 57 C-46.82971354 53.51164624 -46.30357893 49.10254124 -46.25 44.8125 C-46.24395752 44.04873047 -46.23791504 43.28496094 -46.23168945 42.49804688 C-46.13686451 37.1050935 -45.63581536 32.16145468 -44 27 C-43.78214844 26.22140625 -43.56429688 25.4428125 -43.33984375 24.640625 C-41.94732518 19.98367766 -40.38389412 16.61726613 -37 13 C-36.1646875 14.1446875 -36.1646875 14.1446875 -35.3125 15.3125 C-32.45519024 18.63315729 -30.31098473 20.5647863 -25.92578125 21.390625 C-21.60507611 21.71339414 -18.74074827 21.29901747 -15.3125 18.5625 C-12.09779015 15.42964619 -9.73795308 11.83844981 -7.34765625 8.05859375 C-5.80744127 5.70585957 -4.17567756 3.78716371 -2 2 C-1.34 2 -0.68 2 0 2 C0 1.34 0 0.68 0 0 Z " fill="#2A3243" transform="translate(532,738)"/>
<path d="M0 0 C3.34320381 0.56533876 4.74569473 1.43119547 6.84765625 4.0703125 C7.36448975 4.71073486 7.88132324 5.35115723 8.41381836 6.01098633 C8.9578833 6.70861084 9.50194824 7.40623535 10.0625 8.125 C10.63685791 8.85291748 11.21121582 9.58083496 11.80297852 10.33081055 C12.98348173 11.83452932 14.1588498 13.34229335 15.32910156 14.85400391 C16.79752401 16.73995266 18.29429004 18.5969371 19.8046875 20.44921875 C32.7029931 36.67427967 41.82865417 56.31665488 48 76 C48.76728206 78.04871726 49.55304938 80.08832363 50.35791016 82.12255859 C52.47647764 88.31715325 52.1377624 95.26707337 52.25 101.75 C52.27151123 102.483396 52.29302246 103.21679199 52.31518555 103.97241211 C52.34272196 108.52007626 51.84446928 111.41118361 49 115 C45.42574095 117.38283937 43.11989157 117.81492361 39 117 C24.63236298 111.58344675 11.40734223 97.58148371 4.55078125 84.1640625 C-6.87950534 56.68810546 -9.67976725 28.2108532 0 0 Z " fill="#68B19A" transform="translate(441,471)"/>
<path d="M0 0 C1.27005624 1.03844278 2.5214876 2.10022656 3.75 3.1875 C4.56404297 3.88359375 4.56404297 3.88359375 5.39453125 4.59375 C7.35437401 6.53739571 8.71733864 8.26324292 8.81713867 11.08740234 C8.02719975 17.20573603 6.65674389 23.06070996 5 29 C4.59575806 30.45792969 4.59575806 30.45792969 4.18334961 31.9453125 C1.10443453 42.79733051 -3.35721223 52.46357992 -8.46875 62.49609375 C-11.46470762 68.55206729 -13.83895273 74.88168408 -16.25 81.1875 C-20.25 81.1875 -20.25 81.1875 -22.29296875 79.46484375 C-23.00066406 78.69269531 -23.70835937 77.92054688 -24.4375 77.125 C-27.41477615 74.00130043 -30.35578789 71.20856338 -33.8125 68.625 C-44.37621207 60.60099571 -51.98481613 51.23900061 -55.25 38.1875 C-55.65666955 35.02733181 -55.72930809 31.93357295 -55.6875 28.75 C-55.67775146 27.91670166 -55.66800293 27.08340332 -55.65795898 26.22485352 C-55.34579867 15.39659437 -51.88583254 9.24684551 -44.56640625 1.31640625 C-32.98509059 -9.32746733 -12.45384177 -8.80317943 0 0 Z " fill="#66B099" transform="translate(430.25,449.8125)"/>
<path d="M0 0 C3.39625063 0.53516049 6.66233867 0.6977031 10.09863281 0.78613281 C11.38318359 0.82351563 12.66773438 0.86089844 13.99121094 0.89941406 C16.01681406 0.95329832 18.04245238 1.00554116 20.06811523 1.05712891 C22.03672852 1.10867938 24.00518649 1.16605849 25.97363281 1.22363281 C27.14514893 1.25392578 28.31666504 1.28421875 29.52368164 1.31542969 C32.20410156 1.50488281 32.20410156 1.50488281 33.20410156 2.50488281 C33.83020113 5.63538067 33.60153916 7.75635194 32.09863281 10.58691406 C23.1595683 23.18989143 6.05820217 32.38210328 -9.00463867 35.13598633 C-14.31229164 35.83745258 -19.63649821 35.89692162 -24.98339844 36.00488281 C-32.36800591 36.20722126 -39.61523719 36.44283 -46.92089844 37.56738281 C-57.13984752 39.12320897 -69.47227245 40.7045973 -78.79589844 35.50488281 C-81.85839844 33.06738281 -81.85839844 33.06738281 -83.79589844 30.50488281 C-83.58769596 28.00006084 -83.22344878 26.88236289 -81.32617188 25.20727539 C-75.69436895 21.92253421 -69.93699558 18.98484464 -64.04589844 16.19238281 C-63.04381348 15.71671875 -62.04172852 15.24105469 -61.00927734 14.75097656 C-21.47588004 -3.80309856 -21.47588004 -3.80309856 0 0 Z " fill="#67AF99" transform="translate(1130.7958984375,571.4951171875)"/>
<path d="M0 0 C1.76017456 -0.00084595 1.76017456 -0.00084595 3.5559082 -0.00170898 C12.08252404 0.10514376 19.89793195 1.14981499 28.10546875 3.40234375 C35.28553588 5.25502429 42.49974684 5.59196203 49.875 5.9375 C50.74511719 5.98068359 51.61523438 6.02386719 52.51171875 6.06835938 C54.63268219 6.17324218 56.75382433 6.27450075 58.875 6.375 C58.81640625 8.62890625 58.81640625 8.62890625 57.875 11.375 C55.49264503 12.96630274 53.39082366 14.13669576 50.8125 15.3125 C50.08861084 15.65458496 49.36472168 15.99666992 48.61889648 16.34912109 C46.38289642 17.387238 44.13389293 18.38779868 41.875 19.375 C41.24110352 19.65520996 40.60720703 19.93541992 39.95410156 20.22412109 C23.51885949 27.33137189 3.87250418 33.38392739 -14.125 31.375 C-15.33800781 31.23964844 -16.55101562 31.10429688 -17.80078125 30.96484375 C-30.97962443 28.89837924 -44.87810911 23.3026984 -53.125 12.375 C-55.61984952 8.39883357 -56.24896918 5.98510383 -56.125 1.375 C-55.22273682 1.48001831 -55.22273682 1.48001831 -54.30224609 1.5871582 C-48.10125384 2.26425052 -41.98578395 2.55784643 -35.75 2.5625 C-34.8940625 2.57474609 -34.038125 2.58699219 -33.15625 2.59960938 C-28.40524314 2.61024596 -23.95783165 2.24218162 -19.28125 1.38671875 C-12.83215981 0.22729102 -6.54321232 -0.00802964 0 0 Z " fill="#4D6BC4" transform="translate(1103.125,611.625)"/>
<path d="M0 0 C1.9453125 1.05859375 1.9453125 1.05859375 3.140625 3.6484375 C3.44742187 4.75316406 3.75421875 5.85789062 4.0703125 6.99609375 C4.40289062 8.18203125 4.73546875 9.36796875 5.078125 10.58984375 C5.97725042 14.18634542 6.71803662 17.77938411 7.3984375 21.421875 C9.10750285 29.6620115 11.70185445 37.60464444 14.7578125 45.43359375 C18.90072919 56.05996703 21.9235064 67.06980199 24.9453125 78.05859375 C25.13754395 78.74308594 25.32977539 79.42757812 25.52783203 80.1328125 C26.25367576 83.48103198 26.04697052 86.89883343 26.0078125 90.30859375 C26.00330078 91.05367187 25.99878906 91.79875 25.99414062 92.56640625 C25.98240496 94.39717015 25.964471 96.22789248 25.9453125 98.05859375 C18.65035061 96.72935991 14.56786797 89.74267141 10.5078125 84.05859375 C-1.5331731 66.4215633 -9.40214165 47.73081565 -9.4296875 26.12109375 C-9.45417969 25.11369141 -9.47867187 24.10628906 -9.50390625 23.06835938 C-9.53318548 15.48015801 -8.5909722 7.29388483 -3.54785156 1.25390625 C-2.0546875 0.05859375 -2.0546875 0.05859375 0 0 Z " fill="#4B6AC2" transform="translate(428.0546875,513.94140625)"/>
<path d="M0 0 C2.54927947 4.82802316 3.36058612 8.70434276 2 14 C0.71678004 28.96676958 2.33843141 44.17610637 7.15625 58.41796875 C8.04998952 61.15297718 8.01798446 62.35324041 7 65 C6.34 63.35 5.68 61.7 5 60 C4.01 60 3.02 60 2 60 C-0.2465539 56.27188254 -0.79902891 52.28758398 -1.5 48.0625 C-2.25999666 43.50669587 -3.07715071 39.23524133 -5 35 C-6.91466367 35.12177688 -6.91466367 35.12177688 -9 36 C-16.76886586 46.15928612 -15.13850852 62.45848948 -13.71142578 74.41845703 C-11.82898247 85.53371627 -7.01044675 95.97910651 -2 106 C-1.86584528 108.6723621 -1.95681459 111.32250488 -2 114 C-5.61388003 110.58689108 -8.30568739 107.16393767 -11 103 C-11.87162861 101.89317002 -12.74701036 100.78929092 -13.625 99.6875 C-23.38796246 86.7528137 -31.8886612 71.42169319 -35.4140625 55.578125 C-35.97819855 52.86616601 -35.97819855 52.86616601 -37.125 49.8125 C-38.33325099 45.92883611 -38.65877396 42.04083467 -39 38 C-35.88103324 39.40631983 -33.54597146 41.09754896 -31 43.375 C-30.30648438 43.99246094 -29.61296875 44.60992188 -28.8984375 45.24609375 C-27.43287966 46.6000762 -26.01743308 48.00842394 -24.625 49.4375 C-23.13544499 51.23103624 -23.13544499 51.23103624 -21 51 C-20.72849121 50.33057373 -20.45698242 49.66114746 -20.17724609 48.97143555 C-18.91651308 45.87402314 -17.64581548 42.78078868 -16.375 39.6875 C-15.94832031 38.63498047 -15.52164062 37.58246094 -15.08203125 36.49804688 C-12.91579159 31.2441074 -10.63554204 26.20347119 -7.84375 21.25 C-5.29701418 16.71129136 -3.52733903 12.31193468 -2.125 7.3125 C-1.91359375 6.59900391 -1.7021875 5.88550781 -1.484375 5.15039062 C-0.9783677 3.43686592 -0.48741842 1.71890477 0 0 Z " fill="#283149" transform="translate(434,480)"/>
<path d="M0 0 C-0.47205832 5.79208067 -2.1173439 9.72009666 -5.0625 14.6875 C-5.66976929 15.73514526 -5.66976929 15.73514526 -6.28930664 16.80395508 C-17.43670006 35.83444367 -30.81706149 55.12718292 -49.5625 67.375 C-50.41956543 67.93815918 -50.41956543 67.93815918 -51.29394531 68.51269531 C-54.65036404 70.57190893 -57.06384723 71.42513382 -61 71 C-61.38480169 64.71024151 -60.50190843 60.72211104 -57.5625 55.1875 C-57.20414063 54.49462891 -56.84578125 53.80175781 -56.4765625 53.08789062 C-50.12560046 41.23202897 -40.58361919 31.8619876 -30.4609375 23.1796875 C-27.76948599 20.79583045 -25.15782093 18.33886671 -22.54443359 15.87011719 C-5.72542428 0 -5.72542428 0 0 0 Z " fill="#30478A" transform="translate(1042,677)"/>
<path d="M0 0 C-2.83338819 3.09341171 -5.45177346 4.95951357 -9.2265625 6.76953125 C-10.76086914 7.50913086 -10.76086914 7.50913086 -12.32617188 8.26367188 C-13.41478516 8.77478516 -14.50339844 9.28589844 -15.625 9.8125 C-16.74712891 10.34294922 -17.86925781 10.87339844 -19.02539062 11.41992188 C-44.60852103 23.38598915 -75.22425313 34.41250979 -103.66796875 25.8671875 C-106.60425599 24.77530179 -109.2937616 23.57863907 -112 22 C-112 21.34 -112 20.68 -112 20 C-110.90945313 19.90203125 -109.81890625 19.8040625 -108.6953125 19.703125 C-93.21647204 18.2101452 -77.08693557 16.44744388 -63.73046875 7.91015625 C-57.44142672 4.77724399 -50.30168329 5.43194324 -43.4375 5.4375 C-31.94107779 5.41719547 -20.13952256 5.30952499 -9.31420898 0.90795898 C-6.16625672 -0.32711164 -3.34568146 -0.13120319 0 0 Z " fill="#4C6AC3" transform="translate(1134,641)"/>
<path d="M0 0 C3.70671886 1.23557295 3.88274832 2.14905706 5.6875 5.5 C11.57107155 15.55348148 18.68293188 21.45795053 28.34375 27.625 C32.7867281 30.46740214 36.92027318 33.66103659 41 37 C40.67 37.99 40.34 38.98 40 40 C33.84765625 40.87890625 33.84765625 40.87890625 32 41 C31.67 40.67 31.34 40.34 31 40 C28.54190002 39.7499227 28.54190002 39.7499227 26 40 C23.77810176 42.22189824 23.07401108 44.08482708 22 47 C11.97961183 48.15619864 4.01916942 42.44469191 -4.109375 37.16796875 C-7.28936857 35.20346859 -10.63499181 33.62241466 -14 32 C-13.47291961 27.56773313 -11.86798955 25.15893916 -9.125 21.6875 C-3.98118898 14.83520889 -1.92114004 8.27568018 0 0 Z " fill="#040C1B" transform="translate(1155,499)"/>
<path d="M0 0 C3.65807392 1.96881702 5.56628871 3.28888619 7.90234375 6.79296875 C8.40145904 10.53633341 8.00000344 12.57217292 6.46484375 16.04296875 C3.00913534 19.75153388 -0.19646324 20.18555594 -5.09765625 20.79296875 C-4.76765625 19.47296875 -4.43765625 18.15296875 -4.09765625 16.79296875 C-4.47277344 17.29828125 -4.84789062 17.80359375 -5.234375 18.32421875 C-9.46643841 23.69691386 -9.46643841 23.69691386 -12.97265625 24.23046875 C-13.67390625 24.08609375 -14.37515625 23.94171875 -15.09765625 23.79296875 C-14.55965416 18.80697758 -12.98021096 15.2746117 -10.53515625 10.91796875 C-9.57416016 9.18933594 -9.57416016 9.18933594 -8.59375 7.42578125 C-8.10003906 6.55695312 -7.60632812 5.688125 -7.09765625 4.79296875 C-7.75765625 4.79296875 -8.41765625 4.79296875 -9.09765625 4.79296875 C-9.195625 5.49164062 -9.29359375 6.1903125 -9.39453125 6.91015625 C-10.22485274 10.31447437 -11.5987482 12.88399347 -13.34765625 15.91796875 C-13.9303125 16.95179688 -14.51296875 17.985625 -15.11328125 19.05078125 C-17.22535276 21.96943125 -18.84750699 23.29210364 -22.09765625 24.79296875 C-23.08765625 24.79296875 -24.07765625 24.79296875 -25.09765625 24.79296875 C-24.52756032 20.03014197 -23.13143886 16.34456049 -21.03515625 12.04296875 C-18.88861971 8.08521548 -18.88861971 8.08521548 -18.09765625 3.79296875 C-19.24509956 6.39643672 -20.39067093 9.0007008 -21.53515625 11.60546875 C-21.86064453 12.34345703 -22.18613281 13.08144531 -22.52148438 13.84179688 C-22.99038086 14.91010742 -22.99038086 14.91010742 -23.46875 16 C-23.7567749 16.65460205 -24.0447998 17.3092041 -24.34155273 17.98364258 C-24.99959609 19.55831462 -25.55796994 21.17390983 -26.09765625 22.79296875 C-27.74765625 22.46296875 -29.39765625 22.13296875 -31.09765625 21.79296875 C-31.50902254 13.91606618 -30.53382425 7.28998576 -28.09765625 -0.20703125 C-29.41765625 -0.20703125 -30.73765625 -0.20703125 -32.09765625 -0.20703125 C-32.09765625 -1.19703125 -32.09765625 -2.18703125 -32.09765625 -3.20703125 C-22.74774361 -6.3236688 -9.01190516 -3.51157465 0 0 Z " fill="#2C3346" transform="translate(1221.09765625,543.20703125)"/>
<path d="M0 0 C0.66 0 1.32 0 2 0 C2.92915003 3.79214078 3.12997923 7.40248677 3.23852539 11.28100586 C3.70101837 25.93577517 7.74589578 36.21551157 17.9453125 47.0703125 C23.01902829 51.81536654 29.15872576 56.2672666 36.16796875 57.328125 C40.60725131 57.1563926 42.8677767 55.5195073 46 52.4375 C47.01826258 51.30786495 48.02488839 50.16708671 49 49 C49.99 49.495 49.99 49.495 51 50 C50.05125 50.886875 49.1025 51.77375 48.125 52.6875 C43.75696766 57.67365013 43.55688443 63.61503201 43 70 C43.57105469 69.95359375 44.14210938 69.9071875 44.73046875 69.859375 C54.11479167 69.4416309 63.44660026 71.24741196 70.5625 77.6875 C71.14128906 78.28949219 71.72007813 78.89148438 72.31640625 79.51171875 C74.20149569 81.17812032 75.54465245 81.59704362 78 82 C78.495 80.515 78.495 80.515 79 79 C79.33 79.66 79.66 80.32 80 81 C79.22265625 82.7265625 79.22265625 82.7265625 78.0625 84.625 C77.381875 85.73875 76.70125 86.8525 76 88 C74.515 87.505 74.515 87.505 73 87 C72.443125 85.39125 72.443125 85.39125 71.875 83.75 C70.17775857 79.50608539 67.63788546 78.19858414 63.69628906 76.12841797 C58.93376381 74.13526407 54.02129784 73.42841943 48.9375 72.6875 C47.88111328 72.51927734 46.82472656 72.35105469 45.73632812 72.17773438 C43.1595427 71.76964618 40.58141738 71.37746386 38 71 C37.80796997 70.05858154 37.80796997 70.05858154 37.61206055 69.09814453 C36.75828846 66.17141247 35.34685511 65.52047037 32.8125 63.875 C31.91402344 63.27171875 31.01554687 62.6684375 30.08984375 62.046875 C29.07019531 61.37140625 28.05054688 60.6959375 27 60 C18.66200275 54.40492124 11.17170648 49.04832815 5 41 C4.45263184 40.32018066 3.90526367 39.64036133 3.34130859 38.93994141 C-2.14521058 31.19456881 -1.51149333 23.87270115 -0.875 14.875 C-0.79651486 13.42724099 -0.72097166 11.97931936 -0.6484375 10.53125 C-0.46614518 7.01831109 -0.24423756 3.50924104 0 0 Z " fill="#192132" transform="translate(1157,468)"/>
<path d="M0 0 C6.69631054 2.9634736 12.19654059 6.48011519 17.7734375 11.23046875 C19.79346887 12.8358621 21.65259026 13.95492032 24 15 C23.01 15.33 22.02 15.66 21 16 C21.39832031 16.7734375 21.79664063 17.546875 22.20703125 18.34375 C27.40306739 28.55882834 30.91256317 37.18883323 31.17578125 48.72265625 C31.19962891 49.75583984 31.22347656 50.78902344 31.24804688 51.85351562 C31.29108998 53.99654038 31.32229989 56.13983482 31.34179688 58.28320312 C31.50725019 64.44345318 31.96664093 68.0778081 36 73 C36.85827282 74.68580153 37.67288855 76.39470281 38.4375 78.125 C38.85257813 79.06214844 39.26765625 79.99929688 39.6953125 80.96484375 C41.84173137 85.95815951 43.9376651 90.9714132 46 96 C47.97536745 95.65213292 47.97536745 95.65213292 50 95 C50.33 94.34 50.66 93.68 51 93 C51.55171875 93.29648437 52.1034375 93.59296875 52.671875 93.8984375 C55.16123288 95.07628804 57.6060884 95.85965717 60.25 96.625 C61.8175 97.07875 63.385 97.5325 65 98 C62.525 103.445 62.525 103.445 60 109 C58.700625 108.690625 57.40125 108.38125 56.0625 108.0625 C51.99834007 107.14935014 47.99481729 106.60449038 43.84765625 106.24609375 C42 106 42 106 40 105 C40 104.34 40 103.68 40 103 C40.66 103 41.32 103 42 103 C38.66027221 88.08361965 33.60989647 76.48277787 25.625 63.5 C21.91482004 57.40038348 20.70796565 52.15484164 21 45 C22.54078615 47.98440561 23.86973276 51.01007758 25.125 54.125 C25.47820312 54.99382812 25.83140625 55.86265625 26.1953125 56.7578125 C27 59 27 59 27 61 C27.66 61 28.32 61 29 61 C29.84356262 43.16802343 26.17358356 26.77909842 15.01953125 12.45703125 C10.65972557 7.81875495 5.71075976 4.74962507 0 2 C0 1.34 0 0.68 0 0 Z " fill="#171F30" transform="translate(1081,422)"/>
<path d="M0 0 C6.85975969 2.86862678 12.42251696 9.80666963 15.25 16.5625 C15.87342384 18.36160443 16.45067283 20.17690546 17 22 C17.1954541 22.64453125 17.3909082 23.2890625 17.59228516 23.953125 C18.70127658 27.62796883 19.78086753 31.31045116 20.83984375 35 C22.31938339 40.13957918 23.89547938 45.23869844 25.8828125 50.20703125 C28.09090909 55.72727273 28.09090909 55.72727273 27 59 C16.00192399 45.39711651 6.40771006 28.72548357 2.58984375 11.6015625 C2.00220588 8.81140735 2.00220588 8.81140735 0.8125 5.4375 C0 3 0 3 0 0 Z " fill="#364E92" transform="translate(396,524)"/>
<path d="M0 0 C2.54927947 4.82802316 3.36058612 8.70434276 2 14 C0.71678004 28.96676958 2.33843141 44.17610637 7.15625 58.41796875 C8.04998952 61.15297718 8.01798446 62.35324041 7 65 C6.34 63.35 5.68 61.7 5 60 C4.01 60 3.02 60 2 60 C-0.2465539 56.27188254 -0.79902891 52.28758398 -1.5 48.0625 C-2.25999666 43.50669587 -3.07715071 39.23524133 -5 35 C-6.91466367 35.12177688 -6.91466367 35.12177688 -9 36 C-10.01187895 37.65948148 -11.0126546 39.32580562 -12 41 C-12.99 41 -13.98 41 -15 41 C-15.33 40.34 -15.66 39.68 -16 39 C-15.21525537 36.77852366 -14.32018784 34.5956013 -13.375 32.4375 C-12.95939819 31.48206299 -12.95939819 31.48206299 -12.53540039 30.50732422 C-11.0196176 27.08128149 -9.38189604 23.82424588 -7.4375 20.625 C-3.72391697 14.29502893 -2.02022974 7.00632868 0 0 Z " fill="#2F3A4A" transform="translate(434,480)"/>
<path d="M0 0 C2.5625 0.25 2.5625 0.25 5.5625 2.25 C5.5625 3.24 5.5625 4.23 5.5625 5.25 C6.8825 5.25 8.2025 5.25 9.5625 5.25 C8.64502427 10.88592233 8.64502427 10.88592233 8.03125 13.59375 C7.52326323 16.47234171 7.46481142 19.14184758 7.5 22.0625 C7.50902344 23.03832031 7.51804687 24.01414062 7.52734375 25.01953125 C7.53894531 25.75558594 7.55054688 26.49164062 7.5625 27.25 C8.8825 27.58 10.2025 27.91 11.5625 28.25 C11.65402344 27.41210938 11.74554687 26.57421875 11.83984375 25.7109375 C12.67054213 21.7325658 14.24714343 18.4373497 16.125 14.875 C16.45435547 14.23433594 16.78371094 13.59367188 17.12304688 12.93359375 C17.92889482 11.36861368 18.74468493 9.80875979 19.5625 8.25 C20.79676223 11.95278669 19.85413786 13.25960628 18.2109375 16.65039062 C17.87320312 17.32263672 17.53546875 17.99488281 17.1875 18.6875 C14.40047754 24.28940958 14.40047754 24.28940958 12.5625 30.25 C18.75970236 28.20927477 21.02630026 26.00168208 23.9375 20.25 C24.27910156 19.6209375 24.62070313 18.991875 24.97265625 18.34375 C26.39885753 15.68301085 27.60663831 13.11758507 28.5625 10.25 C29.2225 10.25 29.8825 10.25 30.5625 10.25 C29.22867336 14.97902173 27.16605296 18.90274425 24.68359375 23.1015625 C23.60725736 25.16422806 23.01986808 26.97857651 22.5625 29.25 C28.27242843 28.16239459 30.30680808 25.47486888 33.4609375 20.9296875 C33.82445312 20.37539063 34.18796875 19.82109375 34.5625 19.25 C35.0575 20.24 35.0575 20.24 35.5625 21.25 C34.125 23.875 34.125 23.875 32.5625 26.25 C39.92643782 24.22817548 39.92643782 24.22817548 45.5625 19.25 C44.3763429 22.6259856 43.40093108 25.01889089 40.5625 27.25 C38.22265625 27.65625 38.22265625 27.65625 35.625 27.75 C31.47130708 27.90035992 29.82620608 28.76774467 26.5625 31.25 C24.4921875 31.5078125 24.4921875 31.5078125 22.4375 31.375 C18.76796712 30.9490087 18.76796712 30.9490087 16.5625 32.25 C14.46875 32.19921875 14.46875 32.19921875 12.0625 31.9375 C10.87140625 31.81955078 10.87140625 31.81955078 9.65625 31.69921875 C7.5625 31.25 7.5625 31.25 5.5625 29.25 C4.23215537 25.6580695 4.48970577 22.03529987 4.5625 18.25 C3.9025 18.25 3.2425 18.25 2.5625 18.25 C2.8925 16.6 3.2225 14.95 3.5625 13.25 C2.88703125 13.05664062 2.2115625 12.86328125 1.515625 12.6640625 C0.62359375 12.40367187 -0.2684375 12.14328125 -1.1875 11.875 C-2.06921875 11.61976563 -2.9509375 11.36453125 -3.859375 11.1015625 C-6.19830572 10.3290066 -8.27192562 9.41374324 -10.4375 8.25 C-9.81875 8.188125 -9.2 8.12625 -8.5625 8.0625 C-6.1784707 7.43447843 -6.1784707 7.43447843 -5.3125 4.8125 C-4.879375 3.5440625 -4.879375 3.5440625 -4.4375 2.25 C-2.4375 0.25 -2.4375 0.25 0 0 Z " fill="#1C2334" transform="translate(1183.4375,537.75)"/>
<path d="M0 0 C0.495 1.485 0.495 1.485 1 3 C3.97 2.505 3.97 2.505 7 2 C-7.23978654 13.07538953 -28.1698388 17.32895611 -46 16 C-44.52758177 18.94483646 -42.17358689 19.27708447 -39.2109375 20.3359375 C-36.14187275 21.2577414 -33.18453969 21.66827712 -30 22 C-30 22.33 -30 22.66 -30 23 C-42.09447502 23.967558 -55.46059431 18.78664295 -66 13 C-66.33 12.01 -66.66 11.02 -67 10 C-65.10314453 10.48146484 -65.10314453 10.48146484 -63.16796875 10.97265625 C-44.01845556 15.19115389 -21.18856402 12.01819888 -3.828125 2.91796875 C-2 2 -2 2 0 2 C0 1.34 0 0.68 0 0 Z " fill="#303B4E" transform="translate(1068,645)"/>
<path d="M0 0 C0.556875 0.721875 1.11375 1.44375 1.6875 2.1875 C8.13118732 10.02441701 14.58507493 14.23388581 24.1875 17.125 C25.02450439 17.38361816 25.86150879 17.64223633 26.72387695 17.90869141 C32.74619366 19.72813299 38.75252553 21.18572243 45 22 C41.46813168 24.15059309 38.33712007 24.3797728 34.25 24.625 C33.07953125 24.69976562 31.9090625 24.77453125 30.703125 24.8515625 C29.81109375 24.90054687 28.9190625 24.94953125 28 25 C27.34 27.97 26.68 30.94 26 34 C25.67 32.68 25.34 31.36 25 30 C23.13790704 28.89327398 23.13790704 28.89327398 21 28 C18.38972083 25.826603 16.02314388 23.4037271 13.625 21 C12.9539624 20.32807617 12.2829248 19.65615234 11.59155273 18.96386719 C0 7.09270923 0 7.09270923 0 0 Z " fill="#1D2436" transform="translate(1108,389)"/>
<path d="M0 0 C3.42448877 1.3269894 6.70264333 2.82400688 10 4.4375 C19.21432594 8.64161372 28.94234038 10.3415979 39 11 C35.11061874 13.59292084 32.07344197 13.41309737 27.49609375 13.65625 C24.82994697 13.76736868 24.82994697 13.76736868 23 16 C22.6936141 18.73434962 22.4886664 21.38279821 22.375 24.125 C22.33632813 24.87910156 22.29765625 25.63320313 22.2578125 26.41015625 C22.16348969 28.27303184 22.08065338 30.13648255 22 32 C21.67 32 21.34 32 21 32 C20.97421875 31.15695312 20.9484375 30.31390625 20.921875 29.4453125 C20.86515625 28.34960938 20.8084375 27.25390625 20.75 26.125 C20.70359375 25.03445313 20.6571875 23.94390625 20.609375 22.8203125 C20.40828125 21.88960937 20.2071875 20.95890625 20 20 C18.2705291 18.88325313 18.2705291 18.88325313 16 18 C13.93094527 16.12210793 11.95751344 14.23658542 10 12.25 C9.47921875 11.73695313 8.9584375 11.22390625 8.421875 10.6953125 C5.10931765 7.36602506 2.48298958 3.98710826 0 0 Z " fill="#1C2335" transform="translate(427,234)"/>
<path d="M0 0 C5.69322846 2.73135255 12.10953076 1.96301078 18.33007812 1.96679688 C24.83644042 2.08450399 28.85045895 2.71145925 34.18359375 6.52734375 C33.19359375 7.18734375 32.20359375 7.84734375 31.18359375 8.52734375 C29.72953125 7.53734375 29.72953125 7.53734375 28.24609375 6.52734375 C23.97170986 4.05866897 20.0190512 3.92660464 15.18359375 4.52734375 C14.52359375 4.85734375 13.86359375 5.18734375 13.18359375 5.52734375 C10.54559212 5.6542275 7.94703263 5.71740341 5.30859375 5.71484375 C4.53990967 5.71476318 3.77122559 5.71468262 2.97924805 5.71459961 C-2.42381664 5.66101456 -7.51377052 5.08372643 -12.8203125 4.03125 C-17.51262268 3.24206093 -22.23171887 3.08075158 -26.98046875 2.87109375 C-29.81640625 2.52734375 -29.81640625 2.52734375 -31.81640625 0.52734375 C-28.67135932 0.1863091 -25.52527208 -0.14403088 -22.37890625 -0.47265625 C-21.06116211 -0.61574219 -21.06116211 -0.61574219 -19.71679688 -0.76171875 C-4.46958182 -2.33707676 -4.46958182 -2.33707676 0 0 Z " fill="#161D2E" transform="translate(1192.81640625,570.47265625)"/>
<path d="M0 0 C12.67677664 0.58688781 21.15116684 7.568197 31 15 C29.75823305 15.70226141 28.50614401 16.38629109 27.25 17.0625 C26.55390625 17.44535156 25.8578125 17.82820312 25.140625 18.22265625 C22.63859372 19.1312406 21.4667645 18.88336837 19 18 C19.33 17.01 19.66 16.02 20 15 C13.66848117 9.56791188 7.50858599 4.68940398 0 1 C0 0.67 0 0.34 0 0 Z " fill="#202C3C" transform="translate(1031,576)"/>
<path d="M0 0 C5.53697296 4.44539829 6.63704011 13.69515473 7.37109375 20.37890625 C7.4949252 22.39811699 7.61375137 24.41764359 7.7265625 26.4375 C8.08304682 29.77826737 9.23018542 32.16829667 11 35 C11.66 36.32 12.32 37.64 13 39 C10.03 37.02 7.06 35.04 4 33 C3.01 33.66 2.02 34.32 1 35 C1.144375 34.39414062 1.28875 33.78828125 1.4375 33.1640625 C4.04060969 21.41391458 2.58963974 11.56089168 0 0 Z " fill="#1A2133" transform="translate(457,303)"/>
<path d="M0 0 C0.66 0.99 1.32 1.98 2 3 C1.2575 3.38414062 0.515 3.76828125 -0.25 4.1640625 C-3.36523989 6.24383913 -4.90259192 8.28808891 -7 11.375 C-15.1883243 23.02643137 -15.1883243 23.02643137 -22.0078125 24.40625 C-28.7059108 24.70284476 -33.91124961 22.36633906 -39 18 C-39 15 -39 15 -37 13 C-36.1646875 14.1446875 -36.1646875 14.1446875 -35.3125 15.3125 C-32.45519024 18.63315729 -30.31098473 20.5647863 -25.92578125 21.390625 C-21.60507611 21.71339414 -18.74074827 21.29901747 -15.3125 18.5625 C-12.09779015 15.42964619 -9.73795308 11.83844981 -7.34765625 8.05859375 C-5.80744127 5.70585957 -4.17567756 3.78716371 -2 2 C-1.34 2 -0.68 2 0 2 C0 1.34 0 0.68 0 0 Z " fill="#192132" transform="translate(532,738)"/>
<path d="M0 0 C2.15305957 3.85756507 3.39253254 6.55129785 3 11 C1.54119891 10.85892253 0.08296449 10.71197585 -1.375 10.5625 C-2.59316406 10.44068359 -2.59316406 10.44068359 -3.8359375 10.31640625 C-6 10 -6 10 -8 9 C-8.36190476 3.57142857 -8.36190476 3.57142857 -6.8125 1.125 C-4.43963721 -0.34781139 -2.74086056 -0.22223194 0 0 Z " fill="#272E40" transform="translate(1186,538)"/>
<path d="M0 0 C3.92039102 1.36757826 5.44702565 3.51089217 7.6875 6.9375 C7.6875 9.6875 7.6875 9.6875 6.6875 11.9375 C3.6875 13.9375 3.6875 13.9375 0.6875 13.9375 C0.04059078 12.3337669 -0.60498764 10.72949694 -1.25 9.125 C-1.60964844 8.23167969 -1.96929688 7.33835937 -2.33984375 6.41796875 C-3.04863486 4.6104091 -3.6985247 2.77942591 -4.3125 0.9375 C-2.3125 -0.0625 -2.3125 -0.0625 0 0 Z " fill="#12192A" transform="translate(562.3125,480.0625)"/>
<path d="M0 0 C0.87398438 0.38091797 0.87398438 0.38091797 1.765625 0.76953125 C9.74286272 4.11846595 17.77611906 6.25982888 26.28515625 7.78125 C27.01460449 7.91200928 27.74405273 8.04276855 28.49560547 8.17749023 C29.93963359 8.43113607 31.38529544 8.67567534 32.83251953 8.91040039 C34.56727671 9.20959178 36.28628876 9.59739379 38 10 C38.495 10.99 38.495 10.99 39 12 C35.66540534 11.67729729 32.33280376 11.34055056 29 11 C28.28730957 10.93022949 27.57461914 10.86045898 26.84033203 10.78857422 C24.45526595 10.55380596 22.07140615 10.30874541 19.6875 10.0625 C18.52275146 9.95059326 18.52275146 9.95059326 17.33447266 9.83642578 C9.50402457 9.00923003 4.63799765 6.63799765 -1 1 C-0.67 0.67 -0.34 0.34 0 0 Z " fill="#182031" transform="translate(396,263)"/>
<path d="M0 0 C0.33 0.66 0.66 1.32 1 2 C-0.13725733 4.6626263 -1.3354431 7.22468626 -2.625 9.8125 C-5.71838642 16.17663509 -8.47860886 22.51328001 -10.89453125 29.16796875 C-12.08506873 32.21793226 -13.49697855 35.0930101 -15 38 C-17.03898109 32.22516764 -14.29169191 26.38015988 -12 21 C-8.43931971 13.78433691 -4.46400747 6.6960112 0 0 Z " fill="#192032" transform="translate(1190,656)"/>
<path d="M0 0 C0.495 0.99 0.495 0.99 1 2 C0.51273438 2.23332031 0.02546875 2.46664062 -0.4765625 2.70703125 C-6.58685305 5.85105348 -11.76329305 9.80508575 -17.03759766 14.1652832 C-21.52577739 17.82469055 -25.3133937 20.32835954 -31.3125 20.125 C-32.529375 20.08375 -33.74625 20.0425 -35 20 C-34.67 19.34 -34.34 18.68 -34 18 C-32.28515625 17.578125 -32.28515625 17.578125 -30.0625 17.25 C-21.58730979 15.51184493 -15.50107596 10.76354137 -9.73828125 4.546875 C-6.83128796 1.9599776 -3.69475573 1.10194469 0 0 Z " fill="#161E2F" transform="translate(1199,737)"/>

<path d="M0 0 C0.66 0 1.32 0 2 0 C1.67515625 0.76570312 1.67515625 0.76570312 1.34375 1.546875 C-1.51929561 9.02260521 -2.77912952 16.92282818 0.5 24.4375 C3.65048681 27.66674898 7.06130306 29.83945265 11 32 C8 33 8 33 6.0625 32.14453125 C-2.15254237 26.83898305 -2.15254237 26.83898305 -3.546875 22.16796875 C-5.25856658 13.97840989 -3.54115689 7.43010597 0 0 Z " fill="#141B2D" transform="translate(821,705)"/>
<path d="M0 0 C0.268125 0.598125 0.53625 1.19625 0.8125 1.8125 C2.71162349 5.31088537 4.20036361 6.73345454 8 8 C14.40040309 8.61068066 19.81944294 7.75441465 25.87109375 5.65625 C28 5 28 5 31 5 C31 5.66 31 6.32 31 7 C11.7617582 13.12996609 11.7617582 13.12996609 4.0625 9.375 C0.65100197 6.72934847 -0.14764799 5.16705425 -1 1 C-0.67 0.67 -0.34 0.34 0 0 Z " fill="#131B2D" transform="translate(267,732)"/>
<path d="M0 0 C3.11877737 2.99765433 5.5233878 6.40832761 8 9.9375 C8.87458863 11.17607183 9.74957841 12.41436051 10.625 13.65234375 C11.03363281 14.23097168 11.44226563 14.80959961 11.86328125 15.40576172 C13.21034641 17.29500903 14.5938192 19.1543877 16 21 C10.68582049 19.71567586 8.48130768 17.74133388 5.1875 13.4375 C4.03314453 11.95056641 4.03314453 11.95056641 2.85546875 10.43359375 C1.93701172 9.22896484 1.93701172 9.22896484 1 8 C0.67 7.67 0.34 7.34 0 7 C-0.04092937 4.66702567 -0.04241723 2.33294775 0 0 Z " fill="#343C5C" transform="translate(432,588)"/>

<path d="M0 0 C0.99 0.33 1.98 0.66 3 1 C2.41992188 1.80050781 2.41992188 1.80050781 1.828125 2.6171875 C-3.2916712 9.94204443 -6.31817165 17.50754356 -9 26 C-9.33 25.01 -9.66 24.02 -10 23 C-10.36351562 22.06414063 -10.36351562 22.06414063 -10.734375 21.109375 C-11.11734735 18.06812396 -9.93141901 16.76412175 -8.25 14.25 C-6.18985836 11.03102868 -4.50021008 8.0513885 -3.25 4.4375 C-2 1 -2 1 0 0 Z " fill="#2E3F4C" transform="translate(985,584)"/>
<path d="M0 0 C0.33 1.32 0.66 2.64 1 4 C0.34 4 -0.32 4 -1 4 C-1.10957031 5.24394531 -1.21914063 6.48789062 -1.33203125 7.76953125 C-3.15392812 27.31173108 -3.15392812 27.31173108 -6 34 C-6.99 34.495 -6.99 34.495 -8 35 C-7.38093536 30.99905825 -6.75367483 26.99944201 -6.125 23 C-5.95097656 21.87464844 -5.77695312 20.74929688 -5.59765625 19.58984375 C-2.97412109 2.97412109 -2.97412109 2.97412109 0 0 Z " fill="#1B2335" transform="translate(475,466)"/>
<path d="M0 0 C0.33 0 0.66 0 1 0 C1.433125 1.423125 1.433125 1.423125 1.875 2.875 C2.76825109 6.05211578 2.76825109 6.05211578 5 8 C4.34 8 3.68 8 3 8 C5.13206212 12.67239145 7.02502456 16.59287819 11 20 C10.67 20.66 10.34 21.32 10 22 C8.86874978 20.92319498 7.74525081 19.83824365 6.625 18.75 C5.99851562 18.14671875 5.37203125 17.5434375 4.7265625 16.921875 C3.02689839 15.0299412 2.01540134 13.31798691 1 11 C0.01 12.32 -0.98 13.64 -2 15 C-1.03644647 4.44191344 -1.03644647 4.44191344 0 0 Z " fill="#181F30" transform="translate(1132,425)"/>
<path d="M0 0 C1.90389849 2.85584773 2.69462177 4.9311762 3.625 8.1875 C3.88539063 9.08855469 4.14578125 9.98960937 4.4140625 10.91796875 C4.60742188 11.60503906 4.80078125 12.29210937 5 13 C4.01 12.67 3.02 12.34 2 12 C1.67 12.99 1.34 13.98 1 15 C-2.65284688 6.68306615 -2.65284688 6.68306615 -1 2 C-0.67 1.34 -0.34 0.68 0 0 Z " fill="#243055" transform="translate(421,562)"/>

<path d="M0 0 C4.31395349 8.01162791 4.31395349 8.01162791 3.625 12.375 C3.41875 12.91125 3.2125 13.4475 3 14 C2.34 12.35 1.68 10.7 1 9 C0.01 9 -0.98 9 -2 9 C-3.42944945 6.64561267 -4.08661261 5.51967567 -3.625 2.75 C-3.41875 2.1725 -3.2125 1.595 -3 1 C-2.67 1.66 -2.34 2.32 -2 3 C-1.34 2.01 -0.68 1.02 0 0 Z " fill="#364B60" transform="translate(438,531)"/>



<path d="M0 0 C0.66 0.33 1.32 0.66 2 1 C2 1.66 2 2.32 2 3 C2.20625 3.66 2.4125 4.32 2.625 5 C2.74875 5.66 2.8725 6.32 3 7 C2.34 7.66 1.68 8.32 1 9 C1 7.35 1 5.7 1 4 C0.38511719 4.22816406 -0.22976563 4.45632813 -0.86328125 4.69140625 C-1.67152344 4.97886719 -2.47976563 5.26632812 -3.3125 5.5625 C-4.51326172 5.99755859 -4.51326172 5.99755859 -5.73828125 6.44140625 C-8 7 -8 7 -11 6 C-9.21385682 4.96953278 -7.42089982 3.95086764 -5.625 2.9375 C-4.62726563 2.36902344 -3.62953125 1.80054688 -2.6015625 1.21484375 C-1.74304688 0.81394531 -0.88453125 0.41304688 0 0 Z " fill="#1C2335" transform="translate(383,326)"/>

<path d="M0 0 C0.33 0.66 0.66 1.32 1 2 C-0.19708952 4.29959419 -1.43273643 6.43979069 -2.8125 8.625 C-3.18181641 9.23601563 -3.55113281 9.84703125 -3.93164062 10.4765625 C-4.89355674 12.02391768 -5.94119645 13.51725736 -7 15 C-7.66 15 -8.32 15 -9 15 C-7.61219205 11.10993227 -5.7847773 8.03441292 -3.375 4.6875 C-2.74335937 3.80449219 -2.11171875 2.92148437 -1.4609375 2.01171875 C-0.97882812 1.34785156 -0.49671875 0.68398438 0 0 Z " fill="#141C2D" transform="translate(944,711)"/>
<path d="M0 0 C0 3.83764027 -1.26535335 5.11486085 -3.5 8.1875 C-4.1496875 9.08855469 -4.799375 9.98960937 -5.46875 10.91796875 C-5.9740625 11.60503906 -6.479375 12.29210937 -7 13 C-7.33 12.01 -7.66 11.02 -8 10 C-6.5625 7.3125 -6.5625 7.3125 -5 5 C-5.66 4.34 -6.32 3.68 -7 3 C-5.5459375 2.5359375 -5.5459375 2.5359375 -4.0625 2.0625 C-1.15934208 1.30476658 -1.15934208 1.30476658 0 0 Z " fill="#131B2B" transform="translate(1174,621)"/>







<path d="M0 0 C1.65 0 3.3 0 5 0 C4.01 1.485 4.01 1.485 3 3 C0.6171875 3.29296875 0.6171875 3.29296875 -2.125 3.1875 C-3.03507812 3.16042969 -3.94515625 3.13335937 -4.8828125 3.10546875 C-5.58148438 3.07066406 -6.28015625 3.03585937 -7 3 C-7 2.67 -7 2.34 -7 2 C-3.535 1.505 -3.535 1.505 0 1 C0 0.67 0 0.34 0 0 Z " fill="#1E2638" transform="translate(426,340)"/>
</svg>
