<?xml version="1.0" encoding="UTF-8"?>
<svg version="1.1" xmlns="http://www.w3.org/2000/svg"  >

<path d="M0 0 C6.96335904 5.5390356 11.69353083 11.63504776 14.578125 20.05078125 C14.86429688 20.83582031 15.15046875 21.62085938 15.4453125 22.4296875 C18.22911805 31.11250956 18.36154554 40.01219835 18.578125 49.05078125 C18.60003906 49.87835938 18.62195313 50.7059375 18.64453125 51.55859375 C18.85580194 60.65731817 18.83780597 69.18467188 16.578125 78.05078125 C16.28521415 79.84224493 15.99355787 81.63391417 15.703125 83.42578125 C14.92107067 87.37329358 14.02499346 89.68105918 10.578125 92.05078125 C9.918125 92.05078125 9.258125 92.05078125 8.578125 92.05078125 C8.578125 92.71078125 8.578125 93.37078125 8.578125 94.05078125 C7.60230469 94.06496094 6.62648438 94.07914062 5.62109375 94.09375 C3.71263672 94.16529297 3.71263672 94.16529297 1.765625 94.23828125 C-0.13123047 94.29048828 -0.13123047 94.29048828 -2.06640625 94.34375 C-5.53063334 94.72912887 -5.53063334 94.72912887 -7.43359375 97.2890625 C-8.5466483 100.39945604 -8.4000687 101.93834676 -7.421875 105.05078125 C-6.84332764 105.0350708 -6.26478027 105.01936035 -5.66870117 105.00317383 C11.68860362 104.59389304 23.83881647 106.22457556 38.578125 116.05078125 C44.05073637 117.47486398 49.58562694 117.2732782 55.203125 117.30078125 C56.74806641 117.33171875 56.74806641 117.33171875 58.32421875 117.36328125 C64.62614776 117.39498907 69.82950297 116.55481584 75.84130859 114.72753906 C80.5662144 113.55916806 85.23896612 113.69500729 90.078125 113.80078125 C91.53992188 113.80851562 91.53992188 113.80851562 93.03125 113.81640625 C100.10964286 113.89462054 100.10964286 113.89462054 103.578125 115.05078125 C112.11046899 115.99108038 120.68898896 116.15001152 129.265625 116.17578125 C130.12663818 116.18037354 130.98765137 116.18496582 131.87475586 116.18969727 C133.09497437 116.18667603 133.09497437 116.18667603 134.33984375 116.18359375 C135.06131592 116.18246582 135.78278809 116.18133789 136.52612305 116.18017578 C138.5606946 116.1223252 138.5606946 116.1223252 140.39112854 115.54978943 C142.86799465 114.98464153 145.08161989 114.93084058 147.62207031 114.93725586 C148.62280579 114.93733139 149.62354126 114.93740692 150.65460205 114.93748474 C152.26416779 114.94522667 152.26416779 114.94522667 153.90625 114.953125 C155.01039246 114.95453995 156.11453491 114.9559549 157.25213623 114.95741272 C160.77749342 114.96300867 164.30278702 114.97556046 167.828125 114.98828125 C170.21874908 114.99329677 172.60937416 114.99785959 175 115.00195312 C180.85939668 115.01297678 186.7187563 115.02971092 192.578125 115.05078125 C192.578125 115.71078125 192.578125 116.37078125 192.578125 117.05078125 C193.87105469 117.08816406 195.16398437 117.12554687 196.49609375 117.1640625 C210.17516802 117.64643471 224.11475487 118.81909619 236.578125 125.05078125 C236.390625 126.86328125 236.390625 126.86328125 235.578125 129.05078125 C231.78071422 132.06637217 228.29306058 132.4395859 223.578125 133.05078125 C222.093125 134.04078125 222.093125 134.04078125 220.578125 135.05078125 C218.03114261 135.34401935 215.51490978 135.4278508 212.953125 135.51171875 C209.87518218 136.21033077 209.31609028 137.51645724 207.578125 140.05078125 C204.890625 140.30078125 204.890625 140.30078125 202.578125 140.05078125 C202.248125 141.04078125 201.918125 142.03078125 201.578125 143.05078125 C198.40255628 144.63856561 195.0439829 144.33250505 191.578125 144.05078125 C190.65 143.72078125 189.721875 143.39078125 188.765625 143.05078125 C184.07375409 141.57882175 179.43968511 141.29794123 174.578125 142.05078125 C172.94617188 143.02144531 172.94617188 143.02144531 171.28125 144.01171875 C164.78210545 147.46942954 156.90254474 146.85160599 149.703125 147.05078125 C139.94130365 147.32211689 131.52193193 147.70647286 122.578125 152.05078125 C106.15932387 158.40346937 90.71171875 161.08611199 73.16625977 161.49511719 C66.84460138 161.72371825 61.33746112 162.67167999 55.328125 164.61328125 C43.93013829 168.29404222 32.31941656 167.94804956 20.578125 166.05078125 C20.66513672 167.79101562 20.66513672 167.79101562 20.75390625 169.56640625 C21.31651582 185.50245051 17.46796748 195.11260423 6.578125 207.05078125 C5.918125 207.71078125 5.258125 208.37078125 4.578125 209.05078125 C4.10524144 211.09225955 4.10524144 211.09225955 3.90234375 213.453125 C3.79913818 214.33822754 3.69593262 215.22333008 3.58959961 216.13525391 C3.48268799 217.07675293 3.37577637 218.01825195 3.265625 218.98828125 C2.35841923 226.19616765 1.15830836 232.15343854 -2.2890625 238.625 C-3.95035497 242.18245731 -4.44641321 245.77233558 -4.96484375 249.640625 C-5.421875 252.05078125 -5.421875 252.05078125 -6.43359375 253.8828125 C-7.8913045 257.08055742 -7.88997192 260.34237595 -8.046875 263.80078125 C-8.10488281 264.84685547 -8.10488281 264.84685547 -8.1640625 265.9140625 C-8.25786124 267.62588943 -8.34093674 269.33829807 -8.421875 271.05078125 C-3.64443816 274.84468315 0.83353145 274.40826908 6.63671875 274.2734375 C7.61745865 274.26444931 8.59819855 274.25546112 9.60865784 274.24620056 C12.74467652 274.21623181 15.87992177 274.16655133 19.015625 274.11328125 C31.78744912 273.91488979 43.96617754 273.84811616 56.578125 276.05078125 C59.69833916 276.4033765 62.82455641 276.65924592 65.953125 276.92578125 C77.59544201 278.0201636 89.09856852 279.83569082 100.578125 282.05078125 C101.28727051 282.18677734 101.99641602 282.32277344 102.72705078 282.46289062 C115.22457651 285.01221764 131.95230802 293.07305991 140.3203125 303.1484375 C140.69414063 303.79683594 141.06796875 304.44523437 141.453125 305.11328125 C141.84242188 305.76425781 142.23171875 306.41523437 142.6328125 307.0859375 C144.37789464 310.71311237 144.70119276 313.98724247 144.68237305 317.98510742 C144.67908745 319.45383049 144.67908745 319.45383049 144.67573547 320.95222473 C144.66415657 322.53821724 144.66415657 322.53821724 144.65234375 324.15625 C144.64772629 325.26469772 144.64310883 326.37314545 144.63835144 327.5151825 C144.62770064 329.85581595 144.61471444 332.19643979 144.59954834 334.53704834 C144.57913631 337.88491186 144.56869716 341.23265264 144.56103516 344.58056641 C144.33021548 416.54660029 144.33021548 416.54660029 137.578125 430.05078125 C137.51909307 432.09814099 137.51714015 434.14726475 137.54296875 436.1953125 C137.53426758 438.04672852 137.53426758 438.04672852 137.52539062 439.93554688 C137.51890916 442.5423929 137.53950278 445.14945441 137.58789062 447.75585938 C137.47580433 457.1175013 137.47580433 457.1175013 134.80517578 459.89404297 C132.64453125 461.15625 132.64453125 461.15625 130.45141602 462.1550293 C128.35627424 462.9458925 128.35627424 462.9458925 127.203125 465.33203125 C126.89375 466.4303125 126.89375 466.4303125 126.578125 467.55078125 C124.88372017 472.02192 122.86646071 474.00061641 118.65625 476.23046875 C115.28096143 477.5628195 113.14903261 477.76496277 109.578125 477.05078125 C106.38909362 475.65402019 104.45762996 473.99150119 102.578125 471.05078125 C101.73853088 466.35988116 101.72255915 461.79167669 101.79528809 457.03692627 C101.85027062 453.18804698 101.78629096 449.34085624 101.734375 445.4921875 C101.72694275 444.7457196 101.7195105 443.99925171 101.71185303 443.23016357 C101.54793336 430.54603849 98.97429635 419.55928249 93.578125 408.05078125 C86.26895195 391.35482775 85.81403601 373.82717233 89.578125 356.05078125 C89.908125 355.72078125 90.238125 355.39078125 90.578125 355.05078125 C90.94573231 352.72260161 91.28054081 350.38894275 91.578125 348.05078125 C90.918125 348.21578125 90.258125 348.38078125 89.578125 348.55078125 C85.84712706 349.17261424 82.35939122 349.11487051 78.578125 349.05078125 C78.51753906 349.77523438 78.45695312 350.4996875 78.39453125 351.24609375 C78.31074219 352.21289062 78.22695313 353.1796875 78.140625 354.17578125 C78.05941406 355.12710937 77.97820312 356.0784375 77.89453125 357.05859375 C77.578125 360.05078125 77.578125 360.05078125 77.06713867 362.75024414 C76.51627869 366.46820528 76.44187353 370.10366138 76.4375 373.8515625 C76.42301455 375.38990877 76.40683413 376.9282398 76.38916016 378.46655273 C76.37553436 379.66597 76.37553436 379.66597 76.3616333 380.88961792 C76.12623593 398.26721782 74.15791864 414.41401458 69.73413086 431.26586914 C67.29072997 441.28033136 67.42015176 450.57155583 68.0168457 460.77075195 C68.67552464 472.77561885 68.67552464 472.77561885 65.93530273 475.9597168 C63.86771469 477.20818568 61.80082427 478.11561636 59.578125 479.05078125 C57.08619397 481.36286648 57.08619397 481.36286648 55.015625 483.73828125 C51.40483475 487.46055388 48.90091119 489.45936056 43.578125 490.05078125 C37.72125888 489.74252514 32.79036475 488.263021 28.578125 484.05078125 C28.39868164 481.50732422 28.39868164 481.50732422 28.48828125 478.29296875 C28.51059814 477.11766602 28.53291504 475.94236328 28.5559082 474.73144531 C28.59784302 472.8476416 28.59784302 472.8476416 28.640625 470.92578125 C28.83087738 452.43278298 25.53908552 435.74673174 18.390625 418.67578125 C14.51038478 409.21867756 14.31505369 400.19364158 14.578125 390.05078125 C4.06731094 391.99467027 4.06731094 391.99467027 -6.421875 394.05078125 C-11.32637864 395.04482638 -16.24579607 395.95582285 -21.16552734 396.87060547 C-27.1613028 397.99066435 -33.14026658 399.1860338 -39.1171875 400.40234375 C-42.21171028 401.00954326 -45.31042201 401.53900407 -48.421875 402.05078125 C-48.41965439 402.68762344 -48.41743378 403.32446564 -48.41514587 403.98060608 C-48.35388474 422.49179686 -48.35602561 441.0023625 -48.40942383 459.5135498 C-48.41809997 462.53967164 -48.4250094 465.56578955 -48.43041992 468.59191895 C-48.44590164 476.70425551 -48.47879526 484.81600784 -48.55557346 492.92801952 C-48.58850431 496.42964837 -48.61318943 499.93085553 -48.61715698 503.43264771 C-48.62212977 507.34094446 -48.6665551 511.24823583 -48.71484375 515.15625 C-48.71091614 516.32213654 -48.70698853 517.48802307 -48.70294189 518.6892395 C-48.73239899 520.28395584 -48.73239899 520.28395584 -48.76245117 521.91088867 C-48.76911301 522.83641037 -48.77577484 523.76193207 -48.78263855 524.71549988 C-49.421875 527.05078125 -49.421875 527.05078125 -51.82270813 528.84931946 C-56.85276777 531.17445854 -61.75795378 530.51784686 -66.984375 529.05078125 C-67.78875 528.72078125 -68.593125 528.39078125 -69.421875 528.05078125 C-70.22280362 522.2458912 -70.66098794 516.51667608 -70.88671875 510.66333008 C-70.92427277 509.75955124 -70.96182678 508.8557724 -71.0005188 507.92460632 C-71.12326182 504.95246045 -71.24131311 501.98014768 -71.359375 499.0078125 C-71.44491961 496.91719813 -71.53078126 494.82659671 -71.61694336 492.73600769 C-71.84303045 487.23197754 -72.06523867 481.72779781 -72.28649902 476.22357178 C-72.59663049 468.5255158 -72.91197896 460.82767159 -73.22680664 453.12980652 C-73.39404437 449.04043452 -73.55983603 444.9510083 -73.72436523 440.86152649 C-73.91270668 436.19283407 -74.10629843 431.52438742 -74.30401611 426.85608292 C-74.38543746 424.91807507 -74.46520761 422.97999741 -74.54364014 421.0418663 C-74.66376605 418.09108862 -74.79014703 415.14063865 -74.91796875 412.19018555 C-74.9536647 411.28461064 -74.98936066 410.37903574 -75.02613831 409.44601917 C-74.81902842 405.42305809 -74.81902842 405.42305809 -76.421875 402.05078125 C-79.00492163 401.67344761 -81.57413401 401.35471971 -84.16796875 401.0703125 C-85.39459984 400.93030067 -85.39459984 400.93030067 -86.64601135 400.78746033 C-88.43754277 400.58337001 -90.22929822 400.38123932 -92.02124023 400.18078613 C-96.88361626 399.63682742 -101.74443919 399.07927817 -106.60546875 398.5234375 C-107.63304291 398.40632416 -108.66061707 398.28921082 -109.71932983 398.16854858 C-117.48941399 397.28028959 -125.25521978 396.35917953 -133.01953125 395.421875 C-134.14072861 395.28654861 -135.26192596 395.15122223 -136.417099 395.01179504 C-140.83584739 394.47776872 -145.25447259 393.94275181 -149.67282104 393.40542603 C-152.75567829 393.03066261 -155.83876193 392.65780818 -158.921875 392.28515625 C-159.82241104 392.17493637 -160.72294708 392.06471649 -161.65077209 391.95115662 C-167.89837119 391.19754524 -174.15228269 390.59046661 -180.421875 390.05078125 C-180.48229477 391.27472092 -180.54271454 392.49866058 -180.60496521 393.75968933 C-181.17672907 405.33734047 -181.75037246 416.91489719 -182.32581997 428.49236584 C-182.62154869 434.44335113 -182.91663277 440.39436689 -183.21020508 446.34545898 C-183.49394674 452.09677593 -183.77943207 457.84800399 -184.06608772 463.59917641 C-184.17473534 465.7849862 -184.28277206 467.97082645 -184.39016533 470.15669823 C-185.96223214 502.13149553 -185.96223214 502.13149553 -187.421875 505.05078125 C-194.67222463 508.31343858 -201.12692368 507.5648182 -208.421875 505.05078125 C-208.39420044 503.91518265 -208.36652588 502.77958405 -208.3380127 501.60957336 C-207.49486353 466.48891272 -207.01135141 431.36911255 -206.921875 396.23828125 C-206.9200514 395.55564681 -206.9182278 394.87301237 -206.91634893 394.16969204 C-206.8022332 349.25330108 -208.40181986 304.88185336 -213.15932178 260.19301605 C-214.83835187 244.39770397 -216.18965965 228.57404563 -217.55178738 212.74879837 C-218.05936305 206.85628979 -218.58117164 200.96520133 -219.11157227 195.07470703 C-219.78876843 187.54080461 -220.43338674 180.00466612 -221.05377197 172.46588135 C-221.30267769 169.44983284 -221.56373557 166.43513967 -221.83294678 163.4208374 C-222.16760114 159.65872381 -222.4754064 155.89528831 -222.76398277 152.12936974 C-222.87585227 150.72491159 -222.99672239 149.32113743 -223.12717628 147.91828346 C-223.3042682 145.99670136 -223.44540079 144.07190648 -223.5847168 142.1472168 C-223.67440231 141.06184128 -223.76408783 139.97646576 -223.85649109 138.85820007 C-223.421875 136.05078125 -223.421875 136.05078125 -221.16169739 133.79475403 C-217.02783346 131.16343523 -214.21635843 129.82065524 -209.29516602 129.42456055 C-208.27454575 129.34156204 -207.25392548 129.25856354 -206.20237732 129.17304993 C-205.10047562 129.09531845 -203.99857391 129.01758698 -202.86328125 128.9375 C-201.71106583 128.85320236 -200.5588504 128.76890472 -199.37171936 128.68205261 C-187.82992189 127.90391165 -176.3142602 127.78059147 -164.75024414 127.8449707 C-161.32886378 127.86344601 -157.90775373 127.86547763 -154.48632812 127.86523438 C-142.43088291 127.885079 -130.44464385 128.14204105 -118.421875 129.05078125 C-118.12925781 128.27589355 -117.83664062 127.50100586 -117.53515625 126.70263672 C-111.89618474 113.27050764 -96.0397573 105.58290226 -83.421875 100.05078125 C-81.66354134 99.48919351 -79.89321011 98.96267597 -78.109375 98.48828125 C-72.0019469 96.79792224 -66.48609257 94.27229599 -62.97265625 88.7890625 C-60.42936559 83.10458479 -58.95049904 77.18876974 -60.421875 71.05078125 C-61.63111074 68.70212707 -62.86021609 66.48403023 -64.234375 64.23828125 C-72.30964137 51.03178219 -73.91796573 34.47009488 -70.61328125 19.3515625 C-66.73027488 8.85804009 -58.92359194 2.14293131 -49.08203125 -2.73046875 C-48.20417969 -3.13265625 -47.32632813 -3.53484375 -46.421875 -3.94921875 C-45.73996094 -4.28953125 -45.05804688 -4.62984375 -44.35546875 -4.98046875 C-31.08094984 -10.59161569 -11.52046854 -7.94912329 0 0 Z " fill="#293143" transform="translate(428.421875,240.94921875)"/>
<path d="M0 0 C0.99837891 -0.01611328 1.99675781 -0.03222656 3.02539062 -0.04882812 C13.19433914 -0.05551382 21.42209705 3.16197333 29.5625 9.3125 C40.03780414 19.89579696 43.6295816 32.08544138 44.1875 46.625 C44.24224487 47.90129272 44.24224487 47.90129272 44.2980957 49.20336914 C44.54647957 55.55024582 44.6924789 61.89861443 44.75 68.25 C44.76305176 69.08378174 44.77610352 69.91756348 44.78955078 70.77661133 C44.79584743 75.15322872 44.43190773 78.28713299 42.5625 82.3125 C41.86876428 85.29195455 41.24409194 88.27916399 40.63671875 91.27734375 C39.23528057 95.23704362 37.67424881 97.47791101 34.5625 100.3125 C31.02137045 100.73337195 27.96980202 100.68972841 24.4453125 100.37109375 C22.0530535 100.22822662 22.0530535 100.22822662 18.5625 101.3125 C16.3452479 104.43973813 14.90777178 107.73427109 13.5625 111.3125 C14.51165283 111.27322388 14.51165283 111.27322388 15.47998047 111.2331543 C47.42116983 110.09219121 47.42116983 110.09219121 60.25 119.5 C68.63492006 125.11906101 82.95319557 125.43130031 92.6875 123.75390625 C95.05571263 123.21119086 97.41921118 122.64746312 99.77734375 122.0625 C111.5065639 119.73844399 123.46058146 121.09284757 135.1027832 123.23364258 C141.90627298 124.39848356 148.60460486 124.61672966 155.5 124.625 C157.05605957 124.63273437 157.05605957 124.63273437 158.64355469 124.640625 C163.32565012 124.59717168 166.38359401 124.4579839 170.5625 122.3125 C172.5 122.06958008 172.5 122.06958008 174.5625 122.08203125 C175.74839722 122.08372314 175.74839722 122.08372314 176.95825195 122.08544922 C177.81765381 122.09850098 178.67705566 122.11155273 179.5625 122.125 C180.92411255 122.13684326 180.92411255 122.13684326 182.31323242 122.14892578 C185.39690211 122.18557162 188.47934483 122.24538433 191.5625 122.3125 C192.7067041 122.33715332 193.8509082 122.36180664 195.02978516 122.38720703 C218.66847249 122.95087651 240.31249485 124.87284287 262.5625 133.3125 C261.7578125 138.15625 261.7578125 138.15625 260 139.5625 C257.76531201 140.2500963 255.81341061 140.55734442 253.5 140.8125 C249.5167797 141.02125489 249.5167797 141.02125489 246.5625 143.3125 C243.86328125 143.2890625 243.86328125 143.2890625 240.875 142.9375 C239.88113281 142.82664062 238.88726563 142.71578125 237.86328125 142.6015625 C236.72439453 142.45847656 236.72439453 142.45847656 235.5625 142.3125 C235.418125 143.281875 235.27375 144.25125 235.125 145.25 C234.5625 148.3125 234.5625 148.3125 233.5625 149.3125 C231.56291636 149.35330783 229.56204746 149.35504356 227.5625 149.3125 C227.2325 150.3025 226.9025 151.2925 226.5625 152.3125 C217.42911545 152.60244872 208.59948325 151.4866788 199.5625 150.3125 C199.5625 150.9725 199.5625 151.6325 199.5625 152.3125 C194.51675786 154.31046492 190.06923899 154.66474274 184.7265625 154.8046875 C183.00518786 154.87056091 181.28383419 154.93698427 179.5625 155.00390625 C176.87481887 155.09856363 174.18722383 155.18750808 171.49902344 155.26611328 C168.88651153 155.34610769 166.27564543 155.44902701 163.6640625 155.5546875 C162.87109772 155.57151581 162.07813293 155.58834412 161.26113892 155.60568237 C155.4912035 155.85809652 151.56506807 157.53775369 146.5625 160.3125 C143.52617066 161.5126992 140.43015641 162.46995146 137.3125 163.4375 C136.54292969 163.68886719 135.77335937 163.94023437 134.98046875 164.19921875 C123.89594738 167.68709944 112.94574772 168.61647103 101.375 168.875 C98.96473595 168.93459096 96.55456575 168.99815985 94.14453125 169.06640625 C93.09499268 169.09033447 92.0454541 169.1142627 90.96411133 169.13891602 C88.61118195 169.04572085 88.61118195 169.04572085 87.5625 170.3125 C80.23088993 171.9672456 73.06127978 172.61112397 65.5625 172.3125 C65.5625 172.9725 65.5625 173.6325 65.5625 174.3125 C57.9725 174.3125 50.3825 174.3125 42.5625 174.3125 C42.60375 176.271875 42.645 178.23125 42.6875 180.25 C42.64129783 190.93425176 40.67272301 200.82311761 33.05957031 208.90869141 C31.3490739 210.58382229 29.61819134 212.23393939 27.875 213.875 C23.32364255 218.18426397 20.39964793 221.31220636 19.15625 227.6328125 C18.37971439 231.13744032 17.03493571 234.33914376 15.625 237.625 C15.14160156 238.77613281 14.65820312 239.92726563 14.16015625 241.11328125 C11.43903879 246.56216928 8.27100629 249.75162236 3.25 253.125 C-1.04054382 256.15562222 -4.31884384 259.19882861 -7.6328125 263.2421875 C-11.77430851 267.99325435 -16.72997231 272.02770897 -21.5390625 276.0859375 C-33.75189621 286.10961883 -33.75189621 286.10961883 -39.75 299.875 C-39.45485619 303.96366051 -39.45485619 303.96366051 -37.4375 307.3125 C-35.12537422 308.78832497 -32.86416228 310.05275729 -30.4375 311.3125 C-29.69886719 311.73144531 -28.96023438 312.15039062 -28.19921875 312.58203125 C-22.1508807 315.99656735 -15.94919612 319.06355954 -9.6875 322.0625 C-8.88344727 322.45139404 -8.07939453 322.84028809 -7.25097656 323.2409668 C-3.81114527 324.87086617 -0.65746064 326.25621378 3.04296875 327.203125 C7.97209658 328.75681235 11.85609623 331.44623604 16.125 334.3125 C17.00397949 334.89410889 17.88295898 335.47571777 18.78857422 336.07495117 C31.59538249 344.59529899 44.15104282 353.3899883 55.5 363.8125 C58.98278125 367.009176 62.56006562 369.7966095 66.4375 372.5 C72.89994002 377.09389248 76.53254063 382.00545747 78.07421875 389.94921875 C78.7776134 402.1570237 73.85655968 412.85126036 69.70800781 424.11816406 C68.08682186 428.63896478 66.66894426 433.20634607 65.3125 437.8125 C65.07523193 438.61316895 64.83796387 439.41383789 64.59350586 440.23876953 C63.43644883 444.18884826 62.3289419 448.14973493 61.26171875 452.125 C59.2315197 459.68401935 57.11827455 466.93159698 53.953125 474.11328125 C52.17556816 478.20266062 50.55323403 482.34452607 48.9375 486.5 C48.6482666 487.23669922 48.3590332 487.97339844 48.06103516 488.73242188 C47.21032858 490.91953425 46.38028779 493.11287422 45.5625 495.3125 C45.27568359 496.08037842 44.98886719 496.84825684 44.69335938 497.6394043 C43.08768391 502.15133339 42.28784714 505.91187704 42.3125 510.75 C41.79997124 519.52449243 37.28363323 525.00468755 31 530.8125 C26.75877049 534.14691875 23.32957724 535.40235139 17.875 535.125 C14.47969525 534.2921894 13.5459645 534.05157002 11.5625 531.3125 C11.19921875 528.66796875 11.19921875 528.66796875 11.25 525.5 C11.25386719 524.48292969 11.25773437 523.46585938 11.26171875 522.41796875 C11.43292801 518.84296765 12.01062737 515.36496557 12.5703125 511.83203125 C13.70964876 504.12938277 13.82400273 496.58668164 13.75 488.8125 C13.74935547 487.49507812 13.74871094 486.17765625 13.74804688 484.8203125 C13.7222953 479.17785643 13.56468351 473.87295469 12.5625 468.3125 C11.28753482 445.21487493 21.11238018 432.0537434 34.5625 414.3125 C33.58667969 414.19132812 32.61085938 414.07015625 31.60546875 413.9453125 C30.33316406 413.77773438 29.06085938 413.61015625 27.75 413.4375 C25.85314453 413.19386719 25.85314453 413.19386719 23.91796875 412.9453125 C20.5625 412.3125 20.5625 412.3125 17.5625 410.3125 C17.28540039 408.42407227 17.28540039 408.42407227 17.41015625 406.12890625 C17.44117432 405.2889209 17.47219238 404.44893555 17.50415039 403.58349609 C17.54403076 402.68969238 17.58391113 401.79588867 17.625 400.875 C17.83775322 389.7069402 16.5998511 382.40106218 8.9375 373.875 C8.16148437 373.09253906 7.38546875 372.31007813 6.5859375 371.50390625 C4.72538908 369.48891076 3.62409211 367.81808567 2.5625 365.3125 C1.9025 365.3125 1.2425 365.3125 0.5625 365.3125 C0.5625 364.6525 0.5625 363.9925 0.5625 363.3125 C-0.0253125 363.04953125 -0.613125 362.7865625 -1.21875 362.515625 C-5.96510646 359.9418965 -9.60787211 355.77150078 -12.25 351.125 C-14.63163442 348.0628986 -15.5332154 347.71850884 -19.0625 346.5 C-25.37481529 344.29256831 -29.97648331 340.22910988 -34.4375 335.3125 C-34.4375 334.6525 -34.4375 333.9925 -34.4375 333.3125 C-35.17226562 333.07015625 -35.90703125 332.8278125 -36.6640625 332.578125 C-41.40945758 330.41262076 -44.5921428 326.62386611 -47.4375 322.3125 C-47.4375 318.75 -47.4375 318.75 -46.4375 316.3125 C-47.4275 316.9725 -48.4175 317.6325 -49.4375 318.3125 C-52.99143339 317.96077496 -55.72190348 316.82716249 -58.8359375 315.1328125 C-59.64546875 314.69839844 -60.455 314.26398438 -61.2890625 313.81640625 C-62.12179687 313.36136719 -62.95453125 312.90632813 -63.8125 312.4375 C-71.93048212 307.95553729 -71.93048212 307.95553729 -80.4375 304.3125 C-81.4275 304.6425 -82.4175 304.9725 -83.4375 305.3125 C-82.468125 305.77398437 -81.49875 306.23546875 -80.5 306.7109375 C-61.15914966 316.06100471 -44.19298069 327.58995948 -28.60546875 342.35546875 C-26.34236671 344.49593964 -24.01954354 346.54508365 -21.65625 348.57421875 C-16.79433612 352.80325506 -12.28121358 357.35979409 -7.75 361.9375 C-6.92177734 362.77023437 -6.09355469 363.60296875 -5.24023438 364.4609375 C-3.65710214 366.05294237 -2.07500835 367.64598081 -0.49414062 369.24023438 C1.17016724 370.91718656 2.83862946 372.58963684 4.51171875 374.2578125 C11.23666885 380.99557203 13.7056128 387.17923207 13.875 396.6875 C13.49311536 408.92195242 10.34172404 417.55337645 4.67675781 428.21435547 C-0.07903731 437.16950518 -4.52322845 445.89086213 -7.52734375 455.60546875 C-8.69788442 459.08694808 -10.27902028 462.2224121 -11.984375 465.46875 C-13.40302772 468.24503813 -14.69664148 471.06354539 -15.98217773 473.90332031 C-20.09459035 482.92897825 -24.82209679 491.53077771 -29.78125 500.11791992 C-38.98842563 515.39440644 -38.98842563 515.39440644 -42.5 532.5625 C-43.4375 536.3125 -43.4375 536.3125 -45.4375 537.9296875 C-47.1785557 538.95415015 -48.94756574 539.93223475 -50.73828125 540.8671875 C-53.30343102 542.24071198 -55.42179555 543.74818348 -57.6875 545.5625 C-63.1745909 549.75463745 -68.52561515 551.1538343 -75.4375 550.3125 C-80.45237874 549.0633393 -84.07643924 547.37378175 -87.4375 543.3125 C-87.025 542.11625 -86.6125 540.92 -86.1875 539.6875 C-84.87305458 535.70055654 -83.59386846 531.70474437 -82.375 527.6875 C-82.05402344 526.64335938 -81.73304687 525.59921875 -81.40234375 524.5234375 C-78.17218529 511.77718239 -78.09144529 498.70236041 -77.98120117 485.64916992 C-77.70893228 458.42527223 -70.73004076 437.91460009 -50.9765625 418.55078125 C-48.4375 416.3125 -48.4375 416.3125 -46.4375 416.3125 C-46.7675 414.6625 -47.0975 413.0125 -47.4375 411.3125 C-50.27083099 410.51452514 -52.84181941 410.17127484 -55.78125 410.1015625 C-80.09561707 409.3420343 -96.10289426 401.18523363 -115.31494141 386.87597656 C-123.44090767 380.89039019 -131.92072665 375.57612774 -140.66479492 370.54614258 C-158.49078962 360.26566961 -172.8904484 349.79232669 -179.4375 329.3125 C-182.38045451 313.03311872 -180.34287446 297.37636926 -171.4375 283.3125 C-163.03306716 271.99776412 -153.12855341 263.36126233 -141.71557617 255.21801758 C-138.97245984 253.24911931 -136.5475247 251.42891698 -134.21875 248.96484375 C-133.6309375 248.41957031 -133.043125 247.87429688 -132.4375 247.3125 C-128.6875 247.5625 -128.6875 247.5625 -125.4375 248.3125 C-125.540625 247.19875 -125.64375 246.085 -125.75 244.9375 C-125.73588552 236.96281739 -121.02444899 230.68317877 -115.8515625 225.01953125 C-113.42750234 222.09324869 -111.89799593 218.7998066 -110.4375 215.3125 C-109.68472778 213.63160278 -109.68472778 213.63160278 -108.91674805 211.91674805 C-106.89561821 206.47921183 -106.91276498 201.10522264 -106.8125 195.359375 C-106.77946777 194.22276428 -106.74643555 193.08615356 -106.71240234 191.9151001 C-106.6077052 188.29777672 -106.52048117 184.68038255 -106.4375 181.0625 C-106.32777604 176.30673202 -106.20022716 171.55190522 -106.0625 166.796875 C-106.04364746 165.72459656 -106.02479492 164.65231812 -106.00537109 163.54754639 C-105.69946894 153.04647335 -103.54404459 143.37278448 -98.625 134.0625 C-98.27099121 133.37994141 -97.91698242 132.69738281 -97.55224609 131.99414062 C-87.99809912 113.93157421 -72.47544261 105.44597112 -53.4375 99.3125 C-50.77303525 98.54084333 -48.11121807 97.78099173 -45.42578125 97.0859375 C-40.53782957 95.1845339 -37.54162646 89.89677552 -35.4375 85.3125 C-34.04579944 79.12107626 -35.83652672 75.21375572 -38.9921875 69.984375 C-45.94185878 57.13687458 -47.64146151 42.13530542 -44.73828125 27.87890625 C-41.36674976 17.62205306 -34.68552828 10.11146655 -25.171875 5.125 C-16.61985462 1.16896336 -9.37887029 -0.03015714 0 0 Z " fill="#2F3648" transform="translate(1115.4375,179.6875)"/>
<path d="M0 0 C0.80800049 -0.01796631 1.61600098 -0.03593262 2.44848633 -0.05444336 C12.34820387 -0.03918329 18.99927272 4.47306369 26.15234375 10.98828125 C30.85764804 16.15858032 31.06775816 21.12460292 30.7890625 27.9453125 C30.1446193 32.49867349 28.77911063 35.45842089 26.3125 39.3125 C31.34223787 41.40822411 36.16170229 42.70239528 41.5 43.8125 C56.5011868 47.23108284 70.33056223 55.89532342 82.3125 65.3125 C84.10246011 66.56494251 85.89418538 67.8148654 87.6875 69.0625 C93.21210019 73.06961344 98.13047327 77.59894689 103.07421875 82.28515625 C105.36277545 84.45270228 107.7100434 86.52883043 110.1015625 88.58203125 C114.96122192 92.80804911 119.47138302 97.36241734 124 101.9375 C124.82822266 102.77023437 125.65644531 103.60296875 126.50976562 104.4609375 C128.09289786 106.05294237 129.67499165 107.64598081 131.25585938 109.24023438 C132.92016724 110.91718656 134.58862946 112.58963684 136.26171875 114.2578125 C142.98666885 120.99557203 145.4556128 127.17923207 145.625 136.6875 C145.24311536 148.92195242 142.09172404 157.55337645 136.42675781 168.21435547 C131.67096269 177.16950518 127.22677155 185.89086213 124.22265625 195.60546875 C123.05211558 199.08694808 121.47097972 202.2224121 119.765625 205.46875 C118.34697228 208.24503813 117.05335852 211.06354539 115.76782227 213.90332031 C111.65540965 222.92897825 106.92790321 231.53077771 101.96875 240.11791992 C92.76157437 255.39440644 92.76157437 255.39440644 89.25 272.5625 C88.3125 276.3125 88.3125 276.3125 86.3125 277.9296875 C84.5714443 278.95415015 82.80243426 279.93223475 81.01171875 280.8671875 C78.44656898 282.24071198 76.32820445 283.74818348 74.0625 285.5625 C68.5754091 289.75463745 63.22438485 291.1538343 56.3125 290.3125 C51.29762126 289.0633393 47.67356076 287.37378175 44.3125 283.3125 C44.725 282.11625 45.1375 280.92 45.5625 279.6875 C46.87694542 275.70055654 48.15613154 271.70474437 49.375 267.6875 C49.69597656 266.64335938 50.01695313 265.59921875 50.34765625 264.5234375 C53.57781471 251.77718239 53.65855471 238.70236041 53.76879883 225.64916992 C54.04106772 198.42527223 61.01995924 177.91460009 80.7734375 158.55078125 C83.3125 156.3125 83.3125 156.3125 85.3125 156.3125 C84.9825 154.6625 84.6525 153.0125 84.3125 151.3125 C81.47916901 150.51452514 78.90818059 150.17127484 75.96875 150.1015625 C51.65438293 149.3420343 35.64710574 141.18523363 16.43505859 126.87597656 C8.30909233 120.89039019 -0.17072665 115.57612774 -8.91479492 110.54614258 C-26.74078962 100.26566961 -41.1404484 89.79232669 -47.6875 69.3125 C-50.63045451 53.03311872 -48.59287446 37.37636926 -39.6875 23.3125 C-36.0100263 18.36158369 -31.9122958 13.79806768 -27.6875 9.3125 C-26.96046875 8.53003906 -26.2334375 7.74757813 -25.484375 6.94140625 C-18.1726541 -0.20684122 -9.69658475 0.15515279 0 0 Z " fill="#30374A" transform="translate(983.6875,439.6875)"/>
<path d="M0 0 C7.00060194 1.55751097 13.67573927 4.65368738 19.91015625 8.14453125 C20.56910889 8.51247803 21.22806152 8.8804248 21.90698242 9.25952148 C23.1957769 9.99001423 24.47639192 10.73517643 25.74731445 11.49633789 C28.94319609 13.31250351 30.73476423 14.02105046 34.4453125 13.7265625 C35.28835938 13.48679687 36.13140625 13.24703125 37 13 C36.855625 13.825 36.71125 14.65 36.5625 15.5 C37.21500099 20.72000796 40.2381337 23.48997412 44 27 C45.65948148 28.01187895 47.32580562 29.0126546 49 30 C49.96531003 31.10123013 50.90007787 32.22956685 51.8125 33.375 C55.84537375 38.27649272 60.60155191 41.15843927 66.5625 43.25 C70.76907333 45.39152824 72.51073557 47.93515679 75.22265625 51.7109375 C76.96735377 53.95795452 78.74029535 55.64260042 80.9375 57.4375 C81.948125 58.283125 82.95875 59.12875 84 60 C84 60.66 84 61.32 84 62 C84.66 62 85.32 62 86 62 C88.54901464 64.47017913 90.74552448 67.26175161 93 70 C93.556875 70.65871094 94.11375 71.31742188 94.6875 71.99609375 C95.203125 72.63675781 95.71875 73.27742187 96.25 73.9375 C96.70890625 74.50339844 97.1678125 75.06929687 97.640625 75.65234375 C101.7339251 82.72152007 102.41743776 89.52647015 102.1875 97.5625 C102.16719727 98.93245117 102.16719727 98.93245117 102.14648438 100.33007812 C102.11155315 102.55403259 102.06251586 104.77667952 102 107 C106.0118659 108.46427153 109.61840563 109.31354188 113.875 109.625 C114.84179688 109.69976563 115.80859375 109.77453125 116.8046875 109.8515625 C117.89136719 109.92503906 117.89136719 109.92503906 119 110 C116.40874033 114.75957811 113.63493841 118.85499643 110.1875 123.0625 C103.56693485 131.42693503 97.17397908 141.03931811 97 152 C96.96326172 153.56427734 96.96326172 153.56427734 96.92578125 155.16015625 C96.80330219 161.49815877 96.80330219 161.49815877 97.49780273 167.78076172 C98.4132449 173.64902638 98.18460008 179.57256262 98.1875 185.5 C98.19974609 186.78648437 98.21199219 188.07296875 98.22460938 189.3984375 C98.23619338 197.07477172 97.66491492 204.39263844 96.46508789 211.97314453 C95.93533337 215.42085929 95.66917658 218.70196818 95.625 222.1875 C95.59664062 223.23292969 95.56828125 224.27835938 95.5390625 225.35546875 C95.7672865 228.09374089 95.7672865 228.09374089 97.75 229.8671875 C101.58369775 231.79734782 104.94803838 231.03063832 109 230 C115.40351928 226.67509576 119.03044138 221.76638592 122.4375 215.625 C124.59859515 212.13089289 124.59859515 212.13089289 127.875 211.0625 C133.25293023 212.67587907 136.12177902 216.80801589 139.68359375 220.96484375 C152.45217218 235.85660382 165.75039554 240.76523542 184.48046875 244.73828125 C190.62626935 246.104863 194.66854492 247.31734586 199 252 C200.20776206 255.62328619 200.40040892 258.19611527 200 262 C192.37097316 270.5826552 175.05753421 272.35640463 164.18798828 273.22460938 C161.41407782 273.35768764 158.65194668 273.42076087 155.875 273.4375 C155.03557861 273.44740967 154.19615723 273.45731934 153.33129883 273.4675293 C147.14089336 273.38227552 141.84084643 271.96001558 136 270 C125.87266472 267.06089123 115.35888221 267.34257885 105 269 C105 269.66 105 270.32 105 271 C105.99 271.33 106.98 271.66 108 272 C110.83224731 276.24837096 110.75914681 280.01360409 110 285 C104.600098 292.76235912 94.74604198 294.83462598 86 296.6875 C84.58074219 297.00557617 84.58074219 297.00557617 83.1328125 297.33007812 C65.46418999 301.20885467 48.01477688 301.30685466 31.125 294.3125 C25.10874674 291.82378902 19.5116067 290.78790904 13.12255859 292.50439453 C9.5088029 293.34818612 5.88366283 293.22597945 2.1875 293.25 C1.01477539 293.2809375 1.01477539 293.2809375 -0.18164062 293.3125 C-7.00050286 293.35807301 -11.76738848 292.07356796 -16.90625 287.30078125 C-19.34418006 283.4574027 -19.69828212 280.59901497 -19.5 276.1875 C-19.48372559 275.47899902 -19.46745117 274.77049805 -19.45068359 274.04052734 C-19.26738438 269.36371757 -18.54421671 265.38438313 -16.7890625 261.0703125 C-15.89630193 258.72792091 -15.44484567 256.4655006 -15 254 C-12.46625823 240.57745062 -12.46625823 240.57745062 -8 237 C-5.3125 236.8125 -5.3125 236.8125 -3 237 C-2.95875 237.5775 -2.9175 238.155 -2.875 238.75 C-1.53662757 242.1915291 0.86287919 243.21614699 4 245 C9.75697621 247.30279048 16.33070704 246.41848179 21.92578125 244.12109375 C25.22556495 242.33759484 28.02105175 240.00694102 30.88671875 237.6015625 C33 236 33 236 36.4375 234.875 C39.23533337 233.26072732 39.23533337 233.26072732 39.5625 230.4609375 C39.81915345 228.26334231 40.06463316 226.06442126 40.30053711 223.86450195 C41.0386406 219.78651238 42.27515884 216.68634964 44.06640625 212.95703125 C44.53016663 211.98987938 44.53016663 211.98987938 45.0032959 211.00318909 C48.40448504 204.00326645 52.17875312 197.21427108 56 190.4375 C63.12129242 177.77079925 70.02502995 165.28041457 74.76953125 151.4921875 C78.23418904 141.65915872 82.6257122 132.70161564 87.80566406 123.69775391 C92.13473106 116.12095928 95.63183472 108.86664726 96 100 C96.07734375 98.48019531 96.07734375 98.48019531 96.15625 96.9296875 C96.46192338 85.95091842 94.46741847 78.20219877 87 70 C85.20939292 68.33043629 83.36092099 66.75905599 81.48046875 65.19140625 C77.46773509 61.64629824 73.75731805 57.79792298 70.01171875 53.97412109 C67.44549046 51.37121185 64.95413004 48.9639287 62.07421875 46.69921875 C61.38972656 46.13847656 60.70523437 45.57773437 60 45 C60 44.34 60 43.68 60 43 C59.45859375 42.78214844 58.9171875 42.56429687 58.359375 42.33984375 C55.20087706 40.54619343 52.82754088 38.08183835 50.25 35.5625 C43.62723923 29.27078187 36.45177211 24.16075831 28.81152344 19.18261719 C27.23096479 18.15078078 25.66493287 17.09676051 24.1015625 16.0390625 C16.44329298 10.9565473 8.26127144 6.99070201 0 3 C0 2.01 0 1.02 0 0 Z " fill="#1B2335" transform="translate(1032,483)"/>
<path d="M0 0 C0.19617321 4.90433021 -0.43371118 8.39326817 -2 13 C-4.90493458 30.42960747 -3.67661773 48.02926456 4.8359375 63.72265625 C10.07862641 73.97932616 11.1235762 86.18718332 11.203125 97.53125 C11.20963577 98.26304977 11.21614655 98.99484955 11.22285461 99.74882507 C11.24370065 102.76972713 11.25615478 105.78964862 11.22998047 108.81054688 C11.21522303 111.05177362 11.23760091 113.29020473 11.265625 115.53125 C11.26336914 116.84673828 11.26111328 118.16222656 11.25878906 119.51757812 C12.28586522 124.34307691 13.92300642 125.33064475 18 128 C23.32283991 128.98571109 26.86922535 127.61835928 31.23046875 124.69140625 C33.81220457 122.22365435 34.64164919 119.44978822 35.8828125 116.16015625 C37.86454731 112.32834034 41.08996704 110.57613732 45 109 C49.44182217 108.20047201 51.70147605 109.14098805 55.36328125 111.66918945 C58.46582048 114.19185374 60.90725141 117.29627837 63.4375 120.375 C72.91883263 131.85782022 81.4593842 137.39285821 95.9375 141 C103.93204064 143.00000879 111.48066899 145.24431036 118.5625 149.5625 C120.64278953 153.08994747 120.58250269 156.31007542 120.7265625 160.34375 C120 163 120 163 117.47265625 165.203125 C113.65282352 167.17964138 109.99456445 168.37714719 105.8125 169.25 C104.60799194 169.50148804 104.60799194 169.50148804 103.37915039 169.75805664 C95.91739443 171.13323456 88.51255456 171.398141 80.9375 171.4375 C79.80868408 171.44749023 78.67986816 171.45748047 77.5168457 171.46777344 C68.87004117 171.37826862 61.76107902 169.56533087 53.8125 166.3125 C50.05583726 164.8434995 47.00867846 164.7494576 43 165 C43.804375 165.78375 44.60875 166.5675 45.4375 167.375 C48.86788669 170.88905465 49.46803933 173.00288119 49.4140625 177.96875 C49 180 49 180 46.3125 182.8125 C39.37619895 187.39307616 33.00645813 189.78282698 25 192 C23.97132813 192.30421875 22.94265625 192.6084375 21.8828125 192.921875 C6.80148504 196.8304831 -11.60898965 197.54871819 -26 191 C-26.52464844 190.66049316 -27.04929687 190.32098633 -27.58984375 189.97119141 C-34.32858126 185.87541573 -41.35914663 186.62178352 -49 186.875 C-69.13861886 187.43521799 -69.13861886 187.43521799 -74.9375 182.5 C-78.94238586 177.64559289 -78.56099121 173.11106429 -78 167 C-77.14411647 163.71843708 -76.09904313 160.54893824 -75.00390625 157.33984375 C-73.97974521 153.93261538 -73.48264363 150.71589066 -73.0625 147.1875 C-72.31577952 141.73577971 -71.02486759 136.95815707 -67 133 C-64.8359375 132.296875 -64.8359375 132.296875 -63 132 C-62.7834375 133.11375 -62.7834375 133.11375 -62.5625 134.25 C-60.48614586 137.90438329 -58.27938592 138.81730977 -54.4453125 140.33984375 C-49.75567259 141.6058967 -45.89962032 140.98610864 -41.546875 138.7265625 C-37.94942655 136.28780144 -35.23380573 133.2242741 -32.28125 130.05859375 C-29.9053237 127.91456436 -27.96798209 127.09700995 -25 126 C-25.05498657 124.79730469 -25.05498657 124.79730469 -25.11108398 123.5703125 C-25.91152012 103.1439929 -23.93233179 84.99828121 -18.75610352 65.22436523 C-17.31683312 59.08666936 -16.85281854 53.10630643 -16.7890625 46.8203125 C-16.76095249 45.23436541 -16.73228786 43.64842808 -16.703125 42.0625 C-16.66232075 39.61035898 -16.62536398 37.1583915 -16.59863281 34.70605469 C-16.46269105 23.17913102 -15.35078845 12.29066137 -13 1 C-4.28571429 -0.13392857 -4.28571429 -0.13392857 0 0 Z " fill="#1D2539" transform="translate(520,589)"/>
<path d="M0 0 C1.29357422 -0.00773438 2.58714844 -0.01546875 3.91992188 -0.0234375 C11.51441267 -0.00821045 18.78248923 0.57210372 26.28198242 1.75976562 C30.44760459 2.40692766 34.61447651 2.76735352 38.8125 3.125 C50.45481701 4.21938235 61.95794352 6.03490957 73.4375 8.25 C74.14664551 8.38599609 74.85579102 8.52199219 75.58642578 8.66210938 C88.08395151 11.21143639 104.81168302 19.27227866 113.1796875 29.34765625 C113.55351563 29.99605469 113.92734375 30.64445313 114.3125 31.3125 C114.70179688 31.96347656 115.09109375 32.61445312 115.4921875 33.28515625 C117.23726964 36.91233112 117.56056776 40.18646122 117.54174805 44.18432617 C117.53955765 45.16347488 117.53736725 46.1426236 117.53511047 47.15144348 C117.5273912 48.20877182 117.51967194 49.26610016 117.51171875 50.35546875 C117.50710129 51.46391647 117.50248383 52.5723642 117.49772644 53.71440125 C117.48707564 56.0550347 117.47408944 58.39565854 117.45892334 60.73626709 C117.43851131 64.08413061 117.42807216 67.43187139 117.42041016 70.77978516 C117.18959048 142.74581904 117.18959048 142.74581904 110.4375 156.25 C110.37846807 158.29735974 110.37651515 160.3464835 110.40234375 162.39453125 C110.39364258 164.24594727 110.39364258 164.24594727 110.38476562 166.13476562 C110.37828416 168.74161165 110.39887778 171.34867316 110.44726562 173.95507812 C110.33517933 183.31672005 110.33517933 183.31672005 107.66455078 186.09326172 C105.50390625 187.35546875 105.50390625 187.35546875 103.31079102 188.35424805 C101.21564924 189.14511125 101.21564924 189.14511125 100.0625 191.53125 C99.85625 192.2634375 99.65 192.995625 99.4375 193.75 C97.74309517 198.22113875 95.72583571 200.19983516 91.515625 202.4296875 C88.14033643 203.76203825 86.00840761 203.96418152 82.4375 203.25 C79.24846862 201.85323894 77.31700496 200.19071994 75.4375 197.25 C74.59792141 192.55918665 74.58130538 187.9903134 74.65383911 183.2355957 C74.71017286 179.3895785 74.65360347 175.54511349 74.60546875 171.69921875 C74.59865585 170.95316376 74.59184296 170.20710876 74.58482361 169.43844604 C74.4802691 161.46325753 73.25206327 154.01177063 71.4375 146.25 C71.14271582 144.5630418 70.85071111 142.87559362 70.5625 141.1875 C69.51672349 135.99437051 67.85777654 130.98218161 66.20166016 125.95678711 C61.41927605 111.2882673 60.88930694 91.46647177 67.4375 77.25 C70.13962106 73.54166953 73.14226155 70.42492548 76.4375 67.25 C76.7675 66.59 77.0975 65.93 77.4375 65.25 C76.83164062 65.53875 76.22578125 65.8275 75.6015625 66.125 C69.4458875 68.85243754 64.18087138 70.08100132 57.4375 69.25 C55.89887193 67.71137193 56.31033 66.26937326 56.296875 64.12890625 C56.08546118 52.76541327 55.43841885 44.72177733 48.3125 35.5 C41.8600237 30.45023594 34.49401154 27.10128165 26.875 24.1953125 C22.99865438 22.69198615 19.22220378 20.96865776 15.4375 19.25 C15.4375 18.26 15.4375 17.27 15.4375 16.25 C14.42719727 16.12939209 14.42719727 16.12939209 13.39648438 16.00634766 C11.97819336 15.8369165 11.97819336 15.8369165 10.53125 15.6640625 C9.48420898 15.53902344 8.43716797 15.41398438 7.35839844 15.28515625 C5.0697893 15.01075835 2.78137805 14.73470508 0.49316406 14.45703125 C-4.5383911 13.84680013 -9.56855651 13.23991228 -14.609375 12.7109375 C-15.33189453 12.63149902 -16.05441406 12.55206055 -16.79882812 12.47021484 C-18.68277567 12.26418663 -20.56791985 12.06918422 -22.453125 11.875 C-25.85619188 11.19096646 -27.93701401 10.53989755 -30.5625 8.25 C-30.69238281 5.13671875 -30.69238281 5.13671875 -30.5625 2.25 C-20.30750665 0.64201997 -10.39830747 -0.06235867 0 0 Z " fill="#30384A" transform="translate(455.5625,514.75)"/>
<path d="M0 0 C5.507205 0.69301163 10.58277225 1.88961697 15.82885742 3.69384766 C16.60269775 3.95456055 17.37653809 4.21527344 18.17382812 4.48388672 C24.42573124 6.66237564 30.2140895 9.4013178 36.02807617 12.55322266 C39.09103587 14.17624122 39.09103587 14.17624122 42.43823242 14.89697266 C47.44931527 16.48275837 51.36260914 19.15400952 55.70385742 22.06884766 C56.58283691 22.65045654 57.46181641 23.23206543 58.36743164 23.83129883 C71.17423992 32.35164664 83.72990024 41.14633596 95.07885742 51.56884766 C98.56163867 54.76552365 102.13892304 57.55295715 106.01635742 60.25634766 C112.47879744 64.85024014 116.11139806 69.76180512 117.65307617 77.70556641 C118.35647082 89.91337136 113.43541711 100.60760802 109.28686523 111.87451172 C107.66567928 116.39531244 106.24780168 120.96269373 104.89135742 125.56884766 C104.65408936 126.3695166 104.41682129 127.17018555 104.17236328 127.99511719 C103.01530625 131.94519591 101.90779932 135.90608259 100.84057617 139.88134766 C98.81037713 147.44036701 96.69713197 154.68794464 93.53198242 161.86962891 C91.75442558 165.95900827 90.13209145 170.10087372 88.51635742 174.25634766 C88.08250732 175.36139648 88.08250732 175.36139648 87.63989258 176.48876953 C86.789186 178.67588191 85.95914521 180.86922188 85.14135742 183.06884766 C84.85454102 183.83672607 84.56772461 184.60460449 84.2722168 185.39575195 C82.66654133 189.90768104 81.86670457 193.6682247 81.89135742 198.50634766 C81.37882866 207.28084009 76.86249065 212.76103521 70.57885742 218.56884766 C66.33762791 221.9032664 62.90843466 223.15869904 57.45385742 222.88134766 C54.05855267 222.04853706 53.12482192 221.80791768 51.14135742 219.06884766 C50.77807617 216.42431641 50.77807617 216.42431641 50.82885742 213.25634766 C50.83272461 212.23927734 50.8365918 211.22220703 50.84057617 210.17431641 C51.01178543 206.5993153 51.5894848 203.12131322 52.14916992 199.58837891 C53.28850618 191.88573043 53.40286015 184.3430293 53.32885742 176.56884766 C53.32821289 175.25142578 53.32756836 173.93400391 53.3269043 172.57666016 C53.30115272 166.93420409 53.14354093 161.62930235 52.14135742 156.06884766 C50.86639224 132.97122259 60.6912376 119.81009106 74.14135742 102.06884766 C72.67762695 101.88708984 72.67762695 101.88708984 71.18432617 101.70166016 C69.91202148 101.53408203 68.6397168 101.36650391 67.32885742 101.19384766 C66.06428711 101.03142578 64.7997168 100.86900391 63.49682617 100.70166016 C60.14135742 100.06884766 60.14135742 100.06884766 57.14135742 98.06884766 C56.86425781 96.18041992 56.86425781 96.18041992 56.98901367 93.88525391 C57.02003174 93.04526855 57.0510498 92.2052832 57.08300781 91.33984375 C57.14282837 89.99913818 57.14282837 89.99913818 57.20385742 88.63134766 C57.41661064 77.46328786 56.17870853 70.15740984 48.51635742 61.63134766 C47.7403418 60.84888672 46.96432617 60.06642578 46.16479492 59.26025391 C44.30424651 57.24525842 43.20294953 55.57443332 42.14135742 53.06884766 C41.48135742 53.06884766 40.82135742 53.06884766 40.14135742 53.06884766 C40.14135742 52.40884766 40.14135742 51.74884766 40.14135742 51.06884766 C39.55354492 50.80587891 38.96573242 50.54291016 38.36010742 50.27197266 C33.57381838 47.67659057 30.00232966 43.39944111 27.07885742 38.88134766 C24.81042471 35.58846146 22.48516724 34.2324893 19.14135742 32.06884766 C18.05456599 31.0312076 16.99373185 29.96600137 15.95385742 28.88134766 C12.18543421 24.97863765 8.03486528 21.64908168 3.78979492 18.27978516 C-3.61839297 12.09536872 -3.61839297 12.09536872 -4.41723633 8.68212891 C-4.37727539 7.92287109 -4.33731445 7.16361328 -4.29614258 6.38134766 C-4.27422852 5.61435547 -4.25231445 4.84736328 -4.22973633 4.05712891 C-3.72349517 1.34474207 -2.85362764 0.1057038 0 0 Z " fill="#2F3648" transform="translate(1075.858642578125,491.93115234375)"/>
<path d="M0 0 C0.33 0 0.66 0 1 0 C1 2.97 1 5.94 1 9 C2.32 9.66 3.64 10.32 5 11 C6.42871094 12.38525391 6.42871094 12.38525391 7.734375 13.9765625 C8.22164062 14.56115234 8.70890625 15.14574219 9.2109375 15.74804688 C9.71882813 16.36744141 10.22671875 16.98683594 10.75 17.625 C11.82620085 18.90006405 12.90432143 20.17351029 13.984375 21.4453125 C14.50451172 22.05922852 15.02464844 22.67314453 15.56054688 23.30566406 C25.78794873 35.34402377 37.31607956 39.57237362 52.5625 42.625 C55.23517394 43.16150536 57.90039022 43.71882019 60.56640625 44.2890625 C61.73115479 44.52318848 62.89590332 44.75731445 64.09594727 44.99853516 C67.36311355 46.12521999 68.3518108 47.01241165 70 50 C70.66441083 53.40510552 70.57785487 56.58287745 70 60 C64.600098 67.76235912 54.74604198 69.83462598 46 71.6875 C45.05382813 71.89955078 44.10765625 72.11160156 43.1328125 72.33007812 C25.46418999 76.20885467 8.01477688 76.30685466 -8.875 69.3125 C-14.89125326 66.82378902 -20.4883933 65.78790904 -26.87744141 67.50439453 C-30.4911971 68.34818612 -34.11633717 68.22597945 -37.8125 68.25 C-38.59431641 68.270625 -39.37613281 68.29125 -40.18164062 68.3125 C-47.00050286 68.35807301 -51.76738848 67.07356796 -56.90625 62.30078125 C-59.34418006 58.4574027 -59.69828212 55.59901497 -59.5 51.1875 C-59.48372559 50.47899902 -59.46745117 49.77049805 -59.45068359 49.04052734 C-59.26738438 44.36371757 -58.54421671 40.38438313 -56.7890625 36.0703125 C-55.89630193 33.72792091 -55.44484567 31.4655006 -55 29 C-52.46625823 15.57745062 -52.46625823 15.57745062 -48 12 C-45.3125 11.8125 -45.3125 11.8125 -43 12 C-42.95875 12.5775 -42.9175 13.155 -42.875 13.75 C-41.53662757 17.1915291 -39.13712081 18.21614699 -36 20 C-30.24302379 22.30279048 -23.66929296 21.41848179 -18.07421875 19.12109375 C-14.78011613 17.3406654 -11.98801218 15.01013643 -9.1171875 12.62109375 C-7 11 -7 11 -3.5 9.5625 C-0.85299391 8.29050888 -0.85299391 8.29050888 -0.4140625 6.046875 C-0.05573618 3.55729388 -0.05573618 3.55729388 0 0 Z " fill="#1D2539" transform="translate(1072,708)"/>
<path d="M0 0 C1.32 0 2.64 0 4 0 C3.4190251 3.65368661 2.40763447 6.39465026 0.625 9.625 C-3.48157115 17.61263694 -5.52449339 26.05183008 -6 35 C-6.05285156 35.97582031 -6.10570312 36.95164062 -6.16015625 37.95703125 C-6.32154853 43.76013621 -5.91702834 48.8653071 -4.5 54.5 C-0.69675472 70.6458526 -1.63854754 91.78353843 -5 108 C-5.94875 108.61875 -6.8975 109.2375 -7.875 109.875 C-13.28882351 113.55639999 -13.54997813 118.72488945 -14.7734375 124.91015625 C-16.22882574 132.76189956 -17.44244878 140.65365415 -18.5703125 148.55859375 C-19 151 -19 151 -20 153 C-32.72880118 151.06300852 -42.32205966 136.76415285 -50 127.375 C-51.77719875 124.94636266 -51.77719875 124.94636266 -54 124 C-54.77552031 116.0109098 -54.52270794 110.16206388 -50.97265625 102.9140625 C-50.66066284 102.27239639 -50.34866943 101.63073029 -50.02722168 100.96961975 C-46.59273278 93.99535128 -42.81732833 87.20732174 -39 80.4375 C-31.87870758 67.77079925 -24.97497005 55.28041457 -20.23046875 41.4921875 C-16.52519827 30.97627699 -11.73045589 21.39757682 -6.1484375 11.7890625 C-3.92517357 7.94040416 -1.95553813 3.99071356 0 0 Z " fill="#040C1B" transform="translate(1127,593)"/>
<path d="M0 0 C1.15338867 0.04060547 1.15338867 0.04060547 2.33007812 0.08203125 C7.78168619 0.36726306 12.2129171 1.53334648 17.1875 3.75 C17.81406494 4.02505371 18.44062988 4.30010742 19.08618164 4.58349609 C29.28212147 9.21071197 38.3836891 14.85519861 47.1875 21.75 C48.22003906 22.55824219 49.25257812 23.36648438 50.31640625 24.19921875 C58.15782447 30.53352229 65.22103032 37.6281405 72.27246094 44.8203125 C73.01141602 45.573125 73.75037109 46.3259375 74.51171875 47.1015625 C75.17260498 47.78041504 75.83349121 48.45926758 76.5144043 49.15869141 C78.11333436 50.83473697 78.11333436 50.83473697 80.1875 51.75 C80.1875 52.41 80.1875 53.07 80.1875 53.75 C71.14838829 54.9233011 62.15664741 54.93613562 53.05737305 54.93530273 C50.3916011 54.9374864 47.72624582 54.95568628 45.06054688 54.97460938 C31.10051401 55.02135337 18.3151305 53.88532653 5.1875 48.75 C4.33414063 48.42515625 3.48078125 48.1003125 2.6015625 47.765625 C-8.97623257 42.72544923 -16.81417688 32.53998648 -22.8125 21.75 C-23.1940625 21.06679688 -23.575625 20.38359375 -23.96875 19.6796875 C-25.39291947 16.42255918 -25.47777347 13.18610319 -24.8125 9.75 C-17.98365573 0.91267212 -10.41539714 -0.56764344 0 0 Z " fill="#62C799" transform="translate(1008.8125,481.25)"/>
<path d="M0 0 C5.66925603 3.37764111 11.33044115 7.84247739 14 14 C15.00469536 20.61553251 15.29185839 28.62557861 11.796875 34.58984375 C8.28456794 37.34624125 3.82877196 37.26613921 -0.4921875 37.55078125 C-10.16031855 38.78890494 -17.65877881 46.73227189 -23.4375 54.125 C-27.93868477 60.1713676 -29.5435275 66.64233109 -30.6875 73.9375 C-30.81705078 74.71673828 -30.94660156 75.49597656 -31.08007812 76.29882812 C-31.3946519 78.19792168 -31.69845882 80.09879356 -32 82 C-42.12361516 78.4300936 -47.93065092 70.04338174 -53 61 C-53.37253906 60.35546875 -53.74507812 59.7109375 -54.12890625 59.046875 C-58.02514215 49.89159423 -57.52263196 34.57852626 -54.09375 25.35546875 C-49.61398358 15.70797178 -44.59710682 8.40210083 -36 2 C-34.91332031 1.17628906 -34.91332031 1.17628906 -33.8046875 0.3359375 C-24.30493527 -5.58899508 -9.75106086 -5.03164347 0 0 Z " fill="#62C69B" transform="translate(1000,443)"/>
<path d="M0 0 C1.21429688 0.49306641 1.21429688 0.49306641 2.453125 0.99609375 C9.66618872 4.19329531 16.7898616 8.89903418 20.02734375 16.37109375 C20.53799861 18.87372461 20.62959341 20.52391249 20 23 C18.0867087 25.61071684 15.6742351 27.2171766 13 29 C6.09197039 33.79624853 1.72904022 38.39520321 -2 46 C-2.37769531 46.7425 -2.75539063 47.485 -3.14453125 48.25 C-4.35674348 52.14679183 -4.2899647 55.81858293 -4.25 59.875 C-4.25773437 60.65230469 -4.26546875 61.42960938 -4.2734375 62.23046875 C-4.25680828 67.17766222 -3.44645105 71.23589534 -2 76 C-1.875 78.9375 -1.875 78.9375 -2 81 C-3.58323688 81.027193 -5.16661062 81.04648306 -6.75 81.0625 C-7.63171875 81.07410156 -8.5134375 81.08570313 -9.421875 81.09765625 C-11.7818838 81.00826198 -13.74498524 80.66912821 -16 80 C-16 79.34 -16 78.68 -16 78 C-17.02996094 77.77183594 -18.05992187 77.54367187 -19.12109375 77.30859375 C-23.18872635 76.1369109 -26.02512601 73.94798031 -29.0625 71.0625 C-29.58126709 70.57595947 -30.10003418 70.08941895 -30.63452148 69.58813477 C-35.33760611 64.99151834 -38.45400111 60.07466402 -41 54 C-41.33644531 53.2471875 -41.67289062 52.494375 -42.01953125 51.71875 C-46.56596603 39.59492391 -45.01798317 24.64830191 -40 13 C-37.03211064 6.70511724 -31.92209708 -0.18050685 -25.171875 -2.67578125 C-16.48882766 -3.97199155 -8.02139905 -3.61548461 0 0 Z " fill="#62C69A" transform="translate(333,512)"/>
<path d="M0 0 C-0.73865748 3.57304082 -2.13194775 6.67855755 -3.625 10 C-6.29098958 16.07386284 -8.60987123 22.24412153 -10.8125 28.5 C-11.11430176 29.34820313 -11.41610352 30.19640625 -11.72705078 31.0703125 C-16.39430174 44.50431867 -18.13910209 62.97216089 -11.875 76.109375 C-11 78 -11 78 -11 81 C-12.03898437 81.12117187 -13.07796875 81.24234375 -14.1484375 81.3671875 C-20.96281971 82.18009975 -27.67112077 83.06024704 -34.38037109 84.52880859 C-37.35173261 85.06326598 -40.2872239 85.325655 -43.296875 85.55859375 C-44.36776367 85.64294678 -45.43865234 85.7272998 -46.54199219 85.81420898 C-47.35313477 85.87552002 -48.16427734 85.93683105 -49 86 C-49.04487549 85.09983154 -49.08975098 84.19966309 -49.13598633 83.2722168 C-50.12415957 61.73275212 -50.12415957 61.73275212 -52.9597168 40.38354492 C-54.06926467 34.16736887 -54.47892768 27.9998412 -54.70922852 21.69360352 C-54.82655519 18.561663 -55.00215608 15.99353176 -56 13 C-56.12781786 10.32605036 -56.04391871 7.67904143 -56 5 C-54.783125 4.98582031 -53.56625 4.97164063 -52.3125 4.95703125 C-38.79095002 4.63909352 -25.74598133 2.91714768 -12.44140625 0.63989258 C-11.42484955 0.46864113 -11.42484955 0.46864113 -10.38775635 0.29393005 C-8.52917893 -0.02088673 -6.67224375 -0.34535457 -4.81542969 -0.67041016 C-2 -1 -2 -1 0 0 Z " fill="#040D1C" transform="translate(297,502)"/>
<path d="M0 0 C0.19617321 4.90433021 -0.43371118 8.39326817 -2 13 C-4.90967775 30.45806648 -3.64671954 47.99912498 4.83203125 63.73046875 C9.27373395 72.36133586 9.74569291 81.45427025 10 91 C10.03254883 92.04607422 10.06509766 93.09214844 10.09863281 94.16992188 C10.1968719 97.69660582 10.25958543 101.22236214 10.3125 104.75 C10.34239014 105.90564453 10.37228027 107.06128906 10.40307617 108.25195312 C10.41056885 109.33927734 10.41806152 110.42660156 10.42578125 111.546875 C10.44036377 112.52495117 10.45494629 113.50302734 10.4699707 114.51074219 C10 117 10 117 8.03442383 118.62353516 C7.36306396 119.07776855 6.6917041 119.53200195 6 120 C5.26577992 122.61382349 4.76046806 124.9618773 4.375 127.625 C4.13782035 129.06528601 3.89954467 130.50539196 3.66015625 131.9453125 C3.54945801 132.64043945 3.43875977 133.33556641 3.32470703 134.05175781 C2.71036328 137.7378203 1.84468301 141.36136548 1 145 C-3 145 -3 145 -5.62109375 142.5859375 C-6.57114651 141.5255989 -7.50960343 140.4547806 -8.4375 139.375 C-9.13456055 138.59189453 -9.13456055 138.59189453 -9.84570312 137.79296875 C-11.73041033 135.66380161 -13.5830687 133.51866552 -15.36474609 131.30224609 C-18.09545303 127.90640608 -19.97950509 126.5635258 -24 125 C-30.47574072 106.89039702 -23.3120692 83.21152348 -18.75610352 65.30371094 C-17.34388705 59.13318683 -16.85310139 53.13419387 -16.7890625 46.8203125 C-16.76095249 45.23436541 -16.73228786 43.64842808 -16.703125 42.0625 C-16.66232075 39.61035898 -16.62536398 37.1583915 -16.59863281 34.70605469 C-16.46269105 23.17913102 -15.35078845 12.29066137 -13 1 C-4.28571429 -0.13392857 -4.28571429 -0.13392857 0 0 Z " fill="#040C1C" transform="translate(520,589)"/>
<path d="M0 0 C5.15805846 1.22943972 10.37702488 1.98699294 15.61914062 2.76879883 C19.31841537 3.35187263 22.32019363 4.08225915 25.60546875 5.859375 C17.65404831 11.26821323 9.65687904 16.6008058 1.60546875 21.859375 C0.82913086 22.36903809 0.05279297 22.87870117 -0.74707031 23.40380859 C-18.11146754 34.61674908 -38.92621288 40.02175374 -59.3828125 35.93359375 C-69.34230552 33.6764302 -80.51033138 30.90788779 -86.39453125 21.859375 C-87.08203125 19.109375 -87.08203125 19.109375 -86.39453125 15.859375 C-78.51898168 4.99581204 -65.98374314 1.45285474 -53.359375 -0.69921875 C-36.16007745 -3.25985198 -16.95206089 -4.13560059 0 0 Z " fill="#62C69A" transform="translate(423.39453125,534.140625)"/>
<path d="M0 0 C4.09686159 1.58090659 6.59457457 4.5433991 9.4375 7.75 C9.90220703 8.26304687 10.36691406 8.77609375 10.84570312 9.3046875 C13.15387128 11.86717265 15.38866012 14.46798073 17.55859375 17.1484375 C19.78319296 19.74676938 21.93605757 21.77960339 24.625 23.875 C25.49769531 24.55820312 26.37039063 25.24140625 27.26953125 25.9453125 C29.9149341 27.93598761 32.60507402 29.8449207 35.3125 31.75 C49.22277474 41.8006633 61.19868325 54.65277226 71.75 68.125 C72.18078857 68.66954834 72.61157715 69.21409668 73.05541992 69.77514648 C76 73.63438179 76 73.63438179 76 77 C49.81748741 73.17609352 23.03611602 61.72767182 6.5 40.375 C-0.04769591 31.58566896 -4.10297328 24.67477733 -4.3125 13.625 C-4.34988281 12.33851563 -4.38726563 11.05203125 -4.42578125 9.7265625 C-3.91264663 5.23545769 -2.74215668 3.49395112 0 0 Z " fill="#4460BC" transform="translate(978,502)"/>
<path d="M0 0 C4.02803918 0.73881121 7.48950357 2.64119072 11.125 4.4375 C16.44211419 7.00862586 21.34613929 8.87420459 27.2421875 9.7109375 C29 10 29 10 30 11 C31.56571561 11.22641614 33.13962147 11.39666638 34.71484375 11.54296875 C47.91718716 12.89592372 59.61238996 15.27903184 72 20 C73.99848084 20.67120695 75.99839166 21.33817789 78 22 C85.54670622 24.66850034 92.38521824 27.46044389 99 32 C96.26297625 35.78639649 92.11201061 36.20077158 87.8125 37.125 C86.71711914 37.37830078 86.71711914 37.37830078 85.59960938 37.63671875 C62.737209 42.78025258 33.86396063 42.99609731 13 31 C6.84439692 26.46377903 2.18460239 20.3743151 0 13 C-0.37281362 8.62791302 -0.30850347 4.37389358 0 0 Z " fill="#4763BD" transform="translate(333,562)"/>
<path d="M0 0 C0.18175781 0.66386719 0.36351562 1.32773437 0.55078125 2.01171875 C3.01366116 11.23030654 3.01366116 11.23030654 9.83984375 17.40625 C15.45136077 20.44787599 21.29196136 22.06519605 27.4375 23.6875 C28.50548828 23.98205078 29.57347656 24.27660156 30.67382812 24.58007812 C37.07206773 26.31936745 43.4790407 27.80085841 50 29 C50 29.33 50 29.66 50 30 C49.02417969 30.01417969 48.04835938 30.02835937 47.04296875 30.04296875 C45.13451172 30.11451172 45.13451172 30.11451172 43.1875 30.1875 C41.29064453 30.23970703 41.29064453 30.23970703 39.35546875 30.29296875 C35.89124166 30.67834762 35.89124166 30.67834762 33.98828125 33.23828125 C32.8752267 36.34867479 33.0218063 37.88756551 34 41 C34.86782104 40.97643433 34.86782104 40.97643433 35.75317383 40.95239258 C53.11047862 40.54311179 65.26069147 42.17379431 80 52 C85.47261137 53.42408273 91.00750194 53.22249695 96.625 53.25 C98.16994141 53.2809375 98.16994141 53.2809375 99.74609375 53.3125 C106.04802276 53.34420782 111.25137797 52.50403459 117.26318359 50.67675781 C121.9880894 49.50838681 126.66084112 49.64422604 131.5 49.75 C132.96179688 49.75773437 132.96179688 49.75773437 134.453125 49.765625 C141.53151786 49.84383929 141.53151786 49.84383929 145 51 C157.27627597 52.38685963 169.66784455 52.10985201 182 52 C182.33 52.66 182.66 53.32 183 54 C185.52733235 54.65555119 185.52733235 54.65555119 188 55 C185.03371702 56.69048962 182.81220722 57.27033387 179.41015625 57.37890625 C178.54326172 57.41306641 177.67636719 57.44722656 176.78320312 57.48242188 C175.43645508 57.52206055 175.43645508 57.52206055 174.0625 57.5625 C172.28243066 57.62281958 170.50247204 57.68651902 168.72265625 57.75390625 C167.93640869 57.77783447 167.15016113 57.8017627 166.34008789 57.82641602 C163.97661659 57.94891632 163.97661659 57.94891632 161.61083984 58.50708008 C158.52934538 59.0888584 155.64009671 59.12968903 152.50390625 59.1328125 C150.60016235 59.13571289 150.60016235 59.13571289 148.65795898 59.13867188 C147.29280459 59.13455358 145.9276515 59.1299859 144.5625 59.125 C143.86649689 59.12411377 143.17049377 59.12322754 142.45339966 59.12231445 C133.93665194 59.10961765 125.44317555 58.96655604 116.9375 58.5 C108.0622052 58.01465883 99.1993759 57.88697527 90.3125 57.875 C89.05880615 57.87048828 87.8051123 57.86597656 86.51342773 57.86132812 C79.28050286 57.87293873 72.19017033 58.2351045 65 59 C56.75026001 59.72547965 49.69591151 58.50962064 41.75 56.5 C31.74908858 53.9883979 22.33527432 53.87166057 12.125 54.1875 C0.82455559 54.52699216 -8.14190749 53.90031376 -17.953125 47.84765625 C-23.55658842 44.44965856 -29.06301137 44.84555663 -35.4375 44.875 C-36.27087891 44.87113281 -37.10425781 44.86726563 -37.96289062 44.86328125 C-42.42202587 44.87033127 -46.61120425 45.10083209 -51 46 C-47.25 43 -47.25 43 -45 43 C-45 42.01 -45 41.02 -45 40 C-44.01 39.505 -44.01 39.505 -43 39 C-43.33 38.34 -43.66 37.68 -44 37 C-40.7 36.01 -37.4 35.02 -34 34 C-34.99 35.32 -35.98 36.64 -37 38 C-35.16888672 38.32871094 -35.16888672 38.32871094 -33.30078125 38.6640625 C-24.08194137 40.40872537 -15.95049653 42.41271691 -7.56640625 46.73046875 C-3.55928104 48.71268442 -0.25006349 49.12354688 4.203125 49.09765625 C5.1828125 49.09443359 6.1625 49.09121094 7.171875 49.08789062 C8.18765625 49.07951172 9.2034375 49.07113281 10.25 49.0625 C11.28125 49.05798828 12.3125 49.05347656 13.375 49.04882812 C15.91672573 49.03706088 18.45833319 49.02062011 21 49 C21.86916887 47.59248779 22.71985149 46.1735479 23.5625 44.75 C24.03816406 43.96109375 24.51382813 43.1721875 25.00390625 42.359375 C26.17930918 40.0910455 26.17930918 40.0910455 25.80493164 37.83300781 C24.4934443 34.84646037 22.07580621 33.58591771 19.4375 31.75 C10.88351292 25.58716312 2.12147464 18.61255375 -0.5234375 7.875 C-0.8125 5.9375 -0.8125 5.9375 -1 3 C-2.65 3 -4.3 3 -6 3 C-6 2.34 -6 1.68 -6 1 C-3.92446352 0.4465236 -2.15634036 0 0 0 Z " fill="#1D2435" transform="translate(387,305)"/>
<path d="M0 0 C2.97 0.33 5.94 0.66 9 1 C9.34611328 2.08667969 9.34611328 2.08667969 9.69921875 3.1953125 C12.25774481 10.77987592 14.30537108 15.65533165 21.25 20.0625 C27.52032494 22.92790662 34.33273613 24.58499972 40.95751953 26.43066406 C43.97601197 27.27206071 46.98760634 28.13705412 50 29 C50 29.33 50 29.66 50 30 C48.39125 30.2165625 48.39125 30.2165625 46.75 30.4375 C44.0164303 31.17253417 43.21162093 31.63832135 41.75878906 34.12133789 C41.26717285 35.34711548 41.26717285 35.34711548 40.765625 36.59765625 C40.42821289 37.41886963 40.09080078 38.24008301 39.74316406 39.08618164 C39.49791992 39.7177417 39.25267578 40.34930176 39 41 C39.94915283 40.96072388 39.94915283 40.96072388 40.91748047 40.9206543 C72.85866983 39.77969121 72.85866983 39.77969121 85.6875 49.1875 C92.92775949 54.19406242 103.20894438 53.41017596 111.70678711 53.7980957 C114 54 114 54 117 55 C119.21886768 55.22056375 121.4428184 55.39118375 123.66796875 55.53515625 C124.33075333 55.57826935 124.9935379 55.62138245 125.67640686 55.665802 C127.84644857 55.80402443 130.0168394 55.93437938 132.1875 56.0625 C132.93229614 56.10702301 133.67709229 56.15154602 134.44445801 56.19741821 C157.33988151 57.54462331 180.10061902 56.92146482 203 56 C203 56.33 203 56.66 203 57 C194.94927621 58.90189117 186.96663795 59.36745372 178.73144531 59.65795898 C177.8906543 59.68962158 177.04986328 59.72128418 176.18359375 59.75390625 C175.42618896 59.77783447 174.66878418 59.8017627 173.88842773 59.82641602 C171.91158348 59.89276421 171.91158348 59.89276421 170 61 C157.58676961 61.64355731 145.40297531 60.84905952 133.0625 59.5 C122.11851698 58.32024624 111.3217603 57.71110691 100.3125 57.75 C99.0551001 57.75322266 97.7977002 57.75644531 96.50219727 57.75976562 C89.85896981 57.82751273 83.29063933 58.13544608 76.67724609 58.77172852 C67.05506324 59.59214991 58.74397371 58.75441317 49.6875 55.4375 C39.21727626 51.86664765 27.22503221 52.73962167 16.25 52.4375 C14.7630122 52.3941755 13.27603292 52.35055752 11.7890625 52.30664062 C8.19279995 52.20105331 4.59643942 52.0994039 1 52 C1 51.34 1 50.68 1 50 C1.66 50 2.32 50 3 50 C-3.27194279 43.15788059 -10.737587 39.20049152 -20 38 C-23.45956756 37.88371502 -26.91399736 37.90540796 -30.375 37.9375 C-31.76525391 37.94426758 -31.76525391 37.94426758 -33.18359375 37.95117188 C-35.45579709 37.96288426 -37.72786388 37.97928628 -40 38 C-38.74458443 35.48916886 -37.49936512 35.12874554 -35 34 C-35.66 33.34 -36.32 32.68 -37 32 C-27.58997722 28.55580866 -27.58997722 28.55580866 -23 29 C-23.99 30.32 -24.98 31.64 -26 33 C-25.39414063 33.03738281 -24.78828125 33.07476562 -24.1640625 33.11328125 C-13.28064219 33.96721115 -4.23130145 37.10179741 5 43 C5.43578369 43.51626953 5.87156738 44.03253906 6.32055664 44.56445312 C9.79256536 47.53224078 15.14551107 46.51060777 19.5 46.5 C21.08748047 46.54253906 21.08748047 46.54253906 22.70703125 46.5859375 C28.58230282 46.79241566 28.58230282 46.79241566 33.28125 43.78125 C34.10970154 40.57550275 34.28846363 39.06134964 33 36 C30.72651371 34.15771416 30.72651371 34.15771416 27.875 32.6875 C18.3082004 26.92019261 13.11695951 19.36147529 9 9 C8.60768435 7.01072889 8.25663228 5.01128093 8 3 C6.576875 3.0928125 6.576875 3.0928125 5.125 3.1875 C4.09375 3.125625 3.0625 3.06375 2 3 C1.34 2.01 0.68 1.02 0 0 Z " fill="#1D2435" transform="translate(1090,250)"/>
<path d="M0 0 C22.2896333 2.85801982 42.5186091 14.6438655 60.12597656 28.06005859 C62.20658319 29.56383844 64.28973306 31.06410879 66.37597656 32.56005859 C68.80720103 34.31514372 71.00643973 35.94052176 73.12597656 38.06005859 C67.16650972 37.99083807 61.20772161 37.90270595 55.2487793 37.79760742 C53.22476782 37.76450632 51.20066733 37.73642903 49.17651367 37.71362305 C46.25433683 37.67980322 43.33296498 37.62747518 40.41113281 37.57177734 C39.51701187 37.56538742 38.62289093 37.5589975 37.70167542 37.55241394 C30.8349234 37.39440464 24.18015738 36.47431581 18.66503906 32.11474609 C18.03339844 31.39544922 17.40175781 30.67615234 16.75097656 29.93505859 C12.70127685 25.57275048 8.37231252 21.8861133 3.70410156 18.20068359 C-3.62754456 12.1131956 -3.62754456 12.1131956 -4.43261719 8.67333984 C-4.39265625 7.91408203 -4.35269531 7.15482422 -4.31152344 6.37255859 C-4.28960938 5.60556641 -4.26769531 4.83857422 -4.24511719 4.04833984 C-3.73668085 1.32419145 -2.86434355 0.09179631 0 0 Z " fill="#61C498" transform="translate(1075.8740234375,491.93994140625)"/>
<path d="M0 0 C0.825 0.474375 1.65 0.94875 2.5 1.4375 C6.52795901 3.23569599 9.63173579 3.6234255 14 4 C14 4.33 14 4.66 14 5 C11.36 5 8.72 5 6 5 C6.77030122 8.48809191 6.77030122 8.48809191 8 12 C11.24071877 13.08023959 14.16786517 13.46461997 17.5625 13.875 C18.23345703 13.95669434 18.90441406 14.03838867 19.59570312 14.12255859 C30.72433852 15.46592289 41.86306153 16.72771696 53 18 C52.67 19.32 52.34 20.64 52 22 C52.886875 22.103125 53.77375 22.20625 54.6875 22.3125 C58 23 58 23 60.390625 24.4375 C62.95158913 25.97101145 65.22239028 26.80933636 68.0625 27.6875 C78.85857368 31.50562362 86.3519073 37.11286848 91.70703125 47.22265625 C93.35004932 52.02265163 93.56052421 56.3983752 93.6875 61.4375 C93.72166016 62.35982422 93.75582031 63.28214844 93.79101562 64.23242188 C93.87282994 66.48815951 93.94219122 68.74354119 94 71 C101.92678325 71.21639586 101.92678325 71.21639586 109.625 69.5 C110.46289062 69.2215625 111.30078125 68.943125 112.1640625 68.65625 C112.76992188 68.4396875 113.37578125 68.223125 114 68 C112.63157284 71.10944587 111.07251311 72.98789694 108.625 75.3125 C99.53706885 85.69057586 100.03494619 101.35179554 100.75927734 114.35986328 C101.49422977 122.42048761 103.79722678 130.10884998 106.75 137.625 C108.00510772 141.01379085 108.26834931 143.42200914 108 147 C107.73058594 146.45085937 107.46117187 145.90171875 107.18359375 145.3359375 C106.35426989 143.69918612 105.48895673 142.08040681 104.59765625 140.4765625 C95.37225739 123.34032542 95.02459338 103.77436557 99 85 C99.33 84.67 99.66 84.34 100 84 C100.36760731 81.67182036 100.70241581 79.3381615 101 77 C100.34 77.165 99.68 77.33 99 77.5 C96.48868943 77.91855176 94.33894586 78.05195857 91.8125 78.03125 C90.554375 78.0209375 89.29625 78.010625 88 78 C87.97812622 76.93471069 87.97812622 76.93471069 87.95581055 75.84790039 C87.88068375 72.58559222 87.78423867 69.32423602 87.6875 66.0625 C87.66494141 64.94552734 87.64238281 63.82855469 87.61914062 62.67773438 C87.40278469 55.97070051 86.69056218 50.17900426 84 44 C83.74049561 43.30011963 83.48099121 42.60023926 83.21362305 41.87915039 C81.54841446 39.30077371 79.87411037 38.95777345 77 38 C75.44967577 37.27716671 73.90550817 36.54100798 72.3671875 35.79296875 C38.97849519 19.83712065 5.4332064 19.28156312 -30.8873291 20.90570068 C-32.85019803 20.99331357 -34.81327645 21.07619794 -36.77636719 21.15869141 C-42.52006034 21.40071497 -48.26051689 21.67302339 -54 22 C-54 21.01 -54 20.02 -54 19 C-36.98594377 14.4683132 -20.45815447 14.56169176 -3 15 C-1.864677 11.19251434 -0.79148644 7.5191212 -0.375 3.5625 C-0.189375 1.7990625 -0.189375 1.7990625 0 0 Z " fill="#1A2133" transform="translate(419,512)"/>
<path d="M0 0 C0 3.99508216 -1.7944277 6.68634224 -3.625 10.125 C-10.90164105 24.32245613 -14.89447661 38.20857461 -17 54 C-18.02738281 53.96777344 -19.05476563 53.93554688 -20.11328125 53.90234375 C-24.80289707 54.02017329 -28.75176839 55.147815 -33.23046875 56.44140625 C-35.97446932 56.99485065 -37.40372565 56.93565019 -40 56 C-39.01 56 -38.02 56 -37 56 C-36.690625 55.21625 -36.38125 54.4325 -36.0625 53.625 C-35 51 -35 51 -34 49 C-33.90527088 47.48154798 -33.8701159 45.95889616 -33.875 44.4375 C-33.87242187 43.63183594 -33.86984375 42.82617188 -33.8671875 41.99609375 C-33.77988609 40.00057979 -33.77988609 40.00057979 -35 39 C-37.52353103 38.83640975 -40.03627619 38.72062992 -42.5625 38.625 C-52.5942661 38.12262013 -62.39917162 36.76270706 -72.01953125 33.796875 C-84.86941451 29.84075233 -97.65678906 28.4638792 -111.03417969 27.30957031 C-114.05100285 26.99467636 -117.01387481 26.52866547 -120 26 C-120 25.34 -120 24.68 -120 24 C-110.11218738 23.68060901 -100.88633198 24.41362996 -91.13598633 26.13870239 C-65.12588849 30.6708693 -42.59342007 30.42733571 -18 20 C-17.23042969 19.7525 -16.46085937 19.505 -15.66796875 19.25 C-9.31426731 16.91747481 -7.35301876 11.87650719 -4.54296875 5.99609375 C-3.2154247 3.41830569 -2.1838567 1.84283403 0 0 Z " fill="#1B2234" transform="translate(461,578)"/>
<path d="M0 0 C3.04827404 1.10846329 5.42136359 2.28652724 8.125 4.125 C14.7868844 7.96673463 22.3045168 6.31600476 29.375 4.4375 C30.33148437 4.14746094 31.28796875 3.85742188 32.2734375 3.55859375 C39.03762838 2.17280679 44.25876141 6.1025376 50.0390625 9.2109375 C60.11170991 14.03714249 70.13918721 14.49463364 81.125 14.375 C81.85444824 14.3713443 82.58389648 14.3676886 83.33544922 14.36392212 C95.74131972 14.29086427 107.8507376 13.84191087 119.5625 9.3125 C125.95120703 6.87870685 133.28142457 7.77742143 140 8 C140 8.66 140 9.32 140 10 C142.97 10.33 145.94 10.66 149 11 C149 11.33 149 11.66 149 12 C141.41 12 133.82 12 126 12 C126 16.29 126 20.58 126 25 C125.67 25 125.34 25 125 25 C125 22.03 125 19.06 125 16 C122.04111327 16.30784377 119.08296833 16.62105574 116.125 16.9375 C115.28324219 17.02451172 114.44148438 17.11152344 113.57421875 17.20117188 C112.76855469 17.28818359 111.96289062 17.37519531 111.1328125 17.46484375 C110.38918457 17.543396 109.64555664 17.62194824 108.87939453 17.70288086 C106.91553684 17.91637347 106.91553684 17.91637347 105 19 C104.62596474 21.30061368 104.35210646 23.61776977 104.125 25.9375 C103.12017499 34.73546365 100.86277673 43.13217583 95 50 C90.41116109 52.51087412 86.18066053 53.47136117 81 54 C83.85321323 51.06654015 86.94160037 48.4585315 90.0625 45.81640625 C93.5596242 42.53785231 95.50186262 39.28815788 97.1875 34.8125 C97.53167969 33.93207031 97.87585937 33.05164063 98.23046875 32.14453125 C99.23243431 28.05020498 99.15139509 24.19207776 99 20 C97.78268188 20.00785522 97.78268188 20.00785522 96.54077148 20.01586914 C92.83968896 20.03674338 89.13861887 20.04969336 85.4375 20.0625 C84.16068359 20.07087891 82.88386719 20.07925781 81.56835938 20.08789062 C79.70727539 20.09272461 79.70727539 20.09272461 77.80859375 20.09765625 C76.10401001 20.10551147 76.10401001 20.10551147 74.36499023 20.11352539 C64.79050909 19.79050909 64.79050909 19.79050909 63 18 C51.1171337 14.53006721 51.1171337 14.53006721 39 15 C35.2937527 17.27546346 32.20933243 20.08149738 29 23 C27.38715521 24.28622473 25.76270777 25.55808554 24.125 26.8125 C23.42632813 27.35519531 22.72765625 27.89789063 22.0078125 28.45703125 C20.01672312 29.98714858 18.01211946 31.49767763 16 33 C15.34 32.67 14.68 32.34 14 32 C14.74443359 31.37738281 14.74443359 31.37738281 15.50390625 30.7421875 C22.10226627 24.75733724 25.40987421 17.98802988 29 10 C28.42894531 10.04640625 27.85789062 10.0928125 27.26953125 10.140625 C18.59894725 10.52659694 9.09097894 8.92667673 2.1875 3.3125 C0 1 0 1 0 0 Z " fill="#1E2537" transform="translate(1032,342)"/>
<path d="M0 0 C1.00524216 0.00123871 1.00524216 0.00123871 2.03079224 0.00250244 C14.36679907 0.03733594 25.87917823 1.29469627 37.81640625 4.375 C40.99617927 5.14507621 43.93880718 5.6667756 47.1875 5.9375 C48.0434375 6.01226563 48.899375 6.08703125 49.78125 6.1640625 C50.4103125 6.21304688 51.039375 6.26203125 51.6875 6.3125 C51.6875 6.9725 51.6875 7.6325 51.6875 8.3125 C50.71554687 8.39886719 49.74359375 8.48523438 48.7421875 8.57421875 C40.15284066 9.42436611 31.99775222 10.89480095 23.625 13 C11.58188889 15.94465833 1.24485017 15.58594666 -10.87109375 12.77734375 C-14.73300652 12.04203556 -18.62804125 11.91626265 -22.55078125 11.75390625 C-25.86812368 11.22369452 -27.75412309 10.50739166 -30.3125 8.3125 C-30.4465332 5.19750977 -30.4465332 5.19750977 -30.3125 2.3125 C-20.15234173 0.73263382 -10.30065441 -0.04274399 0 0 Z " fill="#60C098" transform="translate(455.3125,514.6875)"/>
<path d="M0 0 C58.67166213 -0.66416894 58.67166213 -0.66416894 78 9 C77.8125 10.8125 77.8125 10.8125 77 13 C73.22144742 16.00061529 69.71093046 16.4564311 65 17 C64.505 17.495 64.505 17.495 64 18 C62.23252271 18.12562235 60.45939708 18.17576558 58.6875 18.1875 C57.72199219 18.20167969 56.75648438 18.21585937 55.76171875 18.23046875 C52.98480842 17.99873224 51.36526859 17.42140844 49 16 C49 15.34 49 14.68 49 14 C48.3915625 13.92523438 47.783125 13.85046875 47.15625 13.7734375 C41.34848707 12.90227306 36.1225666 11.3796802 30.6875 9.1875 C20.77936052 5.21933919 10.42617383 3.14809168 0 1 C0 0.67 0 0.34 0 0 Z " fill="#2F3749" transform="translate(587,357)"/>
<path d="M0 0 C1.2684375 0.433125 1.2684375 0.433125 2.5625 0.875 C6.02361041 2.00772704 9.49372557 3.01824316 13 4 C13 4.33 13 4.66 13 5 C12.01773438 5.23783203 12.01773438 5.23783203 11.015625 5.48046875 C5.88244934 6.79276366 1.04760593 8.31815367 -3.8125 10.4375 C-21.29370907 17.93589975 -38.25687646 19.33636712 -57 19 C-53.9003304 16.9335536 -51.43975225 16.10158811 -47.8828125 15.046875 C-46.6450708 14.67747803 -45.4073291 14.30808105 -44.13208008 13.92749023 C-42.7964649 13.53472752 -41.46076995 13.142236 -40.125 12.75 C-38.76774025 12.34801445 -37.41056292 11.94575051 -36.0534668 11.54321289 C-32.66986092 10.54151185 -29.28419142 9.54701417 -25.89752197 8.5557251 C-24.12446233 8.03645114 -22.35200292 7.51512891 -20.57958984 6.99365234 C-17.65887452 6.13579757 -14.73635512 5.2845835 -11.8125 4.4375 C-10.95350098 4.18645508 -10.09450195 3.93541016 -9.20947266 3.67675781 C-6.05507423 2.77365011 -3.29873948 2 0 2 C0 1.34 0 0.68 0 0 Z " fill="#1B2334" transform="translate(553,383)"/>
<path d="M0 0 C5 2 5 2 7.4375 3.0625 C10.27714594 4.10139486 13.01093625 4.58292134 16 5 C16 5.33 16 5.66 16 6 C15.11957031 6.10957031 14.23914062 6.21914063 13.33203125 6.33203125 C11.58986328 6.56986328 11.58986328 6.56986328 9.8125 6.8125 C8.66394531 6.96332031 7.51539063 7.11414063 6.33203125 7.26953125 C2.88965998 8.02418943 0.9777853 9.17632676 -2 11 C-20.00604397 18.05320238 -36.83775113 19.31661062 -56 19 C-56 18.67 -56 18.34 -56 18 C-55.24493164 17.80889648 -54.48986328 17.61779297 -53.71191406 17.42089844 C-50.22342638 16.53518708 -46.7367234 15.64263034 -43.25 14.75 C-42.06277344 14.44964844 -40.87554688 14.14929688 -39.65234375 13.83984375 C-32.88841417 12.10265965 -26.25084854 10.18088486 -19.64892578 7.90185547 C-16.99036622 6.99672007 -14.31734705 6.17336573 -11.625 5.375 C-10.42423828 5.01728516 -10.42423828 5.01728516 -9.19921875 4.65234375 C-8.47347656 4.43707031 -7.74773437 4.22179687 -7 4 C-4.97975201 3.3974699 -2.96766531 2.75679435 -1 2 C-0.67 1.34 -0.34 0.68 0 0 Z " fill="#1C2334" transform="translate(1264,329)"/>
<path d="M0 0 C0.66 0.66 1.32 1.32 2 2 C1.113125 2.556875 0.22625 3.11375 -0.6875 3.6875 C-6.6968819 7.67891607 -6.6968819 7.67891607 -9.625 14 C-8.75509322 18.17555254 -7.36855001 19.37253099 -4 22 C2.44393032 26.13622142 9.24462691 28.03674522 16.6418457 29.65649414 C21.80791936 30.80791936 21.80791936 30.80791936 24 33 C26.66242821 33.46290221 26.66242821 33.46290221 29.625 33.625 C30.62789063 33.69976563 31.63078125 33.77453125 32.6640625 33.8515625 C33.43492187 33.90054688 34.20578125 33.94953125 35 34 C35 34.66 35 35.32 35 36 C35.99 36.33 36.98 36.66 38 37 C34.35352047 36.69475674 30.70796652 36.37959487 27.0625 36.0625 C26.02158203 35.97548828 24.98066406 35.88847656 23.90820312 35.79882812 C22.91884766 35.71181641 21.92949219 35.62480469 20.91015625 35.53515625 C19.99371338 35.456604 19.07727051 35.37805176 18.13305664 35.29711914 C16 35 16 35 15 34 C13.52829055 33.71578985 12.0503142 33.46383674 10.5703125 33.2265625 C4.85716772 32.12952473 0.04978531 29.97050361 -5.125 27.375 C-5.98609375 26.95476563 -6.8471875 26.53453125 -7.734375 26.1015625 C-9.82821481 25.07790748 -11.91629958 24.04409627 -14 23 C-13.85805236 25.06277107 -13.71127784 27.12521031 -13.5625 29.1875 C-13.48128906 30.33605469 -13.40007812 31.48460937 -13.31640625 32.66796875 C-13.04596188 35.51598171 -12.62478253 38.21210482 -12 41 C-14 40 -14 40 -15 37 C-15.22325814 34.94106379 -15.40705759 32.87766347 -15.5625 30.8125 C-15.64628906 29.72582031 -15.73007812 28.63914062 -15.81640625 27.51953125 C-15.87699219 26.68808594 -15.93757813 25.85664062 -16 25 C-17.20495909 25.98407311 -17.20495909 25.98407311 -17.11352539 27.85766602 C-17.10828857 28.64842529 -17.10305176 29.43918457 -17.09765625 30.25390625 C-17.09443359 31.10791016 -17.09121094 31.96191406 -17.08789062 32.84179688 C-17.07951172 33.73962891 -17.07113281 34.63746094 -17.0625 35.5625 C-17.05798828 36.46419922 -17.05347656 37.36589844 -17.04882812 38.29492188 C-17.03700225 40.53001314 -17.0205222 42.76497437 -17 45 C-20.78492414 39.32261379 -19.86646932 30.65155306 -19 24 C-17.5719666 19.54396267 -15.61949391 15.86359722 -13 12 C-12.59394531 11.38898437 -12.18789063 10.77796875 -11.76953125 10.1484375 C-8.60758794 5.9397075 -4.2693495 2.98748526 0 0 Z " fill="#333F53" transform="translate(347,539)"/>
<path d="M0 0 C0 0.33 0 0.66 0 1 C-1.68416016 0.94779297 -1.68416016 0.94779297 -3.40234375 0.89453125 C-16.90017918 0.59435283 -16.90017918 0.59435283 -29 6.0625 C-31.6964326 8.67466908 -31.95465627 9.64372785 -32.4375 13.4375 C-32.21889777 23.54785304 -24.2606656 31.37965537 -17.78125 38.37109375 C-15.05693707 41.0990259 -15.05693707 41.0990259 -11.71875 43.16015625 C-9 45 -9 45 -8 48 C-6.70644173 49.37195574 -5.37701298 50.71182656 -4 52 C-8.61891262 50.51504117 -11.94693201 47.87825668 -15.5625 44.75 C-16.47298096 43.97003662 -16.47298096 43.97003662 -17.40185547 43.17431641 C-22.47456645 38.70911572 -26.86773383 33.81274974 -31.09204102 28.54589844 C-34.37349291 24.3379001 -34.37349291 24.3379001 -39 22 C-42.23394361 23.28322447 -42.23394361 23.28322447 -45 25 C-42.56503852 15.26015408 -34.7420832 7.73312932 -27.0625 1.6875 C-18.17924443 -3.20735511 -9.490697 -2.71162771 0 0 Z " fill="#304152" transform="translate(1017,481)"/>
<path d="M0 0 C-0.33 0.99 -0.66 1.98 -1 3 C0.98 3 2.96 3 5 3 C1.50246825 5.13699457 -1.37435196 5.2900094 -5.43359375 5.37890625 C-7.35353149 5.42930054 -7.35353149 5.42930054 -9.31225586 5.48071289 C-10.68733651 5.50801197 -12.06241791 5.53527364 -13.4375 5.5625 C-15.53775319 5.61444778 -17.63789603 5.66985793 -19.73805237 5.72557068 C-21.14219024 5.7626992 -22.54635563 5.79880102 -23.95054626 5.83387756 C-30.11762769 5.99079026 -36.27648228 6.25191091 -42.4375 6.5625 C-43.31784912 6.60640869 -44.19819824 6.65031738 -45.10522461 6.69555664 C-47.0702599 6.79488192 -49.03515138 6.89704807 -51 7 C-51 6.01 -51 5.02 -51 4 C-33.98594377 -0.5316868 -17.45815447 -0.43830824 0 0 Z " fill="#182433" transform="translate(416,527)"/>
<path d="M0 0 C4.33054155 3.14176544 8.47115534 6.38140489 12.50292969 9.90136719 C17.5933885 14.32985182 22.7671598 18.3967107 28.4375 22.0625 C29.0042041 22.43221924 29.5709082 22.80193848 30.15478516 23.18286133 C35.72148172 26.68279647 40.55405267 28.28361098 47.125 28.25 C48.13820313 28.25515625 49.15140625 28.2603125 50.1953125 28.265625 C52.97594316 28.00227836 54.63042927 27.42854504 57 26 C56.67 28.31 56.34 30.62 56 33 C55.67 32.01 55.34 31.02 55 30 C54.43152344 30.32097656 53.86304688 30.64195312 53.27734375 30.97265625 C47.23019262 33.70061636 40.7928195 32.21305607 34.75 30.125 C20.96969784 24.36291841 8.84785122 13.95060448 0 2 C0 1.34 0 0.68 0 0 Z " fill="#1E2436" transform="translate(1019,448)"/>
<path d="M0 0 C-0.33 0.66 -0.66 1.32 -1 2 C-6.15950168 2.02480163 -11.31896831 2.04290809 -16.47851562 2.05493164 C-18.23210251 2.05994651 -19.98568524 2.06676002 -21.73925781 2.07543945 C-24.2662865 2.08763 -26.79325968 2.09325688 -29.3203125 2.09765625 C-30.09867462 2.10281754 -30.87703674 2.10797882 -31.6789856 2.11329651 C-35.9003949 2.1137272 -39.84091388 1.8358664 -44 1 C-37.24933916 -9.12599126 -10.39125869 -2.31529371 0 0 Z " fill="#252D3E" transform="translate(546,358)"/>
<path d="M0 0 C5.94 0.99 5.94 0.99 12 2 C12 2.33 12 2.66 12 3 C9.36 3 6.72 3 4 3 C4.77030122 6.48809191 4.77030122 6.48809191 6 10 C9.41569932 11.13856644 12.75680395 11.52535487 16.3125 11.9375 C23.8927988 12.84762311 31.44598417 13.89050393 39 15 C39 15.33 39 15.66 39 16 C34.05 16 29.1 16 24 16 C24 15.34 24 14.68 24 14 C15.42 14 6.84 14 -2 14 C-1.41529465 9.32235723 -0.77498426 4.64990555 0 0 Z " fill="#224144" transform="translate(421,514)"/>
<path d="M0 0 C1.50121651 0.00033989 1.50121651 0.00033989 3.03276062 0.00068665 C4.65006828 0.02391243 4.65006828 0.02391243 6.30004883 0.04760742 C7.40560623 0.05185226 8.51116364 0.05609711 9.65022278 0.06047058 C13.18608819 0.0772818 16.72138653 0.11493932 20.25708008 0.15307617 C22.65225415 0.16811981 25.04743714 0.18180877 27.44262695 0.1940918 C33.31847193 0.22719332 39.1939855 0.27741724 45.06958008 0.34057617 C45.06958008 0.67057617 45.06958008 1.00057617 45.06958008 1.34057617 C35.16958008 1.67057617 25.26958008 2.00057617 15.06958008 2.34057617 C16.05958008 3.00057617 17.04958008 3.66057617 18.06958008 4.34057617 C9.02244266 5.39827909 0.80331327 6.31376194 -7.93041992 3.34057617 C-5.46450851 0.28114628 -3.86868751 -0.02923441 0 0 Z " fill="#232B3D" transform="translate(575.930419921875,355.659423828125)"/>
<path d="M0 0 C6.45880476 -0.55893503 12.26032684 0.31788732 18.5 1.875 C19.20640625 2.04870117 19.9128125 2.22240234 20.640625 2.40136719 C25.73725788 3.73725788 25.73725788 3.73725788 28 6 C30.66242821 6.46290221 30.66242821 6.46290221 33.625 6.625 C34.62789063 6.69976563 35.63078125 6.77453125 36.6640625 6.8515625 C37.43492187 6.90054688 38.20578125 6.94953125 39 7 C39 7.66 39 8.32 39 9 C39.99 9.33 40.98 9.66 42 10 C38.35352047 9.69475674 34.70796652 9.37959487 31.0625 9.0625 C30.02158203 8.97548828 28.98066406 8.88847656 27.90820312 8.79882812 C26.91884766 8.71181641 25.92949219 8.62480469 24.91015625 8.53515625 C23.99371338 8.456604 23.07727051 8.37805176 22.13305664 8.29711914 C20 8 20 8 19 7 C17.50546 6.70049893 16.00388968 6.43582746 14.5 6.1875 C9.26005855 5.19840442 4.75698362 3.36700151 0 1 C0 0.67 0 0.34 0 0 Z " fill="#344061" transform="translate(343,566)"/>
<path d="M0 0 C0.33 0 0.66 0 1 0 C1.01981934 0.68924561 1.03963867 1.37849121 1.06005859 2.08862305 C1.48721701 18.71770806 1.48721701 18.71770806 3.58984375 35.1875 C4.30771644 40.11005561 4.16090556 45.03874539 4 50 C3.34 50 2.68 50 2 50 C1.01 45.71 0.02 41.42 -1 37 C-1.99 37 -2.98 37 -4 37 C-3.69201674 35.51988629 -3.378482 34.04092675 -3.0625 32.5625 C-2.80146484 31.32693359 -2.80146484 31.32693359 -2.53515625 30.06640625 C-2 28 -2 28 -1 27 C-0.84174742 25.00217874 -0.74880829 22.99911166 -0.68359375 20.99609375 C-0.64169922 19.78115234 -0.59980469 18.56621094 -0.55664062 17.31445312 C-0.51732422 16.03505859 -0.47800781 14.75566406 -0.4375 13.4375 C-0.39431641 12.15423828 -0.35113281 10.87097656 -0.30664062 9.54882812 C-0.200152 6.36600147 -0.09814038 3.18309326 0 0 Z " fill="#1B2334" transform="translate(1009,360)"/>
<path d="M0 0 C8.61713392 0.84279354 16.12447752 3.30443665 24.14770508 6.43579102 C29.05663052 8.34325039 33.86301105 9.82717147 39 11 C39 11.66 39 12.32 39 13 C43.29 13.66 47.58 14.32 52 15 C52 15.33 52 15.66 52 16 C48.37 16.33 44.74 16.66 41 17 C40.505 16.01 40.505 16.01 40 15 C37.8407243 14.20979698 35.6438603 13.52219902 33.4375 12.875 C25.90943742 10.62029922 18.45083939 8.18529048 11 5.6875 C9.91904053 5.32575684 8.83808105 4.96401367 7.72436523 4.59130859 C5.14914119 3.72882902 2.57434439 2.86510095 0 2 C0 1.34 0 0.68 0 0 Z " fill="#20283A" transform="translate(597,360)"/>
<path d="M0 0 C8.96977392 1.10221798 16.86178901 4.03900681 25.20703125 7.31005859 C29.8538227 9.09816216 34.6032151 10.58613781 39.375 12 C41.97946977 12.99217896 43.25435933 13.86643918 45 16 C44.34 16 43.68 16 43 16 C42.505 17.485 42.505 17.485 42 19 C42 18.01 42 17.02 42 16 C41.02208496 15.7534668 41.02208496 15.7534668 40.02441406 15.50195312 C32.74673492 13.60073995 25.77162107 11.186302 18.75 8.5 C17.71359375 8.10941406 16.6771875 7.71882813 15.609375 7.31640625 C10.35188011 5.3247277 5.1448102 3.2672045 0 1 C0 0.67 0 0.34 0 0 Z " fill="#1E2536" transform="translate(1308,306)"/>
<path d="M0 0 C5.35851371 -0.47354307 9.05573343 1.11275063 13.6875 3.5625 C14.38359375 3.92021484 15.0796875 4.27792969 15.796875 4.64648438 C21.75768008 7.75861742 27.43283262 11.22564923 33 15 C32.67 15.99 32.34 16.98 32 18 C32.66 18.33 33.32 18.66 34 19 C33.67 19.66 33.34 20.32 33 21 C31.69289063 20.03900391 31.69289063 20.03900391 30.359375 19.05859375 C20.79163465 12.08586138 11.11198887 5.29326843 0 1 C0 0.67 0 0.34 0 0 Z " fill="#334852" transform="translate(1026,485)"/>
<path d="M0 0 C0.33 0 0.66 0 1 0 C1.020625 1.010625 1.04125 2.02125 1.0625 3.0625 C2.27013098 11.09727149 11.53501685 16.06883929 17.3984375 20.77734375 C20.69660933 23.59515122 23.32121138 26.59721445 26 30 C21.18626046 28.70127848 18.27416824 26.87520666 14.625 23.5 C13.75101563 22.7059375 12.87703125 21.911875 11.9765625 21.09375 C10 19 10 19 10 17 C8.948125 16.690625 8.948125 16.690625 7.875 16.375 C4.12597888 14.5819899 1.34252491 12.46662244 -1 9 C-1.41125236 5.47497974 -1.59525427 3.19050854 0 0 Z " fill="#26684E" transform="translate(1071,496)"/>
<path d="M0 0 C0 4.70463566 -2.94853979 7.57976142 -6 11 C-7.65948148 12.01187895 -9.32580562 13.0126546 -11 14 C-12.40887556 15.79977744 -13.66090784 17.64566283 -14.88671875 19.57421875 C-15.43779297 20.27998047 -15.43779297 20.27998047 -16 21 C-16.66 21 -17.32 21 -18 21 C-17.46537463 16.45568437 -15.95036951 13.49385863 -13 10 C-11.80375 9.690625 -10.6075 9.38125 -9.375 9.0625 C-8.26125 8.711875 -7.1475 8.36125 -6 8 C-4.45913678 4.48599332 -4.45913678 4.48599332 -4 1 C-2.68 0.67 -1.36 0.34 0 0 Z " fill="#21283A" transform="translate(1073,441)"/>


<path d="M0 0 C1.02083333 0.875 2.04166667 1.75 3.0625 2.625 C4.01382813 3.43904297 4.01382813 3.43904297 4.984375 4.26953125 C6.31099026 5.40846645 7.63401813 6.55159577 8.953125 7.69921875 C9.56671875 8.23160156 10.1803125 8.76398437 10.8125 9.3125 C11.37582031 9.80363281 11.93914063 10.29476562 12.51953125 10.80078125 C14.00557548 12.09256855 14.00557548 12.09256855 16 13 C16.33 13.99 16.66 14.98 17 16 C18.29355827 17.37195574 19.62298702 18.71182656 21 20 C15.99231721 18.46431061 12.6696574 15.45212317 8.8125 12.0625 C8.18408203 11.52431641 7.55566406 10.98613281 6.90820312 10.43164062 C4.14260763 8.03281929 2.05245234 6.07867851 0 3 C0 2.01 0 1.02 0 0 Z " fill="#2D3E5E" transform="translate(992,513)"/>
<path d="M0 0 C7.12384541 -0.66268329 13.30879185 1.74611936 20 4 C20 3.34 20 2.68 20 2 C20.99 2.33 21.98 2.66 23 3 C21.80859375 4.51171875 21.80859375 4.51171875 20 6 C17.66015625 6.14453125 17.66015625 6.14453125 15.0625 5.8125 C14.20785156 5.71582031 13.35320312 5.61914062 12.47265625 5.51953125 C10.00618303 5.00129912 8.21853736 4.162091 6 3 C4.00889599 2.61709538 2.00899487 2.27395385 0 2 C0 1.34 0 0.68 0 0 Z " fill="#263944" transform="translate(1011,479)"/>
<path d="M0 0 C0.33 0.99 0.66 1.98 1 3 C3.01508358 3.73323796 3.01508358 3.73323796 5 4 C4.34 4 3.68 4 3 4 C3.14194764 6.06277107 3.28872216 8.12521031 3.4375 10.1875 C3.55931641 11.91033203 3.55931641 11.91033203 3.68359375 13.66796875 C3.95403812 16.51598171 4.37521747 19.21210482 5 22 C3 21 3 21 2 18 C1.77674186 15.94106379 1.59294241 13.87766347 1.4375 11.8125 C1.35371094 10.72582031 1.26992188 9.63914062 1.18359375 8.51953125 C1.12300781 7.68808594 1.06242187 6.85664062 1 6 C-0.20495909 6.98407311 -0.20495909 6.98407311 -0.11352539 8.85766602 C-0.10828857 9.64842529 -0.10305176 10.43918457 -0.09765625 11.25390625 C-0.09443359 12.10791016 -0.09121094 12.96191406 -0.08789062 13.84179688 C-0.07951172 14.73962891 -0.07113281 15.63746094 -0.0625 16.5625 C-0.05798828 17.46419922 -0.05347656 18.36589844 -0.04882812 19.29492188 C-0.03700225 21.53001314 -0.0205222 23.76497437 0 26 C-2.02186033 22.96720951 -2.25474783 22.35219748 -2.265625 18.9453125 C-2.26820313 18.16542969 -2.27078125 17.38554688 -2.2734375 16.58203125 C-2.26570313 15.77121094 -2.25796875 14.96039062 -2.25 14.125 C-2.25773437 13.32191406 -2.26546875 12.51882813 -2.2734375 11.69140625 C-2.25912723 7.34823871 -2.01711034 3.95417662 0 0 Z " fill="#3A566A" transform="translate(330,558)"/>
<path d="M0 0 C-0.45082469 1.46067199 -0.91093537 2.91848032 -1.375 4.375 C-1.63023437 5.18710937 -1.88546875 5.99921875 -2.1484375 6.8359375 C-3 9 -3 9 -5 11 C-4.71447643 12.89667109 -4.71447643 12.89667109 -4 15 C-3.65939189 16.66519519 -3.32441604 18.33157466 -3 20 C-5.64752004 17.42215154 -7.94432065 15.08351902 -10 12 C-9.175 11.236875 -8.35 10.47375 -7.5 9.6875 C-4.65944803 7.24565858 -4.65944803 7.24565858 -5 4 C-5.66 3.34 -6.32 2.68 -7 2 C-2.25 0 -2.25 0 0 0 Z " fill="#202739" transform="translate(375,486)"/>
<path d="M0 0 C5.5112467 0.8625044 9.2114281 3.36675517 13.8125 6.375 C14.60076172 6.87 15.38902344 7.365 16.20117188 7.875 C17.31782227 8.59816406 17.31782227 8.59816406 18.45703125 9.3359375 C19.13741455 9.77470215 19.81779785 10.2134668 20.51879883 10.66552734 C21.00759521 11.10590332 21.4963916 11.5462793 22 12 C22 12.99 22 13.98 22 15 C17.29286383 12.75208333 13.07948384 9.82945991 8.75 6.9375 C7.90953125 6.38255859 7.0690625 5.82761719 6.203125 5.25585938 C5.4090625 4.72669922 4.615 4.19753906 3.796875 3.65234375 C3.06823242 3.16757568 2.33958984 2.68280762 1.58886719 2.18334961 C1.06454102 1.79284424 0.54021484 1.40233887 0 1 C0 0.67 0 0.34 0 0 Z " fill="#33484F" transform="translate(1117,507)"/>

<path d="M0 0 C0.66 0.66 1.32 1.32 2 2 C1.113125 2.556875 0.22625 3.11375 -0.6875 3.6875 C-6.58275627 7.58917329 -6.58275627 7.58917329 -9.5625 13.6875 C-9.706875 14.450625 -9.85125 15.21375 -10 16 C-11.9375 17.25 -11.9375 17.25 -14 18 C-14.66 18.33 -15.32 18.66 -16 19 C-13.33267761 10.46456834 -7.22409589 4.84051095 0 0 Z " fill="#2D6159" transform="translate(347,539)"/>




<path d="M0 0 C1.16144531 0.00902344 2.32289063 0.01804687 3.51953125 0.02734375 C4.39996094 0.03894531 5.28039062 0.05054688 6.1875 0.0625 C6.5175 0.7225 6.8475 1.3825 7.1875 2.0625 C0.47587062 2.94271369 -6.04655981 3.17631955 -12.8125 3.0625 C-12.4825 2.4025 -12.1525 1.7425 -11.8125 1.0625 C-7.88476248 -0.07920067 -4.06671021 -0.04107788 0 0 Z " fill="#333A4B" transform="translate(458.8125,355.9375)"/>







<path d="M0 0 C1 2 1 2 0.44140625 4.1640625 C0.15136719 4.97617187 -0.13867188 5.78828125 -0.4375 6.625 C-0.72496094 7.44226563 -1.01242187 8.25953125 -1.30859375 9.1015625 C-1.53675781 9.72804688 -1.76492188 10.35453125 -2 11 C-2.66 10.67 -3.32 10.34 -4 10 C-4.25 6.6875 -4.25 6.6875 -4 3 C-2 1.0625 -2 1.0625 0 0 Z " fill="#223439" transform="translate(1072,492)"/>







</svg>
