<svg xmlns="http://www.w3.org/2000/svg"   viewBox="0 0 1254 836">
<g>
<path d="M 0.00 0.00 L 1254.00 0.00 L 1254.00 836.00 L 0.00 836.00 ZM 841.65 549.31 C842.69,550.35 847.09,550.14 851.01,548.86 C852.93,548.23 861.25,547.43 869.50,547.08 C883.73,546.48 884.82,546.29 890.78,543.29 C895.83,540.75 897.60,540.30 899.78,541.01 C903.58,542.25 917.41,543.70 938.22,545.05 C959.37,546.41 971.72,545.39 984.16,541.25 C991.72,538.73 993.20,538.55 1000.00,539.31 C1010.16,540.43 1029.46,539.38 1040.89,537.07 C1048.53,535.53 1051.48,535.36 1056.64,536.17 C1064.66,537.41 1075.32,535.89 1081.92,532.54 C1090.99,527.95 1099.85,515.48 1100.08,507.00 C1100.14,504.71 1100.21,504.67 1101.00,506.50 C1101.47,507.60 1101.89,509.74 1101.93,511.25 C1102.00,513.89 1102.20,514.00 1107.25,513.98 C1110.14,513.98 1115.20,513.33 1118.50,512.56 L 1124.50 511.14 L 1129.67 514.57 C1139.32,520.97 1143.60,522.39 1153.50,522.45 C1161.54,522.49 1163.12,522.19 1168.32,519.55 C1179.50,513.89 1185.32,503.95 1185.28,490.58 C1185.25,480.93 1182.63,474.15 1176.10,466.81 C1169.84,459.76 1163.17,456.92 1150.74,456.01 C1145.11,455.60 1138.80,454.54 1136.73,453.67 C1132.50,451.89 1130.36,452.29 1129.49,455.04 C1128.86,457.00 1127.91,457.42 1121.53,458.50 C1119.35,458.87 1116.34,459.81 1114.83,460.59 C1113.33,461.36 1111.24,462.00 1110.18,462.00 C1109.13,462.00 1107.08,462.93 1105.63,464.07 C1102.10,466.85 1102.05,472.80 1105.51,478.85 C1106.88,481.25 1108.00,483.38 1108.00,483.60 C1108.00,484.60 1103.87,483.79 1096.55,481.35 C1090.72,479.41 1087.38,477.57 1084.05,474.48 C1078.89,469.70 1077.18,468.74 1062.82,462.63 C1042.61,454.02 1021.97,448.95 1012.98,450.39 C1009.70,450.91 1007.01,450.24 997.72,446.57 C991.53,444.12 984.44,441.66 981.98,441.11 C977.98,440.21 964.76,435.39 959.50,432.92 C957.84,432.13 958.01,432.04 960.50,432.35 C962.15,432.55 964.22,433.03 965.09,433.41 C967.87,434.61 974.38,417.72 978.02,399.88 C979.10,394.58 981.40,387.23 983.13,383.54 C985.95,377.50 986.21,376.18 985.68,370.46 C985.35,366.97 983.99,360.82 982.65,356.80 C981.07,352.06 979.97,345.82 979.52,339.00 C979.13,333.23 977.92,323.33 976.83,317.00 C972.07,289.39 971.01,280.18 971.01,266.17 C971.00,252.73 971.19,251.30 974.06,243.18 C976.39,236.57 977.24,232.15 977.64,224.51 C977.97,218.40 979.12,211.15 980.61,205.91 C983.74,194.92 982.88,192.02 976.50,192.04 C966.95,192.06 954.94,203.74 950.96,216.87 C948.63,224.59 948.60,224.63 934.72,237.92 C928.92,243.48 925.44,249.11 926.35,251.48 C926.64,252.22 930.39,255.41 934.69,258.58 C938.98,261.74 942.87,264.82 943.32,265.41 C944.89,267.51 943.02,289.70 939.84,306.54 C935.61,328.96 935.61,337.21 939.87,349.82 C941.59,354.94 943.64,360.34 944.42,361.82 C945.72,364.28 945.60,364.94 942.91,370.00 C939.97,375.53 937.84,378.30 923.94,394.70 C915.09,405.14 906.52,418.42 907.56,420.09 L 907.60 420.17 C907.82,420.52 907.98,420.77 907.91,420.86 C907.73,421.11 905.89,420.17 899.05,416.66 L 898.50 416.37 C882.98,408.40 861.43,400.86 845.89,397.96 C842.38,397.31 836.58,395.75 833.00,394.51 C819.64,389.86 805.76,389.05 798.95,392.54 C793.88,395.13 783.32,408.48 778.01,419.00 C776.76,421.48 772.73,427.10 769.04,431.50 C765.36,435.90 757.02,446.25 750.51,454.50 C730.50,479.87 721.93,488.17 716.62,487.35 C713.97,486.93 712.59,487.64 707.50,491.99 C698.22,499.94 687.05,505.52 677.50,506.98 C664.55,508.96 659.00,512.02 659.00,517.15 C659.00,522.30 664.86,526.05 678.06,529.36 C686.57,531.49 689.65,531.43 704.82,528.87 C715.58,527.05 718.35,526.90 723.59,527.87 C731.20,529.27 746.27,529.33 751.14,527.98 C757.18,526.30 757.45,525.44 755.66,513.17 C754.79,507.21 753.60,501.07 753.01,499.53 C752.14,497.25 752.27,496.36 753.67,494.81 C755.51,492.78 778.47,477.36 791.14,469.65 C795.34,467.09 800.42,463.31 802.43,461.25 C807.79,455.75 812.00,446.74 812.00,440.79 L 812.00 435.91 L 815.75 436.61 C826.72,438.65 829.09,440.16 837.32,450.37 C845.33,460.31 855.01,469.12 863.00,473.77 C865.47,475.21 869.30,477.82 871.50,479.56 C873.70,481.31 876.51,483.26 877.75,483.90 C878.99,484.55 880.00,485.40 880.00,485.81 C880.00,487.09 873.87,489.83 862.00,493.86 C829.12,505.03 828.53,505.28 828.18,508.25 C827.93,510.44 828.40,511.20 830.50,512.00 C834.70,513.60 843.51,513.16 849.75,511.05 C853.56,509.76 857.86,509.15 862.50,509.24 C866.63,509.33 871.55,508.72 874.50,507.76 C877.25,506.87 884.10,505.70 889.71,505.16 C897.42,504.43 900.66,503.67 902.91,502.06 L 905.89 499.94 L 911.83 501.94 C925.68,506.61 931.74,506.74 954.81,502.86 C963.47,501.40 970.88,502.56 979.86,506.77 L 985.50 509.41 L 970.50 510.10 C960.48,510.56 951.35,511.66 943.00,513.42 C936.12,514.87 922.17,517.60 912.00,519.50 C901.83,521.39 891.92,523.41 890.00,523.98 C888.08,524.55 881.10,525.50 874.50,526.07 C865.71,526.84 861.03,527.77 857.00,529.54 C853.97,530.87 847.03,533.67 841.57,535.77 C836.11,537.86 831.46,540.12 831.24,540.79 C831.01,541.46 831.88,542.42 833.17,542.94 C835.01,543.68 835.12,543.89 833.68,543.94 C832.49,543.98 831.97,544.62 832.19,545.75 C832.42,546.97 833.81,547.67 836.74,548.06 C839.06,548.38 841.27,548.94 841.65,549.31 ZM 236.00 549.00 C238.24,550.44 241.81,550.19 248.50,548.10 C253.29,546.61 256.46,546.34 264.19,546.75 C274.43,547.30 280.35,546.33 287.30,542.97 C291.07,541.15 291.89,541.12 303.39,542.44 C343.05,547.01 364.50,546.66 380.50,541.19 C387.50,538.79 389.25,538.56 394.50,539.29 C405.57,540.85 439.53,538.26 443.94,535.54 C444.43,535.23 448.22,535.49 452.36,536.11 C461.40,537.45 470.83,536.13 477.93,532.54 C482.90,530.02 489.84,523.15 492.39,518.22 C493.87,515.35 494.30,515.18 502.22,514.55 C506.77,514.19 512.77,513.41 515.54,512.83 C520.50,511.79 520.70,511.85 526.97,515.90 C534.96,521.07 541.39,523.01 550.43,522.98 C559.08,522.95 564.07,520.89 570.87,514.52 C578.00,507.86 580.44,501.74 580.47,490.50 C580.50,482.71 580.14,480.76 577.80,475.99 C574.48,469.23 568.67,463.22 561.88,459.53 C557.70,457.25 554.90,456.60 546.63,455.96 C541.06,455.54 534.49,454.46 532.03,453.56 L 527.57 451.94 L 524.73 454.97 C522.80,457.03 520.88,458.04 518.70,458.12 C514.43,458.27 514.09,458.35 509.78,460.31 C507.74,461.24 505.35,462.00 504.49,462.00 C503.62,462.00 501.80,463.10 500.45,464.45 C497.42,467.49 497.29,471.83 500.05,477.92 C501.15,480.35 501.68,482.72 501.23,483.17 C500.77,483.63 496.82,482.81 492.45,481.35 C486.51,479.37 483.62,477.76 481.00,474.98 C475.64,469.28 463.32,464.00 455.41,464.00 C453.63,464.00 449.35,462.66 445.89,461.03 C435.94,456.32 422.76,453.68 411.76,454.19 C405.73,454.47 401.38,455.21 399.30,456.31 C396.53,457.77 392.54,458.00 369.62,458.00 L 343.14 458.00 L 336.82 449.25 C333.35,444.44 327.97,437.54 324.86,433.92 C319.64,427.85 319.07,426.70 317.49,418.92 C316.55,414.29 314.22,405.55 312.32,399.50 C309.49,390.50 308.98,387.57 309.49,383.39 C310.24,377.23 308.33,368.33 304.17,358.50 C301.86,353.07 301.04,349.25 300.49,341.50 C299.78,331.54 299.40,329.01 294.48,300.50 C292.51,289.11 291.84,281.53 291.70,269.00 C291.51,253.01 291.59,252.27 294.37,245.00 C296.66,239.02 297.39,235.07 298.00,225.50 C298.52,217.31 299.43,211.68 300.88,207.77 C303.43,200.89 303.56,197.28 301.35,194.83 C298.24,191.39 291.04,193.27 283.44,199.50 C277.65,204.24 273.36,211.06 270.89,219.45 C269.10,225.53 268.12,227.12 263.73,231.00 C252.64,240.81 248.08,246.03 247.39,249.73 C247.36,249.92 247.32,250.09 247.29,250.25 C247.12,251.10 247.00,251.73 247.08,252.33 C247.33,254.15 249.47,255.70 258.00,262.36 L 263.50 266.65 L 263.35 279.58 C263.24,288.81 262.32,297.76 260.10,310.94 C258.39,321.08 257.00,331.48 257.00,334.06 C257.00,340.79 261.22,356.45 265.50,365.62 C268.81,372.72 269.13,374.09 268.65,379.51 C268.36,382.82 267.81,386.34 267.42,387.34 C266.66,389.33 266.55,389.31 257.50,385.94 C249.67,383.03 243.67,383.01 237.71,385.90 C231.25,389.03 221.19,401.75 199.77,433.88 C180.67,462.53 173.98,471.74 166.15,480.21 C161.34,485.40 160.37,486.00 156.81,486.00 C153.33,486.00 152.05,486.73 146.66,491.83 C137.66,500.35 129.10,504.65 117.75,506.35 C106.39,508.05 101.39,510.06 99.80,513.54 C97.42,518.76 103.06,523.99 115.00,527.66 C122.02,529.81 133.73,529.81 141.64,527.67 C149.35,525.58 158.33,525.55 168.00,527.58 C179.11,529.91 191.41,528.11 194.50,523.70 C197.06,520.05 195.51,505.75 191.59,496.86 C191.04,495.60 193.79,492.68 203.25,484.50 C210.06,478.61 219.41,471.25 224.03,468.14 C229.86,464.23 233.60,460.84 236.22,457.08 C238.80,453.38 240.00,452.28 240.00,453.62 C240.00,454.70 241.83,460.05 244.06,465.52 C248.81,477.16 254.23,494.82 253.43,496.11 C253.13,496.60 252.01,497.00 250.95,497.00 C249.89,497.00 246.65,497.93 243.76,499.06 C236.32,501.97 223.26,506.49 218.25,507.89 C213.62,509.19 212.56,511.63 216.25,512.48 C219.50,513.24 238.82,512.43 250.80,511.04 L 261.09 509.85 L 263.10 512.40 C264.20,513.80 267.44,516.13 270.30,517.58 C277.33,521.15 284.75,521.31 303.83,518.30 C312.26,516.97 319.62,516.04 320.19,516.23 C320.75,516.42 314.20,517.84 305.62,519.40 C297.04,520.95 288.24,522.84 286.05,523.60 C283.86,524.35 276.77,525.46 270.29,526.05 C259.63,527.04 257.06,527.70 243.50,532.97 C235.25,536.18 227.66,539.07 226.64,539.41 C225.11,539.91 225.00,540.29 226.01,541.51 C226.69,542.33 227.98,543.03 228.87,543.06 C229.92,543.10 229.66,543.46 228.14,544.07 C226.18,544.86 225.99,545.28 227.01,546.51 C227.69,547.33 229.65,548.01 231.37,548.02 C233.09,548.02 235.18,548.47 236.00,549.00 ZM 338.31 513.39 C331.61,514.82 325.39,516.00 324.48,516.00 C323.57,516.00 325.91,514.38 329.67,512.40 C333.43,510.42 337.34,508.05 338.36,507.15 C341.87,504.03 344.12,498.07 344.31,491.41 C344.41,487.88 344.56,485.00 344.65,485.00 C344.75,485.00 346.06,488.94 347.56,493.75 C349.07,498.56 350.92,503.74 351.68,505.25 L 353.05 508.00 L 369.55 508.00 C384.83,508.00 386.50,507.82 392.27,505.49 L 398.50 502.99 L 395.09 505.69 C390.97,508.96 391.87,508.81 369.00,509.90 C355.54,510.54 347.18,511.49 338.31,513.39 ZM 905.47 468.75 C905.71,470.54 905.70,472.00 905.45,472.00 C905.20,472.00 905.00,471.57 905.00,471.03 C905.00,470.50 903.68,468.72 902.08,467.08 C899.88,464.83 898.99,462.75 898.48,458.71 C897.83,453.48 899.34,439.77 901.03,435.58 C901.08,435.46 901.13,435.34 901.17,435.23 C901.41,434.63 901.58,434.21 901.71,434.22 C902.03,434.25 902.10,437.10 902.43,447.00 C902.64,453.33 903.32,460.08 903.93,462.00 C904.54,463.92 905.24,466.96 905.47,468.75 ZM 951.14 427.96 L 953.50 429.93 L 950.50 429.94 C948.85,429.94 946.83,429.56 946.00,429.10 C944.32,428.16 939.93,427.29 932.50,426.44 C929.75,426.12 927.07,425.44 926.55,424.93 C925.24,423.65 929.63,423.73 934.01,425.07 C935.93,425.65 940.04,426.10 943.14,426.06 C947.35,426.01 949.37,426.49 951.14,427.96 ZM 1038.00 493.26 C1035.93,495.32 1033.07,497.02 1031.00,497.40 C1027.84,497.98 1027.69,497.92 1029.50,496.71 C1030.60,495.97 1033.75,494.11 1036.50,492.56 L 1041.50 489.76 ZM 428.63 497.01 C427.46,497.02 425.38,497.25 424.00,497.52 C422.62,497.80 422.17,497.73 423.00,497.37 C423.83,497.01 426.66,495.64 429.30,494.32 L 434.10 491.91 L 432.44 494.46 C431.52,495.86 429.81,497.01 428.63,497.01 ZM 1000.00 505.87 C997.53,507.57 994.38,508.95 993.00,508.94 C990.89,508.91 991.20,508.55 995.00,506.58 C1002.42,502.75 1005.09,502.37 1000.00,505.87 Z" fill="rgb(4,12,25)"/>
<path d="M 841.65 549.31 C841.27,548.94 839.06,548.38 836.74,548.06 C833.81,547.67 832.42,546.97 832.19,545.75 C831.97,544.62 832.49,543.98 833.68,543.94 C835.12,543.89 835.01,543.68 833.17,542.94 C831.88,542.42 831.01,541.46 831.24,540.79 C831.46,540.12 836.11,537.86 841.57,535.77 C847.03,533.67 853.97,530.87 857.00,529.54 C861.03,527.77 865.71,526.84 874.50,526.07 C881.10,525.50 888.08,524.55 890.00,523.98 C891.92,523.41 901.83,521.39 912.00,519.50 C922.17,517.60 936.12,514.87 943.00,513.42 C951.35,511.66 960.48,510.56 970.50,510.10 L 985.50 509.41 L 979.86 506.77 C970.88,502.56 963.47,501.40 954.81,502.86 C931.74,506.74 925.68,506.61 911.83,501.94 L 905.89 499.94 L 902.91 502.06 C900.66,503.67 897.42,504.43 889.71,505.16 C884.10,505.70 877.25,506.87 874.50,507.76 C871.55,508.72 866.63,509.33 862.50,509.24 C857.86,509.15 853.56,509.76 849.75,511.05 C843.51,513.16 834.70,513.60 830.50,512.00 C828.40,511.20 827.93,510.44 828.18,508.25 C828.53,505.28 829.12,505.03 862.00,493.86 C873.87,489.83 880.00,487.09 880.00,485.81 C880.00,485.40 878.99,484.55 877.75,483.90 C876.51,483.26 873.70,481.31 871.50,479.56 C869.30,477.82 865.47,475.21 863.00,473.77 C858.55,471.18 853.57,467.30 848.65,462.65 C854.33,467.90 860.51,472.45 866.79,475.97 C876.15,481.20 896.37,489.55 905.50,491.94 C909.35,492.95 912.64,493.65 912.82,493.49 C912.99,493.33 910.52,489.21 907.32,484.35 C900.55,474.06 898.16,472.29 863.63,452.06 L 842.76 439.83 L 836.88 440.51 C833.65,440.89 831.01,441.49 831.03,441.85 C831.04,442.21 834.16,446.38 837.95,451.14 C837.74,450.89 837.53,450.63 837.32,450.37 C829.09,440.16 826.72,438.65 815.75,436.61 L 812.00 435.91 L 812.00 440.79 C812.00,446.74 807.79,455.75 802.43,461.25 C800.42,463.31 795.34,467.09 791.14,469.65 C778.47,477.36 755.51,492.78 753.67,494.81 C752.27,496.36 752.14,497.25 753.01,499.53 C753.60,501.07 754.79,507.21 755.66,513.17 C757.45,525.44 757.18,526.30 751.14,527.98 C746.27,529.33 731.20,529.27 723.59,527.87 C718.35,526.90 715.58,527.05 704.82,528.87 C689.65,531.43 686.57,531.49 678.06,529.36 C664.86,526.05 659.00,522.30 659.00,517.15 C659.00,512.02 664.55,508.96 677.50,506.98 C687.05,505.52 698.22,499.94 707.50,491.99 C712.59,487.64 713.97,486.93 716.62,487.35 C721.93,488.17 730.50,479.87 750.51,454.50 C757.02,446.25 765.36,435.90 769.04,431.50 C772.73,427.10 776.76,421.48 778.01,419.00 C783.32,408.48 793.88,395.13 798.95,392.54 C805.76,389.05 819.64,389.86 833.00,394.51 C836.58,395.75 842.38,397.31 845.89,397.96 C861.43,400.86 882.98,408.40 898.50,416.37 L 899.05 416.66 C905.89,420.17 907.73,421.11 907.91,420.86 C907.98,420.77 907.82,420.52 907.60,420.17 L 907.56 420.09 C906.52,418.42 915.09,405.14 923.94,394.70 C937.84,378.30 939.97,375.53 942.91,370.00 C945.60,364.94 945.72,364.28 944.42,361.82 C943.64,360.34 941.59,354.94 939.87,349.82 C935.61,337.21 935.61,328.96 939.84,306.54 C943.02,289.70 944.89,267.51 943.32,265.41 C942.87,264.82 938.98,261.74 934.69,258.58 C930.39,255.41 926.64,252.22 926.35,251.48 C925.44,249.11 928.92,243.48 934.72,237.92 C948.60,224.63 948.63,224.59 950.96,216.87 C954.94,203.74 966.95,192.06 976.50,192.04 C982.88,192.02 983.74,194.92 980.61,205.91 C979.12,211.15 977.97,218.40 977.64,224.51 C977.24,232.15 976.39,236.57 974.06,243.18 C971.19,251.30 971.00,252.73 971.01,266.17 C971.01,280.18 972.07,289.39 976.83,317.00 C977.92,323.33 979.13,333.23 979.52,339.00 C979.97,345.82 981.07,352.06 982.65,356.80 C983.99,360.82 985.35,366.97 985.68,370.46 C986.21,376.18 985.95,377.50 983.13,383.54 C981.40,387.23 979.10,394.58 978.02,399.88 C974.38,417.72 967.87,434.61 965.09,433.41 C964.22,433.03 962.15,432.55 960.50,432.35 C958.01,432.04 957.84,432.13 959.50,432.92 C964.76,435.39 977.98,440.21 981.98,441.11 C984.44,441.66 991.53,444.12 997.72,446.57 C1007.01,450.24 1009.70,450.91 1012.98,450.39 C1021.97,448.95 1042.61,454.02 1062.82,462.63 C1077.18,468.74 1078.89,469.70 1084.05,474.48 C1087.38,477.57 1090.72,479.41 1096.55,481.35 C1103.87,483.79 1108.00,484.60 1108.00,483.60 C1108.00,483.38 1106.88,481.25 1105.51,478.85 C1102.05,472.80 1102.10,466.85 1105.63,464.07 C1107.08,462.93 1109.13,462.00 1110.18,462.00 C1111.24,462.00 1113.33,461.36 1114.83,460.59 C1116.34,459.81 1119.35,458.87 1121.53,458.50 C1127.91,457.42 1128.86,457.00 1129.49,455.04 C1130.36,452.29 1132.50,451.89 1136.73,453.67 C1138.80,454.54 1145.11,455.60 1150.74,456.01 C1163.17,456.92 1169.84,459.76 1176.10,466.81 C1182.63,474.15 1185.25,480.93 1185.28,490.58 C1185.32,503.95 1179.50,513.89 1168.32,519.55 C1163.12,522.19 1161.54,522.49 1153.50,522.45 C1143.60,522.39 1139.32,520.97 1129.67,514.57 L 1124.50 511.14 L 1118.50 512.56 C1115.20,513.33 1110.14,513.98 1107.25,513.98 C1102.20,514.00 1102.00,513.89 1101.93,511.25 C1101.89,509.74 1101.47,507.60 1101.00,506.50 C1100.21,504.67 1100.14,504.71 1100.08,507.00 C1099.85,515.48 1090.99,527.95 1081.92,532.54 C1075.32,535.89 1064.66,537.41 1056.64,536.17 C1051.48,535.36 1048.53,535.53 1040.89,537.07 C1029.46,539.38 1010.16,540.43 1000.00,539.31 C993.20,538.55 991.72,538.73 984.16,541.25 C971.72,545.39 959.37,546.41 938.22,545.05 C917.41,543.70 903.58,542.25 899.78,541.01 C897.60,540.30 895.83,540.75 890.78,543.29 C884.82,546.29 883.73,546.48 869.50,547.08 C861.25,547.43 852.93,548.23 851.01,548.86 C847.09,550.14 842.69,550.35 841.65,549.31 ZM 236.00 549.00 C235.18,548.47 233.09,548.02 231.37,548.02 C229.65,548.01 227.69,547.33 227.01,546.51 C225.99,545.28 226.18,544.86 228.14,544.07 C229.66,543.46 229.92,543.10 228.87,543.06 C227.98,543.03 226.69,542.33 226.01,541.51 C225.00,540.29 225.11,539.91 226.64,539.41 C227.66,539.07 235.25,536.18 243.50,532.97 C257.06,527.70 259.63,527.04 270.29,526.05 C276.77,525.46 283.86,524.35 286.05,523.60 C288.24,522.84 297.04,520.95 305.62,519.40 C314.20,517.84 320.75,516.42 320.19,516.23 C319.62,516.04 312.26,516.97 303.83,518.30 C302.84,518.46 301.88,518.61 300.96,518.74 C327.40,513.70 328.78,513.26 333.37,509.38 C341.02,502.90 343.03,497.07 340.55,488.53 C337.03,476.41 324.62,468.30 301.50,463.00 C294.35,461.36 287.60,460.04 286.50,460.05 C284.06,460.08 278.82,466.96 274.22,476.15 C270.60,483.40 269.16,492.91 270.41,501.26 C271.31,507.23 276.00,514.15 281.73,517.94 C283.55,519.15 284.69,519.94 285.91,520.37 C278.92,520.64 274.54,519.73 270.30,517.58 C267.44,516.13 264.20,513.80 263.10,512.40 L 261.09 509.85 L 250.80 511.04 C238.82,512.43 219.50,513.24 216.25,512.48 C212.56,511.63 213.62,509.19 218.25,507.89 C223.26,506.49 236.32,501.97 243.76,499.06 C246.65,497.93 249.89,497.00 250.95,497.00 C252.01,497.00 253.13,496.60 253.43,496.11 C254.23,494.82 248.81,477.16 244.06,465.52 C241.83,460.05 240.00,454.70 240.00,453.62 C240.00,452.28 238.80,453.38 236.22,457.08 C233.60,460.84 229.86,464.23 224.03,468.14 C219.41,471.25 210.06,478.61 203.25,484.50 C193.79,492.68 191.04,495.60 191.59,496.86 C195.51,505.75 197.06,520.05 194.50,523.70 C191.41,528.11 179.11,529.91 168.00,527.58 C158.33,525.55 149.35,525.58 141.64,527.67 C133.73,529.81 122.02,529.81 115.00,527.66 C103.06,523.99 97.42,518.76 99.80,513.54 C101.39,510.06 106.39,508.05 117.75,506.35 C129.10,504.65 137.66,500.35 146.66,491.83 C152.05,486.73 153.33,486.00 156.81,486.00 C160.37,486.00 161.34,485.40 166.15,480.21 C173.98,471.74 180.67,462.53 199.77,433.88 C221.19,401.75 231.25,389.03 237.71,385.90 C243.67,383.01 249.67,383.03 257.50,385.94 C266.55,389.31 266.66,389.33 267.42,387.34 C267.81,386.34 268.36,382.82 268.65,379.51 C269.13,374.09 268.81,372.72 265.50,365.62 C261.22,356.45 257.00,340.79 257.00,334.06 C257.00,331.48 258.39,321.08 260.10,310.94 C262.32,297.76 263.24,288.81 263.35,279.58 L 263.50 266.65 L 258.00 262.36 C249.47,255.70 247.33,254.15 247.08,252.33 C247.00,251.73 247.12,251.10 247.29,250.25 C247.32,250.09 247.36,249.92 247.39,249.73 C248.08,246.03 252.64,240.81 263.73,231.00 C268.12,227.12 269.10,225.53 270.89,219.45 C273.36,211.06 277.65,204.24 283.44,199.50 C291.04,193.27 298.24,191.39 301.35,194.83 C303.56,197.28 303.43,200.89 300.88,207.77 C299.43,211.68 298.52,217.31 298.00,225.50 C297.39,235.07 296.66,239.02 294.37,245.00 C291.59,252.27 291.51,253.01 291.70,269.00 C291.84,281.53 292.51,289.11 294.48,300.50 C299.40,329.01 299.78,331.54 300.49,341.50 C301.04,349.25 301.86,353.07 304.17,358.50 C308.33,368.33 310.24,377.23 309.49,383.39 C308.98,387.57 309.49,390.50 312.32,399.50 C314.22,405.55 316.55,414.29 317.49,418.92 C319.07,426.70 319.64,427.85 324.86,433.92 C327.97,437.54 333.35,444.44 336.82,449.25 L 343.14 458.00 L 369.62 458.00 C392.54,458.00 396.53,457.77 399.30,456.31 C401.38,455.21 405.73,454.47 411.76,454.19 C422.76,453.68 435.94,456.32 445.89,461.03 C449.35,462.66 453.63,464.00 455.41,464.00 C463.32,464.00 475.64,469.28 481.00,474.98 C483.62,477.76 486.51,479.37 492.45,481.35 C496.82,482.81 500.77,483.63 501.23,483.17 C501.68,482.72 501.15,480.35 500.05,477.92 C497.29,471.83 497.42,467.49 500.45,464.45 C501.80,463.10 503.62,462.00 504.49,462.00 C505.35,462.00 507.74,461.24 509.78,460.31 C514.09,458.35 514.43,458.27 518.70,458.12 C520.88,458.04 522.80,457.03 524.73,454.97 L 527.57 451.94 L 532.03 453.56 C534.49,454.46 541.06,455.54 546.63,455.96 C554.90,456.60 557.70,457.25 561.88,459.53 C568.67,463.22 574.48,469.23 577.80,475.99 C580.14,480.76 580.50,482.71 580.47,490.50 C580.44,501.74 578.00,507.86 570.87,514.52 C564.07,520.89 559.08,522.95 550.43,522.98 C541.39,523.01 534.96,521.07 526.97,515.90 C520.70,511.85 520.50,511.79 515.54,512.83 C512.77,513.41 506.77,514.19 502.22,514.55 C494.30,515.18 493.87,515.35 492.39,518.22 C489.84,523.15 482.90,530.02 477.93,532.54 C470.83,536.13 461.40,537.45 452.36,536.11 C448.22,535.49 444.43,535.23 443.94,535.54 C439.53,538.26 405.57,540.85 394.50,539.29 C389.25,538.56 387.50,538.79 380.50,541.19 C364.50,546.66 343.05,547.01 303.39,542.44 C291.89,541.12 291.07,541.15 287.30,542.97 C280.35,546.33 274.43,547.30 264.19,546.75 C256.46,546.34 253.29,546.61 248.50,548.10 C241.81,550.19 238.24,550.44 236.00,549.00 ZM 905.47 468.75 C905.24,466.96 904.54,463.92 903.93,462.00 C903.62,461.03 903.30,458.84 903.03,456.10 C905.66,475.11 915.32,490.04 929.58,495.48 C935.62,497.79 948.26,497.01 954.36,493.96 C960.78,490.76 969.58,481.20 971.15,475.73 C973.27,468.32 972.74,460.15 969.77,454.41 C966.56,448.22 958.02,440.22 949.68,435.59 C932.02,425.78 906.40,418.92 904.63,423.53 C904.30,424.37 903.50,429.92 902.84,435.86 C902.54,438.50 902.37,441.10 902.32,443.67 C902.08,436.44 901.99,434.25 901.71,434.22 C901.58,434.21 901.41,434.63 901.17,435.23 C901.13,435.34 901.08,435.46 901.03,435.58 C899.34,439.77 897.83,453.48 898.48,458.71 C898.99,462.75 899.88,464.83 902.08,467.08 C903.68,468.72 905.00,470.50 905.00,471.03 C905.00,471.57 905.20,472.00 905.45,472.00 C905.70,472.00 905.71,470.54 905.47,468.75 ZM 261.52 497.71 C262.28,499.52 263.03,501.00 263.20,500.99 C263.36,500.99 263.54,497.50 263.58,493.24 C263.65,486.84 264.21,484.26 266.82,478.36 C270.59,469.82 271.62,463.00 272.51,440.50 C273.21,422.58 271.69,392.84 269.82,388.15 L 268.76 385.50 L 267.46 389.50 C265.08,396.84 259.10,420.39 257.30,429.50 C255.97,436.26 255.53,443.35 255.54,458.00 C255.54,475.22 255.81,478.49 257.85,485.96 C259.12,490.62 260.77,495.91 261.52,497.71 ZM 338.31 513.39 C347.18,511.49 355.54,510.54 369.00,509.90 C391.87,508.81 390.97,508.96 395.09,505.69 L 398.50 502.99 L 392.27 505.49 C386.50,507.82 384.83,508.00 369.55,508.00 L 353.05 508.00 L 351.68 505.25 C350.92,503.74 349.07,498.56 347.56,493.75 C346.06,488.94 344.75,485.00 344.65,485.00 C344.56,485.00 344.41,487.88 344.31,491.41 C344.12,498.07 341.87,504.03 338.36,507.15 C337.34,508.05 333.43,510.42 329.67,512.40 C325.91,514.38 323.57,516.00 324.48,516.00 C325.39,516.00 331.61,514.82 338.31,513.39 ZM 951.14 427.96 C949.37,426.49 947.35,426.01 943.14,426.06 C940.04,426.10 935.93,425.65 934.01,425.07 C929.63,423.73 925.24,423.65 926.55,424.93 C927.07,425.44 929.75,426.12 932.50,426.44 C939.93,427.29 944.32,428.16 946.00,429.10 C946.83,429.56 948.85,429.94 950.50,429.94 L 953.50 429.93 ZM 1038.00 493.26 L 1041.50 489.76 L 1036.50 492.56 C1033.75,494.11 1030.60,495.97 1029.50,496.71 C1027.69,497.92 1027.84,497.98 1031.00,497.40 C1033.07,497.02 1035.93,495.32 1038.00,493.26 ZM 428.63 497.01 C429.81,497.01 431.52,495.86 432.44,494.46 L 434.10 491.91 L 429.30 494.32 C426.66,495.64 423.83,497.01 423.00,497.37 C422.17,497.73 422.62,497.80 424.00,497.52 C425.38,497.25 427.46,497.02 428.63,497.01 ZM 1000.00 505.87 C1005.09,502.37 1002.42,502.75 995.00,506.58 C991.20,508.55 990.89,508.91 993.00,508.94 C994.38,508.95 997.53,507.57 1000.00,505.87 Z" fill="rgb(51,58,73)"/>
<path d="M 848.65 462.65 C844.97,459.17 841.32,455.26 837.95,451.14 C834.16,446.38 831.04,442.21 831.03,441.85 C831.01,441.49 833.65,440.89 836.88,440.51 L 842.76 439.83 L 863.63 452.06 C898.16,472.29 900.55,474.06 907.32,484.35 C910.52,489.21 912.99,493.33 912.82,493.49 C912.64,493.65 909.35,492.95 905.50,491.94 C896.37,489.55 876.15,481.20 866.79,475.97 C860.51,472.46 854.33,467.90 848.65,462.65 ZM 261.52 497.71 C260.77,495.91 259.12,490.62 257.85,485.96 C255.81,478.49 255.54,475.22 255.54,458.00 C255.53,443.35 255.97,436.26 257.30,429.50 C259.10,420.39 265.08,396.84 267.46,389.50 L 268.76 385.50 L 269.82 388.15 C271.69,392.84 273.21,422.58 272.51,440.50 C271.62,463.00 270.59,469.82 266.82,478.36 C264.21,484.26 263.65,486.84 263.58,493.24 C263.54,497.50 263.36,500.99 263.20,500.99 C263.03,501.00 262.28,499.52 261.52,497.71 Z" fill="rgb(72,101,184)"/>
<path d="M 281.73 517.94 C276.00,514.15 271.31,507.23 270.41,501.26 C269.16,492.91 270.60,483.40 274.22,476.15 C278.82,466.96 284.06,460.08 286.50,460.05 C287.60,460.04 294.35,461.36 301.50,463.00 C324.62,468.30 337.03,476.41 340.55,488.53 C343.03,497.07 341.02,502.90 333.37,509.38 C328.69,513.33 327.36,513.71 299.50,519.02 C286.60,521.48 287.12,521.51 281.73,517.94 ZM 929.58 495.48 C910.55,488.22 899.70,464.05 902.84,435.86 C903.50,429.92 904.30,424.37 904.63,423.53 C906.40,418.92 932.02,425.78 949.68,435.59 C958.02,440.22 966.56,448.22 969.77,454.41 C972.74,460.15 973.27,468.32 971.15,475.73 C969.58,481.20 960.78,490.76 954.36,493.96 C948.26,497.01 935.62,497.79 929.58,495.48 Z" fill="rgb(115,199,175)"/>
</g>
</svg>