<svg version="1.1" id="Layer_1" xmlns="http://www.w3.org/2000/svg" xmlns:xlink="http://www.w3.org/1999/xlink" x="0px" y="0px"
	  viewBox="0 0 1254 1254" enable-background="new 0 0 1254 1254" xml:space="preserve">

<path fill="#56565E" opacity="1.000000" stroke="none" 
	d="
M841.041748,752.073486 
	C862.101807,746.046875 883.024048,739.452209 904.293945,734.290039 
	C912.142761,732.385071 920.881714,733.130249 929.090454,733.934814 
	C946.900879,735.680359 959.535645,744.645508 965.056580,762.319519 
	C965.391602,763.391907 966.132263,764.337524 966.643433,766.191772 
	C965.092224,775.773987 964.095703,784.642334 961.841553,793.178528 
	C960.807861,797.092896 959.980652,800.388672 961.994812,804.393738 
	C963.338806,810.108643 964.517761,815.459351 965.932434,820.747009 
	C967.964294,828.341797 976.006775,831.131287 982.258606,826.281982 
	C992.387817,818.425232 1003.569458,812.878296 1016.504333,810.017700 
	C1029.233765,808.674255 1041.529785,807.592163 1053.679932,811.155151 
	C1092.288818,822.877319 1093.792358,869.729675 1077.060425,891.826599 
	C1070.875854,899.994080 1062.453979,904.715576 1052.518433,908.594849 
	C1040.244751,908.907410 1028.641846,908.943237 1016.687073,908.847534 
	C1003.761841,906.007324 992.351135,900.889893 982.184326,892.887634 
	C976.584290,888.479980 968.427795,891.168335 966.611389,897.958557 
	C965.022278,903.899292 964.040283,910.002563 962.592407,916.317505 
	C961.847595,919.291992 959.999390,922.641724 960.972168,924.563293 
	C965.911865,934.320862 966.211182,944.645142 966.065491,955.132019 
	C960.030640,976.229919 946.334656,986.248901 922.251099,987.101135 
	C908.427429,987.590332 895.036804,985.330750 882.001221,980.717041 
	C878.085938,979.331299 874.091309,977.998718 870.021179,977.250305 
	C849.191284,973.419861 829.792969,965.722595 810.614929,956.906128 
	C786.009399,945.594421 760.005005,938.622253 732.763489,939.284912 
	C720.943542,939.572388 708.974365,942.253052 697.479614,945.354065 
	C680.891235,949.829224 664.479492,954.694397 647.249084,956.177673 
	C630.796997,957.593994 614.777222,955.229980 598.588440,952.538330 
	C573.800537,948.416870 548.821411,945.394775 523.875610,942.290833 
	C503.959747,939.812805 484.419556,935.879944 465.394501,929.445496 
	C453.384308,925.383484 441.353943,921.127991 428.411285,921.891174 
	C423.306458,922.192261 417.845459,922.509705 413.253815,924.473328 
	C383.446686,937.220581 353.567139,935.518982 323.240784,926.575500 
	C305.519318,921.349243 287.665161,916.214783 269.536285,912.829773 
	C251.693863,909.498169 233.541000,908.897888 215.801010,915.391663 
	C210.966751,917.161255 205.300171,917.375305 200.059357,917.172363 
	C187.682541,916.693115 181.059875,910.566345 179.520187,898.212952 
	C178.011078,886.104919 180.214050,874.950928 190.357666,866.594849 
	C179.031326,857.063049 177.472092,844.755554 179.845322,831.441711 
	C181.354355,822.975830 186.664627,817.429443 195.120148,816.437744 
	C201.434433,815.697266 208.498627,815.203796 214.286331,817.257080 
	C232.664093,823.776978 251.200211,823.133118 269.502075,819.136841 
	C288.671875,814.951111 307.445587,808.920898 326.340454,803.515198 
	C345.589935,798.007996 365.030640,794.523987 385.047760,798.071899 
	C391.910095,799.288269 398.903961,800.751770 405.303925,803.394897 
	C421.836365,810.222961 438.449524,809.899780 454.591278,803.620911 
	C487.123932,790.966309 521.174927,786.265198 555.456482,781.913208 
	C573.432190,779.631348 591.187744,775.584412 609.020996,772.219360 
	C636.402588,767.052490 663.098816,770.219177 689.399170,778.932373 
	C687.755249,780.967163 684.465881,783.820496 684.712830,784.169189 
	C687.218201,787.706360 690.300720,790.834717 693.175293,794.440308 
	C693.124512,795.531799 693.119934,796.260681 693.072876,797.109497 
	C692.968262,797.479126 692.970459,797.729187 693.057129,798.411560 
	C691.315552,813.773804 691.707947,828.450745 698.471741,842.307617 
	C702.726013,851.023315 709.631836,856.980774 719.347961,857.158691 
	C726.262146,857.285217 733.708313,856.016846 740.065796,853.345154 
	C755.117493,847.019775 770.051575,840.675720 786.055542,836.985168 
	C799.163757,833.962341 809.528442,826.150574 818.159058,816.074524 
	C821.716064,811.921814 824.750366,807.321289 828.171021,803.262085 
	C827.392944,809.321228 826.466309,815.042725 825.276001,820.855469 
	C822.743652,823.167847 820.474915,825.389038 818.009399,827.903076 
	C815.910828,829.757019 814.009033,831.317993 811.804810,833.069458 
	C798.134399,837.452942 795.199280,849.215393 792.860840,861.410706 
	C792.171936,861.111023 791.483032,860.811401 790.794128,860.511719 
	C791.224609,854.895203 791.655090,849.278748 792.173645,842.514160 
	C784.614197,844.149292 777.639282,845.365051 770.837585,847.217102 
	C764.826416,848.853821 761.439392,853.161804 760.450317,859.714722 
	C754.134216,859.608643 759.395020,854.864075 756.937988,852.668762 
	C750.471558,855.574341 743.814453,858.565552 736.597412,861.808411 
	C743.964355,864.967224 750.720154,867.863892 758.215271,871.077637 
	C758.215271,867.916138 758.215271,865.570129 758.215271,863.186218 
	C761.646851,867.215576 764.699036,870.799377 767.821472,874.341125 
	C767.891724,874.299011 767.807251,874.158630 768.004150,874.454712 
	C771.802368,875.831909 775.403809,876.913086 779.343872,878.137756 
	C781.135071,878.468567 782.587524,878.655823 784.403809,878.947021 
	C786.654785,879.261230 788.544617,879.624878 790.427612,879.592712 
	C791.029358,879.582520 791.613159,878.523743 792.180786,877.518250 
	C791.775024,872.219177 791.393616,867.346558 791.012207,862.473877 
	C791.723694,862.199829 792.435120,861.925781 793.146606,861.651672 
	C795.545532,880.374268 803.994995,892.070190 824.733521,889.951904 
	C825.622742,891.192688 826.173950,892.368896 826.602295,893.431885 
	C826.479431,893.318542 826.562744,892.994812 826.325562,893.166504 
	C825.753662,893.536621 825.418945,893.735107 824.809082,894.165405 
	C822.805115,894.988708 821.076416,895.580078 818.894775,896.326477 
	C821.488953,898.603882 823.655945,900.506287 826.013855,902.784790 
	C826.705811,907.977661 827.206787,912.794434 827.658813,917.411133 
	C827.609802,917.211060 828.003296,917.088928 827.800049,916.915771 
	C827.326904,916.510864 827.056946,916.279114 826.535095,915.834961 
	C815.379211,898.905334 800.230103,888.723999 780.692017,884.113342 
	C769.275635,881.419189 758.339111,876.697021 747.177979,872.913086 
	C741.990967,871.154419 736.895386,868.890747 731.564514,867.835266 
	C713.642883,864.286926 701.491577,871.720764 695.897095,889.183350 
	C692.316895,900.358643 692.284546,911.800659 693.556702,923.309448 
	C693.909180,926.498047 694.529968,929.656982 695.089294,933.223083 
	C697.509338,932.280212 699.088867,931.780640 700.567688,931.071289 
	C724.439758,919.620483 749.010620,919.090942 774.117798,926.211853 
	C778.063843,927.331055 782.119690,928.062988 786.010925,928.965332 
	C785.897034,928.956787 785.971191,929.247131 785.971191,929.247131 
	C785.971191,929.247131 785.983337,929.010742 785.963135,928.647339 
	C783.480957,922.161682 781.018921,916.039429 778.556946,909.917175 
	C779.122559,909.532227 779.688232,909.147339 780.253906,908.762390 
	C793.808289,940.989075 819.101562,956.491943 853.601685,961.089111 
	C851.208984,957.619873 849.293823,955.154846 847.713135,952.491333 
	C843.404053,945.230103 839.236145,937.885132 834.837646,930.319031 
	C834.457275,929.708862 834.251648,929.352966 833.958008,928.921753 
	C833.869934,928.846558 833.918457,928.620056 833.967407,928.184326 
	C834.110474,925.464539 834.998108,922.833374 834.174500,920.950867 
	C827.024414,904.608276 832.610718,890.013428 840.109497,875.272217 
	C845.520569,871.926270 850.726257,868.886475 856.239014,865.957947 
	C871.728271,864.155884 886.910522,862.242554 902.092712,860.329285 
	C902.067322,860.006531 902.041992,859.683716 902.016663,859.360962 
	C888.987122,858.601868 875.957642,857.842834 862.992798,857.090515 
	C863.057556,857.097290 863.043884,857.226746 862.808838,857.100891 
	C861.730408,856.931335 860.887024,856.887634 859.677124,856.820923 
	C851.820251,854.667603 844.930359,851.531494 839.760864,845.023621 
	C839.375427,844.535400 839.160522,844.251587 838.988281,843.974121 
	C839.030823,843.980469 839.018188,844.065613 838.835938,843.886963 
	C838.412720,843.468384 838.171753,843.228455 838.007141,843.081360 
	C838.083557,843.174255 837.897827,843.327271 837.873413,842.932739 
	C837.355774,840.963623 837.148376,839.217590 836.323364,837.841919 
	C830.265564,827.740662 829.253479,816.938538 831.565735,805.629578 
	C832.661560,800.270020 833.796326,794.918457 834.972778,789.230835 
	C841.020691,779.096619 847.009277,769.294800 852.616821,759.422607 
	C847.979126,759.333069 844.119507,758.731323 842.833435,753.679260 
	C842.669067,753.033813 841.659668,752.603455 841.041748,752.073486 
M466.715576,864.927063 
	C478.866119,865.248474 491.015015,865.726624 503.167603,865.854126 
	C521.162292,866.043030 539.160889,865.877014 557.154907,866.098450 
	C562.123474,866.159607 567.107788,866.886414 572.036377,867.629333 
	C576.003479,868.227173 578.530334,870.499329 579.309326,874.751831 
	C580.135376,879.261841 581.438354,883.684448 582.422546,887.694885 
	C583.614807,880.966553 584.841919,874.055725 586.062256,867.143616 
	C586.320679,865.680054 586.989136,864.128418 586.726257,862.760071 
	C585.313354,855.405151 583.666016,848.095337 582.071960,840.640564 
	C581.460938,843.427185 580.860657,846.304749 580.196472,849.167480 
	C578.264832,857.493103 576.051208,859.681458 567.555176,860.748840 
	C562.277710,861.411865 556.940125,861.740295 551.620056,861.895935 
	C522.991150,862.733704 494.359222,863.470215 464.879425,864.199097 
	C452.054749,862.256287 439.242523,860.225342 426.399109,858.415405 
	C421.493683,857.724060 416.352905,856.533875 411.603424,857.309814 
	C397.030823,859.690430 382.595795,862.913391 370.490784,865.332581 
	C380.908295,867.420410 393.585541,870.161438 406.348969,872.414246 
	C411.030640,873.240479 416.040161,873.696594 420.686157,872.964172 
	C435.769470,870.586548 450.753693,867.580383 466.715576,864.927063 
M854.307617,938.951599 
	C854.672363,942.835266 853.915161,947.338501 855.643799,950.469055 
	C858.881836,956.333313 862.805908,962.256409 867.777283,966.645569 
	C884.003357,980.971436 903.563110,984.106812 924.377991,981.266174 
	C932.685852,980.132446 940.661499,977.729858 947.411743,972.380615 
	C953.290222,967.722229 954.498474,962.501038 950.524963,956.185791 
	C948.342834,952.717651 945.734863,949.193176 942.515686,946.754150 
	C920.498169,930.072510 895.510254,924.884094 868.481750,928.776611 
	C862.554199,929.630249 857.433838,932.478394 854.307617,938.951599 
M928.212402,781.687378 
	C932.180237,779.253540 936.589783,777.313354 940.002625,774.259277 
	C944.142334,770.554993 947.899170,766.214600 950.971069,761.584961 
	C953.911560,757.153259 952.529785,752.537292 948.629578,749.009705 
	C946.676392,747.243103 944.493164,745.579407 942.139832,744.430542 
	C924.053772,735.601379 905.476868,735.948914 886.764404,742.055176 
	C874.665649,746.003357 864.868286,753.312073 857.811157,763.918823 
	C848.027588,778.623291 853.292969,789.750427 870.809753,792.017517 
	C890.775757,794.601440 909.493896,790.260620 928.212402,781.687378 
M255.240768,874.247681 
	C288.896271,879.834351 321.261932,871.180420 353.591431,865.444214 
	C346.948578,864.440125 339.986664,863.678345 333.147858,862.304077 
	C302.506195,856.146362 271.851349,854.034790 241.044022,861.127441 
	C238.642197,861.680420 236.037079,861.325562 233.616608,861.827454 
	C228.464005,862.895813 223.370728,864.250305 218.253143,865.487488 
	C219.262695,867.146484 219.991974,867.587769 220.777023,867.738342 
	C231.972794,869.886353 243.176132,871.994934 255.240768,874.247681 
z"/>
<path fill="#55565E" opacity="1.000000" stroke="none" 
	d="
M953.881226,421.752869 
	C945.999329,424.292023 938.117493,426.831207 929.661133,429.730682 
	C926.147095,432.368103 923.207520,434.645172 919.759277,437.316315 
	C918.960022,426.477386 918.228699,416.559784 917.497375,406.642181 
	C916.771362,406.644867 916.045349,406.647552 915.319336,406.650238 
	C915.319336,410.159271 915.446228,413.673767 915.294312,417.176208 
	C914.913452,425.957703 915.087158,434.835632 913.791199,443.488098 
	C911.819214,456.654724 905.800049,468.462067 899.547913,480.108337 
	C898.274536,482.480469 897.554871,485.450043 897.546753,488.147064 
	C897.518188,497.636261 898.136414,507.127960 898.083618,516.616394 
	C898.024109,527.302734 896.325500,537.763184 891.983887,548.346069 
	C906.001770,546.416748 918.949158,550.435974 931.799133,554.266174 
	C947.571106,558.967407 963.601929,559.451050 979.816895,559.033875 
	C986.563477,558.860291 992.016113,556.911804 995.938232,550.921021 
	C998.375122,547.198853 1001.673157,544.009033 1004.774475,540.761597 
	C1008.340698,537.027344 1012.567017,534.836609 1018.006042,534.706360 
	C1021.392273,534.625122 1024.748535,533.293274 1028.118286,532.522705 
	C1029.726196,533.241943 1031.339966,533.948792 1032.940552,534.683838 
	C1034.675171,535.480347 1036.467285,536.183411 1038.112793,537.136780 
	C1043.272339,540.126404 1048.756714,542.737488 1053.368408,546.428345 
	C1056.570679,548.990967 1055.722290,552.846985 1052.432129,557.594299 
	C1058.234985,565.959900 1058.119995,567.725098 1051.453125,572.615723 
	C1055.299683,579.198242 1054.898682,580.893005 1048.255493,586.130554 
	C1050.794434,594.174988 1047.772339,598.446655 1039.316895,598.963684 
	C1033.685059,599.308167 1028.054688,600.289185 1022.441589,600.166870 
	C1015.830505,600.022888 1008.957764,599.953064 1002.705688,598.120667 
	C993.775574,595.503235 984.943298,595.062256 976.048645,596.580627 
	C937.532227,603.155884 898.908142,604.561218 860.056824,600.122437 
	C849.804138,598.951111 845.945923,596.753967 843.342163,586.751953 
	C834.481873,552.716309 825.618713,518.637390 829.044434,482.103638 
	C831.932434,469.809113 834.738281,458.307312 829.073242,446.416870 
	C828.139893,443.260437 827.550171,440.345612 826.226929,437.814331 
	C824.467224,434.448334 821.790466,431.550049 820.127441,428.147919 
	C817.304932,422.373840 814.966675,416.363068 811.914062,409.263733 
	C812.273926,412.570007 812.184265,414.767181 812.786499,416.754761 
	C815.379517,425.313324 818.175537,433.810333 820.521118,442.263428 
	C816.144836,441.115448 812.201782,439.695526 808.135010,439.014282 
	C794.866150,436.791382 781.977539,439.793274 769.141296,442.520966 
	C745.661743,447.510406 721.969299,450.354614 697.972107,451.327637 
	C686.230408,451.803741 674.281860,452.691864 662.925354,455.447418 
	C653.433167,457.750610 644.666382,463.043182 635.232605,467.103821 
	C633.920044,467.829041 632.953308,468.462311 631.997925,469.052887 
	C632.009338,469.010162 632.094727,469.033081 631.775146,469.098877 
	C630.641113,469.814117 629.826599,470.463593 629.023193,471.079926 
	C629.034424,471.046814 629.100098,471.070923 628.718628,471.045959 
	C626.332642,471.791901 624.273804,472.446869 622.332947,473.354126 
	C614.637085,476.951599 607.124268,480.982666 599.281128,484.216370 
	C554.910889,502.510101 508.732697,509.684387 460.869293,506.381042 
	C457.453918,506.145355 453.824707,506.491333 450.533112,507.415314 
	C436.481537,511.359589 422.352997,511.699799 407.941376,509.861603 
	C401.061279,508.984070 393.848969,508.485352 387.054749,509.539581 
	C355.389893,514.452942 323.492859,516.314148 291.562042,518.135681 
	C275.542267,519.049622 259.628204,521.345886 245.225784,529.075867 
	C241.279099,531.194092 237.204483,534.356750 234.971069,538.102783 
	C230.998230,544.766479 227.763321,552.037292 225.342560,559.422180 
	C221.132355,572.265869 224.316086,578.675842 236.585312,584.667053 
	C237.781769,585.251282 239.008392,585.785278 240.253952,586.255249 
	C244.307327,587.784607 246.593155,590.446106 246.003204,595.010864 
	C242.360413,600.898804 235.958755,600.005310 230.691833,600.263306 
	C222.784409,600.650635 214.668625,600.114624 206.873718,598.695557 
	C194.867508,596.509827 187.645508,588.224792 186.096176,576.152405 
	C185.505142,571.547058 185.020401,566.798462 185.476685,562.213562 
	C186.640427,550.520020 184.403168,539.397461 181.526718,528.176941 
	C179.642242,520.826050 178.324158,513.170166 178.055130,505.604523 
	C177.703674,495.720093 183.643295,488.938721 193.393387,486.861450 
	C197.424988,486.002502 201.754181,485.297089 205.775223,485.828735 
	C237.717682,490.052307 266.710541,480.393555 295.073975,467.451904 
	C305.229065,462.818329 315.414948,458.251709 325.606293,453.698242 
	C346.720825,444.264313 368.456329,442.040466 391.031647,447.611481 
	C405.825592,451.262299 420.746765,451.859344 435.431061,446.911346 
	C440.462189,445.216034 445.508820,443.283356 450.134003,440.713440 
	C476.907166,425.837372 505.027740,414.228027 534.277405,405.253906 
	C538.895142,403.837158 543.469971,402.262634 548.004822,400.598022 
	C556.488342,397.484009 563.869141,393.312622 570.163940,386.121429 
	C585.917664,368.124207 607.157166,360.695709 630.422668,360.354767 
	C643.442993,360.163940 656.945374,361.353485 669.468201,364.740082 
	C704.495789,374.212769 737.360352,369.766907 769.324585,353.533173 
	C782.831970,346.673126 796.623962,340.286224 810.626160,334.506836 
	C835.189941,324.368195 860.702454,320.024506 886.864014,326.861755 
	C896.715820,329.436523 905.890320,334.604248 915.372253,338.593018 
	C924.686218,342.511139 933.696350,347.668579 943.388367,350.040222 
	C955.435852,352.988251 966.668274,350.092102 975.284973,339.761017 
	C984.467346,328.751678 995.993896,321.022675 1010.156738,317.669617 
	C1033.691406,312.097748 1056.650635,322.297333 1068.290039,343.490875 
	C1086.440308,376.539612 1075.214233,410.647949 1041.052002,426.548584 
	C1039.013062,427.497620 1037.222900,429.185455 1035.622559,430.827332 
	C1032.835083,433.687134 1030.352417,436.841644 1027.616577,439.754974 
	C1025.267456,442.256500 1022.181030,443.800201 1019.131287,441.720642 
	C1015.789795,439.442169 1013.127441,440.416870 1009.854614,441.603668 
	C1001.900635,444.488007 993.840942,447.118683 985.716614,449.482819 
	C979.857361,451.187775 974.622253,448.942505 972.057983,443.789703 
	C968.842041,437.327423 966.961548,430.200562 964.526978,422.498413 
	C964.759827,411.709747 964.970398,401.783203 965.199158,391.001709 
	C961.296387,401.605682 957.588806,411.679291 953.881226,421.752869 
M894.482422,417.092346 
	C892.541626,413.795197 890.968445,410.201569 888.592041,407.255798 
	C881.124390,397.998474 872.020569,391.283813 859.360413,393.803833 
	C846.543579,396.355103 839.141602,405.405579 836.378052,417.539093 
	C834.713074,424.849335 834.250732,432.820129 835.167480,440.257507 
	C837.678284,460.628021 846.609924,477.848267 863.973633,489.599884 
	C872.780151,495.560028 875.655762,495.772705 884.533630,486.559296 
	C884.764343,486.319794 884.984619,486.065704 885.178711,485.796021 
	C900.282471,464.808441 904.322632,442.252258 894.482422,417.092346 
M889.508484,549.478943 
	C889.508484,549.478943 889.526184,549.524109 889.508484,549.478943 
z"/>
<path fill="#38E2C1" opacity="1.000000" stroke="none" 
	d="
M829.090271,446.829224 
	C834.738281,458.307312 831.932434,469.809113 828.995361,481.660034 
	C798.601379,486.578400 768.655090,493.848938 737.793213,491.907013 
	C718.022583,490.662964 698.270386,488.915863 678.569885,486.828156 
	C660.100037,484.870880 641.997498,486.465393 623.215332,490.678650 
	C616.741882,491.906830 611.060303,493.034943 605.378723,494.163055 
	C606.999146,490.686768 608.900696,488.159729 611.228455,486.118835 
	C617.083069,480.985870 623.130188,476.072388 629.100098,471.070923 
	C629.100098,471.070923 629.034424,471.046814 629.349731,471.059143 
	C630.474915,470.392029 631.284851,469.712555 632.094727,469.033081 
	C632.094727,469.033081 632.009338,469.010162 632.354309,469.024963 
	C633.658997,468.363800 634.618713,467.687866 635.578369,467.011932 
	C644.666382,463.043182 653.433167,457.750610 662.925354,455.447418 
	C674.281860,452.691864 686.230408,451.803741 697.972107,451.327637 
	C721.969299,450.354614 745.661743,447.510406 769.141296,442.520966 
	C781.977539,439.793274 794.866150,436.791382 808.135010,439.014282 
	C812.201782,439.695526 816.144836,441.115448 820.767578,442.476196 
	C823.957153,444.113251 826.523743,445.471222 829.090271,446.829224 
z"/>
<path fill="#30333E" opacity="1.000000" stroke="none" 
	d="
M628.718628,471.045959 
	C623.130188,476.072388 617.083069,480.985870 611.228455,486.118835 
	C608.900696,488.159729 606.999146,490.686768 605.378723,494.163055 
	C611.060303,493.034943 616.741882,491.906830 622.873657,490.833984 
	C602.351440,500.269501 580.207520,505.647034 557.765381,509.948059 
	C533.252869,514.645813 508.540588,515.748779 483.625824,514.375793 
	C476.398468,513.977600 468.967773,514.716858 461.820862,515.997864 
	C450.551361,518.017883 439.328369,518.939209 428.033783,517.094299 
	C409.018402,513.988220 390.153046,516.648315 371.232208,518.039856 
	C351.801086,519.468872 332.311737,520.238831 312.926514,522.111145 
	C301.215759,523.242249 289.583893,525.585632 278.047882,528.009460 
	C268.166626,530.085632 261.713959,536.595581 258.281830,546.053894 
	C257.089783,549.338989 255.836777,552.619873 254.935165,555.989197 
	C251.351547,569.381409 253.570587,574.227173 265.971191,580.400696 
	C269.505341,582.160095 274.139496,583.211792 273.272095,588.483643 
	C272.363525,594.005859 267.420227,594.370178 263.148224,594.741333 
	C257.715607,595.213196 252.233948,595.120422 246.388321,595.140991 
	C246.593155,590.446106 244.307327,587.784607 240.253952,586.255249 
	C239.008392,585.785278 237.781769,585.251282 236.585312,584.667053 
	C224.316086,578.675842 221.132355,572.265869 225.342560,559.422180 
	C227.763321,552.037292 230.998230,544.766479 234.971069,538.102783 
	C237.204483,534.356750 241.279099,531.194092 245.225784,529.075867 
	C259.628204,521.345886 275.542267,519.049622 291.562042,518.135681 
	C323.492859,516.314148 355.389893,514.452942 387.054749,509.539581 
	C393.848969,508.485352 401.061279,508.984070 407.941376,509.861603 
	C422.352997,511.699799 436.481537,511.359589 450.533112,507.415314 
	C453.824707,506.491333 457.453918,506.145355 460.869293,506.381042 
	C508.732697,509.684387 554.910889,502.510101 599.281128,484.216370 
	C607.124268,480.982666 614.637085,476.951599 622.332947,473.354126 
	C624.273804,472.446869 626.332642,471.791901 628.718628,471.045959 
z"/>
<path fill="#30333E" opacity="1.000000" stroke="none" 
	d="
M1027.928711,532.244873 
	C1024.748535,533.293274 1021.392273,534.625122 1018.006042,534.706360 
	C1012.567017,534.836609 1008.340698,537.027344 1004.774475,540.761597 
	C1001.673157,544.009033 998.375122,547.198853 995.938232,550.921021 
	C992.016113,556.911804 986.563477,558.860291 979.816895,559.033875 
	C963.601929,559.451050 947.571106,558.967407 931.799133,554.266174 
	C918.949158,550.435974 906.001770,546.416748 891.983887,548.346069 
	C896.325500,537.763184 898.024109,527.302734 898.083618,516.616394 
	C898.136414,507.127960 897.518188,497.636261 897.546753,488.147064 
	C897.554871,485.450043 898.274536,482.480469 899.547913,480.108337 
	C905.800049,468.462067 911.819214,456.654724 913.791199,443.488098 
	C915.087158,434.835632 914.913452,425.957703 915.294312,417.176208 
	C915.446228,413.673767 915.319336,410.159271 915.319336,406.650238 
	C916.045349,406.647552 916.771362,406.644867 917.497375,406.642181 
	C918.228699,416.559784 918.960022,426.477386 919.759277,437.316315 
	C923.207520,434.645172 926.147095,432.368103 929.387939,429.960663 
	C929.436218,445.916565 924.312622,460.553406 915.997559,474.091614 
	C912.761841,479.359863 911.820984,484.656738 912.431763,490.708862 
	C913.791565,504.185059 913.502136,517.632751 909.907837,530.817627 
	C909.076782,533.866333 909.217285,535.601257 912.991638,536.481628 
	C922.528931,538.706543 931.985718,541.311340 941.397766,544.030518 
	C955.284180,548.042297 969.343567,550.436401 983.735046,547.973999 
	C987.205322,547.380188 990.628296,545.195007 993.536377,543.023071 
	C996.142151,541.076904 997.954773,538.091125 1000.212524,535.652161 
	C1006.695007,528.649719 1017.276978,526.832764 1027.928711,532.244873 
z"/>
<path fill="#484951" opacity="1.000000" stroke="none" 
	d="
M966.455811,955.059753 
	C966.211182,944.645142 965.911865,934.320862 960.972168,924.563293 
	C959.999390,922.641724 961.847595,919.291992 963.028137,916.349060 
	C975.886414,916.727417 988.105957,917.555115 1000.338928,917.891724 
	C1005.309448,918.028442 1010.311218,917.102051 1014.337769,912.922241 
	C1017.252136,913.186218 1019.712585,913.519409 1022.183899,913.658569 
	C1032.753784,914.254211 1043.336304,914.864319 1053.146851,909.614990 
	C1053.907349,911.605774 1054.686523,913.589783 1055.405029,915.595642 
	C1055.498535,915.856873 1055.126709,916.451660 1055.225952,916.519775 
	C1060.883179,920.404419 1055.978760,925.775085 1057.077515,930.325073 
	C1057.384766,931.597656 1056.178345,933.294434 1055.508179,934.722412 
	C1055.109619,935.571716 1053.890015,936.293274 1053.914795,937.043518 
	C1054.134155,943.698181 1049.615967,944.654297 1044.643677,944.702271 
	C1034.730835,944.797974 1024.802856,944.327087 1014.906067,944.719788 
	C1008.483826,944.974548 1002.004333,945.895447 995.731262,947.316040 
	C986.021729,949.515015 976.466675,952.395813 966.455811,955.059753 
z"/>
<path fill="#484951" opacity="1.000000" stroke="none" 
	d="
M967.087280,765.968079 
	C970.797424,766.668274 974.543640,767.218384 978.210083,768.100342 
	C985.640564,769.887756 992.938538,772.464233 1000.459473,773.567322 
	C1007.256104,774.564209 1014.278931,773.969177 1021.198425,774.189270 
	C1030.308594,774.479065 1039.427612,774.701904 1048.516968,775.327820 
	C1051.744873,775.550110 1054.125366,777.499084 1053.550537,781.388367 
	C1053.501953,781.717224 1053.304688,782.271545 1053.415161,782.340881 
	C1058.375000,785.453491 1057.088257,790.586060 1057.367920,795.087158 
	C1057.500977,797.227478 1056.688110,799.439331 1056.218506,801.600159 
	C1055.876099,803.175903 1055.394409,804.721313 1054.518066,806.647461 
	C1044.842651,806.345398 1035.630005,805.571289 1026.403198,805.050049 
	C1021.660889,804.782166 1016.893005,804.965332 1011.828186,804.737915 
	C1005.588623,803.394287 999.667419,801.384277 993.724365,801.317261 
	C983.827698,801.205505 973.916992,802.339050 964.107178,802.576782 
	C965.579041,796.940674 967.778442,791.729492 968.125977,786.397705 
	C968.566467,779.639099 967.502441,772.782471 967.087280,765.968079 
z"/>
<path fill="#52545B" opacity="1.000000" stroke="none" 
	d="
M693.221436,794.077698 
	C690.300720,790.834717 687.218201,787.706360 684.712830,784.169189 
	C684.465881,783.820496 687.755249,780.967163 689.719604,779.110962 
	C705.089417,783.265320 720.265747,786.916626 736.097534,786.057495 
	C760.389099,784.739197 783.096741,777.450073 805.114563,767.555420 
	C816.787537,762.309631 828.561462,757.288574 840.665833,752.119751 
	C841.659668,752.603455 842.669067,753.033813 842.833435,753.679260 
	C844.119507,758.731323 847.979126,759.333069 852.206909,759.489685 
	C847.483948,760.769470 842.760620,761.803894 838.100769,763.071899 
	C810.650513,770.541199 790.516479,786.344299 780.587219,813.729980 
	C780.367065,814.337158 779.850769,814.836914 779.472595,815.386780 
	C779.070679,815.210327 778.668762,815.033813 778.266846,814.857361 
	C780.660339,807.792664 783.053833,800.728027 785.544128,793.377502 
	C784.544189,793.663147 783.895874,793.782898 783.299133,794.028198 
	C754.776733,805.753479 726.295288,806.089966 697.787476,793.903320 
	C696.521606,793.362183 694.754822,793.992859 693.221436,794.077698 
z"/>

<path fill="#363943" opacity="1.000000" stroke="none" 
	d="
M1012.136719,804.944641 
	C1016.893005,804.965332 1021.660889,804.782166 1026.403198,805.050049 
	C1035.630005,805.571289 1044.842651,806.345398 1054.494873,806.995239 
	C1054.533203,808.124939 1054.137939,809.273987 1053.711304,810.789124 
	C1041.529785,807.592163 1029.233765,808.674255 1016.373779,809.716187 
	C1014.590637,807.936035 1013.363708,806.440308 1012.136719,804.944641 
z"/>
<path fill="#30333E" opacity="1.000000" stroke="none" 
	d="
M1053.058105,909.404480 
	C1043.336304,914.864319 1032.753784,914.254211 1022.183899,913.658569 
	C1019.712585,913.519409 1017.252136,913.186218 1014.495850,912.649719 
	C1015.149658,911.231140 1016.094238,910.105103 1017.038818,908.979065 
	C1028.641846,908.943237 1040.244751,908.907410 1052.264648,908.855347 
	C1052.681641,908.839172 1052.969482,909.193970 1053.058105,909.404480 
z"/>
<path fill="#363943" opacity="1.000000" stroke="none" 
	d="
M967.072266,765.983826 
	C967.502441,772.782471 968.566467,779.639099 968.125977,786.397705 
	C967.778442,791.729492 965.579041,796.940674 963.849060,802.711548 
	C962.975647,803.478943 962.455322,803.740173 961.935059,804.001343 
	C959.980652,800.388672 960.807861,797.092896 961.841553,793.178528 
	C964.095703,784.642334 965.092224,775.773987 966.808533,766.503174 
	C967.014465,765.964905 967.057251,765.999573 967.072266,765.983826 
z"/>
<path fill="#39E1C1" opacity="1.000000" stroke="none" 
	d="
M786.124817,928.973938 
	C782.119690,928.062988 778.063843,927.331055 774.117798,926.211853 
	C749.010620,919.090942 724.439758,919.620483 700.567688,931.071289 
	C699.088867,931.780640 697.509338,932.280212 695.089294,933.223083 
	C694.529968,929.656982 693.909180,926.498047 693.556702,923.309448 
	C692.284546,911.800659 692.316895,900.358643 695.897095,889.183350 
	C701.491577,871.720764 713.642883,864.286926 731.564514,867.835266 
	C736.895386,868.890747 741.990967,871.154419 747.177979,872.913086 
	C758.339111,876.697021 769.275635,881.419189 780.692017,884.113342 
	C800.230103,888.723999 815.379211,898.905334 826.642883,916.114258 
	C827.336121,916.766968 827.669739,916.927917 828.003296,917.088928 
	C828.003296,917.088928 827.609802,917.211060 827.754150,917.720703 
	C829.905151,921.693604 831.911804,925.156799 833.918457,928.620056 
	C833.918457,928.620056 833.869934,928.846558 834.035034,929.230835 
	C834.470825,929.934570 834.741516,930.253906 835.012268,930.573303 
	C839.236145,937.885132 843.404053,945.230103 847.713135,952.491333 
	C849.293823,955.154846 851.208984,957.619873 853.601685,961.089111 
	C819.101562,956.491943 793.808289,940.989075 780.253906,908.762390 
	C779.688232,909.147339 779.122559,909.532227 778.556946,909.917175 
	C781.018921,916.039429 783.480957,922.161682 785.997437,928.634216 
	C786.052002,928.984436 786.124817,928.973938 786.124817,928.973938 
z"/>
<path fill="#38E1C0" opacity="1.000000" stroke="none" 
	d="
M693.175232,794.440308 
	C694.754822,793.992859 696.521606,793.362183 697.787476,793.903320 
	C726.295288,806.089966 754.776733,805.753479 783.299133,794.028198 
	C783.895874,793.782898 784.544189,793.663147 785.544128,793.377502 
	C783.053833,800.728027 780.660339,807.792664 778.266846,814.857361 
	C778.668762,815.033813 779.070679,815.210327 779.472595,815.386780 
	C779.850769,814.836914 780.367065,814.337158 780.587219,813.729980 
	C790.516479,786.344299 810.650513,770.541199 838.100769,763.071899 
	C842.760620,761.803894 847.483948,760.769470 852.587891,759.560059 
	C847.009277,769.294800 841.020691,779.096619 834.731384,789.504883 
	C832.294556,794.382446 830.158447,798.653442 828.022400,802.924500 
	C824.750366,807.321289 821.716064,811.921814 818.159058,816.074524 
	C809.528442,826.150574 799.163757,833.962341 786.055542,836.985168 
	C770.051575,840.675720 755.117493,847.019775 740.065796,853.345154 
	C733.708313,856.016846 726.262146,857.285217 719.347961,857.158691 
	C709.631836,856.980774 702.726013,851.023315 698.471741,842.307617 
	C691.707947,828.450745 691.315552,813.773804 693.130493,798.168579 
	C693.161011,797.325562 693.138184,797.157593 693.115356,796.989563 
	C693.119934,796.260681 693.124512,795.531799 693.175232,794.440308 
M778.515503,818.437988 
	C778.515503,818.437988 778.490662,818.481079 778.515503,818.437988 
z"/>
<path fill="#4090F6" opacity="1.000000" stroke="none" 
	d="
M854.452515,938.605591 
	C857.433838,932.478394 862.554199,929.630249 868.481750,928.776611 
	C895.510254,924.884094 920.498169,930.072510 942.515686,946.754150 
	C945.734863,949.193176 948.342834,952.717651 950.524963,956.185791 
	C954.498474,962.501038 953.290222,967.722229 947.411743,972.380615 
	C940.661499,977.729858 932.685852,980.132446 924.377991,981.266174 
	C903.563110,984.106812 884.003357,980.971436 867.777283,966.645569 
	C862.805908,962.256409 858.881836,956.333313 855.643799,950.469055 
	C853.915161,947.338501 854.672363,942.835266 854.452515,938.605591 
z"/>
<path fill="#4090F6" opacity="1.000000" stroke="none" 
	d="
M927.870178,781.837280 
	C909.493896,790.260620 890.775757,794.601440 870.809753,792.017517 
	C853.292969,789.750427 848.027588,778.623291 857.811157,763.918823 
	C864.868286,753.312073 874.665649,746.003357 886.764404,742.055176 
	C905.476868,735.948914 924.053772,735.601379 942.139832,744.430542 
	C944.493164,745.579407 946.676392,747.243103 948.629578,749.009705 
	C952.529785,752.537292 953.911560,757.153259 950.971069,761.584961 
	C947.899170,766.214600 944.142334,770.554993 940.002625,774.259277 
	C936.589783,777.313354 932.180237,779.253540 927.870178,781.837280 
z"/>
<path fill="#37DFBE" opacity="1.000000" stroke="none" 
	d="
M839.931458,845.227966 
	C844.930359,851.531494 851.820251,854.667603 860.034729,856.979126 
	C861.520508,857.182495 862.282166,857.204590 863.043884,857.226746 
	C863.043884,857.226746 863.057556,857.097290 863.230713,857.403076 
	C867.954163,858.493774 872.504517,859.278687 876.976196,860.050049 
	C869.843323,862.014771 862.887634,863.930725 855.931885,865.846680 
	C850.726257,868.886475 845.520569,871.926270 839.826904,875.006042 
	C840.118103,870.849976 840.897217,866.653931 841.676331,862.457886 
	C841.159912,862.212402 840.643494,861.966980 840.127075,861.721497 
	C839.169678,862.752075 837.926697,863.638428 837.317322,864.844727 
	C836.218445,867.020447 835.556885,869.412109 834.609497,871.670288 
	C831.899841,878.128906 830.778870,885.486877 824.395386,889.887329 
	C803.994995,892.070190 795.545532,880.374268 793.146606,861.651672 
	C792.435120,861.925781 791.723694,862.199829 791.012207,862.473877 
	C791.393616,867.346558 791.775024,872.219177 791.749023,877.523682 
	C788.907776,878.251343 786.473877,878.547241 784.039978,878.843079 
	C782.587524,878.655823 781.135071,878.468567 779.084351,877.889160 
	C774.926514,876.384277 771.366882,875.271423 767.807251,874.158630 
	C767.807251,874.158630 767.891724,874.299011 767.810791,874.007080 
	C768.797852,868.679138 772.195374,863.957458 769.997009,857.918945 
	C768.372009,859.243347 767.187134,860.335510 765.877563,861.248840 
	C763.452209,862.940369 761.570923,862.783752 760.848328,859.482239 
	C761.439392,853.161804 764.826416,848.853821 770.837585,847.217102 
	C777.639282,845.365051 784.614197,844.149292 792.173645,842.514160 
	C791.655090,849.278748 791.224609,854.895203 790.794128,860.511719 
	C791.483032,860.811401 792.171936,861.111023 792.860840,861.410706 
	C795.199280,849.215393 798.134399,837.452942 812.208984,833.065796 
	C813.895874,832.720032 814.873169,832.543884 815.857117,832.420776 
	C824.571167,831.330322 827.005432,832.773193 830.295715,840.780396 
	C832.491577,846.124268 834.689880,851.471680 837.097900,856.720886 
	C837.721436,858.080017 839.137329,859.075684 840.189270,860.238281 
	C840.660278,859.884155 841.131287,859.530090 841.602295,859.175964 
	C840.923767,856.509705 840.204956,853.852905 839.578308,851.174500 
	C838.968994,848.570251 838.454163,845.943909 837.897827,843.327271 
	C837.897827,843.327271 838.083557,843.174255 838.077759,843.349976 
	C838.387390,843.705627 838.702759,843.885620 839.018188,844.065613 
	C839.018188,844.065613 839.030823,843.980469 839.071228,844.239990 
	C839.384888,844.742310 839.658142,844.985168 839.931458,845.227966 
z"/>
<path fill="#04060D" opacity="1.000000" stroke="none" 
	d="
M254.809204,874.180420 
	C243.176132,871.994934 231.972794,869.886353 220.777023,867.738342 
	C219.991974,867.587769 219.262695,867.146484 218.253143,865.487488 
	C223.370728,864.250305 228.464005,862.895813 233.616608,861.827454 
	C236.037079,861.325562 238.642197,861.680420 241.044022,861.127441 
	C271.851349,854.034790 302.506195,856.146362 333.147858,862.304077 
	C339.986664,863.678345 346.948578,864.440125 353.591431,865.444214 
	C321.261932,871.180420 288.896271,879.834351 254.809204,874.180420 
z"/>
<path fill="#04060D" opacity="1.000000" stroke="none" 
	d="
M1016.687012,908.847534 
	C1016.094238,910.105103 1015.149658,911.231140 1014.046875,912.629639 
	C1010.311218,917.102051 1005.309448,918.028442 1000.338928,917.891724 
	C988.105957,917.555115 975.886414,916.727417 963.225830,916.065552 
	C964.040283,910.002563 965.022278,903.899292 966.611389,897.958557 
	C968.427795,891.168335 976.584290,888.479980 982.184326,892.887634 
	C992.351135,900.889893 1003.761841,906.007324 1016.687012,908.847534 
z"/>
<path fill="#04060D" opacity="1.000000" stroke="none" 
	d="
M961.994812,804.393677 
	C962.455322,803.740173 962.975647,803.478943 963.754089,803.082947 
	C973.916992,802.339050 983.827698,801.205505 993.724365,801.317261 
	C999.667419,801.384277 1005.588623,803.394287 1011.828186,804.737915 
	C1013.363708,806.440308 1014.590637,807.936035 1015.948120,809.733276 
	C1003.569458,812.878296 992.387817,818.425232 982.258606,826.281982 
	C976.006775,831.131287 967.964294,828.341797 965.932434,820.747009 
	C964.517761,815.459351 963.338806,810.108643 961.994812,804.393677 
z"/>
<path fill="#04060D" opacity="1.000000" stroke="none" 
	d="
M465.776062,864.816284 
	C450.753693,867.580383 435.769470,870.586548 420.686157,872.964172 
	C416.040161,873.696594 411.030640,873.240479 406.348969,872.414246 
	C393.585541,870.161438 380.908295,867.420410 370.490784,865.332581 
	C382.595795,862.913391 397.030823,859.690430 411.603424,857.309814 
	C416.352905,856.533875 421.493683,857.724060 426.399109,858.415405 
	C439.242523,860.225342 452.054749,862.256287 465.301208,864.365173 
	C465.722961,864.531250 465.776062,864.816223 465.776062,864.816284 
z"/>
<path fill="#363943" opacity="1.000000" stroke="none" 
	d="
M466.245819,864.871643 
	C465.776062,864.816223 465.722961,864.531250 465.725647,864.386475 
	C494.359222,863.470215 522.991150,862.733704 551.620056,861.895935 
	C556.940125,861.740295 562.277710,861.411865 567.555176,860.748840 
	C576.051208,859.681458 578.264832,857.493103 580.196472,849.167480 
	C580.860657,846.304749 581.460938,843.427185 582.071960,840.640564 
	C583.666016,848.095337 585.313354,855.405151 586.726257,862.760071 
	C586.989136,864.128418 586.320679,865.680054 586.062256,867.143616 
	C584.841919,874.055725 583.614807,880.966553 582.422546,887.694885 
	C581.438354,883.684448 580.135376,879.261841 579.309326,874.751831 
	C578.530334,870.499329 576.003479,868.227173 572.036377,867.629333 
	C567.107788,866.886414 562.123474,866.159607 557.154907,866.098450 
	C539.160889,865.877014 521.162292,866.043030 503.167603,865.854126 
	C491.015015,865.726624 478.866119,865.248474 466.245819,864.871643 
z"/>
<path fill="#484951" opacity="1.000000" stroke="none" 
	d="
M837.873413,842.932739 
	C838.454163,845.943909 838.968994,848.570251 839.578308,851.174500 
	C840.204956,853.852905 840.923767,856.509705 841.602295,859.175964 
	C841.131287,859.530090 840.660278,859.884155 840.189270,860.238281 
	C839.137329,859.075684 837.721436,858.080017 837.097900,856.720886 
	C834.689880,851.471680 832.491577,846.124268 830.295715,840.780396 
	C827.005432,832.773193 824.571167,831.330322 815.857117,832.420776 
	C814.873169,832.543884 813.895874,832.720032 812.511353,832.875244 
	C814.009033,831.317993 815.910828,829.757019 818.362183,827.881165 
	C819.611206,827.651001 820.310730,827.735657 821.097412,828.153076 
	C822.541016,829.394531 823.897522,830.303284 825.253906,831.212036 
	C825.608521,830.318542 825.963074,829.425049 826.328613,828.082520 
	C826.072876,825.343750 825.806274,823.054016 825.539673,820.764282 
	C826.466309,815.042725 827.392944,809.321228 828.171021,803.262085 
	C830.158447,798.653442 832.294556,794.382446 834.672119,789.837341 
	C833.796326,794.918457 832.661560,800.270020 831.565735,805.629578 
	C829.253479,816.938538 830.265564,827.740662 836.323364,837.841919 
	C837.148376,839.217590 837.355774,840.963623 837.873413,842.932739 
z"/>
<path fill="#39E1C1" opacity="1.000000" stroke="none" 
	d="
M760.450317,859.714722 
	C761.570923,862.783752 763.452209,862.940369 765.877563,861.248840 
	C767.187134,860.335510 768.372009,859.243347 769.997009,857.918945 
	C772.195374,863.957458 768.797852,868.679138 767.740540,874.049194 
	C764.699036,870.799377 761.646851,867.215576 758.215271,863.186218 
	C758.215271,865.570129 758.215271,867.916138 758.215271,871.077637 
	C750.720154,867.863892 743.964355,864.967224 736.597412,861.808411 
	C743.814453,858.565552 750.471558,855.574341 756.937988,852.668762 
	C759.395020,854.864075 754.134216,859.608643 760.450317,859.714722 
z"/>
<path fill="#484951" opacity="1.000000" stroke="none" 
	d="
M824.733521,889.951904 
	C830.778870,885.486877 831.899841,878.128906 834.609497,871.670288 
	C835.556885,869.412109 836.218445,867.020447 837.317322,864.844727 
	C837.926697,863.638428 839.169678,862.752075 840.127075,861.721497 
	C840.643494,861.966980 841.159912,862.212402 841.676331,862.457886 
	C840.897217,866.653931 840.118103,870.849976 839.621460,875.312256 
	C832.610718,890.013428 827.024414,904.608276 834.174500,920.950867 
	C834.998108,922.833374 834.110474,925.464539 833.967407,928.184326 
	C831.911804,925.156799 829.905151,921.693604 827.803101,917.920776 
	C827.206787,912.794434 826.705811,907.977661 826.005371,902.419250 
	C826.112305,898.966797 826.418701,896.255981 826.725098,893.545166 
	C826.173950,892.368896 825.622742,891.192688 824.733521,889.951904 
z"/>
<path fill="#484951" opacity="1.000000" stroke="none" 
	d="
M856.239014,865.957947 
	C862.887634,863.930725 869.843323,862.014771 876.976196,860.050049 
	C872.504517,859.278687 867.954163,858.493774 863.165955,857.396301 
	C875.957642,857.842834 888.987122,858.601868 902.016663,859.360962 
	C902.041992,859.683716 902.067322,860.006531 902.092712,860.329285 
	C886.910522,862.242554 871.728271,864.155884 856.239014,865.957947 
z"/>
<path fill="#37DFBE" opacity="1.000000" stroke="none" 
	d="
M826.602295,893.431885 
	C826.418701,896.255981 826.112305,898.966797 825.814392,902.043152 
	C823.655945,900.506287 821.488953,898.603882 818.894775,896.326477 
	C821.076416,895.580078 822.805115,894.988708 825.109863,894.107788 
	C825.978210,893.543762 826.270508,893.269287 826.562744,892.994873 
	C826.562744,892.994812 826.479431,893.318542 826.602295,893.431885 
z"/>
<path fill="#37DFBE" opacity="1.000000" stroke="none" 
	d="
M825.276001,820.855469 
	C825.806274,823.054016 826.072876,825.343750 825.888306,827.983154 
	C823.961487,828.161926 822.485901,827.991150 821.010254,827.820312 
	C820.310730,827.735657 819.611206,827.651001 818.558960,827.588257 
	C820.474915,825.389038 822.743652,823.167847 825.276001,820.855469 
z"/>










<path fill="#4090F6" opacity="1.000000" stroke="none" 
	d="
M894.648071,417.434967 
	C904.322632,442.252258 900.282471,464.808441 885.178711,485.796021 
	C884.984619,486.065704 884.764343,486.319794 884.533630,486.559296 
	C875.655762,495.772705 872.780151,495.560028 863.973633,489.599884 
	C846.609924,477.848267 837.678284,460.628021 835.167480,440.257507 
	C834.250732,432.820129 834.713074,424.849335 836.378052,417.539093 
	C839.141602,405.405579 846.543579,396.355103 859.360413,393.803833 
	C872.020569,391.283813 881.124390,397.998474 888.592041,407.255798 
	C890.968445,410.201569 892.541626,413.795197 894.648071,417.434967 
z"/>
<path fill="#363943" opacity="1.000000" stroke="none" 
	d="
M829.073242,446.416870 
	C826.523743,445.471222 823.957153,444.113251 821.144165,442.542511 
	C818.175537,433.810333 815.379517,425.313324 812.786499,416.754761 
	C812.184265,414.767181 812.273926,412.570007 811.914062,409.263733 
	C814.966675,416.363068 817.304932,422.373840 820.127441,428.147919 
	C821.790466,431.550049 824.467224,434.448334 826.226929,437.814331 
	C827.550171,440.345612 828.139893,443.260437 829.073242,446.416870 
z"/>





</svg>