<svg version="1.1" id="Layer_1" xmlns="http://www.w3.org/2000/svg" xmlns:xlink="http://www.w3.org/1999/xlink" x="0px" y="0px"
	  viewBox="0 0 1402 1122" enable-background="new 0 0 1402 1122" xml:space="preserve">
<path fill="#000209" opacity="1.000000" stroke="none" 
	d="
M1001.000000,1123.000000 
	C667.333313,1123.000000 334.166656,1123.000000 1.000000,1123.000000 
	C1.000000,749.000000 1.000000,375.000000 1.000000,1.000000 
	C468.333344,1.000000 935.666687,1.000000 1403.000000,1.000000 
	C1403.000000,375.000000 1403.000000,749.000000 1403.000000,1123.000000 
	C1269.166626,1123.000000 1135.333374,1123.000000 1001.000000,1123.000000 
M726.184753,783.805603 
	C725.458801,784.008728 724.732910,784.211853 723.256226,784.471375 
	C722.533142,784.626404 721.810059,784.781494 720.348145,784.566406 
	C713.135681,782.984131 705.923218,781.401855 698.703430,779.613098 
	C698.703430,779.613098 698.409302,779.556335 698.409302,779.556335 
	C698.409302,779.556335 698.267944,779.774475 697.449524,779.685364 
	C696.902283,779.643799 696.354980,779.602234 695.670532,779.325073 
	C695.457397,779.235291 695.309204,779.298523 694.286560,779.415405 
	C692.080139,779.401245 689.873779,779.387024 686.932007,779.131897 
	C684.395996,778.807190 681.859924,778.482483 678.752563,777.733826 
	C669.011230,770.127136 658.631775,763.748779 646.471924,760.773926 
	C646.471924,760.773926 646.298889,760.904907 645.462158,760.632935 
	C643.468628,760.266602 641.475098,759.900269 639.230530,758.981506 
	C638.490051,758.344971 637.749512,757.708435 636.737976,756.448792 
	C633.486206,753.721680 628.785278,751.629333 627.259338,748.146179 
	C622.998840,738.420593 616.297119,730.981262 608.820312,723.560425 
	C608.920898,723.162781 609.021545,722.765137 609.769043,722.102478 
	C636.194885,702.847717 653.869324,677.076843 665.423279,646.860596 
	C667.065491,642.565796 667.995239,637.837402 668.339111,633.241211 
	C669.030823,623.994019 665.867249,612.497742 652.108948,609.805298 
	C640.059875,607.447388 627.922913,605.021240 615.714294,604.117615 
	C597.695435,602.783936 580.431763,608.102539 563.090881,612.225403 
	C556.466614,613.800293 549.706360,614.796814 543.023010,616.131836 
	C538.791931,616.977112 536.515747,615.174133 534.360535,611.483521 
	C522.824951,591.729675 504.770050,583.828857 482.646240,584.865417 
	C461.178345,585.871216 443.776520,595.135376 433.983368,614.649048 
	C429.340759,623.899841 426.041046,633.258179 415.512634,637.309753 
	C415.075256,637.478027 414.760468,637.956543 414.378510,638.278564 
	C407.900757,643.740234 401.563568,649.380615 394.909821,654.618835 
	C384.204071,663.046997 375.799438,673.071594 371.151031,686.067139 
	C367.509552,696.247803 368.059296,705.964478 373.390594,715.441406 
	C374.931061,718.179810 376.316986,721.076172 377.273163,724.060486 
	C383.130035,742.340210 392.789612,758.260864 406.369781,771.822937 
	C407.653107,773.104492 409.116760,774.425781 409.827362,776.025879 
	C416.061859,790.063416 426.493256,800.341309 438.844940,808.965027 
	C440.336517,810.006470 442.021759,811.006287 443.055115,812.432617 
	C457.109558,831.831665 475.791351,845.965820 495.746979,858.554504 
	C534.656372,883.099915 577.538391,894.336304 623.207092,895.954773 
	C638.021240,896.479797 652.915039,896.180115 667.634460,897.644714 
	C695.291260,900.396606 722.833923,904.276062 750.449646,907.465454 
	C775.807739,910.394043 800.798584,910.744629 823.583984,894.738892 
	C828.207886,890.780029 833.657715,887.454956 837.283447,882.730164 
	C844.786438,872.952881 851.318848,862.430786 858.765747,851.784607 
	C883.037964,820.265991 898.424927,784.692078 907.550537,746.217407 
	C908.034363,746.476929 908.518127,746.736511 909.213928,747.651001 
	C916.608154,760.935852 927.122803,771.544250 938.071350,781.870300 
	C954.699524,797.553162 968.011047,815.781433 978.411987,836.137451 
	C984.412537,847.881348 987.564148,859.994690 984.165405,873.256531 
	C983.227295,876.917114 983.010681,880.839050 982.989990,884.643921 
	C982.927063,896.198486 988.132812,902.525085 999.594788,903.845276 
	C1007.332520,904.736572 1015.215881,904.277893 1023.013916,904.754028 
	C1031.958374,905.300171 1041.093140,905.254395 1049.764282,907.180481 
	C1064.255249,910.399231 1078.693604,912.047363 1093.361084,909.832397 
	C1100.702393,908.723816 1108.073486,907.115967 1115.044922,904.644653 
	C1117.390381,903.813171 1119.690063,899.689270 1119.860229,896.937195 
	C1119.984985,894.921204 1117.005615,891.907654 1114.697632,890.702637 
	C1108.513672,887.473816 1101.946777,884.978271 1095.712646,881.385254 
	C1095.771362,881.116760 1095.829956,880.848206 1096.828735,880.728699 
	C1108.445557,880.227600 1120.105835,880.174866 1131.662842,879.055908 
	C1138.512573,878.392700 1142.029297,874.794006 1141.986816,870.668213 
	C1141.920898,864.273560 1136.628418,863.934814 1132.244507,862.577637 
	C1122.713379,859.627014 1112.758423,857.582642 1103.779663,853.431152 
	C1093.092041,848.489502 1083.032715,842.056458 1073.116455,835.629150 
	C1067.317017,831.870239 1061.499146,827.549927 1057.126099,822.288269 
	C1042.972412,805.258606 1032.292969,786.045044 1023.975647,765.529175 
	C1014.338806,741.758240 1005.014709,717.854919 994.998352,694.245178 
	C987.461975,676.481018 979.011475,659.105774 971.039246,641.525024 
	C966.605225,631.746948 961.451233,622.483459 953.571777,614.973633 
	C939.560364,601.619507 918.337158,598.658386 901.661865,607.932312 
	C899.943787,609.120911 898.225708,610.309509 895.725830,611.672424 
	C879.333496,613.423340 866.398376,621.879883 854.957214,633.004944 
	C848.762451,639.028687 842.595154,645.142761 837.011292,651.721802 
	C812.871399,680.164429 789.563477,709.220886 772.844177,742.902222 
	C768.557373,751.538025 764.152283,760.115112 759.150879,768.877258 
	C757.415405,770.026184 755.679932,771.175110 753.234741,772.575500 
	C746.123779,775.817505 739.012817,779.059448 731.252258,782.327942 
	C729.815613,782.819153 728.378967,783.310425 726.184753,783.805603 
M920.797852,301.385864 
	C922.058472,302.393066 923.319092,303.400269 924.801636,305.074219 
	C930.940491,317.958862 940.245605,328.334259 950.831177,337.645508 
	C969.848938,354.373810 984.635071,374.337158 996.257629,396.730957 
	C1002.013672,407.821533 1005.088135,419.310699 1001.705200,431.901215 
	C1000.764893,435.400604 1000.528870,439.148163 1000.403320,442.796753 
	C999.989197,454.833008 1005.778381,461.747681 1017.734558,462.996887 
	C1024.337036,463.686737 1031.046631,463.288635 1037.676880,463.790283 
	C1048.926758,464.641510 1060.150391,465.835266 1071.388306,466.850128 
	C1082.625610,467.864868 1093.877441,469.707855 1105.103394,469.572357 
	C1115.460938,469.447327 1126.134155,469.001068 1135.729858,463.757446 
	C1138.919189,462.014740 1141.744873,459.665649 1140.661499,456.055725 
	C1139.939331,453.649475 1137.411865,451.137787 1135.052002,449.992523 
	C1128.175781,446.655426 1120.977783,443.981476 1113.973511,440.378876 
	C1113.967529,440.155060 1113.961426,439.931213 1114.896118,439.793762 
	C1125.534424,439.752502 1136.177246,439.869354 1146.808350,439.571106 
	C1149.894653,439.484528 1153.013184,438.408997 1155.999390,437.429016 
	C1159.714233,436.209961 1162.686890,433.868347 1162.450928,429.558502 
	C1162.212036,425.194153 1158.941772,423.862549 1155.102051,422.683990 
	C1141.785278,418.596527 1127.770996,416.563263 1115.595947,409.037262 
	C1106.393799,403.348907 1096.707520,398.421051 1087.681885,392.478546 
	C1082.485229,389.057129 1077.522705,384.826416 1073.580811,380.033966 
	C1058.862793,362.140381 1048.115967,341.865143 1039.521729,320.422241 
	C1029.121948,294.474884 1019.947510,268.038422 1006.814270,243.210983 
	C1000.454956,231.189041 995.716919,218.320206 989.741638,206.080460 
	C985.816650,198.040512 981.742798,189.879654 976.423645,182.751999 
	C962.978149,164.734940 938.539978,158.982544 920.164734,168.961517 
	C918.312012,170.167648 916.459351,171.373779 913.797974,172.731064 
	C898.430420,174.351028 885.482605,181.379990 874.136414,191.332535 
	C837.988708,223.040359 806.295837,258.669250 780.421936,299.309753 
	C774.433594,308.715637 768.681396,318.271851 762.174988,327.979004 
	C760.117737,329.242462 758.060425,330.505920 755.289185,331.942505 
	C743.809509,336.758911 732.329895,341.575348 720.099060,346.368835 
	C716.096008,347.295410 712.092896,348.221985 707.264404,349.103851 
	C692.842102,346.040100 678.281921,344.937378 663.626526,346.711334 
	C657.833801,347.412506 652.635986,347.128418 646.917358,345.006317 
	C627.386902,337.758698 607.018982,336.635559 585.837158,338.354462 
	C577.802246,336.267395 569.742310,334.269989 561.745911,332.044678 
	C558.942078,331.264404 555.984436,330.376373 553.627686,328.762573 
	C542.253174,320.973419 529.814026,316.403687 516.120728,314.748444 
	C502.483459,313.099945 489.234955,315.071228 475.750122,317.466461 
	C475.054749,316.645844 474.359406,315.825195 473.498444,314.227203 
	C470.570648,308.648651 468.145386,302.723480 464.594147,297.574951 
	C459.599182,290.333313 453.825165,283.622406 448.283966,276.765594 
	C436.378204,262.033142 426.400330,259.351471 408.856079,266.623596 
	C405.069794,268.193024 403.136017,267.587494 400.526459,264.543304 
	C386.792908,248.522171 369.366852,241.073593 348.212677,243.509521 
	C316.036194,247.214691 284.414429,282.368195 300.174164,324.543182 
	C299.785492,325.041473 299.396820,325.539764 298.366669,326.244598 
	C296.382172,328.439819 293.121460,330.402344 292.670288,332.877106 
	C291.627686,338.595520 287.681396,340.713928 283.366089,342.963837 
	C280.413025,344.503479 277.506012,346.144043 274.659271,347.872711 
	C262.235046,355.417328 251.345551,364.535156 244.515289,377.729248 
	C238.332382,389.672882 239.644867,400.909546 247.976578,411.317871 
	C255.264999,420.422852 264.677094,426.487946 275.725250,430.098663 
	C277.621002,430.718201 279.579437,431.273834 281.326111,432.202759 
	C308.938416,446.886841 338.506958,452.730835 369.581970,452.023590 
	C372.171051,451.964691 374.830017,452.630981 377.371185,453.289551 
	C382.999969,454.748260 388.494904,456.842255 394.188538,457.905762 
	C404.312775,459.796844 414.634491,460.678497 424.711151,462.766418 
	C444.453888,466.857239 464.275330,468.166595 484.344452,466.287018 
	C495.578735,465.234833 506.874420,463.338409 518.075562,463.731049 
	C544.762512,464.666412 571.406128,465.430847 597.863953,461.204895 
	C638.982849,454.637207 680.072571,454.223938 721.351929,459.766266 
	C739.970886,462.266113 758.741516,464.058624 777.501404,464.951508 
	C792.202820,465.651245 806.236450,461.727631 819.481750,453.716156 
	C820.071106,453.217438 820.660461,452.718719 821.602112,452.072754 
	C821.602112,452.072754 821.926208,451.870789 822.634338,451.812988 
	C831.505432,447.706268 838.181030,440.917969 843.932373,433.349579 
	C850.334656,424.924835 856.071533,415.994415 862.721436,407.000275 
	C863.123535,406.710297 863.611938,406.490936 863.915527,406.120270 
	C882.185364,383.816681 898.802307,360.428650 909.465820,333.412689 
	C913.591553,322.960144 916.650696,312.086609 920.797852,301.385864 
z"/>
<path fill="#5A595D" opacity="1.000000" stroke="none" 
	d="
M822.894653,894.797607 
	C800.798584,910.744629 775.807739,910.394043 750.449646,907.465454 
	C722.833923,904.276062 695.291260,900.396606 667.634460,897.644714 
	C652.915039,896.180115 638.021240,896.479797 623.207092,895.954773 
	C577.538391,894.336304 534.656372,883.099915 495.746979,858.554504 
	C475.791351,845.965820 457.109558,831.831665 443.055115,812.432617 
	C442.021759,811.006287 440.336517,810.006470 438.844940,808.965027 
	C426.493256,800.341309 416.061859,790.063416 409.827362,776.025879 
	C409.116760,774.425781 407.653107,773.104492 406.369781,771.822937 
	C392.789612,758.260864 383.130035,742.340210 377.273163,724.060486 
	C376.316986,721.076172 374.931061,718.179810 373.390594,715.441406 
	C368.059296,705.964478 367.509552,696.247803 371.151031,686.067139 
	C375.799438,673.071594 384.204071,663.046997 394.909821,654.618835 
	C401.563568,649.380615 407.900757,643.740234 414.378510,638.278564 
	C414.760468,637.956543 415.075256,637.478027 415.512634,637.309753 
	C426.041046,633.258179 429.340759,623.899841 433.983368,614.649048 
	C443.776520,595.135376 461.178345,585.871216 482.646240,584.865417 
	C504.770050,583.828857 522.824951,591.729675 534.360535,611.483521 
	C536.515747,615.174133 538.791931,616.977112 543.023010,616.131836 
	C549.706360,614.796814 556.466614,613.800293 563.090881,612.225403 
	C580.431763,608.102539 597.695435,602.783936 615.714294,604.117615 
	C627.922913,605.021240 640.059875,607.447388 652.108948,609.805298 
	C665.867249,612.497742 669.030823,623.994019 668.339111,633.241211 
	C667.995239,637.837402 667.065491,642.565796 665.423279,646.860596 
	C653.869324,677.076843 636.194885,702.847717 609.282837,721.904541 
	C602.111389,717.831726 595.503845,713.813171 588.708313,710.142578 
	C585.291565,708.297119 581.533325,707.083801 576.674377,705.062500 
	C566.802063,705.667725 555.424927,706.365173 544.019409,707.032715 
	C543.991150,707.002869 543.930176,706.947510 543.937256,706.524414 
	C544.317444,700.555420 544.690613,695.009583 545.403076,689.287720 
	C551.043274,687.164734 556.431641,685.420349 561.608276,683.185486 
	C564.201843,682.065735 566.747681,680.385132 568.725464,678.377380 
	C573.840454,673.184570 578.380188,667.411682 583.625061,662.364502 
	C587.774841,658.371338 592.359131,654.441162 599.044495,656.420959 
	C599.579041,656.579224 600.343872,655.960205 601.001648,655.702393 
	C582.210022,652.452026 563.789001,646.630676 544.529175,650.712952 
	C545.348328,655.405273 546.886292,659.662292 546.649963,663.818481 
	C546.170898,672.245728 544.731262,680.618408 543.517456,689.356079 
	C543.028625,691.665649 542.703796,693.631775 542.392578,695.599976 
	C540.716431,706.199036 535.658325,711.218628 525.112427,711.919128 
	C510.964569,712.858948 497.209534,711.105652 484.304840,704.724548 
	C483.303253,704.229248 482.166016,704.008301 481.091827,703.659790 
	C492.424255,712.921326 504.148621,721.065857 519.384033,721.021606 
	C523.076599,721.010925 525.236633,722.504456 526.208130,726.045227 
	C518.670471,727.372559 511.325531,728.665894 502.887634,730.151672 
	C520.082275,730.151672 535.965881,730.151672 551.849548,730.151672 
	C551.921814,729.666504 551.994141,729.181335 552.066406,728.696167 
	C546.953613,727.790039 541.861816,726.332520 536.721985,726.136841 
	C531.836426,725.950867 529.332275,723.568298 527.948181,719.510376 
	C527.618042,718.542480 528.301575,716.390442 529.099731,716.013672 
	C533.895691,713.750122 538.722900,711.363281 543.795288,709.910400 
	C559.242554,705.486084 574.434082,706.841858 588.975525,713.566772 
	C595.705200,716.679016 602.066101,720.588623 608.594177,724.136780 
	C616.297119,730.981262 622.998840,738.420593 627.259338,748.146179 
	C628.785278,751.629333 633.486206,753.721680 636.618408,756.963867 
	C634.644287,758.366577 632.789856,759.254272 630.572998,760.269897 
	C629.455505,760.527893 628.700317,760.658020 627.774170,760.679260 
	C627.044434,760.801575 626.485779,761.032776 625.594604,761.434021 
	C624.050110,761.864807 622.838135,762.125549 621.217896,762.326782 
	C619.493042,762.818176 617.830139,763.035889 616.922241,763.979797 
	C613.641357,767.390930 612.043823,782.523193 614.226074,787.517578 
	C614.111328,789.636047 614.021484,791.328857 613.760254,793.261841 
	C613.074158,794.336426 612.559387,795.170776 611.690063,796.031616 
	C609.956055,797.410767 608.346924,798.597473 607.231873,800.141052 
	C592.322449,820.781677 574.512634,838.299805 552.389282,851.158508 
	C547.967224,853.728638 543.322266,855.915100 538.332031,858.511597 
	C539.776794,859.494934 540.799622,860.281982 541.904297,860.929565 
	C562.779419,873.166931 585.380798,880.178589 609.327515,883.003845 
	C627.624695,885.162476 645.899597,884.648865 664.146912,882.242249 
	C680.990356,880.020752 697.853882,877.949402 714.688354,875.663025 
	C721.865601,874.688232 721.778076,874.525085 720.812805,867.561523 
	C717.881104,846.414001 719.309509,825.686462 726.948730,805.603027 
	C726.941345,805.624451 726.878418,805.698486 727.068665,805.338501 
	C727.855408,802.670532 728.451843,800.362610 729.026550,798.029785 
	C729.004822,798.005005 729.019104,798.069336 729.209351,798.320984 
	C729.609741,798.562256 729.819824,798.551880 730.277222,798.411804 
	C731.307129,795.758850 732.089661,793.235657 733.074097,790.460205 
	C734.385864,789.157227 735.495789,788.106445 736.804565,786.923462 
	C736.507751,786.274048 736.011963,785.756775 735.165649,785.318115 
	C733.865173,785.326599 732.915100,785.256409 731.955444,784.825195 
	C731.931152,783.743286 731.916504,783.022339 731.901855,782.301453 
	C739.012817,779.059448 746.123779,775.817505 753.543274,772.859375 
	C753.119629,774.981567 752.625061,776.963745 751.614136,778.633118 
	C747.236084,785.863342 742.672363,792.980957 738.258057,800.189636 
	C737.195374,801.925110 736.446167,803.852661 735.552795,805.691833 
	C736.116882,806.022522 736.681030,806.353210 737.245117,806.683899 
	C744.116577,796.213928 751.067383,785.794312 757.784668,775.226379 
	C758.960083,773.377075 759.154114,770.904114 759.801453,768.719177 
	C764.152283,760.115112 768.557373,751.538025 772.844177,742.902222 
	C789.563477,709.220886 812.871399,680.164429 837.011292,651.721802 
	C842.595154,645.142761 848.762451,639.028687 854.957214,633.004944 
	C866.398376,621.879883 879.333496,613.423340 896.584229,611.721497 
	C905.967224,612.511597 914.249084,613.994568 921.645813,618.752014 
	C933.946594,626.663879 941.365295,638.327209 946.945435,651.400085 
	C952.887146,665.320129 958.621216,679.329285 964.622864,693.223145 
	C970.299072,706.363342 976.622437,719.237671 981.926270,732.522339 
	C994.454163,763.901855 1005.063965,796.095642 1021.490845,825.799866 
	C1026.871948,835.530151 1032.094116,845.717041 1041.780396,851.995178 
	C1055.462646,860.863403 1069.424072,869.313660 1083.461792,877.611877 
	C1087.112061,879.769653 1091.488892,880.698303 1095.531982,882.191528 
	C1101.946777,884.978271 1108.513672,887.473816 1114.697632,890.702637 
	C1117.005615,891.907654 1119.984985,894.921204 1119.860229,896.937195 
	C1119.690063,899.689270 1117.390381,903.813171 1115.044922,904.644653 
	C1108.073486,907.115967 1100.702393,908.723816 1093.361084,909.832397 
	C1078.693604,912.047363 1064.255249,910.399231 1049.764282,907.180481 
	C1041.093140,905.254395 1031.958374,905.300171 1023.013916,904.754028 
	C1015.215881,904.277893 1007.332520,904.736572 999.594788,903.845276 
	C988.132812,902.525085 982.927063,896.198486 982.989990,884.643921 
	C983.010681,880.839050 983.227295,876.917114 984.165405,873.256531 
	C987.564148,859.994690 984.412537,847.881348 978.411987,836.137451 
	C968.011047,815.781433 954.699524,797.553162 938.071350,781.870300 
	C927.122803,771.544250 916.608154,760.935852 909.079712,746.947632 
	C902.862183,729.088135 900.157898,711.541199 903.183655,693.260559 
	C902.027039,694.421997 901.460876,695.587341 900.913208,696.761414 
	C893.990295,711.603149 891.819031,727.654602 888.986633,743.541077 
	C885.035461,765.701660 880.139404,787.640625 871.277405,808.425598 
	C864.949097,823.267944 857.778320,837.749451 851.345520,852.549316 
	C845.858276,865.173706 839.051025,876.889832 829.867920,887.174561 
	C827.574402,889.743103 825.220703,892.257996 822.894653,894.797607 
M450.117615,720.905212 
	C457.016418,731.338745 463.915222,741.772339 470.496887,751.726257 
	C470.263672,750.250793 469.919037,748.070618 469.574432,745.890442 
	C469.976837,745.644897 470.379272,745.399353 470.781708,745.153809 
	C477.969910,753.363708 485.158112,761.573608 492.346313,769.783508 
	C492.747620,769.404541 493.148926,769.025574 493.550232,768.646606 
	C486.346619,756.335083 479.467194,743.798279 466.818298,735.792664 
	C464.959076,734.615967 463.756317,732.390015 462.277863,730.626038 
	C458.955200,726.661499 457.165955,721.087280 451.013550,719.150269 
	C450.089752,712.080200 449.358521,704.975403 448.094025,697.966797 
	C447.811127,696.398804 445.912659,694.625488 444.320892,693.880310 
	C438.702240,691.249756 433.068512,688.872986 431.882385,681.735962 
	C431.682800,680.534851 431.057953,679.404419 430.629639,678.241333 
	C429.789673,679.077698 429.647186,679.815247 429.667572,680.548340 
	C429.856628,687.339417 430.336395,694.136292 430.168488,700.917480 
	C430.088379,704.152771 430.971039,706.145996 433.574127,707.989807 
	C439.134216,711.928223 444.477234,716.172974 450.117615,720.905212 
M433.500916,651.059570 
	C431.411621,645.585510 429.322296,640.111511 427.221649,634.607727 
	C423.898987,643.361328 438.601898,682.715759 445.403381,682.969788 
	C441.507874,672.546143 437.632141,662.175415 433.500916,651.059570 
M734.475952,808.495789 
	C734.475952,808.495789 734.513550,808.480408 734.475952,808.495789 
M495.538818,772.498596 
	C495.538818,772.498596 495.483337,772.522766 495.538818,772.498596 
z"/>
<path fill="#5B595E" opacity="1.000000" stroke="none" 
	d="
M818.880249,453.743958 
	C806.236450,461.727631 792.202820,465.651245 777.501404,464.951508 
	C758.741516,464.058624 739.970886,462.266113 721.351929,459.766266 
	C680.072571,454.223938 638.982849,454.637207 597.863953,461.204895 
	C571.406128,465.430847 544.762512,464.666412 518.075562,463.731049 
	C506.874420,463.338409 495.578735,465.234833 484.344452,466.287018 
	C464.275330,468.166595 444.453888,466.857239 424.711151,462.766418 
	C414.634491,460.678497 404.312775,459.796844 394.188538,457.905762 
	C388.494904,456.842255 382.999969,454.748260 377.371185,453.289551 
	C374.830017,452.630981 372.171051,451.964691 369.581970,452.023590 
	C338.506958,452.730835 308.938416,446.886841 281.326111,432.202759 
	C279.579437,431.273834 277.621002,430.718201 275.725250,430.098663 
	C264.677094,426.487946 255.264999,420.422852 247.976578,411.317871 
	C239.644867,400.909546 238.332382,389.672882 244.515289,377.729248 
	C251.345551,364.535156 262.235046,355.417328 274.659271,347.872711 
	C277.506012,346.144043 280.413025,344.503479 283.366089,342.963837 
	C287.681396,340.713928 291.627686,338.595520 292.670288,332.877106 
	C293.121460,330.402344 296.382172,328.439819 298.877289,326.418457 
	C306.061707,331.614807 312.732880,336.640839 319.419800,341.645844 
	C319.662079,341.827179 320.057556,341.856537 320.384064,341.865051 
	C329.924011,342.113678 336.888519,347.246704 343.292511,353.659973 
	C344.558319,354.927582 346.643677,355.376770 348.351105,356.203400 
	C347.792145,356.576111 347.233185,356.948822 346.674225,357.321564 
	C345.335785,354.583862 344.519989,351.361908 342.536835,349.221649 
	C339.539093,345.986420 336.130096,342.415924 332.169922,340.952789 
	C325.856018,338.620026 319.920593,336.184235 315.008789,331.437134 
	C313.504181,329.982971 311.338959,329.174561 309.406860,328.209381 
	C306.458130,326.736298 303.449036,325.384064 300.465576,323.980499 
	C284.414429,282.368195 316.036194,247.214691 348.212677,243.509521 
	C369.366852,241.073593 386.792908,248.522171 400.526459,264.543304 
	C403.136017,267.587494 405.069794,268.193024 408.856079,266.623596 
	C426.400330,259.351471 436.378204,262.033142 448.283966,276.765594 
	C453.825165,283.622406 459.599182,290.333313 464.594147,297.574951 
	C468.145386,302.723480 470.570648,308.648651 473.162872,314.674713 
	C463.933350,317.138092 456.866791,322.402618 450.166046,328.491455 
	C458.781128,324.978271 467.396240,321.465118 476.011353,317.951965 
	C489.234955,315.071228 502.483459,313.099945 516.120728,314.748444 
	C529.814026,316.403687 542.253174,320.973419 553.627686,328.762573 
	C555.984436,330.376373 558.942078,331.264404 561.745911,332.044678 
	C569.742310,334.269989 577.802246,336.267395 585.737671,338.765991 
	C579.239502,341.128143 572.840881,343.078796 566.129333,345.124817 
	C568.594604,348.588898 570.598999,351.041962 572.187866,353.739716 
	C573.786011,356.453125 575.109863,359.352875 576.309326,362.271454 
	C579.346313,369.660889 579.334595,369.446075 587.610474,369.948608 
	C602.391541,370.846100 617.168396,371.903809 631.914734,373.248932 
	C641.514771,374.124664 644.734497,372.888153 649.356323,364.420624 
	C651.372559,360.726593 652.883423,356.756744 654.623840,352.912140 
	C655.263123,361.458649 650.718018,367.903046 645.651001,374.846466 
	C647.791809,375.277313 649.358521,375.873383 650.920776,375.861816 
	C661.715942,375.782013 672.517273,375.761353 683.302429,375.349701 
	C691.622253,375.032196 698.723938,371.524139 705.038574,366.050781 
	C705.785217,366.825775 706.190186,367.289551 706.356384,367.978699 
	C699.275085,374.021423 691.189697,377.449097 682.412231,377.748352 
	C668.660767,378.217163 654.639343,379.164429 641.156555,377.116180 
	C621.803406,374.176178 602.533081,372.431732 583.007080,372.592438 
	C579.331482,372.622681 577.902161,373.772491 577.068420,377.420380 
	C570.695740,405.303284 558.441467,430.030090 537.341370,449.877014 
	C536.921265,450.272217 536.774902,450.958557 535.782959,452.950897 
	C550.123230,453.193237 563.629333,454.453979 576.953674,453.405731 
	C597.172791,451.815063 617.265747,448.620697 637.412292,446.107208 
	C661.359802,443.119507 685.323914,440.256866 709.246826,437.083893 
	C719.286133,435.752350 719.265381,435.450073 717.462830,425.536804 
	C714.453430,408.985443 713.987244,392.464783 718.157166,375.709045 
	C718.471313,374.772217 718.593994,374.112976 718.727905,373.076508 
	C719.812439,369.491364 720.885864,366.283478 722.123413,362.901489 
	C722.428345,362.273743 722.569092,361.820129 722.697876,361.248108 
	C722.685913,361.129700 722.829529,360.939880 723.096008,360.712799 
	C724.508911,357.602386 725.655334,354.719055 726.808960,351.853394 
	C726.816162,351.871094 726.828247,351.841461 727.151367,351.801422 
	C728.087219,350.989594 728.699951,350.217834 729.312622,349.446045 
	C728.210388,349.335266 727.108154,349.224487 725.589783,349.155945 
	C723.785339,349.079712 722.396973,348.961243 720.987671,348.535767 
	C720.927795,347.616425 720.889038,347.004120 720.850220,346.391785 
	C732.329895,341.575348 743.809509,336.758911 755.580139,332.215576 
	C749.430908,341.955078 742.990723,351.421509 736.550598,360.887939 
	C737.861389,360.965668 738.842346,360.653748 739.378052,359.985107 
	C746.835815,350.676270 754.275208,341.351746 761.585266,331.927216 
	C762.412781,330.860321 762.428406,329.163574 762.820557,327.758911 
	C768.681396,318.271851 774.433594,308.715637 780.421936,299.309753 
	C806.295837,258.669250 837.988708,223.040359 874.136414,191.332535 
	C885.482605,181.379990 898.430420,174.351028 914.616516,172.831970 
	C917.391052,173.285370 919.335938,173.726517 921.305054,173.975143 
	C930.138428,175.090515 938.059631,178.435989 944.719360,184.278580 
	C954.019470,192.437714 960.604614,202.567841 965.214172,214.028198 
	C969.867188,225.596420 974.403259,237.218124 979.359985,248.656311 
	C987.826477,268.193512 997.219482,287.352905 1005.054749,307.133881 
	C1014.982910,332.198547 1023.976379,357.615204 1037.111816,381.291382 
	C1044.528320,394.659271 1052.609253,407.361542 1066.178833,415.457550 
	C1076.469727,421.597443 1086.605103,428.014404 1097.074585,433.831390 
	C1102.382812,436.780670 1108.276733,438.675781 1113.905884,441.047485 
	C1120.977783,443.981476 1128.175781,446.655426 1135.052002,449.992523 
	C1137.411865,451.137787 1139.939331,453.649475 1140.661499,456.055725 
	C1141.744873,459.665649 1138.919189,462.014740 1135.729858,463.757446 
	C1126.134155,469.001068 1115.460938,469.447327 1105.103394,469.572357 
	C1093.877441,469.707855 1082.625610,467.864868 1071.388306,466.850128 
	C1060.150391,465.835266 1048.926758,464.641510 1037.676880,463.790283 
	C1031.046631,463.288635 1024.337036,463.686737 1017.734558,462.996887 
	C1005.778381,461.747681 999.989197,454.833008 1000.403320,442.796753 
	C1000.528870,439.148163 1000.764893,435.400604 1001.705200,431.901215 
	C1005.088135,419.310699 1002.013672,407.821533 996.257629,396.730957 
	C984.635071,374.337158 969.848938,354.373810 950.831177,337.645508 
	C940.245605,328.334259 930.940491,317.958862 924.733765,304.337524 
	C920.935242,291.637299 917.808105,279.575043 919.032959,266.859344 
	C919.435120,262.683838 919.996094,258.523621 920.484375,254.356415 
	C919.121948,255.214478 918.226929,256.219513 917.815063,257.393982 
	C912.259827,273.234650 906.258301,288.943359 901.394043,304.995819 
	C894.960449,326.227020 888.258423,347.306122 877.616211,366.864746 
	C870.379761,380.164185 862.480042,393.104401 855.315613,406.440887 
	C846.775024,422.338898 838.215576,438.121399 823.444214,449.365173 
	C822.721313,449.915436 822.422485,451.022827 821.926208,451.870789 
	C821.926208,451.870789 821.602112,452.072754 821.117554,452.151367 
	C820.048767,452.734650 819.464539,453.239319 818.880249,453.743958 
M355.256866,382.091400 
	C358.420593,383.964569 361.584351,385.837738 364.748077,387.710907 
	C364.994263,387.314575 365.240417,386.918243 365.486603,386.521912 
	C363.544586,385.061371 361.602570,383.600861 359.225800,381.813385 
	C360.673676,381.165527 361.380096,380.707520 362.151703,380.524933 
	C382.193542,375.782471 401.481140,376.844391 419.482086,387.957489 
	C430.061584,394.488800 441.578430,398.394653 453.281738,400.273315 
	C442.315033,393.938416 431.039490,387.384766 419.724670,380.899628 
	C406.425049,373.276886 392.234192,368.986053 376.765991,370.073120 
	C370.632721,370.504181 364.539764,371.501648 358.833649,368.143280 
	C358.340057,367.852783 357.526215,368.106293 356.249268,367.731293 
	C354.688293,366.869995 353.148163,365.327301 351.562378,365.278870 
	C347.298126,365.148529 342.995850,366.032501 338.742645,365.823151 
	C332.304260,365.506317 325.894684,364.604858 319.992767,364.004669 
	C315.164001,366.630646 310.267487,369.293457 306.437347,371.376373 
	C312.167725,371.824615 319.698944,371.615601 326.846985,373.169403 
	C336.374786,375.240540 345.604645,378.682495 355.256866,382.091400 
M450.006744,345.481995 
	C457.948822,342.683533 465.890900,339.885101 473.832977,337.086639 
	C473.687653,336.626648 473.542328,336.166626 473.397003,335.706635 
	C463.275574,338.796417 453.046600,341.582886 443.082336,345.115845 
	C438.709595,346.666260 435.528381,346.551636 432.222412,342.560760 
	C439.346191,334.088043 438.354095,325.786499 432.692810,316.576874 
	C428.737274,310.142212 426.975922,302.499298 431.879822,294.985077 
	C433.223328,292.926392 433.272827,290.023224 433.916138,287.507568 
	C432.221832,288.002258 431.664917,288.792938 431.211304,289.638977 
	C426.566467,298.302124 426.572052,298.304047 421.434448,290.119019 
	C421.388092,290.045166 421.121063,290.109833 420.327881,290.109833 
	C420.941681,292.877258 421.153351,295.709381 422.198792,298.190155 
	C425.236450,305.398499 428.520142,312.507812 431.871979,319.577911 
	C435.808411,327.880951 434.266418,335.979980 426.833435,341.319244 
	C416.149933,348.993469 404.347504,354.242645 391.176575,356.057068 
	C390.218292,356.189056 389.307465,356.665558 387.025696,357.439301 
	C401.642395,359.355835 414.075439,357.274933 425.604095,350.836273 
	C429.394287,348.719513 431.923584,348.438293 433.112671,353.136230 
	C438.705261,350.607788 444.009979,348.209473 450.006744,345.481995 
M447.529663,329.501404 
	C447.529663,329.501404 447.493469,329.512848 447.529663,329.501404 
M734.464355,364.493408 
	C734.464355,364.493408 734.515991,364.470825 734.464355,364.493408 
M300.540649,371.507477 
	C300.540649,371.507477 300.511383,371.455963 300.540649,371.507477 
M367.524628,388.500061 
	C367.524628,388.500061 367.483215,388.514343 367.524628,388.500061 
z"/>
<path fill="#5A595D" opacity="1.000000" stroke="none" 
	d="
M920.845642,168.852539 
	C938.539978,158.982544 962.978149,164.734940 976.423645,182.751999 
	C981.742798,189.879654 985.816650,198.040512 989.741638,206.080460 
	C995.716919,218.320206 1000.454956,231.189041 1006.814270,243.210983 
	C1019.947510,268.038422 1029.121948,294.474884 1039.521729,320.422241 
	C1048.115967,341.865143 1058.862793,362.140381 1073.580811,380.033966 
	C1077.522705,384.826416 1082.485229,389.057129 1087.681885,392.478546 
	C1096.707520,398.421051 1106.393799,403.348907 1115.595947,409.037262 
	C1127.770996,416.563263 1141.785278,418.596527 1155.102051,422.683990 
	C1158.941772,423.862549 1162.212036,425.194153 1162.450928,429.558502 
	C1162.686890,433.868347 1159.714233,436.209961 1155.999390,437.429016 
	C1153.013184,438.408997 1149.894653,439.484528 1146.808350,439.571106 
	C1136.177246,439.869354 1125.534424,439.752502 1114.318359,439.454102 
	C1112.830811,438.414612 1111.987793,437.598267 1111.000977,437.033142 
	C1101.030396,431.322266 1091.242065,425.245880 1081.002930,420.061340 
	C1063.267334,411.080994 1049.735962,398.023590 1041.171387,380.159729 
	C1033.116943,363.359802 1024.343994,346.735107 1018.200073,329.221863 
	C1002.999512,285.892212 981.527100,245.342758 963.792236,203.149643 
	C956.977905,186.937500 943.996277,175.740616 926.393738,170.953415 
	C924.494385,170.436874 922.692627,169.561478 920.845642,168.852539 
z"/>
<path fill="#5A595D" opacity="1.000000" stroke="none" 
	d="
M902.263306,607.868774 
	C918.337158,598.658386 939.560364,601.619507 953.571777,614.973633 
	C961.451233,622.483459 966.605225,631.746948 971.039246,641.525024 
	C979.011475,659.105774 987.461975,676.481018 994.998352,694.245178 
	C1005.014709,717.854919 1014.338806,741.758240 1023.975647,765.529175 
	C1032.292969,786.045044 1042.972412,805.258606 1057.126099,822.288269 
	C1061.499146,827.549927 1067.317017,831.870239 1073.116455,835.629150 
	C1083.032715,842.056458 1093.092041,848.489502 1103.779663,853.431152 
	C1112.758423,857.582642 1122.713379,859.627014 1132.244507,862.577637 
	C1136.628418,863.934814 1141.920898,864.273560 1141.986816,870.668213 
	C1142.029297,874.794006 1138.512573,878.392700 1131.662842,879.055908 
	C1120.105835,880.174866 1108.445557,880.227600 1096.157593,880.418335 
	C1082.423584,872.454468 1069.419556,864.698425 1056.280396,857.178345 
	C1044.777588,850.594971 1034.794556,842.379639 1028.810669,830.380249 
	C1020.280823,813.275330 1011.404663,796.259888 1004.252686,778.569031 
	C990.905457,745.553833 979.402344,711.789185 962.668457,680.196228 
	C959.801392,674.783203 958.031067,668.800476 955.508972,663.191162 
	C951.225098,653.663391 947.471924,643.794800 942.186523,634.842468 
	C933.285217,619.765503 919.886841,610.472168 902.263306,607.868774 
z"/>
<path fill="#20DBC0" opacity="1.000000" stroke="none" 
	d="
M704.696838,365.739563 
	C698.723938,371.524139 691.622253,375.032196 683.302429,375.349701 
	C672.517273,375.761353 661.715942,375.782013 650.920776,375.861816 
	C649.358521,375.873383 647.791809,375.277313 645.651001,374.846466 
	C650.718018,367.903046 655.263123,361.458649 654.623840,352.912140 
	C652.883423,356.756744 651.372559,360.726593 649.356323,364.420624 
	C644.734497,372.888153 641.514771,374.124664 631.914734,373.248932 
	C617.168396,371.903809 602.391541,370.846100 587.610474,369.948608 
	C579.334595,369.446075 579.346313,369.660889 576.309326,362.271454 
	C575.109863,359.352875 573.786011,356.453125 572.187866,353.739716 
	C570.598999,351.041962 568.594604,348.588898 566.129333,345.124817 
	C572.840881,343.078796 579.239502,341.128143 586.025635,339.001160 
	C607.018982,336.635559 627.386902,337.758698 646.917358,345.006317 
	C652.635986,347.128418 657.833801,347.412506 663.626526,346.711334 
	C678.281921,344.937378 692.842102,346.040100 707.891968,349.378540 
	C711.193359,351.662262 711.519531,354.114502 709.876831,356.924438 
	C708.156677,359.866669 706.424011,362.801514 704.696838,365.739563 
z"/>
<path fill="#20DBC0" opacity="1.000000" stroke="none" 
	d="
M613.931641,793.021667 
	C614.021484,791.328857 614.111328,789.636047 614.415039,787.204834 
	C615.743469,780.303467 617.147949,774.172974 617.843018,767.963074 
	C618.163330,765.101746 619.112488,763.403259 621.626160,762.386353 
	C622.838135,762.125549 624.050110,761.864807 625.860901,761.479919 
	C626.954895,761.166565 627.450073,760.977356 627.945190,760.788208 
	C628.700317,760.658020 629.455505,760.527893 630.977295,760.335266 
	C634.323181,760.026489 636.902405,759.780212 639.481567,759.533936 
	C641.475098,759.900269 643.468628,760.266602 645.854614,760.840820 
	C646.247131,761.048645 646.404480,760.926819 646.404480,760.926819 
	C658.631775,763.748779 669.011230,770.127136 678.979248,778.301758 
	C675.346863,786.598450 671.928711,794.589722 667.522095,801.992493 
	C661.416626,812.249084 657.799194,813.199646 646.971436,808.369812 
	C635.882568,803.423401 624.938904,798.151245 613.931641,793.021667 
z"/>
<path fill="#20DBC0" opacity="1.000000" stroke="none" 
	d="
M695.807739,779.560608 
	C696.354980,779.602234 696.902283,779.643799 697.960022,779.810059 
	C698.470520,779.934692 698.710754,779.819580 698.710754,779.819580 
	C705.923218,781.401855 713.135681,782.984131 720.846252,785.006592 
	C720.473206,795.449463 715.901367,803.555115 708.459656,810.083801 
	C698.756409,818.596558 687.109802,818.204773 675.402283,816.786194 
	C671.447266,816.307007 667.601257,814.927856 664.062134,814.048584 
	C668.929810,804.755310 673.765137,796.455200 677.652405,787.732666 
	C679.787354,782.941772 681.924072,779.309143 687.667358,779.372803 
	C689.873779,779.387024 692.080139,779.401245 694.827026,779.573730 
	C695.367493,779.732056 695.629150,779.753479 695.629150,779.753479 
	C695.629150,779.753479 695.807739,779.560608 695.807739,779.560608 
z"/>
<path fill="#3C3D44" opacity="1.000000" stroke="none" 
	d="
M901.962585,607.900513 
	C919.886841,610.472168 933.285217,619.765503 942.186523,634.842468 
	C947.471924,643.794800 951.225098,653.663391 955.508972,663.191162 
	C958.031067,668.800476 959.801392,674.783203 962.668457,680.196228 
	C979.402344,711.789185 990.905457,745.553833 1004.252686,778.569031 
	C1011.404663,796.259888 1020.280823,813.275330 1028.810669,830.380249 
	C1034.794556,842.379639 1044.777588,850.594971 1056.280396,857.178345 
	C1069.419556,864.698425 1082.423584,872.454468 1095.687500,880.343811 
	C1095.829956,880.848206 1095.771362,881.116760 1095.622314,881.788391 
	C1091.488892,880.698303 1087.112061,879.769653 1083.461792,877.611877 
	C1069.424072,869.313660 1055.462646,860.863403 1041.780396,851.995178 
	C1032.094116,845.717041 1026.871948,835.530151 1021.490845,825.799866 
	C1005.063965,796.095642 994.454163,763.901855 981.926270,732.522339 
	C976.622437,719.237671 970.299072,706.363342 964.622864,693.223145 
	C958.621216,679.329285 952.887146,665.320129 946.945435,651.400085 
	C941.365295,638.327209 933.946594,626.663879 921.645813,618.752014 
	C914.249084,613.994568 905.967224,612.511597 896.975220,611.634338 
	C898.225708,610.309509 899.943787,609.120911 901.962585,607.900513 
z"/>
<path fill="#3C3D44" opacity="1.000000" stroke="none" 
	d="
M920.505188,168.907028 
	C922.692627,169.561478 924.494385,170.436874 926.393738,170.953415 
	C943.996277,175.740616 956.977905,186.937500 963.792236,203.149643 
	C981.527100,245.342758 1002.999512,285.892212 1018.200073,329.221863 
	C1024.343994,346.735107 1033.116943,363.359802 1041.171387,380.159729 
	C1049.735962,398.023590 1063.267334,411.080994 1081.002930,420.061340 
	C1091.242065,425.245880 1101.030396,431.322266 1111.000977,437.033142 
	C1111.987793,437.598267 1112.830811,438.414612 1113.847900,439.410889 
	C1113.961426,439.931213 1113.967529,440.155060 1113.939697,440.713196 
	C1108.276733,438.675781 1102.382812,436.780670 1097.074585,433.831390 
	C1086.605103,428.014404 1076.469727,421.597443 1066.178833,415.457550 
	C1052.609253,407.361542 1044.528320,394.659271 1037.111816,381.291382 
	C1023.976379,357.615204 1014.982910,332.198547 1005.054749,307.133881 
	C997.219482,287.352905 987.826477,268.193512 979.359985,248.656311 
	C974.403259,237.218124 969.867188,225.596420 965.214172,214.028198 
	C960.604614,202.567841 954.019470,192.437714 944.719360,184.278580 
	C938.059631,178.435989 930.138428,175.090515 921.305054,173.975143 
	C919.335938,173.726517 917.391052,173.285370 915.020874,172.756378 
	C916.459351,171.373779 918.312012,170.167648 920.505188,168.907028 
z"/>
<path fill="#3E4046" opacity="1.000000" stroke="none" 
	d="
M920.195801,301.404846 
	C916.650696,312.086609 913.591553,322.960144 909.465820,333.412689 
	C898.802307,360.428650 882.185364,383.816681 863.915527,406.120270 
	C863.611938,406.490936 863.123535,406.710297 862.392944,406.729065 
	C863.589172,402.651001 864.770569,398.658691 866.707153,395.074463 
	C871.280701,386.610138 876.380615,378.430603 880.969360,369.974091 
	C894.139282,345.703857 901.905457,319.440552 909.122253,292.976929 
	C910.252441,288.832611 911.894714,284.827942 913.300232,280.758728 
	C913.631104,280.852936 913.961975,280.947144 914.292847,281.041351 
	C916.260498,287.829163 918.228149,294.617004 920.195801,301.404846 
z"/>
<path fill="#3E4046" opacity="1.000000" stroke="none" 
	d="
M907.035217,746.025208 
	C898.424927,784.692078 883.037964,820.265991 858.282593,851.704712 
	C857.904602,850.057922 857.578796,848.295532 858.186035,846.956421 
	C861.748230,839.101135 865.471252,831.317017 869.245361,823.560059 
	C882.392395,796.539124 889.432373,767.753784 894.146118,738.266418 
	C894.875000,733.706787 896.330994,729.263367 897.675293,723.864624 
	C901.164795,732.126343 904.099976,739.075806 907.035217,746.025208 
z"/>
<path fill="#383941" opacity="1.000000" stroke="none" 
	d="
M920.496826,301.395355 
	C918.228149,294.617004 916.260498,287.829163 914.292847,281.041351 
	C913.961975,280.947144 913.631104,280.852936 913.300232,280.758728 
	C911.894714,284.827942 910.252441,288.832611 909.122253,292.976929 
	C901.905457,319.440552 894.139282,345.703857 880.969360,369.974091 
	C876.380615,378.430603 871.280701,386.610138 866.707153,395.074463 
	C864.770569,398.658691 863.589172,402.651001 862.081299,406.870972 
	C856.071533,415.994415 850.334656,424.924835 843.932373,433.349579 
	C838.181030,440.917969 831.505432,447.706268 822.280273,451.841888 
	C822.422485,451.022827 822.721313,449.915436 823.444214,449.365173 
	C838.215576,438.121399 846.775024,422.338898 855.315613,406.440887 
	C862.480042,393.104401 870.379761,380.164185 877.616211,366.864746 
	C888.258423,347.306122 894.960449,326.227020 901.394043,304.995819 
	C906.258301,288.943359 912.259827,273.234650 917.815063,257.393982 
	C918.226929,256.219513 919.121948,255.214478 920.484375,254.356415 
	C919.996094,258.523621 919.435120,262.683838 919.032959,266.859344 
	C917.808105,279.575043 920.935242,291.637299 924.622803,304.004150 
	C923.319092,303.400269 922.058472,302.393066 920.496826,301.395355 
z"/>
<path fill="#383941" opacity="1.000000" stroke="none" 
	d="
M907.292847,746.121338 
	C904.099976,739.075806 901.164795,732.126343 897.675293,723.864624 
	C896.330994,729.263367 894.875000,733.706787 894.146118,738.266418 
	C889.432373,767.753784 882.392395,796.539124 869.245361,823.560059 
	C865.471252,831.317017 861.748230,839.101135 858.186035,846.956421 
	C857.578796,848.295532 857.904602,850.057922 858.024902,851.919922 
	C851.318848,862.430786 844.786438,872.952881 837.283447,882.730164 
	C833.657715,887.454956 828.207886,890.780029 823.239258,894.768188 
	C825.220703,892.257996 827.574402,889.743103 829.867920,887.174561 
	C839.051025,876.889832 845.858276,865.173706 851.345520,852.549316 
	C857.778320,837.749451 864.949097,823.267944 871.277405,808.425598 
	C880.139404,787.640625 885.035461,765.701660 888.986633,743.541077 
	C891.819031,727.654602 893.990295,711.603149 900.913208,696.761414 
	C901.460876,695.587341 902.027039,694.421997 903.183655,693.260559 
	C900.157898,711.541199 902.862183,729.088135 908.973755,746.620178 
	C908.518127,746.736511 908.034363,746.476929 907.292847,746.121338 
z"/>
<path fill="#3E4046" opacity="1.000000" stroke="none" 
	d="
M608.707275,723.848633 
	C602.066101,720.588623 595.705200,716.679016 588.975525,713.566772 
	C574.434082,706.841858 559.242554,705.486084 543.795288,709.910400 
	C538.722900,711.363281 533.895691,713.750122 529.099731,716.013672 
	C528.301575,716.390442 527.618042,718.542480 527.948181,719.510376 
	C529.332275,723.568298 531.836426,725.950867 536.721985,726.136841 
	C541.861816,726.332520 546.953613,727.790039 552.066406,728.696167 
	C551.994141,729.181335 551.921814,729.666504 551.849548,730.151672 
	C535.965881,730.151672 520.082275,730.151672 502.887634,730.151672 
	C511.325531,728.665894 518.670471,727.372559 526.208130,726.045227 
	C525.236633,722.504456 523.076599,721.010925 519.384033,721.021606 
	C504.148621,721.065857 492.424255,712.921326 481.091827,703.659790 
	C482.166016,704.008301 483.303253,704.229248 484.304840,704.724548 
	C497.209534,711.105652 510.964569,712.858948 525.112427,711.919128 
	C535.658325,711.218628 540.716431,706.199036 542.392578,695.599976 
	C542.703796,693.631775 543.028625,691.665649 543.864990,689.458557 
	C544.609741,689.300232 544.836731,689.382019 545.063721,689.463745 
	C544.690613,695.009583 544.317444,700.555420 543.881348,706.570068 
	C543.818359,707.038940 543.843567,707.245239 543.843567,707.245239 
	C543.843567,707.245239 544.047729,707.062622 544.047729,707.062622 
	C555.424927,706.365173 566.802063,705.667725 576.674377,705.062500 
	C581.533325,707.083801 585.291565,708.297119 588.708313,710.142578 
	C595.503845,713.813171 602.111389,717.831726 608.959351,722.036987 
	C609.021545,722.765137 608.920898,723.162781 608.707275,723.848633 
z"/>
<path fill="#566E71" opacity="1.000000" stroke="none" 
	d="
M687.299683,779.252380 
	C681.924072,779.309143 679.787354,782.941772 677.652405,787.732666 
	C673.765137,796.455200 668.929810,804.755310 664.062134,814.048584 
	C667.601257,814.927856 671.447266,816.307007 675.402283,816.786194 
	C687.109802,818.204773 698.756409,818.596558 708.459656,810.083801 
	C715.901367,803.555115 720.473206,795.449463 721.215698,785.191650 
	C721.810059,784.781494 722.533142,784.626404 723.760071,784.618164 
	C724.511536,785.121765 724.759094,785.478577 724.746643,786.101807 
	C722.917847,790.578674 721.349182,794.789185 719.780457,798.999695 
	C720.067810,799.174744 720.355164,799.349792 720.642517,799.524841 
	C724.719055,796.587341 728.795654,793.649841 732.872253,790.712402 
	C732.089661,793.235657 731.307129,795.758850 730.239563,798.106384 
	C729.642761,797.976868 729.330933,798.023071 729.019104,798.069336 
	C729.019104,798.069336 729.004822,798.005005 728.700928,797.814697 
	C724.778137,800.177979 720.879578,802.418457 717.598755,805.350281 
	C710.752563,811.468079 704.235535,818.608093 694.563965,819.191284 
	C685.221619,819.754639 675.120850,820.618713 666.511353,817.805908 
	C647.961487,811.745667 630.155212,803.409790 612.044617,796.005127 
	C612.559387,795.170776 613.074158,794.336426 613.760315,793.261841 
	C624.938904,798.151245 635.882568,803.423401 646.971436,808.369812 
	C657.799194,813.199646 661.416626,812.249084 667.522095,801.992493 
	C671.928711,794.589722 675.346863,786.598450 679.264893,778.513733 
	C681.859924,778.482483 684.395996,778.807190 687.299683,779.252380 
z"/>
<path fill="#3E4046" opacity="1.000000" stroke="none" 
	d="
M300.319885,324.261841 
	C303.449036,325.384064 306.458130,326.736298 309.406860,328.209381 
	C311.338959,329.174561 313.504181,329.982971 315.008789,331.437134 
	C319.920593,336.184235 325.856018,338.620026 332.169922,340.952789 
	C336.130096,342.415924 339.539093,345.986420 342.536835,349.221649 
	C344.519989,351.361908 345.335785,354.583862 346.674225,357.321564 
	C347.233185,356.948822 347.792145,356.576111 348.351105,356.203400 
	C346.643677,355.376770 344.558319,354.927582 343.292511,353.659973 
	C336.888519,347.246704 329.924011,342.113678 320.384064,341.865051 
	C320.057556,341.856537 319.662079,341.827179 319.419800,341.645844 
	C312.732880,336.640839 306.061707,331.614807 299.198059,326.315186 
	C299.396820,325.539764 299.785492,325.041473 300.319885,324.261841 
z"/>
<path fill="#3E4046" opacity="1.000000" stroke="none" 
	d="
M759.476196,768.798218 
	C759.154114,770.904114 758.960083,773.377075 757.784668,775.226379 
	C751.067383,785.794312 744.116577,796.213928 737.245117,806.683899 
	C736.681030,806.353210 736.116882,806.022522 735.552795,805.691833 
	C736.446167,803.852661 737.195374,801.925110 738.258057,800.189636 
	C742.672363,792.980957 747.236084,785.863342 751.614136,778.633118 
	C752.625061,776.963745 753.119629,774.981567 753.898132,772.733643 
	C755.679932,771.175110 757.415405,770.026184 759.476196,768.798218 
z"/>
<path fill="#566E71" opacity="1.000000" stroke="none" 
	d="
M705.038574,366.050781 
	C706.424011,362.801514 708.156677,359.866669 709.876831,356.924438 
	C711.519531,354.114502 711.193359,351.662262 708.304688,349.400879 
	C712.092896,348.221985 716.096008,347.295410 720.474609,346.380310 
	C720.889038,347.004120 720.927795,347.616425 720.565430,348.595947 
	C718.058838,348.963165 715.953369,348.963165 714.890564,348.963165 
	C713.281189,353.981781 711.943115,358.154358 710.360962,363.087982 
	C716.241882,359.062988 721.521851,355.449371 726.801758,351.835724 
	C725.655334,354.719055 724.508911,357.602386 723.117615,360.362152 
	C722.937622,356.536133 721.029907,358.691986 719.937927,359.357544 
	C715.451233,362.092072 711.036438,364.944397 706.595154,367.753357 
	C706.190186,367.289551 705.785217,366.825775 705.038574,366.050781 
z"/>
<path fill="#3E4046" opacity="1.000000" stroke="none" 
	d="
M762.497803,327.868958 
	C762.428406,329.163574 762.412781,330.860321 761.585266,331.927216 
	C754.275208,341.351746 746.835815,350.676270 739.378052,359.985107 
	C738.842346,360.653748 737.861389,360.965668 736.550598,360.887939 
	C742.990723,351.421509 749.430908,341.955078 755.937134,332.129028 
	C758.060425,330.505920 760.117737,329.242462 762.497803,327.868958 
z"/>


<path fill="#566E71" opacity="1.000000" stroke="none" 
	d="
M731.577026,782.314697 
	C731.916504,783.022339 731.931152,783.743286 731.612488,784.936035 
	C729.841553,785.492493 728.403870,785.577148 726.965576,785.351929 
	C726.957458,784.628601 726.949890,784.215088 726.942261,783.801636 
	C728.378967,783.310425 729.815613,782.819153 731.577026,782.314697 
z"/>
<path fill="#5A595D" opacity="1.000000" stroke="none" 
	d="
M726.563477,783.803589 
	C726.949890,784.215088 726.957458,784.628601 726.647339,785.449219 
	C725.888672,785.849365 725.447693,785.842468 725.006714,785.835449 
	C724.759094,785.478577 724.511536,785.121765 724.135437,784.589966 
	C724.732910,784.211853 725.458801,784.008728 726.563477,783.803589 
z"/>




<path fill="#1EDCC2" opacity="1.000000" stroke="none" 
	d="
M611.690063,796.031616 
	C630.155212,803.409790 647.961487,811.745667 666.511353,817.805908 
	C675.120850,820.618713 685.221619,819.754639 694.563965,819.191284 
	C704.235535,818.608093 710.752563,811.468079 717.598755,805.350281 
	C720.879578,802.418457 724.778137,800.177979 728.722656,797.839478 
	C728.451843,800.362610 727.855408,802.670532 727.118408,805.342529 
	C726.977844,805.706482 726.956177,805.581543 726.956177,805.581543 
	C719.309509,825.686462 717.881104,846.414001 720.812805,867.561523 
	C721.778076,874.525085 721.865601,874.688232 714.688354,875.663025 
	C697.853882,877.949402 680.990356,880.020752 664.146912,882.242249 
	C645.899597,884.648865 627.624695,885.162476 609.327515,883.003845 
	C585.380798,880.178589 562.779419,873.166931 541.904297,860.929565 
	C540.799622,860.281982 539.776794,859.494934 538.332031,858.511597 
	C543.322266,855.915100 547.967224,853.728638 552.389282,851.158508 
	C574.512634,838.299805 592.322449,820.781677 607.231873,800.141052 
	C608.346924,798.597473 609.956055,797.410767 611.690063,796.031616 
z"/>
<path fill="#000209" opacity="1.000000" stroke="none" 
	d="
M545.403076,689.287720 
	C544.836731,689.382019 544.609741,689.300232 544.035217,689.116028 
	C544.731262,680.618408 546.170898,672.245728 546.649963,663.818481 
	C546.886292,659.662292 545.348328,655.405273 544.529175,650.712952 
	C563.789001,646.630676 582.210022,652.452026 601.001648,655.702393 
	C600.343872,655.960205 599.579041,656.579224 599.044495,656.420959 
	C592.359131,654.441162 587.774841,658.371338 583.625061,662.364502 
	C578.380188,667.411682 573.840454,673.184570 568.725464,678.377380 
	C566.747681,680.385132 564.201843,682.065735 561.608276,683.185486 
	C556.431641,685.420349 551.043274,687.164734 545.403076,689.287720 
z"/>
<path fill="#000209" opacity="1.000000" stroke="none" 
	d="
M449.909149,720.292297 
	C444.477234,716.172974 439.134216,711.928223 433.574127,707.989807 
	C430.971039,706.145996 430.088379,704.152771 430.168488,700.917480 
	C430.336395,694.136292 429.856628,687.339417 429.667572,680.548340 
	C429.647186,679.815247 429.789673,679.077698 430.629639,678.241333 
	C431.057953,679.404419 431.682800,680.534851 431.882385,681.735962 
	C433.068512,688.872986 438.702240,691.249756 444.320892,693.880310 
	C445.912659,694.625488 447.811127,696.398804 448.094025,697.966797 
	C449.358521,704.975403 450.089752,712.080200 450.754486,719.630493 
	C450.300018,720.171204 450.104584,720.231750 449.909149,720.292297 
z"/>
<path fill="#3E4046" opacity="1.000000" stroke="none" 
	d="
M450.013367,720.598755 
	C450.104584,720.231750 450.300018,720.171204 450.798401,720.060425 
	C457.165955,721.087280 458.955200,726.661499 462.277863,730.626038 
	C463.756317,732.390015 464.959076,734.615967 466.818298,735.792664 
	C479.467194,743.798279 486.346619,756.335083 493.550232,768.646606 
	C493.148926,769.025574 492.747620,769.404541 492.346313,769.783508 
	C485.158112,761.573608 477.969910,753.363708 470.781708,745.153809 
	C470.379272,745.399353 469.976837,745.644897 469.574432,745.890442 
	C469.919037,748.070618 470.263672,750.250793 470.496887,751.726257 
	C463.915222,741.772339 457.016418,731.338745 450.013367,720.598755 
z"/>

<path fill="#20DBC0" opacity="1.000000" stroke="none" 
	d="
M724.746643,786.101807 
	C725.447693,785.842468 725.888672,785.849365 726.647949,785.759033 
	C728.403870,785.577148 729.841553,785.492493 731.622192,785.296997 
	C732.915100,785.256409 733.865173,785.326599 735.364258,785.611572 
	C736.144104,786.236023 736.374878,786.645813 736.605591,787.055542 
	C735.495789,788.106445 734.385864,789.157227 733.074097,790.460205 
	C728.795654,793.649841 724.719055,796.587341 720.642517,799.524841 
	C720.355164,799.349792 720.067810,799.174744 719.780457,798.999695 
	C721.349182,794.789185 722.917847,790.578674 724.746643,786.101807 
z"/>
<path fill="#566E71" opacity="1.000000" stroke="none" 
	d="
M621.217896,762.326782 
	C619.112488,763.403259 618.163330,765.101746 617.843018,767.963074 
	C617.147949,774.172974 615.743469,780.303467 614.440063,786.779175 
	C612.043823,782.523193 613.641357,767.390930 616.922241,763.979797 
	C617.830139,763.035889 619.493042,762.818176 621.217896,762.326782 
z"/>






<path fill="#1EDBC1" opacity="1.000000" stroke="none" 
	d="
M706.356384,367.978729 
	C711.036438,364.944397 715.451233,362.092072 719.937927,359.357544 
	C721.029907,358.691986 722.937622,356.536133 722.851135,360.589233 
	C722.829529,360.939880 722.685913,361.129700 722.501221,361.403748 
	C722.197388,362.143707 722.078369,362.609650 721.959229,363.075592 
	C720.885864,366.283478 719.812439,369.491364 718.519043,373.349976 
	C718.187988,374.662689 718.076904,375.324677 717.965759,375.986694 
	C713.987244,392.464783 714.453430,408.985443 717.462830,425.536804 
	C719.265381,435.450073 719.286133,435.752350 709.246826,437.083893 
	C685.323914,440.256866 661.359802,443.119507 637.412292,446.107208 
	C617.265747,448.620697 597.172791,451.815063 576.953674,453.405731 
	C563.629333,454.453979 550.123230,453.193237 535.782959,452.950897 
	C536.774902,450.958557 536.921265,450.272217 537.341370,449.877014 
	C558.441467,430.030090 570.695740,405.303284 577.068420,377.420380 
	C577.902161,373.772491 579.331482,372.622681 583.007080,372.592438 
	C602.533081,372.431732 621.803406,374.176178 641.156555,377.116180 
	C654.639343,379.164429 668.660767,378.217163 682.412231,377.748352 
	C691.189697,377.449097 699.275085,374.021423 706.356384,367.978729 
z"/>
<path fill="#3E4046" opacity="1.000000" stroke="none" 
	d="
M356.861145,368.107117 
	C357.526215,368.106293 358.340057,367.852783 358.833649,368.143280 
	C364.539764,371.501648 370.632721,370.504181 376.765991,370.073120 
	C392.234192,368.986053 406.425049,373.276886 419.724670,380.899628 
	C431.039490,387.384766 442.315033,393.938416 453.281738,400.273315 
	C441.578430,398.394653 430.061584,394.488800 419.482086,387.957489 
	C401.481140,376.844391 382.193542,375.782471 362.151703,380.524933 
	C361.380096,380.707520 360.673676,381.165527 359.225800,381.813385 
	C361.602570,383.600861 363.544586,385.061371 365.486603,386.521912 
	C365.240417,386.918243 364.994263,387.314575 364.748077,387.710907 
	C361.584351,385.837738 358.420593,383.964569 355.412445,381.605469 
	C357.947266,379.550201 360.326538,377.980835 362.993561,376.221619 
	C360.732941,373.230316 358.797028,370.668701 356.861145,368.107117 
z"/>
<path fill="#3E4046" opacity="1.000000" stroke="none" 
	d="
M449.660706,345.646576 
	C444.009979,348.209473 438.705261,350.607788 433.112671,353.136230 
	C431.923584,348.438293 429.394287,348.719513 425.604095,350.836273 
	C414.075439,357.274933 401.642395,359.355835 387.025696,357.439301 
	C389.307465,356.665558 390.218292,356.189056 391.176575,356.057068 
	C404.347504,354.242645 416.149933,348.993469 426.833435,341.319244 
	C434.266418,335.979980 435.808411,327.880951 431.871979,319.577911 
	C428.520142,312.507812 425.236450,305.398499 422.198792,298.190155 
	C421.153351,295.709381 420.941681,292.877258 420.327881,290.109833 
	C421.121063,290.109833 421.388092,290.045166 421.434448,290.119019 
	C426.572052,298.304047 426.566467,298.302124 431.211304,289.638977 
	C431.664917,288.792938 432.221832,288.002258 433.916138,287.507568 
	C433.272827,290.023224 433.223328,292.926392 431.879822,294.985077 
	C426.975922,302.499298 428.737274,310.142212 432.692810,316.576874 
	C438.354095,325.786499 439.346191,334.088043 432.222412,342.560760 
	C435.528381,346.551636 438.709595,346.666260 443.082336,345.115845 
	C453.046600,341.582886 463.275574,338.796417 473.397003,335.706635 
	C473.542328,336.166626 473.687653,336.626648 473.832977,337.086639 
	C465.890900,339.885101 457.948822,342.683533 449.660706,345.646576 
z"/>
<path fill="#000209" opacity="1.000000" stroke="none" 
	d="
M356.555206,367.919189 
	C358.797028,370.668701 360.732941,373.230316 362.993561,376.221619 
	C360.326538,377.980835 357.947266,379.550201 355.265259,381.327606 
	C345.604645,378.682495 336.374786,375.240540 326.846985,373.169403 
	C319.698944,371.615601 312.167725,371.824615 306.437347,371.376373 
	C310.267487,369.293457 315.164001,366.630646 319.992767,364.004669 
	C325.894684,364.604858 332.304260,365.506317 338.742645,365.823151 
	C342.995850,366.032501 347.298126,365.148529 351.562378,365.278870 
	C353.148163,365.327301 354.688293,366.869995 356.555206,367.919189 
z"/>
<path fill="#20DBC0" opacity="1.000000" stroke="none" 
	d="
M726.808960,351.853394 
	C721.521851,355.449371 716.241882,359.062988 710.360962,363.087982 
	C711.943115,358.154358 713.281189,353.981781 714.890564,348.963165 
	C715.953369,348.963165 718.058838,348.963165 720.586487,348.902954 
	C722.396973,348.961243 723.785339,349.079712 725.805969,349.307983 
	C726.568298,350.225708 726.698242,351.033600 726.828247,351.841461 
	C726.828247,351.841461 726.816162,351.871094 726.808960,351.853394 
z"/>








</svg>