<?xml version="1.0" encoding="UTF-8"?>
<svg version="1.1" xmlns="http://www.w3.org/2000/svg" width="1536" height="1024">
<path d="M0 0 C506.88 0 1013.76 0 1536 0 C1536 337.92 1536 675.84 1536 1024 C1029.12 1024 522.24 1024 0 1024 C0 686.08 0 348.16 0 0 Z " fill="#060A13" transform="translate(0,0)"/>
<path d="M0 0 C0.83515137 -0.01401855 1.67030273 -0.02803711 2.53076172 -0.04248047 C8.47819855 0.00324199 13.36601899 1.17699237 18.875 3.375 C20.41800781 3.97828125 20.41800781 3.97828125 21.9921875 4.59375 C36.73641755 11.44376056 43.85828768 21.99140383 49.7421875 36.515625 C53.02323201 46.85316249 50.89530196 58.74169658 49.1875 69.1875 C49.03909668 70.14148682 48.89069336 71.09547363 48.73779297 72.07836914 C47.00396789 81.85338002 42.75698834 89.53515868 36.9140625 97.46484375 C36.39972656 98.41037109 36.39972656 98.41037109 35.875 99.375 C37.14647826 103.18943478 38.84745743 104.16825021 42 106.625 C42.99902344 107.43324219 43.99804688 108.24148438 45.02734375 109.07421875 C46.63851347 110.37597316 48.2531504 111.67353979 49.87890625 112.95703125 C58.23697799 120.30670455 64.10409166 133.61123833 65.07397461 144.63696289 C65.17883653 147.07493964 65.20387997 149.49735867 65.1875 151.9375 C65.18258545 152.81011475 65.1776709 153.68272949 65.17260742 154.58178711 C64.99643163 164.45576247 63.80198718 173.60265883 59.30078125 182.5078125 C56.37574525 188.77421978 56.2167807 194.35992652 56.25 201.1875 C55.93346657 217.86881162 52.96736856 231.09176282 44.57373047 245.62866211 C40.89757939 252.26361803 40.05446154 257.92183198 39.75 265.4375 C39.61243646 267.65660848 39.46919039 269.87537187 39.3203125 272.09375 C39.21444824 273.70443359 39.21444824 273.70443359 39.10644531 275.34765625 C37.42796307 297.30248729 28.40724001 315.24578226 17.6171875 334.0703125 C6.59281322 351.70203107 6.59281322 351.70203107 0.875 371.375 C2.68760132 373.60431824 2.68760132 373.60431824 4.875 375.375 C7.47492706 383.17478117 5.93201253 390.30421845 3.1875 397.8125 C2.82192993 398.84153442 2.82192993 398.84153442 2.44897461 399.89135742 C0.7289458 404.29543497 -1.07548976 406.90654854 -5.125 409.375 C-8.9375 409.625 -8.9375 409.625 -12.125 409.375 C-12.125 408.715 -12.125 408.055 -12.125 407.375 C-12.41375 408.2 -12.7025 409.025 -13 409.875 C-15.125 412.375 -15.125 412.375 -16.98828125 412.77734375 C-25.47001364 412.90563886 -35.29562738 411.99910382 -43.48046875 409.71875 C-44.02316406 409.6053125 -44.56585937 409.491875 -45.125 409.375 C-46.46349671 410.36807821 -47.79651309 411.36857052 -49.125 412.375 C-51.75390625 412.47265625 -51.75390625 412.47265625 -54.125 412.375 C-54.09019531 411.33601563 -54.05539062 410.29703125 -54.01953125 409.2265625 C-53.76369952 398.29795557 -55.09054812 390.21827006 -60.125 380.375 C-59.50090455 382.41694335 -58.87568171 384.45854215 -58.25 386.5 C-57.90195312 387.63695312 -57.55390625 388.77390625 -57.1953125 389.9453125 C-56.51391793 392.12875933 -55.79263935 394.30044237 -55.01953125 396.453125 C-53.59359138 401.11078012 -53.41155774 405.56114225 -54.125 410.375 C-56.125 413.0625 -56.125 413.0625 -59.125 414.375 C-62.06824962 414.66932496 -64.2474685 414.69872229 -67.125 414.375 C-67.90875 414.30410156 -68.6925 414.23320313 -69.5 414.16015625 C-73.76530941 413.53579352 -75.58448611 413.09038603 -78.25 409.5625 C-78.88752451 408.17234239 -79.50992221 406.77523391 -80.125 405.375 C-81.3178597 403.073323 -82.52547835 400.78450406 -83.75 398.5 C-84.34039062 397.36820313 -84.93078125 396.23640625 -85.5390625 395.0703125 C-86.84780791 392.28689403 -86.84780791 392.28689403 -89.125 391.375 C-91.39265601 391.14264056 -93.65861414 390.99398297 -95.93359375 390.8515625 C-98.5831202 390.27537315 -99.50927667 389.52760945 -101.125 387.375 C-102.12712871 380.98642946 -99.73722185 377.34180505 -96.125 372.375 C-97.2078125 373.6125 -97.2078125 373.6125 -98.3125 374.875 C-101.125 377.375 -101.125 377.375 -103.56640625 377.83203125 C-106.125 377.375 -106.125 377.375 -108.046875 375.35546875 C-108.65015625 374.43378906 -109.2534375 373.51210938 -109.875 372.5625 C-115.31999005 364.60287767 -121.41355896 357.30519687 -127.78173828 350.07299805 C-161.125 312.10337106 -161.125 312.10337106 -161.125 294.375 C-162.01703125 294.38660156 -162.9090625 294.39820313 -163.828125 294.41015625 C-165.58382812 294.42369141 -165.58382812 294.42369141 -167.375 294.4375 C-169.11523438 294.45490234 -169.11523438 294.45490234 -170.890625 294.47265625 C-173.59053077 294.39113736 -175.56483845 294.09018683 -178.125 293.375 C-187.87636112 291.69120641 -193.97621418 294.4424426 -202.10449219 299.31005859 C-212.87438356 305.73710568 -224.48208831 310.08441675 -236.71875 312.82421875 C-239.29497009 313.36831802 -239.29497009 313.36831802 -242.375 314.5 C-248.39752886 316.41625918 -254.6562098 316.50241032 -260.9296875 316.5078125 C-261.64660263 316.50890518 -262.36351776 316.50999786 -263.10215759 316.51112366 C-264.6205654 316.51201695 -266.1389767 316.51032746 -267.65737915 316.50619507 C-270.03162873 316.49991636 -272.40577483 316.50237411 -274.7800293 316.50512695 C-282.54911219 316.49869002 -290.19973324 316.30561291 -297.9375 315.5625 C-306.29239475 314.87747641 -313.7768465 316.78254465 -321.8359375 318.83984375 C-329.96263874 320.8973876 -338.21179875 322.361367 -346.4546814 323.868927 C-359.11337042 325.48480318 -359.11337042 325.48480318 -370.08203125 331.203125 C-374.8021289 341.03224221 -376.32456021 355.00692588 -373.17578125 365.5546875 C-371.27152143 369.89183447 -368.91033664 373.72019216 -366.25 377.625 C-364.26398349 380.66023279 -364.125 381.36428006 -364.125 385.25 C-365.125 388.375 -365.125 388.375 -368.125 390.375 C-372.6294308 390.87646905 -377.15823429 390.79173414 -381.6875 390.8125 C-382.92564453 390.84537109 -384.16378906 390.87824219 -385.43945312 390.91210938 C-393.33330469 390.95807675 -399.75655107 390.34832935 -406.125 385.375 C-411.23587776 380.21872104 -412.83391881 375.2900847 -412.80493164 368.11791992 C-412.7661792 367.15088135 -412.72742676 366.18384277 -412.6875 365.1875 C-412.66743896 364.17083252 -412.64737793 363.15416504 -412.62670898 362.10668945 C-412.4184225 355.41328872 -411.54466777 349.35774403 -409.859375 342.87890625 C-408.38098481 335.82509771 -408.36128139 328.56121321 -408.125 321.375 C-423.9159804 323.53466043 -423.9159804 323.53466043 -437.125 330.625 C-439.79908938 337.97874579 -439.37444282 345.96509685 -439.4375 353.6875 C-439.46650391 354.85990234 -439.49550781 356.03230469 -439.52539062 357.24023438 C-439.59457047 366.77108777 -437.66594712 373.7204053 -432.375 381.625 C-430.72966121 384.16454466 -430.09844994 385.51040529 -429.5 388.5625 C-430.15763853 391.52187338 -431.03674194 393.22523831 -433.23876953 395.32104492 C-437.60578778 397.76117148 -443.02041945 397.03751085 -447.875 396.9375 C-449.01710938 396.94845703 -450.15921875 396.95941406 -451.3359375 396.97070312 C-460.1587128 396.89464472 -466.13165616 395.01211386 -473.4375 390.1875 C-480.06125095 383.25566761 -481.30234132 374.83563751 -481.25 365.5625 C-481.25580078 364.55219727 -481.25580078 364.55219727 -481.26171875 363.52148438 C-481.26042969 362.84794922 -481.25914062 362.17441406 -481.2578125 361.48046875 C-481.25668457 360.88387451 -481.25555664 360.28728027 -481.25439453 359.67260742 C-481.14225091 357.68131764 -480.88941695 355.69890838 -480.61181641 353.72387695 C-480.00384392 349.02452864 -480.08746331 344.41633117 -480.203125 339.6875 C-480.23037306 337.83595486 -480.25637697 335.98439107 -480.28125 334.1328125 C-480.32448029 331.24915563 -480.37521271 328.36648876 -480.44726562 325.48339844 C-480.51421565 322.67627963 -480.54871843 319.87023139 -480.578125 317.0625 C-480.60706848 316.21018799 -480.63601196 315.35787598 -480.66583252 314.47973633 C-480.69349208 308.23145755 -479.02948754 304.2453316 -475.125 299.375 C-470.39069549 294.76208791 -465.69633975 293.23379909 -459.15625 293.28515625 C-456.37763173 293.34677082 -453.60160939 293.43836451 -450.82421875 293.54101562 C-442.10422149 293.72190255 -437.76197487 291.30700049 -431.4375 285.25 C-430.38212499 284.25967223 -429.32479476 283.27142442 -428.265625 282.28515625 C-427.73904297 281.79418457 -427.21246094 281.30321289 -426.66992188 280.79736328 C-409.88503767 265.34402331 -392.14596694 256.45256806 -369.00390625 256.31640625 C-359.04545618 256.20715347 -353.81676499 253.83390053 -346.125 247.375 C-343.91248777 245.83026419 -341.70569574 244.33145698 -339.4375 242.875 C-338.85484375 242.50012451 -338.2721875 242.12524902 -337.671875 241.73901367 C-329.71937983 236.73312497 -321.21205897 232.72465409 -312.69140625 228.7890625 C-306.30755997 225.77646088 -301.69658309 222.75803909 -297.125 217.375 C-296.02110603 216.10392978 -294.91692935 214.83310506 -293.8125 213.5625 C-293.235 212.89734375 -292.6575 212.2321875 -292.0625 211.546875 C-279.04900104 196.95916246 -262.07389909 183.99860055 -242.125 181.375 C-239.81940139 181.4394164 -237.51500679 181.56354061 -235.21484375 181.734375 C-219.22139416 183.28706807 -219.22139416 183.28706807 -204.81445312 177.99682617 C-194.56342103 167.35421532 -190.51409652 150.70765688 -186.046875 137.01171875 C-180.24434154 119.51258221 -168.29667744 105.04514459 -151.8125 96.625 C-151.01271729 96.21233887 -150.21293457 95.79967773 -149.38891602 95.37451172 C-117.7234032 79.44184058 -90.99620896 75.05584644 -56.125 75.375 C-55.980625 74.570625 -55.83625 73.76625 -55.6875 72.9375 C-55.125 70.375 -55.125 70.375 -54.125 69.375 C-54.04026012 68.03607235 -54.01680616 66.69316627 -54.01953125 65.3515625 C-53.77551567 45.61633352 -49.6534198 28.30502901 -35.8125 13.5625 C-25.22816909 3.55126315 -14.31356633 0.1655507 0 0 Z " fill="#3D434F" transform="translate(558.125,246.625)"/>
<path d="M0 0 C1.94707124 1.64519973 3.70559331 3.34893644 5.453125 5.203125 C6.06414063 5.80640625 6.67515625 6.4096875 7.3046875 7.03125 C16.60625693 16.76821204 20.50580937 30.14765692 20.828125 43.390625 C20.35835209 62.57301881 15.71550066 83.54508729 1.453125 97.203125 C-0.74476503 99.13703869 -2.98438712 101.01775853 -5.234375 102.890625 C-9.50087309 106.42390646 -9.50087309 106.42390646 -13.546875 110.203125 C-12.70125 110.24308594 -11.855625 110.28304687 -10.984375 110.32421875 C-4.72829042 110.9000629 -0.35059692 111.51000567 4.015625 116.265625 C13.46787559 128.76249525 14.63498688 143.99355667 13.453125 159.203125 C12.29743906 166.85427206 10.67107265 173.93111414 4.328125 178.8515625 C0.60922477 180.59984983 -2.66495164 180.45903751 -6.671875 180.265625 C-12.39148694 179.89293768 -12.39148694 179.89293768 -17.546875 182.203125 C-19.81518555 182.52197266 -19.81518555 182.52197266 -22.43359375 182.6171875 C-23.8402832 182.67519531 -23.8402832 182.67519531 -25.27539062 182.734375 C-26.74008789 182.78078125 -26.74008789 182.78078125 -28.234375 182.828125 C-29.22244141 182.86679687 -30.21050781 182.90546875 -31.22851562 182.9453125 C-33.66778207 183.03958367 -36.10704095 183.12518718 -38.546875 183.203125 C-38.546875 182.543125 -38.546875 181.883125 -38.546875 181.203125 C-37.6496875 180.336875 -37.6496875 180.336875 -36.734375 179.453125 C-29.85286483 172.37500025 -30.3649666 163.66808474 -30.359375 154.453125 C-30.34712891 153.40640625 -30.33488281 152.3596875 -30.32226562 151.28125 C-30.24951818 142.05768371 -30.24951818 142.05768371 -32.546875 133.203125 C-33.536875 132.543125 -34.526875 131.883125 -35.546875 131.203125 C-36.51625 132.028125 -37.485625 132.853125 -38.484375 133.703125 C-43.7509059 137.41819289 -48.20190093 136.77789519 -54.3203125 135.7265625 C-60.00914391 134.43293782 -63.93320702 132.70855379 -68.109375 128.60546875 C-69.69852974 126.96915982 -69.69852974 126.96915982 -72.546875 125.203125 C-75.36427893 126.65212648 -78.17487663 128.11386206 -80.984375 129.578125 C-81.78681641 129.990625 -82.58925781 130.403125 -83.41601562 130.828125 C-84.17978516 131.22773437 -84.94355469 131.62734375 -85.73046875 132.0390625 C-86.43743896 132.40563965 -87.14440918 132.7722168 -87.87280273 133.14990234 C-89.7148988 134.10674484 -89.7148988 134.10674484 -90.546875 136.203125 C-86.41713872 135.63572632 -86.41713872 135.63572632 -82.546875 134.203125 C-79.90569811 134.02607908 -77.31490904 133.92570952 -74.671875 133.890625 C-73.95128906 133.86162109 -73.23070312 133.83261719 -72.48828125 133.80273438 C-69.2249176 133.76367017 -66.97284549 133.94265452 -64.1640625 135.66015625 C-60.1374193 141.99190679 -60.20528349 149.65697378 -60.234375 156.953125 C-60.21020508 158.18869141 -60.21020508 158.18869141 -60.18554688 159.44921875 C-60.18178823 164.11745027 -60.31904074 167.53773987 -63.546875 171.203125 C-65.66796875 172.05859375 -65.66796875 172.05859375 -67.984375 172.390625 C-71.25454443 172.89415363 -73.60084531 173.72426486 -76.546875 175.203125 C-83.07977246 176.57438664 -89.90976666 176.37800489 -96.546875 176.203125 C-98.47466797 176.17798828 -98.47466797 176.17798828 -100.44140625 176.15234375 C-101.78914256 176.10920321 -103.13680382 176.06364754 -104.484375 176.015625 C-105.73089844 175.98082031 -106.97742187 175.94601562 -108.26171875 175.91015625 C-111.546875 175.203125 -111.546875 175.203125 -113.97265625 172.828125 C-115.69083059 169.96307994 -115.92127392 168.47911559 -115.546875 165.203125 C-116.866875 165.203125 -118.186875 165.203125 -119.546875 165.203125 C-119.670625 165.96625 -119.794375 166.729375 -119.921875 167.515625 C-120.546875 170.203125 -120.546875 170.203125 -122.546875 173.203125 C-123.206875 173.203125 -123.866875 173.203125 -124.546875 173.203125 C-124.46566406 172.52507812 -124.38445312 171.84703125 -124.30078125 171.1484375 C-123.81279704 163.95813959 -125.17891221 160.37644831 -129.58984375 154.76171875 C-131.67154398 152.04013462 -133.3325594 149.26570059 -134.984375 146.265625 C-135.47808594 145.36972656 -135.97179688 144.47382812 -136.48046875 143.55078125 C-137.546875 141.203125 -137.546875 141.203125 -137.546875 138.203125 C-134.98356289 138.66085931 -133.66994128 139.09646756 -131.671875 140.828125 C-128.6730821 142.76852041 -127.04080383 141.81093981 -123.546875 141.203125 C-120.75388038 141.07957154 -117.96692381 141.1077718 -115.171875 141.140625 C-114.43582031 141.14513672 -113.69976563 141.14964844 -112.94140625 141.15429688 C-111.14319342 141.16597358 -109.34502303 141.18390489 -107.546875 141.203125 C-110.25947534 141.19708357 -112.96084391 141.14946792 -115.671875 141.078125 C-116.43242188 141.08070313 -117.19296875 141.08328125 -117.9765625 141.0859375 C-122.30453347 140.93669712 -124.91866817 140.38104687 -128.1640625 137.3984375 C-129.34355469 135.81675781 -129.34355469 135.81675781 -130.546875 134.203125 C-130.19580078 132.00341797 -130.19580078 132.00341797 -129.546875 130.203125 C-130.43375 130.821875 -131.320625 131.440625 -132.234375 132.078125 C-135.01646937 133.86286478 -137.51069908 134.98865463 -140.546875 136.203125 C-140.876875 136.863125 -141.206875 137.523125 -141.546875 138.203125 C-140.886875 138.203125 -140.226875 138.203125 -139.546875 138.203125 C-139.12277344 139.08613281 -138.69867187 139.96914063 -138.26171875 140.87890625 C-137.67070747 142.0918469 -137.07814325 143.30403159 -136.484375 144.515625 C-136.17363037 145.15209961 -135.86288574 145.78857422 -135.54272461 146.44433594 C-133.50932892 150.52235873 -131.23587262 154.21706614 -128.609375 157.953125 C-125.75049076 162.34494038 -124.48923337 165.70763911 -124.94921875 170.9765625 C-126.0467979 175.06558286 -127.91055482 177.09752246 -131.546875 179.203125 C-138.81307844 182.51369005 -146.40792672 182.4397912 -154.234375 182.203125 C-155.11295166 182.18628662 -155.99152832 182.16944824 -156.89672852 182.15209961 C-163.52859882 181.80390617 -168.00364502 179.76088854 -173.546875 176.203125 C-174.206875 175.873125 -174.866875 175.543125 -175.546875 175.203125 C-176.00126953 176.54117188 -176.00126953 176.54117188 -176.46484375 177.90625 C-177.09326172 179.66195312 -177.09326172 179.66195312 -177.734375 181.453125 C-178.14042969 182.61328125 -178.54648438 183.7734375 -178.96484375 184.96875 C-180.98755526 189.1040713 -183.46961346 191.16449423 -187.546875 193.203125 C-194.18548756 194.23721657 -200.84370196 194.33148363 -207.546875 194.203125 C-207.20914062 193.5740625 -206.87140625 192.945 -206.5234375 192.296875 C-202.63614935 184.83687693 -200.41448424 178.7242758 -200.546875 170.203125 C-200.69382812 171.16992188 -200.84078125 172.13671875 -200.9921875 173.1328125 C-203.42115369 187.89842008 -203.42115369 187.89842008 -206.98828125 193.50390625 C-213.18802501 197.62129333 -222.43218943 195.85172887 -229.546875 195.203125 C-229.20696533 194.70756104 -228.86705566 194.21199707 -228.5168457 193.70141602 C-220.18526012 181.06985069 -219.94201444 164.70609203 -222.73022461 150.19726562 C-224.80311691 140.45617756 -227.9287975 132.80165843 -234.546875 125.203125 C-232.566875 125.203125 -230.586875 125.203125 -228.546875 125.203125 C-228.546875 124.543125 -228.546875 123.883125 -228.546875 123.203125 C-229.10375 123.17734375 -229.660625 123.1515625 -230.234375 123.125 C-241.40959476 122.29440934 -249.0866677 115.84241306 -257.828125 109.45166016 C-260.33739487 107.6288752 -262.87807717 105.85227946 -265.421875 104.078125 C-266.22367188 103.51867187 -267.02546875 102.95921875 -267.8515625 102.3828125 C-268.41101562 101.99351562 -268.97046875 101.60421875 -269.546875 101.203125 C-269.546875 105.06309377 -268.00989597 106.10279552 -265.37963867 108.73461914 C-264.79545166 109.30172607 -264.21126465 109.86883301 -263.609375 110.453125 C-262.7282605 111.32602173 -262.7282605 111.32602173 -261.8293457 112.21655273 C-257.83168784 116.12044309 -253.69446016 119.60054043 -249.05859375 122.73828125 C-248.55972656 123.22167969 -248.06085938 123.70507812 -247.546875 124.203125 C-247.546875 128.0535251 -247.88766225 129.38468996 -249.484375 132.703125 C-251.63044021 137.19524715 -252.63975703 140.98735312 -252.86328125 145.96875 C-252.90517578 146.85820313 -252.94707031 147.74765625 -252.99023438 148.6640625 C-253.04920898 150.04464844 -253.04920898 150.04464844 -253.109375 151.453125 C-253.15255859 152.38898438 -253.19574219 153.32484375 -253.24023438 154.2890625 C-253.3460555 156.59361141 -253.44814057 158.89826339 -253.546875 161.203125 C-257.89029082 159.64542938 -261.68680072 157.40367369 -265.609375 155.015625 C-274.46011139 149.70814658 -283.55044412 144.87304852 -292.70458984 140.11376953 C-298.62119739 137.01218413 -304.26340099 133.81807484 -309.74609375 129.9765625 C-325.09918974 119.36394435 -337.32802387 117.61214788 -355.37124634 117.42800903 C-362.73592281 117.29324498 -369.76487392 116.07008426 -376.984375 114.640625 C-378.1276123 114.41745605 -379.27084961 114.19428711 -380.44873047 113.96435547 C-388.14630904 112.40340798 -388.14630904 112.40340798 -390.546875 111.203125 C-391.97910056 111.09781963 -393.41561735 111.04785725 -394.8515625 111.02734375 C-419.04075786 110.45387874 -442.34485651 105.5147801 -463.8125 93.921875 C-473.07692773 89.02604712 -480.49122613 86.41209189 -491.02050781 86.3840332 C-500.16016603 86.35073591 -508.70089972 84.35457827 -517.546875 82.203125 C-518.05582389 96.63748097 -517.6508266 107.14819865 -509.5390625 119.4921875 C-508.546875 121.203125 -508.546875 121.203125 -507.921875 123.953125 C-508.85271922 127.30416418 -510.66948282 128.37205725 -513.546875 130.203125 C-517.91100235 131.56985069 -522.26405059 131.42518772 -526.796875 131.453125 C-528.02857422 131.4840625 -528.02857422 131.4840625 -529.28515625 131.515625 C-537.33045842 131.56662533 -544.26998341 129.4814202 -550.546875 124.203125 C-557.4116561 113.36861425 -556.17995114 101.73672249 -554.05859375 89.53515625 C-553.17638793 83.79071684 -552.87722022 78.00155288 -552.546875 72.203125 C-555.13475701 72.20914333 -557.71066929 72.25653453 -560.296875 72.328125 C-561.02648437 72.32554687 -561.75609375 72.32296875 -562.5078125 72.3203125 C-564.96709098 72.34992797 -564.96709098 72.34992797 -568.546875 73.203125 C-574.77007264 80.15962937 -574.13016602 89.11621351 -573.74365234 97.96875 C-573.11918089 105.05952263 -571.5067496 113.2633131 -567.546875 119.203125 C-566.8920554 124.35982936 -566.8920554 124.35982936 -567.546875 127.203125 C-574.32470622 133.33544849 -582.12580937 133.58980429 -590.84765625 133.453125 C-598.31090981 132.94874461 -605.20281298 130.61349052 -610.546875 125.203125 C-617.12722194 117.34002689 -616.34456752 107.25805598 -615.76513672 97.58544922 C-615.37365021 93.31237838 -614.47830044 89.24347292 -613.30078125 85.125 C-610.9904227 76.17086429 -611.26193075 66.85594861 -611.1171875 57.66992188 C-610.89968527 49.83531031 -610.42988185 44.36740081 -604.984375 38.390625 C-604.18 37.66875 -603.375625 36.946875 -602.546875 36.203125 C-601.886875 35.543125 -601.226875 34.883125 -600.546875 34.203125 C-592.37623329 31.27296383 -583.16590094 32.75300004 -575.546875 36.203125 C-566.12614867 38.02959235 -558.76917296 34.0412515 -550.51611328 30.11376953 C-531.72894618 21.42592756 -514.18199879 16.75999526 -494.09716797 24.09814453 C-487.22564921 26.73245902 -480.43354713 29.55916774 -473.65625 32.42578125 C-469.88854887 33.81424889 -466.36728779 33.90803534 -462.58984375 32.4453125 C-461.10720545 31.74662952 -459.62552043 31.04592183 -458.14453125 30.34375 C-438.67318257 21.79392472 -416.46385361 20.53030372 -395.546875 21.203125 C-392.74436186 21.203125 -391.41197359 19.69812337 -389.2590332 18.0534668 C-364.15977017 -1.04462425 -331.60914013 -6.54114084 -300.65625 -3.40234375 C-290.00454373 -1.67534116 -280.11500938 2.74006576 -271.19458008 8.80151367 C-268.11810603 10.43010173 -266.18467528 10.5767323 -262.72265625 10.56640625 C-261.61083984 10.56576172 -260.49902344 10.56511719 -259.35351562 10.56445312 C-258.20044922 10.54833984 -257.04738281 10.53222656 -255.859375 10.515625 C-254.1587793 10.52045898 -254.1587793 10.52045898 -252.42382812 10.52539062 C-243.03166652 10.46584378 -234.68765234 9.64993302 -226.234375 5.328125 C-206.46547597 -4.2066388 -182.73318784 -5.92948673 -161.546875 0.203125 C-158.84532328 1.22701572 -156.20151078 2.37657221 -153.546875 3.515625 C-144.50140352 7.35949856 -135.91956055 6.19867739 -126.57421875 3.66918945 C-115.83631124 1.20066038 -103.54549751 3.17856286 -92.96484375 5.546875 C-89.66106742 6.18120006 -86.89333786 6.54963818 -83.546875 6.203125 C-81.70252161 4.97020123 -81.70252161 4.97020123 -80.296875 3.140625 C-59.19262759 -19.7725579 -23.96076576 -16.90483474 0 0 Z " fill="#404551" transform="translate(1410.546875,511.796875)"/>
<path d="M0 0 C3.0130256 1.60882149 4.98496244 1.83181457 8.38061523 1.92260742 C9.44731445 1.95805664 10.51401367 1.99350586 11.61303711 2.0300293 C13.26722656 2.06386719 13.26722656 2.06386719 14.95483398 2.09838867 C16.63802734 2.14962891 16.63802734 2.14962891 18.35522461 2.2019043 C21.1174946 2.28418468 23.87945511 2.35340148 26.64233398 2.41088867 C26.64233398 2.74088867 26.64233398 3.07088867 26.64233398 3.41088867 C26.05145996 3.42023437 25.46058594 3.42958008 24.85180664 3.43920898 C-5.3687366 4.03051829 -33.59787726 8.91050818 -61.03344727 21.90698242 C-64.35766602 23.41088867 -64.35766602 23.41088867 -66.35766602 23.41088867 C-66.32672852 24.74120117 -66.32672852 24.74120117 -66.29516602 26.09838867 C-66.35766602 29.41088867 -66.35766602 29.41088867 -67.10766602 31.91088867 C-67.4894665 35.72889348 -65.64399102 37.44484542 -63.35766602 40.41088867 C-62.46108276 41.62010986 -62.46108276 41.62010986 -61.54638672 42.85375977 C-54.64708413 50.91436158 -44.21164578 55.17652395 -34.55664062 59.03149414 C-32.6547567 59.7920508 -30.76296308 60.57442661 -28.87133789 61.36010742 C-19.66033502 65.14276989 -11.85003384 67.74794778 -1.86157227 67.22900391 C9.05743016 66.67328984 9.05743016 66.67328984 13.29467773 68.64526367 C15.2535876 70.45093957 16.91329359 72.38501731 18.64233398 74.41088867 C26.71664135 81.33514632 34.78231766 85.69150381 44.64233398 89.41088867 C44.64233398 89.74088867 44.64233398 90.07088867 44.64233398 90.41088867 C42.99233398 90.41088867 41.34233398 90.41088867 39.64233398 90.41088867 C41.96347726 98.35739095 44.61077095 107.37932564 50.64233398 113.41088867 C52.69601749 113.42508595 54.75019823 113.37451665 56.80249023 113.29760742 C58.07157227 113.26731445 59.3406543 113.23702148 60.64819336 113.20581055 C63.32783264 113.14072203 66.00071071 113.04426114 68.67944336 112.93237305 C75.76508574 112.80016489 80.80964984 112.82630321 86.19482422 117.75585938 C88.09915476 119.9332007 89.47254093 122.01260718 90.64233398 124.66088867 C91.03420898 125.51166992 91.42608398 126.36245117 91.82983398 127.23901367 C92.64233398 129.41088867 92.64233398 129.41088867 92.64233398 131.41088867 C111.30721137 130.77109045 111.30721137 130.77109045 129.64233398 127.41088867 C129.64233398 128.07088867 129.64233398 128.73088867 129.64233398 129.41088867 C130.30233398 129.41088867 130.96233398 129.41088867 131.64233398 129.41088867 C132.06643555 130.29389648 132.49053711 131.1769043 132.92749023 132.08666992 C133.51850151 133.29961057 134.11106573 134.51179526 134.70483398 135.72338867 C135.01557861 136.35986328 135.32632324 136.99633789 135.64648438 137.65209961 C137.67988007 141.7301224 139.95333636 145.42482981 142.57983398 149.16088867 C145.43871822 153.55270405 146.69997561 156.91540278 146.23999023 162.18432617 C145.14241108 166.27334654 143.27865416 168.30528613 139.64233398 170.41088867 C132.37613055 173.72145372 124.78128226 173.64755487 116.95483398 173.41088867 C116.07625732 173.39405029 115.19768066 173.37721191 114.29248047 173.35986328 C107.66061016 173.01166985 103.18556396 170.96865221 97.64233398 167.41088867 C96.98233398 167.08088867 96.32233398 166.75088867 95.64233398 166.41088867 C95.18793945 167.74893555 95.18793945 167.74893555 94.72436523 169.11401367 C94.09594727 170.8697168 94.09594727 170.8697168 93.45483398 172.66088867 C93.0487793 173.82104492 92.64272461 174.98120117 92.22436523 176.17651367 C90.20165373 180.31183497 87.71959553 182.3722579 83.64233398 184.41088867 C77.00372142 185.44498024 70.34550703 185.5392473 63.64233398 185.41088867 C63.98006836 184.78182617 64.31780273 184.15276367 64.66577148 183.50463867 C68.55305963 176.04464061 70.77472475 169.93203947 70.64233398 161.41088867 C70.49538086 162.37768555 70.34842773 163.34448242 70.19702148 164.34057617 C67.7680553 179.10618375 67.7680553 179.10618375 64.20092773 184.71166992 C58.00118397 188.829057 48.75701956 187.05949255 41.64233398 186.41088867 C41.98224365 185.91532471 42.32215332 185.41976074 42.67236328 184.90917969 C51.00394886 172.27761436 51.24719454 155.91385571 48.45898438 141.4050293 C46.38609208 131.66394123 43.26041149 124.0094221 36.64233398 116.41088867 C38.62233398 116.41088867 40.60233398 116.41088867 42.64233398 116.41088867 C42.64233398 115.75088867 42.64233398 115.09088867 42.64233398 114.41088867 C42.08545898 114.38510742 41.52858398 114.35932617 40.95483398 114.33276367 C29.77961423 113.50217301 22.10254128 107.05017674 13.36108398 100.65942383 C10.85181411 98.83663887 8.31113182 97.06004313 5.76733398 95.28588867 C4.96553711 94.72643555 4.16374023 94.16698242 3.33764648 93.59057617 C2.77819336 93.2012793 2.21874023 92.81198242 1.64233398 92.41088867 C1.64233398 96.27085745 3.17931302 97.31055919 5.80957031 99.94238281 C6.39375732 100.50948975 6.97794434 101.07659668 7.57983398 101.66088867 C8.46094849 102.5337854 8.46094849 102.5337854 9.35986328 103.42431641 C13.35752115 107.32820676 17.49474882 110.8083041 22.13061523 113.94604492 C22.62948242 114.42944336 23.12834961 114.9128418 23.64233398 115.41088867 C23.64233398 119.26128877 23.30154674 120.59245363 21.70483398 123.91088867 C19.55876878 128.40301082 18.54945195 132.19511679 18.32592773 137.17651367 C18.2840332 138.0659668 18.24213867 138.95541992 18.19897461 139.87182617 C18.14 141.25241211 18.14 141.25241211 18.07983398 142.66088867 C18.03665039 143.59674805 17.9934668 144.53260742 17.94897461 145.49682617 C17.84315349 147.80137508 17.74106841 150.10602706 17.64233398 152.41088867 C13.29891816 150.85319305 9.50240826 148.61143736 5.57983398 146.22338867 C-3.2709024 140.91591026 -12.36123514 136.0808122 -21.51538086 131.3215332 C-27.43198841 128.2199478 -33.07419201 125.02583851 -38.55688477 121.18432617 C-53.90998075 110.57170802 -66.13881489 108.81991155 -84.18203735 108.63577271 C-91.54671383 108.50100865 -98.57566494 107.27784793 -105.79516602 105.84838867 C-106.93840332 105.62521973 -108.08164063 105.40205078 -109.25952148 105.17211914 C-116.95710005 103.61117165 -116.95710005 103.61117165 -119.35766602 102.41088867 C-120.78989158 102.3055833 -122.22640836 102.25562092 -123.66235352 102.23510742 C-147.85154888 101.66164241 -171.15564753 96.72254377 -192.62329102 85.12963867 C-201.88771874 80.23381079 -209.30201715 77.61985556 -219.83129883 77.59179688 C-228.97095704 77.55849958 -237.51169073 75.56234194 -246.35766602 73.41088867 C-246.8666149 87.84524464 -246.46161762 98.35596232 -238.34985352 110.69995117 C-237.35766602 112.41088867 -237.35766602 112.41088867 -236.73266602 115.16088867 C-237.66351023 118.51192785 -239.48027383 119.57982092 -242.35766602 121.41088867 C-246.72179337 122.77761436 -251.07484161 122.63295139 -255.60766602 122.66088867 C-256.83936523 122.69182617 -256.83936523 122.69182617 -258.09594727 122.72338867 C-266.14124944 122.774389 -273.08077443 120.68918387 -279.35766602 115.41088867 C-286.22244712 104.57637792 -284.99074215 92.94448616 -282.86938477 80.74291992 C-281.98717895 74.99848051 -281.68801123 69.20931655 -281.35766602 63.41088867 C-283.94554803 63.416907 -286.5214603 63.4642982 -289.10766602 63.53588867 C-289.83727539 63.53331055 -290.56688477 63.53073242 -291.31860352 63.52807617 C-293.77788199 63.55769164 -293.77788199 63.55769164 -297.35766602 64.41088867 C-303.58086366 71.36739304 -302.94095703 80.32397719 -302.55444336 89.17651367 C-301.92997191 96.2672863 -300.31754061 104.47107678 -296.35766602 110.41088867 C-295.70284641 115.56759303 -295.70284641 115.56759303 -296.35766602 118.41088867 C-303.13549724 124.54321216 -310.93660038 124.79756796 -319.65844727 124.66088867 C-327.12170083 124.15650828 -334.013604 121.82125419 -339.35766602 116.41088867 C-345.93801295 108.54779056 -345.15535853 98.46581965 -344.57592773 88.79321289 C-344.18444123 84.52014205 -343.28909146 80.45123659 -342.11157227 76.33276367 C-339.80121372 67.37862796 -340.07272176 58.06371228 -339.92797852 48.87768555 C-339.71047629 41.04307398 -339.24067287 35.57516448 -333.79516602 29.59838867 C-332.99079102 28.87651367 -332.18641602 28.15463867 -331.35766602 27.41088867 C-330.69766602 26.75088867 -330.03766602 26.09088867 -329.35766602 25.41088867 C-321.1870243 22.48072751 -311.97669196 23.96076372 -304.35766602 27.41088867 C-294.93693969 29.23735602 -287.57996398 25.24901517 -279.3269043 21.3215332 C-260.53973719 12.63369124 -242.9927898 7.96775893 -222.90795898 15.3059082 C-216.03644023 17.9402227 -209.24433814 20.76693141 -202.46704102 23.63354492 C-198.69933989 25.02201256 -195.1780788 25.11579901 -191.40063477 23.65307617 C-189.91799647 22.95439319 -188.43631145 22.2536855 -186.95532227 21.55151367 C-167.48397359 13.00168839 -145.27464463 11.73806739 -124.35766602 12.41088867 C-121.55515287 12.41088867 -120.2227646 10.90588704 -118.06982422 9.26123047 C-86.54590324 -14.72539863 -33.99408309 -22.91265267 0 0 Z " fill="#3F4450" transform="translate(1139.357666015625,520.589111328125)"/>
<path d="M0 0 C8.25866846 0.14600961 14.1109187 2.91752244 20.1953125 8.43359375 C28.95321392 17.8327641 29.27954369 27.8609091 29.375 40.1875 C29.41850586 42.03118164 29.41850586 42.03118164 29.46289062 43.91210938 C29.51067062 50.80345539 28.85516861 55.7474608 25.9777832 61.98168945 C24.1913116 66.8969881 24.51438081 72.07707281 24.5 77.25 C24.11916949 93.93761931 21.15928705 107.20911045 12.76123047 121.75366211 C9.08507939 128.38861803 8.24196154 134.04683198 7.9375 141.5625 C7.79993646 143.78160848 7.65669039 146.00037187 7.5078125 148.21875 C7.43723633 149.29253906 7.36666016 150.36632812 7.29394531 151.47265625 C5.61546307 173.42748729 -3.40525999 191.37078226 -14.1953125 210.1953125 C-25.21968678 227.82703107 -25.21968678 227.82703107 -30.9375 247.5 C-29.12489868 249.72931824 -29.12489868 249.72931824 -26.9375 251.5 C-24.33757294 259.29978117 -25.88048747 266.42921845 -28.625 273.9375 C-28.99057007 274.96653442 -28.99057007 274.96653442 -29.36352539 276.01635742 C-31.0835542 280.42043497 -32.88798976 283.03154854 -36.9375 285.5 C-40.75 285.75 -40.75 285.75 -43.9375 285.5 C-43.9375 284.84 -43.9375 284.18 -43.9375 283.5 C-44.370625 284.7375 -44.370625 284.7375 -44.8125 286 C-46.9375 288.5 -46.9375 288.5 -48.80078125 288.90234375 C-56.85089649 289.0241102 -64.97873506 287.6059326 -72.9375 286.5 C-73.4325 285.015 -73.4325 285.015 -73.9375 283.5 C-73.2775 283.5 -72.6175 283.5 -71.9375 283.5 C-70.9475 276.075 -70.9475 276.075 -69.9375 268.5 C-68.9475 268.5 -67.9575 268.5 -66.9375 268.5 C-66.4425 270.48 -66.4425 270.48 -65.9375 272.5 C-61.62827404 268.64687941 -61.62827404 268.64687941 -59.7265625 263.4296875 C-60.00641719 261.05212085 -60.00641719 261.05212085 -60.9375 257.5 C-61.040625 256.55125 -61.14375 255.6025 -61.25 254.625 C-61.476875 253.92375 -61.70375 253.2225 -61.9375 252.5 C-63.26913267 251.8299428 -64.60272159 251.16376865 -65.9375 250.5 C-69.02883564 247.68518291 -71.63201449 244.95954186 -72.5 240.8125 C-71.7992403 237.931599 -71.15624126 236.49686714 -68.9375 234.5 C-65.75 234.25 -65.75 234.25 -62.9375 234.5 C-60.99266021 229.50417722 -60.49406163 224.96980568 -60.19140625 219.68359375 C-60.07703295 217.94164194 -59.96252607 216.19969889 -59.84790039 214.45776367 C-59.79135284 213.55496674 -59.7348053 212.6521698 -59.67654419 211.72201538 C-56.7540946 165.62814022 -56.7540946 165.62814022 -46.39941406 144.92431641 C-41.89462893 135.75152929 -41.58841073 127.37403517 -41.375 117.3125 C-41.31492908 114.81891774 -41.25126951 112.3254187 -41.18359375 109.83203125 C-41.15966553 108.73608643 -41.1357373 107.6401416 -41.11108398 106.51098633 C-40.95145454 103.7420553 -40.5589763 101.19849079 -39.9375 98.5 C-41.03449219 99.06589844 -42.13148438 99.63179688 -43.26171875 100.21484375 C-44.71598273 100.95604926 -46.17041893 101.69691695 -47.625 102.4375 C-48.7068457 102.99727539 -48.7068457 102.99727539 -49.81054688 103.56835938 C-58.55451026 108.00023123 -68.71296987 109.18417503 -78.3671875 106.93359375 C-81.43938173 105.67438968 -83.86461929 104.08010341 -85.9375 101.5 C-86.65013077 94.87637435 -83.63082134 88.09237946 -81.25 82.0625 C-80.70762695 80.67490479 -80.70762695 80.67490479 -80.15429688 79.25927734 C-72.93016856 61.17018789 -62.35283587 52.62993265 -44.9375 44.5 C-34.05568197 40.04052422 -21.82112601 35.66606133 -9.9375 36.5 C-7.9375 38.5 -7.9375 38.5 -7.91015625 41.44140625 C-7.95462891 43.23384766 -7.95462891 43.23384766 -8 45.0625 C-7.75945261 49.50128009 -7.57025178 51.75031481 -4.67578125 55.1796875 C-1.83836959 57.41710079 1.08440998 59.45534118 4.0625 61.5 C6.49850532 63.74029207 8.79355097 66.09166161 11.0625 68.5 C10.71058594 68.03851563 10.35867188 67.57703125 9.99609375 67.1015625 C8.93536528 65.70018232 7.88566121 64.29042655 6.84375 62.875 C5.69585791 61.34447721 4.51025753 59.84118442 3.28125 58.375 C-6.38443687 46.16571132 -8.11605423 29.3146721 -8.125 14.25 C-8.13724609 13.14914062 -8.14949219 12.04828125 -8.16210938 10.9140625 C-8.16404297 9.86476563 -8.16597656 8.81546875 -8.16796875 7.734375 C-8.17207764 6.77756836 -8.17618652 5.82076172 -8.18041992 4.83496094 C-7.65761817 -0.19024099 -4.27296151 0.12193945 0 0 Z " fill="#3F4450" transform="translate(589.9375,370.5)"/>
<path d="M0 0 C0.99 0.495 0.99 0.495 2 1 C1.83935059 1.69585205 1.67870117 2.3917041 1.51318359 3.10864258 C0.96357637 6.20521651 0.84003941 9.1177532 0.7890625 12.26171875 C0.76070312 13.46376953 0.73234375 14.66582031 0.703125 15.90429688 C0.65144793 18.40675906 0.60705939 20.90938342 0.5703125 23.41210938 C0.31595616 33.34790372 -1.36961386 41.18175815 -5.98730469 49.95361328 C-7.89702373 53.81264534 -9.2425036 57.8664763 -10.625 61.9375 C-10.9240625 62.76056641 -11.223125 63.58363281 -11.53125 64.43164062 C-16.84793716 80.06411238 -16.634641 97.62001795 -17.60180664 113.96411133 C-17.76334599 116.65794059 -17.94100688 119.35032451 -18.12109375 122.04296875 C-18.16495712 122.85549606 -18.2088205 123.66802338 -18.25401306 124.50517273 C-18.58844018 129.30119396 -19.39561281 132.82556036 -22 137 C-23.83203125 137.953125 -23.83203125 137.953125 -25.8125 138.25 C-26.50988281 138.37632812 -27.20726562 138.50265625 -27.92578125 138.6328125 C-28.61027344 138.75398437 -29.29476562 138.87515625 -30 139 C-32.00705243 139.645124 -34.01017187 140.30356015 -36 141 C-36 141.66 -36 142.32 -36 143 C-38.1556564 142.53807363 -39.90783052 142.05163056 -41.84008789 140.96923828 C-44.36010699 139.8384057 -46.05857049 139.802355 -48.80859375 139.8671875 C-49.72060547 139.86460937 -50.63261719 139.86203125 -51.57226562 139.859375 C-53.47878787 139.86977185 -55.38532906 139.90354516 -57.29101562 139.9609375 C-64.05144177 139.88460241 -64.05144177 139.88460241 -66.61132812 137.49731445 C-67.96799078 135.3926469 -68.99288821 133.29203109 -70 131 C-70.38502686 130.23268555 -70.77005371 129.46537109 -71.16674805 128.67480469 C-72.36510918 126.28153948 -73.50071249 123.8663487 -74.625 121.4375 C-75.0065625 120.62603516 -75.388125 119.81457031 -75.78125 118.97851562 C-76.52747103 117.38443311 -77.26604362 115.78674433 -77.99633789 114.18530273 C-78.85408535 112.31770421 -79.75303584 110.46912243 -80.66015625 108.625 C-82.48557193 103.68626603 -83.08838707 98.76023091 -83.8125 93.5625 C-85.84590023 80.27734964 -89.47035538 68.66356167 -96.3125 57.015625 C-97 55 -97 55 -96.37109375 52.83984375 C-94.70994148 50.61077617 -93.68560824 50.18379606 -91.0625 49.3125 C-77.8617986 44.42689934 -65.40087949 38.26690816 -54 30 C-52.29364581 28.78887342 -50.58536754 27.58045224 -48.875 26.375 C-47.67230469 25.52615234 -47.67230469 25.52615234 -46.4453125 24.66015625 C-43.13502501 22.4127566 -39.71598017 20.37902611 -36.265625 18.35546875 C-34.2899512 17.1734708 -32.39249094 15.93412601 -30.5 14.625 C-28 13 -28 13 -26 13 C-25.67 12.01 -25.34 11.02 -25 10 C-24.45214844 9.9484375 -23.90429688 9.896875 -23.33984375 9.84375 C-16.37615944 8.84732037 -11.01288001 6.136702 -5.00366211 2.65625 C-3.36439002 1.71891443 -1.68474574 0.85290253 0 0 Z " fill="#050913" transform="translate(549,468)"/>
<path d="M0 0 C0.51046875 0.46277344 1.0209375 0.92554688 1.546875 1.40234375 C1.546875 2.06234375 1.546875 2.72234375 1.546875 3.40234375 C2.15273437 2.93183594 2.75859375 2.46132813 3.3828125 1.9765625 C14.06659418 -5.96230912 23.26918478 -7.63004685 36.546875 -6.59765625 C48.15580453 -4.69973862 56.58699229 2.20861222 63.546875 11.40234375 C68.99783227 19.66178915 72.13241015 28.41347233 70.546875 38.40234375 C67.30043675 45.72600169 59.68096354 51.40887343 52.359375 54.25170898 C46.20316325 56.28986517 40.50863812 56.91454621 34.046875 56.83984375 C32.66495972 56.82848389 32.66495972 56.82848389 31.25512695 56.81689453 C24.67362145 56.65686857 19.22122119 55.95856465 13.546875 52.40234375 C12.85980469 52.00144531 12.17273437 51.60054687 11.46484375 51.1875 C2.36648271 45.18571308 -3.1075649 35.54907536 -6.453125 25.40234375 C-6.29445107 31.63390166 -5.15746579 35.65010722 -1.4140625 40.67578125 C-1.09695313 41.24554687 -0.77984375 41.8153125 -0.453125 42.40234375 C-0.783125 43.39234375 -1.113125 44.38234375 -1.453125 45.40234375 C-4.03713919 45.48500771 -6.61839066 45.54360915 -9.203125 45.58984375 C-9.91339844 45.61498047 -10.62367187 45.64011719 -11.35546875 45.66601562 C-30.61725344 45.92170303 -55.18295319 35.21124997 -69.453125 22.40234375 C-73.11583597 18.63945607 -75.74831015 15.03623271 -77.828125 10.21484375 C-77.40713528 7.05742082 -76.98447142 6.48781793 -74.765625 4.33984375 C-55.83001563 -10.06932514 -19.78900981 -13.78915045 0 0 Z " fill="#5377B7" transform="translate(1148.453125,543.59765625)"/>
<path d="M0 0 C6.93398502 1.71666619 12.14255941 6.105525 17.8359375 10.21289062 C28.28700851 17.59060982 37.78963354 19.06720493 50.375 19.5625 C51.39722656 19.60568359 52.41945313 19.64886719 53.47265625 19.69335938 C55.98165288 19.79887792 58.49073943 19.90099213 61 20 C57.6965431 16.50029814 54.07526827 13.64207096 50.25 10.75 C49.64800781 10.29109375 49.04601563 9.8321875 48.42578125 9.359375 C46.95255094 8.23691381 45.47655456 7.11808466 44 6 C44.33 5.34 44.66 4.68 45 4 C45.83402344 4.66386719 46.66804688 5.32773437 47.52734375 6.01171875 C56.21408391 12.85726879 64.47129184 18.36280991 75 22 C75 22.33 75 22.66 75 23 C73.35 23 71.7 23 70 23 C72.32114328 30.94650227 74.96843696 39.96843696 81 46 C83.05368351 46.01419728 85.10786424 45.96362798 87.16015625 45.88671875 C88.42923828 45.85642578 89.69832031 45.82613281 91.00585938 45.79492188 C93.68549865 45.72983336 96.35837673 45.63337247 99.03710938 45.52148438 C106.12275176 45.38927622 111.16731586 45.41541454 116.55249023 50.3449707 C118.45682078 52.52231203 119.83020695 54.60171851 121 57.25 C121.391875 58.10078125 121.78375 58.9515625 122.1875 59.828125 C123 62 123 62 123 64 C141.66487738 63.36020178 141.66487738 63.36020178 160 60 C160 60.66 160 61.32 160 62 C160.66 62 161.32 62 162 62 C162.42410156 62.88300781 162.84820313 63.76601563 163.28515625 64.67578125 C163.87616753 65.8887219 164.46873175 67.10090659 165.0625 68.3125 C165.37324463 68.94897461 165.68398926 69.58544922 166.00415039 70.24121094 C168.03754608 74.31923373 170.31100238 78.01394114 172.9375 81.75 C175.79638424 86.14181538 177.05764163 89.50451411 176.59765625 94.7734375 C175.5000771 98.86245786 173.63632018 100.89439746 170 103 C162.73379656 106.31056505 155.13894828 106.2366662 147.3125 106 C146.43392334 105.98316162 145.55534668 105.96632324 144.65014648 105.94897461 C138.01827618 105.60078117 133.54322998 103.55776354 128 100 C127.34 99.67 126.68 99.34 126 99 C125.69707031 99.89203125 125.39414063 100.7840625 125.08203125 101.703125 C124.45361328 103.45882812 124.45361328 103.45882812 123.8125 105.25 C123.20341797 106.99023438 123.20341797 106.99023438 122.58203125 108.765625 C120.55931974 112.9009463 118.07726154 114.96136923 114 117 C107.36138744 118.03409157 100.70317304 118.12835863 94 118 C94.33773438 117.3709375 94.67546875 116.741875 95.0234375 116.09375 C98.91072565 108.63375193 101.13239076 102.5211508 101 94 C100.85304688 94.96679688 100.70609375 95.93359375 100.5546875 96.9296875 C98.12572131 111.69529508 98.12572131 111.69529508 94.55859375 117.30078125 C88.35884999 121.41816833 79.11468557 119.64860387 72 119 C72.33990967 118.50443604 72.67981934 118.00887207 73.0300293 117.49829102 C81.36161488 104.86672569 81.60486056 88.50296703 78.81665039 73.99414062 C76.74375809 64.25305256 73.6180775 56.59853343 67 49 C68.98 49 70.96 49 73 49 C73 48.34 73 47.68 73 47 C72.1646875 46.96132813 72.1646875 46.96132813 71.3125 46.921875 C58.46471854 45.96697232 49.00514072 37.18050328 39.015625 29.79296875 C38.14421875 29.16003906 37.2728125 28.52710938 36.375 27.875 C35.61960937 27.31554687 34.86421875 26.75609375 34.0859375 26.1796875 C31.81910801 24.67181861 31.81910801 24.67181861 28 25 C26.75390625 23.6015625 26.75390625 23.6015625 25.5625 21.625 C19.73415051 13.28188043 10.00760857 7.44288299 1.51171875 2.05859375 C1.01285156 1.70925781 0.51398438 1.35992188 0 1 C0 0.67 0 0.34 0 0 Z " fill="#212732" transform="translate(1109,588)"/>
<path d="M0 0 C14.85730423 -1.28080209 32.35192456 7.75742677 44.125 16.5625 C50.45053087 21.90835974 54.96996904 26.5537461 56 35 C56.09410156 35.67675781 56.18820312 36.35351562 56.28515625 37.05078125 C56.96380129 46.5692129 52.42760212 56.16903322 46.44921875 63.3671875 C45.97097656 63.90601563 45.49273437 64.44484375 45 65 C44.278125 65.86625 43.55625 66.7325 42.8125 67.625 C31.62141534 77.07524927 20.20862961 78.74862672 6 78 C0.36255765 77.28933092 -3.94462384 75.61732241 -9 73 C-9.00410889 72.40799805 -9.00821777 71.81599609 -9.01245117 71.20605469 C-9.16799626 58.28959083 -10.35977899 46.57631748 -13.94140625 34.15234375 C-14.90136796 30.6834625 -15.40491187 27.62201992 -15 24 C-13.3524116 22.64316249 -11.68083079 21.31543279 -10 20 C-5.55838506 13.84308109 -2.57111711 7.10838259 0 0 Z " fill="#51D4AA" transform="translate(454,400)"/>
<path d="M0 0 C1.10537109 -0.00386719 2.21074219 -0.00773438 3.34960938 -0.01171875 C4.41630859 -0.01042969 5.48300781 -0.00914062 6.58203125 -0.0078125 C7.53956299 -0.00668457 8.49709473 -0.00555664 9.48364258 -0.00439453 C12.15474344 0.12343242 14.57610359 0.57137973 17.1875 1.125 C18.58730463 1.26005056 19.99023043 1.36636727 21.39453125 1.44140625 C22.14541016 1.48330078 22.89628906 1.52519531 23.66992188 1.56835938 C24.43884766 1.60767578 25.20777344 1.64699219 26 1.6875 C27.18239258 1.75227539 27.18239258 1.75227539 28.38867188 1.81835938 C30.32144215 1.92378321 32.25445026 2.02483094 34.1875 2.125 C34.1875 2.455 34.1875 2.785 34.1875 3.125 C24.20702148 5.49182911 14.21798851 7.7698941 4.140625 9.6875 C3.45637955 9.81784637 2.77213409 9.94819275 2.06715393 10.08248901 C-1.32389541 10.72578805 -4.71656609 11.35889345 -8.11157227 11.98095703 C-19.73576771 13.57021265 -19.73576771 13.57021265 -29.76953125 18.953125 C-34.4896289 28.78224221 -36.01206021 42.75692588 -32.86328125 53.3046875 C-30.95902143 57.64183447 -28.59783664 61.47019216 -25.9375 65.375 C-23.95148349 68.41023279 -23.8125 69.11428006 -23.8125 73 C-24.8125 76.125 -24.8125 76.125 -27.8125 78.125 C-32.3169308 78.62646905 -36.84573429 78.54173414 -41.375 78.5625 C-42.61314453 78.59537109 -43.85128906 78.62824219 -45.12695312 78.66210938 C-53.02080469 78.70807675 -59.44405107 78.09832935 -65.8125 73.125 C-70.92337776 67.96872104 -72.52141881 63.0400847 -72.49243164 55.86791992 C-72.4536792 54.90088135 -72.41492676 53.93384277 -72.375 52.9375 C-72.35493896 51.92083252 -72.33487793 50.90416504 -72.31420898 49.85668945 C-72.1059225 43.16328872 -71.23216777 37.10774403 -69.546875 30.62890625 C-68.06848481 23.57509771 -68.04878139 16.31121321 -67.8125 9.125 C-68.4725 8.795 -69.1325 8.465 -69.8125 8.125 C-55.17428049 5.0637163 -40.56205052 2.95669991 -25.68676758 1.42382812 C-23.88069053 1.23605625 -22.07559377 1.03831348 -20.2722168 0.82617188 C-13.5080954 0.05911357 -6.80314877 -0.02422486 0 0 Z " fill="#232934" transform="translate(217.8125,558.875)"/>
<path d="M0 0 C2.49498754 2.49498754 2.35223401 3.41420382 2.4375 6.875 C2.29531382 13.69993668 0.00948008 18.95824074 -3 25 C-3.53109375 26.07636719 -4.0621875 27.15273438 -4.609375 28.26171875 C-14.0180221 46.49636737 -26.59422493 62.10723098 -46 70 C-53.13652173 71.8887277 -63.28147172 72.54369936 -70.25 69.6875 C-72.64375331 68.21860592 -74.26242674 67.16274805 -76 65 C-76.71263077 58.37637435 -73.69332134 51.59237946 -71.3125 45.5625 C-70.77012695 44.17490479 -70.77012695 44.17490479 -70.21679688 42.75927734 C-62.99266856 24.67018789 -52.41533587 16.12993265 -35 8 C-24.11818197 3.54052422 -11.88362601 -0.83393867 0 0 Z " fill="#52D4A9" transform="translate(580,407)"/>
<path d="M0 0 C0.75792847 -0.00619858 1.51585693 -0.01239716 2.29675293 -0.01878357 C3.89362305 -0.02586364 5.49056727 -0.02273933 7.08740234 -0.01000977 C9.52449808 0.0038678 11.95775885 -0.03024639 14.39453125 -0.06835938 C15.95052177 -0.06931059 17.50651707 -0.06745161 19.0625 -0.0625 C20.14863586 -0.08238731 20.14863586 -0.08238731 21.25671387 -0.10267639 C25.20894182 -0.03028093 26.86601771 0.42976707 29.95166016 2.98144531 C37.15383981 11.93386116 36.24617322 24.36621184 36.34375 35.31640625 C36.36131348 36.38141357 36.37887695 37.4464209 36.39697266 38.54370117 C36.39090431 46.3287873 35.39481346 52.52736397 31.44458008 59.27783203 C28.09473518 62.45450842 25.07472607 62.28768007 20.6875 62.23046875 C19.47833923 62.2376442 19.47833923 62.2376442 18.24475098 62.2449646 C16.54351852 62.24836114 14.84222058 62.23917565 13.14111328 62.21826172 C10.53920777 62.19148814 7.94161533 62.21801302 5.33984375 62.25 C3.68488633 62.24669585 2.02993158 62.2402895 0.375 62.23046875 C-0.40113647 62.2405899 -1.17727295 62.25071106 -1.97692871 62.26113892 C-5.88714246 62.17643313 -7.58465895 61.94544044 -10.41650391 59.15087891 C-18.61462591 45.50109603 -18.07740109 24.52364878 -14.78125 9.31640625 C-12.78353256 1.60591788 -7.35639008 -0.05038974 0 0 Z " fill="#1E2430" transform="translate(411.96875,615.43359375)"/>
<path d="M0 0 C0.73714737 -0.00902847 1.47429474 -0.01805695 2.23377991 -0.02735901 C3.7895198 -0.04183536 5.34532021 -0.05074175 6.90112305 -0.05444336 C9.27432135 -0.06635188 11.6449273 -0.11556511 14.01757812 -0.16601562 C15.53253945 -0.17547956 17.04751667 -0.18271474 18.5625 -0.1875 C19.62053078 -0.21679848 19.62053078 -0.21679848 20.69993591 -0.24668884 C24.58232353 -0.2113345 26.19106192 0.24244515 29.22875977 2.73803711 C38.4359909 14.179446 37.46329344 30.76627287 36 44.67578125 C35.03883026 49.9904845 33.63241107 55.07568659 29.72436523 59.00195312 C26.44238744 60.8925881 23.38365444 60.83879355 19.6953125 60.83984375 C18.95816513 60.84745728 18.22101776 60.8550708 17.46153259 60.86291504 C15.90578592 60.87369776 14.34996697 60.87657655 12.79418945 60.87207031 C10.42080315 60.87109811 8.0506539 60.91272822 5.67773438 60.95703125 C4.16276713 60.96223894 2.64778869 60.96492643 1.1328125 60.96484375 C0.07478172 60.98943665 0.07478172 60.98943665 -1.00462341 61.01452637 C-4.89643414 60.96026505 -6.50792343 60.48971431 -9.55371094 57.98803711 C-13.82953485 52.65619015 -16.37892672 46.27363198 -15.65234375 39.37109375 C-17.63234375 39.37109375 -19.61234375 39.37109375 -21.65234375 39.37109375 C-21.29140625 38.4275 -20.93046875 37.48390625 -20.55859375 36.51171875 C-18.26685669 30.26100593 -16.29992309 24.81625985 -16.65234375 18.05859375 C-16.94806412 11.98811165 -15.33468896 7.23566558 -11.65234375 2.37109375 C-8.02918385 -0.09602995 -4.23213764 0.03208424 0 0 Z " fill="#161C27" transform="translate(579.65234375,611.62890625)"/>
<path d="M0 0 C1.54381055 2.05685937 3.08504947 4.11511538 4.61328125 6.18359375 C9.13466116 12.18091837 13.48428284 17.82439766 21 20 C22.32 20 23.64 20 25 20 C24.505 18.515 24.505 18.515 24 17 C26.96420753 17.90064402 28.62488032 18.46934289 30.44140625 21.0390625 C33.96583145 29.1685729 36.02406392 37.39734379 38 46 C38.65574603 48.66953577 39.32701291 51.33473397 40 54 C37.91673869 54.02709444 35.83337559 54.04643873 33.75 54.0625 C32.00976562 54.07990234 32.00976562 54.07990234 30.234375 54.09765625 C27.53446923 54.01613736 25.56016155 53.71518683 23 53 C13.24863888 51.31620641 7.14878582 54.0674426 -0.97949219 58.93505859 C-11.74938356 65.36210568 -23.35708831 69.70941675 -35.59375 72.44921875 C-38.16997009 72.99331802 -38.16997009 72.99331802 -41.25 74.125 C-47.28369054 76.04481063 -53.62251323 76.157637 -59.91015625 76.16796875 C-61.00510658 76.17296135 -61.00510658 76.17296135 -62.12217712 76.17805481 C-63.65916319 76.18308343 -65.19616002 76.1854644 -66.7331543 76.18530273 C-69.03258275 76.18747178 -71.33151655 76.20562284 -73.63085938 76.22460938 C-83.26140452 76.25992306 -92.48754952 75.54641937 -102 74 C-98.98675273 72.42440831 -96.04920195 71.38239471 -92.7734375 70.4543457 C-75.65093293 65.55187184 -60.00824964 56.46019435 -45.75390625 45.8828125 C-44.70106445 45.11481323 -44.70106445 45.11481323 -43.62695312 44.33129883 C-42.29021471 43.3478729 -40.96851175 42.34353373 -39.66601562 41.31518555 C-36.13777365 38.72442391 -33.84670671 37.66562535 -29.421875 38.1015625 C-27.94115311 38.36557696 -26.46582845 38.66297197 -25 39 C-23.91074219 39.24878906 -22.82148438 39.49757813 -21.69921875 39.75390625 C-20.70535156 40.02074219 -19.71148437 40.28757812 -18.6875 40.5625 C-9.104166 42.82988555 0.91968082 43.44885839 10 39 C12.94033193 36.69021329 14.8023853 34.38108252 15.34765625 30.5703125 C14.89439944 27.21926774 13.68661533 26.11972695 11.3125 23.75 C5.10252121 17.14434114 0 9.32246049 0 0 Z " fill="#242A36" transform="translate(357,487)"/>
<path d="M0 0 C3.19893846 1.21350886 6.13845321 2.77536213 9.125 4.4375 C9.94105713 4.87980957 10.75711426 5.32211914 11.59790039 5.77783203 C32.34638023 17.21565628 32.34638023 17.21565628 38 24 C38.19388071 27.48985278 37.93488893 29.76546719 35.78125 32.609375 C22.22070779 45.50518475 2.289928 44.31586434 -15 44 C-15.35191406 43.19175781 -15.70382812 42.38351562 -16.06640625 41.55078125 C-16.56011719 40.48214844 -17.05382813 39.41351562 -17.5625 38.3125 C-18.03816406 37.25675781 -18.51382812 36.20101562 -19.00390625 35.11328125 C-21.52959663 31.17399509 -23.54962622 28.66420568 -28 27 C-34.17490414 26.4980022 -40.33686942 27.03427432 -46.50585938 27.45898438 C-55.88782533 27.81964427 -55.88782533 27.81964427 -59.13671875 25.42529297 C-60.74189944 23.35407614 -61.89367187 21.37161912 -63 19 C-63.55429688 17.92234375 -64.10859375 16.8446875 -64.6796875 15.734375 C-65.07414062 14.74953125 -65.46859375 13.7646875 -65.875 12.75 C-66.48988281 11.25726562 -66.48988281 11.25726562 -67.1171875 9.734375 C-68 7 -68 7 -68 3 C-65.65625 3.34179688 -65.65625 3.34179688 -63.3125 3.68359375 C-62.549375 3.78800781 -61.78625 3.89242187 -61 4 C-59.16308594 4.25910156 -59.16308594 4.25910156 -57.2890625 4.5234375 C-38.02204742 6.89952454 -17.53621702 -3.72156734 0 0 Z " fill="#4ED3A5" transform="translate(1247,608)"/>
<path d="M0 0 C0.43828125 0.39832031 0.8765625 0.79664063 1.328125 1.20703125 C0.22799925 3.46602734 -0.92892309 5.6552006 -2.1796875 7.8359375 C-5.99037528 14.74856195 -8.17723253 20.30665122 -6.671875 28.20703125 C-4.82305878 33.78056879 -2.31786619 38.97687109 0.328125 44.20703125 C-1.7043392 46.23949545 -5.70628754 45.43788853 -8.484375 45.45703125 C-9.19013672 45.47765625 -9.89589844 45.49828125 -10.62304688 45.51953125 C-29.8893862 45.65678033 -54.3925199 35.02418038 -68.671875 22.20703125 C-72.33458597 18.44414357 -74.96706015 14.84092021 -77.046875 10.01953125 C-76.62588528 6.86210832 -76.20322142 6.29250543 -73.984375 4.14453125 C-56.125604 -9.44521083 -18.12225922 -15.13871654 0 0 Z " fill="#679CE9" transform="translate(1147.671875,543.79296875)"/>
<path d="M0 0 C4.71575933 8.81641962 5.52187271 18.43554843 2.8125 28.125 C-2.76838418 44.27339172 -11.61459317 52.91016185 -26.72265625 60.33203125 C-30.07496788 61.95406602 -33.43242939 63.56435224 -36.8046875 65.14453125 C-37.51608887 65.47815674 -38.22749023 65.81178223 -38.96044922 66.15551758 C-40.95806956 66.98263857 -42.89170761 67.53409048 -45 68 C-45.97983928 65.39608461 -46.95889794 62.79188032 -47.9375 60.1875 C-48.21529297 59.44951172 -48.49308594 58.71152344 -48.77929688 57.95117188 C-49.04677734 57.23896484 -49.31425781 56.52675781 -49.58984375 55.79296875 C-49.83597412 55.1383667 -50.08210449 54.48376465 -50.33569336 53.80932617 C-53.89410281 44.11753182 -53.49035479 30.78409241 -49.32421875 21.35546875 C-43.84816633 11.61487994 -36.30086229 4.35339072 -25.62890625 0.6796875 C-17.23546565 -0.89238857 -8.50234255 -0.29252469 0 0 Z " fill="#4F73B3" transform="translate(449,366)"/>
<path d="M0 0 C6.44894043 1.27590073 10.24458552 5.40499018 13.90234375 10.57421875 C21.37862301 23.26197607 21.86489837 41.12998943 18.65234375 55.26171875 C17.06138923 60.68880659 15.34754644 64.67738872 10.77734375 68.22265625 C7.05844352 69.97094358 3.78426711 69.83013126 -0.22265625 69.63671875 C-5.94226819 69.26403143 -5.94226819 69.26403143 -11.09765625 71.57421875 C-13.3659668 71.89306641 -13.3659668 71.89306641 -15.984375 71.98828125 C-16.92216797 72.02695312 -17.85996094 72.065625 -18.82617188 72.10546875 C-19.80263672 72.13640625 -20.77910156 72.16734375 -21.78515625 72.19921875 C-22.77322266 72.23789062 -23.76128906 72.2765625 -24.77929688 72.31640625 C-27.21856332 72.41067742 -29.6578222 72.49628093 -32.09765625 72.57421875 C-32.09765625 71.91421875 -32.09765625 71.25421875 -32.09765625 70.57421875 C-31.49953125 69.99671875 -30.90140625 69.41921875 -30.28515625 68.82421875 C-23.40364608 61.746094 -23.91574785 53.03917849 -23.91015625 43.82421875 C-23.89791016 42.7775 -23.88566406 41.73078125 -23.87304688 40.65234375 C-23.8582823 32.77790383 -24.35600497 25.61570996 -28.09765625 18.57421875 C-21.15258135 11.4362251 -21.15258135 11.4362251 -17.1328125 9.75 C-14.65038239 8.31581293 -13.98393879 6.92853176 -12.59765625 4.44921875 C-9.13362126 -0.43232416 -5.67998297 -0.21199422 0 0 Z " fill="#212632" transform="translate(1404.09765625,622.42578125)"/>
<path d="M0 0 C0 0.66 0 1.32 0 2 C4.12973628 1.43260132 4.12973628 1.43260132 8 0 C10.64117689 -0.17704592 13.23196596 -0.27741548 15.875 -0.3125 C16.59558594 -0.34150391 17.31617188 -0.37050781 18.05859375 -0.40039062 C21.3219574 -0.43945483 23.57402951 -0.26047048 26.3828125 1.45703125 C30.4094557 7.78878179 30.34159151 15.45384878 30.3125 22.75 C30.32861328 23.57371094 30.34472656 24.39742187 30.36132812 25.24609375 C30.36508677 29.91432527 30.22783426 33.33461487 27 37 C24.87890625 37.85546875 24.87890625 37.85546875 22.5625 38.1875 C19.29233057 38.69102863 16.94602969 39.52113986 14 41 C7.46710254 42.37126164 0.63710834 42.17487989 -6 42 C-7.92779297 41.97486328 -7.92779297 41.97486328 -9.89453125 41.94921875 C-11.24226756 41.90607821 -12.58992882 41.86052254 -13.9375 41.8125 C-15.18402344 41.77769531 -16.43054687 41.74289062 -17.71484375 41.70703125 C-21 41 -21 41 -23.42578125 38.625 C-25.14395559 35.75995494 -25.37439892 34.27599059 -25 31 C-26.32 31 -27.64 31 -29 31 C-29.12375 31.763125 -29.2475 32.52625 -29.375 33.3125 C-30 36 -30 36 -32 39 C-32.66 39 -33.32 39 -34 39 C-33.91878906 38.32195313 -33.83757812 37.64390625 -33.75390625 36.9453125 C-33.26592204 29.75501459 -34.63203721 26.17332331 -39.04296875 20.55859375 C-41.12466898 17.83700962 -42.7856844 15.06257559 -44.4375 12.0625 C-44.93121094 11.16660156 -45.42492188 10.27070312 -45.93359375 9.34765625 C-47 7 -47 7 -47 4 C-44.43668789 4.45773431 -43.12306628 4.89334256 -41.125 6.625 C-38.1262071 8.56539541 -36.49392883 7.60781481 -33 7 C-30.20700538 6.87644654 -27.42004881 6.9046468 -24.625 6.9375 C-23.88894531 6.94201172 -23.15289063 6.94652344 -22.39453125 6.95117188 C-20.59631842 6.96284858 -18.79814803 6.98077989 -17 7 C-19.475 6.505 -19.475 6.505 -22 6 C-22 5.67 -22 5.34 -22 5 C-21.05898437 4.80664062 -20.11796875 4.61328125 -19.1484375 4.4140625 C-17.90320312 4.15367187 -16.65796875 3.89328125 -15.375 3.625 C-14.14523437 3.36976563 -12.91546875 3.11453125 -11.6484375 2.8515625 C-7.81905917 1.95776756 -3.92356911 0 0 0 Z " fill="#3C414D" transform="translate(1320,646)"/>
<path d="M0 0 C0.33 0 0.66 0 1 0 C0.94199219 0.74765625 0.88398438 1.4953125 0.82421875 2.265625 C0.77910156 3.25046875 0.73398437 4.2353125 0.6875 5.25 C0.62949219 6.22453125 0.57148438 7.1990625 0.51171875 8.203125 C0.77080303 11.15392177 0.77080303 11.15392177 3.0625 13.28125 C6.5582927 15.32666062 9.29930637 15.79992221 13.3125 16.25 C14.56675781 16.39953125 15.82101562 16.5490625 17.11328125 16.703125 C18.06589844 16.80109375 19.01851562 16.8990625 20 17 C18.76220857 20.71337428 17.72749117 21.06693159 14.4375 23.0625 C13.4475 23.67222656 12.4575 24.28195312 11.4375 24.91015625 C10.88964844 25.24289551 10.34179688 25.57563477 9.77734375 25.91845703 C6.48332515 27.92292165 3.21081835 29.96196873 -0.0625 32 C-0.75682129 32.43054688 -1.45114258 32.86109375 -2.16650391 33.3046875 C-5.85627552 35.60653128 -9.43211976 37.98431078 -12.9375 40.5625 C-22.51426124 47.39381535 -33.45833377 52.65955155 -44.38671875 56.9296875 C-47.34039329 58.1394137 -50.16036809 59.54484456 -53 61 C-65.88188169 42.76786674 -65.88188169 42.76786674 -72 34 C-71.67 33.34 -71.34 32.68 -71 32 C-70.59007812 32.49371094 -70.18015625 32.98742187 -69.7578125 33.49609375 C-68.94957031 34.45708984 -68.94957031 34.45708984 -68.125 35.4375 C-67.59132813 36.07558594 -67.05765625 36.71367187 -66.5078125 37.37109375 C-65.0777243 39.10805004 -65.0777243 39.10805004 -63 40 C-62.92652344 38.96166016 -62.92652344 38.96166016 -62.8515625 37.90234375 C-62.2131549 29.54800977 -61.16706707 21.2941077 -60 13 C-56.25512977 13.4996161 -52.63621535 14.03981443 -49 15.0625 C-35.64122573 18.07678753 -23.49592122 16.0247804 -11.91015625 9.0859375 C-10 8 -10 8 -7 7 C-6.67 6.01 -6.34 5.02 -6 4 C-3.5 2.375 -3.5 2.375 -1 1 C-0.67 0.67 -0.34 0.34 0 0 Z " fill="#262C38" transform="translate(504,461)"/>
<path d="M0 0 C0.66 0 1.32 0 2 0 C2.13535156 0.66644531 2.27070313 1.33289063 2.41015625 2.01953125 C4.85540488 12.48870949 9.315584 19.9589116 17.625 26.8125 C25.04725107 33.17442948 27.39366698 41.59685908 29 51 C29.08436115 52.99312193 29.11779713 54.98874068 29.11352539 56.98364258 C29.11344986 58.16448929 29.11337433 59.345336 29.11329651 60.56196594 C29.10813522 61.82671249 29.10297394 63.09145905 29.09765625 64.39453125 C29.0962413 65.69702316 29.09482635 66.99951508 29.09336853 68.34147644 C29.08956355 71.79216454 29.07975064 75.24281008 29.06866455 78.69348145 C29.05840689 82.21947657 29.0538616 85.74547861 29.04882812 89.27148438 C29.03812644 96.18100699 29.02107443 103.09050145 29 110 C22.88415102 109.03174672 21.03983016 106.06178279 17.33203125 101.265625 C0.1365885 77.58012883 -7.36032114 46.37670283 -3.09375 17.4765625 C-2.16357536 11.63188002 -1.12201497 5.81075437 0 0 Z " fill="#6A9FED" transform="translate(370,408)"/>
<path d="M0 0 C5.3162435 2.6121789 9.86010236 5.59171669 14.375 9.4375 C22.41504215 16.21281642 31.48421135 21.53268065 42 23 C42 23.66 42 24.32 42 25 C40.68 25.33 39.36 25.66 38 26 C38.39832031 26.556875 38.79664063 27.11375 39.20703125 27.6875 C49.49482294 42.50592501 52.02587946 60.3317173 49.17358398 78.03710938 C47.98103946 84.51990719 46.42229019 89.09962438 42 94 C45.63 94.33 49.26 94.66 53 95 C53 95.33 53 95.66 53 96 C49.97818586 96.10867663 46.96033673 96.18762754 43.9375 96.25 C43.08994141 96.28351563 42.24238281 96.31703125 41.36914062 96.3515625 C35.34031742 96.44467174 31.89412901 95.58985605 27 92 C16.77560926 80.5056323 15.61196737 63.17516656 16.31665039 48.57397461 C16.74272409 41.82687737 18.10220659 36.13457396 21 30 C21.67430299 28.33640819 22.34299588 26.67049927 23 25 C22.18917969 24.33355469 21.37835937 23.66710937 20.54296875 22.98046875 C12.94832667 16.67907123 5.85486009 10.1021296 -1 3 C-0.67 2.01 -0.34 1.02 0 0 Z " fill="#1B212B" transform="translate(1140,612)"/>
<path d="M0 0 C13.03802755 1.27823799 25.51403453 5.21682723 38 9 C37.01 9.33 36.02 9.66 35 10 C34.49105111 24.43435597 34.8960484 34.94507365 43.0078125 47.2890625 C44 49 44 49 44.625 51.75 C43.69415578 55.10103918 41.87739218 56.16893225 39 58 C34.63587265 59.36672569 30.28282441 59.22206272 25.75 59.25 C24.92886719 59.270625 24.10773437 59.29125 23.26171875 59.3125 C15.21641658 59.36350033 8.27689159 57.2782952 2 52 C-4.8647811 41.16548925 -3.63307614 29.53359749 -1.51171875 17.33203125 C-0.62951293 11.58759184 -0.33034522 5.79842788 0 0 Z " fill="#252B36" transform="translate(858,584)"/>
<path d="M0 0 C8.25866846 0.14600961 14.1109187 2.91752244 20.1953125 8.43359375 C28.07227891 16.88732548 29.5591448 26.0981297 29.33984375 37.38671875 C28.84615309 47.76895972 25.39368061 60.1279447 19.0625 68.5 C16.68359375 69.5703125 16.68359375 69.5703125 14.0625 69.5 C9.84244675 66.8806566 6.92664204 63.15325275 3.9375 59.25 C3.50824219 58.71503906 3.07898438 58.18007813 2.63671875 57.62890625 C-0.5372564 53.51738767 -2.39595317 49.4448079 -3.9375 44.5 C-4.13666016 43.8615918 -4.33582031 43.22318359 -4.54101562 42.56542969 C-7.34756699 32.91730241 -8.30424601 23.53684942 -8.3125 13.5 C-8.31403076 12.44296875 -8.31556152 11.3859375 -8.31713867 10.296875 C-8.20954779 2.94943972 -8.10777312 0.23137521 0 0 Z " fill="#5075B5" transform="translate(589.9375,370.5)"/>
<path d="M0 0 C0 0.66 0 1.32 0 2 C0.66 2 1.32 2 2 2 C2.63615234 3.32451172 2.63615234 3.32451172 3.28515625 4.67578125 C3.87616753 5.8887219 4.46873175 7.10090659 5.0625 8.3125 C5.52861694 9.26721191 5.52861694 9.26721191 6.00415039 10.24121094 C8.03754608 14.31923373 10.31100238 18.01394114 12.9375 21.75 C15.79638424 26.14181538 17.05764163 29.50451411 16.59765625 34.7734375 C15.5000771 38.86245786 13.63632018 40.89439746 10 43 C2.73379656 46.31056505 -4.86105172 46.2366662 -12.6875 46 C-14.00536499 45.97474243 -14.00536499 45.97474243 -15.34985352 45.94897461 C-21.94018009 45.60296235 -26.51430129 43.6154415 -32 40 C-30.25 36.125 -30.25 36.125 -28 35 C-28.80824219 34.06027344 -29.61648438 33.12054687 -30.44921875 32.15234375 C-33.772323 27.4999978 -33.77641583 23.13148973 -33.8125 17.5625 C-33.83763672 16.64017578 -33.86277344 15.71785156 -33.88867188 14.76757812 C-33.94710213 12.51217028 -33.97652179 10.25604242 -34 8 C-30.7 7.34 -27.4 6.68 -24 6 C-25.65 5.67 -27.3 5.34 -29 5 C-29 4.67 -29 4.34 -29 4 C-28.43079834 3.9498877 -27.86159668 3.89977539 -27.27514648 3.84814453 C-24.66191893 3.61407662 -22.04976061 3.3696142 -19.4375 3.125 C-18.54224609 3.04636719 -17.64699219 2.96773437 -16.72460938 2.88671875 C-11.22180136 2.3626418 -5.36416302 0 0 0 Z " fill="#3D424E" transform="translate(1269,648)"/>
<path d="M0 0 C5.94 0.66 11.88 1.32 18 2 C14.3750203 3.81248985 12.62740416 4.31888915 8.75 4.625 C7.85796875 4.69976563 6.9659375 4.77453125 6.046875 4.8515625 C5.37140625 4.90054688 4.6959375 4.94953125 4 5 C4.19284617 8.19076866 4.43586547 11.37587161 4.6875 14.5625 C4.76774414 15.90538086 4.76774414 15.90538086 4.84960938 17.27539062 C5.38679616 23.65156425 6.85016671 27.11271653 11 32 C10.505 32.99 10.505 32.99 10 34 C9.04222656 34.23976563 8.08445312 34.47953125 7.09765625 34.7265625 C3.75373018 35.71145449 3.75373018 35.71145449 2.49609375 38.8984375 C1.97208984 40.61933594 1.97208984 40.61933594 1.4375 42.375 C-0.1447298 47.5100022 -1.4881254 49.9920836 -6 53 C-12.26925289 56.13462645 -21.14876351 55.13119389 -28 55 C-27.66226562 54.3709375 -27.32453125 53.741875 -26.9765625 53.09375 C-26.53054688 52.2378125 -26.08453125 51.381875 -25.625 50.5 C-25.18414063 49.6646875 -24.74328125 48.829375 -24.2890625 47.96875 C-21.28988572 41.061555 -20.64899699 34.43216825 -20.375 27 C-20.31699219 25.69482422 -20.31699219 25.69482422 -20.2578125 24.36328125 C-20.16459113 22.24249514 -20.08125864 20.12127815 -20 18 C-19.67 19.32 -19.34 20.64 -19 22 C-18.33355469 21.9278125 -17.66710938 21.855625 -16.98046875 21.78125 C-10.29489465 21.10801736 -3.7169852 20.88306989 3 21 C2.80083984 19.60587891 2.80083984 19.60587891 2.59765625 18.18359375 C1.73177083 12.12239583 0.86588542 6.06119792 0 0 Z " fill="#222833" transform="translate(1231,651)"/>
<path d="M0 0 C17.88415516 -1.03177818 17.88415516 -1.03177818 22.8125 2.375 C28.92618889 8.29327417 31.42845138 15.712545 32 24 C32.25330078 24.93972656 32.25330078 24.93972656 32.51171875 25.8984375 C33.09387246 28.40402707 33.09630849 30.68055476 33.0625 33.25 C33.05347656 34.14203125 33.04445313 35.0340625 33.03515625 35.953125 C33.02355469 36.62859375 33.01195312 37.3040625 33 38 C31.39657731 38.17367828 29.79218592 38.33840925 28.1875 38.5 C27.29417969 38.5928125 26.40085937 38.685625 25.48046875 38.78125 C20.65219298 39.08471065 15.83608556 39.03883973 11 39 C10.81207886 38.0255896 10.81207886 38.0255896 10.62036133 37.03149414 C10.03367375 34.03845623 9.42326954 31.05071277 8.8125 28.0625 C8.61591797 27.04091797 8.41933594 26.01933594 8.21679688 24.96679688 C6.66724783 17.50512223 4.50883481 10.50883481 -1 5 C-0.625 2.375 -0.625 2.375 0 0 Z " fill="#393F4A" transform="translate(1201,634)"/>
<path d="M0 0 C2.32917141 2.09786801 4.42158271 4.28227399 6 7 C4.61986021 11.14041937 1.86330245 12.04219239 -1.8125 13.9375 C-2.48958008 14.29086426 -3.16666016 14.64422852 -3.86425781 15.00830078 C-15.91194132 21.14542588 -31.30905332 26.39143173 -45 24 C-47.7240733 22.24844632 -49.02317552 20.63576598 -51 18 C-48.20945921 11.40680518 -41.68122326 7.41685494 -35.25 4.75 C-27.1724998 2.06134636 -18.51347111 1.33262809 -10.09375 0.32543945 C-2.35716966 -0.87708639 -2.35716966 -0.87708639 0 0 Z " fill="#4CD3A0" transform="translate(1331,628)"/>
<path d="M0 0 C5.61 0 11.22 0 17 0 C18.83410472 7.33641888 19.33452149 13.02506791 19.3125 20.4375 C19.32861328 21.51837891 19.34472656 22.59925781 19.36132812 23.71289062 C19.36621763 31.77568108 18.2125011 37.97304122 14.328125 45.04296875 C10.98957574 47.8493667 7.89210018 47.55034144 3.75 47.3125 C3.00492187 47.28994141 2.25984375 47.26738281 1.4921875 47.24414062 C-0.339409 47.18543561 -2.16996653 47.09575757 -4 47 C-3.25130208 45.11197917 -2.50260417 43.22395833 -1.75390625 41.3359375 C-0.03752142 36.01781248 0.139068 30.73850706 0.09765625 25.1953125 C0.0962413 24.4713327 0.09482635 23.74735291 0.09336853 23.00143433 C0.08781075 20.70924593 0.07526633 18.41715843 0.0625 16.125 C0.05747953 14.56250142 0.05291759 13.00000129 0.04882812 11.4375 C0.03870984 7.6249307 0.01912664 3.8125771 0 0 Z " fill="#242A35" transform="translate(429,630)"/>
<path d="M0 0 C0.98822721 1.92107963 1.92936324 3.81995304 2.71875 5.83203125 C5.63533671 13.22557855 10.18664882 19.50289708 14.65771484 26.01513672 C15.96676154 27.95084964 17.23349899 29.90767576 18.48828125 31.87890625 C24.46918513 41.21945367 31.14720819 49.14720819 39 57 C22.00224444 57.34610814 5.58152253 56.2511294 -11.125 53 C-11.98472412 52.8340332 -12.84444824 52.66806641 -13.73022461 52.49707031 C-19.74793001 51.25206999 -19.74793001 51.25206999 -22 49 C-21.06414063 48.7421875 -20.12828125 48.484375 -19.1640625 48.21875 C-14.18528973 46.79552759 -9.28455978 45.14339606 -4.375 43.5 C-3.446875 43.19191406 -2.51875 42.88382813 -1.5625 42.56640625 C-0.66273437 42.26605469 0.23703125 41.96570313 1.1640625 41.65625 C1.97311035 41.38619141 2.7821582 41.11613281 3.61572266 40.83789062 C5.30220436 40.24522165 6.96781965 39.59154577 8.61474609 38.89648438 C11 38 11 38 14 38 C13.49210937 37.00742187 12.98421875 36.01484375 12.4609375 34.9921875 C-1.01777181 8.48143176 -1.01777181 8.48143176 0 0 Z " fill="#252B37" transform="translate(1042,573)"/>
<path d="M0 0 C0.33 0.66 0.66 1.32 1 2 C1.66 2 2.32 2 3 2 C5.66244551 15.03533321 6.00729316 32.32117807 -1 44 C-3 46 -3 46 -6.4765625 46.1953125 C-7.85950968 46.18201493 -9.24238654 46.15816232 -10.625 46.125 C-11.33140625 46.11597656 -12.0378125 46.10695313 -12.765625 46.09765625 C-14.51056098 46.07407603 -16.25532295 46.03820461 -18 46 C-17.69964844 45.09765625 -17.39929688 44.1953125 -17.08984375 43.265625 C-12.90822379 29.23328245 -14.05952618 15.46489624 -15 1 C-10.05 0.67 -5.1 0.34 0 0 Z " fill="#232935" transform="translate(612,625)"/>
<path d="M0 0 C18.61911085 -1.62645102 18.61911085 -1.62645102 23.84765625 1.9453125 C25.6755493 4.57265767 26.8866237 7.00377112 28 10 C28.32355469 10.70253906 28.64710937 11.40507813 28.98046875 12.12890625 C29.81483383 14.0679237 30.43304426 15.96774315 31 18 C31.20367188 18.70769531 31.40734375 19.41539062 31.6171875 20.14453125 C33.07319336 25.83891032 33.16521745 31.13478053 33 37 C26.73 37.33 20.46 37.66 14 38 C13.54560547 35.55787109 13.54560547 35.55787109 13.08203125 33.06640625 C12.65966873 30.89827866 12.23644583 28.73031855 11.8125 26.5625 C11.51762695 24.95858398 11.51762695 24.95858398 11.21679688 23.32226562 C9.3881818 14.12292518 6.18712553 7.10373672 0 0 Z " fill="#3B404C" transform="translate(1176,637)"/>
<path d="M0 0 C0.33 0 0.66 0 1 0 C2.05491666 30.13410001 2.05491666 30.13410001 -7 41 C-9.40541929 42.20270964 -11.10366591 42.20316663 -13.7890625 42.31640625 C-14.73007813 42.35830078 -15.67109375 42.40019531 -16.640625 42.44335938 C-17.62546875 42.48267578 -18.6103125 42.52199219 -19.625 42.5625 C-20.61757812 42.60568359 -21.61015625 42.64886719 -22.6328125 42.69335938 C-25.08839838 42.79961069 -27.54408703 42.90164964 -30 43 C-30 42.34 -30 41.68 -30 41 C-29.401875 40.4225 -28.80375 39.845 -28.1875 39.25 C-21.84051217 32.72166966 -21.82676743 24.74500193 -21.4375 16.1875 C-21.39431641 15.30384766 -21.35113281 14.42019531 -21.30664062 13.50976562 C-21.20108464 11.34000377 -21.10008929 9.1700209 -21 7 C-20.67 7.66 -20.34 8.32 -20 9 C-10.1 8.505 -10.1 8.505 0 8 C0 5.36 0 2.72 0 0 Z " fill="#242A35" transform="translate(1402,652)"/>
<path d="M0 0 C1.63001953 0.15275391 1.63001953 0.15275391 3.29296875 0.30859375 C4.12441406 0.39238281 4.95585938 0.47617187 5.8125 0.5625 C8.88109133 14.78213303 9.28753414 29.58315022 4.8125 43.5625 C2.8125 45.5625 2.8125 45.5625 -0.6640625 45.7578125 C-2.04700968 45.74451493 -3.42988654 45.72066232 -4.8125 45.6875 C-5.51890625 45.67847656 -6.2253125 45.66945313 -6.953125 45.66015625 C-8.69806098 45.63657603 -10.44282295 45.60070461 -12.1875 45.5625 C-11.89875 44.89089844 -11.61 44.21929688 -11.3125 43.52734375 C-6.23492035 29.86371795 -7.38331751 14.81994212 -9.1875 0.5625 C-5.76060364 -0.57979879 -3.57647782 -0.34611076 0 0 Z " fill="#222934" transform="translate(589.1875,625.4375)"/>
<path d="M0 0 C0.99 0.495 0.99 0.495 2 1 C2.62727767 2.91750756 3.17588282 4.86094668 3.6875 6.8125 C8.53613965 23.10535528 19.97442557 36.49322592 33.9375 46 C39.44448375 47.79819878 44.68053811 48.0630867 50 45.625 C54.55719273 41.63745636 58.79504343 37.35454 63 33 C63 36.80332299 61.56582556 37.82504639 58.97851562 40.43164062 C58.42873047 40.96982422 57.87894531 41.50800781 57.3125 42.0625 C56.78205078 42.60455078 56.25160156 43.14660156 55.70507812 43.70507812 C51.94551952 47.43695899 48.88641925 49.69757086 43.46484375 50.265625 C42.21380859 50.25789063 42.21380859 50.25789063 40.9375 50.25 C39.68259766 50.25773437 39.68259766 50.25773437 38.40234375 50.265625 C36 50 36 50 34.00390625 48.921875 C31.23071859 47.64610056 29.87213464 48.04554062 27 49 C20.71653513 53.02534468 16.02322937 57.77048356 12 64 C11.67 64 11.34 64 11 64 C11.50771472 58.03435204 13.38592128 53.36190101 16 48 C15.32453125 47.50371094 14.6490625 47.00742187 13.953125 46.49609375 C4.97341037 39.65749604 1.56878932 34.18573506 0 23 C-0.21711736 18.95269257 -0.1920098 14.92651568 -0.125 10.875 C-0.11597656 9.823125 -0.10695313 8.77125 -0.09765625 7.6875 C-0.07435853 5.12475122 -0.04165112 2.56250488 0 0 Z " fill="#242935" transform="translate(512,340)"/>
<path d="M0 0 C2.56331211 0.45773431 3.87693372 0.89334256 5.875 2.625 C8.87006673 4.56298436 10.53037256 3.62264861 14 3 C16.35281527 2.91001606 18.70797021 2.86987589 21.0625 2.875 C22.24972656 2.87242187 23.43695312 2.86984375 24.66015625 2.8671875 C27.60240179 2.98418908 30.17471706 3.1848198 33 4 C35.20915841 6.66622567 35.9314406 8.5886436 36.5 12 C36 15 36 15 33.5625 17.375 C30.08557499 20.93672805 30.247873 23.12516432 30 28 C28 28 26 28 24 28 C23.34 29.32 22.68 30.64 22 32 C22 30.35 22 28.7 22 27 C20.68 27 19.36 27 18 27 C17.87625 27.763125 17.7525 28.52625 17.625 29.3125 C17 32 17 32 15 35 C14.34 35 13.68 35 13 35 C13.08121094 34.32195313 13.16242188 33.64390625 13.24609375 32.9453125 C13.73407796 25.75501459 12.36796279 22.17332331 7.95703125 16.55859375 C5.87533102 13.83700962 4.2143156 11.06257559 2.5625 8.0625 C2.06878906 7.16660156 1.57507812 6.27070312 1.06640625 5.34765625 C0 3 0 3 0 0 Z " fill="#1A202A" transform="translate(1273,650)"/>
<path d="M0 0 C2.64815804 1.0027544 3.79133691 1.62699768 5.1953125 4.13671875 C6.14865777 6.75240975 7.09929708 9.36564322 8 12 C8.4125 13.155 8.825 14.31 9.25 15.5 C10.22358269 20.04338588 10.16755851 24.3735233 10 29 C5.48184719 29.88277755 1.22487306 30.10589503 -3.375 30.0625 C-5.24285156 30.04896484 -5.24285156 30.04896484 -7.1484375 30.03515625 C-8.55996094 30.01775391 -8.55996094 30.01775391 -10 30 C-10.70078445 27.44048255 -11.38585196 24.87840298 -12.0625 22.3125 C-12.26166016 21.59126953 -12.46082031 20.87003906 -12.66601562 20.12695312 C-13.70959943 16.11739429 -14.42000722 13.03929514 -13 9 C-9.47238829 4.64236201 -6.08741666 2.95669872 -1 1 C-0.67 0.67 -0.34 0.34 0 0 Z " fill="#3C414D" transform="translate(1392,631)"/>
<path d="M0 0 C3.27036728 -0.14510162 6.53991007 -0.23399373 9.8125 -0.3125 C11.2056543 -0.3753418 11.2056543 -0.3753418 12.62695312 -0.43945312 C15.17544121 -0.48545471 17.49519248 -0.47722993 20 0 C22.06640625 2.375 22.06640625 2.375 23 5 C23.37125 5.763125 23.7425 6.52625 24.125 7.3125 C26.21409943 13.72901967 26.13909014 20.32367337 26 27 C19.97403427 28.0712828 14.11090483 28.09945415 8 28 C7.82984375 27.03320312 7.6596875 26.06640625 7.484375 25.0703125 C6.057248 17.29217011 4.22381798 10.26085131 1 3 C0.67 2.01 0.34 1.02 0 0 Z " fill="#383D49" transform="translate(1397,632)"/>
<path d="M0 0 C0 3 0 3 -0.2109375 5.421875 C0.05954696 8.72779615 1.13346231 9.85292704 3.375 12.25 C4.00148438 12.93578125 4.62796875 13.6215625 5.2734375 14.328125 C6.90945593 16.0801124 6.90945593 16.0801124 9 17 C9.33 16.01 9.66 15.02 10 14 C10.33895656 15.72807318 10.67091525 17.45751974 11 19.1875 C11.185625 20.15042969 11.37125 21.11335937 11.5625 22.10546875 C12.61085461 29.04145771 12.61085461 29.04145771 10.7578125 31.94921875 C10.21898437 32.52285156 9.68015625 33.09648438 9.125 33.6875 C8.59132813 34.26886719 8.05765625 34.85023438 7.5078125 35.44921875 C6.34800031 36.64208258 5.17645409 37.82354591 4 39 C4 37.02 4 35.04 4 33 C3.01 33 2.02 33 1 33 C0.93941406 33.91523437 0.87882813 34.83046875 0.81640625 35.7734375 C0.73261719 36.96195313 0.64882813 38.15046875 0.5625 39.375 C0.48128906 40.55835938 0.40007813 41.74171875 0.31640625 42.9609375 C0 46 0 46 -1 48 C-1.66 48 -2.32 48 -3 48 C-3.33 48.66 -3.66 49.32 -4 50 C-4.33 49.34 -4.66 48.68 -5 48 C-4.35223177 46.32589769 -3.68297781 44.66004926 -3 43 C-1.39452127 34.77369748 -4.20535075 27.97909837 -7.59741211 20.6340332 C-10.0472809 15.06087491 -10.22080564 10.955706 -9 5 C-8.01 5 -7.02 5 -6 5 C-6 4.34 -6 3.68 -6 3 C-4.02 2.01 -2.04 1.02 0 0 Z " fill="#1B202C" transform="translate(519,606)"/>
<path d="M0 0 C0.33 0 0.66 0 1 0 C1.47920569 19.93987176 0.09159285 35.12675496 -9 53 C-9.4434375 53.89847656 -9.886875 54.79695313 -10.34375 55.72265625 C-11.21575148 57.48845924 -12.10497644 59.24575383 -13 61 C-13.33 61 -13.66 61 -14 61 C-14.54000255 44.28992121 -14.9629178 19.80151749 -3.328125 6.55078125 C-1.62459763 4.56166253 -0.77650349 2.48481118 0 0 Z " fill="#6798E0" transform="translate(613,437)"/>
<path d="M0 0 C0.99 0.66 1.98 1.32 3 2 C5.22387762 2.25403845 7.41134476 2.31331182 9.6484375 2.36328125 C13.64104688 3.44433661 15.90505352 6.23877452 18.05078125 9.69018555 C19.02979817 11.49944237 19.93241545 13.32824853 20.8125 15.1875 C21.12380859 15.81591797 21.43511719 16.44433594 21.75585938 17.09179688 C24 21.70338255 24 21.70338255 24 24 C22 23 20 22 18 21 C18 20.34 18 19.68 18 19 C9.42 19 0.84 19 -8 19 C-8 13.39 -8 7.78 -8 2 C-5.36 2 -2.72 2 0 2 C0 1.34 0 0.68 0 0 Z " fill="#1C232D" transform="translate(457,634)"/>
<path d="M0 0 C0.66 0.33 1.32 0.66 2 1 C2.05607422 2.74023438 2.05607422 2.74023438 2.11328125 4.515625 C2.98542405 26.96005142 9.75302998 44.22777911 26 60 C23 60 23 60 21.24609375 58.46875 C20.64925781 57.8190625 20.05242187 57.169375 19.4375 56.5 C18.32863909 55.29813785 17.18876939 54.12288578 16 53 C15.34 53 14.68 53 14 53 C12.20415295 50.76084562 10.58931343 48.4215085 8.94921875 46.06640625 C6.65920939 43.63872098 5.26709861 43.30927784 2 43 C1.67 41.35 1.34 39.7 1 38 C-2.24992446 37.94180576 -5.49971435 37.90633884 -8.75 37.875 C-9.67039062 37.85824219 -10.59078125 37.84148438 -11.5390625 37.82421875 C-12.42851563 37.81777344 -13.31796875 37.81132813 -14.234375 37.8046875 C-15.05131836 37.79421387 -15.86826172 37.78374023 -16.70996094 37.77294922 C-19.21887518 38.02170084 -20.83395625 38.74299871 -23 40 C-22.896875 39.0925 -22.79375 38.185 -22.6875 37.25 C-22.64130816 33.86209382 -22.64130816 33.86209382 -25.25 32 C-26.1575 31.34 -27.065 30.68 -28 30 C-32.50187302 23.99750263 -33.14251403 20.41072947 -33 13 C-30.80919004 15.19080996 -30.09914523 16.92504946 -28.875 19.75 C-25.91265948 25.74397556 -22.2042143 29.50499961 -15.8359375 31.76953125 C-10.33400544 33.12071245 -4.6368755 33.55281572 1 34 C0.67386719 33.24847656 0.34773438 32.49695313 0.01171875 31.72265625 C-1.38324347 26.58984159 -1.25078242 21.72990871 -1.1875 16.4375 C-1.18685547 15.40947266 -1.18621094 14.38144531 -1.18554688 13.32226562 C-1.15873707 8.72587341 -1.01568097 4.49888413 0 0 Z " fill="#242A35" transform="translate(1323,584)"/>
<path d="M0 0 C5.61 0 11.22 0 17 0 C18.25497056 3.76491167 18.10661648 7.27206475 18.0625 11.1875 C18.041875 13.765625 18.02125 16.34375 18 19 C12.39 19 6.78 19 1 19 C0.27972188 12.60753173 -0.10372765 6.43111423 0 0 Z " fill="#3A3F4B" transform="translate(429,630)"/>
<path d="M0 0 C1.84466442 0.14889747 3.69357275 0.2479101 5.54296875 0.31640625 C7.15268555 0.37924805 7.15268555 0.37924805 8.79492188 0.44335938 C9.91447266 0.48267578 11.03402344 0.52199219 12.1875 0.5625 C13.31865234 0.60568359 14.44980469 0.64886719 15.61523438 0.69335938 C18.41003354 0.79949099 21.20492162 0.90154385 24 1 C24 1.33 24 1.66 24 2 C23.40912598 2.0093457 22.81825195 2.01869141 22.20947266 2.02832031 C-14.20885291 2.74089833 -61.13565928 9.15438604 -88.78515625 35.71484375 C-89.38650391 36.35099609 -89.38650391 36.35099609 -90 37 C-90.66 36.67 -91.32 36.34 -92 36 C-77.35140852 21.43278958 -56.84837056 10.73326832 -36.8828125 5.75390625 C-34.03890784 5.08112316 -34.03890784 5.08112316 -31.59765625 4 C-28.24391048 2.70893396 -24.83566462 2.06891241 -21.3125 1.4375 C-20.60714111 1.30891602 -19.90178223 1.18033203 -19.17504883 1.04785156 C-4.62146292 -1.54048764 -4.62146292 -1.54048764 0 0 Z " fill="#252B37" transform="translate(1142,522)"/>
<path d="M0 0 C0.33 0.66 0.66 1.32 1 2 C1.66 2 2.32 2 3 2 C3 7.61 3 13.22 3 19 C-2.28 19 -7.56 19 -13 19 C-13.66 13.06 -14.32 7.12 -15 1 C-10.05 0.67 -5.1 0.34 0 0 Z " fill="#363B47" transform="translate(612,625)"/>
<path d="M0 0 C1.63001953 0.15275391 1.63001953 0.15275391 3.29296875 0.30859375 C4.54013672 0.43427734 4.54013672 0.43427734 5.8125 0.5625 C6.1532482 2.41531834 6.48471783 4.26984395 6.8125 6.125 C6.998125 7.15753906 7.18375 8.19007813 7.375 9.25390625 C7.8125 12.5625 7.8125 12.5625 7.8125 19.5625 C2.8625 19.5625 -2.0875 19.5625 -7.1875 19.5625 C-7.8475 13.2925 -8.5075 7.0225 -9.1875 0.5625 C-5.76060364 -0.57979879 -3.57647782 -0.34611076 0 0 Z " fill="#373C48" transform="translate(589.1875,625.4375)"/>
<path d="M0 0 C4.62 0 9.24 0 14 0 C15.13926935 6.83561613 15.06532766 13.07526764 15 20 C10.38 20 5.76 20 1 20 C0.67 13.4 0.34 6.8 0 0 Z " fill="#3B404C" transform="translate(413,630)"/>
<path d="M0 0 C15.30338682 -1.21482233 15.30338682 -1.21482233 19.2421875 1.60546875 C21.82174842 5.67323789 22 8.05347247 22 13 C16.39 13 10.78 13 5 13 C4.67 14.98 4.34 16.96 4 19 C3.03450136 15.47313722 2.6806987 12.0484141 2.37890625 8.4140625 C1.91712766 5.47200921 0.99687116 2.80092546 0 0 Z " fill="#242A35" transform="translate(424,617)"/>
<path d="M0 0 C15.22206454 -1.05732091 15.22206454 -1.05732091 19.20703125 1.3125 C22.03026914 5.13367999 22.71471859 9.34040372 23 14 C22.34 13.67 21.68 13.34 21 13 C18.44842345 12.9283265 15.92527029 12.90691558 13.375 12.9375 C12.31539062 12.94426758 12.31539062 12.94426758 11.234375 12.95117188 C9.48954725 12.96296125 7.744763 12.98089676 6 13 C4.02 8.71 2.04 4.42 0 0 Z " fill="#242A36" transform="translate(591,613)"/>
<path d="M0 0 C5.3162435 2.6121789 9.86010236 5.59171669 14.375 9.4375 C22.41504215 16.21281642 31.48421135 21.53268065 42 23 C42 23.33 42 23.66 42 24 C41.02417969 24.06058594 40.04835938 24.12117187 39.04296875 24.18359375 C37.13451172 24.30927734 37.13451172 24.30927734 35.1875 24.4375 C33.92292969 24.51871094 32.65835937 24.59992187 31.35546875 24.68359375 C28.00818107 24.87184547 28.00818107 24.87184547 25 26 C22.88015159 24.70831394 21.05330581 23.41547256 19.125 21.875 C18.56143799 21.43430176 17.99787598 20.99360352 17.41723633 20.53955078 C10.77558743 15.21630915 4.87864261 9.13841897 -1 3 C-0.67 2.01 -0.34 1.02 0 0 Z " fill="#050811" transform="translate(1140,612)"/>
<path d="M0 0 C3.97387493 2.14518912 6.69895925 4.56334109 9.6875 7.9375 C10.45449219 8.79214844 11.22148438 9.64679687 12.01171875 10.52734375 C15.74519489 15.17035042 16.23039855 18.0096378 16 24 C13.04335481 25.4783226 10.25770263 25.06032783 7 25 C-1.03644647 8.29157175 -1.03644647 8.29157175 0 0 Z " fill="#404551" transform="translate(512,612)"/>
<path d="M0 0 C0.66 0.33 1.32 0.66 2 1 C1.34 2.32 0.68 3.64 0 5 C2.04442525 7.56884696 3.72685022 9.67869157 7.00634766 10.50634766 C9.28439066 10.71408577 11.52518715 10.7952445 13.8125 10.8125 C14.99489258 10.85020508 14.99489258 10.85020508 16.20117188 10.88867188 C18.13358373 10.94722981 20.06684327 10.97655488 22 11 C22.495 11.99 22.495 11.99 23 13 C15.41 13 7.82 13 0 13 C-0.33 13.66 -0.66 14.32 -1 15 C-1.8971875 13.7934375 -1.8971875 13.7934375 -2.8125 12.5625 C-4.80947276 9.77672016 -4.80947276 9.77672016 -8 9 C-6.98990197 11.1307235 -5.96978948 13.25501798 -4.9375 15.375 C-4.62675537 16.01550293 -4.31601074 16.65600586 -3.99584961 17.31591797 C-2.02045773 21.27662084 0.1594891 24.65532108 2.9375 28.125 C6.94979926 33.49861509 6.70092008 38.52483357 6 45 C4.02 45.495 4.02 45.495 2 46 C2.33 45.34 2.66 44.68 3 44 C4.26718128 35.64468118 1.62871553 30.50313385 -2.9375 23.6875 C-4.05718295 21.96638735 -5.17070889 20.24124988 -6.27734375 18.51171875 C-7.02359009 17.38963013 -7.02359009 17.38963013 -7.78491211 16.24487305 C-9.09750582 13.81985814 -9.59628909 11.71481395 -10 9 C-10.66 9 -11.32 9 -12 9 C-11 6 -11 6 -8.75 4.6484375 C-7.8425 4.22820313 -6.935 3.80796875 -6 3.375 C-2.77367937 2.02348275 -2.77367937 2.02348275 0 0 Z " fill="#0B2221" transform="translate(1281,641)"/>
<path d="M0 0 C5.96519858 0.06173556 8.64872028 1.37588565 13.0625 5.3125 C14.75 7.25 14.75 7.25 14.75 9.25 C11.45849875 9.33685287 8.1672904 9.39033895 4.875 9.4375 C3.93785156 9.46263672 3.00070312 9.48777344 2.03515625 9.51367188 C1.13925781 9.52333984 0.24335937 9.53300781 -0.6796875 9.54296875 C-1.50710449 9.5586792 -2.33452148 9.57438965 -3.18701172 9.59057617 C-3.86779785 9.47818604 -4.54858398 9.3657959 -5.25 9.25 C-7.25 6.25 -7.25 6.25 -6.9375 3.625 C-5.72862762 -0.55110458 -4.1009824 0.06579116 0 0 Z " fill="#222732" transform="translate(1401.25,622.75)"/>
<path d="M0 0 C3.27914568 0.56536994 4.93380808 1.3703012 7 4 C7.29648438 4.75796875 7.59296875 5.5159375 7.8984375 6.296875 C9.03203034 9.07859927 10.40953711 11.45525938 12 14 C15.91242342 20.25987747 17.47425263 24.64908429 17 32 C16.34 32.99 15.68 33.98 15 35 C14.34 35 13.68 35 13 35 C13.08121094 34.32195313 13.16242188 33.64390625 13.24609375 32.9453125 C13.73407796 25.75501459 12.36796279 22.17332331 7.95703125 16.55859375 C5.87533102 13.83700962 4.2143156 11.06257559 2.5625 8.0625 C2.06878906 7.16660156 1.57507812 6.27070312 1.06640625 5.34765625 C0 3 0 3 0 0 Z " fill="#464A56" transform="translate(1273,650)"/>
<path d="M0 0 C8.89025894 -0.77681874 8.89025894 -0.77681874 13.125 2.1875 C15 5 15 5 15.5 7.625 C15 10 15 10 13.875 11.875 C12 13 12 13 9.125 12.88671875 C5.16435657 11.76288618 4.29645145 10.36839329 2.125 6.9375 C1.52945312 6.01839844 0.93390625 5.09929688 0.3203125 4.15234375 C-0.11539062 3.44207031 -0.55109375 2.73179687 -1 2 C-0.67 1.34 -0.34 0.68 0 0 Z " fill="#424654" transform="translate(1292,654)"/>
<path d="M0 0 C1.8851792 2.8277688 2.38710814 4.29900431 3.125 7.5 C5.64170917 16.2828014 12.11736867 23.19820752 18 30 C17.67 30.66 17.34 31.32 17 32 C16.55011719 31.52691406 16.10023438 31.05382812 15.63671875 30.56640625 C14.99347656 29.90511719 14.35023438 29.24382812 13.6875 28.5625 C12.61048828 27.45455078 12.61048828 27.45455078 11.51171875 26.32421875 C9.02841434 23.91343554 9.02841434 23.91343554 6.01953125 21.95703125 C-1.68824917 16.64235212 -1.68824917 16.64235212 -2.69921875 11.31640625 C-2.68863019 7.8115922 -2.48845221 4.46850404 -2 1 C-1.34 0.67 -0.68 0.34 0 0 Z " fill="#363C4D" transform="translate(584,408)"/>
<path d="M0 0 C5.94 0.66 11.88 1.32 18 2 C14.3750203 3.81248985 12.62740416 4.31888915 8.75 4.625 C7.85796875 4.69976563 6.9659375 4.77453125 6.046875 4.8515625 C5.37140625 4.90054688 4.6959375 4.94953125 4 5 C4.16371094 5.95003906 4.32742188 6.90007813 4.49609375 7.87890625 C5.16558293 12.56533049 5.10920922 17.21268306 5.0625 21.9375 C5.05798828 22.81212891 5.05347656 23.68675781 5.04882812 24.58789062 C5.03714834 26.72529047 5.01921689 28.86265463 5 31 C4.34 31.33 3.68 31.66 3 32 C2.98018066 31.42145264 2.96036133 30.84290527 2.93994141 30.24682617 C2.40794236 15.02058052 2.40794236 15.02058052 0 0 Z " fill="#1B202A" transform="translate(1231,651)"/>
<path d="M0 0 C0.33 0 0.66 0 1 0 C1.66 3.3 2.32 6.6 3 10 C8.82256954 9.75739294 11.80942361 8.0457363 16.30078125 4.375 C18 3 18 3 20 2 C19.44846785 5.73724772 18.03850239 7.2235991 15.1875 9.625 C14.50042969 10.21539062 13.81335938 10.80578125 13.10546875 11.4140625 C7.92885964 15.3133265 4.36168651 15.18710843 -2 15 C-1.34 10.05 -0.68 5.1 0 0 Z " fill="#242834" transform="translate(549,494)"/>
<path d="M0 0 C0 0.66 0 1.32 0 2 C-0.66 2 -1.32 2 -2 2 C-2 2.66 -2 3.32 -2 4 C-3.65 4.33 -5.3 4.66 -7 5 C-6.525625 5.99 -6.05125 6.98 -5.5625 8 C-2.52636313 14.33628564 -2.79839951 21.97807007 -2.75 28.875 C-2.729375 29.63296875 -2.70875 30.3909375 -2.6875 31.171875 C-2.671875 33.3671875 -2.671875 33.3671875 -3 37 C-3.99 37.66 -4.98 38.32 -6 39 C-5.98952637 38.44650879 -5.97905273 37.89301758 -5.96826172 37.32275391 C-5.42093682 20.25740155 -5.42093682 20.25740155 -10 4 C-3.56521739 0 -3.56521739 0 0 0 Z " fill="#252A35" transform="translate(1320,646)"/>
<path d="M0 0 C0.33 0 0.66 0 1 0 C1.07476563 0.58265625 1.14953125 1.1653125 1.2265625 1.765625 C2.76093368 11.33288059 6.76774276 19.59413588 13 27 C10.3333581 28.33332095 8.83319697 27.67102033 6 27 C5.88785156 26.43152344 5.77570313 25.86304688 5.66015625 25.27734375 C4.92334845 22.73557482 3.78391509 20.83721267 2.4375 18.5625 C-0.73990484 12.45421311 -0.47511193 6.73603133 0 0 Z " fill="#485067" transform="translate(1141,562)"/>
<path d="M0 0 C1.32 0.33 2.64 0.66 4 1 C3.69707031 1.47566406 3.39414063 1.95132813 3.08203125 2.44140625 C-3.30210931 13.10783187 -6.74528451 24.5652527 -7 37 C-7.66 37 -8.32 37 -9 37 C-10.00738709 25.10723573 -6.8367645 13.63086782 -0.07421875 3.85546875 C0.28027344 3.24316406 0.63476562 2.63085938 1 2 C0.67 1.34 0.34 0.68 0 0 Z " fill="#272C38" transform="translate(1323,519)"/>
<path d="M0 0 C2.37882034 3.56823051 2.42196349 6.23840467 2.4375 10.375 C2.44136719 11.07947266 2.44523437 11.78394531 2.44921875 12.50976562 C2.29381239 19.70378526 0.10972904 25.51399372 -3 32 C-3.99 32 -4.98 32 -6 32 C-8.15028304 32.94978897 -8.15028304 32.94978897 -10 34 C-9.52949219 33.23816406 -9.05898438 32.47632813 -8.57421875 31.69140625 C-1.85271977 20.54457253 0.54578706 13.07867499 0 0 Z " fill="#374C52" transform="translate(509,431)"/>
<path d="M0 0 C0.9075 0.825 1.815 1.65 2.75 2.5 C10.03611123 8.6968744 17.47255732 14.26412171 26.94140625 16.33203125 C29.31475641 17.10213159 30.39280256 18.12579212 32 20 C31.67 20.99 31.34 21.98 31 23 C19.56725549 17.2703647 8.77137095 11.55980879 0 2 C0 1.34 0 0.68 0 0 Z " fill="#282D3A" transform="translate(473,375)"/>
<path d="M0 0 C1.46183607 2.1927541 2.76286313 4.31576099 4.0234375 6.6171875 C4.405 7.30683594 4.7865625 7.99648438 5.1796875 8.70703125 C5.97143935 10.14305176 6.76053969 11.58053763 7.546875 13.01953125 C9.29203223 16.164328 10.90067768 18.88583053 13.2734375 21.61328125 C15.49922726 24.69010827 15.4148365 26.56246966 15.25 30.3125 C15.21390625 31.38113281 15.1778125 32.44976563 15.140625 33.55078125 C15.07101562 34.76314453 15.07101562 34.76314453 15 36 C13.02 36.495 13.02 36.495 11 37 C11.33 36.34 11.66 35.68 12 35 C13.26979816 26.63653259 10.61675794 21.45897162 6.0625 14.625 C4.94504188 12.89070501 3.83158711 11.15382229 2.72265625 9.4140625 C2.22515869 8.6607666 1.72766113 7.9074707 1.21508789 7.13134766 C0.0271254 5.04757981 -0.64581037 3.3670865 -1 1 C-0.67 0.67 -0.34 0.34 0 0 Z " fill="#242935" transform="translate(1272,650)"/>
<path d="M0 0 C2.03213381 2.98843208 2.25527781 5.32228817 1.609375 8.859375 C-1.69525396 20.46794338 -1.69525396 20.46794338 -6.02734375 23.34765625 C-8.40718795 24.13465423 -9.67046603 23.83197642 -12 23 C-11.40445313 22.80792969 -10.80890625 22.61585938 -10.1953125 22.41796875 C-6.97579971 20.33846138 -6.30150809 17.82648984 -4.875 14.3125 C-4.37742187 13.11238281 -3.87984375 11.91226562 -3.3671875 10.67578125 C-2.04965395 7.1334982 -0.98262807 3.64508223 0 0 Z " fill="#424857" transform="translate(617,417)"/>
<path d="M0 0 C0.99 0 1.98 0 3 0 C4.21357445 6.95047184 3.71975816 11.50023898 1 18 C-0.65 17.67 -2.3 17.34 -4 17 C-4 16.34 -4 15.68 -4 15 C-3.34 15 -2.68 15 -2 15 C-1.34 10.05 -0.68 5.1 0 0 Z " fill="#242935" transform="translate(520,639)"/>
<path d="M0 0 C4.07655174 -0.47401764 5.58343751 -0.31020611 8.9375 2.1875 C11 5 11 5 10.8125 7.8125 C10.544375 8.534375 10.27625 9.25625 10 10 C7.8125 9.9375 7.8125 9.9375 5 9 C2.61372642 6.43314355 0 3.61081552 0 0 Z " fill="#3F4450" transform="translate(1282,655)"/>
<path d="M0 0 C0.67804688 0.38542969 1.35609375 0.77085937 2.0546875 1.16796875 C-2.16489571 3.36377104 -6.56494575 5.07399025 -10.97265625 6.8515625 C-13.79197959 8.10006706 -16.34133831 9.52310108 -18.9453125 11.16796875 C-19.2753125 10.17796875 -19.6053125 9.18796875 -19.9453125 8.16796875 C-17.27455481 4.94161548 -13.8235178 3.49018083 -10.0703125 1.85546875 C-9.45800781 1.56607422 -8.84570312 1.27667969 -8.21484375 0.97851562 C-5.03904029 -0.41217347 -3.38570197 -0.95643835 0 0 Z " fill="#434A5B" transform="translate(1091.9453125,537.83203125)"/>
<path d="M0 0 C2.46234985 2.98999625 3.8405175 5.79139023 5.125 9.4375 C5.45757812 10.36433594 5.79015625 11.29117188 6.1328125 12.24609375 C7.53234644 16.69055963 8.12461154 20.65413445 8.0625 25.3125 C8.05347656 26.19550781 8.04445313 27.07851563 8.03515625 27.98828125 C8.02355469 28.65214844 8.01195312 29.31601562 8 30 C6.68 29.34 5.36 28.68 4 28 C4.66 28 5.32 28 6 28 C4.94508487 20.29634348 3.25628506 13.09647874 0.8046875 5.71484375 C0 3 0 3 0 0 Z " fill="#222632" transform="translate(485,631)"/>
<path d="M0 0 C0 0.33 0 0.66 0 1 C-0.90492187 1.07347656 -0.90492187 1.07347656 -1.828125 1.1484375 C-2.62734375 1.22320313 -3.4265625 1.29796875 -4.25 1.375 C-5.03890625 1.44460938 -5.8278125 1.51421875 -6.640625 1.5859375 C-9.09733198 2.01708144 -10.79254956 2.87818092 -13 4 C-16.25 4.125 -16.25 4.125 -19 4 C-18.34 3.67 -17.68 3.34 -17 3 C-16.67 2.01 -16.34 1.02 -16 0 C-10.38104634 -4.32227205 -6.04730814 -2.33048436 0 0 Z " fill="#101B20" transform="translate(1337,645)"/>
<path d="M0 0 C2.68475092 2.34723938 3.84717014 4.56471634 5.125 7.875 C5.45757812 8.71804688 5.79015625 9.56109375 6.1328125 10.4296875 C7.87595817 15.59630844 8.12996348 20.38947396 8.0625 25.8125 C8.05798828 26.50537109 8.05347656 27.19824219 8.04882812 27.91210938 C8.03713156 29.60811068 8.01919924 31.30406703 8 33 C7.01 33 6.02 33 5 33 C5.495 32.505 5.495 32.505 6 32 C7.00828158 23.33869591 4.73429928 16.11940779 2 8 C1.27390311 5.34296413 0.63095733 2.68156867 0 0 Z " fill="#1E232E" transform="translate(497,625)"/>
<path d="M0 0 C0 0.66 0 1.32 0 2 C-3.93257916 3.36876382 -7.87174367 4.71747832 -11.8125 6.0625 C-12.93205078 6.45244141 -14.05160156 6.84238281 -15.20507812 7.24414062 C-16.81479492 7.79038086 -16.81479492 7.79038086 -18.45703125 8.34765625 C-19.44678955 8.68804932 -20.43654785 9.02844238 -21.45629883 9.37915039 C-24 10 -24 10 -27 9 C-6.19672131 0 -6.19672131 0 0 0 Z " fill="#272C39" transform="translate(438,424)"/>
<path d="M0 0 C-1.32 0.33 -2.64 0.66 -4 1 C-3.01 2.98 -2.02 4.96 -1 7 C-1.66 7.66 -2.32 8.32 -3 9 C-3.75023437 7.54207031 -3.75023437 7.54207031 -4.515625 6.0546875 C-6.7542784 2.65443249 -6.7542784 2.65443249 -10.671875 2.1953125 C-12.03042797 2.14255316 -13.39043268 2.11985986 -14.75 2.125 C-15.44738281 2.104375 -16.14476562 2.08375 -16.86328125 2.0625 C-18.57500527 2.01560345 -20.28763898 2.0042596 -22 2 C-22 1.67 -22 1.34 -22 1 C-14.66236293 -0.17402193 -7.41834582 -0.09377123 0 0 Z " fill="#252C37" transform="translate(1204,635)"/>
<path d="M0 0 C0.67578125 1.75390625 0.67578125 1.75390625 1 4 C-0.14453125 5.96484375 -0.14453125 5.96484375 -1.8125 7.9375 C-6.7015691 14.10542282 -7.42972359 19.27125392 -8 27 C-8.33 27 -8.66 27 -9 27 C-10.1341685 16.33041481 -6.55844385 8.33099624 0 0 Z " fill="#4F648D" transform="translate(1149,545)"/>
<path d="M0 0 C0 3 0 3 -1.9375 5.8125 C-4.03963056 9.06124723 -4.63785124 11.19743801 -5 15 C-7.50298434 12.06171403 -8.46930939 9.82097239 -9 6 C-8.2575 5.7525 -7.515 5.505 -6.75 5.25 C-3.79875938 3.90852699 -2.15185026 2.39094474 0 0 Z " fill="#1E242F" transform="translate(462,618)"/>
<path d="M0 0 C7.59 0 15.18 0 23 0 C23 0.66 23 1.32 23 2 C18.09132908 3.02811533 13.64690548 3.01692366 8.6875 2.6875 C7.95982422 2.65205078 7.23214844 2.61660156 6.48242188 2.58007812 C4.64831909 2.46555353 2.82171934 2.24163521 1 2 C0.67 1.34 0.34 0.68 0 0 Z " fill="#324448" transform="translate(456,477)"/>
<path d="M0 0 C3.63 0 7.26 0 11 0 C11 0.33 11 0.66 11 1 C6.545 1.495 6.545 1.495 2 2 C2.99 3.98 3.98 5.96 5 8 C4.01 9.485 4.01 9.485 3 11 C2.71125 10.236875 2.4225 9.47375 2.125 8.6875 C1.03730987 5.84970692 1.03730987 5.84970692 -1 3 C-0.67 2.01 -0.34 1.02 0 0 Z " fill="#2A2D3A" transform="translate(1290,653)"/>
<path d="M0 0 C6.26418531 1.48362284 10.91513505 5.24162156 16 9 C15.34 9.66 14.68 10.32 14 11 C13.49210937 10.61328125 12.98421875 10.2265625 12.4609375 9.828125 C9.19408332 7.3565724 5.93836498 4.91667921 2.5 2.6875 C1.675 2.130625 0.85 1.57375 0 1 C0 0.67 0 0.34 0 0 Z " fill="#292D3A" transform="translate(1109,588)"/>
<path d="M0 0 C2.49111925 3.73667887 2.29613477 6.67870976 2.25 11 C2.25773437 11.72445313 2.26546875 12.44890625 2.2734375 13.1953125 C2.25942063 16.99388493 2.15441944 18.76837084 0 22 C-1.125 16.375 -1.125 16.375 0 13 C0.06937062 10.77181559 0.08457084 8.54165476 0.0625 6.3125 C0.05347656 5.13300781 0.04445313 3.95351563 0.03515625 2.73828125 C0.02355469 1.83464844 0.01195312 0.93101562 0 0 Z " fill="#40756C" transform="translate(509,431)"/>
<path d="M0 0 C0.66 0.33 1.32 0.66 2 1 C1.75 3.875 1.75 3.875 1 7 C-0.8125 8.4375 -0.8125 8.4375 -3 9 C-5.25 8.625 -5.25 8.625 -7 8 C-6.401875 7.79375 -5.80375 7.5875 -5.1875 7.375 C-2.18981233 5.49073918 -1.38638224 3.18867916 0 0 Z " fill="#454D61" transform="translate(612,432)"/>
<path d="M0 0 C0 0.99 0 1.98 0 3 C-4.75 4.125 -4.75 4.125 -7 3 C-6.67 2.01 -6.34 1.02 -6 0 C-3.50907189 -1.24546405 -2.58919267 -0.7767578 0 0 Z " fill="#0D1A1A" transform="translate(1276,647)"/>
<path d="M0 0 C0.99 0 1.98 0 3 0 C2.25 7.75 2.25 7.75 0 10 C0 6.7 0 3.4 0 0 Z " fill="#424854" transform="translate(520,639)"/>
<path d="M0 0 C0 2.62113708 -0.31292445 4.50935112 -1 7 C-2.32 6.34 -3.64 5.68 -5 5 C-4.1875 3.0625 -4.1875 3.0625 -3 1 C-2.01 0.67 -1.02 0.34 0 0 Z " fill="#252935" transform="translate(519,606)"/>
<path d="M0 0 C0.33 0 0.66 0 1 0 C1 1.98 1 3.96 1 6 C1.99 6.33 2.98 6.66 4 7 C3.01 8.98 2.02 10.96 1 13 C0.67 13 0.34 13 0 13 C0 8.71 0 4.42 0 0 Z " fill="#5E8DC8" transform="translate(599,485)"/>
<path d="M0 0 C0.66 0.33 1.32 0.66 2 1 C-0.64 3.64 -3.28 6.28 -6 9 C-6.99 8.67 -7.98 8.34 -9 8 C-6.03 5.36 -3.06 2.72 0 0 Z " fill="#4BCC97" transform="translate(1289,636)"/>
<path d="M0 0 C2.37948772 0.17625835 3.70225849 0.69719773 5.37890625 2.40234375 C6.62115486 3.90649092 7.81376056 5.45129851 9 7 C8.67 7.66 8.34 8.32 8 9 C6.66368764 7.6905332 5.33102075 6.37734515 4 5.0625 C3.2575 4.33160156 2.515 3.60070312 1.75 2.84765625 C0 1 0 1 0 0 Z " fill="#2F3547" transform="translate(593,431)"/>
<path d="M0 0 C0.66 0 1.32 0 2 0 C2.33 1.98 2.66 3.96 3 6 C1.02 6.99 1.02 6.99 -1 8 C-0.67 5.36 -0.34 2.72 0 0 Z " fill="#5F8BCC" transform="translate(370,408)"/>
<path d="M0 0 C0.99 0.66 1.98 1.32 3 2 C1.63016497 5.16115776 1.0109362 5.9927092 -2 8 C-2 4.79604584 -1.25664978 2.90600261 0 0 Z " fill="#355557" transform="translate(1285,634)"/>
<path d="M0 0 C3.1977903 2.97788495 4.91262062 6.18513423 7 10 C5.109375 9.78515625 5.109375 9.78515625 3 9 C1.953125 6.93359375 1.953125 6.93359375 1.25 4.4375 C1.00765625 3.61121094 0.7653125 2.78492188 0.515625 1.93359375 C0.34546875 1.29550781 0.1753125 0.65742188 0 0 Z " fill="#2C3650" transform="translate(378,495)"/>
<path d="M0 0 C0 0.66 0 1.32 0 2 C-0.66 2 -1.32 2 -2 2 C-2 2.66 -2 3.32 -2 4 C-3.32 4.33 -4.64 4.66 -6 5 C-6 4.34 -6 3.68 -6 3 C-6.66 2.67 -7.32 2.34 -8 2 C-2.25 0 -2.25 0 0 0 Z " fill="#1C3532" transform="translate(1320,646)"/>
</svg>
