<?xml version="1.0" encoding="UTF-8"?>
<svg version="1.1" xmlns="http://www.w3.org/2000/svg" width="1536" height="1024">
<path d="M0 0 C506.88 0 1013.76 0 1536 0 C1536 337.92 1536 675.84 1536 1024 C1029.12 1024 522.24 1024 0 1024 C0 686.08 0 348.16 0 0 Z " fill="#040A17" transform="translate(0,0)"/>
<path d="M0 0 C0.92989746 0.00902344 1.85979492 0.01804687 2.81787109 0.02734375 C14.85670887 0.33100335 23.7318882 4.29480304 32.6875 12.4375 C43.76104352 25.34138129 45.64880264 37.01800888 44.6875 53.4375 C43.13837326 65.63154354 37.51281043 77.79340193 28.2890625 85.984375 C26.5726832 87.3655499 26.5726832 87.3655499 25.6875 89.4375 C25.61200407 91.52831794 25.54097638 93.61944161 25.49804688 95.71118164 C25.2486089 106.17047817 23.39957293 114.01335414 18.6875 123.4375 C18.5543834 125.64427746 18.45639489 127.85321014 18.375 130.0625 C17.78526823 140.78702601 15.56688702 150.95400278 10.8125 160.625 C5.16193348 172.28376384 1.86515895 184.61711788 0.81616211 197.5090332 C-0.38189686 212.22590197 -5.21742051 223.57720854 -11.90869141 236.640625 C-13.69365064 240.19688465 -15.23478497 243.82333929 -16.75 247.5 C-20.35027196 255.86481096 -24.61302159 263.87820036 -28.87084961 271.92407227 C-29.41491455 272.95330811 -29.95897949 273.98254395 -30.51953125 275.04296875 C-31.0091333 275.96231201 -31.49873535 276.88165527 -32.00317383 277.82885742 C-33.25538374 280.32370413 -34.31764646 282.83075422 -35.3125 285.4375 C-34.405 285.705625 -33.4975 285.97375 -32.5625 286.25 C-29.55952272 287.3472417 -27.63861225 288.28369236 -25.3125 290.4375 C-24.2058402 293.75747939 -24.11009728 296.38056627 -24.0625 299.875 C-24.03671875 301.00808594 -24.0109375 302.14117188 -23.984375 303.30859375 C-24.33781795 306.67892471 -25.03426817 307.9973938 -27.3125 310.4375 C-28.6325 310.1075 -29.9525 309.7775 -31.3125 309.4375 C-32.7975 311.4175 -32.7975 311.4175 -34.3125 313.4375 C-35.735625 313.128125 -35.735625 313.128125 -37.1875 312.8125 C-38.21875 312.68875 -39.25 312.565 -40.3125 312.4375 C-40.9725 313.0975 -41.6325 313.7575 -42.3125 314.4375 C-44.75 314.5625 -44.75 314.5625 -47.3125 314.4375 C-49.1667837 314.4375 -51.02126759 314.45478701 -52.875 314.5 C-55.3125 314.4375 -55.3125 314.4375 -57.3125 313.4375 C-57.70695312 313.90800781 -58.10140625 314.37851562 -58.5078125 314.86328125 C-63.79857643 319.47838485 -74.46423307 319.03256102 -81.1484375 318.96875 C-86.59100017 318.05493701 -90.19364818 314.92139698 -94.3125 311.4375 C-96.84431269 310.17159365 -98.94313059 310.42389463 -101.72143555 310.50341797 C-115.50316446 310.88151324 -115.50316446 310.88151324 -121.3125 307.4375 C-123.27420795 305.42908472 -124.71435564 303.68409271 -126.3125 301.4375 C-127.36064054 300.19606601 -128.42446395 298.96777631 -129.5 297.75 C-130.09683594 297.06808594 -130.69367188 296.38617187 -131.30859375 295.68359375 C-132.72237535 294.09894575 -134.15384763 292.52999512 -135.59765625 290.97265625 C-156.72598024 268.17013859 -171.02654281 242.75546016 -183.82617188 214.61425781 C-185.58307987 210.85918441 -187.47654991 207.18828616 -189.43847656 203.53662109 C-190.3125 201.4375 -190.3125 201.4375 -190.3125 197.4375 C-206.95823181 198.88820466 -220.3586803 200.56412666 -234.37646484 210.20654297 C-248.42254425 219.13722801 -266.02082179 222.15018496 -282.19482422 224.48730469 C-286.38053063 225.01582378 -286.38053063 225.01582378 -290.3125 226.4375 C-296.16476514 227.36154186 -301.96124996 227.56774733 -307.875 227.625 C-308.58277588 227.63797119 -309.29055176 227.65094238 -310.01977539 227.66430664 C-313.79511251 227.6708618 -317.1189746 227.33227232 -320.77734375 226.36328125 C-321.94394531 226.05777344 -323.11054688 225.75226563 -324.3125 225.4375 C-324.6425 225.7675 -324.9725 226.0975 -325.3125 226.4375 C-326.20710937 226.35371094 -327.10171875 226.26992188 -328.0234375 226.18359375 C-337.82080376 225.35844243 -343.71664489 227.67702212 -352.17993164 232.51367188 C-364.45756634 239.49480502 -378.13998733 242.75766122 -392.06640625 244.8515625 C-400.61893165 246.15164833 -408.3310609 249.21783901 -416.3125 252.4375 C-417.66988281 252.96730469 -417.66988281 252.96730469 -419.0546875 253.5078125 C-428.0798906 257.19989434 -428.0798906 257.19989434 -434.18652344 264.32348633 C-436.20073752 269.81467461 -436.85561554 274.92700738 -436.8125 280.75 C-436.81185547 281.5759668 -436.81121094 282.40193359 -436.81054688 283.25292969 C-436.65882571 289.51999282 -435.21829933 294.3319701 -432.4375 299.98046875 C-430.84075014 303.46781479 -430.67213481 305.67535454 -431.3125 309.4375 C-433.28349465 312.44586025 -435.99041776 313.28319949 -439.3125 314.4375 C-443.11787878 314.84202151 -446.92517235 314.76199006 -450.75 314.75 C-451.77416016 314.76611328 -452.79832031 314.78222656 -453.85351562 314.79882812 C-460.39539367 314.80306235 -465.13027664 314.36813733 -470.140625 309.75390625 C-470.84445312 308.88572266 -470.84445312 308.88572266 -471.5625 308 C-472.04203125 307.42378906 -472.5215625 306.84757812 -473.015625 306.25390625 C-475.81156315 302.33790854 -476.58783996 299.5962675 -476.5625 294.75 C-476.56765625 293.77675781 -476.5728125 292.80351563 -476.578125 291.80078125 C-476.36448443 289.09571467 -475.96935727 286.90109587 -475.31298828 284.30004883 C-474.24072514 279.5752622 -474.03292599 275.10299478 -474.0390625 270.2734375 C-474.01878932 268.55728496 -473.99793886 266.84113916 -473.9765625 265.125 C-473.95393794 262.46120425 -473.93746758 259.7976767 -473.93164062 257.13378906 C-473.92208621 254.53403247 -473.88830237 251.93543266 -473.8515625 249.3359375 C-473.85660797 248.5472226 -473.86165344 247.75850769 -473.86685181 246.94589233 C-473.75690391 240.71843361 -472.14986249 236.19903097 -467.55859375 231.73046875 C-462.68109583 228.74919032 -458.19345483 227.57518292 -452.53515625 226.796875 C-450.34516398 226.66522297 -450.34516398 226.66522297 -449.3125 225.4375 C-447.29174434 225.41015143 -445.27087779 225.3909483 -443.25 225.375 C-434.05710806 224.78523198 -427.1661756 220.99879576 -419.3125 216.4375 C-418.33410156 215.88835937 -417.35570312 215.33921875 -416.34765625 214.7734375 C-410.9676372 211.56596652 -406.3142333 207.80280767 -401.625 203.6875 C-385.40524207 189.53361297 -370.60206838 180.7916199 -348.75 179.6875 C-341.71438948 179.3595622 -341.71438948 179.3595622 -335.41015625 176.55859375 C-333.26193611 174.15163684 -333.26193611 174.15163684 -331.4453125 171.4375 C-328.75927117 167.65933197 -325.60260283 164.73638991 -322.1875 161.625 C-321.61257813 161.08641357 -321.03765625 160.54782715 -320.4453125 159.99291992 C-311.12663042 151.37554347 -311.12663042 151.37554347 -305.3125 149.4375 C-304.9825 148.365 -304.6525 147.2925 -304.3125 146.1875 C-298.73220484 129.9140738 -279.7353718 117.30929972 -265.375 109.75 C-250.61307736 102.63807531 -236.35163563 101.05511625 -220.18945312 101.20751953 C-209.54403271 101.28383961 -202.25871934 100.00284849 -194.30761719 92.56103516 C-192.36318647 90.55344774 -190.52196613 88.4832599 -188.6875 86.375 C-165.68648244 61.07634244 -132.87492251 42.39870167 -98.3125 39.4375 C-94.83200948 39.28221339 -91.35860827 39.25251161 -87.875 39.25 C-86.98490234 39.23775391 -86.09480469 39.22550781 -85.17773438 39.21289062 C-80.92734152 39.2035764 -77.06378192 39.38725005 -72.9375 40.44140625 C-67.2394161 41.86040154 -61.5883772 41.65399958 -55.75 41.5625 C-54.64591797 41.55347656 -53.54183594 41.54445313 -52.40429688 41.53515625 C-49.7067983 41.51180128 -47.00976923 41.47905054 -44.3125 41.4375 C-44.197854 40.78523438 -44.08320801 40.13296875 -43.96508789 39.4609375 C-41.37033752 25.50563157 -34.4826277 14.23306806 -22.75 6 C-15.40328636 1.20243846 -8.59990865 -0.09951079 0 0 Z " fill="#333A4D" transform="translate(566.3125,272.5625)"/>
<path d="M0 0 C1.33417969 0.58587891 1.33417969 0.58587891 2.6953125 1.18359375 C13.75248316 6.61977932 22.57805861 15.49596745 27.18359375 26.94140625 C31.24379712 39.06581977 32.47669473 55.37701138 27.6171875 67.4296875 C22.16167355 78.21839446 15.91413703 86.39099679 7.13671875 94.73828125 C5.17901464 96.81051284 3.97640602 98.34262225 3 101 C3.31606103 103.65491264 3.80602623 105.61205246 5 108 C5.80160172 116.97793923 2.62824165 125.06883551 -2.9609375 132.10546875 C-7.67328093 136.4837955 -14.38663975 140.76656623 -20.90234375 141.1875 C-21.59457031 141.125625 -22.28679687 141.06375 -23 141 C-22.9071875 142.0209375 -22.9071875 142.0209375 -22.8125 143.0625 C-23.05524311 146.86547533 -24.21765773 151.21765773 -27 154 C-29.33297433 154.04092937 -31.66705225 154.04241723 -34 154 C-34.33 154.99 -34.66 155.98 -35 157 C-36.5778125 157.2165625 -36.5778125 157.2165625 -38.1875 157.4375 C-41.82934366 157.92163439 -41.82934366 157.92163439 -44.6875 158.625 C-47.21188282 159.03435938 -48.56153169 158.66503681 -51 158 C-51.99 158.061875 -52.98 158.12375 -54 158.1875 C-57 158 -57 158 -59.3125 156.125 C-61 154 -61 154 -62 152 C-63.92806341 151.68344336 -63.92806341 151.68344336 -66.1875 151.625 C-71.54254687 151.11580378 -74.90206874 149.4364863 -78.4765625 145.28515625 C-82 140.62988827 -82 140.62988827 -82 137 C-82.54269531 137.28875 -83.08539062 137.5775 -83.64453125 137.875 C-84.35996094 138.24625 -85.07539062 138.6175 -85.8125 139 C-86.52019531 139.37125 -87.22789062 139.7425 -87.95703125 140.125 C-90 141 -90 141 -93 141 C-90.88415564 144.98755283 -88.84895456 148.27261459 -85.75 151.5625 C-83.40014311 154.17214007 -83.02582715 154.76325116 -82.625 158.4375 C-82.74875 159.283125 -82.8725 160.12875 -83 161 C-83.99 161.33 -84.98 161.66 -86 162 C-86.33 162.99 -86.66 163.98 -87 165 C-89.60365928 165.22171552 -92.20696493 165.42784859 -94.8125 165.625 C-95.91948242 165.72167969 -95.91948242 165.72167969 -97.04882812 165.8203125 C-102.66015625 166.2265625 -102.66015625 166.2265625 -106 164 C-106.70125 164.556875 -107.4025 165.11375 -108.125 165.6875 C-111 167 -111 167 -113.6875 166 C-115.3271875 165.01 -115.3271875 165.01 -117 164 C-125.88826885 158.97351135 -125.88826885 158.97351135 -135.88769531 159.51513672 C-138.29082901 160.06675756 -140.45674887 160.12954062 -142.921875 160.1328125 C-144.33726562 160.13474609 -144.33726562 160.13474609 -145.78125 160.13671875 C-146.7609375 160.13285156 -147.740625 160.12898437 -148.75 160.125 C-149.71421875 160.12886719 -150.6784375 160.13273438 -151.671875 160.13671875 C-155.9663543 160.13088386 -160.13740095 160.05069815 -164.390625 159.4296875 C-167.75918839 159.02866805 -169.7704801 159.1873773 -173 160 C-188.30656433 162.26836971 -201.37791006 155.65921064 -213.58203125 146.79296875 C-221.15618204 140.96596378 -228.06678929 134.50599966 -234 127 C-234.63881104 126.19272461 -234.63881104 126.19272461 -235.29052734 125.36914062 C-240.81065617 118.3168385 -245.76664907 111.04157207 -250.1875 103.25 C-250.57421875 102.57050293 -250.9609375 101.89100586 -251.359375 101.19091797 C-254 96.38834215 -254 96.38834215 -254 93 C-254.99 92.67 -255.98 92.34 -257 92 C-259.71266404 88.43070521 -259.28634661 84.27065511 -259 80 C-258.71325582 77.99279077 -258.39764263 75.98821313 -258 74 C-258.45375 75.03125 -258.9075 76.0625 -259.375 77.125 C-259.63023437 77.70507812 -259.88546875 78.28515625 -260.1484375 78.8828125 C-264.71157168 90.22785251 -264.27558882 100.62518225 -259.56982422 111.70898438 C-257.86285807 115.48007264 -255.85875908 118.959218 -253.625 122.4375 C-250.77547982 126.93674239 -250.0734565 129.71870203 -251 135 C-253.93716454 138.13972761 -257.01724191 138.92829158 -261.265625 139.23828125 C-271.15191074 139.42243755 -279.53822496 138.15066346 -289 135 C-289.64437012 134.78569336 -290.28874023 134.57138672 -290.95263672 134.35058594 C-308.04528973 128.56175053 -323.6237194 121.25738627 -335.98046875 107.796875 C-341.76682915 102.64846922 -347.50152884 102.54140729 -354.875 102.1875 C-365.21369606 101.49841727 -373.64511896 99.36042018 -383 95 C-383.90878906 94.5771875 -384.81757812 94.154375 -385.75390625 93.71875 C-387.52469142 92.85645461 -389.26816679 91.93807632 -391 91 C-391 90.34 -391 89.68 -391 89 C-391.71800781 88.89300781 -392.43601562 88.78601563 -393.17578125 88.67578125 C-396.25970397 87.93785783 -398.45372473 86.78253875 -401.1875 85.1875 C-406.32013005 82.30298958 -411.47962258 80.02709046 -417 78 C-418.423125 77.443125 -418.423125 77.443125 -419.875 76.875 C-427.10193004 74.85145959 -434.49252407 73.65875109 -442 74 C-442.144375 74.5775 -442.28875 75.155 -442.4375 75.75 C-442.78417366 77.13669463 -443.14078936 78.52100092 -443.51367188 79.90087891 C-446.16521791 91.34565439 -444.30606239 101.46021724 -438.62890625 111.47265625 C-437.22666407 113.84376438 -437.22666407 113.84376438 -436 115 C-435.40772436 122.22576286 -435.40772436 122.22576286 -437.60522461 125.09838867 C-440.77865664 127.61830529 -442.71941814 127.51609629 -446.7421875 127.53125 C-448.05574219 127.53640625 -449.36929688 127.5415625 -450.72265625 127.546875 C-451.40473145 127.53849609 -452.08680664 127.53011719 -452.78955078 127.52148438 C-454.86220342 127.50013183 -456.93136333 127.52125764 -459.00390625 127.546875 C-460.32003906 127.54171875 -461.63617187 127.5365625 -462.9921875 127.53125 C-464.19214355 127.52673828 -465.39209961 127.52222656 -466.62841797 127.51757812 C-474.00721651 126.38484439 -478.74665138 120.73472597 -483 115 C-486.30884082 108.526181 -485.6563314 100.68975323 -484.01171875 93.7890625 C-482.18723218 85.08091646 -482.61137896 76.02370078 -482.54370117 67.1640625 C-482.33201606 43.86474345 -482.33201606 43.86474345 -476.8515625 35.86328125 C-473.086152 33.40286918 -469.78704508 32.7622844 -465.375 32.1875 C-464.57682861 32.07132324 -463.77865723 31.95514648 -462.95629883 31.83544922 C-446.18691387 29.53167332 -446.18691387 29.53167332 -440 34 C-437.68308546 34.72166191 -435.35151077 35.40059529 -433 36 C-432.9071875 34.453125 -432.9071875 34.453125 -432.8125 32.875 C-431.74317499 27.77514228 -429.7082024 24.78934802 -425.25 21.84375 C-419.95548749 19.85830781 -413.60594061 20.84069043 -408 21 C-407.2579834 21.01401855 -406.5159668 21.02803711 -405.75146484 21.04248047 C-403.49969121 21.08944285 -401.25064836 21.16543018 -399 21.25 C-397.96033081 21.27090698 -397.96033081 21.27090698 -396.8996582 21.29223633 C-391.4928052 21.55498344 -388.43532993 23.13551609 -384 26 C-375.78029061 30.62358653 -367.61672824 30.14274441 -358.41015625 30.17578125 C-355.90819485 30.19899461 -353.40624171 30.22311254 -350.90429688 30.24804688 C-346.99465514 30.28298711 -343.0853152 30.31242118 -339.17553711 30.32592773 C-311.27382172 30.44095352 -287.00031895 35.82194199 -263.79296875 52.2734375 C-259.04819557 55.20657001 -254.39366333 54.81573005 -249 54 C-246.68200989 53.0024875 -244.69978065 51.78064041 -242.5703125 50.4296875 C-233.26474249 45.25364096 -221.81585637 43.36179769 -211.47119141 41.34350586 C-207.17216932 40.50119799 -203.15105297 39.42642361 -199 38 C-195.86509679 37.12459985 -192.71404964 36.31314416 -189.5625 35.5 C-182.93270183 33.78155642 -182.93270183 33.78155642 -176.3359375 31.94140625 C-172.92935578 30.9800641 -169.52287532 30.18095521 -166.0625 29.4375 C-164.91910156 29.18871094 -163.77570313 28.93992187 -162.59765625 28.68359375 C-143.17846169 24.99373593 -122.82281149 25.7936596 -104 32 C-103.67 32.33 -103.34 32.66 -103 33 C-100.51799732 33.16445171 -98.04736174 33.28087023 -95.5625 33.375 C-88.98051898 33.68650604 -82.55913106 34.39820515 -76.0625 35.5 C-75.287854 35.63067871 -74.51320801 35.76135742 -73.71508789 35.89599609 C-68.29074734 36.85462633 -68.29074734 36.85462633 -66 38 C-65.87625 37.12859375 -65.7525 36.2571875 -65.625 35.359375 C-63.12551615 20.92485578 -55.9648225 11.42790668 -44.296875 2.73046875 C-32.31415468 -5.03503204 -12.86776251 -5.69734266 0 0 Z " fill="#32394B" transform="translate(1283,430)"/>
<path d="M0 0 C5.80636315 0.84616443 11.64240672 1.42230865 17.47753906 2.03076172 C18.6582196 2.15504547 19.83890015 2.27932922 21.05535889 2.40737915 C25.97486419 2.92452158 30.89471722 3.4382288 35.81494141 3.94848633 C44.04801622 4.80424807 52.27656264 5.69298044 60.50097656 6.62841797 C61.56860229 6.74791809 62.63622803 6.86741821 63.73620605 6.99053955 C66.68945306 7.32949848 69.63811069 7.69438254 72.58691406 8.06982422 C73.45418121 8.16754623 74.32144836 8.26526825 75.21499634 8.36595154 C80.97150907 9.14232838 80.97150907 9.14232838 83.51245117 11.47509766 C84.50324253 13.63335397 84.99416517 15.28446438 85.23144531 17.64013672 C85.31201172 18.39875 85.39257812 19.15736328 85.47558594 19.93896484 C85.54583984 20.72335937 85.61609375 21.50775391 85.68847656 22.31591797 C85.77033203 23.08097656 85.8521875 23.84603516 85.93652344 24.63427734 C86.47294629 29.98498264 86.57065579 35.2523976 86.50097656 40.62841797 C82.79655617 42.90806129 80.06793456 43.81618691 75.77832031 43.72216797 C74.97515381 43.70863281 74.1719873 43.69509766 73.34448242 43.68115234 C72.73612549 43.66375 72.12776855 43.64634766 71.50097656 43.62841797 C71.65065887 44.16459747 71.80034119 44.70077698 71.95455933 45.25320435 C76.13265812 60.27030853 79.95704328 75.35472725 83.62597656 90.50341797 C84.39761018 93.67736218 85.17010332 96.85109558 85.9430542 100.02471924 C86.43979071 102.06636626 86.93530195 104.10831183 87.42950439 106.15057373 C88.50892312 110.60360329 89.60119356 115.05119574 90.7578125 119.48486328 C90.94705292 120.21577179 91.13629333 120.9466803 91.33126831 121.69973755 C91.82572089 123.59826344 92.32872121 125.49455771 92.83251953 127.390625 C93.49658222 130.6071332 93.78248476 133.3568523 93.50097656 136.62841797 C87.93122566 141.52304755 79.56110345 140.99529786 72.51660156 140.89794922 C68.11458522 140.50450475 63.77529932 139.74122705 60.50097656 136.62841797 C58.77901046 130.58509832 57.6507765 124.43689631 56.51269531 118.26123047 C56.32906937 117.27628098 56.14544342 116.29133148 55.95625305 115.27653503 C55.56589327 113.18142948 55.17661114 111.0861229 54.78833008 108.9906311 C53.78452748 103.57343694 52.7730149 98.15768099 51.76269531 92.74169922 C51.56570038 91.68438095 51.36870544 90.62706268 51.16574097 89.53770447 C49.63623323 81.33379502 48.08248732 73.13496406 46.50097656 64.94091797 C46.30592529 63.92980957 46.11087402 62.91870117 45.90991211 61.87695312 C45.11962801 57.7914698 44.31956312 53.70833597 43.50097656 49.62841797 C38.59151135 50.15243343 33.69501619 50.72334673 28.80175781 51.38232422 C27.82013672 51.51445313 26.83851563 51.64658203 25.82714844 51.78271484 C23.80600538 52.05647952 21.78517319 52.33254848 19.76464844 52.61083984 C14.97639291 53.25158861 10.34562075 53.81824219 5.50097656 53.62841797 C5.83097656 54.61841797 6.16097656 55.60841797 6.50097656 56.62841797 C6.76113763 58.45518503 6.98234125 60.2876124 7.18115234 62.12207031 C7.30442902 63.24688812 7.42770569 64.37170593 7.55471802 65.53060913 C7.74854568 67.35406357 7.74854568 67.35406357 7.94628906 69.21435547 C8.14748856 71.08796249 8.14748856 71.08796249 8.35275269 72.99942017 C8.63526829 75.64380668 8.9161861 78.28831266 9.19482422 80.93310547 C9.55167135 84.31543542 9.91855997 87.69659299 10.28801155 91.07756615 C10.63919022 94.30994617 10.97954454 97.54346655 11.32128906 100.77685547 C11.45455597 101.9884433 11.58782288 103.20003113 11.72512817 104.44833374 C11.84210052 105.57945587 11.95907288 106.710578 12.07958984 107.87597656 C12.18538361 108.86842377 12.29117737 109.86087097 12.400177 110.88339233 C12.50405532 113.71226034 12.35209818 115.92725029 11.50097656 118.62841797 C8.36018202 120.72228099 7.5931752 120.8838123 4.00878906 120.89404297 C2.70361328 120.89791016 2.70361328 120.89791016 1.37207031 120.90185547 C0.46585938 120.89412109 -0.44035156 120.88638672 -1.37402344 120.87841797 C-2.72173828 120.89001953 -2.72173828 120.89001953 -4.09667969 120.90185547 C-14.25559751 120.87184389 -14.25559751 120.87184389 -17.49902344 117.62841797 C-17.68133068 115.82037441 -17.79777879 114.00564724 -17.88793945 112.19067383 C-17.97791954 110.4489817 -17.97791954 110.4489817 -18.06971741 108.67210388 C-18.13017746 107.40858597 -18.19063751 106.14506805 -18.25292969 104.84326172 C-18.31810287 103.55730606 -18.38327606 102.2713504 -18.45042419 100.94642639 C-18.62391297 97.52220136 -18.79172036 94.09772032 -18.95837402 90.67315674 C-19.12932212 87.18085915 -19.30560331 83.68883133 -19.48144531 80.19677734 C-19.82587883 73.34091305 -20.1643153 66.48476375 -20.49902344 59.62841797 C-29.16857205 60.64946981 -37.75883935 61.72664703 -46.31152344 63.50341797 C-54.38560032 65.11206073 -62.47424004 66.4044217 -70.62402344 67.56591797 C-82.99865139 69.34455287 -95.26158041 71.54307498 -107.54150391 73.87939453 C-114.64010579 75.2264751 -121.74554351 76.5371106 -128.85067749 77.84921265 C-131.30648736 78.30342684 -133.76178239 78.76034623 -136.21704102 79.2175293 C-144.03139744 80.66654264 -151.84340266 82.04540973 -159.70654297 83.2097168 C-162.64328114 83.6500478 -165.57105611 84.13338633 -168.49902344 84.62841797 C-168.39356201 85.67255859 -168.28810059 86.71669922 -168.17944336 87.79248047 C-164.61883892 123.07834769 -164.61883892 123.07834769 -162.94473267 140.64331055 C-162.75297073 142.64961942 -162.55803716 144.65562435 -162.36303711 146.66162109 C-160.85247108 162.65858943 -160.85247108 162.65858943 -163.49902344 166.62841797 C-168.88490344 168.68772503 -173.89983422 168.9646501 -179.62402344 168.94091797 C-180.80158203 168.96508789 -180.80158203 168.96508789 -182.00292969 168.98974609 C-186.68621111 168.9936949 -189.65271101 168.58424172 -193.49902344 165.62841797 C-195.29118906 163.83625235 -194.71436094 161.13874341 -194.78027344 158.71435547 C-194.81765625 157.47685547 -194.85503906 156.23935547 -194.89355469 154.96435547 C-194.94576172 153.00369141 -194.94576172 153.00369141 -194.99902344 151.00341797 C-195.20967165 143.42008221 -195.45386811 135.85647716 -195.99511719 128.28857422 C-196.59643231 119.76083253 -196.83732919 111.23500644 -197.06152344 102.69091797 C-197.10487728 101.12124914 -197.1484958 99.5515876 -197.19238281 97.98193359 C-197.29763263 94.19750502 -197.39935334 90.41299743 -197.49902344 86.62841797 C-198.83332397 86.55494141 -198.83332397 86.55494141 -200.19458008 86.47998047 C-207.60004518 86.02057331 -214.69513834 85.22859594 -221.93652344 83.62841797 C-223.6015071 83.27246484 -225.26686626 82.91826307 -226.93261719 82.56591797 C-227.70460449 82.40220703 -228.4765918 82.23849609 -229.27197266 82.06982422 C-232.33578748 81.46256954 -235.40183064 81.02859362 -238.49902344 80.62841797 C-238.53205566 81.34175293 -238.56508789 82.05508789 -238.59912109 82.79003906 C-239.26594555 94.21220783 -240.82450136 105.50064828 -242.40039062 116.82714844 C-242.87754846 120.27891805 -243.33683388 123.7327951 -243.79589844 127.18701172 C-244.09949549 129.38898526 -244.40414461 131.59081405 -244.70996094 133.79248047 C-244.84445648 134.82160553 -244.97895203 135.85073059 -245.11752319 136.91104126 C-245.25421417 137.86658905 -245.39090515 138.82213684 -245.53173828 139.80664062 C-245.64641449 140.64377594 -245.7610907 141.48091125 -245.87924194 142.34341431 C-246.61029162 145.03864028 -247.61600842 146.57705451 -249.49902344 148.62841797 C-256.39527464 151.44321438 -263.95239488 151.77281148 -270.99902344 149.25341797 C-274.49902344 147.62841797 -274.49902344 147.62841797 -276.49902344 145.62841797 C-276.9223561 140.15965108 -275.95180225 135.34471249 -274.67089844 130.08154297 C-274.38548187 128.86552399 -274.38548187 128.86552399 -274.09429932 127.62493896 C-273.48649425 125.04097804 -272.86830602 122.45964974 -272.24902344 119.87841797 C-269.82196356 109.6611837 -267.40956116 99.44263554 -265.20214844 89.17529297 C-265.02971619 88.38930725 -264.85728394 87.60332153 -264.67962646 86.79351807 C-263.88046009 83.01835232 -263.28980683 79.49220715 -263.49902344 75.62841797 C-264.63339844 75.33966797 -265.76777344 75.05091797 -266.93652344 74.75341797 C-268.69996094 74.19654297 -268.69996094 74.19654297 -270.49902344 73.62841797 C-272.49336504 69.63973476 -271.68387379 64.57607715 -271.68652344 60.19091797 C-271.69876953 59.12808594 -271.71101563 58.06525391 -271.72363281 56.97021484 C-271.7265332 55.44170898 -271.7265332 55.44170898 -271.72949219 53.88232422 C-271.73360107 52.94718994 -271.73770996 52.01205566 -271.74194336 51.04858398 C-271.49902344 48.62841797 -271.49902344 48.62841797 -269.49902344 45.62841797 C-267.37011719 44.93310547 -267.37011719 44.93310547 -264.93652344 44.50341797 C-261.92966389 44.14350784 -261.92966389 44.14350784 -259.49902344 42.62841797 C-256.27133958 42.08822336 -253.00479073 41.8262664 -249.74902344 41.50341797 C-248.84152344 41.40416016 -247.93402344 41.30490234 -246.99902344 41.20263672 C-246.11730469 41.11369141 -245.23558594 41.02474609 -244.32714844 40.93310547 C-243.52180664 40.85044434 -242.71646484 40.7677832 -241.88671875 40.68261719 C-239.27254621 40.62327707 -237.05341394 41.094037 -234.49902344 41.62841797 C-232.78065889 41.71652218 -231.05948745 41.75899983 -229.33886719 41.76123047 C-228.38044922 41.76251953 -227.42203125 41.76380859 -226.43457031 41.76513672 C-225.44521484 41.76126953 -224.45585938 41.75740234 -223.43652344 41.75341797 C-221.94668945 41.75921875 -221.94668945 41.75921875 -220.42675781 41.76513672 C-219.46962891 41.76384766 -218.5125 41.76255859 -217.52636719 41.76123047 C-216.22300415 41.75953857 -216.22300415 41.75953857 -214.89331055 41.7578125 C-212.61391331 41.63462697 -210.69229109 41.22904026 -208.49902344 40.62841797 C-200.98182868 39.7263546 -195.83995998 43.25223801 -189.47949219 46.73388672 C-187.50694863 47.77701745 -187.50694863 47.77701745 -184.49902344 48.62841797 C-181.57103401 47.47429461 -181.57103401 47.47429461 -179.49902344 45.62841797 C-178.83902344 46.28841797 -178.17902344 46.94841797 -177.49902344 47.62841797 C-174.79533142 47.69019983 -172.24845597 47.62760897 -169.56152344 47.44091797 C-168.83255859 47.40933594 -168.10359375 47.37775391 -167.35253906 47.34521484 C-164.43473869 47.16067935 -162.04386247 46.94809935 -159.49511719 45.45263672 C-157.94930948 42.62168692 -158.02852989 40.8081702 -158.49902344 37.62841797 C-160.43180799 34.65394562 -160.43180799 34.65394562 -162.99902344 31.94091797 C-167.49902344 26.92008464 -167.49902344 26.92008464 -167.49902344 23.62841797 C-166.04276894 22.95722248 -164.58394477 22.2915999 -163.12402344 21.62841797 C-162.31191406 21.25716797 -161.49980469 20.88591797 -160.66308594 20.50341797 C-158.49902344 19.62841797 -158.49902344 19.62841797 -156.49902344 19.62841797 C-156.08652344 20.51529297 -155.67402344 21.40216797 -155.24902344 22.31591797 C-152.19672038 28.09349161 -149.7306746 31.07203425 -143.53808594 33.13623047 C-140.81547009 33.7934136 -138.28279234 33.83720064 -135.49902344 33.62841797 C-134.50902344 36.59841797 -134.50902344 36.59841797 -133.49902344 39.62841797 C-132.520625 39.61101563 -132.520625 39.61101563 -131.52246094 39.59326172 C-126.6993888 39.54346599 -122.25983301 39.77391369 -117.49902344 40.62841797 C-117.16902344 40.29841797 -116.83902344 39.96841797 -116.49902344 39.62841797 C-115.34402344 39.48404297 -114.18902344 39.33966797 -112.99902344 39.19091797 C-111.84402344 39.00529297 -110.68902344 38.81966797 -109.49902344 38.62841797 C-109.16902344 37.96841797 -108.83902344 37.30841797 -108.49902344 36.62841797 C-106.82839844 36.53560547 -106.82839844 36.53560547 -105.12402344 36.44091797 C-103.92777344 36.17279297 -102.73152344 35.90466797 -101.49902344 35.62841797 C-99.2779333 31.7785284 -98.16269695 28.00866315 -97.49902344 23.62841797 C-96.96535156 23.48146484 -96.43167969 23.33451172 -95.88183594 23.18310547 C-88.30186922 20.90124697 -81.08823002 17.80019603 -75.99902344 11.56591797 C-74.66551181 8.95445769 -73.47476511 6.39301938 -72.49902344 3.62841797 C-72.16902344 4.28841797 -71.83902344 4.94841797 -71.49902344 5.62841797 C-69.57993164 5.3103418 -69.57993164 5.3103418 -67.62207031 4.98583984 C-62.80071301 4.19024614 -57.9767325 3.41163116 -53.15185547 2.63769531 C-51.07787996 2.30268579 -49.00460756 1.96328889 -46.93212891 1.61914062 C-30.81694115 -1.05244439 -16.26875302 -2.42432139 0 0 Z " fill="#192031" transform="translate(1357.4990234375,547.37158203125)"/>
<path d="M0 0 C2.35638938 0.32343039 4.71291731 0.6458529 7.06958008 0.96728516 C12.73399872 1.7429143 18.39626885 2.53301327 24.05786133 3.32897949 C27.54115259 3.81707048 31.02558729 4.2964318 34.51036072 4.77380371 C37.75760791 5.21924945 41.00387186 5.67146593 44.25 6.125 C45.91953735 6.35751465 45.91953735 6.35751465 47.62280273 6.59472656 C48.60708252 6.73620117 49.5913623 6.87767578 50.60546875 7.0234375 C51.8433313 7.20011963 51.8433313 7.20011963 53.10620117 7.38037109 C55.0625 7.75 55.0625 7.75 57.0625 8.75 C57.55157699 11.23161285 57.9107602 13.61786246 58.1875 16.125 C58.27241699 16.84365234 58.35733398 17.56230469 58.44482422 18.30273438 C59.09057408 24.12877538 59.28599474 29.88947138 59.0625 35.75 C54.66628337 37.81880783 51.95231218 38.8344892 47.0625 38.75 C47.21426193 39.34229904 47.36602386 39.93459808 47.52238464 40.54484558 C49.13106099 46.82468363 50.7372166 53.10516284 52.34204102 59.38598633 C52.93777553 61.71622296 53.53410951 64.04630643 54.13110352 66.3762207 C55.85180858 73.09261447 57.56100407 79.81174029 59.25238037 86.5355835 C59.78675107 88.65587527 60.32416079 90.77540375 60.86480713 92.894104 C61.6040151 95.79797302 62.32934619 98.7049535 63.05078125 101.61328125 C63.27138718 102.46955612 63.4919931 103.32583099 63.71928406 104.20805359 C65.54626354 111.69051946 65.54626354 111.69051946 64.0625 115.75 C60.19105871 119.62144129 53.76208207 119.57109662 48.5 120.125 C43.92580473 119.62599688 39.99579266 118.14522302 36.0625 115.75 C34.02026304 112.68664456 33.57740819 111.04551619 32.94921875 107.4909668 C32.65881714 105.87734505 32.65881714 105.87734505 32.36254883 104.23112488 C32.16040771 103.06559586 31.9582666 101.90006683 31.75 100.69921875 C31.53561279 99.49368851 31.32122559 98.28815826 31.1003418 97.0460968 C30.64658712 94.48696459 30.19624274 91.92722574 29.74902344 89.36694336 C29.07168274 85.49005909 28.38449452 81.61502924 27.6953125 77.74023438 C27.25462129 75.24749954 26.81449977 72.75466392 26.375 70.26171875 C26.07178833 68.54682503 26.07178833 68.54682503 25.76245117 66.79728699 C24.36854172 58.80235635 23.16925166 50.78954762 22.0625 42.75 C21.15842407 42.8830957 20.25434814 43.01619141 19.32287598 43.15332031 C16.34044796 43.59161575 13.35750525 44.02623644 10.37426758 44.45898438 C8.40084479 44.746238 6.42795672 45.03715735 4.45507812 45.328125 C3.20791016 45.50859375 1.96074219 45.6890625 0.67578125 45.875 C-1.04451294 46.12636719 -1.04451294 46.12636719 -2.79956055 46.3828125 C-5.55350897 46.7050671 -8.16956495 46.82254211 -10.9375 46.75 C-10.78603516 48.05146973 -10.63457031 49.35293945 -10.47851562 50.69384766 C-9.9159896 55.53524994 -9.35796062 60.37716189 -8.80126953 65.21923828 C-8.5599785 67.31247846 -8.31747784 69.40557958 -8.07373047 71.49853516 C-7.72303143 74.51168403 -7.37672496 77.52531074 -7.03125 80.5390625 C-6.9218811 81.47054108 -6.81251221 82.40201965 -6.6998291 83.36172485 C-5.62889961 92.7810561 -5.62889961 92.7810561 -5.9375 96.75 C-9.50750794 100.32000794 -13.49898042 99.90931492 -18.375 99.9375 C-20.04369141 99.95876953 -20.04369141 99.95876953 -21.74609375 99.98046875 C-26.05994662 99.66894204 -28.86469628 98.82280372 -31.9375 95.75 C-32.25393677 93.83908081 -32.25393677 93.83908081 -32.34814453 91.48388672 C-32.40798019 90.16274368 -32.40798019 90.16274368 -32.46902466 88.81491089 C-32.50244965 87.86278717 -32.53587463 86.91066345 -32.5703125 85.9296875 C-32.61187469 84.95589142 -32.65343689 83.98209534 -32.69625854 82.97879028 C-32.82726272 79.86115327 -32.94502307 76.74317325 -33.0625 73.625 C-33.1488694 71.51428713 -33.23609795 69.40360923 -33.32421875 67.29296875 C-33.53862561 62.11234407 -33.74215461 56.93137653 -33.9375 51.75 C-41.75874121 52.48864196 -41.75874121 52.48864196 -49.53125 53.6171875 C-50.4893457 53.77904541 -51.44744141 53.94090332 -52.43457031 54.10766602 C-53.42553711 54.27838623 -54.41650391 54.44910645 -55.4375 54.625 C-57.01289551 54.89171509 -57.01289551 54.89171509 -58.62011719 55.16381836 C-61.72638495 55.68980358 -64.8319831 56.21960231 -67.9375 56.75 C-71.02032448 57.2738903 -74.10360084 57.7949737 -77.1875 58.3125 C-77.89592041 58.43149658 -78.60434082 58.55049316 -79.33422852 58.6730957 C-85.80300031 59.74865824 -92.28662842 60.72019322 -98.77636719 61.66040039 C-103.83681035 62.40176269 -108.86218018 63.26989496 -113.89135742 64.19897461 C-119.8746752 65.28131397 -125.87637174 66.25674996 -131.875 67.25 C-133.79602539 67.56904297 -133.79602539 67.56904297 -135.75585938 67.89453125 C-138.16912536 68.29530798 -140.58244746 68.69574715 -142.99584961 69.09570312 C-148.31016866 69.97785705 -153.62383329 70.86392639 -158.9375 71.75 C-158.86233154 72.5524263 -158.78716309 73.3548526 -158.7097168 74.18159485 C-157.99827955 81.78595429 -157.29175627 89.39074744 -156.59059143 96.99606037 C-156.23004587 100.90493486 -155.86767841 104.81362168 -155.50097656 108.72192383 C-155.14640801 112.50166034 -154.79684823 116.28183115 -154.45059204 120.06233788 C-154.31839102 121.49640245 -154.18446003 122.93030875 -154.04867554 124.36403847 C-151.86960347 147.4102865 -151.86960347 147.4102865 -154.33470154 150.50283813 C-158.50842507 153.7504759 -164.34356822 153.00528129 -169.375 153.0625 C-170.22126953 153.09150391 -171.06753906 153.12050781 -171.93945312 153.15039062 C-172.76251953 153.15876953 -173.58558594 153.16714844 -174.43359375 153.17578125 C-175.55012329 153.19765503 -175.55012329 153.19765503 -176.68920898 153.2199707 C-180.08874688 152.50934952 -181.59923803 151.31747384 -183.9375 148.75 C-184.52792982 145.77444093 -184.79557778 143.32441086 -184.86328125 140.33203125 C-184.90068924 139.49378311 -184.93809723 138.65553497 -184.97663879 137.79188538 C-185.09196047 135.04909415 -185.17176432 132.30657919 -185.25 129.5625 C-185.32070619 127.67393808 -185.39281978 125.78542835 -185.46630859 123.89697266 C-186.07725273 107.18465991 -186.16210046 90.4706405 -185.9375 73.75 C-186.65220459 73.6360791 -187.36690918 73.5221582 -188.10327148 73.40478516 C-196.90980889 71.97276993 -205.63577536 70.23076953 -214.37304688 68.4296875 C-215.43716797 68.213125 -216.50128906 67.9965625 -217.59765625 67.7734375 C-218.55293213 67.57669434 -219.50820801 67.37995117 -220.49243164 67.17724609 C-223.01635118 66.6639351 -223.01635118 66.6639351 -225.9375 66.75 C-226.05389832 67.54513504 -226.17029663 68.34027008 -226.29022217 69.15950012 C-227.39013654 76.6517553 -228.50660594 84.14126546 -229.64176559 91.62825489 C-230.22478339 95.47752124 -230.80134669 99.32752631 -231.36328125 103.17993164 C-231.90580083 106.89758234 -232.46511371 110.61234956 -233.03617096 114.32571983 C-233.25109391 115.74299091 -233.45994536 117.16119643 -233.66262054 118.58027077 C-233.94747944 120.5673597 -234.25593617 122.55102252 -234.56542969 124.53442383 C-234.81857941 126.22986076 -234.81857941 126.22986076 -235.07684326 127.95954895 C-236.08594966 131.23130862 -236.98890974 132.10292956 -239.9375 133.75 C-247.68041817 136.33097272 -255.69317625 135.16713384 -262.9375 131.75 C-263.9375 130.75 -263.9375 130.75 -263.98779297 128.54907227 C-263.33082126 117.62319479 -260.68308576 107.27988177 -258.0625 96.6875 C-257.60975836 94.82509289 -257.15792979 92.96246357 -256.70703125 91.09960938 C-255.4646947 85.97953393 -254.20358607 80.86424541 -252.9375 75.75 C-252.62264648 74.47141113 -252.30779297 73.19282227 -251.98339844 71.87548828 C-250.07112069 64.15086207 -250.07112069 64.15086207 -248.9375 60.75 C-249.71996094 60.61722656 -250.50242187 60.48445312 -251.30859375 60.34765625 C-252.32050781 60.17105469 -253.33242188 59.99445312 -254.375 59.8125 C-255.38433594 59.63847656 -256.39367187 59.46445312 -257.43359375 59.28515625 C-259.9375 58.75 -259.9375 58.75 -260.9375 57.75 C-261.2270815 53.65407126 -261.25143228 49.5544774 -261.28759766 45.44921875 C-261.30415829 44.06981536 -261.33145096 42.69049784 -261.36962891 41.31152344 C-261.42434987 39.32539034 -261.44312748 37.33836945 -261.4609375 35.3515625 C-261.48075684 34.15869629 -261.50057617 32.96583008 -261.52099609 31.73681641 C-260.9375 28.75 -260.9375 28.75 -258.91748047 26.91967773 C-255.2327099 25.47336151 -251.63803124 24.88834424 -247.734375 24.43359375 C-246.93831848 24.33160172 -246.14226196 24.22960968 -245.32208252 24.12452698 C-242.77844955 23.80132133 -240.23316693 23.49422724 -237.6875 23.1875 C-236.02330558 22.97826013 -234.35924129 22.76798246 -232.6953125 22.55664062 C-226.20235009 21.73773467 -219.705957 20.95056887 -213.2043457 20.20336914 C-212.44869324 20.11616104 -211.69304077 20.02895294 -210.91448975 19.93910217 C-208.86785389 19.70416734 -206.82078287 19.47303218 -204.77368164 19.2421875 C-199.48018466 18.56302439 -194.25581235 17.62103207 -189.01171875 16.62890625 C-185.9375 16.75 -185.9375 16.75 -183.625 19.05078125 C-183.068125 19.94152344 -182.51125 20.83226562 -181.9375 21.75 C-179.14875379 26.08804965 -176.65023177 27.81226383 -171.828125 29.28125 C-168.17009591 29.87444391 -164.62230234 29.70637422 -160.9375 29.5625 C-153.60662599 29.29640194 -149.40052981 30.90234596 -143.9375 35.75 C-136.221256 40.89416267 -123.55730598 37.33006264 -114.9375 35.75 C-114.6075 34.76 -114.2775 33.77 -113.9375 32.75 C-112.844375 32.915 -111.75125 33.08 -110.625 33.25 C-107.06224127 33.81718184 -107.06224127 33.81718184 -103.9375 33.75 C-103.1125 33.79125 -102.2875 33.8325 -101.4375 33.875 C-98.68444525 33.95140503 -98.68444525 33.95140503 -95.9375 31.75 C-93.25 32.125 -93.25 32.125 -90.9375 32.75 C-89.9475 31.43 -88.9575 30.11 -87.9375 28.75 C-86.6175 29.08 -85.2975 29.41 -83.9375 29.75 C-81.56439346 26.19034019 -81.66834959 24.53037776 -81.6875 20.3125 C-81.68234375 19.17941406 -81.6771875 18.04632812 -81.671875 16.87890625 C-81.92991511 13.83934551 -82.17425937 12.20633836 -83.9375 9.75 C-85.86441633 8.42619661 -85.86441633 8.42619661 -88.0625 7.5 C-88.78695312 7.16484375 -89.51140625 6.8296875 -90.2578125 6.484375 C-90.81210937 6.24203125 -91.36640625 5.9996875 -91.9375 5.75 C-91.6075 4.43 -91.2775 3.11 -90.9375 1.75 C-90.9375 2.41 -90.9375 3.07 -90.9375 3.75 C-89.51824219 3.45996094 -89.51824219 3.45996094 -88.0703125 3.1640625 C-79.85955628 1.53179107 -71.69911447 0.29277682 -63.36938477 -0.54589844 C-59.1911852 -0.97304534 -55.12317602 -1.55266503 -51 -2.375 C-34.04001846 -5.25168622 -16.83556141 -2.37528003 0 0 Z " fill="#191F31" transform="translate(622.9375,552.25)"/>
<path d="M0 0 C1.1034375 0.30679687 2.206875 0.61359375 3.34375 0.9296875 C8.72504514 2.35909402 13.96688006 2.21939706 19.5 2.125 C20.51320313 2.11597656 21.52640625 2.10695313 22.5703125 2.09765625 C25.04712801 2.07429007 27.52343379 2.04153168 30 2 C29.09133179 2.43566284 29.09133179 2.43566284 28.16430664 2.88012695 C25.32647824 4.34849908 22.96409548 6.23283692 20.4375 8.1875 C11.80358099 14.74848269 3.2948467 20.39130818 -7 24 C-7.969375 24.37125 -8.93875 24.7425 -9.9375 25.125 C-20.89115258 28.25461502 -31.83592705 28.37266152 -43.12792969 28.53173828 C-45.31206499 28.56555285 -47.49577295 28.61058339 -49.6796875 28.65625 C-51.60917236 28.68428711 -51.60917236 28.68428711 -53.57763672 28.71289062 C-56.90435454 28.9919761 -59.15334236 29.25410281 -62 31 C-63.78257345 36.1159205 -63.22296751 42.00905078 -63.25 47.375 C-63.270625 48.39078125 -63.29125 49.4065625 -63.3125 50.453125 C-63.34361369 56.44251003 -62.83817025 60.69710295 -60 66 C-49.29671384 65.53741386 -38.75134741 64.45167229 -28.13500977 63.01635742 C-9.72755499 60.63622251 -9.72755499 60.63622251 -5 63 C-3.64290394 63.24181136 -2.27795197 63.44039906 -0.91064453 63.61547852 C-0.05936981 63.72721909 0.79190491 63.83895966 1.66897583 63.9540863 C2.60063568 64.07365189 3.53229553 64.19321747 4.4921875 64.31640625 C16.28427385 65.880083 28.04864619 67.59411047 39.80224609 69.42456055 C42.04863159 69.77133909 44.29607378 70.11132996 46.54443359 70.44506836 C49.84733988 70.93602811 53.14636207 71.44805335 56.4453125 71.96484375 C57.44934113 72.10977768 58.45336975 72.25471161 59.48782349 72.40403748 C63.44121234 73.04263745 66.30086126 73.52192486 69.63525391 75.80200195 C71.3032065 78.4883306 71.46385775 80.05411696 71.390625 83.203125 C71.37128906 84.67265625 71.37128906 84.67265625 71.3515625 86.171875 C71.30128906 87.69554687 71.30128906 87.69554687 71.25 89.25 C71.23195313 90.28125 71.21390625 91.3125 71.1953125 92.375 C71.14822712 94.91761064 71.0824805 97.45833162 71 100 C68.03 100.66 65.06 101.32 62 102 C62.12117188 102.64437012 62.24234375 103.28874023 62.3671875 103.95263672 C62.92070275 106.92512003 63.46040919 109.89995879 64 112.875 C64.19078125 113.88820313 64.3815625 114.90140625 64.578125 115.9453125 C66.86052471 128.66153947 66.86052471 128.66153947 66 135 C63.19939266 137.80060734 61.09466645 137.47179338 57.1875 137.75 C55.96417969 137.84796875 54.74085938 137.9459375 53.48046875 138.046875 C48.93762936 137.98569198 46.22026383 137.22026383 43 134 C42.58935547 131.84863281 42.58935547 131.84863281 42.3671875 129.203125 C42.28339844 128.2440625 42.19960938 127.285 42.11328125 126.296875 C42.03464844 125.29140625 41.95601562 124.2859375 41.875 123.25 C41.78863281 122.26 41.70226562 121.27 41.61328125 120.25 C41.21159553 115.48077908 40.95879087 110.78902643 41 106 C33.8870858 107.22516342 26.77449407 108.45218637 19.66210938 109.68041992 C17.24942046 110.09685003 14.83666169 110.51287565 12.42382812 110.9284668 C-5.71970745 114.05163938 -5.71970745 114.05163938 -23.82055664 117.41088867 C-28.0810978 118.20031398 -32.35890408 118.83895793 -36.64404297 119.47875977 C-40.31639799 120.04914227 -43.97461825 120.68620705 -47.6328125 121.33984375 C-49.1434373 121.60811298 -50.65409977 121.87617018 -52.16479492 122.14404297 C-52.95365082 122.28396667 -53.74250671 122.42389038 -54.55526733 122.5680542 C-58.72173043 123.30420268 -62.89021242 124.02871315 -67.05859375 124.75390625 C-68.78060599 125.05399611 -70.50261116 125.35412656 -72.22460938 125.65429688 C-74.84616576 126.1112157 -77.46778459 126.5677607 -80.08959961 127.02319336 C-82.68363367 127.47394422 -85.27743238 127.92601607 -87.87109375 128.37890625 C-88.68855072 128.52139801 -89.50600769 128.66388977 -90.34823608 128.81069946 C-95.25785214 129.67319018 -100.1456778 130.59862419 -105.01196289 131.68334961 C-107.36311437 132.0578361 -109.62326677 132.05196599 -112 132 C-111.86722656 132.68320312 -111.73445313 133.36640625 -111.59765625 134.0703125 C-110.28489563 141.56358844 -109.58562933 149.03546534 -109.125 156.625 C-109.051604 157.59711426 -108.97820801 158.56922852 -108.90258789 159.57080078 C-108.85481201 160.48845215 -108.80703613 161.40610352 -108.7578125 162.3515625 C-108.7077002 163.17479004 -108.65758789 163.99801758 -108.60595703 164.84619141 C-109 167 -109 167 -110.89990234 168.7487793 C-114.96498991 171.17072463 -118.81813535 171.21048689 -123.5 171.3125 C-124.6240625 171.34988281 -125.748125 171.38726563 -126.90625 171.42578125 C-130 171 -130 171 -132.15527344 169.46264648 C-134.65062564 166.13143716 -134.60256617 163.17892548 -134.609375 159.171875 C-134.62591125 158.42286926 -134.64244751 157.67386353 -134.65948486 156.90216064 C-134.7079351 154.51802346 -134.72932772 152.13452389 -134.75 149.75 C-134.7781624 148.13017631 -134.80809022 146.51038228 -134.83984375 144.890625 C-134.91369244 140.92713586 -134.96328457 136.96400002 -135 133 C-139.19788338 131.99738393 -143.39710611 131.00064571 -147.59765625 130.00927734 C-149.02577122 129.67136357 -150.45351105 129.33186021 -151.88085938 128.99072266 C-153.93522601 128.50002088 -155.99088384 128.0150938 -158.046875 127.53125 C-159.90070801 127.09135742 -159.90070801 127.09135742 -161.79199219 126.64257812 C-165.10839373 125.86906458 -165.10839373 125.86906458 -169 126 C-169.19634033 126.9286084 -169.39268066 127.8572168 -169.5949707 128.81396484 C-170.32889122 132.25646831 -171.07365662 135.69624553 -171.82592773 139.13476562 C-172.149326 140.62372822 -172.46836593 142.11364436 -172.78295898 143.60449219 C-173.23580967 145.74679687 -173.70420238 147.88518801 -174.17578125 150.0234375 C-174.45333252 151.31169434 -174.73088379 152.59995117 -175.0168457 153.92724609 C-176 157 -176 157 -179 159 C-184.62432027 160.60694865 -190.44786985 160.82411078 -195.9375 158.75 C-199 157 -199 157 -199.77661133 155.25512695 C-200.07127192 152.28050417 -199.44018162 150.04634561 -198.63671875 147.16796875 C-198.32669922 146.03939453 -198.01667969 144.91082031 -197.69726562 143.74804688 C-197.19743164 141.98557617 -197.19743164 141.98557617 -196.6875 140.1875 C-196.36587891 139.02412109 -196.04425781 137.86074219 -195.71289062 136.66210938 C-194.17115011 131.0998135 -192.59531393 125.54715757 -191 120 C-191.93972656 119.81824219 -191.93972656 119.81824219 -192.8984375 119.6328125 C-193.71570313 119.46523438 -194.53296875 119.29765625 -195.375 119.125 C-196.18710938 118.96257812 -196.99921875 118.80015625 -197.8359375 118.6328125 C-200 118 -200 118 -202 116 C-202.25878906 113.41796875 -202.25878906 113.41796875 -202.265625 110.1875 C-202.26820313 109.02992188 -202.27078125 107.87234375 -202.2734375 106.6796875 C-202.26570313 105.46539063 -202.25796875 104.25109375 -202.25 103 C-202.25773437 101.78570313 -202.26546875 100.57140625 -202.2734375 99.3203125 C-202.27085937 98.16273438 -202.26828125 97.00515625 -202.265625 95.8125 C-202.26336914 94.74644531 -202.26111328 93.68039062 -202.25878906 92.58203125 C-202 90 -202 90 -200 88 C-198.00210571 87.50047302 -198.00210571 87.50047302 -195.52197266 87.14624023 C-194.13010239 86.94109047 -194.13010239 86.94109047 -192.71011353 86.73179626 C-191.20231827 86.52231102 -191.20231827 86.52231102 -189.6640625 86.30859375 C-188.11771622 86.08333763 -188.11771622 86.08333763 -186.54013062 85.85353088 C-183.23616397 85.37367895 -179.9307089 84.90518486 -176.625 84.4375 C-173.32677868 83.96409524 -170.0289087 83.48836008 -166.73129272 83.01075745 C-164.67720917 82.7139964 -162.62271389 82.42006852 -160.56777954 82.1292572 C-159.16645279 81.92883568 -159.16645279 81.92883568 -157.73681641 81.72436523 C-156.91678131 81.60826401 -156.09674622 81.49216278 -155.25186157 81.37254333 C-153.12843308 81.0212477 -151.07856914 80.55470081 -149 80 C-148.62488281 80.48210937 -148.24976563 80.96421875 -147.86328125 81.4609375 C-147.09564453 82.40839844 -147.09564453 82.40839844 -146.3125 83.375 C-145.81363281 84.00148438 -145.31476563 84.62796875 -144.80078125 85.2734375 C-141.29550909 88.63424075 -137.45089917 89.2536884 -132.7265625 89.265625 C-131.7365625 89.26820313 -130.7465625 89.27078125 -129.7265625 89.2734375 C-128.70304687 89.26570312 -127.67953125 89.25796875 -126.625 89.25 C-125.60921875 89.25773438 -124.5934375 89.26546875 -123.546875 89.2734375 C-117.97213668 89.25895766 -113.26288769 88.8679545 -108 87 C-107.52190289 81.26283466 -107.91791678 77.78916645 -110.5 72.625 C-114.70234283 63.28646039 -114.73997723 51.0894939 -111.6875 41.3125 C-106.14020757 30.27549949 -92.87390232 26.64757483 -82 23 C-81.21109375 22.69320312 -80.4221875 22.38640625 -79.609375 22.0703125 C-74.67673166 20.1865865 -69.69255371 19.42716378 -64.5 18.625 C-47.43718818 15.93179888 -30.49977821 10.66651881 -16 1 C-13.42089912 0.88328572 -10.94708209 0.85772678 -8.375 0.9375 C-5.91177426 0.99930957 -3.46508783 1.02059143 -1 1 C-0.67 0.67 -0.34 0.34 0 0 Z " fill="#181F30" transform="translate(242,497)"/>
<path d="M0 0 C0.77214844 0.33257812 1.54429687 0.66515625 2.33984375 1.0078125 C6.70425577 2.90278798 10.9618815 4.9626358 15.203125 7.1171875 C17.4217685 8.2072167 19.68613111 9.13229917 22 10 C22 10.66 22 11.32 22 12 C23.2065625 12.37125 23.2065625 12.37125 24.4375 12.75 C27.86289559 13.95189319 31.08275737 15.35893537 34.36328125 16.90234375 C43.17421065 20.57030103 51.04335418 21.61168597 60.56054688 21.99609375 C69.67903574 22.56486479 75.20636269 25.59584154 81.3125 32.375 C93.48066899 44.91757419 110.71505073 50.72201869 127 56 C128.051875 56.34417969 129.10375 56.68835938 130.1875 57.04296875 C138.84380052 59.54812094 150.05909945 61.16511373 158.4765625 57.4765625 C159.30929687 56.98929688 160.14203125 56.50203125 161 56 C161.40981718 49.75028798 160.70493187 46.60316875 157.25 41.1875 C156.50994617 39.96435547 155.77558276 38.73775039 155.046875 37.5078125 C154.69302734 36.91129883 154.33917969 36.31478516 153.97460938 35.70019531 C148.54221636 26.22344557 147.35309123 15.92296651 149.578125 5.21875 C150.85368644 1.14780922 152.59925108 -2.45603731 155 -6 C156 -3 156 -3 155.5625 -1.3125 C154.52780071 2.94126374 154.38932006 7.29882017 155.875 11.4375 C156.93074101 13.15893274 156.93074101 13.15893274 159 14 C160.09596218 16.07640403 161.126394 18.18755933 162.125 20.3125 C168.33255633 33.06149168 176.76207284 43.67523198 185.82006836 54.49462891 C187 56 187 56 188 58 C179.83085392 59.46334269 171.8515403 60.31191486 163.56274414 60.57006836 C159.32315996 60.602727 159.32315996 60.602727 156 63 C154.01178687 63.39764263 152.01055661 63.73775349 150 64 C149.82079809 71.16060966 150.5074413 77.97598857 151.5 85.0625 C151.64308594 86.11888672 151.78617188 87.17527344 151.93359375 88.26367188 C152.28375897 90.84322235 152.63932837 93.42190125 153 96 C149.10968962 99.22122178 146.64244735 99.40520781 141.5625 99.375 C140.26441406 99.38273438 138.96632813 99.39046875 137.62890625 99.3984375 C133.74486122 98.97198692 132.05013327 98.38160656 129 96 C128.15698242 93.39624023 128.15698242 93.39624023 127.85546875 90.30859375 C127.73623047 89.19935547 127.61699219 88.09011719 127.49414062 86.94726562 C127.39294922 85.78904297 127.29175781 84.63082031 127.1875 83.4375 C127.06697266 82.27541016 126.94644531 81.11332031 126.82226562 79.91601562 C126 71.83901786 126 71.83901786 126 69 C116.72319394 69.76145956 107.6054737 71.3184068 98.4375 72.875 C96.892626 73.13439988 95.34770433 73.393516 93.80273438 73.65234375 C84.26233518 75.25502994 74.73328798 76.91832074 65.20809937 78.60876465 C57.95286724 79.89426083 50.69498466 81.16479632 43.4375 82.4375 C42.57090759 82.58962952 41.70431519 82.74175903 40.8114624 82.89849854 C29.11139367 84.95133588 17.4080926 86.97310988 5.67749023 88.84545898 C4.37146851 89.05730835 4.37146851 89.05730835 3.0390625 89.2734375 C2.29865723 89.39122559 1.55825195 89.50901367 0.79541016 89.63037109 C-1.09176564 89.93852029 -1.09176564 89.93852029 -3 91 C-5.2223148 91.39488603 -7.45324954 91.7419646 -9.6875 92.0625 C-11.48767578 92.32740234 -11.48767578 92.32740234 -13.32421875 92.59765625 C-16.91685863 92.99089951 -20.38932929 93.06952511 -24 93 C-23.84660156 93.53367187 -23.69320312 94.06734375 -23.53515625 94.6171875 C-22.33164792 99.97587423 -22.26483 105.52809006 -22 111 C-21.9592334 111.78004395 -21.9184668 112.56008789 -21.87646484 113.36376953 C-21.76225283 115.80499049 -21.68833042 118.24447369 -21.625 120.6875 C-21.58689209 121.46561035 -21.54878418 122.2437207 -21.50952148 123.04541016 C-21.4765625 125.26171875 -21.4765625 125.26171875 -22 129 C-25.28925349 132.30867822 -28.88800554 132.38682794 -33.3359375 132.41015625 C-34.09132813 132.39855469 -34.84671875 132.38695312 -35.625 132.375 C-36.388125 132.38660156 -37.15125 132.39820313 -37.9375 132.41015625 C-43.37453144 132.3815403 -43.37453144 132.3815403 -45.70776367 130.95825195 C-47.70445479 127.93247084 -47.48090499 124.78120676 -47.51171875 121.26953125 C-47.52966995 120.51911057 -47.54762115 119.76868988 -47.56611633 118.99552917 C-47.62025187 116.6012431 -47.65412416 114.20715669 -47.6875 111.8125 C-47.72067036 110.18812323 -47.75515976 108.56377283 -47.79101562 106.93945312 C-47.8759797 102.95977944 -47.94277465 98.9801653 -48 95 C-57.15474892 92.69831707 -66.31305937 90.42046591 -75.5 88.25 C-76.42941406 88.02957031 -77.35882812 87.80914063 -78.31640625 87.58203125 C-80.54406764 87.05382288 -82.77192725 86.52646993 -85 86 C-84.97583008 87.02053467 -84.95166016 88.04106934 -84.92675781 89.0925293 C-85.04073485 95.17320433 -86.4485628 100.89033506 -87.75 106.8125 C-88.00265625 108.05193359 -88.2553125 109.29136719 -88.515625 110.56835938 C-88.7734375 111.74849609 -89.03125 112.92863281 -89.296875 114.14453125 C-89.64250488 115.75871948 -89.64250488 115.75871948 -89.99511719 117.40551758 C-91 120 -91 120 -92.91967773 121.34716797 C-98.8477205 123.20746446 -106.5211484 122.99220005 -112.25 120.5625 C-115 119 -115 119 -116 118 C-116.28141125 113.59975134 -115.63125041 110.16500123 -114.25 106 C-112.68568502 101.13944987 -111.17142126 96.27890335 -109.75 91.375 C-109.24726562 89.65410156 -109.24726562 89.65410156 -108.734375 87.8984375 C-107.87719582 85.01365285 -107.87719582 85.01365285 -108 82 C-108.62648438 81.80664062 -109.25296875 81.61328125 -109.8984375 81.4140625 C-110.71570313 81.15367187 -111.53296875 80.89328125 -112.375 80.625 C-113.18710937 80.36976563 -113.99921875 80.11453125 -114.8359375 79.8515625 C-117 79 -117 79 -119 77 C-119.4596469 72.70546793 -119.32399779 68.37877182 -119.3125 64.0625 C-119.32861328 62.85658203 -119.34472656 61.65066406 -119.36132812 60.40820312 C-119.36197266 59.25384766 -119.36261719 58.09949219 -119.36328125 56.91015625 C-119.36626221 55.84933838 -119.36924316 54.78852051 -119.37231445 53.69555664 C-119 51 -119 51 -117.9909668 49.23095703 C-114.83535902 47.27993626 -111.39022739 46.92930399 -107.78125 46.39453125 C-106.56157532 46.20113411 -106.56157532 46.20113411 -105.31726074 46.00382996 C-103.59328563 45.73336347 -101.86834777 45.46897415 -100.14257812 45.21020508 C-97.53507683 44.81777902 -94.9317348 44.40370635 -92.328125 43.98632812 C-83.85510743 42.66028379 -75.605628 41.50549385 -67 42 C-66.505 41.01 -66.505 41.01 -66 40 C-65.51789062 40.42152344 -65.03578125 40.84304688 -64.5390625 41.27734375 C-63.90742187 41.82519531 -63.27578125 42.37304688 -62.625 42.9375 C-61.99851562 43.48277344 -61.37203125 44.02804687 -60.7265625 44.58984375 C-57.29335019 47.39389272 -54.71914923 47.12879485 -50.34765625 47.1328125 C-49.3637516 47.13424759 -49.3637516 47.13424759 -48.35997009 47.13571167 C-46.97215682 47.13639234 -45.58434036 47.13454592 -44.1965332 47.13037109 C-42.07430847 47.12502972 -39.95229619 47.1303154 -37.83007812 47.13671875 C-36.48177037 47.13605778 -35.13346274 47.13477623 -33.78515625 47.1328125 C-32.55676025 47.13168457 -31.32836426 47.13055664 -30.06274414 47.12939453 C-26.95811781 47.13931803 -26.95811781 47.13931803 -24 46 C-22.88653928 38.01136116 -25.05480033 33.2544811 -29.37109375 26.56640625 C-32.33329854 21.8993354 -32.18319497 17.60546269 -32.1875 12.25 C-32.19974609 11.46367188 -32.21199219 10.67734375 -32.22460938 9.8671875 C-32.23709648 4.85569445 -31.60673771 0.75035497 -30 -4 C-30.99 -4.495 -30.99 -4.495 -32 -5 C-21.65869629 -8.44710124 -9.4968272 -4.28687093 0 0 Z " fill="#171D2F" transform="translate(870,509)"/>
<path d="M0 0 C0.44061164 31.33238305 0.44061164 31.33238305 -9 46 C-10.01855163 48.06436376 -11.00232882 50.14655045 -11.9375 52.25 C-12.31777344 53.08015625 -12.69804688 53.9103125 -13.08984375 54.765625 C-14.58614588 58.4389504 -15.12027101 61.68062833 -15.17578125 65.640625 C-15.42897172 76.52977045 -16.14283879 86.43824533 -19.36132812 96.90625 C-20.08297617 99.27201974 -20.75118059 101.65055457 -21.421875 104.03125 C-21.92445893 105.75076924 -22.42963232 107.46953392 -22.9375 109.1875 C-23.28010864 110.39152466 -23.28010864 110.39152466 -23.62963867 111.61987305 C-25.7974376 118.63447988 -29.21628952 122.15972688 -35.57421875 125.84765625 C-41.48135386 128.64300675 -46.45816146 128.26021527 -52.8125 127.4375 C-53.82248047 127.33630859 -54.83246094 127.23511719 -55.87304688 127.13085938 C-60.55971756 126.62042989 -64.7260802 126.1062401 -69 124 C-70.44232682 121.75130903 -71.53539982 119.72423517 -72.625 117.3125 C-72.95201904 116.62349609 -73.27903809 115.93449219 -73.6159668 115.22460938 C-74.34629203 113.68354071 -75.06977364 112.1392164 -75.78759766 110.59228516 C-77.1169404 107.74996513 -78.48315168 104.92728145 -79.85546875 102.10546875 C-80.84168203 100.07057228 -81.8273625 98.0354175 -82.8125 96 C-83.28059082 95.03360596 -83.74868164 94.06721191 -84.23095703 93.0715332 C-87.91408095 85.37983405 -90.87110532 78.07607709 -92.625 69.6875 C-95.57582796 56.90261739 -101.78393128 44.65343514 -109.1015625 33.8125 C-110 32 -110 32 -109 29 C-108.34 29.66 -107.68 30.32 -107 31 C-106.67 30.67 -106.34 30.34 -106 30 C-104.56428388 29.68731796 -103.11940863 29.4164456 -101.671875 29.1640625 C-95.70569857 28.01280671 -90.01315591 26.28420692 -84.25 24.375 C-83.19232422 24.02816162 -82.13464844 23.68132324 -81.04492188 23.32397461 C-75.06727364 21.28668141 -69.78539427 19.00552535 -64.5 15.5625 C-58.11719527 11.56644442 -53.05513142 11.22754244 -45.75390625 11.1171875 C-37.99007903 10.87482037 -31.78601708 8.50290913 -25 4.875 C-19.96660945 2.2137426 -15.84664116 1.27794125 -10.1796875 1.10546875 C-6.65494814 0.93491685 -3.74392739 -0.08138973 0 0 Z " fill="#030916" transform="translate(529,431)"/>
<path d="M0 0 C0.7420166 0.01401855 1.4840332 0.02803711 2.24853516 0.04248047 C4.50030879 0.08944285 6.74935164 0.16543018 9 0.25 C9.69311279 0.26393799 10.38622559 0.27787598 11.1003418 0.29223633 C16.5071948 0.55498344 19.56467007 2.13551609 24 5 C32.21970939 9.62358653 40.38327176 9.14274441 49.58984375 9.17578125 C52.09180515 9.19899461 54.59375829 9.22311254 57.09570312 9.24804688 C61.00534486 9.28298711 64.9146848 9.31242118 68.82446289 9.32592773 C96.75008265 9.44105206 120.95556275 14.84667175 144.203125 31.26171875 C147.30125105 33.18723005 149.26438348 33.57387237 152.875 33.75 C154.32519531 33.83507812 154.32519531 33.83507812 155.8046875 33.921875 C156.89136719 33.96054687 156.89136719 33.96054687 158 34 C157.62488281 34.43570313 157.24976563 34.87140625 156.86328125 35.3203125 C153.54140223 39.18607599 150.25357073 43.07657648 147 47 C147 44 147 44 149 41 C142.09889166 39.88941952 135.31629669 39.81390566 128.34936523 39.81469727 C126.20340976 39.81251617 124.05797389 39.79433268 121.91210938 39.77539062 C115.15640155 39.74866113 108.70044038 39.89405748 102.10668945 41.5690918 C96.88757573 42.63662404 94.15235902 41.79074529 89.68481445 38.85009766 C89.02570068 38.40456543 88.36658691 37.9590332 87.6875 37.5 C73.39649035 28.23470887 56.97249476 18.72744177 39.43798828 18.93408203 C37.79940353 18.94871994 37.79940353 18.94871994 36.12771606 18.96365356 C34.95377289 18.97822601 33.77982971 18.99279846 32.5703125 19.0078125 C30.05729583 19.02534667 27.54427472 19.0422532 25.03125 19.05859375 C21.09069345 19.08937935 17.15036287 19.12469949 13.20996094 19.17138672 C-14.92482798 19.48698997 -14.92482798 19.48698997 -27 16 C-26.34 15.67 -25.68 15.34 -25 15 C-24.896875 13.948125 -24.79375 12.89625 -24.6875 11.8125 C-23.8088875 6.94019432 -22.46545675 5.46545675 -19 2 C-13.57464069 -1.5846124 -6.24948061 -0.17759768 0 0 Z " fill="#202739" transform="translate(875,451)"/>
<path d="M0 0 C13.03240244 1.9560387 27.17880082 14.32304309 34.875 24.6875 C37.47053636 29.18535494 38.19790172 32.92510557 37 38 C33.35239623 47.8723189 27.60193754 56.86915682 18.125 61.875 C16.43259394 62.62058743 14.7237124 63.32995936 13 64 C12.195625 64.31839844 11.39125 64.63679688 10.5625 64.96484375 C0.82709739 68.35039241 -8.07888477 67.87561172 -17.625 64.16796875 C-18.40875 63.78253906 -19.1925 63.39710938 -20 63 C-20.75667969 62.63003906 -21.51335937 62.26007813 -22.29296875 61.87890625 C-25.00367675 58.89526655 -24.46244902 55.56338609 -24.3125 51.75 C-24.28978027 50.95166748 -24.26706055 50.15333496 -24.24365234 49.33081055 C-24.19305073 47.68625808 -24.13440947 46.041934 -24.06787109 44.39794922 C-24.00461584 42.16308178 -24.04033892 39.95658084 -24.11328125 37.72265625 C-24.14172955 28.23040757 -24.14172955 28.23040757 -20.98828125 24.83203125 C-18.4375 23.125 -18.4375 23.125 -15.703125 21.5859375 C-7.45278219 16.74541845 -3.35692725 8.63440423 0 0 Z " fill="#4CB99F" transform="translate(474,369)"/>
<path d="M0 0 C6.48025736 3.35616635 11.45880283 7.56619882 14.8359375 14.07421875 C17.20038197 21.72699661 17.41650644 32.89471539 13.7109375 40.09375 C9.06897629 46.74940706 2.82054 52.30737633 -5.2890625 53.90625 C-15.02565179 54.91839911 -21.59942042 53.14205621 -29.3515625 47.28125 C-35.87452945 41.82202843 -43.62500618 34.13528532 -44.56640625 25.3046875 C-44.78862036 18.70937273 -44.23892604 14.18869619 -39.6953125 9.1328125 C-34.54846375 4.13361925 -29.08274602 1.94764763 -22.2890625 -0.09375 C-15.46336025 -2.36898408 -6.82204616 -2.26861393 0 0 Z " fill="#3965BC" transform="translate(1164.2890625,479.09375)"/>
<path d="M0 0 C1.10021484 -0.01836914 1.10021484 -0.01836914 2.22265625 -0.03710938 C6.70969856 -0.04914974 10.27197609 0.49495245 14.5 2.1875 C14.5 2.8475 14.5 3.5075 14.5 4.1875 C13.7575 4.909375 13.015 5.63125 12.25 6.375 C8.11585148 10.60310644 5.32495496 14.4232613 4.9375 20.375 C5.27991127 28.03974456 8.97041523 35.17019237 13.5 41.1875 C13.5 41.8475 13.5 42.5075 13.5 43.1875 C10.85164568 44.58390501 8.20741081 45.91369289 5.5 47.1875 C4.84902344 47.49558594 4.19804688 47.80367187 3.52734375 48.12109375 C-8.24551553 52.86199469 -22.03571361 50.68304601 -33.5 46.1875 C-35.05755721 45.40665795 -36.60914889 44.61385944 -38.15625 43.8125 C-43.79975147 40.93110856 -49.62610193 38.88608097 -55.625 36.875 C-56.676875 36.51599609 -57.72875 36.15699219 -58.8125 35.78710938 C-61.37292573 34.91423697 -63.93534112 34.04783756 -66.5 33.1875 C-66.5 32.1975 -66.5 31.2075 -66.5 30.1875 C-49.75766503 14.55148673 -23.0645257 0.0202676 0 0 Z " fill="#4680E7" transform="translate(1112.5,478.8125)"/>
<path d="M0 0 C0.8360376 0.01135986 1.6720752 0.02271973 2.53344727 0.03442383 C10.1287667 0.2742135 15.6452745 1.50984386 21.0625 7.0625 C24.5739602 12.76862283 24.33591876 19.46249188 23.1015625 25.90625 C20.1099214 35.90185084 13.54188244 44.65825143 4.35546875 49.71484375 C-1.83357858 52.43474017 -8.28662242 53.5387726 -14.921875 54.59375 C-18.78673112 55.59002402 -21.22015504 57.18351163 -24.4375 59.5 C-25.9225 59.995 -25.9225 59.995 -27.4375 60.5 C-31.77710148 45.0207965 -34.60274855 30.52067251 -27.2734375 15.53515625 C-20.90174777 5.00153301 -12.26206938 -0.28167458 0 0 Z " fill="#3867C2" transform="translate(447.4375,339.5)"/>
<path d="M0 0 C2 1.5 2 1.5 4 4 C5.13109673 12.20045131 1.94327103 19.34502682 -2.4375 26.1875 C-6.62731018 31.46236359 -12.83893699 34.53249041 -19 37 C-21.90234375 37.1875 -21.90234375 37.1875 -24 37 C-23.938125 37.680625 -23.87625 38.36125 -23.8125 39.0625 C-24.05524311 42.86547533 -25.21765773 47.21765773 -28 50 C-30.33297433 50.04092937 -32.66705225 50.04241723 -35 50 C-35.33 50.99 -35.66 51.98 -36 53 C-37.051875 53.144375 -38.10375 53.28875 -39.1875 53.4375 C-42.82934366 53.92163439 -42.82934366 53.92163439 -45.6875 54.625 C-48.21188282 55.03435938 -49.56153169 54.66503681 -52 54 C-52.99 54.061875 -53.98 54.12375 -55 54.1875 C-58 54 -58 54 -60.25 52.5625 C-62.05046325 49.92610739 -62.32643858 48.63236159 -62.8125 45.5625 C-63.40233951 42.0975058 -63.40233951 42.0975058 -65.67578125 39.55078125 C-66.95078537 38.78169059 -68.22931936 38.01841404 -69.51171875 37.26171875 C-71 36 -71 36 -71.4375 32.1875 C-71.293125 31.135625 -71.14875 30.08375 -71 29 C-69.35 28.34 -67.7 27.68 -66 27 C-68.43387753 28.21693876 -70.41838846 28.31959896 -73.125 28.5625 C-74.03507812 28.64628906 -74.94515625 28.73007812 -75.8828125 28.81640625 C-76.58148437 28.87699219 -77.28015625 28.93757812 -78 29 C-72.66420309 19.0124827 -60.54624072 13.94272487 -50.125 10.6875 C-47.20765191 10.04568342 -44.95658609 9.60046134 -42 10 C-41.40058594 10.49242187 -40.80117187 10.98484375 -40.18359375 11.4921875 C-36.19813087 14.24422448 -31.64902191 13.5851466 -27 13 C-22.94152398 11.68755751 -19.87736393 10.08914143 -17.1875 6.75 C-14.36360493 4.49088395 -13.05428824 4.89816699 -9.5 5.0625 C-6.63117444 5.24653592 -6.63117444 5.24653592 -4 5 C-1.25229728 2.7211176 -1.25229728 2.7211176 0 0 Z " fill="#353C4E" transform="translate(1284,534)"/>
<path d="M0 0 C0.33 0 0.66 0 1 0 C1.01417969 1.23234375 1.02835937 2.4646875 1.04296875 3.734375 C1.30787003 14.73779536 2.26288382 24.04095076 8.640625 33.41015625 C12.43959443 40.647848 10.32587316 51.29386051 8.16015625 58.87890625 C1.84971554 75.85547906 -9.57401688 90.10154604 -22 103 C-22.66 102.67 -23.32 102.34 -24 102 C-24.03758423 101.04130005 -24.03758423 101.04130005 -24.07592773 100.06323242 C-24.19357147 97.10453255 -24.31551778 94.14602406 -24.4375 91.1875 C-24.47681641 90.18267578 -24.51613281 89.17785156 -24.55664062 88.14257812 C-24.76070563 83.26071521 -25.0300663 78.40971219 -25.51171875 73.546875 C-26.098868 67.38595835 -26.29479755 61.24902507 -26.375 55.0625 C-26.41238281 53.97259766 -26.44976562 52.88269531 -26.48828125 51.75976562 C-26.57678836 43.4843509 -24.69125628 37.36554907 -21 30 C-20.67 29.32074463 -20.34 28.64148926 -20 27.94165039 C-15.98558554 20.00013941 -11.0302639 13.20579694 -5.19921875 6.5234375 C-3.01375039 4.08301208 -3.01375039 4.08301208 -1.26953125 1.6640625 C-0.85058594 1.11492187 -0.43164062 0.56578125 0 0 Z " fill="#447EE5" transform="translate(406,361)"/>
<path d="M0 0 C2.14982198 2.14982198 4.28626893 4.30178104 6.37890625 6.5078125 C9.07484527 9.07116436 11.78110972 10.91698183 14.9375 12.875 C26.18025091 20.29161127 26.18025091 20.29161127 27.4921875 26.2265625 C27.79756413 31.59759852 26.57224348 34.8781806 23 39 C19.1195285 42.91805476 15.55733736 45.95799925 10 47 C5.68902653 46.83732176 2.41232018 45.8124583 -1.4375 44 C-11.05240799 39.53997545 -22.6963716 40.24198613 -32.9375 42 C-37.39799841 42.47396854 -37.39799841 42.47396854 -39.91015625 40.49609375 C-41.52106069 38.41022977 -42.77434208 36.3304176 -44 34 C-44.61875 33.01 -45.2375 32.02 -45.875 31 C-47.40171544 26.92875882 -47.49061326 24.34543176 -47 20 C-45.30096651 17.30737967 -43.7641979 16.20716062 -40.69262695 15.37451172 C-37.78140306 14.84140834 -34.86876085 14.40849614 -31.9375 14 C-18.72559049 11.90066298 -9.61796949 9.784206 0 0 Z " fill="#47B49B" transform="translate(1180,525)"/>
<path d="M0 0 C1.25067553 2.50135106 1.37885408 4.59355822 1.68017578 7.38012695 C1.80345245 8.50502029 1.92672913 9.62991364 2.05374146 10.78889465 C2.24756912 12.62009102 2.24756912 12.62009102 2.4453125 14.48828125 C2.5794455 15.73876755 2.71357849 16.98925385 2.85177612 18.27763367 C3.13453197 20.92797658 3.4154977 23.57844522 3.69384766 26.22924805 C4.05034177 29.61949286 4.41729818 33.00851334 4.78703499 36.39733601 C5.13829102 39.63526124 5.4786283 42.87433415 5.8203125 46.11328125 C5.95357941 47.32800613 6.08684631 48.54273102 6.22415161 49.79426575 C6.39961014 51.49579048 6.39961014 51.49579048 6.57861328 53.23168945 C6.68440704 54.22715286 6.79020081 55.22261627 6.89920044 56.24824524 C7.00292111 59.07974419 6.85223354 61.29648756 6 64 C2.85920546 66.09386303 2.09219864 66.25539434 -1.4921875 66.265625 C-2.79736328 66.26949219 -2.79736328 66.26949219 -4.12890625 66.2734375 C-5.03511719 66.26570312 -5.94132812 66.25796875 -6.875 66.25 C-8.22271484 66.26160156 -8.22271484 66.26160156 -9.59765625 66.2734375 C-19.75657407 66.24342593 -19.75657407 66.24342593 -23 63 C-23.18230725 61.19195644 -23.29875535 59.37722927 -23.38891602 57.56225586 C-23.4788961 55.82056374 -23.4788961 55.82056374 -23.57069397 54.04368591 C-23.63115402 52.780168 -23.69161407 51.51665009 -23.75390625 50.21484375 C-23.85166603 48.28591026 -23.85166603 48.28591026 -23.95140076 46.31800842 C-24.12488954 42.8937834 -24.29269692 39.46930235 -24.45935059 36.04473877 C-24.63029868 32.55244119 -24.80657987 29.06041336 -24.98242188 25.56835938 C-25.3268554 18.71249508 -25.66529187 11.85634578 -26 5 C-27.32 4.67 -28.64 4.34 -30 4 C-25.9385397 3.32689407 -21.87567904 2.66264518 -17.8125 2 C-16.08676758 1.71382812 -16.08676758 1.71382812 -14.32617188 1.421875 C-12.65844727 1.15117188 -12.65844727 1.15117188 -10.95703125 0.875 C-9.42526245 0.62363281 -9.42526245 0.62363281 -7.86254883 0.3671875 C-5.20154628 0.02585293 -2.67857932 -0.06884702 0 0 Z " fill="#101728" transform="translate(1363,602)"/>
<path d="M0 0 C2.21875 2.69921875 2.21875 2.69921875 3.96875 5.32421875 C7.29232489 8.83243668 10.47725232 9.93032723 15.21875 10.69921875 C17.8941528 10.67737873 20.54724661 10.61567071 23.21875 10.51171875 C29.52658139 10.29026353 33.36389746 11.13856467 38.3125 15.1640625 C41.06111991 17.37760272 43.94102127 18.44391839 47.21875 19.69921875 C46.88875 20.35921875 46.55875 21.01921875 46.21875 21.69921875 C43.84289305 22.23744497 41.54680344 22.64672935 39.140625 22.98828125 C38.41820618 23.09643158 37.69578735 23.20458191 36.95147705 23.31600952 C35.41199261 23.54392734 33.87181847 23.76722575 32.33105469 23.98632812 C30.01794535 24.31718213 27.70835032 24.66713802 25.3984375 25.01953125 C11.32934716 27.11078234 -1.04444087 27.07706121 -14.92468262 23.73608398 C-18.82061601 22.79880949 -22.72748325 21.90887313 -26.6328125 21.01171875 C-27.44717773 20.82331421 -28.26154297 20.63490967 -29.10058594 20.4407959 C-38.87562951 18.19148991 -48.7017651 16.19429982 -58.53125 14.19921875 C-60.26742272 13.84573924 -62.00358827 13.49222453 -63.73974609 13.13867188 C-67.75295153 12.32238938 -71.76685985 11.50965389 -75.78125 10.69921875 C-75.45125 9.70921875 -75.12125 8.71921875 -74.78125 7.69921875 C-66.49046083 5.86306105 -58.13902013 4.75214809 -49.71875 3.69921875 C-48.32752506 3.52253647 -46.93633056 3.34561423 -45.54516602 3.16845703 C-37.1658783 2.10530436 -28.78351717 1.07210875 -20.38671875 0.15625 C-17.82718476 -0.16819797 -15.35823307 -0.55046067 -12.83203125 -1.0390625 C-10.95064453 -1.38517578 -10.95064453 -1.38517578 -9.03125 -1.73828125 C-7.39929688 -2.07666016 -7.39929688 -2.07666016 -5.734375 -2.421875 C-2.78125 -2.30078125 -2.78125 -2.30078125 0 0 Z " fill="#21273A" transform="translate(438.78125,571.30078125)"/>
<path d="M0 0 C-0.23639226 13.71075127 -8.63907608 25.56900928 -18 35 C-23.73070893 39.86055528 -29.97459996 43.37170318 -37 46 C-38.35158203 46.53753906 -38.35158203 46.53753906 -39.73046875 47.0859375 C-43.75981522 48.21242146 -47.40160517 48.33066985 -51.5625 48.3125 C-52.6752832 48.33666992 -52.6752832 48.33666992 -53.81054688 48.36132812 C-58.39123476 48.3654071 -61.2106918 47.84385704 -65 45 C-63.67324911 41.30731894 -62.02809063 38.4523167 -59.6875 35.3125 C-57.23378606 31.91271491 -55.24765036 28.62133267 -53.5 24.8125 C-47.73862352 12.97582589 -35.53461067 6.77356943 -23.90234375 1.59375 C-22 1 -22 1 -18 1 C-18 1.66 -18 2.32 -18 3 C-11.3764681 3.3598297 -5.7640127 0 0 0 Z " fill="#4BB99E" transform="translate(564,385)"/>
<path d="M0 0 C0.66 0 1.32 0 2 0 C2.40089844 1.03898437 2.80179687 2.07796875 3.21484375 3.1484375 C7.40828885 13.60006316 12.05806681 23.24286992 22.5625 28.625 C23.696875 29.07875 24.83125 29.5325 26 30 C26.18175781 28.60201172 26.18175781 28.60201172 26.3671875 27.17578125 C27.47264527 18.76579868 28.6718968 10.37835316 30 2 C30.33 2 30.66 2 31 2 C31.02730665 4.50007582 31.04698485 6.9998449 31.0625 9.5 C31.07087891 10.19609375 31.07925781 10.8921875 31.08789062 11.609375 C31.10689849 15.71507471 30.79036104 19.59545773 30.22485352 23.66992188 C29.71775317 28.92482491 29.89983105 34.22634759 29.9375 39.5 C29.94201172 40.70398438 29.94652344 41.90796875 29.95117188 43.1484375 C29.9628805 46.09901073 29.97928005 49.04947859 30 52 C29.21052979 52.06880371 28.42105957 52.13760742 27.60766602 52.20849609 C11.76467261 53.69626355 -0.71611044 55.58745164 -14.06396484 64.76904297 C-27.80217168 73.50397851 -48.84447464 79.34434512 -65 79 C-61.89458802 76.48803062 -58.56926422 74.55641861 -55.11035156 72.58691406 C-47.57072351 68.28843673 -40.42848957 63.89171708 -34 58 C-33.13568359 57.21689453 -33.13568359 57.21689453 -32.25390625 56.41796875 C-29.73653658 53.83237768 -29.01109705 52.08877636 -28.5625 48.5 C-30.75001462 43.17387745 -34.99493403 41.47982398 -40 39 C-36.59800106 37.86600035 -35.907841 38.12421869 -32.640625 39.2578125 C-31.77961182 39.55163818 -30.91859863 39.84546387 -30.03149414 40.14819336 C-29.11360107 40.47053955 -28.19570801 40.79288574 -27.25 41.125 C-25.83352173 41.6056189 -25.83352173 41.6056189 -24.38842773 42.09594727 C-20.15955078 43.53404537 -15.94883688 45.0054924 -11.76953125 46.58203125 C-2.02371689 50.14556927 7.73728077 52.16591471 17.8125 48.5625 C20.79328599 47.3146099 20.79328599 47.3146099 22 46 C22.5384659 37.92301152 20.37510109 34.55618861 15.17919922 28.29272461 C8.39348855 20.07777218 1.64657919 10.78308567 0 0 Z " fill="#21273B" transform="translate(346,418)"/>
<path d="M0 0 C3.79838568 0.66177125 6.55620033 2.42687081 9.8125 4.4375 C18.44634774 9.51990977 26.94778011 11.91834066 36.96142578 9.53271484 C42.55923294 7.93353254 48.13444524 6.24370317 53 3 C54.32 3 55.64 3 57 3 C57.4125 3.45375 57.825 3.9075 58.25 4.375 C61.05101613 6.97594355 64.3017403 7.21184629 68 8 C62.59785638 14.13554722 52.95105499 17.07710969 45 18 C43.12746886 18.02824939 41.2549279 18.05615861 39.38232422 18.07910156 C31.11168425 18.26250335 26.39118192 20.12826866 19.3203125 24.65625 C13.61437569 28.00631575 7.31440814 29.92226383 1.0625 32 C-0.11159424 32.39767578 -1.28568848 32.79535156 -2.49536133 33.20507812 C-8.15299034 35.04406094 -13.03628384 36.55557181 -19 36 C-18.6596875 35.58492188 -18.319375 35.16984375 -17.96875 34.7421875 C-9.61781762 24.12584261 -4.05064548 12.81406119 0 0 Z " fill="#1E2538" transform="translate(442,425)"/>
<path d="M0 0 C5.04118603 1.84997652 9.39343506 4.55961464 13.96484375 7.34375 C20.63928554 10.98591643 26.40661931 11.38601531 33.875 11.375 C35.39625488 11.3747583 35.39625488 11.3747583 36.94824219 11.37451172 C46.41594647 11.23242137 56.93073157 10.37951229 65 5 C67.69921875 5.2421875 67.69921875 5.2421875 70.6875 5.875 C71.68136719 6.07867188 72.67523437 6.28234375 73.69921875 6.4921875 C74.45847656 6.65976562 75.21773437 6.82734375 76 7 C76 7.33 76 7.66 76 8 C72.37 8 68.74 8 65 8 C65 8.99 65 9.98 65 11 C63.68 11 62.36 11 61 11 C58.47479263 21.10082946 60.80381359 26.3307149 66 35 C66.68086904 36.32613709 67.35349459 37.65677516 68 39 C65.29352533 39.67511172 62.58522815 40.34027341 59.875 41 C58.73417969 41.28617188 58.73417969 41.28617188 57.5703125 41.578125 C49.22241487 43.59313477 49.22241487 43.59313477 45 43 C35.68228757 37.20315056 25.79565749 27.60517555 22.125 17.1875 C20.16008594 12.14511779 16.6191543 10.68183097 11.90625 8.4140625 C9.04182151 7.02034864 6.45967087 5.45507295 3.8125 3.6875 C3.07644531 3.19636719 2.34039063 2.70523438 1.58203125 2.19921875 C1.05996094 1.80347656 0.53789063 1.40773438 0 1 C0 0.67 0 0.34 0 0 Z " fill="#171E2F" transform="translate(1074,529)"/>
<path d="M0 0 C0.33 0 0.66 0 1 0 C1.65941125 12.23574206 0.55874652 20.88250695 -5 32 C-5.1331166 34.20677746 -5.23110511 36.41571014 -5.3125 38.625 C-5.98853768 50.91903627 -9.0943648 61.82968902 -14.5390625 72.87109375 C-16.8218507 77.76016688 -18.42182678 82.8477286 -20 88 C-20.33 88 -20.66 88 -21 88 C-21.4086685 79.8417659 -20.76903788 72.06976508 -19.625 64 C-19.49891357 63.0922583 -19.37282715 62.1845166 -19.24291992 61.24926758 C-18.59208997 56.88509342 -17.8238306 53.05042379 -16 49 C-15.62406934 47.0075675 -15.28020455 45.0081326 -15 43 C-15.99 42.67 -16.98 42.34 -18 42 C-22.08609697 37.72385201 -23.34800114 34.94421583 -23.4375 29 C-22.95298165 17.95298165 -22.95298165 17.95298165 -19 14 C-17.046875 14.12109375 -17.046875 14.12109375 -14.75 14.4375 C-12.31769089 14.60611787 -12.31769089 14.60611787 -10 14 C-7.39101187 11.33963136 -5.78221775 8.24928724 -4 5 C-2.71382009 3.29668066 -1.40181624 1.60949271 0 0 Z " fill="#3B66BA" transform="translate(590,364)"/>
<path d="M0 0 C0.33 0 0.66 0 1 0 C1.99 3.63 2.98 7.26 4 11 C5.32 11 6.64 11 8 11 C8.12375 9.865625 8.2475 8.73125 8.375 7.5625 C8.58125 6.386875 8.7875 5.21125 9 4 C9.66 3.67 10.32 3.34 11 3 C11.03867188 4.06927734 11.03867188 4.06927734 11.078125 5.16015625 C11.45653072 11.55005286 12.24786691 15.76975387 16 21 C16.66 21.33 17.32 21.66 18 22 C18.33 20.68 18.66 19.36 19 18 C19.928125 19.7015625 19.928125 19.7015625 20.875 21.4375 C26.00193723 29.60584068 34.085757 36.29537953 43 40 C44.65775195 40.3751631 46.32369052 40.71915234 48 41 C47.505 41.99 47.505 41.99 47 43 C45.2507786 43.08142927 43.50045458 43.13938541 41.75 43.1875 C40.77546875 43.22230469 39.8009375 43.25710938 38.796875 43.29296875 C35.5811889 42.95613012 34.46440658 41.98725552 32 40 C22.6036629 40.37585348 14.24340728 44.12636308 6.25 48.79296875 C4 50 4 50 2 50 C2.64187918 44.86496656 3.68272247 40.0056546 5 35 C3.35 34.34 1.7 33.68 0 33 C0.93530997 28.18983442 0.93530997 28.18983442 1.65625 26.07421875 C2.10224652 23.38303518 1.39931838 22.4075585 0.0625 20.0625 C-2.72451919 14.27630098 -2.77874696 8.31147249 -2 2 C-1.34 1.34 -0.68 0.68 0 0 Z " fill="#192031" transform="translate(1210,505)"/>
<path d="M0 0 C0.33 0 0.66 0 1 0 C1.09796875 0.6290625 1.1959375 1.258125 1.296875 1.90625 C2.82128612 10.63218954 5.31665238 17.05924656 12 23 C11.67 21.02 11.34 19.04 11 17 C11.43183594 17.58136719 11.86367188 18.16273438 12.30859375 18.76171875 C17.69008398 25.88318272 24.10662968 34.11649547 33.1015625 36.57421875 C38.56181072 36.88965142 43.28325026 34.44572209 48 32 C48 31.34 48 30.68 48 30 C47.34 29.67 46.68 29.34 46 29 C46 28.34 46 27.68 46 27 C47.98 27.66 49.96 28.32 52 29 C50.71111971 31.8751945 49.46733017 34.0071564 47 36 C44.8125 36.6875 44.8125 36.6875 43 37 C43 37.66 43 38.32 43 39 C37.64198848 41.67900576 33.99203232 42.40623948 28 42 C27.34 41.67 26.68 41.34 26 41 C26 40.34 26 39.68 26 39 C25.11957031 39.34933594 24.23914063 39.69867188 23.33203125 40.05859375 C21.58986328 40.74115234 21.58986328 40.74115234 19.8125 41.4375 C18.66394531 41.88996094 17.51539063 42.34242188 16.33203125 42.80859375 C13.52876767 43.81093301 10.92887424 44.52012795 8 45 C8 41.7 8 38.4 8 35 C4.37 35.66 0.74 36.32 -3 37 C-2.04065919 33.16263678 -1.76390737 32.40339772 1 30 C-0.08784968 26.75016865 -0.08784968 26.75016865 -2 24 C-2.25134544 20.73673357 -2.18522634 17.45930284 -2.1875 14.1875 C-2.19974609 13.27162109 -2.21199219 12.35574219 -2.22460938 11.41210938 C-2.22654297 10.52716797 -2.22847656 9.64222656 -2.23046875 8.73046875 C-2.23457764 7.91989014 -2.23868652 7.10931152 -2.24291992 6.27416992 C-1.97680855 3.78288608 -1.24619583 2.15498962 0 0 Z " fill="#20273A" transform="translate(520,347)"/>
<path d="M0 0 C0.00410889 0.73524902 0.00821777 1.47049805 0.01245117 2.22802734 C0.04567093 5.61112729 0.11634695 8.99249354 0.1875 12.375 C0.19330078 13.53128906 0.19910156 14.68757812 0.20507812 15.87890625 C0.40572513 23.77102191 1.88819426 29.26813748 6 36 C6.33 36.66 6.66 37.32 7 38 C4.16730334 39.41634833 1.52533562 39.3463005 -1.625 39.5625 C-2.81351563 39.64628906 -4.00203125 39.73007812 -5.2265625 39.81640625 C-6.14179687 39.87699219 -7.05703125 39.93757812 -8 40 C-14.61985868 29.49604057 -16.68245747 20.35083452 -15 8 C-14.4453783 5.608927 -13.76074962 3.33768809 -13 1 C-13.66 0.67 -14.32 0.34 -15 0 C-9.90986761 -1.6967108 -5.16202794 -1.11755244 0 0 Z " fill="#040A17" transform="translate(853,504)"/>
<path d="M0 0 C0.02749868 1.83324547 0.04661673 3.6666171 0.0625 5.5 C0.07410156 6.5209375 0.08570313 7.541875 0.09765625 8.59375 C0.00729256 11.74563547 -0.34309293 14.78494524 -0.76196289 17.90722656 C-1.16804702 21.47743495 -1.22417143 25.03482871 -1.25 28.625 C-1.270625 29.34945312 -1.29125 30.07390625 -1.3125 30.8203125 C-1.34737198 35.63264583 -0.53491116 38.77070085 2 43 C-2.09175719 43.99194114 -5.80507261 44.53389985 -10 44 C-16.72960374 36.03073242 -15.74369347 25.87897693 -15 16 C-13.6774389 8.95757277 -10.7420755 5.01848624 -4.90234375 0.9609375 C-3 0 -3 0 0 0 Z " fill="#040916" transform="translate(144,528)"/>
<path d="M0 0 C0.55816406 0.49757813 1.11632813 0.99515625 1.69140625 1.5078125 C4.93808155 3.60634036 7.42624248 3.29371549 11.25 3.1875 C12.51328125 3.16042969 13.7765625 3.13335938 15.078125 3.10546875 C16.04234375 3.07066406 17.0065625 3.03585937 18 3 C16.74405788 5.51188424 15.7692029 5.7290468 13.25 6.875 C10.46625642 8.18064965 8.83527327 9.15627921 6.5625 11.3125 C3.18328459 13.53783698 1.40216311 12.9913985 -2.47265625 12.37890625 C-10.46971725 11.17996511 -17.1896368 11.32320923 -24 16 C-24.66 16.66 -25.32 17.32 -26 18 C-28.3828125 18.4140625 -28.3828125 18.4140625 -31.125 18.625 C-32.03507812 18.69976563 -32.94515625 18.77453125 -33.8828125 18.8515625 C-34.93082031 18.92503906 -34.93082031 18.92503906 -36 19 C-30.66420309 9.0124827 -18.54624072 3.94272487 -8.125 0.6875 C-5.20765191 0.04568342 -2.95658609 -0.39953866 0 0 Z " fill="#47B399" transform="translate(1242,544)"/>
<path d="M0 0 C0.66 0.33 1.32 0.66 2 1 C1.51789062 1.53109375 1.03578125 2.0621875 0.5390625 2.609375 C-0.09257813 3.31578125 -0.72421875 4.0221875 -1.375 4.75 C-2.00148438 5.44609375 -2.62796875 6.1421875 -3.2734375 6.859375 C-6.16247278 10.44125585 -7.25284678 13.12580192 -7.265625 17.73828125 C-7.26820313 18.64126953 -7.27078125 19.54425781 -7.2734375 20.47460938 C-7.26570312 21.41111328 -7.25796875 22.34761719 -7.25 23.3125 C-7.25773438 24.23740234 -7.26546875 25.16230469 -7.2734375 26.11523438 C-7.25821958 31.46813779 -6.75924832 35.93867051 -5 41 C-3.35 41 -1.7 41 0 41 C-2.73762221 43.73762221 -5.79162364 44.50742273 -9.39453125 45.8046875 C-14.64113418 48.21167475 -17.64121663 51.51102437 -20.625 56.375 C-21.21667969 57.33792969 -21.80835938 58.30085938 -22.41796875 59.29296875 C-24.08760448 62.14990101 -25.61914502 64.99460975 -27 68 C-27.33 67.34 -27.66 66.68 -28 66 C-26.86448642 63.45560845 -25.67239849 61.02300485 -24.375 58.5625 C-23.29684521 56.4889701 -22.22732043 54.41236961 -21.17578125 52.32519531 C-20.35081391 50.69376072 -19.50230017 49.07412144 -18.63671875 47.46386719 C-14.99454525 40.26561741 -14.25957488 34.12960338 -14.25 26.125 C-14.21673968 23.94005314 -14.18039754 21.75515052 -14.140625 19.5703125 C-14.13337402 18.14356201 -14.13337402 18.14356201 -14.12597656 16.68798828 C-14.00137458 14.02932963 -13.59150604 11.5912198 -13 9 C-13.66 8.67 -14.32 8.34 -15 8 C-14.00097656 7.50628906 -13.00195312 7.01257813 -11.97265625 6.50390625 C-10.6692186 5.85687605 -9.36583602 5.20973489 -8.0625 4.5625 C-7.40314453 4.23701172 -6.74378906 3.91152344 -6.06445312 3.57617188 C-2.81709965 2.10888654 -2.81709965 2.10888654 0 0 Z " fill="#1E2739" transform="translate(542,422)"/>
<path d="M0 0 C0.33 0 0.66 0 1 0 C1.50813876 13.77620631 -0.42734555 24.19850939 -6.50390625 36.73046875 C-8.76897169 41.68049426 -10.40752544 46.80103895 -12 52 C-12.33 52 -12.66 52 -13 52 C-13.40303308 43.95426563 -12.82309985 36.21767846 -11.75 28.25 C-11.58600708 26.93866089 -11.58600708 26.93866089 -11.41870117 25.60083008 C-10.25616835 17.51805918 -7.43720786 10.67839808 -2.8125 3.9375 C-2.30332031 3.18339844 -1.79414062 2.42929687 -1.26953125 1.65234375 C-0.85058594 1.10707031 -0.43164062 0.56179688 0 0 Z " fill="#4783E5" transform="translate(582,400)"/>
<path d="M0 0 C2.28030304 1.71022728 3.7979461 3.05190092 4.40625 5.90625 C4.55927281 9.32375951 4.35329788 11.41629045 2.5625 14.375 C-3.05504059 17.93734281 -9.49724011 18.27671319 -16 18 C-15.4375 16.125 -15.4375 16.125 -14 14 C-10.375 12.75 -10.375 12.75 -7 12 C-12.78591511 11.89522488 -18.29309366 12.00749455 -24 13 C-23.2575 12.4225 -22.515 11.845 -21.75 11.25 C-18.98871099 9.18715985 -18.98871099 9.18715985 -17.375 6.75 C-14.4053739 4.56185446 -13.12273796 4.89433577 -9.5 5.0625 C-6.63117444 5.24653592 -6.63117444 5.24653592 -4 5 C-1.25229728 2.7211176 -1.25229728 2.7211176 0 0 Z " fill="#3766B9" transform="translate(1284,534)"/>
<path d="M0 0 C3.88111146 1.15384395 7.4702037 2.65602923 11.125 4.375 C16.93772632 7.06948249 22.89043427 9.09142711 29 11 C25.54463286 13.30357809 23.27820549 13.57608744 19.1875 14.125 C17.98480469 14.29257812 16.78210938 14.46015625 15.54296875 14.6328125 C12.3272861 14.9660806 9.22919108 15.06923227 6 15 C0.44419134 5.77448747 0.44419134 5.77448747 0 0 Z " fill="#040A17" transform="translate(890,520)"/>
<path d="M0 0 C0.66 0.33 1.32 0.66 2 1 C1.67 1.33 1.34 1.66 1 2 C0.76894879 4.44397887 0.59674731 6.86652528 0.46484375 9.31640625 C0.42186661 10.04746078 0.37888947 10.77851532 0.33460999 11.53172302 C0.19786155 13.87508604 0.06761458 16.21876017 -0.0625 18.5625 C-0.15387007 20.14781112 -0.24566141 21.73309801 -0.33789062 23.31835938 C-0.56348956 27.21197499 -0.78325697 31.10588177 -1 35 C-4.465 33.02 -4.465 33.02 -8 31 C-7.85769192 29.58297487 -7.71099254 28.1663904 -7.5625 26.75 C-7.48128906 25.96109375 -7.40007812 25.1721875 -7.31640625 24.359375 C-7 22 -7 22 -6.5 20.125 C-5.80731905 17.18110595 -5.6485235 14.26462138 -5.4375 11.25 C-5.35371094 10.07953125 -5.26992188 8.9090625 -5.18359375 7.703125 C-5.12300781 6.81109375 -5.06242187 5.9190625 -5 5 C-6.32 4.67 -7.64 4.34 -9 4 C-7.54618103 3.30300448 -6.08677047 2.61766134 -4.625 1.9375 C-3.40683594 1.36322266 -3.40683594 1.36322266 -2.1640625 0.77734375 C-1.44992187 0.52082031 -0.73578125 0.26429688 0 0 Z " fill="#1D5048" transform="translate(451,394)"/>
<path d="M0 0 C0.66 0.33 1.32 0.66 2 1 C1.525625 1.598125 1.05125 2.19625 0.5625 2.8125 C-2.89811019 7.65735427 -2.90934787 13.28815871 -2 19 C-0.03498273 23.26408747 2.3516642 27.12883568 5 31 C4.01 32.485 4.01 32.485 3 34 C-7.45201835 17.49325258 -7.45201835 17.49325258 -6 7 C-4.6875 3.5 -4.6875 3.5 -3 1 C-2.01 0.67 -1.02 0.34 0 0 Z " fill="#3B4B7B" transform="translate(1123,488)"/>
<path d="M0 0 C0.33 0 0.66 0 1 0 C1 1.65 1 3.3 1 5 C-5.61137349 7.98159981 -10.65170258 9.14408426 -18 9 C-17.4375 7.125 -17.4375 7.125 -16 5 C-12.38456234 3.65307224 -9.01088805 3.00142794 -5.1875 2.5 C-1.91453427 2.3071915 -1.91453427 2.3071915 0 0 Z " fill="#3D75DC" transform="translate(1286,543)"/>
<path d="M0 0 C6.27 0 12.54 0 19 0 C18.67 0.66 18.34 1.32 18 2 C15.57076978 2.60428612 13.212868 3.08547742 10.75 3.5 C10.03650391 3.62673096 9.32300781 3.75346191 8.58789062 3.8840332 C2.07526255 5.02663762 -4.45696768 6.04767509 -11 7 C-11 6.34 -11 5.68 -11 5 C-9.68 5 -8.36 5 -7 5 C-7 4.01 -7 3.02 -7 2 C-3.535 1.505 -3.535 1.505 0 1 C0 0.67 0 0.34 0 0 Z " fill="#194340" transform="translate(1146,535)"/>
<path d="M0 0 C0.66 0 1.32 0 2 0 C2 0.66 2 1.32 2 2 C4.31 2 6.62 2 9 2 C9 5.3 9 8.6 9 12 C5.43478346 10.21739173 2.28544643 8.24007711 -1 6 C-0.67 4.02 -0.34 2.04 0 0 Z " fill="#1B2132" transform="translate(1214,564)"/>
<path d="M0 0 C3 5.75 3 5.75 3 8 C-1.29 8 -5.58 8 -10 8 C-10.33 6.68 -10.66 5.36 -11 4 C-9.5437455 3.32880451 -8.08492133 2.66318193 -6.625 2 C-5.81289062 1.62875 -5.00078125 1.2575 -4.1640625 0.875 C-2 0 -2 0 0 0 Z " fill="#0F1F28" transform="translate(1201,567)"/>
<path d="M0 0 C0.33 0.99 0.66 1.98 1 3 C1.721875 2.9175 2.44375 2.835 3.1875 2.75 C7.07666464 3.09570352 8.34631667 4.13681536 11 7 C13.1024206 11.48963125 14.48361993 16.00259408 14 21 C12.00976962 19.00976962 11.43855387 17.84216785 10.375 15.3125 C8.30075446 10.95025079 5.42905036 8.51235173 1.609375 5.640625 C0 4 0 4 0 0 Z " fill="#1A2032" transform="translate(495,560)"/>
<path d="M0 0 C6.6 0 13.2 0 20 0 C16.31665207 3.68334793 10.64465851 3.81726017 5.625 4.375 C3 4 3 4 0 0 Z " fill="#080D1C" transform="translate(1116,568)"/>
<path d="M0 0 C0.66 0.33 1.32 0.66 2 1 C1.360625 1.78375 0.72125 2.5675 0.0625 3.375 C-2.44646277 7.04600868 -2.55732186 10.57108942 -2.7265625 14.92578125 C-2.81679688 15.61027344 -2.90703125 16.29476563 -3 17 C-3.66 17.33 -4.32 17.66 -5 18 C-5 13.71 -5 9.42 -5 5 C-6.32 4.67 -7.64 4.34 -9 4 C-7.54618103 3.30300448 -6.08677047 2.61766134 -4.625 1.9375 C-3.40683594 1.36322266 -3.40683594 1.36322266 -2.1640625 0.77734375 C-1.44992187 0.52082031 -0.73578125 0.26429688 0 0 Z " fill="#19363A" transform="translate(451,394)"/>
<path d="M0 0 C7.92 0 15.84 0 24 0 C24 0.33 24 0.66 24 1 C20.7 1.33 17.4 1.66 14 2 C14 2.33 14 2.66 14 3 C9.05 3 4.1 3 -1 3 C-0.67 2.01 -0.34 1.02 0 0 Z " fill="#1D2435" transform="translate(815,557)"/>
<path d="M0 0 C1.07765625 0.00902344 2.1553125 0.01804687 3.265625 0.02734375 C4.08546875 0.03894531 4.9053125 0.05054688 5.75 0.0625 C3.75 2.0625 3.75 2.0625 0.3125 3 C-2.963753 3.97712809 -4.22465139 4.44146062 -6.25 7.0625 C-7.24 6.0725 -8.23 5.0825 -9.25 4.0625 C-8.59 4.0625 -7.93 4.0625 -7.25 4.0625 C-7.25 3.4025 -7.25 2.7425 -7.25 2.0625 C-8.24 1.7325 -9.23 1.4025 -10.25 1.0625 C-6.78777385 -0.00473961 -3.60960734 -0.03923486 0 0 Z " fill="#35436F" transform="translate(1273.25,544.9375)"/>
<path d="M0 0 C-0.66 1.65 -1.32 3.3 -2 5 C-3.60332791 5.08121924 -5.20784026 5.13929134 -6.8125 5.1875 C-7.70582031 5.22230469 -8.59914063 5.25710938 -9.51953125 5.29296875 C-12.41647515 4.95081002 -13.22555028 4.24606427 -15 2 C-12.87528825 1.6648342 -10.75022095 1.33192171 -8.625 1 C-7.44164062 0.814375 -6.25828125 0.62875 -5.0390625 0.4375 C-2 0 -2 0 0 0 Z " fill="#343D60" transform="translate(1165,531)"/>
<path d="M0 0 C0.66 1.32 1.32 2.64 2 4 C1.29875 4.495 0.5975 4.99 -0.125 5.5 C-3.70236753 8.61075437 -6.27632648 12.14380244 -9 16 C-9.66 15.34 -10.32 14.68 -11 14 C-10.236875 13.13375 -9.47375 12.2675 -8.6875 11.375 C-6.83096735 9.1680795 -5.69133275 7.38266549 -4.375 4.75 C-3 2 -3 2 0 0 Z " fill="#1C393E" transform="translate(1211,552)"/>
<path d="M0 0 C2.27024968 -0.08097324 4.54132075 -0.13917704 6.8125 -0.1875 C8.07707031 -0.22230469 9.34164062 -0.25710938 10.64453125 -0.29296875 C14 0 14 0 15.94921875 1.51171875 C16.29597656 2.00285156 16.64273438 2.49398437 17 3 C11.39981251 4.86672916 5.25208305 3.54133051 0 1 C0 0.67 0 0.34 0 0 Z " fill="#040817" transform="translate(926,533)"/>
<path d="M0 0 C0.98613281 0.20882812 1.97226563 0.41765625 2.98828125 0.6328125 C3.98214844 0.83648438 4.97601562 1.04015625 6 1.25 C6.75925781 1.41757812 7.51851562 1.58515625 8.30078125 1.7578125 C8.30078125 2.0878125 8.30078125 2.4178125 8.30078125 2.7578125 C4.67078125 2.7578125 1.04078125 2.7578125 -2.69921875 2.7578125 C-2.69921875 3.7478125 -2.69921875 4.7378125 -2.69921875 5.7578125 C-3.68921875 5.4278125 -4.67921875 5.0978125 -5.69921875 4.7578125 C-5.69921875 3.7678125 -5.69921875 2.7778125 -5.69921875 1.7578125 C-2.69921875 -0.2421875 -2.69921875 -0.2421875 0 0 Z " fill="#1A2533" transform="translate(1141.69921875,534.2421875)"/>
<path d="M0 0 C0.66 0.33 1.32 0.66 2 1 C-0.64 3.97 -3.28 6.94 -6 10 C-6 7 -6 7 -4 4 C-6.31 3.67 -8.62 3.34 -11 3 C-11 2.67 -11 2.34 -11 2 C-10.06027344 1.90912109 -10.06027344 1.90912109 -9.1015625 1.81640625 C-7.87566406 1.69072266 -7.87566406 1.69072266 -6.625 1.5625 C-5.81289063 1.48128906 -5.00078125 1.40007812 -4.1640625 1.31640625 C-1.95727195 1.10909886 -1.95727195 1.10909886 0 0 Z " fill="#282E40" transform="translate(1028,488)"/>
<path d="M0 0 C0.66 0 1.32 0 2 0 C1.31238981 3.65564909 -0.25449545 6.51867272 -2.0625 9.75 C-2.61035156 10.73484375 -3.15820312 11.7196875 -3.72265625 12.734375 C-4.14417969 13.48203125 -4.56570313 14.2296875 -5 15 C-5.33 14.34 -5.66 13.68 -6 13 C-5.10333658 10.75689987 -4.10853317 8.55245679 -3.0625 6.375 C-2.49660156 5.18648438 -1.93070313 3.99796875 -1.34765625 2.7734375 C-0.90292969 1.85820312 -0.45820312 0.94296875 0 0 Z " fill="#191E2E" transform="translate(520,475)"/>
<path d="M0 0 C0.33 0 0.66 0 1 0 C1.18451025 11.52164009 1.18451025 11.52164009 0 17 C-2.1519437 13.77208445 -2.20086443 12.71599191 -2 9 C-1.34 9 -0.68 9 0 9 C0 6.03 0 3.06 0 0 Z " fill="#292F42" transform="translate(1223,567)"/>
<path d="M0 0 C5.28 0 10.56 0 16 0 C13.4345406 2.5654594 11.52313332 2.54046087 8 3 C8 2.34 8 1.68 8 1 C5.36 1 2.72 1 0 1 C0 0.67 0 0.34 0 0 Z " fill="#0F1424" transform="translate(1120,568)"/>
<path d="M0 0 C0.66 0.33 1.32 0.66 2 1 C-2.625 6.75 -2.625 6.75 -6 9 C-6.66 8.67 -7.32 8.34 -8 8 C-5.33333333 5.33333333 -2.66666667 2.66666667 0 0 Z " fill="#52AC93" transform="translate(1214,554)"/>
<path d="M0 0 C-2.625 1.625 -2.625 1.625 -6 3 C-9.375 2.1875 -9.375 2.1875 -12 1 C-12 0.67 -12 0.34 -12 0 C-10.56359829 -0.19573608 -9.12580496 -0.38127816 -7.6875 -0.5625 C-6.88699219 -0.66691406 -6.08648438 -0.77132812 -5.26171875 -0.87890625 C-3 -1 -3 -1 0 0 Z " fill="#429F8A" transform="translate(1260,548)"/>
<path d="M0 0 C0 3 0 3 -1.53125 4.82421875 C-2.1809375 5.43910156 -2.830625 6.05398438 -3.5 6.6875 C-4.1496875 7.31011719 -4.799375 7.93273437 -5.46875 8.57421875 C-5.9740625 9.04472656 -6.479375 9.51523437 -7 10 C-7.66 9.34 -8.32 8.68 -9 8 C-6.03 5.36 -3.06 2.72 0 0 Z " fill="#45AA91" transform="translate(1180,525)"/>
<path d="M0 0 C1.98 0.66 3.96 1.32 6 2 C4.84826645 4.46800047 3.95216435 6.04783565 2 8 C2 6.35 2 4.7 2 3 C1.34 2.67 0.68 2.34 0 2 C0 1.34 0 0.68 0 0 Z " fill="#222942" transform="translate(566,374)"/>
<path d="M0 0 C0 0.33 0 0.66 0 1 C-4.0527516 1.98248524 -7.83861737 2.08159574 -12 2 C-7.26221957 -0.36889021 -5.36029082 -1.04875255 0 0 Z " fill="#3966BB" transform="translate(1280,550)"/>
<path d="M0 0 C0.66 0.33 1.32 0.66 2 1 C0.35 2.98 -1.3 4.96 -3 7 C-3.625 5.125 -3.625 5.125 -4 3 C-2 1 -2 1 0 0 Z " fill="#38466A" transform="translate(1123,488)"/>
<path d="M0 0 C-0.33 2.31 -0.66 4.62 -1 7 C-1.33 5.68 -1.66 4.36 -2 3 C-3.32 2.67 -4.64 2.34 -6 2 C-1.125 0 -1.125 0 0 0 Z " fill="#48AC95" transform="translate(564,385)"/>
</svg>
