<?xml version="1.0" encoding="UTF-8"?>
<svg version="1.1" xmlns="http://www.w3.org/2000/svg" width="1536" height="1024">
<path d="M0 0 C506.88 0 1013.76 0 1536 0 C1536 337.92 1536 675.84 1536 1024 C1029.12 1024 522.24 1024 0 1024 C0 686.08 0 348.16 0 0 Z " fill="#060A14" transform="translate(0,0)"/>
<path d="M0 0 C8.21360257 7.67270679 14.59547601 18.52479131 15.36450195 29.85864258 C15.77644429 48.58642767 13.43391076 63.52440921 6.38647461 80.87060547 C6.08749268 81.62873535 5.78851074 82.38686523 5.48046875 83.16796875 C5.2074292 83.83594482 4.93438965 84.5039209 4.65307617 85.19213867 C4.02316842 87.97635076 4.17916307 89.56921458 5.1875 92.25 C7.5596335 94.0851268 7.5596335 94.0851268 10.62109375 95.484375 C11.74580078 96.05929687 12.87050781 96.63421875 14.02929688 97.2265625 C15.22693414 97.81959111 16.42550865 98.41073059 17.625 99 C26.65569154 103.46733706 34.04570644 108.09699619 41.1875 115.25 C41.77490967 115.82886963 42.36231934 116.40773926 42.9675293 117.00415039 C53.34595902 127.5734064 56.41256549 141.81356284 56.33657837 156.05696106 C56.31422361 158.18394737 56.28315253 160.31065647 56.25 162.4375 C56.22216457 164.58082808 56.19747424 166.72407969 56.17881775 168.86750793 C56.16119426 170.80391631 56.13376042 172.74022822 56.10571289 174.67651367 C56.18824035 178.28234795 56.64799188 181.68724444 57.1875 185.25 C58.32535452 203.37719956 56.95505414 219.35580038 49.48828125 236 C45.66285592 245.55781944 42.2000217 256.75312413 41.9765625 267.09375 C41.54684983 282.12305058 39.98508437 294.54525395 33.21386719 308.16455078 C31.99608686 310.63892747 30.81378447 313.12894008 29.6328125 315.62109375 C22.02737298 331.65562799 22.02737298 331.65562799 18.12353516 339.29296875 C14.30314363 346.77033392 10.83059538 354.3819091 7.4375 362.0625 C6.97730469 363.10067871 6.51710938 364.13885742 6.04296875 365.20849609 C4.72872958 368.21103449 3.4475669 371.22435116 2.1875 374.25 C1.76275391 375.26239746 1.33800781 376.27479492 0.90039062 377.31787109 C0.51560547 378.28934082 0.13082031 379.26081055 -0.265625 380.26171875 C-0.61270508 381.12627686 -0.95978516 381.99083496 -1.31738281 382.8815918 C-1.9253161 385.78965926 -1.39952024 386.800079 0.1875 389.25 C2.50887542 392.98999373 2.85395139 395.88104088 2.1875 400.25 C0.30623067 403.27178886 -1.7670111 405.39936532 -4.8125 407.25 C-7.24480947 407.59688977 -9.26886583 407.53120106 -11.69921875 407.203125 C-13.93130496 407.04685472 -13.93130496 407.04685472 -15.73046875 408.6953125 C-18.37605888 410.67081882 -20.17026825 410.70767546 -23.4375 410.875 C-27.27068483 411.00986432 -27.27068483 411.00986432 -30.8125 412.25 C-37.90685534 412.89494139 -43.28821153 410.93647172 -49.8125 408.25 C-49.8125 409.57 -49.8125 410.89 -49.8125 412.25 C-54.93684608 414.81217304 -61.11974271 413.28225136 -66.375 411.8125 C-71.32073814 410.45273824 -75.91012315 409.95696342 -81 409.75 C-94.53482945 409.10593868 -94.53482945 409.10593868 -99.54296875 404.7421875 C-102.03433801 401.99860555 -103.82367343 399.22999789 -105.63671875 395.984375 C-107.88809704 391.99437657 -110.53982815 388.39035077 -113.3125 384.75 C-113.83658447 384.05567871 -114.36066895 383.36135742 -114.90063477 382.64599609 C-118.43569452 377.98784864 -122.0699474 373.41886309 -125.75 368.875 C-137.62804836 354.12084491 -147.75084336 338.88752212 -156.8125 322.25 C-157.2137207 321.52055176 -157.61494141 320.79110352 -158.02832031 320.03955078 C-162.30217791 312.26171793 -166.28758299 304.40137059 -169.8125 296.25 C-174.40574739 296.88113323 -178.50720789 298.08342631 -182.875 299.625 C-201.42972475 305.95249105 -219.59967949 307.4276827 -239.0625 307.5 C-239.78521088 307.50526703 -240.50792175 307.51053406 -241.25253296 307.51596069 C-249.92555349 307.56477741 -258.19949447 307.13129737 -266.77734375 305.64819336 C-271.72859313 304.99862066 -277.26453218 304.97601609 -281.8125 307.25 C-286.25078154 308.02680202 -290.66136473 308.32049574 -295.16015625 308.14453125 C-307.31267139 307.81752283 -317.40885545 310.70994656 -328.625 315 C-329.31981476 315.2639859 -330.01462952 315.5279718 -330.73049927 315.79995728 C-345.54215937 321.0764192 -345.54215937 321.0764192 -355.8125 332.25 C-358.01741208 338.3614411 -358.17911418 344.10122459 -358.1875 350.5625 C-358.22423828 352.03493164 -358.22423828 352.03493164 -358.26171875 353.53710938 C-358.2969344 362.40558289 -356.15450332 369.18096724 -350.8125 376.25 C-350.12765248 379.22337965 -350.41488871 381.1188111 -350.8125 384.25 C-355.22551225 388.28840873 -360.50193176 387.66059959 -366.125 387.5625 C-367.49301758 387.56733398 -367.49301758 387.56733398 -368.88867188 387.57226562 C-377.59231639 387.50363474 -385.31598925 386.47176844 -391.8125 380.25 C-395.67937765 374.67144856 -396.40277667 369.5264455 -396.1875 362.875 C-396.17388428 362.04371582 -396.16026855 361.21243164 -396.14624023 360.35595703 C-395.75628811 345.19378811 -395.75628811 345.19378811 -392.8125 342.25 C-392.71225874 339.61424457 -392.67374979 337.01045755 -392.6875 334.375 C-392.68363281 333.64152344 -392.67976563 332.90804688 -392.67578125 332.15234375 C-392.68165862 328.92566762 -392.7853114 326.33156579 -393.8125 323.25 C-393.85204234 320.91700175 -393.85651732 318.58291811 -393.8125 316.25 C-396.548646 317.12785941 -399.27499665 318.02619471 -402 318.9375 C-402.76892578 319.18177734 -403.53785156 319.42605469 -404.33007812 319.67773438 C-409.25973484 321.34916305 -412.47387926 323.06880515 -415.8125 327.25 C-416.97261173 329.50585356 -416.97261173 329.50585356 -417.5625 331.8125 C-417.78421875 332.55628906 -418.0059375 333.30007813 -418.234375 334.06640625 C-418.42515625 334.78699219 -418.6159375 335.50757813 -418.8125 336.25 C-418.998125 336.85714844 -419.18375 337.46429687 -419.375 338.08984375 C-421.79226128 350.0250713 -419.65217068 362.65341175 -413.5625 373.0625 C-410.33761269 378.62182067 -410.33761269 378.62182067 -410.6875 382.25 C-411.96305893 385.65149048 -412.73979698 386.43837723 -415.8125 388.25 C-418.34277344 388.62231445 -418.34277344 388.62231445 -421.171875 388.61328125 C-422.20570313 388.61263672 -423.23953125 388.61199219 -424.3046875 388.61132812 C-425.37976563 388.59521484 -426.45484375 388.57910156 -427.5625 388.5625 C-428.62210938 388.56572266 -429.68171875 388.56894531 -430.7734375 388.57226562 C-439.52886325 388.51252016 -447.59989872 387.6285902 -454.8125 382.25 C-460.53190122 376.40061239 -463.18086886 370.79067545 -463.125 362.72460938 C-463.0940625 361.59249023 -463.0940625 361.59249023 -463.0625 360.4375 C-463.05476563 359.3227832 -463.05476563 359.3227832 -463.046875 358.18554688 C-462.99317258 354.28876506 -462.74972219 350.46150289 -462.30859375 346.58959961 C-461.77993801 341.43015832 -461.67803778 336.33115493 -461.671875 331.1484375 C-461.65356444 329.25780028 -461.63399579 327.36717491 -461.61328125 325.4765625 C-461.58426778 322.54276008 -461.56249747 319.60973689 -461.56201172 316.67578125 C-461.55866597 313.81182294 -461.52408657 310.94959341 -461.484375 308.0859375 C-461.4914447 307.21802582 -461.4985144 306.35011414 -461.50579834 305.4559021 C-461.38203555 299.21317048 -459.72858835 295.12071748 -455.8125 290.25 C-450.90560111 285.58246203 -447.25836656 285.13873072 -440.6484375 285.109375 C-438.84052734 285.08037109 -438.84052734 285.08037109 -436.99609375 285.05078125 C-434.48062629 285.01724168 -431.96490842 284.99872247 -429.44921875 284.99609375 C-417.71781365 284.7592216 -410.24033158 281.38742126 -402.0625 273.125 C-383.73860722 255.436968 -363.49569625 242.63766086 -337.8125 239.25 C-336.51054687 239.30027344 -335.20859375 239.35054687 -333.8671875 239.40234375 C-325.96826246 239.61247693 -321.34516419 238.13417979 -315.44140625 232.65234375 C-312.07504194 229.28509835 -308.82220567 225.82379356 -305.57751465 222.33998108 C-305.11752075 221.84622482 -304.65752686 221.35246857 -304.18359375 220.84375 C-303.72682251 220.35261215 -303.27005127 219.8614743 -302.79943848 219.35545349 C-296.61559581 212.79547462 -289.47481572 207.91283959 -281.8125 203.25 C-281.2045459 202.86714844 -280.5965918 202.48429688 -279.97021484 202.08984375 C-265.67881846 193.19982855 -250.38073101 188.69950194 -233.5625 189.4375 C-226.2587494 189.81938731 -226.2587494 189.81938731 -219.46875 187.515625 C-211.89989256 180.19250968 -210.20200417 171.33431107 -208.6875 161.3125 C-208.51210693 160.2002002 -208.33671387 159.08790039 -208.15600586 157.94189453 C-207.22521116 151.81331117 -206.58896296 145.8176993 -206.375 139.625 C-205.69582217 125.18115156 -199.71215178 110.89926733 -188.96875 100.98046875 C-172.9608512 88.13354996 -153.1745917 80.51003853 -133.8125 74.25 C-132.67554688 73.87230469 -131.53859375 73.49460937 -130.3671875 73.10546875 C-119.13166445 69.49114989 -107.8092293 67.08317471 -96.0534668 66.07177734 C-93.4494308 65.80767101 -91.31924328 65.58396354 -89.10546875 64.125 C-84.85455795 57.96053721 -83.27813781 54.12231293 -83.25 46.6875 C-82.69409302 28.57125395 -78.28550512 12.18834081 -64.80078125 -0.66796875 C-45.44668746 -15.93925168 -19.37014998 -15.26264049 0 0 Z " fill="#3C424F" transform="translate(536.8125,264.75)"/>
<path d="M0 0 C12.52218817 9.01419928 20.70659615 21.48031945 24.203125 36.5859375 C26.26205218 57.77104716 22.10291761 76.32301185 9.1015625 93.3359375 C7.203125 95.5859375 7.203125 95.5859375 4.890625 97.8359375 C-0.69375091 103.55018262 -4.83637814 109.18469536 -7.796875 116.5859375 C-9.046875 118.4609375 -9.046875 118.4609375 -10.796875 119.5859375 C-12.38435547 119.67294922 -12.38435547 119.67294922 -14.00390625 119.76171875 C-19.01885446 120.85147578 -20.92294999 123.15632408 -24.234375 126.8984375 C-29.59411972 132.88094613 -34.90601921 137.52444296 -43.234375 138.0859375 C-48.32485612 137.8573494 -52.3117921 135.82847895 -56.796875 133.5859375 C-58.45798349 132.90553996 -60.12343656 132.23541885 -61.796875 131.5859375 C-62.93576172 132.52566406 -62.93576172 132.52566406 -64.09765625 133.484375 C-65.09152344 134.30164063 -66.08539062 135.11890625 -67.109375 135.9609375 C-68.09550781 136.77304687 -69.08164063 137.58515625 -70.09765625 138.421875 C-72.796875 140.5859375 -72.796875 140.5859375 -75.796875 142.5859375 C-71.19768616 144.64089422 -66.64729515 146.32217774 -61.8125 147.7421875 C-59.56060129 148.68484277 -58.45555556 149.82561078 -56.796875 151.5859375 C-55.91 152.0190625 -55.023125 152.4521875 -54.109375 152.8984375 C-51.796875 154.5859375 -51.796875 154.5859375 -51.171875 157.5859375 C-51.796875 160.5859375 -51.796875 160.5859375 -53.859375 162.3359375 C-57.11539114 163.72147628 -60.38275587 164.66675158 -63.796875 165.5859375 C-64.126875 165.9159375 -64.456875 166.2459375 -64.796875 166.5859375 C-66.4984375 166.8025 -66.4984375 166.8025 -68.234375 167.0234375 C-71.83746497 167.23441301 -71.83746497 167.23441301 -73.796875 169.5859375 C-77.12954113 170.04088828 -80.49926484 169.90990545 -83.859375 169.8984375 C-84.77654297 169.91455078 -85.69371094 169.93066406 -86.63867188 169.94726562 C-92.90529785 169.95170689 -97.99477048 168.91990931 -103.796875 166.5859375 C-107.4451794 165.21782335 -110.56185862 164.48755105 -114.421875 164.2109375 C-117.50978386 163.90370879 -118.69596328 163.65239156 -121.359375 161.8984375 C-123.18407963 158.96304309 -123.10547158 156.98049984 -122.796875 153.5859375 C-123.40273437 153.62074219 -124.00859375 153.65554688 -124.6328125 153.69140625 C-125.88964844 153.73201172 -125.88964844 153.73201172 -127.171875 153.7734375 C-127.98398438 153.80824219 -128.79609375 153.84304688 -129.6328125 153.87890625 C-132.55147693 153.60865954 -134.48249609 153.00862896 -137.203125 152.0234375 C-144.11255628 149.84222488 -150.80705021 150.73848103 -157.921875 151.3984375 C-159.27329577 151.51019085 -160.62485952 151.62022912 -161.9765625 151.72851562 C-165.25179967 151.99755296 -168.52456075 152.28372552 -171.796875 152.5859375 C-171.24257812 152.85148438 -170.68828125 153.11703125 -170.1171875 153.390625 C-169.39273437 153.74382812 -168.66828125 154.09703125 -167.921875 154.4609375 C-167.20257812 154.80898438 -166.48328125 155.15703125 -165.7421875 155.515625 C-163.796875 156.5859375 -163.796875 156.5859375 -161.796875 158.5859375 C-161.734375 160.4609375 -161.734375 160.4609375 -162.796875 162.5859375 C-171.52124257 169.03438309 -183.28585294 169.56638949 -193.796875 168.5859375 C-196.17578125 167.5703125 -196.17578125 167.5703125 -197.796875 166.5859375 C-197.796875 167.2459375 -197.796875 167.9059375 -197.796875 168.5859375 C-202.4616968 171.6958187 -207.32627079 170.95877029 -212.796875 170.5859375 C-213.93125 170.2559375 -215.065625 169.9259375 -216.234375 169.5859375 C-223.28483897 167.60685989 -230.82045568 168.32584157 -238.046875 169.0859375 C-242.90345397 169.57231065 -247.73175871 169.76491439 -252.609375 169.8359375 C-253.68590332 169.8678418 -253.68590332 169.8678418 -254.78417969 169.90039062 C-261.33988178 169.94317842 -265.54323376 167.60336244 -270.734375 163.8984375 C-280.5289924 157.2931418 -291.2706821 152.31878615 -301.921875 147.2734375 C-330.82467994 133.5654273 -330.82467994 133.5654273 -341.546875 125.9609375 C-346.47589282 122.55922098 -349.86167562 121.45404418 -355.796875 121.5859375 C-356.85648438 121.56273437 -357.91609375 121.53953125 -359.0078125 121.515625 C-364.61225153 121.42902219 -370.06927039 121.59376743 -375.65234375 122.06640625 C-407.29919562 124.57353566 -439.81710385 123.77159666 -468.109375 107.5859375 C-477.44637644 102.62143099 -487.43048747 100.9775066 -497.75195312 99.13720703 C-502.61520374 98.25673719 -507.45389065 97.2581835 -512.296875 96.2734375 C-515.12966345 95.7081525 -517.96325034 95.14702026 -520.796875 94.5859375 C-524.07739668 106.3411402 -526.45297056 119.17908369 -520.796875 130.5859375 C-519.7140625 132.1328125 -519.7140625 132.1328125 -518.609375 133.7109375 C-516.34921886 137.29601275 -516.2466619 139.42003831 -516.796875 143.5859375 C-518.41188697 145.80104039 -519.28919884 146.50069128 -522.01416016 146.95825195 C-522.86284668 146.955271 -523.7115332 146.95229004 -524.5859375 146.94921875 C-525.52824219 146.94857422 -526.47054687 146.94792969 -527.44140625 146.94726562 C-528.42496094 146.93115234 -529.40851563 146.91503906 -530.421875 146.8984375 C-531.38222656 146.90166016 -532.34257813 146.90488281 -533.33203125 146.90820312 C-541.80693299 146.84495759 -549.93700308 146.56541765 -556.2890625 140.390625 C-562.67998308 132.74138846 -562.65579702 124.20386665 -561.796875 114.5859375 C-561.1694194 111.58095435 -560.38495631 108.67426542 -559.53125 105.7265625 C-558.13970762 99.77549828 -558.03821173 93.67760933 -557.796875 87.5859375 C-560.90054997 87.44078073 -564.00335527 87.35192897 -567.109375 87.2734375 C-567.99044922 87.23154297 -568.87152344 87.18964844 -569.77929688 87.14648438 C-572.20999545 87.10027338 -574.40964 87.12224033 -576.796875 87.5859375 C-580.9479845 92.04366304 -580.55765311 97.78832464 -580.796875 103.5859375 C-580.86132812 104.771875 -580.92578125 105.9578125 -580.9921875 107.1796875 C-581.27013905 116.14825754 -580.86673493 126.264571 -575.18359375 133.6953125 C-572.77926068 136.9733328 -573.41886805 139.61686448 -573.796875 143.5859375 C-574.95043945 145.30712891 -574.95043945 145.30712891 -576.796875 146.5859375 C-579.48901367 146.97412109 -579.48901367 146.97412109 -582.71484375 146.984375 C-583.88724609 146.98824219 -585.05964844 146.99210938 -586.26757812 146.99609375 C-587.49412109 146.98449219 -588.72066406 146.97289062 -589.984375 146.9609375 C-591.19158203 146.97253906 -592.39878906 146.98414063 -593.64257812 146.99609375 C-602.57638463 146.96678657 -610.17708258 146.20572992 -616.796875 139.5859375 C-622.10418054 132.29403045 -622.97784643 126.82673873 -622.984375 117.9609375 C-622.99662109 117.10886719 -623.00886719 116.25679687 -623.02148438 115.37890625 C-623.03112443 111.13085708 -622.80720747 107.26646264 -621.80859375 103.1328125 C-620.73123927 98.26250138 -620.58792104 93.54382309 -620.5234375 88.578125 C-620.50670738 87.3540242 -620.50670738 87.3540242 -620.48963928 86.10519409 C-620.45072991 82.69527662 -620.42374398 79.28562455 -620.41601562 75.87548828 C-620.40644259 73.35921544 -620.37264026 70.84412869 -620.3359375 68.328125 C-620.34350571 67.19031082 -620.34350571 67.19031082 -620.35122681 66.0295105 C-620.23394579 59.59294637 -618.26514813 54.38331371 -613.98046875 49.52734375 C-613.40425781 49.07230469 -612.82804688 48.61726562 -612.234375 48.1484375 C-611.65558594 47.67535156 -611.07679688 47.20226562 -610.48046875 46.71484375 C-605.16970637 43.1537989 -597.88951268 44.1855451 -591.796875 44.5859375 C-589.26171875 45.2578125 -589.26171875 45.2578125 -587.109375 46.0859375 C-578.35115412 49.44083611 -570.75473151 47.72831014 -562.31640625 44.21484375 C-559.1188017 42.73493132 -555.98010288 41.18236045 -552.84619141 39.57421875 C-534.47557947 30.15473891 -515.45786495 26.95588682 -495.3125 33.234375 C-490.02886322 35.26563981 -484.91248298 37.58061995 -479.84375 40.09765625 C-473.92907194 42.986749 -468.41796573 43.72266168 -462.10595703 41.74121094 C-459.15497305 40.55054412 -456.25725015 39.2754978 -453.359375 37.9609375 C-451.22723454 37.0358015 -449.09309711 36.11525489 -446.95703125 35.19921875 C-445.9117627 34.7501416 -444.86649414 34.30106445 -443.78955078 33.83837891 C-417.85941923 22.98656174 -392.56024797 22.35616678 -364.796875 22.5859375 C-364.796875 23.2459375 -364.796875 23.9059375 -364.796875 24.5859375 C-366.44140625 26.171875 -366.44140625 26.171875 -368.609375 27.9609375 C-371.44167313 30.3031294 -373.68949939 32.56780335 -375.796875 35.5859375 C-375.26320313 35.01746094 -374.72953125 34.44898438 -374.1796875 33.86328125 C-361.14134251 20.35122477 -345.55154432 13.02472191 -327.66992188 8.10595703 C-325.98013301 7.63681596 -324.30164436 7.12742466 -322.625 6.61328125 C-299.29669739 0.37499137 -274.57403786 3.86379808 -253.796875 15.5859375 C-253.796875 15.9159375 -253.796875 16.2459375 -253.796875 16.5859375 C-254.6940625 16.7096875 -255.59125 16.8334375 -256.515625 16.9609375 C-270.67147032 19.30074664 -283.00417759 24.99242869 -293.796875 34.5859375 C-288.77809475 32.6745297 -283.90605339 30.69265582 -279.171875 28.1484375 C-269.83529799 23.38427577 -259.26704369 20.14683939 -248.796875 19.5859375 C-254.48878567 26.03676959 -262.09932957 29.93973177 -269.796875 33.5859375 C-263.02304849 32.2622113 -258.56848968 28.81816557 -253.171875 24.6484375 C-251.514466 23.38742121 -249.8556536 22.12824693 -248.1953125 20.87109375 C-247.47005371 20.31301025 -246.74479492 19.75492676 -245.99755859 19.17993164 C-222.66469424 2.27952435 -186.08935181 2.97384455 -159.02661133 7.2434082 C-145.21605224 9.62890514 -130.1478689 12.72379046 -117.82421875 19.703125 C-114.71105376 21.05876139 -111.45395364 21.2439489 -108.109375 21.5859375 C-99.18290668 22.6073392 -91.16671021 24.23800342 -82.796875 27.5859375 C-82.39662109 26.26529297 -82.39662109 26.26529297 -81.98828125 24.91796875 C-77.21164283 11.55904228 -66.30529389 0.88091754 -53.796875 -5.4140625 C-35.5192468 -12.92054893 -16.49598948 -10.7606289 0 0 Z " fill="#3F4553" transform="translate(1405.796875,515.4140625)"/>
<path d="M0 0 C8.21360257 7.67270679 14.59547601 18.52479131 15.36450195 29.85864258 C15.77644429 48.58642767 13.43391076 63.52440921 6.38647461 80.87060547 C5.93800171 82.00780029 5.93800171 82.00780029 5.48046875 83.16796875 C5.2074292 83.83594482 4.93438965 84.5039209 4.65307617 85.19213867 C4.02316842 87.97635076 4.17916307 89.56921458 5.1875 92.25 C7.5596335 94.0851268 7.5596335 94.0851268 10.62109375 95.484375 C11.74580078 96.05929687 12.87050781 96.63421875 14.02929688 97.2265625 C15.22693414 97.81959111 16.42550865 98.41073059 17.625 99 C26.65569154 103.46733706 34.04570644 108.09699619 41.1875 115.25 C41.77490967 115.82886963 42.36231934 116.40773926 42.9675293 117.00415039 C53.34595902 127.5734064 56.41256549 141.81356284 56.33657837 156.05696106 C56.31422361 158.18394737 56.28315253 160.31065647 56.25 162.4375 C56.22216457 164.58082808 56.19747424 166.72407969 56.17881775 168.86750793 C56.16119426 170.80391631 56.13376042 172.74022822 56.10571289 174.67651367 C56.18824035 178.28234795 56.64799188 181.68724444 57.1875 185.25 C58.32535452 203.37719956 56.95505414 219.35580038 49.48828125 236 C45.66285592 245.55781944 42.2000217 256.75312413 41.9765625 267.09375 C41.54684983 282.12305058 39.98508437 294.54525395 33.21386719 308.16455078 C31.99608686 310.63892747 30.81378447 313.12894008 29.6328125 315.62109375 C22.02737298 331.65562799 22.02737298 331.65562799 18.12353516 339.29296875 C14.30314363 346.77033392 10.83059538 354.3819091 7.4375 362.0625 C6.74720703 363.61976807 6.74720703 363.61976807 6.04296875 365.20849609 C4.72872958 368.21103449 3.4475669 371.22435116 2.1875 374.25 C1.76275391 375.26239746 1.33800781 376.27479492 0.90039062 377.31787109 C0.51560547 378.28934082 0.13082031 379.26081055 -0.265625 380.26171875 C-0.78624512 381.55855591 -0.78624512 381.55855591 -1.31738281 382.8815918 C-1.9253161 385.78965926 -1.39952024 386.800079 0.1875 389.25 C2.50887542 392.98999373 2.85395139 395.88104088 2.1875 400.25 C0.26227043 403.17771597 -1.87130163 405.34219565 -4.8125 407.25 C-8.75 407.6875 -8.75 407.6875 -11.8125 407.25 C-12.3622272 401.61529617 -10.76297835 398.86012242 -7.8125 394.25 C-8.4725 394.25 -9.1325 394.25 -9.8125 394.25 C-10.10125 395.178125 -10.39 396.10625 -10.6875 397.0625 C-11.8125 400.25 -11.8125 400.25 -13.8125 403.25 C-16.65633123 401.9751791 -18.95004018 400.79862922 -20.8125 398.25 C-20.5 396.125 -20.5 396.125 -19.8125 394.25 C-19.8125 393.92 -19.8125 393.59 -19.8125 393.25 C-21.1325 393.91 -22.4525 394.57 -23.8125 395.25 C-26.82656444 392.62235408 -28.60780275 390.94597065 -29.75 387.0625 C-29.770625 386.134375 -29.79125 385.20625 -29.8125 384.25 C-29.1525 383.59 -28.4925 382.93 -27.8125 382.25 C-27.78874074 380.2568433 -27.78874074 380.2568433 -28.1875 378.125 C-28.39375 376.84625 -28.6 375.5675 -28.8125 374.25 C-29.59625 373.940625 -30.38 373.63125 -31.1875 373.3125 C-33.8125 372.25 -33.8125 372.25 -35.8125 371.25 C-34.85291339 368.14979712 -33.84117003 365.30505863 -32.33984375 362.421875 C-27.55494722 352.48495433 -27.58403286 341.37167999 -27.3125 330.5625 C-26.78497055 310.59306453 -24.06600896 292.62728171 -16.08984375 274.21484375 C-11.83690026 264.38354045 -10.56692392 256.8303821 -12.8125 246.3125 C-14.66745984 237.48184613 -13.97499722 228.22609634 -13.8125 219.25 C-14.76769531 219.72050781 -15.72289062 220.19101562 -16.70703125 220.67578125 C-29.10132548 226.68938075 -42.53732111 232.79316513 -56.4375 228 C-58.97009927 226.13387422 -60.26245112 224.98590289 -61.8125 222.25 C-62.02590383 219.41599714 -62.09714991 216.81983831 -62 214 C-61.98646484 213.25492188 -61.97292969 212.50984375 -61.95898438 211.7421875 C-61.92377204 209.91114584 -61.86996851 208.08047831 -61.8125 206.25 C-64.62006592 208.86251397 -66.46273801 211.17958424 -68.125 214.625 C-72.36351762 222.39987117 -77.84497055 226.0296148 -86.30078125 228.5546875 C-98.86827272 231.04302285 -109.95774138 229.61375479 -121.1875 223.375 C-127.74024048 218.07040056 -129.23658831 214.67451502 -130.64697266 206.3347168 C-131.46486667 201.60637426 -132.7410519 197.28027593 -134.375 192.75 C-137.00351363 185.2682368 -138.06519102 178.11347506 -138.8125 170.25 C-139.328125 170.8275 -139.84375 171.405 -140.375 172 C-142.76143308 174.2028613 -145.17060114 175.62169373 -148.00634766 177.17382812 C-150.97588998 178.94319046 -153.46801811 181.16123967 -156 183.5 C-156.52174805 183.97800049 -157.04349609 184.45600098 -157.58105469 184.94848633 C-161.56503821 188.72973385 -163.88697476 192.14735811 -165.8125 197.25 C-167.7925 197.25 -169.7725 197.25 -171.8125 197.25 C-171.49796875 197.90742188 -171.1834375 198.56484375 -170.859375 199.2421875 C-163.44281644 215.72839297 -161.63861403 232.85258571 -161.75 250.75 C-161.75502467 252.15885258 -161.75958587 253.56770689 -161.76367188 254.9765625 C-161.7753997 258.40108638 -161.79181309 261.82552047 -161.8125 265.25 C-165.73579059 263.41920098 -168.62342696 260.88640548 -171.75 257.9375 C-172.59836426 257.14061768 -172.59836426 257.14061768 -173.46386719 256.32763672 C-174.65366097 255.2046003 -175.84062389 254.07855803 -177.02490234 252.94970703 C-178.19143691 251.84052735 -179.36342024 250.73704207 -180.54150391 249.64013672 C-192.51950826 238.47560259 -200.68621928 227.01080033 -205.8125 211.25 C-206.13089844 210.38375 -206.44929688 209.5175 -206.77734375 208.625 C-209.23443139 201.19712217 -211.44538532 187.51577065 -207.8125 180.25 C-208.4725 180.25 -209.1325 180.25 -209.8125 180.25 C-210.19077674 171.53562468 -209.53840595 163.61003576 -207.94555664 155.07348633 C-207.03161684 150.03854766 -206.59604886 145.17178394 -206.4375 140.0625 C-205.68141618 125.43518617 -199.88558323 111.05938715 -188.96875 100.98046875 C-172.9608512 88.13354996 -153.1745917 80.51003853 -133.8125 74.25 C-132.67554688 73.87230469 -131.53859375 73.49460937 -130.3671875 73.10546875 C-119.13166445 69.49114989 -107.8092293 67.08317471 -96.0534668 66.07177734 C-93.4494308 65.80767101 -91.31924328 65.58396354 -89.10546875 64.125 C-84.85455795 57.96053721 -83.27813781 54.12231293 -83.25 46.6875 C-82.69409302 28.57125395 -78.28550512 12.18834081 -64.80078125 -0.66796875 C-45.44668746 -15.93925168 -19.37014998 -15.26264049 0 0 Z " fill="#3F4654" transform="translate(536.8125,264.75)"/>
<path d="M0 0 C0 0.33 0 0.66 0 1 C-0.8971875 1.12375 -1.794375 1.2475 -2.71875 1.375 C-16.18480244 3.60079379 -30.2658283 8.99543464 -40 19 C-40 19.66 -40 20.32 -40 21 C-40.5576001 21.04487549 -41.1152002 21.08975098 -41.68969727 21.13598633 C-56.41581727 22.35068323 -70.57569667 23.82746955 -84.5625 28.875 C-85.21774658 29.10735352 -85.87299316 29.33970703 -86.5480957 29.57910156 C-91.24958389 31.38088401 -94.56861772 33.37299192 -98 37 C-98.85685261 41.63065028 -97.63825911 44.4606728 -95.1875 48.375 C-94.66542969 49.24898437 -94.14335938 50.12296875 -93.60546875 51.0234375 C-86.57532571 59.05487527 -77.19455161 63.70481818 -67.625 68.0625 C-65.41551218 69.09257935 -63.2071646 70.12510826 -61 71.16015625 C-59.43765625 71.89129639 -59.43765625 71.89129639 -57.84375 72.63720703 C-54.36010319 74.30665384 -50.99679049 76.11552575 -47.625 78 C-38.91333859 82.81372127 -30.1847982 86.06362862 -20.17578125 86.17578125 C-19.06396484 86.19962891 -17.95214844 86.22347656 -16.80664062 86.24804688 C-14.49692633 86.290652 -12.18697635 86.32209798 -9.87695312 86.34179688 C-3.26682757 86.50562131 1.93146487 87.28940828 7.9387207 90.11865234 C10.71181349 91.30435233 13.03007525 91.37124059 16 91 C16.66 90.67 17.32 90.34 18 90 C17.39305845 86.84669446 16.3583335 84.81111133 14.4375 82.25 C13.98246094 81.63640625 13.52742188 81.0228125 13.05859375 80.390625 C12.70925781 79.93171875 12.35992188 79.4728125 12 79 C17.0500077 80.39681064 20.69594418 82.59943922 24.875 85.625 C25.76445313 86.25535156 25.76445313 86.25535156 26.671875 86.8984375 C28.11931674 87.92565422 29.56033919 88.9619063 31 90 C30.34 90.33 29.68 90.66 29 91 C29.1930687 100.39015937 30.78853782 106.80147626 37.54296875 113.53515625 C50.09587639 124.52931446 66.31953303 132.75505452 83 135 C83 135.99 83 136.98 83 138 C84.11375 138.45375 85.2275 138.9075 86.375 139.375 C90 141 90 141 92 143 C92.0625 144.875 92.0625 144.875 91 147 C82.27563243 153.44844559 70.51102206 153.98045199 60 153 C57.62109375 151.984375 57.62109375 151.984375 56 151 C56 151.66 56 152.32 56 153 C51.3351782 156.1098812 46.47060421 155.37283279 41 155 C39.865625 154.67 38.73125 154.34 37.5625 154 C30.51203603 152.02092239 22.97641932 152.73990407 15.75 153.5 C10.89342103 153.98637315 6.06511629 154.17897689 1.1875 154.25 C0.11097168 154.2819043 0.11097168 154.2819043 -0.98730469 154.31445312 C-7.54300678 154.35724092 -11.74635876 152.01742494 -16.9375 148.3125 C-26.7321174 141.7072043 -37.4738071 136.73284865 -48.125 131.6875 C-77.02780494 117.9794898 -77.02780494 117.9794898 -87.75 110.375 C-92.67901782 106.97328348 -96.06480062 105.86810668 -102 106 C-103.05960938 105.97679687 -104.11921875 105.95359375 -105.2109375 105.9296875 C-110.81537653 105.84308469 -116.27239539 106.00782993 -121.85546875 106.48046875 C-153.50232062 108.98759816 -186.02022885 108.18565916 -214.3125 92 C-223.64950144 87.03549349 -233.63361247 85.3915691 -243.95507812 83.55126953 C-248.81832874 82.67079969 -253.65701565 81.672246 -258.5 80.6875 C-261.33278845 80.122215 -264.16637534 79.56108276 -267 79 C-270.28052168 90.7552027 -272.65609556 103.59314619 -267 115 C-265.9171875 116.546875 -265.9171875 116.546875 -264.8125 118.125 C-262.55234386 121.71007525 -262.4497869 123.83410081 -263 128 C-264.61501197 130.21510289 -265.49232384 130.91475378 -268.21728516 131.37231445 C-269.06597168 131.3693335 -269.9146582 131.36635254 -270.7890625 131.36328125 C-271.73136719 131.36263672 -272.67367187 131.36199219 -273.64453125 131.36132812 C-274.62808594 131.34521484 -275.61164063 131.32910156 -276.625 131.3125 C-277.58535156 131.31572266 -278.54570313 131.31894531 -279.53515625 131.32226562 C-288.01005799 131.25902009 -296.14012808 130.97948015 -302.4921875 124.8046875 C-308.88310808 117.15545096 -308.85892202 108.61792915 -308 99 C-307.3725444 95.99501685 -306.58808131 93.08832792 -305.734375 90.140625 C-304.34283262 84.18956078 -304.24133673 78.09167183 -304 72 C-307.10367497 71.85484323 -310.20648027 71.76599147 -313.3125 71.6875 C-314.19357422 71.64560547 -315.07464844 71.60371094 -315.98242188 71.56054688 C-318.41312045 71.51433588 -320.612765 71.53630283 -323 72 C-327.1511095 76.45772554 -326.76077811 82.20238714 -327 88 C-327.06445312 89.1859375 -327.12890625 90.371875 -327.1953125 91.59375 C-327.47326405 100.56232004 -327.06985993 110.6786335 -321.38671875 118.109375 C-318.98238568 121.3873953 -319.62199305 124.03092698 -320 128 C-321.15356445 129.72119141 -321.15356445 129.72119141 -323 131 C-325.69213867 131.38818359 -325.69213867 131.38818359 -328.91796875 131.3984375 C-330.09037109 131.40230469 -331.26277344 131.40617188 -332.47070312 131.41015625 C-333.69724609 131.39855469 -334.92378906 131.38695312 -336.1875 131.375 C-337.39470703 131.38660156 -338.60191406 131.39820313 -339.84570312 131.41015625 C-348.77950963 131.38084907 -356.38020758 130.61979242 -363 124 C-368.30730554 116.70809295 -369.18097143 111.24080123 -369.1875 102.375 C-369.19974609 101.52292969 -369.21199219 100.67085937 -369.22460938 99.79296875 C-369.23424943 95.54491958 -369.01033247 91.68052514 -368.01171875 87.546875 C-366.93436427 82.67656388 -366.79104604 77.95788559 -366.7265625 72.9921875 C-366.70983238 71.7680867 -366.70983238 71.7680867 -366.69276428 70.51925659 C-366.65385491 67.10933912 -366.62686898 63.69968705 -366.61914062 60.28955078 C-366.60956759 57.77327794 -366.57576526 55.25819119 -366.5390625 52.7421875 C-366.54410797 51.98364471 -366.54915344 51.22510193 -366.55435181 50.443573 C-366.43707079 44.00700887 -364.46827313 38.79737621 -360.18359375 33.94140625 C-359.60738281 33.48636719 -359.03117188 33.03132812 -358.4375 32.5625 C-357.85871094 32.08941406 -357.27992188 31.61632812 -356.68359375 31.12890625 C-351.37283137 27.5678614 -344.09263768 28.5996076 -338 29 C-335.46484375 29.671875 -335.46484375 29.671875 -333.3125 30.5 C-324.55427912 33.85489861 -316.95785651 32.14237264 -308.51953125 28.62890625 C-305.3219267 27.14899382 -302.18322788 25.59642295 -299.04931641 23.98828125 C-280.67870447 14.56880141 -261.66098995 11.36994932 -241.515625 17.6484375 C-236.23198822 19.67970231 -231.11560798 21.99468245 -226.046875 24.51171875 C-220.13219694 27.4008115 -214.62109073 28.13672418 -208.30908203 26.15527344 C-205.35809805 24.96460662 -202.46037515 23.6895603 -199.5625 22.375 C-197.43035954 21.449864 -195.29622211 20.52931739 -193.16015625 19.61328125 C-192.1148877 19.1642041 -191.06961914 18.71512695 -189.99267578 18.25244141 C-164.06254423 7.40062424 -138.76337297 6.77022928 -111 7 C-111 7.66 -111 8.32 -111 9 C-112.64453125 10.5859375 -112.64453125 10.5859375 -114.8125 12.375 C-117.64479813 14.7171919 -119.89262439 16.98186585 -122 20 C-121.46632813 19.43152344 -120.93265625 18.86304688 -120.3828125 18.27734375 C-107.34446751 4.76528727 -91.75466932 -2.56121559 -73.87304688 -7.47998047 C-72.18325801 -7.94912154 -70.50476936 -8.45851284 -68.828125 -8.97265625 C-45.49982239 -15.21094613 -20.77716286 -11.72213942 0 0 Z " fill="#3E4552" transform="translate(1152,531)"/>
<path d="M0 0 C0.33 0 0.66 0 1 0 C1.08636719 0.98097656 1.17273438 1.96195312 1.26171875 2.97265625 C2.1242737 11.61008068 3.80434863 19.07608125 6.78125 27.25390625 C8.05500381 31.1690662 8.77137199 34.95253193 9.4375 39 C10.60585533 45.11630822 11.77548043 49.3491309 17 53 C28.28640435 59.21570095 39.88500185 60.76062326 52.5390625 58.31640625 C60.05103046 56.02478058 65.60380562 53.06558098 69.6484375 46.203125 C70.68415392 44.25294676 71.6843936 42.2833268 72.640625 40.29296875 C74 38 74 38 77 37 C77.01417969 38.09699219 77.02835938 39.19398438 77.04296875 40.32421875 C77.08988708 41.77868698 77.13813438 43.23311277 77.1875 44.6875 C77.19330078 45.40873047 77.19910156 46.12996094 77.20507812 46.87304688 C77.37470471 51.00062714 77.69165721 52.61418927 80.36328125 55.95703125 C85.89015387 60.23933404 92.30582199 59.51111433 99 59 C106.67844038 57.48894863 113.61085476 55.1552509 120.23046875 50.953125 C122 50 122 50 125 50 C125.01981934 50.57854736 125.03963867 51.15709473 125.06005859 51.75317383 C125.34779454 64.48179296 125.34779454 64.48179296 127.0625 77.0625 C129.71701191 90.48137125 126.18385507 99.45047087 120.96142578 111.70263672 C114.31943236 127.5739313 112.93384998 144.2917972 112.5 161.3125 C112.09754507 176.38141889 110.666851 188.67605506 103 202 C103.78375 202.309375 104.5675 202.61875 105.375 202.9375 C109.82180539 204.73739742 109.82180539 204.73739742 111.1875 206.75 C112.46181007 210.27885864 111.2986396 213.00453465 110.25 216.5 C109.90732019 219.92679809 110.86931319 221.35500948 113 224 C114.87092681 225.23901711 114.87092681 225.23901711 117 225 C119.27144074 223.14567913 119.27144074 223.14567913 121 221 C120.649375 221.7425 120.29875 222.485 119.9375 223.25 C118.9356049 226.18889228 118.78657983 227.1997996 120 230 C121.35444301 231.77190909 121.35444301 231.77190909 123 233 C123.66 233 124.32 233 125 233 C126.98 229.04 126.98 229.04 129 225 C129.66 225 130.32 225 131 225 C130.566875 226.0209375 130.566875 226.0209375 130.125 227.0625 C128.89099503 230.05361774 128.89099503 230.05361774 128.25 233.5625 C127 237 127 237 124.5625 239.375 C120.39713233 241.27499227 116.92462983 241.6074289 112.390625 241.82421875 C109.98566081 241.84866131 109.98566081 241.84866131 108 243 C100.90564466 243.64494139 95.52428847 241.68647172 89 239 C89 240.32 89 241.64 89 243 C83.87565392 245.56217304 77.69275729 244.03225136 72.4375 242.5625 C67.49176186 241.20273824 62.90237685 240.70696342 57.8125 240.5 C44.27767055 239.85593868 44.27767055 239.85593868 39.26953125 235.4921875 C36.77816199 232.74860555 34.98882657 229.97999789 33.17578125 226.734375 C30.92440296 222.74437657 28.27267185 219.14035077 25.5 215.5 C24.97591553 214.80567871 24.45183105 214.11135742 23.91186523 213.39599609 C20.37680548 208.73784864 16.7425526 204.16886309 13.0625 199.625 C1.18180923 184.86756267 -8.920211 169.63056308 -18 153 C-18.75991313 151.63253256 -19.52028974 150.26532252 -20.28125 148.8984375 C-24.12164195 141.92246151 -27.41334205 134.84434188 -30.48852539 127.50024414 C-32.40276584 123.04361 -34.65167318 119.55914549 -37.71875 115.84765625 C-40.49146988 111.84919131 -41.48714998 106.88897882 -42.328125 102.15161133 C-43.71583622 94.88197267 -46.57699588 88.33374857 -49.5 81.5625 C-49.99886719 80.37978516 -50.49773437 79.19707031 -51.01171875 77.97851562 C-53.3111133 72.04083252 -53.3111133 72.04083252 -57 67 C-56.625 64.875 -56.625 64.875 -56 63 C-55.38777588 63.82443604 -55.38777588 63.82443604 -54.76318359 64.66552734 C-50.41500676 70.40248476 -45.7392175 75.56637182 -40.625 80.625 C-39.92117188 81.3365625 -39.21734375 82.048125 -38.4921875 82.78125 C-33.6306867 87.6250081 -28.50822971 91.9096025 -23 96 C-23.03267813 62.51336983 -23.03267813 62.51336983 -33 31 C-33 30.01 -33 29.02 -33 28 C-31.02 28 -29.04 28 -27 28 C-26.91621094 27.27425781 -26.83242188 26.54851562 -26.74609375 25.80078125 C-24.25544253 16.45105911 -12.31357355 8.1772684 -4.328125 3.40234375 C-1.91649528 2.07706952 -1.91649528 2.07706952 0 0 Z " fill="#3F4553" transform="translate(398,434)"/>
<path d="M0 0 C0.66 0 1.32 0 2 0 C2.01417969 1.09699219 2.02835937 2.19398438 2.04296875 3.32421875 C2.08988708 4.77868698 2.13813438 6.23311277 2.1875 7.6875 C2.19330078 8.40873047 2.19910156 9.12996094 2.20507812 9.87304688 C2.37470471 14.00062714 2.69165721 15.61418927 5.36328125 18.95703125 C10.89015387 23.23933404 17.30582199 22.51111433 24 22 C31.67844038 20.48894863 38.61085476 18.1552509 45.23046875 13.953125 C47 13 47 13 50 13 C50.029729 13.86782104 50.029729 13.86782104 50.06005859 14.75317383 C50.34779454 27.48179296 50.34779454 27.48179296 52.0625 40.0625 C54.71701191 53.48137125 51.18385507 62.45047087 45.96142578 74.70263672 C39.31943236 90.5739313 37.93384998 107.2917972 37.5 124.3125 C37.09754507 139.38141889 35.666851 151.67605506 28 165 C28.78375 165.309375 29.5675 165.61875 30.375 165.9375 C33 167 33 167 35 168 C35 168.66 35 169.32 35 170 C30.72157529 168.02534244 26.72188798 165.52149585 23.1875 162.3984375 C18.71373499 159.53842344 13.0952731 160.46395244 8 161 C4.81826821 161.86774503 1.81398131 162.89926757 -1.24609375 164.125 C-4.38698273 165.12295621 -6.72405738 165.3620073 -10 165 C-24.3125492 155.46845128 -29.57972528 129.93473513 -34.26513672 114.64160156 C-37.20242071 105.08225472 -40.69409873 96.02754474 -45 87 C-45.44730469 86.05125 -45.89460938 85.1025 -46.35546875 84.125 C-51.39567154 74.19240096 -58.55370917 65.23863693 -65.72265625 56.75 C-68.352943 53.57380468 -70.18682285 50.69609189 -72 47 C-71.67 46.01 -71.34 45.02 -71 44 C-70.566875 44.9590625 -70.566875 44.9590625 -70.125 45.9375 C-69.17176549 48.15206079 -69.17176549 48.15206079 -67 49 C-66.93941406 48.39671875 -66.87882812 47.7934375 -66.81640625 47.171875 C-66.73261719 46.37265625 -66.64882813 45.5734375 -66.5625 44.75 C-66.44068359 43.56664062 -66.44068359 43.56664062 -66.31640625 42.359375 C-66 40 -66 40 -65.5 38.20507812 C-64.90129847 35.56471084 -64.78433681 33.06504569 -64.68359375 30.359375 C-64.64169922 29.28945313 -64.59980469 28.21953125 -64.55664062 27.1171875 C-64.51732422 26.00601562 -64.47800781 24.89484375 -64.4375 23.75 C-64.39431641 22.62335938 -64.35113281 21.49671875 -64.30664062 20.3359375 C-64.20067985 17.55741046 -64.09860858 14.77879609 -64 12 C-61.29376275 13.32877125 -58.81346611 14.75445991 -56.3125 16.4375 C-45.89772151 22.86121374 -34.37099089 23.64446769 -22.48046875 21.30859375 C-13.2372646 18.52981917 -8.24981327 14.60815058 -3.625 6.1875 C-3.14289063 5.23230469 -2.66078125 4.27710938 -2.1640625 3.29296875 C-1 1 -1 1 0 0 Z " fill="#060A14" transform="translate(473,471)"/>
<path d="M0 0 C0.825 0.350625 1.65 0.70125 2.5 1.0625 C10.54567632 4.9766128 17.11805022 12.05022399 20.3671875 20.421875 C22.26297828 28.14546706 22.31449003 35.62410271 18.3125 42.625 C14.18207899 48.87933258 9.02912221 51.70958415 2.1875 54.1875 C1.51396484 54.44724609 0.84042969 54.70699219 0.14648438 54.97460938 C-15.55757227 60.79037007 -33.95007957 59.24023284 -48.97363281 52.43457031 C-58.6168733 47.83160232 -66.74298645 41.82866637 -73 33 C-71.12502745 39.56240392 -67.9903024 44.36614777 -63 49 C-64 52 -64 52 -65.73046875 53.16796875 C-72.46357913 55.9618349 -78.80278104 56.39686516 -86 56.4375 C-86.91289795 56.44740967 -87.8257959 56.45731934 -88.76635742 56.4675293 C-105.8895438 56.25496139 -126.35928047 47.5413094 -139.1171875 36.1015625 C-143.3674836 31.35745606 -147.5643205 26.33881306 -148.40625 19.88671875 C-147.90908056 16.35394747 -147.18833528 15.56028935 -144.375 13.4375 C-127.1603088 1.25272638 -103.8149075 0.81460849 -83.49121094 0.86962891 C-81.10866066 0.87503709 -78.72629493 0.86962819 -76.34375 0.86328125 C-74.81510375 0.86394131 -73.28645762 0.86522098 -71.7578125 0.8671875 C-70.69991013 0.86415115 -70.69991013 0.86415115 -69.62063599 0.86105347 C-65.95509619 0.87843254 -62.56481687 1.13017432 -59 2 C-60.54572469 5.61783129 -62.7577223 8.08171063 -65.4375 10.9375 C-68.43179658 14.12911431 -70.86955377 17.17067704 -73 21 C-72.67 21.33 -72.34 21.66 -72 22 C-71.64808594 21.50371094 -71.29617188 21.00742187 -70.93359375 20.49609375 C-67.38837708 15.61794966 -63.67572308 10.85626646 -59 7 C-58.34 7 -57.68 7 -57 7 C-57 6.34 -57 5.68 -57 5 C-54.8383039 3.86450233 -52.6713811 2.74171028 -50.5 1.625 C-49.89929687 1.30789063 -49.29859375 0.99078125 -48.6796875 0.6640625 C-34.24022683 -6.70927912 -14.73401015 -6.51037658 0 0 Z " fill="#4C74AE" transform="translate(1201,551)"/>
<path d="M0 0 C17.11821467 3.62580927 35.011362 11.77406745 47.04296875 24.64453125 C47.60757813 25.18207031 48.1721875 25.71960938 48.75390625 26.2734375 C52.86906076 30.80920172 52.75128931 35.90915963 52.53125 41.8125 C51.13707361 52.75399634 46.99310937 65.11900024 38.98046875 72.95703125 C29.58345322 80.18086118 17.43883088 81.01180871 6.04296875 79.64453125 C-1.812754 77.833094 -9.75886065 74.24154522 -14.875 67.77734375 C-16.64053954 64.29725497 -17.13898292 60.57699654 -17.78930664 56.75341797 C-18.87248937 50.519218 -20.7761994 44.74998915 -22.87109375 38.7890625 C-25.2124974 32.00909869 -26.14560823 25.43312036 -23.95703125 18.45703125 C-21.66538302 15.23440093 -19.11500064 13.00746273 -16.05859375 10.5234375 C-13.88651328 8.58148451 -12.3177216 6.5391081 -10.58203125 4.20703125 C-7.27659743 0.42201439 -4.99201208 -0.4455805 0 0 Z " fill="#4AC2A8" transform="translate(423.95703125,414.35546875)"/>
<path d="M0 0 C7.73976296 5.36643721 10.77396138 12.21335528 12.5546875 21.1796875 C14.59991675 35.90892624 12.88811817 49.18651881 4 61.38671875 C0.43706958 65.63079763 -3.71093811 68.98114858 -8.0625 72.38671875 C-13.54415174 76.69194295 -18.01655029 81.03307584 -21 87.38671875 C-26.44528025 87.84607455 -28.73335519 85.79929061 -32.7890625 82.4375 C-40.40096558 75.37698919 -45.48662745 65.82761234 -46.12426758 55.34350586 C-46.71656 37.85896016 -45.15899341 21.18350226 -34.046875 6.87109375 C-24.92611818 -2.82419893 -12.41668081 -6.50506256 0 0 Z " fill="#4B72AB" transform="translate(392,373.61328125)"/>
<path d="M0 0 C5.18736778 5.04716865 5.30552189 10.24500916 5.4375 17.1875 C5.52876551 27.03214045 2.88712291 35.05961731 -1 44 C-1.39445313 44.96808594 -1.78890625 45.93617188 -2.1953125 46.93359375 C-5.21638967 53.70460937 -9.79612183 58.78708731 -15 64 C-15.5775 64.58910156 -16.155 65.17820312 -16.75 65.78515625 C-26.5432886 74.98990587 -40.99298099 78.63126266 -54.10546875 78.2890625 C-58.64258303 77.83596337 -61.55871202 76.5875056 -64.6171875 73.21875 C-69.21715166 65.83801654 -65.4187814 53.65079874 -63.875 45.6875 C-63.68744141 44.66172852 -63.49988281 43.63595703 -63.30664062 42.57910156 C-60.72300774 30.19617575 -52.77103634 22.72820618 -42.80078125 15.37890625 C-32.56040212 8.78431655 -12.49980719 -2.38091566 0 0 Z " fill="#4CC3A9" transform="translate(541,416)"/>
<path d="M0 0 C2.38255028 0.00540818 4.76491601 -0.00000071 7.14746094 -0.00634766 C8.67610718 -0.00568759 10.20475331 -0.00440792 11.73339844 -0.00244141 C12.79130081 -0.00547775 12.79130081 -0.00547775 13.87057495 -0.00857544 C17.53611475 0.00880363 20.92639407 0.26054541 24.49121094 1.13037109 C22.95775501 4.71667932 20.78745885 7.12519265 18.11621094 9.94287109 C12.56016011 16.0715262 8.61521302 20.7913475 8.97167969 29.43896484 C10.39442245 36.8094142 14.84178188 43.31174043 20.49121094 48.13037109 C19.49121094 51.13037109 19.49121094 51.13037109 17.76074219 52.29833984 C11.02763181 55.09220599 4.68842989 55.52723625 -2.50878906 55.56787109 C-3.42168701 55.57778076 -4.33458496 55.58769043 -5.27514648 55.59790039 C-22.39833286 55.38533248 -42.86806953 46.67168049 -55.62597656 35.23193359 C-59.87627267 30.48782715 -64.07310957 25.46918415 -64.91503906 19.01708984 C-64.41786963 15.48431856 -63.69712435 14.69066044 -60.88378906 12.56787109 C-43.66909786 0.38309748 -20.32369657 -0.05502042 0 0 Z " fill="#5786CD" transform="translate(1117.5087890625,551.86962890625)"/>
<path d="M0 0 C0.66 0 1.32 0 2 0 C2.01417969 1.09699219 2.02835937 2.19398438 2.04296875 3.32421875 C2.08988708 4.77868698 2.13813438 6.23311277 2.1875 7.6875 C2.19330078 8.40873047 2.19910156 9.12996094 2.20507812 9.87304688 C2.37470471 14.00062714 2.69165721 15.61418927 5.36328125 18.95703125 C10.88420534 23.23472503 17.31153363 22.4292064 24 22 C28.39698161 21.21138599 32.69375512 20.18404114 37 19 C35.61606315 21.76787371 33.64394925 22.42118459 31 24 C29.39976929 25.35529743 27.81762135 26.73211352 26.25 28.125 C21.56844213 32.05167252 16.8450498 34.74841684 11.375 37.4375 C4.98139638 40.61970772 0.75696043 43.83868518 -3.78515625 49.453125 C-14.47793912 61.74888237 -29.45790753 68.83767426 -45.22338867 71.75927734 C-47.15946795 72.12029508 -49.08177159 72.55375282 -51 73 C-51.33 73.66 -51.66 74.32 -52 75 C-52.4846875 74.32195312 -52.969375 73.64390625 -53.46875 72.9453125 C-56.9500742 68.11162774 -60.47654282 63.360427 -64.25 58.75 C-67.2922779 54.97565522 -69.93650999 51.39613088 -72 47 C-71.67 46.01 -71.34 45.02 -71 44 C-70.566875 44.9590625 -70.566875 44.9590625 -70.125 45.9375 C-69.17176549 48.15206079 -69.17176549 48.15206079 -67 49 C-66.93941406 48.39671875 -66.87882812 47.7934375 -66.81640625 47.171875 C-66.73261719 46.37265625 -66.64882813 45.5734375 -66.5625 44.75 C-66.44068359 43.56664062 -66.44068359 43.56664062 -66.31640625 42.359375 C-66 40 -66 40 -65.5 38.20507812 C-64.90129847 35.56471084 -64.78433681 33.06504569 -64.68359375 30.359375 C-64.64169922 29.28945313 -64.59980469 28.21953125 -64.55664062 27.1171875 C-64.51732422 26.00601562 -64.47800781 24.89484375 -64.4375 23.75 C-64.39431641 22.62335938 -64.35113281 21.49671875 -64.30664062 20.3359375 C-64.20067985 17.55741046 -64.09860858 14.77879609 -64 12 C-61.29376275 13.32877125 -58.81346611 14.75445991 -56.3125 16.4375 C-45.89772151 22.86121374 -34.37099089 23.64446769 -22.48046875 21.30859375 C-13.2372646 18.52981917 -8.24981327 14.60815058 -3.625 6.1875 C-3.14289063 5.23230469 -2.66078125 4.27710938 -2.1640625 3.29296875 C-1 1 -1 1 0 0 Z " fill="#1F2534" transform="translate(473,471)"/>
<path d="M0 0 C-2.50592784 2.50592784 -4.64879796 3.06371678 -8.00390625 4.20703125 C-9.22013672 4.62919922 -10.43636719 5.05136719 -11.68945312 5.48632812 C-13.61470578 6.14707581 -15.5408264 6.80513292 -17.46801758 7.46020508 C-32.02666104 12.02514913 -32.02666104 12.02514913 -43.02734375 21.9609375 C-46.21382219 28.64102484 -46.36553834 35.02229456 -46.375 42.3125 C-46.41173828 43.78493164 -46.41173828 43.78493164 -46.44921875 45.28710938 C-46.4844344 54.15558289 -44.34200332 60.93096724 -39 68 C-38.31515248 70.97337965 -38.60238871 72.8688111 -39 76 C-43.41301225 80.03840873 -48.68943176 79.41059959 -54.3125 79.3125 C-55.68051758 79.31733398 -55.68051758 79.31733398 -57.07617188 79.32226562 C-65.77981639 79.25363474 -73.50348925 78.22176844 -80 72 C-83.86687765 66.42144856 -84.59027667 61.2764455 -84.375 54.625 C-84.36138428 53.79371582 -84.34776855 52.96243164 -84.33374023 52.10595703 C-83.94378811 36.94378811 -83.94378811 36.94378811 -81 34 C-80.89975874 31.36424457 -80.86124979 28.76045755 -80.875 26.125 C-80.87113281 25.39152344 -80.86726562 24.65804687 -80.86328125 23.90234375 C-80.86915862 20.67566762 -80.9728114 18.08156579 -82 15 C-82.03954234 12.66700175 -82.04401732 10.33291811 -82 8 C-82.66 7.67 -83.32 7.34 -84 7 C-56.65623181 0.33580496 -28.07292122 -6.14095152 0 0 Z " fill="#1F2534" transform="translate(225,573)"/>
<path d="M0 0 C2.88991018 1.33969346 5.22257911 2.86506451 7.6875 4.875 C12.16023731 8.41468284 16.77396966 11.71929318 21.4375 15 C22.17508545 15.52062012 22.9126709 16.04124023 23.67260742 16.57763672 C26.85482518 18.81738088 30.04588961 21.0305567 33.28515625 23.1875 C34.18105469 23.785625 35.07695313 24.38375 36 25 C37.1446875 25.7425 37.1446875 25.7425 38.3125 26.5 C40 28 40 28 40.9921875 29.8828125 C41.00767178 34.07905282 37.34271674 36.64507484 34.6171875 39.5234375 C25.20823021 48.42683887 15.89879765 51.17682721 3.1875 51.1875 C2.43146484 51.19974609 1.67542969 51.21199219 0.89648438 51.22460938 C-7.96192315 51.24726515 -15.75222406 48.98581254 -23.9375 45.75 C-24.72455322 45.4391748 -25.51160645 45.12834961 -26.32250977 44.80810547 C-39.18292036 39.60658914 -52.65439414 31.84523128 -59 19 C-59.33 18.34 -59.66 17.68 -60 17 C-60.06950541 15.45976004 -60.08452357 13.91665012 -60.0625 12.375 C-60.05347656 11.55773437 -60.04445313 10.74046875 -60.03515625 9.8984375 C-60.02355469 9.27195312 -60.01195312 8.64546875 -60 8 C-55.38761779 8.54909312 -52.11263275 9.90171799 -48 12 C-35.75350749 16.84756995 -22.72889118 13.84454201 -11 9 C-6.75373673 6.41794917 -3.41234393 3.61307004 0 0 Z " fill="#4BC1A6" transform="translate(1241,616)"/>
<path d="M0 0 C0.66 0 1.32 0 2 0 C2.37511719 1.05058594 2.75023437 2.10117187 3.13671875 3.18359375 C5.66378563 10.15212179 8.18044999 16.8071802 11.984375 23.19921875 C13.38245066 25.67811445 14.11794139 28.2986955 15 31 C15.69286185 32.38286064 16.40383067 33.75668866 17.125 35.125 C22.98668595 46.65647147 27.81857554 58.67998186 30.36328125 71.37109375 C31.28157974 75.16259609 32.85282809 77.74670922 35 81 C35.75862759 82.30753219 36.50876081 83.62003246 37.25 84.9375 C37.8275 85.948125 38.405 86.95875 39 88 C17.85043866 99.48119044 -6.73243679 101.16261664 -30.25 101.25 C-31.33406631 101.25790054 -31.33406631 101.25790054 -32.44003296 101.26596069 C-42.0116331 101.31983512 -51.6295904 101.19088611 -61 99 C-61.66 98.34 -62.32 97.68 -63 97 C-62.45287354 96.75991211 -61.90574707 96.51982422 -61.34204102 96.27246094 C-47.57836814 90.16166037 -33.48776101 83.44503738 -22.671875 72.68359375 C-18.55761246 70.09112715 -14.51772899 70.44084343 -9.75 70.4375 C-1.21122476 70.39486703 8.16389428 69.76796421 15 64 C16.58840734 59.63187981 15.8091751 57.11607812 13.95361328 52.984375 C12.2256277 49.38860777 10.33686424 45.88247196 8.4375 42.375 C2.55703281 31.50706064 -0.34800893 22.43703676 -0.125 10 C-0.11597656 9.03449219 -0.10695313 8.06898438 -0.09765625 7.07421875 C-0.07430635 4.71587901 -0.04156047 2.35807714 0 0 Z " fill="#222736" transform="translate(328,471)"/>
<path d="M0 0 C10.46726768 3.44239014 16.34379277 11.97512963 21.265625 21.3515625 C27.27600547 33.55735638 26.3481712 46.73914115 26 60 C25.34 60 24.68 60 24 60 C24.0825 60.78375 24.165 61.5675 24.25 62.375 C23.62138933 71.48985467 19.13875396 77.56797627 13.12109375 84.1640625 C11 86 11 86 8 86 C7.85304688 85.38253906 7.70609375 84.76507813 7.5546875 84.12890625 C5.34874108 75.79955684 1.7558912 69.4541589 -4.5625 63.5625 C-8.65097767 59.66355441 -10.83620376 55.16495199 -13 50 C-13.26256592 49.42507813 -13.52513184 48.85015625 -13.7956543 48.2578125 C-16.14118997 42.74119029 -16.43349202 37.82322934 -16.3125 31.875 C-16.29977051 30.9557373 -16.28704102 30.03647461 -16.27392578 29.08935547 C-15.80384201 6.87109853 -15.80384201 6.87109853 -9.765625 1.08203125 C-6.51914617 -0.9075144 -3.55515376 -0.8302054 0 0 Z " fill="#4B74B0" transform="translate(567,373)"/>
<path d="M0 0 C0.66 0 1.32 0 2 0 C2.1959375 0.81082031 2.391875 1.62164062 2.59375 2.45703125 C6.38129851 16.48075614 13.21163779 23.96949998 25 32 C26.50379242 33.13474821 27.98561174 34.29955607 29.4375 35.5 C30.03433594 35.9846875 30.63117188 36.469375 31.24609375 36.96875 C36.32001784 42.84500953 38.03289958 50.08355955 39.6875 57.5 C40.00557617 58.84771484 40.00557617 58.84771484 40.33007812 60.22265625 C42.75801561 70.74627173 43.12945186 80.74222529 43.0625 91.5 C43.05747533 92.90885258 43.05291413 94.31770689 43.04882812 95.7265625 C43.0371003 99.15108638 43.02068691 102.57552047 43 106 C39.07670941 104.16920098 36.18907304 101.63640548 33.0625 98.6875 C32.49692383 98.15624512 31.93134766 97.62499023 31.34863281 97.07763672 C30.15883903 95.9546003 28.97187611 94.82855803 27.78759766 93.69970703 C26.62106309 92.59052735 25.44907976 91.48704207 24.27099609 90.39013672 C12.29299174 79.22560259 4.12628072 67.76080033 -1 52 C-1.31839844 51.13375 -1.63679688 50.2675 -1.96484375 49.375 C-6.0482493 37.03069567 -4.56738833 23.67948602 -1.734375 11.23828125 C-0.88488041 7.4923716 -0.38946356 3.81674288 0 0 Z " fill="#5585D1" transform="translate(332,424)"/>
<path d="M0 0 C8.97491061 1.08208142 17.7390677 2.49318917 26.58984375 4.3359375 C30.72538824 5.14125544 34.80523947 5.63203855 39 6 C38.34 6.33 37.68 6.66 37 7 C33.26837232 17.73270897 31.91192886 30.34337533 36.06640625 41.1171875 C37.08156586 43.28263655 37.08156586 43.28263655 39.1875 46.125 C41.44765614 49.71007525 41.5502131 51.83410081 41 56 C39.38498803 58.21510289 38.50767616 58.91475378 35.78271484 59.37231445 C34.50968506 59.36784302 34.50968506 59.36784302 33.2109375 59.36328125 C32.26863281 59.36263672 31.32632813 59.36199219 30.35546875 59.36132812 C29.37191406 59.34521484 28.38835938 59.32910156 27.375 59.3125 C25.93447266 59.31733398 25.93447266 59.31733398 24.46484375 59.32226562 C15.98994201 59.25902009 7.85987192 58.97948015 1.5078125 52.8046875 C-4.88310808 45.15545096 -4.85892202 36.61792915 -4 27 C-3.3725444 23.99501685 -2.58808131 21.08832792 -1.734375 18.140625 C-0.34283262 12.18956078 -0.24133673 6.09167183 0 0 Z " fill="#222736" transform="translate(848,603)"/>
<path d="M0 0 C5.65113995 1.78637859 10.96295484 4.14449881 16.3671875 6.5625 C25.7252301 10.2654674 34.30145911 10.34474204 44.26953125 10.390625 C50.83936379 10.52861448 55.96053385 11.30581433 61.93212891 14.11645508 C64.70833732 15.30265322 67.0267251 15.37165936 70 15 C70.66 14.67 71.32 14.34 72 14 C71.39305845 10.84669446 70.3583335 8.81111133 68.4375 6.25 C67.98246094 5.63640625 67.52742188 5.0228125 67.05859375 4.390625 C66.70925781 3.93171875 66.35992188 3.4728125 66 3 C71.0500077 4.39681064 74.69594418 6.59943922 78.875 9.625 C79.76445313 10.25535156 79.76445313 10.25535156 80.671875 10.8984375 C82.11931674 11.92565422 83.56033919 12.9619063 85 14 C84.34 14.33 83.68 14.66 83 15 C83.18218757 23.86094106 84.63820337 30.70282258 91.109375 37.078125 C92.5227261 38.3110483 93.96017169 39.51717961 95.42578125 40.6875 C95.94527344 41.120625 96.46476562 41.55375 97 42 C97 42.33 97 42.66 97 43 C89.54057665 43.95429723 82.14229017 44.34998756 74.625 44.5 C73.47 44.55414062 72.315 44.60828125 71.125 44.6640625 C62.15616504 44.80578224 56.99658648 42.48611618 50 37 C49.26555664 36.44505859 48.53111328 35.89011719 47.77441406 35.31835938 C45.75027174 33.75220674 43.77701882 32.14011196 41.8125 30.5 C41.12760498 29.93611572 40.44270996 29.37223145 39.73706055 28.79125977 C35.60901099 25.38014842 31.53103028 21.91711164 27.53515625 18.3515625 C26.14470149 17.12739623 24.69980885 15.96575704 23.25 14.8125 C21 13 21 13 19.1953125 11.01171875 C16.72085282 8.74419787 14.80818658 7.99864677 11.625 7 C7.16881846 5.4907444 3.69963816 3.89971639 0 1 C0 0.67 0 0.34 0 0 Z " fill="#202635" transform="translate(1098,607)"/>
<path d="M0 0 C0.7115625 -0.020625 1.423125 -0.04125 2.15625 -0.0625 C6.50862524 -0.09498041 8.76545555 0.34929614 12 3.25 C15.15118325 3.97045367 15.15118325 3.97045367 18 4.25 C13.91162596 14.40354431 -1.55053491 20.05807715 -11 24.25 C-17.86573528 27.04625603 -24.11328439 29.37415735 -31.5703125 29.3828125 C-32.63121094 29.38410156 -33.69210937 29.38539063 -34.78515625 29.38671875 C-35.88730469 29.38285156 -36.98945312 29.37898437 -38.125 29.375 C-39.78982422 29.38080078 -39.78982422 29.38080078 -41.48828125 29.38671875 C-43.07576172 29.38478516 -43.07576172 29.38478516 -44.6953125 29.3828125 C-45.66484863 29.38168457 -46.63438477 29.38055664 -47.63330078 29.37939453 C-50 29.25 -50 29.25 -52 28.25 C-52 27.26 -52 26.27 -52 25.25 C-50.63671875 23.99609375 -50.63671875 23.99609375 -48.6875 22.6875 C-44.99750424 20.07702427 -41.73459739 17.21716731 -38.4375 14.125 C-30.11694198 6.53192246 -22.94632196 4.08991057 -12 1.25 C-11.04673828 0.95416016 -11.04673828 0.95416016 -10.07421875 0.65234375 C-6.73622497 0.00486096 -3.38739637 0.02454635 0 0 Z " fill="#4FC3A8" transform="translate(1318,638.75)"/>
<path d="M0 0 C0.66 0.33 1.32 0.66 2 1 C7.34781982 25.91048975 1.1027799 51.64350048 -12 73 C-13.56791191 75.17321838 -15.15329075 77.0477645 -17 79 C-17.33 79 -17.66 79 -18 79 C-18.96428987 25.94180428 -18.96428987 25.94180428 -10.1015625 14.5625 C-8.74346876 13.27003904 -7.34607056 12.01715213 -5.90625 10.81640625 C-2.75589999 7.81453585 -1.4229903 4.04428823 0 0 Z " fill="#5682C8" transform="translate(591,442)"/>
<path d="M0 0 C2 1 2 1 3.1875 4.5 C7.793282 17.33202946 20.43200009 26.71502367 32 33 C38.21459897 35.16817652 46.29678953 35.12208737 52.3125 32.625 C56.2903375 28.73967035 59.6620555 24.43929674 63 20 C64 22 64 22 63.43359375 23.91796875 C59.9696747 31.81027058 56.22402184 37.66912377 48 41 C44.37890625 41.30078125 44.37890625 41.30078125 40.5625 41.3125 C34.88839607 41.60675392 31.37558573 41.91738857 27.421875 46.10546875 C25.22461285 49.03313947 23.17128498 52.02121333 21.26171875 55.14453125 C20 57 20 57 18 58 C18.165 56.865625 18.33 55.73125 18.5 54.5625 C19.77025625 46.22255758 19.77025625 46.22255758 17.49609375 38.44140625 C15.45248051 36.52963989 15.45248051 36.52963989 13.19921875 34.8046875 C5.51395006 28.49812598 1.57531665 16.54456556 0 7 C-0.03824623 4.66698014 -0.04574284 2.33288492 0 0 Z " fill="#232837" transform="translate(464,354)"/>
<path d="M0 0 C0.33 0 0.66 0 1 0 C1.32871094 1.66675781 1.32871094 1.66675781 1.6640625 3.3671875 C4.36874489 16.35697293 9.01973772 25.10537875 17.74853516 35.06762695 C21 38.80039825 21 38.80039825 21 41 C16.71862763 42.16764701 13.31952222 42.00274623 9 41 C6.3125 39.0625 6.3125 39.0625 4 37 C2.68861096 36.29114106 1.36222983 35.60543548 0 35 C0 34.34 0 33.68 0 33 C-1.39025391 32.81824219 -1.39025391 32.81824219 -2.80859375 32.6328125 C-4.00613281 32.46523438 -5.20367188 32.29765625 -6.4375 32.125 C-7.63246094 31.96257813 -8.82742188 31.80015625 -10.05859375 31.6328125 C-11.02925781 31.42398438 -11.99992187 31.21515625 -13 31 C-13.33 30.34 -13.66 29.68 -14 29 C-9.38 28.67 -4.76 28.34 0 28 C0.0309375 26.14375 0.0309375 26.14375 0.0625 24.25 C0.07410156 23.55390625 0.08570313 22.8578125 0.09765625 22.140625 C0.08155267 20.03562159 0.08155267 20.03562159 -0.49609375 18.21484375 C-1.24287431 14.9324827 -1.14410981 11.65990111 -1.125 8.3125 C-1.12886719 7.62349609 -1.13273437 6.93449219 -1.13671875 6.22460938 C-1.12669335 1.12669335 -1.12669335 1.12669335 0 0 Z " fill="#232E3B" transform="translate(1321,602)"/>
<path d="M0 0 C0 0.33 0 0.66 0 1 C1.98 1.33 3.96 1.66 6 2 C2.67850232 5.56170575 -0.9865425 8.31894588 -4.9375 11.125 C-5.54529297 11.56714844 -6.15308594 12.00929688 -6.77929688 12.46484375 C-10.04018226 14.79354507 -13.09616832 16.90013786 -17 18 C-17.99 17.67 -18.98 17.34 -20 17 C-17.19394232 14.76805527 -14.42926279 13.1463312 -11.1875 11.625 C-6.74557478 9.45997274 -2.92830395 6.98892692 1 4 C-11.50037509 5.17928067 -21.84833989 9.57187405 -33 15 C-34.74497575 15.84380334 -36.49407159 16.67923216 -38.25 17.5 C-38.91515625 17.8196875 -39.5803125 18.139375 -40.265625 18.46875 C-42 19 -42 19 -45 18 C-14.77894737 -4.92631579 -14.77894737 -4.92631579 0 0 Z " fill="#161B29" transform="translate(1155,532)"/>
<path d="M0 0 C3.92914076 1.42682301 7.22463236 3.32883453 10.75 5.5625 C16.05845014 8.72917447 19.85398355 9.89756639 26 10 C26.33 9.34 26.66 8.68 27 8 C26.7834375 8.8353125 26.7834375 8.8353125 26.5625 9.6875 C26.376875 10.450625 26.19125 11.21375 26 12 C25.7525 12.804375 25.505 13.60875 25.25 14.4375 C24.91187824 17.903248 25.84350682 19.32297398 28 22 C29.87092681 23.23901711 29.87092681 23.23901711 32 23 C34.27144074 21.14567913 34.27144074 21.14567913 36 19 C35.4740625 20.11375 35.4740625 20.11375 34.9375 21.25 C33.9356049 24.18889228 33.78657983 25.1997996 35 28 C36.35444301 29.77190909 36.35444301 29.77190909 38 31 C38.66 31 39.32 31 40 31 C41.32 28.36 42.64 25.72 44 23 C44.66 23 45.32 23 46 23 C45.566875 24.0209375 45.566875 24.0209375 45.125 25.0625 C43.89674264 28.09301696 43.89674264 28.09301696 43.0625 31.75 C42.711875 32.8225 42.36125 33.895 42 35 C41.01 35.33 40.02 35.66 39 36 C39 35.01 39 34.02 39 33 C38.43667969 32.75765625 37.87335937 32.5153125 37.29296875 32.265625 C34.55277068 30.7531477 32.58464926 28.90140703 30.3125 26.75 C22.82636263 19.92150281 15.55560637 15.39134255 6 12 C6 11.01 6 10.02 6 9 C7.0209375 9.6496875 7.0209375 9.6496875 8.0625 10.3125 C11.28394352 12.16311649 14.5744777 13.56750886 18 15 C19.34013497 15.65288627 20.67741528 16.31225595 22 17 C18.04501855 12.66353412 13.77724987 9.80082029 8.75 6.8125 C7.30456889 5.94854954 5.86171516 5.08026764 4.421875 4.20703125 C3.47199707 3.64205933 3.47199707 3.64205933 2.50292969 3.06567383 C1 2 1 2 0 0 Z " fill="#262C3A" transform="translate(483,636)"/>
<path d="M0 0 C0.9796875 0.27585937 1.959375 0.55171875 2.96875 0.8359375 C5.5 1.625 5.5 1.625 7.5 2.625 C17.42986225 3.58629659 26.68736541 3.59212131 35.5 -1.375 C36.16 -1.045 36.82 -0.715 37.5 -0.375 C34.035 2.1 34.035 2.1 30.5 4.625 C30.995 5.615 30.995 5.615 31.5 6.625 C20.55362661 10.75882681 10.06296375 8.97812686 -0.5 4.625 C-1.25925781 4.31691406 -2.01851562 4.00882813 -2.80078125 3.69140625 C-4.37909658 3.03034833 -5.94221509 2.33308405 -7.5 1.625 C-7.5 0.965 -7.5 0.305 -7.5 -0.375 C-4.62771562 -1.81114219 -3.04313963 -0.87290058 0 0 Z " fill="#29454A" transform="translate(1188.5,622.375)"/>
<path d="M0 0 C5 5 5 5 7.27734375 7.30078125 C10.25995133 10.25771358 13.29863784 13.14130498 16.375 16 C16.91382813 16.50789062 17.45265625 17.01578125 18.0078125 17.5390625 C20.85429283 20.1822228 23.73026475 22.58207903 26.9140625 24.8125 C28.44160156 25.8953125 28.44160156 25.8953125 30 27 C30 27.33 30 27.66 30 28 C20.32258065 28.16129032 20.32258065 28.16129032 18 27 C17.08326908 25.64652463 16.1719859 24.28912595 15.28417969 22.91650391 C13.77498269 20.6641852 12.17017214 18.49964474 10.546875 16.328125 C9.928125 15.49925781 9.309375 14.67039062 8.671875 13.81640625 C7.3775128 12.08795917 6.08058473 10.36143092 4.78125 8.63671875 C4.16765625 7.81300781 3.5540625 6.98929688 2.921875 6.140625 C2.08027832 5.01962402 2.08027832 5.01962402 1.22167969 3.87597656 C0 2 0 2 0 0 Z " fill="#242A38" transform="translate(1028,609)"/>
<path d="M0 0 C2.64 0.66 5.28 1.32 8 2 C7.73445313 2.92039062 7.46890625 3.84078125 7.1953125 4.7890625 C4.76114742 13.51296799 3.05545273 21.98698916 2 31 C1.34 30.67 0.68 30.34 0 30 C0 20.1 0 10.2 0 0 Z " fill="#232936" transform="translate(1315,541)"/>
<path d="M0 0 C5.24477564 -0.55208165 8.87444977 1.02884333 13.5859375 3.04296875 C16.36329431 4.14402444 19.03232127 4.68761276 22 5 C22 5.99 22 6.98 22 8 C23.32 8.66 24.64 9.32 26 10 C23 12 23 12 20.58911133 11.76782227 C17.99858906 10.99958157 15.91958099 10.04781941 13.57421875 8.71484375 C12.77822266 8.26689453 11.98222656 7.81894531 11.16210938 7.35742188 C10.34548828 6.88884766 9.52886719 6.42027344 8.6875 5.9375 C7.85154297 5.46505859 7.01558594 4.99261719 6.15429688 4.50585938 C4.09930735 3.34332244 2.04812263 2.17457909 0 1 C0 0.67 0 0.34 0 0 Z " fill="#2D3540" transform="translate(1213,661)"/>
<path d="M0 0 C0.99 0 1.98 0 3 0 C4.50930882 3.01861764 4.18438844 6.12991303 4.1875 9.4375 C4.19974609 10.11876953 4.21199219 10.80003906 4.22460938 11.50195312 C4.23555848 15.22829809 4.12005619 16.81991571 2 20 C1.34 20 0.68 20 0 20 C0 13.4 0 6.8 0 0 Z " fill="#454B5A" transform="translate(412,492)"/>
<path d="M0 0 C0.67958771 0.00141495 1.35917542 0.0028299 2.05935669 0.00428772 C4.20888862 0.00984107 6.35831258 0.02238456 8.5078125 0.03515625 C9.97395682 0.04017729 11.44010279 0.04473914 12.90625 0.04882812 C16.48180533 0.05979514 20.05729836 0.07702706 23.6328125 0.09765625 C17.93901231 5.81901087 11.99613023 11.12631427 5.6328125 16.09765625 C7.16499935 12.46703958 9.3511269 10.11127895 12.1328125 7.34765625 C12.926875 6.5484375 13.7209375 5.74921875 14.5390625 4.92578125 C16.6328125 3.09765625 16.6328125 3.09765625 18.6328125 3.09765625 C18.6328125 2.43765625 18.6328125 1.77765625 18.6328125 1.09765625 C2.7928125 1.59265625 2.7928125 1.59265625 -13.3671875 2.09765625 C-13.3671875 1.76765625 -13.3671875 1.43765625 -13.3671875 1.09765625 C-8.85350498 0.21982701 -4.59498771 -0.01898755 0 0 Z " fill="#1F232F" transform="translate(1022.3671875,536.90234375)"/>
<path d="M0 0 C1.98 0 3.96 0 6 0 C7 2.5625 7 2.5625 7 6 C5.2571151 7.94683952 3.32702114 9.44845532 1.2734375 11.0625 C-1.84310219 13.71852008 -4.12818801 16.80343542 -6.5546875 20.08203125 C-8 22 -8 22 -10 24 C-9.52256787 19.23259797 -8.406258 16.69840226 -5.3125 13.0625 C-4.23935547 11.78439453 -4.23935547 11.78439453 -3.14453125 10.48046875 C-2.43683594 9.66191406 -1.72914062 8.84335937 -1 8 C-0.38511719 7.27425781 0.22976563 6.54851563 0.86328125 5.80078125 C2.23127625 4.19118331 3.61389086 2.59402551 5 1 C3.35 1 1.7 1 0 1 C0 0.67 0 0.34 0 0 Z " fill="#425471" transform="translate(1137,552)"/>
<path d="M0 0 C4.69099594 1.76762166 8.91914039 4.11187663 13.28125 6.5625 C15.93168695 8.04884955 15.93168695 8.04884955 18.65625 8.9375 C21.38124262 10.17282999 22.41832303 11.50261532 24 14 C23.33613281 13.79503906 22.67226563 13.59007812 21.98828125 13.37890625 C21.10527344 13.10949219 20.22226562 12.84007812 19.3125 12.5625 C18.44238281 12.29566406 17.57226562 12.02882813 16.67578125 11.75390625 C14.0222737 10.95435965 14.0222737 10.95435965 11.328125 10.55078125 C7.89000253 9.73739993 6.3637643 7.54559232 4 5 C3.236875 4.443125 2.47375 3.88625 1.6875 3.3125 C1.130625 2.879375 0.57375 2.44625 0 2 C0 1.34 0 0.68 0 0 Z " fill="#212635" transform="translate(408,385)"/>
<path d="M0 0 C2 3 2 3 1.6875 5.75 C1.460625 6.8225 1.23375 7.895 1 9 C0.66140041 11.33257494 0.3267961 13.66574212 0 16 C-0.66 16 -1.32 16 -2 16 C-2.66 17.98 -3.32 19.96 -4 22 C-4.99 22 -5.98 22 -7 22 C-8.68798827 23.43750191 -8.68798827 23.43750191 -10 25 C-10.66 24.67 -11.32 24.34 -12 24 C-11.52949219 23.41992188 -11.05898438 22.83984375 -10.57421875 22.2421875 C-4.84847488 15.05833495 -1.70358567 9.01898296 0 0 Z " fill="#3E4C61" transform="translate(404,414)"/>
<path d="M0 0 C3.92914076 1.42682301 7.22463236 3.32883453 10.75 5.5625 C16.05845014 8.72917447 19.85398355 9.89756639 26 10 C26.33 9.34 26.66 8.68 27 8 C26.67 9.32 26.34 10.64 26 12 C24.68 12 23.36 12 22 12 C22.33 13.32 22.66 14.64 23 16 C20.39111705 14.33980176 17.78257462 12.67910404 15.17578125 11.015625 C13.07542047 9.68255469 10.96870274 8.3594427 8.85546875 7.046875 C7.87191406 6.43328125 6.88835937 5.8196875 5.875 5.1875 C4.96492188 4.62417969 4.05484375 4.06085937 3.1171875 3.48046875 C1 2 1 2 0 0 Z " fill="#1C202E" transform="translate(483,636)"/>
<path d="M0 0 C0.33 0 0.66 0 1 0 C1.61077305 7.57358576 0.24900431 12.65820253 -4 19 C-5.76052953 20.84364466 -7.60050328 22.54575734 -9.484375 24.26171875 C-12.05075802 27.20512195 -12.40041558 30.202632 -13 34 C-13.33 34 -13.66 34 -14 34 C-14.36857107 30.99877846 -14.59181186 28.91788978 -14 26 C-12.43920912 24.00923918 -10.70920629 22.46390375 -8.81640625 20.7890625 C-5.95099567 17.96678713 -4.53807246 14.66651617 -3 11 C-2.4121875 9.700625 -2.4121875 9.700625 -1.8125 8.375 C-0.86581979 5.60778091 -0.40357984 2.89232215 0 0 Z " fill="#3D4E6E" transform="translate(591,433)"/>
<path d="M0 0 C0.33 0 0.66 0 1 0 C1 2.31 1 4.62 1 7 C1.66 7 2.32 7 3 7 C3 7.66 3 8.32 3 9 C2.34 9 1.68 9 1 9 C0.34 10.32 -0.32 11.64 -1 13 C-1.66 13 -2.32 13 -3 13 C-3.33 12.34 -3.66 11.68 -4 11 C-5.98 12.98 -7.96 14.96 -10 17 C-10.66 16.67 -11.32 16.34 -12 16 C-11.38511719 15.43152344 -10.77023437 14.86304688 -10.13671875 14.27734375 C-5.4312882 9.78204407 -1.99132308 6.23947899 0 0 Z " fill="#2D3342" transform="translate(326,438)"/>
<path d="M0 0 C0.33 0 0.66 0 1 0 C0.22095672 13.6332574 0.22095672 13.6332574 -2 20 C-2.66 20 -3.32 20 -4 20 C-4.38882348 13.10198348 -3.79990717 7.36870077 -1 1 C-0.67 0.67 -0.34 0.34 0 0 Z " fill="#424B61" transform="translate(331,425)"/>
<path d="M0 0 C1.98 0 3.96 0 6 0 C2.67850232 3.56170575 -0.9865425 6.31894588 -4.9375 9.125 C-5.54529297 9.56714844 -6.15308594 10.00929688 -6.77929688 10.46484375 C-10.04018226 12.79354507 -13.09616832 14.90013786 -17 16 C-17.99 15.67 -18.98 15.34 -20 15 C-17.19394232 12.76805527 -14.42926279 11.1463312 -11.1875 9.625 C-6.74557478 7.45997274 -2.92830395 4.98892692 1 2 C0.67 1.34 0.34 0.68 0 0 Z " fill="#212736" transform="translate(1155,534)"/>
<path d="M0 0 C0.66 0.33 1.32 0.66 2 1 C-4.25926928 9.33227486 -10.68786083 17.62735997 -19 24 C-17.38413436 20.05428159 -14.6478236 17.28632075 -11.75 14.25 C-7.48979354 9.70596574 -3.61726576 5.08372485 0 0 Z " fill="#282E3C" transform="translate(553,507)"/>
<path d="M0 0 C0.33 0 0.66 0 1 0 C1.21432579 6.64409958 0.51233701 12.53205867 -1 19 C-1.33 18.01 -1.66 17.02 -2 16 C-2.99 16.33 -3.98 16.66 -5 17 C-4.54619105 15.10307857 -4.08675008 13.20750405 -3.625 11.3125 C-3.36976563 10.25675781 -3.11453125 9.20101563 -2.8515625 8.11328125 C-2.08094511 5.29593234 -1.14501457 2.68331675 0 0 Z " fill="#2E454F" transform="translate(477,455)"/>
<path d="M0 0 C0 0.66 0 1.32 0 2 C-1.08667969 2.56267578 -1.08667969 2.56267578 -2.1953125 3.13671875 C-7.63368018 6.01542804 -12.46482671 8.83254346 -17 13 C-17.66 12.67 -18.32 12.34 -19 12 C-17.36359575 8.43841427 -16.34098722 7.16393616 -12.75 5.4375 C-12.14285156 5.21320313 -11.53570312 4.98890625 -10.91015625 4.7578125 C-8.86615433 3.94689967 -7.0741205 2.93895817 -5.1875 1.8125 C-2 0 -2 0 0 0 Z " fill="#242836" transform="translate(398,440)"/>
<path d="M0 0 C0.66 0.33 1.32 0.66 2 1 C-5.11389522 8.66742597 -5.11389522 8.66742597 -10 10 C-10 10.66 -10 11.32 -10 12 C-12.31 12 -14.62 12 -17 12 C-13.57629654 9.71753103 -10.03708371 7.68652485 -6.47265625 5.6328125 C-3.97168836 3.98130448 -2.03943957 2.1861278 0 0 Z " fill="#244949" transform="translate(1276,654)"/>
<path d="M0 0 C0.58007812 0.40992188 1.16015625 0.81984375 1.7578125 1.2421875 C6.06084535 4.21028607 9.8686189 6.68426126 15 8 C15 8.33 15 8.66 15 9 C11.9375 9.875 11.9375 9.875 8 10 C5.29299161 8.3570499 3.18700172 6.27361565 1 4 C0.43796875 3.43796875 -0.1240625 2.8759375 -0.703125 2.296875 C-1.13109375 1.86890625 -1.5590625 1.4409375 -2 1 C-1.34 0.67 -0.68 0.34 0 0 Z " fill="#405172" transform="translate(356,453)"/>
<path d="M0 0 C0.33 0 0.66 0 1 0 C1.103125 1.03125 1.20625 2.0625 1.3125 3.125 C2.12466342 6.16906289 2.9417583 6.9593806 5.58203125 8.80078125 C8.35401569 10.29174592 11.13704135 11.69299714 14 13 C13.01 13.495 13.01 13.495 12 14 C9.92803369 13.26821134 7.8891448 12.44100997 5.875 11.5625 C4.77929688 11.08941406 3.68359375 10.61632812 2.5546875 10.12890625 C1.71164062 9.75636719 0.86859375 9.38382812 0 9 C0 6.03 0 3.06 0 0 Z " fill="#222635" transform="translate(547,428)"/>
<path d="M0 0 C1.43931117 0.45261358 2.87638999 0.91232979 4.3125 1.375 C5.11300781 1.63023437 5.91351562 1.88546875 6.73828125 2.1484375 C9 3 9 3 12 5 C12 5.66 12 6.32 12 7 C8.80862651 6.36747553 6.48762632 5.24396936 3.75 3.5 C3.04359375 3.0565625 2.3371875 2.613125 1.609375 2.15625 C1.07828125 1.7746875 0.5471875 1.393125 0 1 C0 0.67 0 0.34 0 0 Z " fill="#3A4951" transform="translate(1217,661)"/>
<path d="M0 0 C0.185625 0.9590625 0.185625 0.9590625 0.375 1.9375 C0.684375 2.9584375 0.684375 2.9584375 1 4 C1.66 4.33 2.32 4.66 3 5 C1.71034824 6.37562854 0.37310707 7.70766393 -1 9 C-1.66 9 -2.32 9 -3 9 C-2.5020163 5.26512223 -2.12508244 3.18762365 0 0 Z " fill="#283844" transform="translate(406,420)"/>
<path d="M0 0 C4.94117647 4.61176471 4.94117647 4.61176471 6 8 C5.0390625 10.125 5.0390625 10.125 4 12 C3.32332002 10.75539217 2.65905281 9.50403104 2 8.25 C1.62875 7.55390625 1.2575 6.8578125 0.875 6.140625 C0 4 0 4 0 0 Z " fill="#414C67" transform="translate(1127,582)"/>
<path d="M0 0 C0.33 0.66 0.66 1.32 1 2 C-1.62315032 3.31157516 -3.23033436 2.89649988 -6.125 2.5625 C-7.03507812 2.46066406 -7.94515625 2.35882812 -8.8828125 2.25390625 C-9.58148437 2.17011719 -10.28015625 2.08632813 -11 2 C-11 1.67 -11 1.34 -11 1 C-9.5437328 0.63743142 -8.08488815 0.28520207 -6.625 -0.0625 C-5.40683594 -0.35833984 -5.40683594 -0.35833984 -4.1640625 -0.66015625 C-2 -1 -2 -1 0 0 Z " fill="#31404B" transform="translate(1219,627)"/>
<path d="M0 0 C1.125 3.75 1.125 3.75 0 6 C-0.66 6 -1.32 6 -2 6 C-2.0825 6.598125 -2.165 7.19625 -2.25 7.8125 C-3.20455872 10.5966296 -4.57132271 11.43311142 -7 13 C-5.35821735 8.22390502 -2.73453298 4.20617096 0 0 Z " fill="#364158" transform="translate(582,508)"/>
<path d="M0 0 C-0.33 0.33 -0.66 0.66 -1 1 C-0.34 1.66 0.32 2.32 1 3 C-2.96 3 -6.92 3 -11 3 C-3.71428571 -1.85714286 -3.71428571 -1.85714286 0 0 Z " fill="#363D53" transform="translate(1142,549)"/>
<path d="M0 0 C0.33 0 0.66 0 1 0 C1.3690205 9.41002278 1.3690205 9.41002278 -1 14 C-1.66 13.67 -2.32 13.34 -3 13 C-2.01 8.71 -1.02 4.42 0 0 Z " fill="#485B83" transform="translate(591,433)"/>
<path d="M0 0 C5.28 0 10.56 0 16 0 C16 0.33 16 0.66 16 1 C12.37 1 8.74 1 5 1 C5 1.66 5 2.32 5 3 C2.525 2.01 2.525 2.01 0 1 C0 0.67 0 0.34 0 0 Z " fill="#091F1F" transform="translate(1232,667)"/>
<path d="M0 0 C4.455 1.98 4.455 1.98 9 4 C4.23374833 5.19156292 3.12120649 4.3415946 -1 2 C-0.67 1.34 -0.34 0.68 0 0 Z " fill="#3D4E59" transform="translate(1201,654)"/>
<path d="M0 0 C2 1 2 1 3 3 C0.35261084 4.4606285 -0.89448334 5 -4 5 C-2.25 1.125 -2.25 1.125 0 0 Z " fill="#444C5E" transform="translate(1155,547)"/>
</svg>
