<?xml version="1.0" encoding="UTF-8"?>
<svg version="1.1" xmlns="http://www.w3.org/2000/svg" width="1536" height="1024">
<path d="M0 0 C506.88 0 1013.76 0 1536 0 C1536 337.92 1536 675.84 1536 1024 C1029.12 1024 522.24 1024 0 1024 C0 686.08 0 348.16 0 0 Z " fill="#060A15" transform="translate(0,0)"/>
<path d="M0 0 C1.39867265 1.03113823 2.77538771 2.09293255 4.125 3.1875 C4.73859375 3.67734375 5.3521875 4.1671875 5.984375 4.671875 C13.25446234 11.16991767 18.6568726 20.91166534 19.28613281 30.69189453 C19.33204292 33.56554665 19.3602616 36.43851216 19.375 39.3125 C19.4059375 40.78589844 19.4059375 40.78589844 19.4375 42.2890625 C19.47007155 48.47765638 18.66305755 53.76772202 16.86914062 59.68701172 C15.88366477 62.99844337 15.33011643 66.28214124 14.75 69.6875 C13.46458288 76.40328893 11.30059011 82.15011327 8.125 88.1875 C9.10339844 88.46013672 9.10339844 88.46013672 10.1015625 88.73828125 C10.97554687 88.98964844 11.84953125 89.24101562 12.75 89.5 C13.60851562 89.74363281 14.46703125 89.98726563 15.3515625 90.23828125 C18.125 91.1875 18.125 91.1875 21 92.65625 C23.81235969 94.03430625 26.51927547 94.97592352 29.52832031 95.82080078 C48.37852911 101.11921262 64.28712269 110.39314856 75.125 127.1875 C77.44126288 131.36311912 79.47678692 135.63899098 81.3203125 140.04296875 C83.69939274 144.18833583 86.79679624 147.05005516 90.25 150.3125 C104.84079311 164.55214974 113.20691253 179.36246346 118.25 199.0625 C121.52188388 211.17751531 126.12684983 219.63081096 134.77929688 228.70166016 C137.86132111 232.10463539 139.57679211 235.91593848 141.125 240.1875 C141.74568359 241.87166016 141.74568359 241.87166016 142.37890625 243.58984375 C146.95742297 257.02835367 148.39458797 271.16215598 150.125 285.1875 C150.32971924 286.83081299 150.32971924 286.83081299 150.53857422 288.50732422 C151.7811335 298.59678274 152.90649147 308.69308376 153.8359375 318.81640625 C155.33949526 335.56887501 155.33949526 335.56887501 157.875 352.1875 C157.99544678 352.92798584 158.11589355 353.66847168 158.23999023 354.43139648 C159.46225225 360.28567918 162.31988372 363.03266157 167.125 366.1875 C169.76044001 367.70046264 172.45318756 368.94070758 175.25 370.125 C176.01916748 370.46072021 176.78833496 370.79644043 177.58081055 371.14233398 C184.45293447 374.06551494 191.49759499 376.34207688 198.6105957 378.59765625 C205.98529716 380.99445148 212.50785483 384.14846334 219.125 388.1875 C218.875 390.578125 218.875 390.578125 218.125 393.1875 C216.3125 394.296875 216.3125 394.296875 214.125 394.9375 C211.37573314 395.63966869 211.37573314 395.63966869 209.125 397.1875 C206.61010484 397.47143978 204.09510418 397.6356124 201.5703125 397.80859375 C198.87431222 398.0507494 198.87431222 398.0507494 196.125 400.1875 C187.39330989 401.5212928 181.88806077 398.8866831 174.9609375 393.91796875 C171.98048964 391.71948504 169.04530611 389.46533877 166.125 387.1875 C169.54347464 390.72183507 169.54347464 390.72183507 173.4375 393.6875 C174.2728125 394.43 174.2728125 394.43 175.125 395.1875 C175.23046875 397.78125 175.23046875 397.78125 175.125 400.1875 C163.75098195 401.76506072 157.2219695 397.9931374 147.9375 392.25585938 C139.68581354 387.39198815 130.65282102 385.18662385 121.125 386.1875 C119.00522738 386.80274453 116.90086137 387.47286122 114.8125 388.1875 C107.93531111 390.48532851 99.66845583 392.14859626 92.75390625 389.1640625 C92.21636719 388.84179688 91.67882812 388.51953125 91.125 388.1875 C91.125 386.5375 91.125 384.8875 91.125 383.1875 C91.62386719 382.97996094 92.12273438 382.77242187 92.63671875 382.55859375 C101.65724376 378.68802736 110.50709169 374.423791 118.125 368.1875 C120.41385374 366.75309263 122.75496304 365.48869676 125.125 364.1875 C125.68662918 355.40090061 124.12064412 347.89808602 121.625 339.5 C121.08033081 337.64290405 121.08033081 337.64290405 120.5246582 335.74829102 C117.64390619 326.25344689 114.13143783 317.72764501 109.125 309.1875 C108.20047159 307.58857014 107.27599545 305.98961005 106.3515625 304.390625 C104.90728959 301.90049093 103.45962875 299.41264972 102.00097656 296.9309082 C98.63407925 291.17783826 95.63147333 285.37230431 93.125 279.1875 C92.60099609 277.98673828 92.60099609 277.98673828 92.06640625 276.76171875 C91.04015091 273.95548527 90.55865735 271.32929068 90.125 268.375 C89.62624123 265.00392507 89.02187969 261.79052873 88.1640625 258.48828125 C86.86710405 253.4478291 86.19640134 248.33944869 85.5 243.1875 C85.3659375 242.22199219 85.231875 241.25648438 85.09375 240.26171875 C84.76695846 237.90415124 84.44412927 235.54611476 84.125 233.1875 C89.15777036 234.95368517 91.52940751 237.34105222 95.125 241.1875 C90.8569194 231.71812503 82.72885329 225.52648418 74.703125 219.2421875 C55.52044126 203.95416985 48.43799763 188.07247452 45.5703125 164.21875 C45.41921571 162.87529642 45.2696892 161.53165877 45.125 160.1875 C44.46177734 161.76144531 44.46177734 161.76144531 43.78515625 163.3671875 C33.85737519 186.47205259 16.49156903 204.48570545 -6.78125 214.09375 C-17.39281335 217.8453128 -31.65386558 218.02908999 -41.875 213.1875 C-43.59765625 211.70703125 -43.59765625 211.70703125 -44.875 210.1875 C-44.875 209.5275 -44.875 208.8675 -44.875 208.1875 C-45.535 208.1875 -46.195 208.1875 -46.875 208.1875 C-47.205 204.5575 -47.535 200.9275 -47.875 197.1875 C-48.865 197.1875 -49.855 197.1875 -50.875 197.1875 C-50.9678125 198.2084375 -50.9678125 198.2084375 -51.0625 199.25 C-52.5728007 204.71031792 -54.90935995 207.99669732 -59.69921875 210.8984375 C-62.72591838 212.42481739 -65.76058521 213.84979259 -68.875 215.1875 C-69.7 215.55230469 -70.525 215.91710937 -71.375 216.29296875 C-86.31936437 221.64024912 -103.80797953 218.28628706 -117.80859375 211.8359375 C-135.94733374 201.70540877 -149.22111046 180.92709124 -154.875 161.1875 C-155.12894531 161.80238281 -155.38289063 162.41726563 -155.64453125 163.05078125 C-155.98871094 163.85902344 -156.33289063 164.66726563 -156.6875 165.5 C-157.02394531 166.30050781 -157.36039062 167.10101563 -157.70703125 167.92578125 C-158.875 170.1875 -158.875 170.1875 -160.40234375 171.66796875 C-162.3408967 173.66822631 -162.80758954 175.5347717 -163.625 178.1875 C-167.45361545 189.05905356 -173.91767833 196.62716784 -182.08203125 204.46484375 C-184.24914537 206.57740115 -186.21620268 208.66237699 -188.125 211 C-190.70975889 214.12733219 -193.63365556 216.66845155 -196.72265625 219.2890625 C-199.90472254 222.09574892 -202.84064837 225.1305771 -205.796875 228.171875 C-210.96802326 233.1875 -210.96802326 233.1875 -214.875 233.1875 C-216.08676285 237.47262641 -215.96327472 241.62861538 -215.90234375 246.046875 C-215.88969172 247.82031051 -215.87733119 249.59374812 -215.86523438 251.3671875 C-215.84048872 254.14948137 -215.8125703 256.93166466 -215.77905273 259.71386719 C-215.74864201 262.40820983 -215.73100851 265.10241428 -215.71484375 267.796875 C-215.70138412 268.61798767 -215.6879245 269.43910034 -215.67405701 270.28509521 C-215.64006941 278.20486491 -217.56937037 284.83998178 -220.5625 292.1875 C-220.81942627 292.82486084 -221.07635254 293.46222168 -221.34106445 294.11889648 C-222.72695597 297.52281872 -224.17911217 300.88542657 -225.71875 304.22265625 C-229.65248198 312.77857516 -232.33235517 320.83210556 -233.875 330.1875 C-234.12878418 331.4873584 -234.12878418 331.4873584 -234.38769531 332.81347656 C-235.80717254 340.42157411 -236.11858941 347.71094379 -236 355.4375 C-235.99097656 356.57574219 -235.98195313 357.71398437 -235.97265625 358.88671875 C-235.9494028 361.65387881 -235.91672868 364.4205676 -235.875 367.1875 C-231.08053839 369.05114523 -226.4425061 370.59953647 -221.4375 371.8125 C-214.75131913 373.66339556 -209.06742663 376.53513831 -203.01782227 379.89111328 C-198.07297119 382.61911092 -193.16529726 384.77981294 -187.78125 386.53125 C-185.875 387.1875 -185.875 387.1875 -184.875 388.1875 C-184.5 390.5625 -184.5 390.5625 -184.875 393.1875 C-188.05864346 396.07267689 -191.17289485 396.70035721 -195.4296875 396.5546875 C-199.6715897 395.91772455 -203.67172081 394.52976985 -207.7265625 393.16015625 C-212.43331531 391.70608497 -217.01850401 391.03104668 -221.9375 390.9375 C-222.75347656 390.91171875 -223.56945312 390.8859375 -224.41015625 390.859375 C-227.58070222 391.28144451 -229.32288592 392.26713875 -231.875 394.1875 C-233.59270901 396.5078423 -233.59270901 396.5078423 -234.9375 399.125 C-236.8826091 402.69731948 -238.66352353 405.63238369 -241.875 408.1875 C-244.41796875 408.61328125 -244.41796875 408.61328125 -247.0625 408.5 C-247.94292969 408.47550781 -248.82335937 408.45101563 -249.73046875 408.42578125 C-251.875 408.1875 -251.875 408.1875 -252.875 407.1875 C-252.49077388 403.11470311 -251.99555529 399.72175882 -249.875 396.1875 C-252.68615461 396.54427673 -253.70455843 396.99608688 -255.62109375 399.1484375 C-256.17925781 399.94507813 -256.73742187 400.74171875 -257.3125 401.5625 C-262.05410481 407.85462958 -262.05410481 407.85462958 -265.875 409.1875 C-269.25790569 409.56337841 -272.51267564 409.7687832 -275.875 409.1875 C-276.34292969 408.68863281 -276.81085938 408.18976563 -277.29296875 407.67578125 C-278.87080453 405.88875878 -278.87080453 405.88875878 -281.79296875 405.89453125 C-282.87191406 405.92933594 -283.95085937 405.96414063 -285.0625 406 C-286.14917969 406.02707031 -287.23585938 406.05414062 -288.35546875 406.08203125 C-289.18691406 406.11683594 -290.01835937 406.15164063 -290.875 406.1875 C-291.205 404.8675 -291.535 403.5475 -291.875 402.1875 C-292.535 402.5175 -293.195 402.8475 -293.875 403.1875 C-296.5473621 403.32165472 -299.19750488 403.23068541 -301.875 403.1875 C-302.205 401.8675 -302.535 400.5475 -302.875 399.1875 C-302.32714844 398.77242187 -301.77929688 398.35734375 -301.21484375 397.9296875 C-292.97100175 391.5222786 -285.39691888 384.41961589 -277.875 377.1875 C-277.10535416 376.54671005 -277.10535416 376.54671005 -276.32015991 375.89297485 C-271.36184751 370.04152751 -273.74809866 356.00830355 -273.77734375 348.76953125 C-273.77921402 347.41761834 -273.78063504 346.06570473 -273.78163147 344.71379089 C-273.78540873 341.19414321 -273.79519674 337.67453828 -273.80633545 334.15490723 C-273.81665392 330.54793882 -273.82115121 326.94096336 -273.82617188 323.33398438 C-273.83682444 316.285139 -273.85384159 309.23632232 -273.875 302.1875 C-275.29515663 302.40311081 -275.29515663 302.40311081 -276.7440033 302.62307739 C-277.99371414 302.80820892 -279.24342499 302.99334045 -280.53100586 303.18408203 C-282.38428749 303.46156784 -282.38428749 303.46156784 -284.27500916 303.74465942 C-289.04316857 304.33119827 -293.6499435 304.24624516 -298.4375 304.0625 C-307.01622147 303.89876634 -313.79456584 305.22681182 -321.875 308.1875 C-330.56972281 310.62599459 -339.26913371 311.82803977 -348.22265625 312.7578125 C-350.91459142 313.07451076 -353.28034111 313.49458985 -355.875 314.1875 C-355.97507438 318.13427971 -356.04702516 322.08055205 -356.09472656 326.02832031 C-356.12435477 328.01914478 -356.17522326 330.00961708 -356.2265625 332 C-356.34392343 343.61873212 -353.79058455 351.02902316 -346.875 360.1875 C-345.6904869 363.74103929 -345.60858106 366.45763478 -345.875 370.1875 C-346.890625 371.8828125 -346.890625 371.8828125 -348.875 373.1875 C-351.63673495 373.49105276 -354.11784018 373.6145614 -356.875 373.5625 C-357.6373999 373.55234863 -358.3997998 373.54219727 -359.18530273 373.53173828 C-368.93393143 373.26600704 -377.91424183 371.52584646 -384.875 364.1875 C-388.59330016 358.57762272 -390.01804396 353.2568092 -390 346.5625 C-390.00257813 345.60085938 -390.00515625 344.63921875 -390.0078125 343.6484375 C-389.875 341.1875 -389.875 341.1875 -388.875 339.1875 C-387.29489814 328.65348762 -387.19506414 317.69376557 -388.875 307.1875 C-391.35539849 307.99639048 -393.83430212 308.80941901 -396.3125 309.625 C-397.37307617 309.97014648 -397.37307617 309.97014648 -398.45507812 310.32226562 C-401.93806795 311.26171147 -401.93806795 311.26171147 -404.875 313.1875 C-405.49957937 317.8294356 -405.66176711 322.51174457 -405.875 327.1875 C-405.92108398 328.06470703 -405.96716797 328.94191406 -406.01464844 329.84570312 C-406.58550344 341.90449425 -406.31859509 351.8616147 -401.1875 362.91015625 C-399.80442037 366.36373902 -399.29161917 368.51532603 -399.875 372.1875 C-402.69427471 374.85983022 -404.66310321 375.56957703 -408.5078125 375.5859375 C-409.39726562 375.58980469 -410.28671875 375.59367187 -411.203125 375.59765625 C-412.12609375 375.58605469 -413.0490625 375.57445312 -414 375.5625 C-414.89976562 375.57410156 -415.79953125 375.58570313 -416.7265625 375.59765625 C-423.96634445 375.56645029 -431.22403953 374.75801363 -437.27734375 370.49609375 C-444.76551387 361.36929098 -445.95486653 351.78562446 -444.875 340.1875 C-444.25053687 338.0903778 -443.57116491 336.00898477 -442.84375 333.9453125 C-439.91554059 324.1260112 -440.65555083 314.39830989 -441.0324707 304.25732422 C-441.63109532 286.69654458 -441.63109532 286.69654458 -437.40771484 281.57446289 C-431.29933696 276.04695497 -425.76693843 275.5457463 -417.8125 274.875 C-403.07853384 273.27694837 -393.06640543 267.91915689 -381.875 258.1875 C-367.06321725 245.61992676 -355.73037689 238.96655444 -335.875 240.1875 C-333.45397729 240.4875632 -331.03669642 240.81992785 -328.625 241.1875 C-315.13242754 243.23412616 -308.40449776 242.1259284 -297.15820312 233.9375 C-289.94717998 228.58301652 -283.25201178 222.77937725 -276.66796875 216.671875 C-271.64274981 212.20189004 -266.2660898 208.20214134 -260.875 204.1875 C-260.194375 203.671875 -259.51375 203.15625 -258.8125 202.625 C-256.53088495 200.93491478 -254.31837775 199.38381575 -251.71630859 198.23168945 C-248.25303109 196.65399036 -245.57225117 195.3719982 -243.6015625 192.02416992 C-242.66450777 189.43416914 -241.9300458 186.85633667 -241.25 184.1875 C-240.69103461 182.29037083 -240.12331258 180.39579978 -239.546875 178.50390625 C-239.27037109 177.58883301 -238.99386719 176.67375977 -238.70898438 175.73095703 C-233.54587409 159.98467981 -221.61358445 145.3465563 -207.875 136.1875 C-206.89200252 134.1135297 -206.89200252 134.1135297 -206.125 131.6875 C-198.65325902 112.09180196 -181.05808965 101.47057246 -162.90820312 93.06152344 C-158.61095155 91.2142419 -154.13808255 89.92520787 -149.67578125 88.53515625 C-144.77203717 86.89972243 -140.2399989 84.54151913 -135.6796875 82.12890625 C-126.73587296 77.42163544 -117.63449142 74.34316724 -107.8125 72 C-106.72718994 71.73880371 -105.64187988 71.47760742 -104.52368164 71.20849609 C-95.62346239 69.1637534 -86.99292462 68.2125837 -77.875 68.1875 C-77.68164062 67.60742188 -77.48828125 67.02734375 -77.2890625 66.4296875 C-74.875 59.1875 -74.875 59.1875 -73.8359375 56.46484375 C-72.60959786 52.28232768 -72.24473369 48.20567698 -71.875 43.875 C-70.41232545 26.98652629 -65.76148965 13.96834409 -52.875 2.1875 C-37.41058599 -9.57890196 -16.51896958 -10.40806699 0 0 Z " fill="#3C4252" transform="translate(516.875,258.8125)"/>
<path d="M0 0 C1.90111748 -0.01150229 3.80220312 -0.03192629 5.703125 -0.06152344 C18.07740015 -0.25328132 28.81506832 0.64676863 40.67749023 4.29516602 C42.42568808 4.76032591 44.17527895 5.22036045 45.92749023 5.67016602 C48.80098214 6.48039652 50.67380078 7.29248494 53.10717773 9.06079102 C57.14004392 11.84288421 60.31942009 13.6056086 65.34790039 12.94360352 C72.62900549 11.27962415 79.64530378 8.78371076 86.67749023 6.29516602 C100.38388459 1.7510808 113.24026384 -0.12258128 127.67749023 -0.07983398 C128.40193329 -0.07895782 129.12637634 -0.07808167 129.87277222 -0.07717896 C148.72183808 -0.00218026 167.87564366 2.30768038 183.73217773 13.43969727 C186.93563803 15.45779228 189.19898531 16.00957682 192.92749023 16.48266602 C198.54867668 17.23075924 198.54867668 17.23075924 200.67749023 18.29516602 C204.53013342 18.93727321 206.56569581 18.97683618 209.93920898 16.90844727 C211.60321551 15.67317028 213.26181398 14.43058469 214.91577148 13.18188477 C223.59173038 7.25474453 232.59193618 5.10882553 242.86499023 5.04516602 C244.08412109 5.01422852 244.08412109 5.01422852 245.32788086 4.98266602 C252.21696796 4.93882139 258.07206685 6.40231874 264.17749023 9.60766602 C267.45988005 10.51032321 269.75647868 9.85332695 273.00561523 8.99829102 C274.32819336 8.65024414 274.32819336 8.65024414 275.67749023 8.29516602 C276.29237305 8.12686279 276.90725586 7.95855957 277.54077148 7.78515625 C302.3318214 1.5564612 335.16848618 7.14374959 357.86499023 18.73266602 C362.24377117 21.37835392 365.37039826 24.68098206 367.67749023 29.29516602 C369.28594211 52.44632586 363.12155518 76.49092395 353.00952148 97.25610352 C351.04170073 101.74573562 349.45160264 106.34668334 347.86499023 110.98266602 C347.55045898 111.87477783 347.23592773 112.76688965 346.91186523 113.68603516 C345.08891634 119.1219675 344.3372077 123.56374053 344.67749023 129.29516602 C355.93971836 134.32681241 367.15044671 139.29477639 378.84692383 143.23364258 C385.35404371 145.45216027 391.50311791 148.26703907 397.67749023 151.29516602 C397.34749023 152.94516602 397.01749023 154.59516602 396.67749023 156.29516602 C395.02749023 156.29516602 393.37749023 156.29516602 391.67749023 156.29516602 C391.4519043 156.94098633 391.22631836 157.58680664 390.99389648 158.25219727 C389.67749023 160.29516602 389.67749023 160.29516602 387.32983398 160.86938477 C385.98598633 160.92545898 385.98598633 160.92545898 384.61499023 160.98266602 C381.33943872 160.87613061 381.33943872 160.87613061 378.67749023 162.29516602 C365.96809488 163.43857183 358.71999511 158.23752161 348.67749023 151.29516602 C348.67749023 151.62516602 348.67749023 151.95516602 348.67749023 152.29516602 C350.15152141 153.51475133 351.65716263 154.69630465 353.17749023 155.85766602 C354.01280273 156.49833008 354.84811523 157.13899414 355.70874023 157.79907227 C356.35842773 158.2927832 357.00811523 158.78649414 357.67749023 159.29516602 C357.34749023 160.61516602 357.01749023 161.93516602 356.67749023 163.29516602 C347.83569393 164.18075134 342.82232214 163.33518023 335.61108398 158.18579102 C326.16755704 152.09968311 314.77132158 149.8010028 303.67749023 151.29516602 C300.81929551 152.18192949 298.11319093 153.2436955 295.35327148 154.39672852 C290.8914816 155.89484775 286.31957253 155.96952257 281.67749023 155.29516602 C280.68749023 154.63516602 279.69749023 153.97516602 278.67749023 153.29516602 C279.42749023 148.54516602 279.42749023 148.54516602 281.67749023 146.29516602 C283.22436523 145.67641602 283.22436523 145.67641602 284.80249023 145.04516602 C289.3226471 143.18282395 292.86401327 140.30389784 296.67749023 137.29516602 C298.11192242 136.20777388 299.54935338 135.12432439 300.98999023 134.04516602 C301.62549805 133.56563477 302.26100586 133.08610352 302.91577148 132.59204102 C304.470495 131.44754388 306.07117217 130.36604472 307.67749023 129.29516602 C310.35728997 121.43798595 309.98170645 112.67383222 309.92749023 104.48266602 C309.93522461 103.29479492 309.94295898 102.10692383 309.95092773 100.88305664 C309.94834961 99.73385742 309.94577148 98.5846582 309.94311523 97.40063477 C309.94085937 96.37091553 309.93860352 95.34119629 309.9362793 94.28027344 C309.65424278 91.02700887 308.75359439 88.36683377 307.67749023 85.29516602 C307.55249023 81.92016602 307.55249023 81.92016602 307.67749023 79.29516602 C306.48124023 79.79016602 305.28499023 80.28516602 304.05249023 80.79516602 C300.46647548 82.15427837 297.54344225 82.58511242 293.67749023 82.29516602 C293.45706055 83.09567383 293.45706055 83.09567383 293.23217773 83.91235352 C289.91581873 94.92876447 284.03642928 102.53992812 275.67749023 110.29516602 C270.65663927 114.98129358 267.62747516 119.88720281 265.05249023 126.17016602 C263.67749023 129.29516602 263.67749023 129.29516602 261.67749023 130.29516602 C260.56374023 130.27776367 260.56374023 130.27776367 259.42749023 130.26000977 C254.71820947 130.21318453 251.72336883 130.47457654 247.93920898 133.44360352 C245.45814436 136.01126068 243.06091901 138.6370513 240.67749023 141.29516602 C237.57936778 144.22362938 234.69549369 145.55227659 230.42749023 145.85766602 C223.1996105 145.50478973 217.1669162 141.91375565 212.11499023 136.92016602 C210.27442926 135.27088736 209.22859502 134.38117005 206.77514648 133.99829102 C203.26669349 134.28576202 200.11666195 135.14620372 196.78686523 136.27563477 C186.55975752 139.56971481 177.12871621 139.43218018 166.42236328 139.21728516 C159.66967807 139.13362971 153.70036053 139.30833076 147.23999023 141.29516602 C126.70796968 147.44064159 98.78162158 144.93155005 79.67749023 135.29516602 C67.52591428 127.91795467 59.94000628 118.45758839 55.52124023 104.94750977 C54.17751086 99.13090346 53.67551207 93.20683721 54.67749023 87.29516602 C56.16249023 86.30516602 56.16249023 86.30516602 57.67749023 85.29516602 C54.47106292 82.42025946 52.54099336 81.95671728 48.27514648 82.14282227 C47.22641357 82.17375977 46.17768066 82.20469727 45.09716797 82.23657227 C43.43536499 82.29651367 43.43536499 82.29651367 41.73999023 82.35766602 C32.16717271 82.50997166 24.48412784 82.33532451 15.67749023 78.29516602 C14.74549805 77.87654297 14.74549805 77.87654297 13.79467773 77.44946289 C4.50373372 73.22549124 -4.00412326 68.21886549 -12.32250977 62.29516602 C-11.02053165 66.20110036 -9.43315481 66.7092682 -5.94750977 68.79516602 C-2.71905874 70.73734763 0.15259518 72.4782763 2.67749023 75.29516602 C1.2599846 75.1800694 -0.15652146 75.05262944 -1.57250977 74.92016602 C-2.36141602 74.85055664 -3.15032227 74.78094727 -3.96313477 74.70922852 C-6.40838676 74.28009489 -8.17087879 73.50915964 -10.32250977 72.29516602 C-10.62640656 83.05536355 -10.81886741 92.9733102 -7.32250977 103.29516602 C-6.9396582 104.49979492 -6.9396582 104.49979492 -6.54907227 105.72875977 C-3.62368821 114.33046243 0.15893285 122.65145602 3.75170898 130.99047852 C4.09806396 131.79501465 4.44441895 132.59955078 4.80126953 133.4284668 C5.53462033 135.26550887 5.53462033 135.26550887 6.67749023 136.29516602 C8.7760949 136.62447631 10.88200306 136.90753155 12.98999023 137.17016602 C32.45039792 139.89423114 50.91351804 147.06222069 67.67749023 157.29516602 C67.32144598 159.87648683 66.91560076 161.06435605 65.02124023 162.90063477 C59.71626605 166.0570944 52.3616249 165.14535094 46.49389648 163.79125977 C42.90788105 162.78919218 39.39288395 161.62233905 35.88061523 160.38891602 C32.92615953 159.1874514 32.92615953 159.1874514 30.67749023 159.29516602 C31.1222168 160.0312207 31.56694336 160.76727539 32.02514648 161.52563477 C32.59104492 162.50145508 33.15694336 163.47727539 33.73999023 164.48266602 C34.3084668 165.4455957 34.87694336 166.40852539 35.46264648 167.40063477 C36.82170835 170.6387854 36.78988968 172.0162085 35.67749023 175.29516602 C33.87573321 177.09692304 31.30014345 176.59360739 28.86499023 176.67016602 C23.05394219 176.61515018 23.05394219 176.61515018 20.17749023 174.17016602 C19.68249023 173.22141602 19.18749023 172.27266602 18.67749023 171.29516602 C17.93499023 170.24329102 17.19249023 169.19141602 16.42749023 168.10766602 C14.67749023 165.29516602 14.67749023 165.29516602 14.67749023 163.29516602 C12.36749023 163.29516602 10.05749023 163.29516602 7.67749023 163.29516602 C7.84249023 163.91391602 8.00749023 164.53266602 8.17749023 165.17016602 C8.8782434 169.54987331 8.75483274 173.8694559 8.67749023 178.29516602 C6.07569361 179.59606433 4.08057144 179.4635668 1.17749023 179.48266602 C0.19780273 179.4968457 -0.78188477 179.51102539 -1.79125977 179.52563477 C-4.32250977 179.29516602 -4.32250977 179.29516602 -6.32250977 177.29516602 C-6.94926556 174.19185432 -7.34214043 171.08526078 -7.76000977 167.94750977 C-7.94563477 167.07223633 -8.13125977 166.19696289 -8.32250977 165.29516602 C-8.98250977 164.96516602 -9.64250977 164.63516602 -10.32250977 164.29516602 C-10.28770508 165.13821289 -10.25290039 165.98125977 -10.21704102 166.84985352 C-10.1899707 167.94555664 -10.16290039 169.04125977 -10.13500977 170.17016602 C-10.10020508 171.26071289 -10.06540039 172.35125977 -10.02954102 173.47485352 C-10.1262207 174.40555664 -10.22290039 175.33625977 -10.32250977 176.29516602 C-13.48028577 178.40035002 -14.27648111 178.54805945 -17.88500977 178.48266602 C-18.67004883 178.4762207 -19.45508789 178.46977539 -20.26391602 178.46313477 C-22.32250977 178.29516602 -22.32250977 178.29516602 -24.32250977 177.29516602 C-24.32250977 173.66516602 -24.32250977 170.03516602 -24.32250977 166.29516602 C-29.71404048 168.4517783 -30.49023884 169.54099696 -33.32250977 174.29516602 C-34.91145049 175.88410674 -36.57052401 175.46515013 -38.76000977 175.48266602 C-39.5630957 175.4968457 -40.36618164 175.51102539 -41.19360352 175.52563477 C-43.32250977 175.29516602 -43.32250977 175.29516602 -45.32250977 173.29516602 C-45.19640459 169.00759019 -43.05117876 166.14856356 -40.80297852 162.67407227 C-39.07122362 159.89138432 -37.48607843 157.06439658 -35.94750977 154.17016602 C-35.42415039 153.19821289 -34.90079102 152.22625977 -34.36157227 151.22485352 C-33.10077193 147.66996536 -33.44906 145.93939409 -34.32250977 142.29516602 C-35.62538069 139.61146466 -35.62538069 139.61146466 -37.34985352 137.02172852 C-37.97827148 136.03043945 -38.60668945 135.03915039 -39.25415039 134.01782227 C-40.24705078 132.48448242 -40.24705078 132.48448242 -41.26000977 130.92016602 C-42.54014453 128.91247264 -43.82008864 126.90465769 -45.09985352 124.89672852 C-45.78684326 123.86354492 -46.47383301 122.83036133 -47.18164062 121.76586914 C-48.8077252 119.24608874 -50.11817413 116.68124395 -51.38720703 113.96508789 C-54.90184574 106.3790232 -54.90184574 106.3790232 -61.31033325 101.50714111 C-66.98783886 100.42125472 -72.67249172 101.01960354 -78.38500977 101.54516602 C-81.74932079 101.77395597 -85.11471704 101.95726392 -88.48266602 102.12329102 C-89.71746201 102.19175232 -89.71746201 102.19175232 -90.97720337 102.26159668 C-99.53007605 102.60037444 -107.17552849 100.70900679 -115.32250977 98.29516602 C-120.09102602 96.92517218 -120.09102602 96.92517218 -124.87719727 95.61938477 C-134.30250848 93.03297782 -141.88689255 88.02144438 -150.03735352 82.74829102 C-153.87860141 80.30565133 -156.12504948 80.18165737 -160.69750977 80.04516602 C-168.85413101 79.67096449 -176.79618088 78.30827025 -184.82250977 76.85766602 C-186.62921143 76.53137207 -186.62921143 76.53137207 -188.47241211 76.19848633 C-194.48488185 75.08491096 -200.40308299 73.82254104 -206.32250977 72.29516602 C-212.11974427 71.30632637 -217.89267726 71.1975469 -223.76000977 71.17016602 C-224.82638672 71.16315674 -224.82638672 71.16315674 -225.91430664 71.15600586 C-229.74513079 71.10505658 -229.74513079 71.10505658 -233.32250977 72.29516602 C-235.46214198 79.74804759 -236.84025383 87.55227906 -237.32250977 95.29516602 C-237.41016602 96.20524414 -237.49782227 97.11532227 -237.58813477 98.05297852 C-238.08365223 106.67948705 -235.36893913 112.78517247 -231.32250977 120.29516602 C-229.90809103 123.12400349 -230.00350644 125.16893346 -230.32250977 128.29516602 C-233.2456721 131.15999101 -235.40163677 131.67821482 -239.42797852 131.69360352 C-240.41217773 131.6974707 -241.39637695 131.70133789 -242.41040039 131.70532227 C-243.43327148 131.6937207 -244.45614258 131.68211914 -245.51000977 131.67016602 C-246.51354492 131.68176758 -247.51708008 131.69336914 -248.55102539 131.70532227 C-255.40203977 131.6785779 -262.79281747 131.39638242 -268.17480469 126.66772461 C-274.20564018 120.24140864 -275.90581754 113.49546712 -275.88500977 104.92016602 C-275.88621826 104.03659424 -275.88742676 103.15302246 -275.88867188 102.24267578 C-275.72465324 95.50701763 -274.15414211 90.37676306 -271.53662109 84.24536133 C-268.4339263 76.28575229 -268.60492293 68.09457929 -268.54931641 59.64648438 C-268.50792006 53.774604 -268.3238947 48.832331 -266.32250977 43.29516602 C-265.95125977 42.11954102 -265.58000977 40.94391602 -265.19750977 39.73266602 C-262.70215374 35.15784664 -260.09591591 32.45931478 -255.32250977 30.29516602 C-249.21078131 29.25668291 -243.65686634 30.05138129 -237.76000977 31.79516602 C-223.23408549 36.07845138 -211.48551866 30.2422952 -198.44750977 24.10766602 C-182.13795966 16.52043941 -166.37738308 16.09490505 -149.32250977 22.29516602 C-147.75677481 22.90673941 -146.19440528 23.5269794 -144.63500977 24.15454102 C-143.43521484 24.63685181 -143.43521484 24.63685181 -142.21118164 25.12890625 C-140.65760889 25.76548364 -139.11137135 26.4203723 -137.57446289 27.09619141 C-132.72554994 29.13174751 -129.56184771 29.72933358 -124.32250977 28.29516602 C-121.20168226 27.00586245 -118.20688459 25.51138219 -115.19750977 23.98266602 C-101.06407063 17.08003646 -86.82283554 13.60552201 -71.25610352 11.80688477 C-69.97864258 11.65864258 -68.70118164 11.51040039 -67.38500977 11.35766602 C-66.26223633 11.24551758 -65.13946289 11.13336914 -63.98266602 11.01782227 C-60.01583839 10.23461724 -56.66827733 8.87112205 -52.95263672 7.31787109 C-48.69533508 5.66245138 -44.32873871 4.63364946 -39.88500977 3.60766602 C-38.58853516 3.28958984 -38.58853516 3.28958984 -37.26586914 2.96508789 C-24.95433087 0.06340935 -12.58548689 0.05279418 0 0 Z " fill="#3E4454" transform="translate(1080.322509765625,503.704833984375)"/>
<path d="M0 0 C1.90111748 -0.01150229 3.80220312 -0.03192629 5.703125 -0.06152344 C18.07740015 -0.25328132 28.81506832 0.64676863 40.67749023 4.29516602 C42.42607999 4.7588505 44.17574854 5.21853509 45.92749023 5.67016602 C50.90690632 7.16735531 55.30931899 9.6267445 59.81811523 12.18579102 C63.22443082 13.50736701 65.18309026 13.1842737 68.67749023 12.29516602 C68.67749023 12.95516602 68.67749023 13.61516602 68.67749023 14.29516602 C70.32749023 14.62516602 71.97749023 14.95516602 73.67749023 15.29516602 C73.67749023 15.62516602 73.67749023 15.95516602 73.67749023 16.29516602 C68.72749023 16.29516602 63.77749023 16.29516602 58.67749023 16.29516602 C58.67749023 15.96516602 58.67749023 15.63516602 58.67749023 15.29516602 C57.92653076 15.30563965 57.17557129 15.31611328 56.40185547 15.3269043 C52.97293494 15.36868493 49.54406816 15.39456223 46.11499023 15.42016602 C44.93356445 15.43692383 43.75213867 15.45368164 42.53491211 15.47094727 C36.4645266 15.50495503 31.41444197 15.26917091 25.67749023 13.29516602 C23.34533179 13.22112924 21.00888236 13.20000715 18.67749023 13.29516602 C19.28077148 13.41633789 19.88405273 13.53750977 20.50561523 13.66235352 C21.30483398 13.82993164 22.10405273 13.99750977 22.92749023 14.17016602 C23.71639648 14.33258789 24.50530273 14.49500977 25.31811523 14.66235352 C27.67749023 15.29516602 27.67749023 15.29516602 29.44506836 16.32250977 C32.33433254 17.58134928 34.60925147 17.52132522 37.75561523 17.49047852 C38.91577148 17.4840332 40.07592773 17.47758789 41.27124023 17.47094727 C42.47780273 17.45418945 43.68436523 17.43743164 44.92749023 17.42016602 C46.14952148 17.41114258 47.37155273 17.40211914 48.63061523 17.39282227 C51.64643805 17.36926115 54.66186515 17.33636308 57.67749023 17.29516602 C57.67749023 17.62516602 57.67749023 17.95516602 57.67749023 18.29516602 C56.56954102 18.49819336 56.56954102 18.49819336 55.43920898 18.70532227 C46.90734987 20.51576759 39.26802527 23.69390543 33.00561523 29.97094727 C31.34322705 31.62844607 29.95657875 31.90221972 27.67749023 32.29516602 C29.12746913 28.50291351 30.84647574 24.91706317 32.67749023 21.29516602 C31.56889648 21.01801758 30.46030273 20.74086914 29.31811523 20.45532227 C16.67749023 17.29516602 16.67749023 17.29516602 14.6784668 16.74267578 C11.22404027 15.97010821 7.70021927 16.15249346 4.17749023 16.17016602 C3.43756836 16.16629883 2.69764648 16.16243164 1.93530273 16.15844727 C-8.75895639 16.17669685 -19.10362354 17.40300144 -29.57250977 19.54516602 C-30.6557251 19.76333984 -31.73894043 19.98151367 -32.85498047 20.20629883 C-40.45206099 21.78547042 -47.77777928 23.76739263 -55.11547852 26.27954102 C-58.18803811 27.2525806 -61.13489177 27.85015713 -64.32250977 28.29516602 C-64.32250977 28.95516602 -64.32250977 29.61516602 -64.32250977 30.29516602 C-63.35700195 30.36606445 -62.39149414 30.43696289 -61.39672852 30.51000977 C-56.46209376 31.22274902 -52.46698171 33.49382137 -48.13500977 35.85766602 C-46.87382324 36.52668945 -46.87382324 36.52668945 -45.5871582 37.20922852 C-40.80613165 39.78800734 -36.43168559 42.56285197 -32.07250977 45.79516602 C-25.5642208 50.38055142 -19.12041091 50.8690512 -11.32250977 51.29516602 C-11.32250977 52.28516602 -11.32250977 53.27516602 -11.32250977 54.29516602 C-12.97250977 54.62516602 -14.62250977 54.95516602 -16.32250977 55.29516602 C-15.31937915 57.53291893 -14.47774142 59.14590481 -12.69750977 60.85766602 C-11.32250977 62.29516602 -11.32250977 62.29516602 -11.32250977 65.29516602 C-8.96650787 67.11926766 -8.96650787 67.11926766 -6.01000977 68.79516602 C0.15240329 72.46844752 0.15240329 72.46844752 2.67749023 75.29516602 C1.2599846 75.1800694 -0.15652146 75.05262944 -1.57250977 74.92016602 C-2.36141602 74.85055664 -3.15032227 74.78094727 -3.96313477 74.70922852 C-6.40838676 74.28009489 -8.17087879 73.50915964 -10.32250977 72.29516602 C-10.62640656 83.05536355 -10.81886741 92.9733102 -7.32250977 103.29516602 C-6.9396582 104.49979492 -6.9396582 104.49979492 -6.54907227 105.72875977 C-3.62368821 114.33046243 0.15893285 122.65145602 3.75170898 130.99047852 C4.09806396 131.79501465 4.44441895 132.59955078 4.80126953 133.4284668 C5.53462033 135.26550887 5.53462033 135.26550887 6.67749023 136.29516602 C8.7760949 136.62447631 10.88200306 136.90753155 12.98999023 137.17016602 C32.45039792 139.89423114 50.91351804 147.06222069 67.67749023 157.29516602 C67.32144598 159.87648683 66.91560076 161.06435605 65.02124023 162.90063477 C59.71626605 166.0570944 52.3616249 165.14535094 46.49389648 163.79125977 C42.90788105 162.78919218 39.39288395 161.62233905 35.88061523 160.38891602 C32.92615953 159.1874514 32.92615953 159.1874514 30.67749023 159.29516602 C31.1222168 160.0312207 31.56694336 160.76727539 32.02514648 161.52563477 C32.59104492 162.50145508 33.15694336 163.47727539 33.73999023 164.48266602 C34.3084668 165.4455957 34.87694336 166.40852539 35.46264648 167.40063477 C36.82170835 170.6387854 36.78988968 172.0162085 35.67749023 175.29516602 C33.87573321 177.09692304 31.30014345 176.59360739 28.86499023 176.67016602 C23.05394219 176.61515018 23.05394219 176.61515018 20.17749023 174.17016602 C19.68249023 173.22141602 19.18749023 172.27266602 18.67749023 171.29516602 C17.93499023 170.24329102 17.19249023 169.19141602 16.42749023 168.10766602 C14.67749023 165.29516602 14.67749023 165.29516602 14.67749023 163.29516602 C12.36749023 163.29516602 10.05749023 163.29516602 7.67749023 163.29516602 C7.84249023 163.91391602 8.00749023 164.53266602 8.17749023 165.17016602 C8.8782434 169.54987331 8.75483274 173.8694559 8.67749023 178.29516602 C6.07569361 179.59606433 4.08057144 179.4635668 1.17749023 179.48266602 C0.19780273 179.4968457 -0.78188477 179.51102539 -1.79125977 179.52563477 C-4.32250977 179.29516602 -4.32250977 179.29516602 -6.32250977 177.29516602 C-6.94926556 174.19185432 -7.34214043 171.08526078 -7.76000977 167.94750977 C-7.94563477 167.07223633 -8.13125977 166.19696289 -8.32250977 165.29516602 C-8.98250977 164.96516602 -9.64250977 164.63516602 -10.32250977 164.29516602 C-10.28770508 165.13821289 -10.25290039 165.98125977 -10.21704102 166.84985352 C-10.1899707 167.94555664 -10.16290039 169.04125977 -10.13500977 170.17016602 C-10.10020508 171.26071289 -10.06540039 172.35125977 -10.02954102 173.47485352 C-10.1262207 174.40555664 -10.22290039 175.33625977 -10.32250977 176.29516602 C-13.48028577 178.40035002 -14.27648111 178.54805945 -17.88500977 178.48266602 C-18.67004883 178.4762207 -19.45508789 178.46977539 -20.26391602 178.46313477 C-22.32250977 178.29516602 -22.32250977 178.29516602 -24.32250977 177.29516602 C-24.32250977 173.66516602 -24.32250977 170.03516602 -24.32250977 166.29516602 C-29.71404048 168.4517783 -30.49023884 169.54099696 -33.32250977 174.29516602 C-34.91145049 175.88410674 -36.57052401 175.46515013 -38.76000977 175.48266602 C-39.5630957 175.4968457 -40.36618164 175.51102539 -41.19360352 175.52563477 C-43.32250977 175.29516602 -43.32250977 175.29516602 -45.32250977 173.29516602 C-45.19640459 169.00759019 -43.05117876 166.14856356 -40.80297852 162.67407227 C-39.07122362 159.89138432 -37.48607843 157.06439658 -35.94750977 154.17016602 C-35.42415039 153.19821289 -34.90079102 152.22625977 -34.36157227 151.22485352 C-33.10077193 147.66996536 -33.44906 145.93939409 -34.32250977 142.29516602 C-35.62538069 139.61146466 -35.62538069 139.61146466 -37.34985352 137.02172852 C-37.97827148 136.03043945 -38.60668945 135.03915039 -39.25415039 134.01782227 C-40.24705078 132.48448242 -40.24705078 132.48448242 -41.26000977 130.92016602 C-42.54014453 128.91247264 -43.82008864 126.90465769 -45.09985352 124.89672852 C-45.78684326 123.86354492 -46.47383301 122.83036133 -47.18164062 121.76586914 C-48.8077252 119.24608874 -50.11817413 116.68124395 -51.38720703 113.96508789 C-54.90184574 106.3790232 -54.90184574 106.3790232 -61.31033325 101.50714111 C-66.98783886 100.42125472 -72.67249172 101.01960354 -78.38500977 101.54516602 C-81.74932079 101.77395597 -85.11471704 101.95726392 -88.48266602 102.12329102 C-89.71746201 102.19175232 -89.71746201 102.19175232 -90.97720337 102.26159668 C-99.53007605 102.60037444 -107.17552849 100.70900679 -115.32250977 98.29516602 C-120.09102602 96.92517218 -120.09102602 96.92517218 -124.87719727 95.61938477 C-134.30250848 93.03297782 -141.88689255 88.02144438 -150.03735352 82.74829102 C-153.87860141 80.30565133 -156.12504948 80.18165737 -160.69750977 80.04516602 C-168.85413101 79.67096449 -176.79618088 78.30827025 -184.82250977 76.85766602 C-186.62921143 76.53137207 -186.62921143 76.53137207 -188.47241211 76.19848633 C-194.48488185 75.08491096 -200.40308299 73.82254104 -206.32250977 72.29516602 C-212.11974427 71.30632637 -217.89267726 71.1975469 -223.76000977 71.17016602 C-224.82638672 71.16315674 -224.82638672 71.16315674 -225.91430664 71.15600586 C-229.74513079 71.10505658 -229.74513079 71.10505658 -233.32250977 72.29516602 C-235.46214198 79.74804759 -236.84025383 87.55227906 -237.32250977 95.29516602 C-237.41016602 96.20524414 -237.49782227 97.11532227 -237.58813477 98.05297852 C-238.08365223 106.67948705 -235.36893913 112.78517247 -231.32250977 120.29516602 C-229.90809103 123.12400349 -230.00350644 125.16893346 -230.32250977 128.29516602 C-233.2456721 131.15999101 -235.40163677 131.67821482 -239.42797852 131.69360352 C-240.41217773 131.6974707 -241.39637695 131.70133789 -242.41040039 131.70532227 C-243.43327148 131.6937207 -244.45614258 131.68211914 -245.51000977 131.67016602 C-246.51354492 131.68176758 -247.51708008 131.69336914 -248.55102539 131.70532227 C-255.40203977 131.6785779 -262.79281747 131.39638242 -268.17480469 126.66772461 C-274.20564018 120.24140864 -275.90581754 113.49546712 -275.88500977 104.92016602 C-275.88621826 104.03659424 -275.88742676 103.15302246 -275.88867188 102.24267578 C-275.72465324 95.50701763 -274.15414211 90.37676306 -271.53662109 84.24536133 C-268.4339263 76.28575229 -268.60492293 68.09457929 -268.54931641 59.64648438 C-268.50792006 53.774604 -268.3238947 48.832331 -266.32250977 43.29516602 C-265.95125977 42.11954102 -265.58000977 40.94391602 -265.19750977 39.73266602 C-262.70215374 35.15784664 -260.09591591 32.45931478 -255.32250977 30.29516602 C-249.21078131 29.25668291 -243.65686634 30.05138129 -237.76000977 31.79516602 C-223.23408549 36.07845138 -211.48551866 30.2422952 -198.44750977 24.10766602 C-182.13795966 16.52043941 -166.37738308 16.09490505 -149.32250977 22.29516602 C-147.75677481 22.90673941 -146.19440528 23.5269794 -144.63500977 24.15454102 C-143.43521484 24.63685181 -143.43521484 24.63685181 -142.21118164 25.12890625 C-140.65760889 25.76548364 -139.11137135 26.4203723 -137.57446289 27.09619141 C-132.72554994 29.13174751 -129.56184771 29.72933358 -124.32250977 28.29516602 C-121.20168226 27.00586245 -118.20688459 25.51138219 -115.19750977 23.98266602 C-101.06407063 17.08003646 -86.82283554 13.60552201 -71.25610352 11.80688477 C-69.97864258 11.65864258 -68.70118164 11.51040039 -67.38500977 11.35766602 C-66.26223633 11.24551758 -65.13946289 11.13336914 -63.98266602 11.01782227 C-60.01583839 10.23461724 -56.66827733 8.87112205 -52.95263672 7.31787109 C-48.69533508 5.66245138 -44.32873871 4.63364946 -39.88500977 3.60766602 C-38.58853516 3.28958984 -38.58853516 3.28958984 -37.26586914 2.96508789 C-24.95433087 0.06340935 -12.58548689 0.05279418 0 0 Z " fill="#3C4252" transform="translate(1080.322509765625,503.704833984375)"/>
<path d="M0 0 C-1.61144863 5.27383187 -3.44242035 10.20503102 -6.03515625 15.078125 C-7.06610902 17.04929863 -7.06610902 17.04929863 -7.9140625 19.4140625 C-9.10154964 22.24181965 -10.62852938 24.56357241 -12.3125 27.125 C-16.73189899 34.54590747 -18.57469209 42.43352565 -20.48510742 50.79589844 C-20.96167064 52.83592344 -21.49514559 54.85215572 -22.0390625 56.875 C-23.31060133 61.93603851 -23.91691199 67.07846431 -24.5625 72.25 C-24.68818359 73.21035156 -24.81386719 74.17070313 -24.94335938 75.16015625 C-26.73709351 89.19072587 -27.26366519 103.12304153 -27.5625 117.25 C-27.60578845 119.17058041 -27.64940565 121.09115345 -27.69335938 123.01171875 C-27.79936216 127.67440276 -27.90091951 132.33716397 -28 137 C-28.33 137 -28.66 137 -29 137 C-29 127.1 -29 117.2 -29 107 C-35.93 107.99 -35.93 107.99 -43 109 C-46.55324564 109.03530549 -50.02201789 109.01088277 -53.5625 108.875 C-62.14122147 108.71126634 -68.91956584 110.03931182 -77 113 C-85.69472281 115.43849459 -94.39413371 116.64053977 -103.34765625 117.5703125 C-106.03959142 117.88701076 -108.40534111 118.30708985 -111 119 C-111.10007438 122.94677971 -111.17202516 126.89305205 -111.21972656 130.84082031 C-111.24935477 132.83164478 -111.30022326 134.82211708 -111.3515625 136.8125 C-111.46892343 148.43123212 -108.91558455 155.84152316 -102 165 C-100.8154869 168.55353929 -100.73358106 171.27013478 -101 175 C-102.015625 176.6953125 -102.015625 176.6953125 -104 178 C-106.76173495 178.30355276 -109.24284018 178.4270614 -112 178.375 C-112.7623999 178.36484863 -113.5247998 178.35469727 -114.31030273 178.34423828 C-124.05893143 178.07850704 -133.03924183 176.33834646 -140 169 C-143.71830016 163.39012272 -145.14304396 158.0693092 -145.125 151.375 C-145.12757813 150.41335938 -145.13015625 149.45171875 -145.1328125 148.4609375 C-145 146 -145 146 -144 144 C-142.41989814 133.46598762 -142.32006414 122.50626557 -144 112 C-146.48039849 112.80889048 -148.95930212 113.62191901 -151.4375 114.4375 C-152.14455078 114.66759766 -152.85160156 114.89769531 -153.58007812 115.13476562 C-157.06306795 116.07421147 -157.06306795 116.07421147 -160 118 C-160.62457937 122.6419356 -160.78676711 127.32424457 -161 132 C-161.04608398 132.87720703 -161.09216797 133.75441406 -161.13964844 134.65820312 C-161.71050344 146.71699425 -161.44359509 156.6741147 -156.3125 167.72265625 C-154.92942037 171.17623902 -154.41661917 173.32782603 -155 177 C-157.81927471 179.67233022 -159.78810321 180.38207703 -163.6328125 180.3984375 C-164.52226562 180.40230469 -165.41171875 180.40617188 -166.328125 180.41015625 C-167.25109375 180.39855469 -168.1740625 180.38695312 -169.125 180.375 C-170.02476562 180.38660156 -170.92453125 180.39820313 -171.8515625 180.41015625 C-179.09134445 180.37895029 -186.34903953 179.57051363 -192.40234375 175.30859375 C-199.89051387 166.18179098 -201.07986653 156.59812446 -200 145 C-199.37553687 142.9028778 -198.69616491 140.82148477 -197.96875 138.7578125 C-195.04054059 128.9385112 -195.78055083 119.21080989 -196.1574707 109.06982422 C-196.75609532 91.50904458 -196.75609532 91.50904458 -192.53271484 86.38696289 C-186.42433696 80.85945497 -180.89193843 80.3582463 -172.9375 79.6875 C-158.20353384 78.08944837 -148.19140543 72.73165689 -137 63 C-122.18821725 50.43242676 -110.85537689 43.77905444 -91 45 C-88.57897729 45.3000632 -86.16169642 45.63242785 -83.75 46 C-70.25742754 48.04662616 -63.52949776 46.9384284 -52.28320312 38.75 C-45.07217998 33.39551652 -38.37701178 27.59187725 -31.79296875 21.484375 C-26.76802096 17.01463123 -21.39254717 13.01222674 -16 9 C-15.29617188 8.47277344 -14.59234375 7.94554687 -13.8671875 7.40234375 C-3.77102446 0 -3.77102446 0 0 0 Z " fill="#393F4F" transform="translate(272,454)"/>
<path d="M0 0 C2.83649736 1.41824868 2.94527218 3.05276102 4.0625 6 C11.56941731 24.4700986 21.17720296 41.85102195 39.6015625 51.33984375 C42.04110359 52.36599992 44.47556659 53.207864 47 54 C47.80308594 54.29648437 48.60617187 54.59296875 49.43359375 54.8984375 C55.36018097 56.86494589 60.99474604 57.27958675 67.1875 57.3125 C68.30995117 57.32071777 68.30995117 57.32071777 69.45507812 57.32910156 C76.99838705 57.23256319 83.40237022 55.43995587 90.3125 52.4375 C93.20121383 51.19102553 96.01467661 49.9951078 99 49 C100.13768544 47.178725 100.13768544 47.178725 101 45 C101.61776293 43.60094866 102.24273237 42.2050564 102.875 40.8125 C103.33519531 39.77029297 103.33519531 39.77029297 103.8046875 38.70703125 C105 37 105 37 109 36 C109 39.96 109 43.92 109 48 C109.66 48 110.32 48 111 48 C111.721875 48.78375 112.44375 49.5675 113.1875 50.375 C119.34022569 56.11754398 126.98435452 55.25335617 134.9375 55.125 C136.00291016 55.11597656 137.06832031 55.10695313 138.16601562 55.09765625 C140.77758034 55.07423414 143.38866937 55.04143452 146 55 C141.75853023 63.94539055 132.67468267 70.083638 125 76 C124.02289063 76.78246094 123.04578125 77.56492187 122.0390625 78.37109375 C109.00144758 88.75013786 94.99380963 96.80230646 80 104 C78.95585937 104.55558594 77.91171875 105.11117187 76.8359375 105.68359375 C74.11010551 106.94889042 72.20482448 107.357281 69.25 107.625 C63.57333208 108.64866143 60.72938599 111.56857314 56.67578125 115.49609375 C47.41758034 124.15960731 36.7176807 129.53749261 25 134 C24.31583008 134.27811523 23.63166016 134.55623047 22.92675781 134.84277344 C16.69874915 137.19259636 10.86934726 137.53878933 4.25 137.5 C3.19393555 137.49790527 2.13787109 137.49581055 1.04980469 137.49365234 C-7.2386074 137.32666034 -13.64003408 135.96860908 -21 132 C-21.76828125 131.61585938 -22.5365625 131.23171875 -23.328125 130.8359375 C-23.87984375 130.56007813 -24.4315625 130.28421875 -25 130 C-25 129.34 -25 128.68 -25 128 C-23.5459375 126.9171875 -23.5459375 126.9171875 -22.0625 125.8125 C-19.17164505 123.54062811 -19.01705695 123.07431957 -18.125 119.1875 C-18.08375 118.135625 -18.0425 117.08375 -18 116 C-18.350625 116.86625 -18.70125 117.7325 -19.0625 118.625 C-22.05148225 123.83161425 -26.42531696 127.67364189 -32 130 C-33.97265625 130.23828125 -33.97265625 130.23828125 -36.0625 130.3125 C-39.86829206 130.6584811 -42.64113274 131.62242701 -46.0625 133.3125 C-53.05859718 136.74078694 -60.44007123 138.30209881 -68 140 C-66.35068147 134.94676877 -64.64529261 129.94725435 -62.6484375 125.01953125 C-60.82253262 119.33282751 -60.89155649 113.70122199 -60.97265625 107.8046875 C-60.98529442 106.01953313 -60.99765597 104.23437678 -61.00976562 102.44921875 C-61.03463578 99.65341951 -61.06270541 96.85772442 -61.09594727 94.06201172 C-61.12613044 91.35123019 -61.14391006 88.64058329 -61.16015625 85.9296875 C-61.17361588 85.0942038 -61.1870755 84.25872009 -61.20094299 83.3979187 C-61.23327536 75.92273367 -61.23327536 75.92273367 -59 73 C-57.33006055 72.05432177 -55.65681195 71.11361673 -53.96142578 70.21435547 C-50.2642557 67.92536817 -47.42401656 64.68963044 -44.4375 61.5625 C-37.23283476 54.10863983 -37.23283476 54.10863983 -33.75 51.26953125 C-31.39836466 49.32876402 -29.50313528 47.45763392 -27.5625 45.125 C-25.35222214 42.50756569 -23.10638026 40.16449223 -20.5625 37.875 C-14.36343748 31.77389106 -9.71433886 22.95595178 -7.1875 14.6875 C-6.795625 13.470625 -6.40375 12.25375 -6 11 C-5.01 10.67 -4.02 10.34 -3 10 C-1.97299556 7.67108904 -1.97299556 7.67108904 -1.3125 4.9375 C-1.06113281 4.01839844 -0.80976563 3.09929687 -0.55078125 2.15234375 C-0.36902344 1.44207031 -0.18726563 0.73179687 0 0 Z " fill="#222938" transform="translate(361,419)"/>
<path d="M0 0 C1.38782806 0.46938906 2.77461033 0.94188543 4.16015625 1.41796875 C5.95646484 2.01158203 5.95646484 2.01158203 7.7890625 2.6171875 C18.28841732 6.34836318 30.41920847 12.19576106 36.22509766 22.26489258 C37.79840031 25.88759652 37.49853193 29.51949375 37.47265625 33.41796875 C37.4684668 34.26721924 37.46427734 35.11646973 37.45996094 35.99145508 C37.26345562 46.99888857 34.96166927 57.34546699 28.03515625 66.10546875 C15.93750117 75.83619131 1.20953332 77.82044133 -13.83984375 76.41796875 C-30.11682294 73.63872309 -44.28662451 65.48892774 -54.27734375 52.16796875 C-70.83984375 27.12610272 -70.83984375 27.12610272 -70.83984375 15.41796875 C-69.80085938 15.18722656 -68.761875 14.95648438 -67.69140625 14.71875 C-55.23033904 11.85267461 -46.29257689 8.31266941 -36.87109375 -0.69140625 C-28.47679626 -8.50456007 -9.7621341 -3.13200452 0 0 Z " fill="#41D4B1" transform="translate(432.83984375,400.58203125)"/>
<path d="M0 0 C12.82136552 6.57168164 24.66404072 17.18542112 34.421875 27.75390625 C35.081875 28.41390625 35.741875 29.07390625 36.421875 29.75390625 C38.06869829 33.04755283 37.39510382 35.28677857 36.421875 38.75390625 C30.22378357 47.2246312 18.71300489 51.12795674 8.75 53.0625 C-14.39838123 56.62204095 -42.16960478 55.45089789 -61.890625 41.62890625 C-71.72015102 33.7575048 -77.77870299 24.06873453 -80.578125 11.75390625 C-81.05173317 7.08318933 -80.89805534 2.43199884 -80.578125 -2.24609375 C-76.9624899 -3.5654248 -75.09545619 -2.91485499 -71.640625 -1.37109375 C-57.48206658 4.88755804 -43.4654049 1.87557538 -29.578125 -3.24609375 C-19.5084402 -6.60265535 -9.31580944 -4.3130789 0 0 Z " fill="#41D2B0" transform="translate(1215.578125,593.24609375)"/>
<path d="M0 0 C2.08725831 1.76087236 3.67628178 3.54173103 5.3359375 5.70703125 C6.53891961 7.1074791 7.74724635 8.50335408 8.9609375 9.89453125 C9.80205078 10.89033203 9.80205078 10.89033203 10.66015625 11.90625 C12.97506463 14.3938322 15.41281324 15.99593412 18.3359375 17.70703125 C14.92587152 35.2625561 -2.4913779 52.89403937 -16.49731445 62.52636719 C-30.31727453 71.57215924 -45.35735949 74.87920513 -61.703125 72.2109375 C-65.17173738 71.18427464 -67.40027122 69.91935106 -70.2265625 67.64453125 C-72.59507485 62.80452775 -72.29652899 57.63242291 -71.16943359 52.41918945 C-70.62965277 49.52236568 -70.45723331 46.75614274 -70.33984375 43.8125 C-70.24993164 42.13124023 -70.24993164 42.13124023 -70.15820312 40.41601562 C-70.03776012 38.08097549 -69.93598702 35.74489254 -69.85351562 33.40820312 C-69.40757644 25.85321396 -68.18218728 21.0414152 -62.6640625 15.70703125 C-49.32872284 4.49701135 -17.43792259 -8.46327328 0 0 Z " fill="#44D4B2" transform="translate(542.6640625,402.29296875)"/>
<path d="M0 0 C0.79954102 -0.0093457 1.59908203 -0.01869141 2.42285156 -0.02832031 C17.92020875 0.05482688 32.15588549 7.16506289 43.25 17.6875 C47.3309497 21.96108194 50.23008539 25.32350425 50.45703125 31.47265625 C50.0362547 38.2846875 47.29453817 42.60643592 42.375 47.25 C31.37504925 56.22426389 18.23317018 59.78517541 4.3125 59.75 C3.28833984 59.77835938 2.26417969 59.80671875 1.20898438 59.8359375 C-8.31600441 59.86028252 -14.59500341 56.58768364 -21.5 50.125 C-22.32886719 49.35414063 -23.15773438 48.58328125 -24.01171875 47.7890625 C-26.81762028 45.06285025 -29.56807973 42.28775075 -32.3125 39.5 C-36.19500827 35.5678574 -39.98502013 32.24020925 -44.625 29.25 C-43.47971476 21.79655638 -36.30748951 13.1084656 -30.5 8.6875 C-29.22379096 7.8509299 -27.93278555 7.03629255 -26.625 6.25 C-25.78195312 5.67185547 -25.78195312 5.67185547 -24.921875 5.08203125 C-17.30675311 0.15355283 -8.80245111 0.07128865 0 0 Z " fill="#4F87D9" transform="translate(1147.625,520.75)"/>
<path d="M0 0 C0.75990234 -0.01611328 1.51980469 -0.03222656 2.30273438 -0.04882812 C8.84358796 -0.05441382 14.2039652 1.21170379 19.5234375 5.12109375 C22.69649984 9.63908354 21.8389823 15.07272629 21.0625 20.3125 C14.99556408 36.86258667 -0.21034924 47.26392357 -15.55859375 54.453125 C-27.45485177 59.70396245 -39.88995046 63.53745775 -52.9375 63.3125 C-53.74373557 46.47113473 -48.61519602 30.44560283 -37.375 17.6875 C-35.91993332 16.20511978 -34.44276968 14.74387463 -32.9375 13.3125 C-32.35226562 12.73113281 -31.76703125 12.14976562 -31.1640625 11.55078125 C-22.50640458 3.48249441 -11.66349131 -0.04921304 0 0 Z " fill="#4A82D7" transform="translate(373.9375,352.6875)"/>
<path d="M0 0 C3.29257288 1.21694403 5.98170008 2.56099517 8.8125 4.625 C13.01424048 7.47993885 17.35694891 9.88179486 21.875 12.1875 C22.51026611 12.52023926 23.14553223 12.85297852 23.80004883 13.19580078 C34.86686708 18.73547021 44.93178472 19.31997328 57.12304688 18.79492188 C63.44695801 18.63711277 67.1884693 18.70908868 72 23 C70.68 23.66 69.36 24.32 68 25 C66.88450969 38.22062592 69.74469835 49.83995165 77.75 60.5625 C81.88037434 65.28179091 86.70850729 68.69164221 92 72 C93.485 72.99 93.485 72.99 95 74 C70.14380069 74.43993273 45.47203168 66.03027384 26.125 50.375 C21.24270121 46.59784171 17.49671129 46.30391907 11.43359375 46.81640625 C9 47 9 47 7 46 C6.67 46.66 6.34 47.32 6 48 C5.34922704 45.95990245 4.70460176 43.91784331 4.0625 41.875 C3.70285156 40.73804688 3.34320312 39.60109375 2.97265625 38.4296875 C1.07378549 31.73407094 0.87343421 25.5342488 0.9375 18.625 C0.94201172 17.69816406 0.94652344 16.77132812 0.95117188 15.81640625 C0.96288426 13.54420291 0.97928628 11.27213612 1 9 C1.92232422 9.32484375 1.92232422 9.32484375 2.86328125 9.65625 C3.67152344 9.9346875 4.47976563 10.213125 5.3125 10.5 C6.11300781 10.7784375 6.91351562 11.056875 7.73828125 11.34375 C10.08769422 12.13933107 10.08769422 12.13933107 13 12 C11.39612733 10.8745809 9.79189084 9.74968028 8.1875 8.625 C7.29417969 7.99851562 6.40085937 7.37203125 5.48046875 6.7265625 C3.66732122 5.46449761 1.83811789 4.22541192 0 3 C0 2.01 0 1.02 0 0 Z " fill="#1D2534" transform="translate(1068,566)"/>
<path d="M0 0 C2.44547895 1.00815274 4.75666802 1.53425702 7.359375 1.97265625 C4.96869962 4.79118313 2.96764753 5.60918613 -0.5859375 6.5078125 C-1.57303711 6.75893799 -2.56013672 7.01006348 -3.57714844 7.26879883 C-4.6293457 7.52169678 -5.68154297 7.77459473 -6.765625 8.03515625 C-7.83844727 8.29901123 -8.91126953 8.56286621 -10.01660156 8.8347168 C-17.77269588 10.68000065 -25.43957529 11.94479879 -33.375 12.6484375 C-35.94523996 12.90361683 -38.16543623 13.31146186 -40.640625 13.97265625 C-40.74069938 17.91943596 -40.81265016 21.8657083 -40.86035156 25.81347656 C-40.88997977 27.80430103 -40.94084826 29.79477333 -40.9921875 31.78515625 C-41.10954843 43.40388837 -38.55620955 50.81417941 -31.640625 59.97265625 C-30.4561119 63.52619554 -30.37420606 66.24279103 -30.640625 69.97265625 C-31.65625 71.66796875 -31.65625 71.66796875 -33.640625 72.97265625 C-36.40235995 73.27620901 -38.88346518 73.39971765 -41.640625 73.34765625 C-42.4030249 73.33750488 -43.1654248 73.32735352 -43.95092773 73.31689453 C-53.69955643 73.05116329 -62.67986683 71.31100271 -69.640625 63.97265625 C-73.35892516 58.36277897 -74.78366896 53.04196545 -74.765625 46.34765625 C-74.76820312 45.38601563 -74.77078125 44.424375 -74.7734375 43.43359375 C-74.640625 40.97265625 -74.640625 40.97265625 -73.640625 38.97265625 C-72.05371799 28.39327615 -72.06290232 17.52945408 -73.640625 6.97265625 C-63.07628639 3.90506401 -52.64418114 1.8337361 -41.765625 0.28515625 C-40.32020006 0.07172362 -38.87488687 -0.14246721 -37.4296875 -0.35742188 C-9.74466752 -4.44242196 -9.74466752 -4.44242196 0 0 Z " fill="#1F2635" transform="translate(201.640625,559.02734375)"/>
<path d="M0 0 C11.86871809 4.36679251 20.99236686 10.23699849 30 19.09375 C30.69738281 19.77824219 31.39476562 20.46273438 32.11328125 21.16796875 C35.63461452 24.8788562 37.7892118 27.89902421 38.6237793 32.99414062 C39.01205662 35.36598227 39.01205662 35.36598227 40.03125 38.69140625 C41.28717306 43.64051194 41.25799819 48.45166964 41.1875 53.53125 C41.18685547 54.44068359 41.18621094 55.35011719 41.18554688 56.28710938 C41.14074248 62.95300752 41.14074248 62.95300752 40 64.09375 C27.42698071 65.82795956 15.56645423 57.374449 5.796875 50.26171875 C-5.07626308 41.83351815 -15.57428664 27.99223192 -17.40625 13.98828125 C-17.65518296 8.87893215 -17.7417174 6.08921282 -14.625 1.90625 C-9.55292586 -1.59589643 -5.82755228 -1.76040642 0 0 Z " fill="#417BD9" transform="translate(554,356.90625)"/>
<path d="M0 0 C11.66163175 -0.52141204 25.92843639 -0.60288485 35.98730469 6.10302734 C35.37587076 10.20264171 33.1180749 13.22058227 30.79980469 16.54052734 C30.42533203 17.100625 30.05085938 17.66072266 29.66503906 18.23779297 C23.14173362 27.6652344 14.62864588 31.33127356 3.62011719 33.44921875 C-0.24384855 34.12167238 -4.11897081 34.63750083 -8.01269531 35.10302734 C-8.69090332 35.19197266 -9.36911133 35.28091797 -10.06787109 35.37255859 C-19.7672228 36.51966308 -25.67995333 34.23698794 -33.32128906 28.69677734 C-37.32864445 25.79350044 -41.57690604 23.46808362 -45.95019531 21.16552734 C-46.64806152 20.78855713 -47.34592773 20.41158691 -48.06494141 20.02319336 C-52.31161393 17.78791509 -56.35429422 16.26307246 -61.01269531 15.10302734 C-61.01269531 14.44302734 -61.01269531 13.78302734 -61.01269531 13.10302734 C-49.10815959 9.16233819 -37.36822161 5.350936 -25.01269531 3.10302734 C-24.06523438 2.91095703 -23.11777344 2.71888672 -22.14160156 2.52099609 C-14.77669414 1.06890796 -7.4905033 0.38342945 0 0 Z " fill="#4C84D9" transform="translate(1077.0126953125,518.89697265625)"/>
<path d="M0 0 C8.19588352 -0.42807661 15.59270702 1.18998052 23.5625 3 C24.8702514 3.28992678 26.17819324 3.57899593 27.48632812 3.8671875 C30.65952194 4.56973964 33.83053002 5.28086852 37 6 C36.58862793 7.13018555 36.58862793 7.13018555 36.16894531 8.28320312 C35.62898926 9.76723633 35.62898926 9.76723633 35.078125 11.28125 C34.72137695 12.26158203 34.36462891 13.24191406 33.99707031 14.25195312 C30.3365983 24.34065854 29.43154142 32.81041329 33.84375 42.78515625 C35.06785544 45.24164256 35.06785544 45.24164256 37.25 48.25 C39.31922042 51.50163208 39.58880749 53.21480896 39 57 C37.81738281 58.65087891 37.81738281 58.65087891 36 60 C33.47558594 60.38818359 33.47558594 60.38818359 30.484375 60.3984375 C28.85435547 60.40423828 28.85435547 60.40423828 27.19140625 60.41015625 C26.05574219 60.39855469 24.92007813 60.38695312 23.75 60.375 C22.62980469 60.38660156 21.50960937 60.39820313 20.35546875 60.41015625 C12.97868905 60.38402834 7.830931 59.7667835 1.75 55.375 C-3.35478103 48.44708289 -3.80816534 40.34068076 -3 32 C-2.53829172 29.97007566 -2.03671258 27.94889428 -1.5 25.9375 C0.72351946 17.37747202 0.25006946 8.7709548 0 0 Z " fill="#1E2533" transform="translate(865,575)"/>
<path d="M0 0 C1.01473389 0.00507568 2.02946777 0.01015137 3.07495117 0.01538086 C12.81922694 0.30780787 21.01150822 2.92692333 29.93017578 6.66894531 C32.47744596 7.7301807 35.04299741 8.72712102 37.62109375 9.7109375 C41.88526789 11.33855663 46.13334278 13.00210722 50.375 14.6875 C48.24924592 19.14860702 45.46412529 23.03232703 42.625 27.0625 C41.85542969 28.17625 41.85542969 28.17625 41.0703125 29.3125 C32.75280629 41.14091336 32.75280629 41.14091336 27.3671875 42.37890625 C15.63207205 41.89361952 3.04498499 40.03507379 -6.32421875 32.28125 C-7.83700853 30.4277418 -8.28075578 28.99656326 -8.875 26.6875 C-10.41302081 21.56355023 -13.1652511 17.65971649 -16.296875 13.36328125 C-17.625 10.6875 -17.625 10.6875 -17.703125 7.60546875 C-14.79491701 -0.26565939 -7.20981073 -0.05215378 0 0 Z " fill="#3974D7" transform="translate(1382.625,518.3125)"/>
<path d="M0 0 C10.65494744 0.62676161 21.97980045 4.84472393 30 12 C41.99724999 25.57583552 44.36971092 41.72831711 44.125 59.1875 C44.11597656 60.42564453 44.10695313 61.66378906 44.09765625 62.93945312 C44.07433276 65.95984511 44.04160477 68.97981399 44 72 C40.59170063 70.38182825 38.20469242 68.52234036 35.4375 65.9375 C31.87341427 62.65644461 28.2396856 59.56366336 24.4375 56.5625 C11.51862096 46.01573152 2.5966782 32.71316513 0 16 C-0.068089 13.21924515 -0.09478336 10.46635261 -0.0625 7.6875 C-0.05798828 6.94693359 -0.05347656 6.20636719 -0.04882812 5.44335938 C-0.03712175 3.62887101 -0.01918898 1.81442466 0 0 Z " fill="#3F7ADA" transform="translate(564,419)"/>
<path d="M0 0 C1.8253125 0.0309375 1.8253125 0.0309375 3.6875 0.0625 C4.69671354 12.67766926 -0.43615398 25.74919461 -8.27734375 35.5078125 C-10.56705511 38.08322021 -12.93093279 40.57185338 -15.3125 43.0625 C-16.30392131 44.14948804 -17.29205207 45.23948398 -18.27734375 46.33203125 C-23.14047786 51.71027567 -27.98332546 56.90027235 -33.5546875 61.5625 C-36.30262956 63.90741056 -38.79093875 66.47789972 -41.3125 69.0625 C-41.9725 68.7325 -42.6325 68.4025 -43.3125 68.0625 C-43.10608887 67.23459961 -42.89967773 66.40669922 -42.68701172 65.55371094 C-40.39873356 55.76549548 -39.66849957 46.34313207 -39.37939453 36.29248047 C-39.04232305 25.5088059 -37.49080575 17.30902702 -30 9.25 C-22.47415411 3.15146971 -9.53910063 -0.16167967 0 0 Z " fill="#467FD5" transform="translate(353.3125,416.9375)"/>
<path d="M0 0 C-0.75023437 0.29132812 -1.50046875 0.58265625 -2.2734375 0.8828125 C-17.89433093 6.99301067 -17.89433093 6.99301067 -29 19 C-31.76543401 29.60365801 -26.17683547 41.94659188 -23 52 C-22.65582031 53.14082031 -22.31164062 54.28164063 -21.95703125 55.45703125 C-19.89514475 62.03886108 -17.21805991 68.29706892 -14.37329102 74.5715332 C-12.96325493 77.69383932 -11.76175237 80.66236395 -11 84 C-19.60578138 84.87019244 -28.1039815 85.12607367 -36.75 85.0625 C-37.9359375 85.05798828 -39.121875 85.05347656 -40.34375 85.04882812 C-43.22922228 85.03719316 -46.11458213 85.0208484 -49 85 C-49 84.67 -49 84.34 -49 84 C-43.72 84 -38.44 84 -33 84 C-33.9075 81.81375 -34.815 79.6275 -35.75 77.375 C-41.12014964 64.11675885 -44.16312376 51.33457913 -44.25 37 C-44.270625 36.14921875 -44.29125 35.2984375 -44.3125 34.421875 C-44.36340112 26.12499272 -42.16861143 19.64535755 -37 13 C-30.14751905 6.45899546 -22.3238419 3.50225559 -13.25 1.1875 C-12.41339844 0.95869141 -11.57679688 0.72988281 -10.71484375 0.49414062 C-9.90660156 0.28337891 -9.09835937 0.07261719 -8.265625 -0.14453125 C-7.54149414 -0.33378174 -6.81736328 -0.52303223 -6.07128906 -0.71801758 C-3.76818796 -1.03155857 -2.19851085 -0.70197523 0 0 Z " fill="#222938" transform="translate(1031,521)"/>
<path d="M0 0 C0.75522949 -0.02666748 1.51045898 -0.05333496 2.28857422 -0.08081055 C10.8572148 -0.02567971 17.44477152 3.77554969 23.58203125 9.55859375 C25.02616097 11.02624775 26.45716537 12.50692804 27.875 14 C28.96071289 15.10698242 28.96071289 15.10698242 30.06835938 16.23632812 C41.0625 27.53167808 41.0625 27.53167808 41.0625 30.5625 C28.70214083 35.39832127 14.92292813 32.87410351 3.12841797 27.71679688 C-8.39655808 22.51606517 -18.37016199 15.8369545 -27.9375 7.5625 C-27.6075 6.5725 -27.2775 5.5825 -26.9375 4.5625 C-24.43786445 3.63521584 -22.14723649 2.96021796 -19.5625 2.375 C-18.81025146 2.20427979 -18.05800293 2.03355957 -17.28295898 1.85766602 C-11.52836095 0.66814164 -5.87210513 0.10530022 0 0 Z " fill="#4F86D7" transform="translate(1090.9375,553.4375)"/>
<path d="M0 0 C0.02578125 0.67804688 0.0515625 1.35609375 0.078125 2.0546875 C0.39259172 7.21480056 1.00751741 11.54174537 3.0625 16.3125 C5.85773816 22.88285685 5.85773816 22.88285685 5 27 C-0.91419665 41.40913365 -15.76500779 52.13806328 -28 61 C-29.02867187 61.76570313 -30.05734375 62.53140625 -31.1171875 63.3203125 C-38.99429466 69.14978968 -38.99429466 69.14978968 -43 71 C-41.75522879 67.11790532 -40.34192897 63.41131245 -38.6875 59.6875 C-36.20640285 53.83710229 -34.39285064 47.90157719 -32.69995117 41.7878418 C-31.73766038 38.34273666 -30.77813162 35.11781982 -29 32 C-28.01 32 -27.02 32 -26 32 C-25.7421875 31.12859375 -25.484375 30.2571875 -25.21875 29.359375 C-22.499101 21.8629066 -9.33490183 0 0 0 Z " fill="#4980D5" transform="translate(309,398)"/>
<path d="M0 0 C13.46366614 5.28114749 25.44922573 24.57955757 31.29296875 36.80078125 C33.54041244 42.07378182 35.24531895 47.52855731 36.9375 53 C37.24445801 53.99169189 37.55141602 54.98338379 37.86767578 56.00512695 C39.2753731 60.77385374 40.41626306 64.97086258 40 70 C33.87924924 65.10339939 28.73268688 59.46532998 23.50439453 53.65283203 C21.97926917 51.97722367 20.43007787 50.32771011 18.87109375 48.68359375 C1.77161423 30.60190565 1.77161423 30.60190565 1.97265625 21.2890625 C1.98490234 20.37382812 1.99714844 19.45859375 2.00976562 18.515625 C2.04478077 16.59627606 2.08381072 14.67699596 2.12695312 12.7578125 C2.24012102 6.15450424 2.24012102 6.15450424 0 0 Z " fill="#3D78DA" transform="translate(598,402)"/>
<path d="M0 0 C-1.61144863 5.27383187 -3.44242035 10.20503102 -6.03515625 15.078125 C-7.06610902 17.04929863 -7.06610902 17.04929863 -7.9140625 19.4140625 C-9.10154964 22.24181965 -10.62852938 24.56357241 -12.3125 27.125 C-16.73189899 34.54590747 -18.57469209 42.43352565 -20.48510742 50.79589844 C-20.96167064 52.83592344 -21.49514559 54.85215572 -22.0390625 56.875 C-23.31060133 61.93603851 -23.91691199 67.07846431 -24.5625 72.25 C-24.68818359 73.21035156 -24.81386719 74.17070313 -24.94335938 75.16015625 C-26.73709351 89.19072587 -27.26366519 103.12304153 -27.5625 117.25 C-27.60578845 119.17058041 -27.64940565 121.09115345 -27.69335938 123.01171875 C-27.79936216 127.67440276 -27.90091951 132.33716397 -28 137 C-28.33 137 -28.66 137 -29 137 C-29 127.1 -29 117.2 -29 107 C-30.32 107 -31.64 107 -33 107 C-33.54392287 91.3852296 -32.42594484 76.83800414 -29.4609375 61.50537109 C-28.88814513 58.39202613 -28.50348738 55.26723376 -28.125 52.125 C-25.66182825 36.43521691 -18.67998208 22.72242295 -11.02807617 8.98266602 C-9.87509501 6.88524041 -9.87509501 6.88524041 -9 4 C-6.33916031 2.00603743 -3.38757675 0 0 0 Z " fill="#212837" transform="translate(272,454)"/>
<path d="M0 0 C26.07198739 -1.22000634 51.40166696 4.38972736 73.41015625 18.55078125 C73.93480469 19.02902344 74.45945312 19.50726562 75 20 C75 20.99 75 21.98 75 23 C62.56401544 27.14532819 49.00790733 21.60263645 37.83813477 16.09057617 C35.17249828 14.73767811 32.51928279 13.36228855 29.87109375 11.97558594 C21.56597718 7.64530856 13.81729291 4.3827058 4.58203125 2.640625 C2 2 2 2 0 0 Z " fill="#6A4A57" transform="translate(1159,520)"/>
<path d="M0 0 C5.34919248 0.56742815 10.25075829 1.50709657 15.4375 3 C20.96664706 4.54918292 26.26718954 5.59769751 32 6 C27.21589897 16.3849998 17.38237178 23.66828197 7 28 C3.58855525 28.646379 1.45801695 28.54600268 -2 28 C-1.76990234 26.34484375 -1.76990234 26.34484375 -1.53515625 24.65625 C-0.90498324 19.6148659 -0.66239916 14.57313521 -0.4375 9.5 C-0.39431641 8.5821875 -0.35113281 7.664375 -0.30664062 6.71875 C-0.20166544 4.47927939 -0.09950752 2.23971908 0 0 Z " fill="#4179D6" transform="translate(1377,557)"/>
<path d="M0 0 C0.33 0 0.66 0 1 0 C1.10957031 1.09957031 1.21914063 2.19914062 1.33203125 3.33203125 C2.21991486 11.79185532 3.27439225 19.89995443 6 28 C6.26425781 28.82628906 6.52851562 29.65257812 6.80078125 30.50390625 C11.97169686 45.0599198 23.3852834 54.85576301 35.1875 64.125 C48.74892276 74.8163963 48.74892276 74.8163963 51 83 C50.55269531 82.60167969 50.10539063 82.20335937 49.64453125 81.79296875 C46.25220061 78.82015875 42.98159776 76.1717806 39 74 C38.67 74.66 38.34 75.32 38 76 C37.61070312 75.5153125 37.22140625 75.030625 36.8203125 74.53125 C32.81446289 69.73161452 28.53454408 65.89312315 23.61328125 62.0546875 C8.49402437 50.16720003 1.40242482 37.45718799 -6.09545898 20.07202148 C-6.69497764 18.69871113 -7.3298651 17.34026981 -8 16 C-6.85546875 13.57421875 -6.85546875 13.57421875 -5.1875 10.6875 C-3.17595503 7.18521386 -1.41391435 3.7865316 0 0 Z " fill="#141E31" transform="translate(562,418)"/>
<path d="M0 0 C2.38487037 2.38487037 2.96103732 4.34183553 4.125 7.5 C9.343327 20.19691772 20.2942299 31.47319428 33 37 C35.79873711 37.68248914 38.57123019 37.99825078 41.4375 38.25 C42.16904297 38.32734375 42.90058594 38.4046875 43.65429688 38.484375 C45.43475885 38.6705671 47.21723355 38.83734664 49 39 C48 41 48 41 45.26953125 42 C43.55830078 42.495 43.55830078 42.495 41.8125 43 C39.54104969 43.66456146 37.27021046 44.33121533 35 45 C33.94941406 45.28617187 32.89882813 45.57234375 31.81640625 45.8671875 C28.62726184 47.14992242 27.26546559 48.47082267 25.125 51.125 C24.52945312 51.84945312 23.93390625 52.57390625 23.3203125 53.3203125 C22.66675781 54.15175781 22.66675781 54.15175781 22 55 C20.8299903 51.08263419 21.30415983 48.02040985 22 44 C21.25556641 43.52433594 21.25556641 43.52433594 20.49609375 43.0390625 C9.47073004 35.46566276 3.47448971 23.51482739 0.6875 10.625 C0.07115782 7.05367151 -0.19113494 3.63156393 0 0 Z " fill="#1E2534" transform="translate(453,341)"/>
<path d="M0 0 C6.41162961 -0.49024454 6.41162961 -0.49024454 9.44921875 1.7578125 C13.48046875 6.27395342 13.48046875 6.27395342 13.48046875 10.30078125 C10.7520844 11.1159876 8.02282458 11.92802968 5.29296875 12.73828125 C4.52404297 12.96837891 3.75511719 13.19847656 2.96289062 13.43554688 C-3.82560277 15.44587324 -9.83403446 16.46291242 -16.95703125 16.42578125 C-17.69501953 16.42964844 -18.43300781 16.43351563 -19.19335938 16.4375 C-23.41161836 16.43000087 -27.36477545 16.13041553 -31.51953125 15.30078125 C-29.85810612 13.96092227 -28.18951774 12.62995417 -26.51953125 11.30078125 C-25.48505859 10.45 -25.48505859 10.45 -24.4296875 9.58203125 C-16.41666984 3.11682726 -10.13396106 1.2097907 0 0 Z " fill="#31CEA3" transform="translate(1273.51953125,626.69921875)"/>
<path d="M0 0 C2.30004954 2.20335076 4.26558323 4.52367168 6.1875 7.0625 C6.71730469 7.75472656 7.24710937 8.44695312 7.79296875 9.16015625 C9 11 9 11 9 13 C9.66 13 10.32 13 11 13 C12.04755745 14.14576596 13.03809717 15.3439356 14 16.5625 C25.49984781 30.01066914 41.03066672 34.39121905 58 36 C62.01910818 36.18562146 65.98285033 36.2164931 70 36 C69.505 36.99 69.505 36.99 69 38 C63.03212902 39.0635139 57.11248006 39.18289225 51.0625 39.1875 C50.22009766 39.19974609 49.37769531 39.21199219 48.50976562 39.22460938 C34.93573932 39.25595817 22.96933004 34.69959953 13.03125 25.265625 C7.32527951 18.9012733 0 8.89621343 0 0 Z " fill="#121927" transform="translate(335,498)"/>
<path d="M0 0 C2.9232271 1.46161355 3.13536707 3.42756726 4.3125 6.4375 C6.29378983 11.39072457 8.51244831 16.07340601 11.08203125 20.74609375 C12 23 12 23 11.94921875 25.484375 C12.01497203 28.74169147 13.12064561 30.1892345 15 32.8125 C15.556875 33.60269531 16.11375 34.39289063 16.6875 35.20703125 C17.120625 35.79871094 17.55375 36.39039063 18 37 C15.23290256 35.68581023 12.77092204 34.22081557 10.28515625 32.43359375 C9.59873047 31.94826172 8.91230469 31.46292969 8.20507812 30.96289062 C6.77743255 29.94649026 5.35293634 28.9256516 3.93164062 27.90039062 C-1.07426474 24.36761632 -1.07426474 24.36761632 -7 23 C-7.66 24.98 -8.32 26.96 -9 29 C-9.66 28.67 -10.32 28.34 -11 28 C-10.525625 27.195625 -10.05125 26.39125 -9.5625 25.5625 C-7.93697055 21.85629286 -7.53561149 19.0339106 -7.30859375 15.05078125 C-7 13 -7 13 -5 10 C-4.34 10 -3.68 10 -3 10 C-2.01 6.7 -1.02 3.4 0 0 Z " fill="#111C29" transform="translate(361,419)"/>
<path d="M0 0 C0.33 0 0.66 0 1 0 C1.05607422 1.77503906 1.05607422 1.77503906 1.11328125 3.5859375 C1.54860084 14.85654057 2.71172378 24.24385927 8.1328125 34.30859375 C9 36 9 36 10 39 C8.88882812 39.08636719 7.77765625 39.17273438 6.6328125 39.26171875 C-6.92603376 40.47450934 -15.48096532 44.18332118 -26 53 C-24.68 53.66 -23.36 54.32 -22 55 C-28.0546875 55.1953125 -28.0546875 55.1953125 -30 55 C-30.66 54.34 -31.32 53.68 -32 53 C-30.56429734 52.18432826 -29.12636566 51.37257907 -27.6875 50.5625 C-26.88699219 50.11003906 -26.08648438 49.65757812 -25.26171875 49.19140625 C-23 48 -23 48 -20 47 C-18.89363605 44.60931266 -18.89363605 44.60931266 -18 42 C-17.34 41.01 -16.68 40.02 -16 39 C-13.37302936 38.77862607 -10.99106036 38.71837975 -8.375 38.8125 C-7.66859375 38.82603516 -6.9621875 38.83957031 -6.234375 38.85351562 C-4.48925872 38.8888896 -2.74453392 38.94269779 -1 39 C-1.33 38.01 -1.66 37.02 -2 36 C-4.52412249 34.82352163 -4.52412249 34.82352163 -7.5 33.9375 C-9.35081477 33.34361743 -11.18958972 32.70754959 -13 32 C-13.33 31.34 -13.66 30.68 -14 30 C-12.56208484 30.14168137 -11.1246763 30.28851043 -9.6875 30.4375 C-8.88699219 30.51871094 -8.08648438 30.59992187 -7.26171875 30.68359375 C-5 31 -5 31 -2 32 C-2.16081055 31.43772705 -2.32162109 30.8754541 -2.48730469 30.29614258 C-3.41430833 26.14449057 -3.22666833 21.92511366 -3.25 17.6875 C-3.270625 16.76259766 -3.29125 15.83769531 -3.3125 14.88476562 C-3.34527099 9.12116711 -2.68300269 5.11888671 0 0 Z " fill="#1D2533" transform="translate(1270,588)"/>
<path d="M0 0 C0.75796875 0.08636719 1.5159375 0.17273438 2.296875 0.26171875 C1.80316406 1.009375 1.30945312 1.75703125 0.80078125 2.52734375 C-0.16021484 4.00460937 -0.16021484 4.00460937 -1.140625 5.51171875 C-2.09775391 6.97351563 -2.09775391 6.97351563 -3.07421875 8.46484375 C-4.4607386 10.8455349 -5.249706 12.57952182 -5.703125 15.26171875 C-5.16945313 15.65101563 -4.63578125 16.0403125 -4.0859375 16.44140625 C2.26154718 21.20751066 7.7937484 26.55179407 13.296875 32.26171875 C12.306875 33.25171875 11.316875 34.24171875 10.296875 35.26171875 C9.69101563 34.59785156 9.08515625 33.93398438 8.4609375 33.25 C1.60634071 26.02630953 -4.04505662 20.48284749 -14.3125 19.8984375 C-21.84963736 19.70755012 -28.49440888 19.98289287 -35.703125 22.26171875 C-38.640625 22.38671875 -38.640625 22.38671875 -40.703125 22.26171875 C-40.703125 21.60171875 -40.703125 20.94171875 -40.703125 20.26171875 C-44.333125 20.26171875 -47.963125 20.26171875 -51.703125 20.26171875 C-51.703125 19.93171875 -51.703125 19.60171875 -51.703125 19.26171875 C-50.6615625 19.15214844 -49.62 19.04257812 -48.546875 18.9296875 C-26.1387627 17.67219626 -26.1387627 17.67219626 -7.78515625 6.9375 C-6.61163147 5.34360813 -5.48027312 3.7172536 -4.40625 2.0546875 C-2.703125 0.26171875 -2.703125 0.26171875 0 0 Z " fill="#414960" transform="translate(1109.703125,534.73828125)"/>
<path d="M0 0 C3.12887433 0.01346718 4.76092924 0.09738573 7.30859375 1.95703125 C11.3125 6.51783573 11.3125 6.51783573 11.3125 10.5 C5.8675 11.985 5.8675 11.985 0.3125 13.5 C-1.6675 9.54 -3.6475 5.58 -5.6875 1.5 C-4.05272064 -0.13477936 -2.25277873 0.13469529 0 0 Z " fill="#179676" transform="translate(1275.6875,626.5)"/>
<path d="M0 0 C2.31 0.33 4.62 0.66 7 1 C6.63648438 1.47308594 6.27296875 1.94617188 5.8984375 2.43359375 C-3.62951277 14.96651295 -9.0683403 25.38669115 -12 41 C-12.33 41 -12.66 41 -13 41 C-12.53050309 25.13100453 -7.63783604 13.57013587 0 0 Z " fill="#242A3A" transform="translate(1280,522)"/>
<path d="M0 0 C0.69222656 0.27714844 1.38445312 0.55429687 2.09765625 0.83984375 C3.05542969 1.22269531 4.01320313 1.60554687 5 2 C6.54494141 2.62068359 6.54494141 2.62068359 8.12109375 3.25390625 C9.21550781 3.68574219 10.30992188 4.11757813 11.4375 4.5625 C12.52933594 4.99691406 13.62117188 5.43132813 14.74609375 5.87890625 C20.11870624 7.72997442 25.02936399 8.12164428 30.6875 8.0625 C31.80511719 8.05347656 32.92273437 8.04445313 34.07421875 8.03515625 C35.03972656 8.02355469 36.00523438 8.01195312 37 8 C37.99 8 38.98 8 40 8 C36.535 10.97 36.535 10.97 33 14 C33 13.34 33 12.68 33 12 C31.76378906 12.061875 30.52757812 12.12375 29.25390625 12.1875 C23.20953878 12.1875 17.72290738 10.62064409 11.9375 9 C10.88111328 8.71382812 9.82472656 8.42765625 8.73632812 8.1328125 C6.15462492 7.4318976 3.5762044 6.72081324 1 6 C0.67 4.02 0.34 2.04 0 0 Z " fill="#353F59" transform="translate(1376,551)"/>
<path d="M0 0 C1.35368041 -0.05525226 2.70806235 -0.09334369 4.0625 -0.125 C4.81660156 -0.14820313 5.57070312 -0.17140625 6.34765625 -0.1953125 C9 0 9 0 11.90625 1 C17.86865203 2.81980422 24.27438747 2.20588891 30.4375 2.125 C31.74138672 2.11597656 33.04527344 2.10695313 34.38867188 2.09765625 C37.59263832 2.07418397 40.79622264 2.04134727 44 2 C41.27078703 5.12268846 39.13654316 5.55155168 34.99609375 5.87109375 C14.77039219 6.74129994 14.77039219 6.74129994 7 3 C4.68208726 2.26166872 2.3487407 1.63611727 0 1 C0 0.67 0 0.34 0 0 Z " fill="#634652" transform="translate(1097,516)"/>
<path d="M0 0 C0.66 0 1.32 0 2 0 C-0.67622279 7.58263124 -5.47540428 12.77256997 -10.8359375 18.61328125 C-12.48632741 20.43347662 -14.0436077 22.26046997 -15.5625 24.1875 C-18.73545428 27.84860109 -22.29333518 30.89304898 -26 34 C-26.60972656 34.51304687 -27.21945312 35.02609375 -27.84765625 35.5546875 C-29.22691081 36.70895728 -30.61266808 37.85545117 -32 39 C-32.66 38.67 -33.32 38.34 -34 38 C-32.16994455 36.14249371 -30.33684149 34.28828181 -28.5 32.4375 C-27.94828125 31.88102783 -27.3965625 31.32455566 -26.828125 30.7512207 C-23.98697208 27.90799335 -21.13400966 25.21064337 -18 22.6875 C-14.02993911 19.32048634 -10.86887806 15.36012397 -7.625 11.3125 C-7.10035156 10.65789795 -6.57570313 10.0032959 -6.03515625 9.32885742 C-3.66120397 6.30911885 -1.64344071 3.48861544 0 0 Z " fill="#131A28" transform="translate(348,449)"/>
<path d="M0 0 C0.33 0 0.66 0 1 0 C0.80854876 8.96339903 0.80854876 8.96339903 -2.4375 13.125 C-5 15 -5 15 -7 15 C-7 15.66 -7 16.32 -7 17 C-8.98 16.67 -10.96 16.34 -13 16 C-12.46375 15.608125 -11.9275 15.21625 -11.375 14.8125 C-10.199375 13.9153125 -10.199375 13.9153125 -9 13 C-7.989375 12.278125 -6.97875 11.55625 -5.9375 10.8125 C-2.3056005 7.81503357 -1.35168768 4.43053185 0 0 Z " fill="#131927" transform="translate(343,532)"/>
<path d="M0 0 C0.99 0.33 1.98 0.66 3 1 C-0.67832017 5.52615993 -4.41086363 9.39424999 -9 13 C-9.125 7.25 -9.125 7.25 -8 5 C-6.40625 3.96484375 -6.40625 3.96484375 -4.5 2.9375 C-2.0882696 1.6858579 -2.0882696 1.6858579 0 0 Z " fill="#191F2E" transform="translate(310,487)"/>
<path d="M0 0 C-0.99 0.495 -0.99 0.495 -2 1 C-1.67 1.66 -1.34 2.32 -1 3 C-5.455 3.495 -5.455 3.495 -10 4 C-10 3.34 -10 2.68 -10 2 C-13.63 2 -17.26 2 -21 2 C-21 1.67 -21 1.34 -21 1 C-18.25091555 0.63685675 -15.50116549 0.28419159 -12.75 -0.0625 C-11.97269531 -0.16626953 -11.19539063 -0.27003906 -10.39453125 -0.37695312 C-9.64042969 -0.47041016 -8.88632813 -0.56386719 -8.109375 -0.66015625 C-7.41811523 -0.74918213 -6.72685547 -0.83820801 -6.01464844 -0.92993164 C-3.82569152 -1.00606235 -2.08994187 -0.6249336 0 0 Z " fill="#445676" transform="translate(1079,553)"/>
<path d="M0 0 C4.49797113 1.68673918 8.72886302 3.81673892 13 6 C13 6.33 13 6.66 13 7 C4.42857143 7.14285714 4.42857143 7.14285714 1 6 C0.67 4.02 0.34 2.04 0 0 Z " fill="#31384E" transform="translate(1376,551)"/>
<path d="M0 0 C0.33 0.99 0.66 1.98 1 3 C-2.30803926 8.59183206 -8.07715049 12.88929571 -13 17 C-13.66 16.67 -14.32 16.34 -15 16 C-14.08476562 15.09636719 -13.16953125 14.19273437 -12.2265625 13.26171875 C-11.02590942 12.07044577 -9.82539585 10.87903217 -8.625 9.6875 C-8.02171875 9.09259766 -7.4184375 8.49769531 -6.796875 7.88476562 C-6.21679688 7.30791016 -5.63671875 6.73105469 -5.0390625 6.13671875 C-4.50490723 5.60780029 -3.97075195 5.07888184 -3.42041016 4.53393555 C-1.78498535 2.8489902 -1.78498535 2.8489902 0 0 Z " fill="#28354E" transform="translate(346,450)"/>
<path d="M0 0 C0.66 0.66 1.32 1.32 2 2 C-0.97 4.31 -3.94 6.62 -7 9 C-5.68 9.66 -4.36 10.32 -3 11 C-9.0546875 11.1953125 -9.0546875 11.1953125 -11 11 C-11.66 10.34 -12.32 9.68 -13 9 C-11.56429734 8.18432826 -10.12636566 7.37257907 -8.6875 6.5625 C-7.88699219 6.11003906 -7.08648438 5.65757812 -6.26171875 5.19140625 C-4 4 -4 4 -1 3 C-0.67 2.01 -0.34 1.02 0 0 Z " fill="#1E6056" transform="translate(1251,632)"/>
<path d="M0 0 C6.09549711 0.28219894 12.09543773 1.05883389 17 5 C17.71875 7.13671875 17.71875 7.13671875 18 9 C15.5610642 7.87802953 13.12384745 6.75256576 10.6875 5.625 C9.99720703 5.30789063 9.30691406 4.99078125 8.59570312 4.6640625 C5.57233933 3.26192277 2.77843695 1.8522913 0 0 Z " fill="#3B4361" transform="translate(1165,523)"/>
<path d="M0 0 C1.23593891 3.70781672 0.5678132 4.67510253 -0.9375 8.1875 C-1.31777344 9.08855469 -1.69804687 9.98960937 -2.08984375 10.91796875 C-2.54037109 11.94857422 -2.54037109 11.94857422 -3 13 C-3.66 13 -4.32 13 -5 13 C-4.33333333 9 -3.66666667 5 -3 1 C-2.01 0.67 -1.02 0.34 0 0 Z " fill="#30374B" transform="translate(361,416)"/>
<path d="M0 0 C0.33 0.66 0.66 1.32 1 2 C0.39671875 2.02578125 -0.2065625 2.0515625 -0.828125 2.078125 C-6.00445513 2.39631639 -6.00445513 2.39631639 -10.4375 4.875 C-11.66997955 6.55117218 -12.84593574 8.26890361 -14 10 C-13.52048204 5.68433833 -12.29764982 3.7980059 -9 1 C-6.04335481 -0.4783226 -3.25770263 -0.06032783 0 0 Z " fill="#4574C0" transform="translate(551,356)"/>
<path d="M0 0 C0 0.66 0 1.32 0 2 C1.65 2.33 3.3 2.66 5 3 C5 3.33 5 3.66 5 4 C0.05 4 -4.9 4 -10 4 C-4.66666667 0 -4.66666667 0 0 0 Z " fill="#47414B" transform="translate(1149,516)"/>
<path d="M0 0 C0 0.66 0 1.32 0 2 C0.66 2.33 1.32 2.66 2 3 C-9.385 2.505 -9.385 2.505 -21 2 C-21 1.67 -21 1.34 -21 1 C-18.43761495 0.83138242 -15.87511576 0.66504227 -13.3125 0.5 C-12.59126953 0.45230469 -11.87003906 0.40460937 -11.12695312 0.35546875 C-7.41171286 0.11796481 -3.72305126 -0.05874637 0 0 Z " fill="#49577C" transform="translate(1159,519)"/>
<path d="M0 0 C2.50719458 2.32649587 4.32183601 4.82681521 6.1875 7.6875 C6.71730469 8.49574219 7.24710937 9.30398438 7.79296875 10.13671875 C8.39044922 11.05904297 8.39044922 11.05904297 9 12 C6.1157546 11.65514457 5.1792182 11.21744593 3.296875 8.93359375 C2.78640625 8.10988281 2.2759375 7.28617187 1.75 6.4375 C1.22921875 5.61121094 0.7084375 4.78492188 0.171875 3.93359375 C-0.21484375 3.29550781 -0.6015625 2.65742188 -1 2 C-0.67 1.34 -0.34 0.68 0 0 Z " fill="#203B40" transform="translate(373,444)"/>
<path d="M0 0 C2.86867231 1.38264837 5.56024032 2.92148553 8.25 4.625 C8.95640625 5.07101562 9.6628125 5.51703125 10.390625 5.9765625 C10.92171875 6.31429687 11.4528125 6.65203125 12 7 C11.34 7.66 10.68 8.32 10 9 C8.51726301 7.87970983 7.03891114 6.75361382 5.5625 5.625 C4.32693359 4.68527344 4.32693359 4.68527344 3.06640625 3.7265625 C1 2 1 2 0 0 Z " fill="#131927" transform="translate(1426,653)"/>
<path d="M0 0 C1.32 0.33 2.64 0.66 4 1 C4 1.99 4 2.98 4 4 C2.02 4.66 0.04 5.32 -2 6 C-1.49396008 3.83125748 -1.00016187 2.00032373 0 0 Z " fill="#273741" transform="translate(1254,627)"/>
<path d="M0 0 C0.79921875 0.00902344 1.5984375 0.01804687 2.421875 0.02734375 C3.02515625 0.03894531 3.6284375 0.05054688 4.25 0.0625 C4.25 0.3925 4.25 0.7225 4.25 1.0625 C-2.68 2.5475 -2.68 2.5475 -9.75 4.0625 C-9.42 3.0725 -9.09 2.0825 -8.75 1.0625 C-5.8585914 -0.0569613 -3.07237388 -0.04518197 0 0 Z " fill="#334464" transform="translate(1133.75,520.9375)"/>
<path d="M0 0 C2.68433048 2.45091043 3.91789741 4.28241384 4.09765625 8.04296875 C4.06510417 10.02864583 4.03255208 12.01432292 4 14 C3.67 14 3.34 14 3 14 C2.49307308 12.4188708 1.99473557 10.83498617 1.5 9.25 C1.2215625 8.36828125 0.943125 7.4865625 0.65625 6.578125 C0 4 0 4 0 0 Z " fill="#3F4762" transform="translate(591,386)"/>
<path d="M0 0 C2.97 0.33 5.94 0.66 9 1 C8.67 1.99 8.34 2.98 8 4 C5.64828869 3.40138258 3.3140622 2.73075648 1 2 C0.67 1.34 0.34 0.68 0 0 Z " fill="#232A3B" transform="translate(1256,618)"/>
<path d="M0 0 C2.62187494 1.04874998 3.79371361 1.64931313 5.25 4.125 C5.4975 4.74375 5.745 5.3625 6 6 C5.01 6.33 4.02 6.66 3 7 C2.01 4.69 1.02 2.38 0 0 Z " fill="#3E78C9" transform="translate(598,402)"/>
<path d="M0 0 C0.66 0.66 1.32 1.32 2 2 C3.31747324 2.69748583 4.64914193 3.36959957 6 4 C-0.0546875 4.1953125 -0.0546875 4.1953125 -2 4 C-2.66 3.34 -3.32 2.68 -4 2 C-2.68 1.34 -1.36 0.68 0 0 Z " fill="#1A7D64" transform="translate(1242,639)"/>
<path d="M0 0 C0.66 0.99 1.32 1.98 2 3 C1.34 4.32 0.68 5.64 0 7 C-0.99 7 -1.98 7 -3 7 C-2.01 4.69 -1.02 2.38 0 0 Z " fill="#4B80C9" transform="translate(313,478)"/>
</svg>
