<svg version="1.1" id="Layer_1" xmlns="http://www.w3.org/2000/svg" xmlns:xlink="http://www.w3.org/1999/xlink" x="0px" y="0px"
	  viewBox="0 0 1536 1024" enable-background="new 0 0 1536 1024" xml:space="preserve">
<path fill="#050C1A" opacity="1.000000" stroke="none" 
	d="
M1100.000000,1025.000000 
	C733.333313,1025.000000 367.166656,1025.000000 1.000000,1025.000000 
	C1.000000,683.666687 1.000000,342.333344 1.000000,1.000000 
	C513.000000,1.000000 1025.000000,1.000000 1537.000000,1.000000 
	C1537.000000,342.333344 1537.000000,683.666687 1537.000000,1025.000000 
	C1391.500000,1025.000000 1246.000000,1025.000000 1100.000000,1025.000000 
M442.582184,528.624268 
	C443.034271,527.360046 443.486359,526.095825 444.346710,524.316956 
	C450.208313,517.180359 457.554260,510.798248 461.640442,502.759216 
	C472.014252,482.350067 470.509949,461.389343 460.733795,440.237396 
	C460.482697,439.153717 460.231567,438.070038 460.855621,436.853424 
	C465.813507,435.723175 471.884796,436.035858 475.539093,433.216156 
	C492.511963,420.119568 509.746918,407.108765 525.035217,392.170868 
	C535.480164,381.965302 542.800232,368.581970 551.665405,356.730072 
	C555.860413,351.121765 556.218628,345.381409 552.827698,339.476318 
	C546.444580,328.360657 540.376587,317.015961 533.253052,306.385986 
	C524.874878,293.883728 514.718201,282.888123 501.576996,274.980591 
	C498.964111,273.408325 496.602142,271.080200 494.757141,268.625153 
	C481.767487,251.340485 464.541046,241.431900 443.228241,238.369873 
	C438.469177,237.686142 433.742889,236.774460 428.446411,235.561417 
	C424.285339,233.453842 420.124298,231.346268 415.373596,228.852524 
	C413.614410,226.889206 411.855255,224.925873 409.969879,222.149399 
	C408.090302,215.144608 409.564911,208.616348 412.830933,202.363510 
	C414.989868,198.230194 417.456726,194.239838 419.361420,189.995056 
	C424.505646,178.530426 426.132568,166.483170 422.502594,154.408081 
	C415.936005,132.564575 394.249817,119.397331 371.018921,122.480141 
	C347.822998,125.558296 334.286041,138.842377 332.369568,161.200256 
	C331.820801,167.602509 332.740906,174.151108 333.213074,180.616150 
	C334.169708,193.714966 334.510712,206.863022 340.878571,219.005005 
	C344.463501,225.840683 349.137024,229.675842 356.997498,229.862122 
	C356.950470,231.877655 356.903473,233.893173 356.187531,236.146637 
	C350.408752,238.771042 344.778351,242.070648 337.138916,240.068695 
	C320.364136,241.341904 293.014648,255.800003 288.580353,279.847321 
	C288.120270,282.342224 286.736053,284.750641 285.422241,286.988800 
	C281.155762,294.256989 276.051880,301.115875 272.523560,308.714264 
	C268.119354,318.198822 264.626770,328.153992 261.414978,338.123260 
	C259.986908,342.555878 259.146606,347.687683 259.860840,352.214783 
	C263.471436,375.100372 273.146454,395.712311 285.083221,415.322906 
	C286.861420,418.244202 289.605835,420.577393 292.168610,423.821625 
	C294.023712,429.037506 296.826630,433.301605 302.531769,435.057495 
	C303.866516,435.468262 305.050201,436.663239 306.081238,437.715179 
	C309.971863,441.684814 314.406311,443.684235 320.060272,442.885376 
	C320.396393,451.338226 320.583710,459.800354 321.110077,468.241333 
	C321.646393,476.841125 322.025177,485.495941 323.336761,493.993317 
	C326.620819,515.270203 334.314484,534.942505 346.098663,553.727905 
	C345.559479,555.992126 345.001831,558.252136 344.484070,560.521240 
	C339.509033,582.323608 337.570526,604.407959 338.086609,626.752563 
	C338.215576,632.336853 338.259216,638.049377 337.254517,643.502625 
	C335.903931,650.833618 333.504517,657.971924 331.543304,665.189636 
	C328.101410,677.856750 323.405823,690.335815 321.484375,703.228821 
	C318.311096,724.521423 312.945587,744.875671 302.186371,764.233337 
	C297.380402,765.035706 294.259705,767.901123 291.938416,772.080750 
	C283.304993,787.626160 271.202332,799.610779 255.263489,807.705627 
	C252.804993,808.954163 250.542358,810.896545 248.689819,812.966187 
	C244.733093,817.386658 245.674835,823.062866 250.679031,826.169861 
	C252.362854,827.215332 254.194244,828.123901 256.075104,828.735413 
	C272.631958,834.117981 289.698181,835.565308 306.136261,830.032959 
	C317.715118,826.135925 328.927673,821.619568 341.046631,819.145447 
	C351.994934,816.910339 354.079346,811.255127 350.618530,800.428528 
	C348.343262,793.310608 346.383545,786.082153 343.829254,779.068237 
	C342.883301,776.470764 340.642487,774.344849 339.223053,771.305054 
	C345.687927,751.270447 356.110931,733.341797 368.132416,716.196411 
	C373.181488,708.995300 378.102448,701.594421 382.079681,693.774719 
	C390.262024,677.687256 389.559723,660.150024 388.637268,642.815674 
	C388.125275,633.194214 390.046204,624.312256 394.334198,616.213074 
	C399.021881,622.700317 403.502991,629.453857 410.941864,633.173523 
	C419.715057,637.560425 425.930725,644.612427 431.725739,652.214172 
	C444.307404,668.718506 459.288208,682.870667 474.734192,696.642700 
	C484.138000,705.027466 492.902649,714.157654 501.565521,723.320740 
	C503.310089,725.166016 503.695801,728.626343 503.993225,731.418213 
	C504.301544,734.312256 503.336273,737.341125 503.639343,740.236633 
	C504.436493,747.853027 505.767090,755.412964 506.599976,763.026489 
	C507.189301,768.413696 506.295532,772.791382 500.378113,775.719849 
	C496.291504,777.742188 492.677673,781.641602 490.074524,785.522034 
	C486.256012,791.213989 488.550812,796.377869 495.216034,798.097839 
	C500.353821,799.423584 505.663849,800.196655 510.943115,800.838623 
	C529.385803,803.081299 544.843018,789.035522 546.530579,772.545837 
	C547.509888,762.976562 551.297668,755.600647 558.208984,749.109314 
	C563.931091,743.734924 568.555481,737.318298 570.337524,729.362183 
	C571.841858,722.646179 570.190674,717.144470 564.137329,713.947998 
	C554.602661,708.913025 544.570251,704.826721 534.805298,700.218445 
	C531.583435,698.697998 527.996826,697.370117 525.504272,694.985168 
	C514.721680,684.668152 508.116180,671.537292 501.852875,658.244324 
	C498.237183,650.570618 495.316650,642.485718 490.964020,635.260132 
	C481.834930,620.105408 467.646820,610.398743 452.609955,601.800659 
	C450.651611,600.680969 448.146027,599.307861 447.421417,597.454834 
	C444.597443,590.233276 441.796295,582.904297 440.100922,575.364746 
	C437.991852,565.985535 436.985046,556.358521 435.650360,546.066833 
	C437.810272,540.422363 439.970215,534.777954 442.582184,528.624268 
M953.679382,435.549194 
	C953.132874,436.698364 952.586365,437.847504 951.678345,439.599518 
	C948.834473,446.413879 945.990662,453.228241 942.808960,460.675690 
	C938.665344,470.809296 933.816833,480.682678 937.382935,492.296844 
	C942.814087,509.985046 948.824524,527.335693 959.277832,542.858643 
	C965.728516,552.437866 971.734985,562.316162 978.268188,572.555786 
	C981.240601,575.660156 979.255859,576.578369 976.286804,577.340149 
	C966.139587,579.944031 956.055664,582.802673 945.876770,585.272461 
	C934.685242,587.987915 928.483276,595.472534 926.255371,606.172180 
	C925.123962,611.605835 924.937805,617.445984 925.493042,622.985168 
	C927.963745,647.630676 931.168518,672.204407 933.503662,696.861206 
	C935.553101,718.500977 938.936890,740.143494 935.157837,762.262207 
	C929.203735,762.689392 925.491699,766.124695 922.931885,771.226379 
	C921.888611,773.305481 920.620605,775.274780 919.407288,777.265076 
	C913.028870,787.727844 904.938660,796.316101 893.432678,801.262573 
	C887.621704,803.760803 881.900085,806.467346 876.144043,809.092712 
	C872.284119,810.853149 869.337646,813.376038 869.243042,818.012085 
	C869.145203,822.811829 871.760376,825.824646 876.017151,827.478882 
	C899.784180,836.714600 923.583984,839.502502 947.867615,828.871399 
	C953.169250,826.550354 959.356201,826.187744 965.171753,825.121582 
	C971.528015,823.956360 978.123535,823.680054 984.263672,821.842834 
	C995.494568,818.482422 997.690247,813.155701 993.806519,802.085388 
	C990.901123,793.803711 988.182190,785.455750 985.457275,777.112122 
	C984.234192,773.367065 982.238281,770.547791 978.039429,768.993408 
	C976.417175,746.664551 979.808838,725.095093 988.308899,704.413879 
	C996.128113,685.389343 995.498596,666.413452 988.898193,647.300049 
	C988.394836,645.842346 988.172058,644.287720 987.476685,641.315552 
	C994.249817,643.326904 999.761902,644.950134 1005.265686,646.601074 
	C1015.788757,649.757812 1026.307129,652.930237 1037.023193,656.835266 
	C1044.663330,681.316956 1055.073975,704.598083 1069.468628,725.794189 
	C1079.268066,740.223877 1089.877930,754.231506 1101.347046,767.360840 
	C1111.665283,779.172791 1122.457153,780.124207 1136.481934,773.119995 
	C1140.058594,771.333740 1143.555786,769.367737 1147.213501,767.767700 
	C1172.855835,756.550354 1198.439941,745.191467 1224.237549,734.341431 
	C1235.305420,729.686401 1246.872314,726.298767 1259.183228,727.715942 
	C1260.046875,730.197388 1260.544312,732.894409 1261.851318,735.114807 
	C1264.466309,739.556824 1267.532227,743.732849 1270.397949,748.027954 
	C1274.836304,754.679993 1274.719971,755.358948 1268.673462,760.285461 
	C1267.257690,761.439026 1265.815063,762.616333 1264.641235,764.000305 
	C1259.689941,769.837891 1261.544556,776.805664 1268.820435,778.859985 
	C1273.607300,780.211548 1278.562500,781.280762 1283.508301,781.700806 
	C1304.880615,783.515381 1321.194214,766.938049 1318.834717,745.902893 
	C1318.410522,742.120178 1317.375366,738.379639 1316.345459,734.697083 
	C1314.670410,728.707886 1314.911011,723.017456 1317.178467,717.114746 
	C1321.015015,707.126892 1322.135010,696.765320 1319.698608,686.186035 
	C1317.869751,678.244690 1313.029419,673.663452 1304.915039,674.123413 
	C1296.495728,674.600708 1288.008911,675.821350 1279.842163,677.873413 
	C1276.521118,678.707947 1273.966553,682.593201 1270.354004,685.385071 
	C1267.933228,685.950623 1265.540283,686.730042 1263.087402,687.047668 
	C1245.264282,689.355286 1227.493896,687.869690 1209.851562,685.436157 
	C1190.252808,682.732788 1171.979736,684.481689 1156.205811,697.822327 
	C1155.432007,698.476807 1154.225586,698.619873 1152.268555,699.362183 
	C1152.313232,683.351624 1149.049316,668.733276 1141.645264,654.517273 
	C1140.979126,653.661072 1140.312988,652.804871 1140.173462,651.500061 
	C1141.390503,649.928894 1142.607544,648.357727 1144.178711,646.222351 
	C1162.404053,629.997131 1166.399170,603.823608 1154.095947,580.848389 
	C1153.044067,577.473999 1154.911255,576.824463 1157.718628,576.796387 
	C1164.147095,576.732056 1169.654297,574.226624 1174.684814,570.350891 
	C1186.820068,561.001221 1199.252197,552.018677 1211.104858,542.325928 
	C1219.571777,535.402039 1227.999512,528.181763 1235.155029,519.969910 
	C1242.777344,511.222351 1248.811035,501.100494 1255.670654,491.674866 
	C1261.319458,483.912933 1261.714233,479.628815 1256.365967,471.710083 
	C1250.213501,462.600342 1243.943115,453.558533 1237.400391,444.726837 
	C1228.201660,432.310059 1217.615845,420.938599 1203.961426,413.666077 
	C1194.992920,408.889313 1187.534546,403.311096 1180.785400,395.697144 
	C1170.185791,383.739288 1155.349243,379.850616 1139.462402,377.595520 
	C1138.677124,377.330536 1137.891846,377.065552 1136.534912,376.406097 
	C1133.270874,375.193024 1130.016235,373.954071 1126.740967,372.771973 
	C1118.299927,369.725464 1109.629517,367.195740 1101.464478,363.536224 
	C1093.073242,359.775330 1091.387451,355.716736 1094.068726,347.001373 
	C1095.964600,340.838287 1098.719727,334.894562 1101.542358,329.071625 
	C1106.350342,319.152924 1109.296265,308.834961 1108.843262,297.780365 
	C1108.241333,283.088043 1103.647705,270.213470 1090.414062,262.094849 
	C1075.356079,252.856903 1059.327637,252.248779 1042.810791,257.579468 
	C1025.223267,263.255707 1014.614624,274.965851 1012.942078,293.589905 
	C1012.248779,301.309418 1013.045410,309.168396 1013.251038,316.961700 
	C1013.600403,330.203613 1015.505188,343.083771 1020.913940,355.390442 
	C1023.947388,362.292725 1028.354004,366.244293 1036.205322,366.539795 
	C1036.251831,366.766022 1036.298218,366.992218 1036.325928,367.841949 
	C1034.959229,369.669189 1033.926880,372.583191 1032.164917,373.125366 
	C1026.258301,374.942810 1020.091125,375.913422 1013.154358,377.133972 
	C989.658508,376.551697 971.707947,398.529083 968.632385,416.579834 
	C967.282104,418.402374 965.981262,420.264191 964.571777,422.039703 
	C961.107666,426.403168 957.593506,430.726898 953.679382,435.549194 
z"/>
<path fill="#2C3244" opacity="1.000000" stroke="none" 
	d="
M935.832764,761.987244 
	C938.936890,740.143494 935.553101,718.500977 933.503662,696.861206 
	C931.168518,672.204407 927.963745,647.630676 925.493042,622.985168 
	C924.937805,617.445984 925.123962,611.605835 926.255371,606.172180 
	C928.483276,595.472534 934.685242,587.987915 945.876770,585.272461 
	C956.055664,582.802673 966.139587,579.944031 976.286804,577.340149 
	C979.255859,576.578369 981.240601,575.660156 978.368103,572.061035 
	C981.723572,571.103638 984.977478,570.442932 988.236816,570.414307 
	C988.672546,570.410461 989.136414,573.604675 989.554871,575.194763 
	C999.606384,574.182800 1010.124573,573.123840 1020.688049,572.528931 
	C1020.710022,585.355042 1020.551147,597.719604 1020.788513,610.076599 
	C1020.831177,612.294189 1022.509155,614.480408 1023.418762,616.656738 
	C1023.405457,616.632446 1023.314758,616.572693 1023.700684,616.871399 
	C1029.777222,617.432800 1035.468018,617.695557 1041.112793,618.184814 
	C1039.411255,619.206299 1037.821777,620.449219 1036.086304,620.706238 
	C1032.036255,621.306091 1027.915894,621.432007 1022.438232,621.857544 
	C1025.327515,624.827209 1027.197021,627.727966 1029.854858,629.269653 
	C1034.850952,632.167725 1040.267944,634.358582 1045.572144,636.702942 
	C1054.229248,640.529114 1063.107300,643.897400 1071.574707,648.098877 
	C1080.388428,652.472229 1088.864014,657.584717 1098.914795,658.526184 
	C1102.568970,658.868408 1106.281982,658.581177 1109.725586,658.581177 
	C1107.592285,648.809204 1104.988647,640.347656 1104.069702,631.706970 
	C1103.135986,622.925903 1103.863525,613.968262 1103.863525,604.908936 
	C1102.586426,604.908936 1100.776855,604.908936 1099.116455,604.608765 
	C1101.275269,602.617981 1103.428589,601.069458 1105.267944,599.210266 
	C1110.835815,593.582397 1111.323120,587.651855 1107.218018,581.971069 
	C1110.131958,581.146179 1112.679810,580.458008 1115.227539,579.769836 
	C1115.130127,579.312073 1115.032593,578.854370 1114.935181,578.396606 
	C1112.860474,578.541260 1110.761475,578.937988 1108.719971,578.739868 
	C1107.412109,578.612915 1106.189575,577.608582 1104.928711,576.997559 
	C1105.692993,575.867188 1106.201050,574.286743 1107.264282,573.681274 
	C1113.187988,570.307861 1119.229248,567.138123 1125.268677,563.971741 
	C1127.164673,562.977661 1129.179199,562.209473 1131.139404,561.337830 
	C1130.824341,560.716370 1130.509277,560.094971 1130.194214,559.473511 
	C1124.639282,562.260864 1119.075806,565.031128 1113.532349,567.841125 
	C1109.390259,569.940796 1105.410645,572.436646 1101.112793,574.133606 
	C1095.677490,576.279724 1093.659424,574.529663 1094.388672,568.798645 
	C1089.986938,570.151184 1087.751099,569.024292 1089.345703,563.857361 
	C1092.829956,560.730652 1096.055664,557.807678 1099.694458,554.510376 
	C1096.357544,554.240051 1094.003174,554.049316 1091.686157,553.861633 
	C1090.746460,557.205750 1089.809082,560.541687 1088.614746,564.120544 
	C1088.247192,567.556946 1088.136597,570.750427 1087.627686,573.961731 
	C1069.793579,569.985046 1052.094116,569.591187 1034.341797,570.304993 
	C1029.770386,570.488831 1025.227539,571.389160 1020.327942,571.705200 
	C1018.361267,569.544983 1015.622070,567.796570 1015.328369,565.704834 
	C1014.505432,559.844238 1014.503906,553.840149 1014.558594,547.896179 
	C1014.586731,544.841614 1014.030701,542.658752 1010.822388,541.500610 
	C1008.963867,531.161987 1007.230103,521.202942 1005.092590,511.331238 
	C1003.762207,505.186737 1001.230591,499.263184 1000.302490,493.080658 
	C999.122375,485.219513 999.342102,477.107117 992.616577,471.239960 
	C991.793640,470.522064 991.466370,469.236053 990.832153,467.916504 
	C990.520935,467.055420 990.286987,466.491119 989.968018,465.543335 
	C989.594849,462.778625 989.306702,460.397369 989.017456,457.678467 
	C989.014709,456.890717 989.012878,456.440613 989.014343,455.539703 
	C989.740601,448.817444 990.266235,442.515503 991.229065,436.281067 
	C993.033752,424.595490 997.802673,414.033386 1004.300537,403.852356 
	C1006.370605,400.081207 1008.198730,396.549652 1010.374878,393.106445 
	C1014.617310,395.911163 1018.392212,398.823425 1022.437622,401.292694 
	C1027.160889,404.175812 1031.872192,407.453461 1037.052856,409.097382 
	C1041.460938,410.496155 1046.527222,409.960083 1051.302856,409.968781 
	C1052.603149,409.971161 1054.253784,409.160309 1055.133057,408.176819 
	C1056.880493,406.222534 1057.938232,403.627563 1059.764404,401.773407 
	C1062.468994,399.027344 1065.229370,395.834717 1068.628052,394.394287 
	C1073.436157,392.356384 1078.885254,391.877319 1083.986450,390.465057 
	C1086.696655,389.714752 1088.564819,389.801697 1090.361328,392.417023 
	C1093.140869,396.463379 1097.091553,397.751434 1102.106567,396.760803 
	C1104.912598,396.206512 1107.965576,396.903320 1110.917969,397.498779 
	C1109.807251,413.607849 1114.447632,427.530884 1123.760132,439.953491 
	C1126.185059,443.188232 1125.910034,446.132172 1123.795898,449.094696 
	C1118.873291,455.992889 1113.817871,462.796112 1108.834961,469.651520 
	C1108.164673,470.573914 1107.603516,471.575653 1106.991699,472.540588 
	C1112.363647,469.080933 1116.643677,464.710144 1121.372192,460.895172 
	C1126.174072,457.020966 1128.706177,457.412689 1133.106201,461.591370 
	C1140.104248,468.237335 1140.104248,468.237366 1147.877197,463.419067 
	C1144.683716,472.018829 1141.147095,480.124603 1138.433350,488.497070 
	C1133.982544,502.228333 1130.065918,516.132812 1125.589844,529.940186 
	C1123.827759,528.380005 1122.399658,526.843872 1120.368774,524.659180 
	C1115.411987,529.592834 1109.691284,535.286804 1103.794556,541.134277 
	C1103.389648,541.500000 1103.177246,541.727661 1102.786133,542.033936 
	C1102.256104,542.366760 1101.921143,542.636353 1101.586182,542.905884 
	C1101.727905,543.044861 1101.869751,543.183899 1102.011597,543.322937 
	C1102.351196,542.888306 1102.690918,542.453735 1103.207764,541.867310 
	C1103.614990,541.504944 1103.827759,541.278015 1104.412231,540.983765 
	C1112.196167,538.631287 1119.590942,536.329773 1127.359375,533.913086 
	C1130.016357,533.787903 1132.446289,533.264343 1134.554688,533.866577 
	C1140.301025,535.507629 1145.806763,538.098328 1151.613525,539.382568 
	C1155.359741,540.211182 1161.389526,541.043274 1163.094238,539.049927 
	C1172.247070,528.348572 1181.318726,517.335022 1188.547974,505.305176 
	C1194.767334,494.955872 1198.799316,483.325958 1210.886108,475.972198 
	C1196.170898,478.974670 1192.389160,478.631805 1184.145874,473.418640 
	C1181.202515,471.557068 1178.458252,469.353271 1175.754761,467.144623 
	C1168.798584,461.461761 1161.916138,455.688812 1154.812378,449.684021 
	C1152.183716,445.518005 1145.180664,443.256256 1149.768188,435.825104 
	C1145.183594,437.504791 1140.598877,439.184479 1135.896240,440.591980 
	C1134.368652,437.373962 1136.752319,428.757874 1140.057617,427.060791 
	C1144.520508,424.769287 1148.756836,421.326996 1154.437500,422.647766 
	C1156.843872,423.207275 1159.334229,423.438416 1161.798584,423.709076 
	C1165.892456,424.158783 1168.821899,422.052765 1168.115479,418.843536 
	C1166.665039,412.253876 1165.764160,405.426941 1160.303833,400.385742 
	C1159.153198,399.323486 1158.712158,396.738098 1158.982544,395.017822 
	C1160.385010,386.097321 1160.272339,385.941162 1151.365601,384.785706 
	C1146.671631,384.176727 1141.360840,384.195770 1140.000488,377.908112 
	C1155.349243,379.850616 1170.185791,383.739288 1180.785400,395.697144 
	C1187.534546,403.311096 1194.992920,408.889313 1203.961426,413.666077 
	C1217.615845,420.938599 1228.201660,432.310059 1237.400391,444.726837 
	C1243.943115,453.558533 1250.213501,462.600342 1256.365967,471.710083 
	C1261.714233,479.628815 1261.319458,483.912933 1255.670654,491.674866 
	C1248.811035,501.100494 1242.777344,511.222351 1235.155029,519.969910 
	C1227.999512,528.181763 1219.571777,535.402039 1211.104858,542.325928 
	C1199.252197,552.018677 1186.820068,561.001221 1174.684814,570.350891 
	C1169.654297,574.226624 1164.147095,576.732056 1157.718628,576.796387 
	C1154.911255,576.824463 1153.044067,577.473999 1153.736084,581.032349 
	C1151.475098,580.604980 1149.522339,580.119446 1147.681885,579.361206 
	C1138.151978,575.434875 1129.032715,577.742004 1120.008911,581.158264 
	C1119.051514,581.520691 1118.063477,582.432068 1117.590576,583.347595 
	C1112.782959,592.656006 1107.691772,601.803650 1106.367310,612.531067 
	C1104.707642,625.973999 1106.345215,638.756226 1112.640991,650.818726 
	C1115.974365,657.205444 1118.852539,658.658081 1125.610596,655.940918 
	C1131.893188,653.414917 1137.769531,649.878296 1143.824707,646.786621 
	C1142.607544,648.357727 1141.390503,649.928894 1139.613037,651.840454 
	C1121.319580,664.747620 1101.120483,666.170715 1079.180176,664.465454 
	C1081.875488,668.994202 1083.958496,672.494019 1086.006958,676.295166 
	C1085.943359,676.796753 1085.914307,676.996887 1085.477295,677.234070 
	C1078.360107,677.332031 1071.650879,677.392883 1064.717773,677.234802 
	C1062.099976,672.073914 1056.690430,667.902527 1060.300293,660.919678 
	C1052.665894,659.350830 1044.746704,657.723511 1036.827393,656.096130 
	C1026.307129,652.930237 1015.788757,649.757812 1005.265686,646.601074 
	C999.761902,644.950134 994.249817,643.326904 987.476685,641.315552 
	C988.172058,644.287720 988.394836,645.842346 988.898193,647.300049 
	C995.498596,666.413452 996.128113,685.389343 988.308899,704.413879 
	C979.808838,725.095093 976.417175,746.664551 977.973389,769.761108 
	C977.433472,771.253906 976.959656,771.979004 975.843201,773.687500 
	C975.233337,770.001526 974.807678,767.428955 974.382019,764.856445 
	C973.032837,767.546997 972.529724,770.127502 972.233826,772.731567 
	C971.842834,776.171814 971.353271,779.617188 967.227661,780.406677 
	C962.882507,781.238342 962.058716,777.539062 960.880859,774.721497 
	C958.119202,768.115112 953.202759,764.423035 946.221436,763.368286 
	C942.767822,762.846497 939.296204,762.443848 935.832764,761.987244 
M1120.040039,542.975220 
	C1120.040039,542.975220 1120.002930,543.002441 1119.962158,543.023987 
	C1119.962158,543.023987 1119.999634,542.997803 1120.040039,542.975220 
M1096.065674,548.001221 
	C1096.065674,548.001221 1095.965942,547.978210 1095.614746,548.284851 
	C1095.386353,548.496765 1095.173340,548.723267 1094.867676,549.089600 
	C1094.867676,549.089600 1094.862671,549.400452 1094.862671,549.400452 
	C1094.862671,549.400452 1095.037598,549.024597 1095.388916,548.718872 
	C1095.617188,548.506836 1095.828979,548.279602 1096.065674,548.001221 
M1086.719604,481.336853 
	C1071.085327,484.944397 1056.552002,482.434082 1043.260254,473.025482 
	C1056.110474,489.750793 1089.419434,489.788239 1102.779419,475.829529 
	C1097.452515,477.696136 1092.495239,479.433197 1086.719604,481.336853 
M1114.258789,554.525818 
	C1112.863037,555.434326 1111.467285,556.342834 1110.071533,557.251282 
	C1110.323486,557.657654 1110.575439,558.063965 1110.827393,558.470337 
	C1115.371582,556.217957 1119.915649,553.965637 1124.459839,551.713257 
	C1124.302002,551.350037 1124.144043,550.986816 1123.986206,550.623657 
	C1120.962891,551.830383 1117.939453,553.037109 1114.258789,554.525818 
M1109.316895,546.981323 
	C1108.190186,547.270447 1107.063599,547.559631 1105.936890,547.848755 
	C1106.130737,548.296570 1106.324585,548.744385 1106.518433,549.192261 
	C1107.449463,548.588379 1108.380493,547.984558 1109.316895,546.981323 
M1102.936279,551.742432 
	C1102.730103,551.506348 1102.523804,551.270264 1102.317627,551.034241 
	C1102.217041,551.132385 1102.116333,551.230530 1102.015625,551.328674 
	C1102.253784,551.532898 1102.492065,551.737183 1102.936279,551.742432 
M1098.054688,566.250671 
	C1098.260986,566.485779 1098.467407,566.720947 1098.673706,566.956055 
	C1098.774536,566.858887 1098.875488,566.761719 1098.976318,566.664490 
	C1098.738281,566.460754 1098.500122,566.257019 1098.054688,566.250671 
M1102.813354,563.030273 
	C1102.539795,563.253723 1102.266235,563.477173 1101.992676,563.700684 
	C1102.085571,563.801331 1102.178467,563.902039 1102.271362,564.002747 
	C1102.513672,563.745605 1102.755981,563.488464 1102.813354,563.030273 
M1106.189697,560.966431 
	C1106.460449,560.744690 1106.731201,560.522888 1107.001953,560.301086 
	C1106.910034,560.201111 1106.817993,560.101135 1106.726074,560.001099 
	C1106.486206,560.256348 1106.246338,560.511536 1106.189697,560.966431 
M1112.997925,545.526794 
	C1112.997925,545.526794 1112.984863,545.481934 1112.997925,545.526794 
M1116.001953,544.472534 
	C1116.001953,544.472534 1116.015259,544.517639 1116.001953,544.472534 
M1154.475830,435.510468 
	C1154.475830,435.510468 1154.511963,435.502777 1154.475830,435.510468 
M1123.511597,540.523315 
	C1123.511597,540.523315 1123.504150,540.488953 1123.511597,540.523315 
M1127.519897,549.488953 
	C1127.519897,549.488953 1127.484375,549.496643 1127.519897,549.488953 
z"/>
<path fill="#1E2538" opacity="1.000000" stroke="none" 
	d="
M435.502228,546.838501 
	C436.985046,556.358521 437.991852,565.985535 440.100922,575.364746 
	C441.796295,582.904297 444.597443,590.233276 447.421417,597.454834 
	C448.146027,599.307861 450.651611,600.680969 452.609955,601.800659 
	C467.646820,610.398743 481.834930,620.105408 490.964020,635.260132 
	C495.316650,642.485718 498.237183,650.570618 501.852875,658.244324 
	C508.116180,671.537292 514.721680,684.668152 525.504272,694.985168 
	C527.996826,697.370117 531.583435,698.697998 534.805298,700.218445 
	C544.570251,704.826721 554.602661,708.913025 564.137329,713.947998 
	C570.190674,717.144470 571.841858,722.646179 570.337524,729.362183 
	C568.555481,737.318298 563.931091,743.734924 558.208984,749.109314 
	C551.297668,755.600647 547.509888,762.976562 546.530579,772.545837 
	C544.843018,789.035522 529.385803,803.081299 510.943115,800.838623 
	C505.663849,800.196655 500.353821,799.423584 495.216034,798.097839 
	C488.550812,796.377869 486.256012,791.213989 490.074524,785.522034 
	C492.677673,781.641602 496.291504,777.742188 500.378113,775.719849 
	C506.295532,772.791382 507.189301,768.413696 506.599976,763.026489 
	C505.767090,755.412964 504.436493,747.853027 503.639343,740.236633 
	C503.336273,737.341125 504.301544,734.312256 503.993225,731.418213 
	C503.695801,728.626343 503.310089,725.166016 501.565521,723.320740 
	C492.902649,714.157654 484.138000,705.027466 474.734192,696.642700 
	C459.288208,682.870667 444.307404,668.718506 431.725739,652.214172 
	C425.930725,644.612427 419.715057,637.560425 410.941864,633.173523 
	C403.502991,629.453857 399.021881,622.700317 394.152588,615.572632 
	C394.291504,612.890747 394.612030,610.849365 395.034424,608.488770 
	C401.050201,599.977539 406.427307,591.321716 413.006531,583.704224 
	C422.399506,572.828979 429.940552,561.205566 433.376129,547.009949 
	C434.290283,546.940857 434.896271,546.889709 435.502228,546.838501 
z"/>
<path fill="#222A3D" opacity="1.000000" stroke="none" 
	d="
M1036.925293,656.465698 
	C1044.746704,657.723511 1052.665894,659.350830 1060.300293,660.919678 
	C1056.690430,667.902527 1062.099976,672.073914 1064.757568,677.629150 
	C1071.875610,693.496521 1080.849243,707.427856 1091.483765,720.292358 
	C1100.103760,730.719788 1109.543457,740.330872 1121.450806,747.015442 
	C1125.292725,749.172241 1129.640991,750.755615 1133.953735,751.606384 
	C1136.093140,752.028381 1139.529297,750.843140 1140.791626,749.180237 
	C1141.808838,747.840027 1141.101685,744.300232 1139.992188,742.428223 
	C1137.898682,738.895935 1134.964966,735.861633 1132.617920,732.371155 
	C1133.013062,731.955444 1133.170776,731.788940 1133.690918,731.679565 
	C1135.298950,732.198242 1136.510498,732.893188 1137.796265,733.080750 
	C1143.167847,733.864380 1148.554565,734.880249 1153.951294,734.980957 
	C1155.924072,735.017700 1157.939941,732.749023 1159.936157,731.532104 
	C1158.396240,729.981384 1157.119995,727.833313 1155.258301,727.011230 
	C1151.956421,725.553345 1148.338989,724.716614 1144.783569,723.942688 
	C1130.409546,720.813721 1117.845459,714.266235 1107.913696,703.427795 
	C1100.207031,695.017639 1093.202148,685.964355 1085.885254,677.196960 
	C1085.914307,676.996887 1085.943359,676.796753 1086.470703,676.298950 
	C1091.463623,676.001709 1095.973145,676.237976 1100.450806,675.960510 
	C1117.205688,674.922363 1132.321045,670.484009 1141.898804,655.113586 
	C1149.049316,668.733276 1152.313232,683.351624 1152.268555,699.362183 
	C1154.225586,698.619873 1155.432007,698.476807 1156.205811,697.822327 
	C1171.979736,684.481689 1190.252808,682.732788 1209.851562,685.436157 
	C1227.493896,687.869690 1245.264282,689.355286 1263.087402,687.047668 
	C1265.540283,686.730042 1267.933228,685.950623 1270.989502,685.409485 
	C1275.129761,687.524902 1278.517944,690.183777 1275.522217,694.476624 
	C1272.624023,698.629456 1273.670044,701.626343 1276.778687,704.463196 
	C1279.757324,707.181580 1280.128662,710.250244 1279.317261,713.937927 
	C1277.453735,722.408203 1270.355225,727.060913 1259.172974,726.933533 
	C1246.872314,726.298767 1235.305420,729.686401 1224.237549,734.341431 
	C1198.439941,745.191467 1172.855835,756.550354 1147.213501,767.767700 
	C1143.555786,769.367737 1140.058594,771.333740 1136.481934,773.119995 
	C1122.457153,780.124207 1111.665283,779.172791 1101.347046,767.360840 
	C1089.877930,754.231506 1079.268066,740.223877 1069.468628,725.794189 
	C1055.073975,704.598083 1044.663330,681.316956 1036.925293,656.465698 
z"/>
<path fill="#2A3143" opacity="1.000000" stroke="none" 
	d="
M429.001495,235.967743 
	C433.742889,236.774460 438.469177,237.686142 443.228241,238.369873 
	C464.541046,241.431900 481.767487,251.340485 494.757141,268.625153 
	C496.602142,271.080200 498.964111,273.408325 501.576996,274.980591 
	C514.718201,282.888123 524.874878,293.883728 533.253052,306.385986 
	C540.376587,317.015961 546.444580,328.360657 552.827698,339.476318 
	C556.218628,345.381409 555.860413,351.121765 551.665405,356.730072 
	C542.800232,368.581970 535.480164,381.965302 525.035217,392.170868 
	C509.746918,407.108765 492.511963,420.119568 475.539093,433.216156 
	C471.884796,436.035858 465.813507,435.723175 460.430481,436.926758 
	C460.005341,437.000122 460.020874,437.023865 459.888092,436.825806 
	C459.537079,436.395264 459.297882,436.186920 458.683472,435.847961 
	C447.847015,431.910248 438.638641,434.753357 429.768585,441.316101 
	C428.927277,441.643127 428.424835,441.772827 427.812561,441.900635 
	C427.479858,441.921967 427.274994,441.996246 426.804596,442.316956 
	C425.413025,442.757904 424.304932,443.003479 422.907990,443.071228 
	C419.389618,441.185669 418.725739,439.538605 422.457397,437.481781 
	C425.043396,436.056366 427.532715,434.379364 429.803253,432.498566 
	C430.617157,431.824341 430.663544,430.223633 431.074615,429.017426 
	C431.088989,428.989044 430.936676,428.919342 430.582977,428.983887 
	C425.373047,431.897034 420.579315,434.860382 415.637482,437.551788 
	C412.605347,439.203094 409.021606,442.320587 407.214691,436.062927 
	C407.067108,435.551819 406.381287,434.906891 405.872314,434.833710 
	C400.311646,434.034851 402.542603,430.950348 404.139404,428.447693 
	C405.905975,425.679047 408.100372,423.183411 410.974915,419.440674 
	C406.843597,420.912872 403.607330,423.427521 402.997589,417.998352 
	C402.999908,418.000000 402.994720,417.996796 403.251160,417.821411 
	C404.002533,416.764679 404.497467,415.883331 404.995575,415.000366 
	C404.998779,414.998779 404.998962,414.991791 405.308167,414.857971 
	C406.410095,413.413422 407.202850,412.102722 408.194061,410.547791 
	C410.184509,408.531982 411.976440,406.760376 414.165710,404.951721 
	C421.701660,401.944855 428.840302,398.975067 435.980408,396.013275 
	C435.981873,396.021271 435.964050,396.027100 436.369812,396.096191 
	C444.250793,398.307770 451.737122,400.412628 459.196747,402.608337 
	C463.089905,403.754303 467.211517,405.333649 470.138733,401.219513 
	C477.527954,390.834137 484.928528,380.436859 491.784180,369.699310 
	C495.874512,363.292908 498.698273,356.089203 502.582306,349.534821 
	C504.413116,346.445374 503.750458,345.285370 501.178833,343.173126 
	C493.383026,336.769745 485.944092,329.930847 478.391083,323.233429 
	C473.933472,319.280731 469.523132,315.274719 465.005798,311.007629 
	C464.046356,306.615173 457.364685,303.639221 464.159485,297.528564 
	C460.839539,298.453522 459.008728,298.521179 457.725800,299.394073 
	C450.339111,304.419861 446.060852,301.428925 441.978638,294.190216 
	C434.159943,280.325958 428.728516,265.778290 432.087067,249.359222 
	C432.312012,248.259430 432.050018,247.060059 431.908417,245.561157 
	C430.868713,242.132797 429.935089,239.050262 429.001495,235.967743 
M431.836212,406.019379 
	C431.836212,406.019379 431.689819,406.225708 431.689819,406.225708 
	C431.689819,406.225708 432.017303,406.013855 432.052643,405.982117 
	C432.052643,405.982117 431.984650,405.981110 431.836212,406.019379 
M426.401550,419.098999 
	C425.911316,419.363617 425.421112,419.628204 424.653534,420.043549 
	C424.502075,420.267090 424.350616,420.490631 424.199158,420.714203 
	C424.514740,420.523254 424.830322,420.332275 425.645935,419.903778 
	C426.128174,419.626160 426.610413,419.348541 427.115936,418.999054 
	C427.115936,418.999054 426.922119,418.899048 426.401550,419.098999 
M418.351257,425.166443 
	C417.538025,426.087799 416.724792,427.009155 415.888397,427.996765 
	C415.888397,427.996765 416.063171,428.080627 416.638428,427.820496 
	C417.459534,426.906219 418.280609,425.991943 419.124359,425.003601 
	C419.124359,425.003601 418.924591,424.902313 418.351257,425.166443 
M423.320465,411.008270 
	C424.802032,410.317566 426.283630,409.626862 427.765198,408.936157 
	C427.593414,408.563782 427.421600,408.191406 427.249817,407.819031 
	C425.533234,408.529602 423.816681,409.240143 422.100098,409.950684 
	C422.339783,410.342560 422.579468,410.734436 423.320465,411.008270 
M433.138489,415.176727 
	C432.477966,415.531158 431.817474,415.885590 431.156952,416.240021 
	C431.701508,416.838898 432.246094,417.437805 432.790649,418.036713 
	C433.012207,417.101318 433.233734,416.165955 433.138489,415.176727 
M411.980835,431.223724 
	C411.648743,431.294800 411.315216,431.360870 410.989349,431.453796 
	C410.975037,431.457886 411.030823,431.707764 411.053955,431.843109 
	C411.377258,431.729187 411.700592,431.615234 411.980835,431.223724 
M417.800812,413.043701 
	C417.538605,413.168579 417.276398,413.293457 417.014191,413.418365 
	C417.194275,413.614227 417.374359,413.810120 417.554413,414.006012 
	C417.695618,413.750671 417.836823,413.495300 417.800812,413.043701 
M437.486694,413.477631 
	C437.486694,413.477631 437.496521,413.513885 437.486694,413.477631 
z"/>
<path fill="#282E40" opacity="1.000000" stroke="none" 
	d="
M1110.907349,397.036377 
	C1107.965576,396.903320 1104.912598,396.206512 1102.106567,396.760803 
	C1097.091553,397.751434 1093.140869,396.463379 1090.361328,392.417023 
	C1088.564819,389.801697 1086.696655,389.714752 1083.986450,390.465057 
	C1078.885254,391.877319 1073.436157,392.356384 1068.628052,394.394287 
	C1065.229370,395.834717 1062.468994,399.027344 1059.764404,401.773407 
	C1057.938232,403.627563 1056.880493,406.222534 1055.133057,408.176819 
	C1054.253784,409.160309 1052.603149,409.971161 1051.302856,409.968781 
	C1046.527222,409.960083 1041.460938,410.496155 1037.052856,409.097382 
	C1031.872192,407.453461 1027.160889,404.175812 1022.437622,401.292694 
	C1018.392212,398.823425 1014.617310,395.911163 1010.510437,392.750183 
	C1011.539917,387.273071 1012.781799,382.240631 1014.023682,377.208252 
	C1020.091125,375.913422 1026.258301,374.942810 1032.164917,373.125366 
	C1033.926880,372.583191 1034.959229,369.669189 1036.559814,367.735107 
	C1039.194458,373.932983 1041.518555,380.268707 1044.048340,386.521240 
	C1044.705322,388.145081 1046.005127,389.508850 1047.293457,390.818481 
	C1050.717285,387.505371 1051.945190,382.192657 1057.734375,381.945984 
	C1058.328003,381.920715 1058.822876,379.579620 1059.197754,378.701630 
	C1055.928589,378.016876 1053.453857,377.498566 1051.176025,376.712036 
	C1057.664429,368.881287 1063.955933,361.318787 1070.306396,353.685455 
	C1058.631470,357.838501 1047.361816,361.847382 1036.092163,365.856293 
	C1028.354004,366.244293 1023.947388,362.292725 1020.913940,355.390442 
	C1015.505188,343.083771 1013.600403,330.203613 1013.251038,316.961700 
	C1013.045410,309.168396 1012.248779,301.309418 1012.942078,293.589905 
	C1014.614624,274.965851 1025.223267,263.255707 1042.810791,257.579468 
	C1059.327637,252.248779 1075.356079,252.856903 1090.414062,262.094849 
	C1103.647705,270.213470 1108.241333,283.088043 1108.843262,297.780365 
	C1109.296265,308.834961 1106.350342,319.152924 1101.542358,329.071625 
	C1098.719727,334.894562 1095.964600,340.838287 1094.068726,347.001373 
	C1091.387451,355.716736 1093.073242,359.775330 1101.464478,363.536224 
	C1109.629517,367.195740 1118.299927,369.725464 1126.740967,372.771973 
	C1130.016235,373.954071 1133.270874,375.193024 1136.668457,376.965088 
	C1136.099121,379.909241 1135.438721,382.307922 1134.684692,384.676758 
	C1133.210571,389.307343 1127.180908,393.658813 1123.698120,393.057098 
	C1120.184937,392.450195 1116.586304,392.338104 1113.029541,391.627197 
	C1113.033936,389.451080 1113.033936,387.656982 1113.033936,385.862854 
	C1112.664062,385.852783 1112.294189,385.842682 1111.924194,385.832581 
	C1111.585327,389.567169 1111.246338,393.301788 1110.907349,397.036377 
M1034.187256,384.227905 
	C1035.295654,381.481384 1036.403931,378.734833 1037.512329,375.988312 
	C1037.113037,375.876068 1036.713745,375.763855 1036.314453,375.651611 
	C1034.583008,378.958832 1032.851685,382.266052 1030.678223,386.417755 
	C1032.209351,385.551483 1032.978027,385.116547 1034.187256,384.227905 
M1073.511597,349.524933 
	C1073.511597,349.524933 1073.501831,349.487549 1073.511597,349.524933 
z"/>
<path fill="#2A3143" opacity="1.000000" stroke="none" 
	d="
M394.932556,608.807983 
	C394.612030,610.849365 394.291504,612.890747 393.926086,615.299072 
	C390.046204,624.312256 388.125275,633.194214 388.637268,642.815674 
	C389.559723,660.150024 390.262024,677.687256 382.079681,693.774719 
	C378.102448,701.594421 373.181488,708.995300 368.132416,716.196411 
	C356.110931,733.341797 345.687927,751.270447 338.890747,771.914551 
	C337.062256,774.687927 335.875549,777.177856 334.008179,778.950867 
	C329.544952,783.188477 326.048645,782.318115 324.199829,776.566345 
	C322.506348,771.297729 318.800049,768.378845 313.824127,766.822876 
	C310.207397,765.691956 306.494873,764.867554 302.825043,763.906494 
	C312.945587,744.875671 318.311096,724.521423 321.484375,703.228821 
	C323.405823,690.335815 328.101410,677.856750 331.543304,665.189636 
	C333.504517,657.971924 335.903931,650.833618 337.254517,643.502625 
	C338.259216,638.049377 338.215576,632.336853 338.086609,626.752563 
	C337.570526,604.407959 339.509033,582.323608 344.484070,560.521240 
	C345.001831,558.252136 345.559479,555.992126 346.341248,553.040527 
	C348.410645,546.835144 349.973816,541.212524 352.115143,535.819397 
	C357.869232,521.327332 363.799744,506.903412 369.879364,492.545319 
	C370.510315,491.055267 373.023468,488.938751 373.956757,489.247650 
	C377.902405,490.553497 382.641388,491.170380 384.062592,496.159485 
	C383.982330,496.120636 384.059937,495.960083 383.891541,496.237457 
	C383.475403,496.869598 383.227631,497.224396 382.933899,497.894318 
	C372.363861,514.083923 364.990021,531.291138 361.553497,550.045715 
	C359.161865,563.097778 358.178131,576.222046 363.507019,588.895447 
	C367.574890,598.569824 373.037506,599.727722 381.192963,593.086243 
	C391.068756,585.043701 397.040070,574.387268 401.815247,563.295410 
	C401.649170,565.361328 401.663696,567.065613 401.181396,568.615295 
	C398.369385,577.650452 395.302704,586.608398 392.619629,595.680420 
	C391.548218,599.303040 390.919922,603.129578 390.672821,606.901550 
	C390.449493,610.310669 392.224274,611.031982 394.932556,608.807983 
z"/>
<path fill="#282E40" opacity="1.000000" stroke="none" 
	d="
M357.004883,228.992737 
	C349.137024,229.675842 344.463501,225.840683 340.878571,219.005005 
	C334.510712,206.863022 334.169708,193.714966 333.213074,180.616150 
	C332.740906,174.151108 331.820801,167.602509 332.369568,161.200256 
	C334.286041,138.842377 347.822998,125.558296 371.018921,122.480141 
	C394.249817,119.397331 415.936005,132.564575 422.502594,154.408081 
	C426.132568,166.483170 424.505646,178.530426 419.361420,189.995056 
	C417.456726,194.239838 414.989868,198.230194 412.830933,202.363510 
	C409.564911,208.616348 408.090302,215.144608 409.716309,222.711990 
	C406.870453,227.985367 402.976624,232.434586 401.965973,237.463242 
	C400.060699,246.943573 389.682404,255.100464 377.525787,251.174042 
	C379.826385,245.568985 382.120544,239.979568 384.414734,234.390152 
	C383.697266,233.605255 382.979828,232.820374 382.262390,232.035477 
	C380.817352,242.956528 375.051178,246.344894 366.131744,243.690277 
	C375.539978,236.010147 381.313477,225.902786 388.285126,216.563431 
	C377.521973,220.840195 367.263428,224.916458 357.004883,228.992737 
z"/>
<path fill="#5BCC9E" opacity="1.000000" stroke="none" 
	d="
M401.766357,562.862305 
	C397.040070,574.387268 391.068756,585.043701 381.192963,593.086243 
	C373.037506,599.727722 367.574890,598.569824 363.507019,588.895447 
	C358.178131,576.222046 359.161865,563.097778 361.553497,550.045715 
	C364.990021,531.291138 372.363861,514.083923 383.220581,497.704956 
	C383.722107,496.786987 383.891022,496.373535 384.059937,495.960083 
	C384.059937,495.960083 383.982330,496.120636 384.333984,495.960327 
	C391.764313,486.420654 399.997955,478.254486 410.141785,472.221497 
	C412.597412,470.761017 412.813171,469.068390 412.671051,466.500763 
	C412.313751,460.046844 412.236816,453.566315 412.348938,447.101685 
	C412.415894,443.241089 413.552673,440.438751 418.414246,443.098267 
	C419.662415,443.781128 421.584412,443.232147 423.196869,443.249054 
	C424.304932,443.003479 425.413025,442.757904 427.025757,442.311768 
	C427.530396,442.111176 427.922394,441.902527 427.922394,441.902527 
	C428.424835,441.772827 428.927277,441.643127 430.155182,441.344757 
	C432.834045,440.866333 434.970032,440.961792 436.709717,440.177765 
	C444.906097,436.483673 452.843964,438.182343 460.796143,440.886780 
	C470.509949,461.389343 472.014252,482.350067 461.640442,502.759216 
	C457.554260,510.798248 450.208313,517.180359 443.799622,524.603516 
	C442.844330,525.094116 442.436127,525.298218 441.625793,525.525452 
	C438.795746,523.791931 435.426178,522.558899 434.106720,520.185974 
	C429.033783,511.062531 424.554962,501.604340 419.992737,492.203888 
	C418.544983,489.220856 417.527618,486.028931 416.313324,482.932587 
	C415.965729,483.007019 415.618134,483.081482 415.270538,483.155914 
	C414.939362,484.566559 414.608215,485.977234 414.087280,487.770355 
	C412.304535,496.630035 410.510376,505.075348 409.161469,513.591248 
	C406.563354,529.993835 404.217072,546.436340 401.766357,562.862305 
z"/>
<path fill="#222A3D" opacity="1.000000" stroke="none" 
	d="
M291.903259,423.182648 
	C289.605835,420.577393 286.861420,418.244202 285.083221,415.322906 
	C273.146454,395.712311 263.471436,375.100372 259.860840,352.214783 
	C259.146606,347.687683 259.986908,342.555878 261.414978,338.123260 
	C264.626770,328.153992 268.119354,318.198822 272.523560,308.714264 
	C276.051880,301.115875 281.155762,294.256989 285.422241,286.988800 
	C286.736053,284.750641 288.120270,282.342224 288.580353,279.847321 
	C293.014648,255.800003 320.364136,241.341904 337.446411,240.417877 
	C332.504089,250.512589 327.254272,260.258118 321.794128,270.272034 
	C318.725128,277.360931 315.866425,284.181458 312.851807,291.346375 
	C309.107697,305.047028 307.516937,318.489441 310.632874,332.235718 
	C307.337555,335.846619 304.598053,339.613525 301.313324,342.822296 
	C298.326019,345.740540 298.428894,348.511932 299.418793,352.261841 
	C301.022552,358.337219 302.596252,364.616241 302.731995,370.840881 
	C302.981720,382.293396 305.765717,392.862762 310.739410,403.130676 
	C306.097504,406.191040 301.723358,409.033661 297.240112,411.947174 
	C297.065094,410.907379 296.913910,410.009155 296.609985,408.203583 
	C294.914429,409.976166 292.942749,411.082947 292.664215,412.518280 
	C291.990295,415.991547 292.105865,419.617950 291.903259,423.182648 
z"/>
<path fill="#1E2538" opacity="1.000000" stroke="none" 
	d="
M422.907990,443.071228 
	C421.584412,443.232147 419.662415,443.781128 418.414246,443.098267 
	C413.552673,440.438751 412.415894,443.241089 412.348938,447.101685 
	C412.236816,453.566315 412.313751,460.046844 412.671051,466.500763 
	C412.813171,469.068390 412.597412,470.761017 410.141785,472.221497 
	C399.997955,478.254486 391.764313,486.420654 384.414246,495.999176 
	C382.641388,491.170380 377.902405,490.553497 373.956757,489.247650 
	C373.023468,488.938751 370.510315,491.055267 369.879364,492.545319 
	C363.799744,506.903412 357.869232,521.327332 352.115143,535.819397 
	C349.973816,541.212524 348.410645,546.835144 346.401550,552.639648 
	C334.314484,534.942505 326.620819,515.270203 323.336761,493.993317 
	C322.025177,485.495941 321.646393,476.841125 321.110077,468.241333 
	C320.583710,459.800354 320.396393,451.338226 320.170135,442.121857 
	C321.771301,438.488403 323.262604,435.618500 324.753906,432.748566 
	C325.063812,430.106049 326.956665,427.718079 326.535583,425.852386 
	C325.535034,421.419739 324.242889,417.418030 328.375519,413.817230 
	C328.965088,413.303558 328.600616,411.603699 328.545715,410.459137 
	C328.395172,407.318634 328.174316,404.181488 328.212585,401.023987 
	C328.443848,401.004913 328.907410,400.987671 329.078766,401.364563 
	C329.407867,406.868774 330.664307,412.263428 329.495300,417.067871 
	C327.038086,427.166351 329.434082,434.754089 337.590820,441.135193 
	C346.169342,447.846252 355.262482,453.169312 366.451202,450.435486 
	C377.253693,447.796051 387.779724,444.011139 398.383667,440.594208 
	C399.487671,440.238464 401.038483,439.028595 401.116180,438.108185 
	C401.496490,433.603210 401.312073,429.053040 401.609039,424.537415 
	C401.753784,422.336304 402.513763,420.175659 402.995270,417.996704 
	C403.607330,423.427521 406.843597,420.912872 410.974915,419.440674 
	C408.100372,423.183411 405.905975,425.679047 404.139404,428.447693 
	C402.542603,430.950348 400.311646,434.034851 405.872314,434.833710 
	C406.381287,434.906891 407.067108,435.551819 407.214691,436.062927 
	C409.021606,442.320587 412.605347,439.203094 415.637482,437.551788 
	C420.579315,434.860382 425.373047,431.897034 430.614197,429.015198 
	C430.999115,428.981934 431.060272,429.045807 431.060242,429.045807 
	C430.663544,430.223633 430.617157,431.824341 429.803253,432.498566 
	C427.532715,434.379364 425.043396,436.056366 422.457397,437.481781 
	C418.725739,439.538605 419.389618,441.185669 422.907990,443.071228 
z"/>
<path fill="#222A3D" opacity="1.000000" stroke="none" 
	d="
M935.495300,762.124756 
	C939.296204,762.443848 942.767822,762.846497 946.221436,763.368286 
	C953.202759,764.423035 958.119202,768.115112 960.880859,774.721497 
	C962.058716,777.539062 962.882507,781.238342 967.227661,780.406677 
	C971.353271,779.617188 971.842834,776.171814 972.233826,772.731567 
	C972.529724,770.127502 973.032837,767.546997 974.382019,764.856445 
	C974.807678,767.428955 975.233337,770.001526 975.843201,773.687500 
	C976.959656,771.979004 977.433472,771.253906 977.978149,770.224854 
	C982.238281,770.547791 984.234192,773.367065 985.457275,777.112122 
	C988.182190,785.455750 990.901123,793.803711 993.806519,802.085388 
	C997.690247,813.155701 995.494568,818.482422 984.263672,821.842834 
	C978.123535,823.680054 971.528015,823.956360 965.171753,825.121582 
	C959.356201,826.187744 953.169250,826.550354 947.867615,828.871399 
	C923.583984,839.502502 899.784180,836.714600 876.017151,827.478882 
	C871.760376,825.824646 869.145203,822.811829 869.243042,818.012085 
	C869.337646,813.376038 872.284119,810.853149 876.144043,809.092712 
	C881.900085,806.467346 887.621704,803.760803 893.432678,801.262573 
	C904.938660,796.316101 913.028870,787.727844 919.407288,777.265076 
	C920.620605,775.274780 921.888611,773.305481 922.931885,771.226379 
	C925.491699,766.124695 929.203735,762.689392 935.495300,762.124756 
z"/>
<path fill="#2A3143" opacity="1.000000" stroke="none" 
	d="
M313.007751,291.001984 
	C315.866425,284.181458 318.725128,277.360931 322.186646,270.256714 
	C330.782867,267.652863 338.124420,264.539978 340.448883,255.465286 
	C342.818237,256.257935 345.118134,257.495728 347.492889,257.661774 
	C349.153625,257.777893 352.302094,256.601654 352.414001,255.706223 
	C353.274109,248.822174 359.463928,243.476913 358.284241,236.215836 
	C360.845215,240.203278 363.130493,243.995590 365.681305,248.228546 
	C365.805786,246.547089 365.900177,245.272232 365.994568,243.997375 
	C375.051178,246.344894 380.817352,242.956528 382.262390,232.035477 
	C382.979828,232.820374 383.697266,233.605255 384.414734,234.390152 
	C382.120544,239.979568 379.826385,245.568985 377.525787,251.174042 
	C389.682404,255.100464 400.060699,246.943573 401.965973,237.463242 
	C402.976624,232.434586 406.870453,227.985367 409.779419,223.118561 
	C411.855255,224.925873 413.614410,226.889206 415.603699,229.372787 
	C410.598114,235.619797 412.801422,243.367508 410.281952,249.490250 
	C412.558655,250.080307 414.908081,250.157944 416.625732,251.239227 
	C420.885895,253.921127 424.857452,257.061493 428.968567,260.441040 
	C431.637817,271.250549 434.283478,281.636688 436.612183,292.144592 
	C432.433868,295.020233 429.864868,295.006927 427.724243,289.849701 
	C426.343842,286.524017 424.959839,282.462677 419.647339,282.065063 
	C415.692139,281.769043 411.725037,280.028503 408.070312,278.286865 
	C406.957062,277.756348 406.506012,275.108612 406.388580,273.387085 
	C406.213226,270.817139 407.216125,268.028687 406.528076,265.682007 
	C406.093628,264.200287 403.549988,262.616608 401.841309,262.481262 
	C400.695801,262.390594 398.442291,264.650269 398.276917,266.046875 
	C397.815887,269.940399 397.980347,273.947754 398.281006,277.880890 
	C398.603180,282.095428 398.133392,285.662689 394.392303,288.475800 
	C389.670593,292.026276 385.441071,296.252441 380.596405,299.605011 
	C379.211243,300.563568 376.028168,300.201996 374.363495,299.242126 
	C369.094543,296.203979 364.304260,292.327637 359.001251,289.361084 
	C357.249451,288.381165 354.296448,288.584991 352.254547,289.292297 
	C348.266632,290.673706 344.574432,292.350433 340.328766,290.082306 
	C339.073395,289.411652 337.348083,289.620514 335.838135,289.426331 
	C335.607635,291.322632 334.682678,293.488556 335.292297,295.058655 
	C336.533295,298.254913 339.036591,299.818726 342.896240,298.897339 
	C346.807434,297.963684 351.612762,301.697662 351.504059,305.650055 
	C351.291046,313.394775 354.824005,318.484772 361.610840,321.751251 
	C362.756531,322.302643 363.486603,323.677002 364.607147,324.331146 
	C366.094574,325.199371 367.741058,326.203552 369.381958,326.329163 
	C376.188110,326.850159 377.812500,328.677429 376.869293,335.514221 
	C376.664917,336.995239 376.284088,338.451874 376.147827,340.217194 
	C378.207458,341.683990 380.103760,342.853333 381.647064,344.166809 
	C379.510468,344.710327 377.710358,345.048187 375.946136,345.520081 
	C368.897614,347.405334 355.449860,341.711700 352.077667,335.380554 
	C349.070984,329.735535 343.480804,328.469574 338.061035,331.904175 
	C334.622803,334.082977 330.811035,335.670471 327.360291,337.832092 
	C325.865509,338.768433 324.444733,340.293488 323.715576,341.883698 
	C322.182190,345.227814 321.128021,348.791687 319.705597,351.918762 
	C317.430908,346.376190 315.327789,341.180206 313.601501,336.002991 
	C314.964630,336.166504 315.971344,336.229462 316.933777,336.469696 
	C322.126007,337.765686 328.379761,336.301270 330.133240,333.335815 
	C331.980835,330.211182 330.007172,319.912476 326.813629,317.238800 
	C323.910980,314.808685 323.822174,312.229004 325.835205,309.372253 
	C327.462952,307.062195 329.914886,305.100800 330.803711,302.565002 
	C331.762421,299.829742 332.074982,296.361389 331.200104,293.694977 
	C330.734009,292.274536 327.216827,291.356018 324.982269,291.124939 
	C321.028809,290.716064 317.003174,291.005066 313.007751,291.001984 
M395.011322,269.668671 
	C392.301117,265.672302 389.395355,267.568726 386.244904,269.064575 
	C390.438629,274.513580 391.976318,274.676575 395.011322,269.668671 
M364.644714,252.714294 
	C365.037842,253.015381 365.431000,253.316452 365.824127,253.617523 
	C365.956848,253.336151 366.089569,253.054779 366.222260,252.773422 
	C365.750824,252.637482 365.279358,252.501556 364.644714,252.714294 
M387.209137,256.887482 
	C387.071960,256.979492 386.909821,257.049683 386.804840,257.169830 
	C386.704773,257.284363 386.664276,257.450928 386.597565,257.594635 
	C387.531433,257.594635 388.465302,257.594635 389.399139,257.594635 
	C389.392761,257.308899 389.386383,257.023193 389.380005,256.737457 
	C388.784424,256.737457 388.188873,256.737457 387.209137,256.887482 
M339.950256,310.071198 
	C339.950256,310.071198 340.067200,309.920990 340.067200,309.920990 
	C340.067200,309.920990 339.901855,310.011841 339.950256,310.071198 
M373.976105,339.506866 
	C373.976105,339.506866 374.003357,339.479279 373.976105,339.506866 
z"/>
<path fill="#1E2538" opacity="1.000000" stroke="none" 
	d="
M1259.178101,727.324707 
	C1270.355225,727.060913 1277.453735,722.408203 1279.317261,713.937927 
	C1280.128662,710.250244 1279.757324,707.181580 1276.778687,704.463196 
	C1273.670044,701.626343 1272.624023,698.629456 1275.522217,694.476624 
	C1278.517944,690.183777 1275.129761,687.524902 1271.344116,685.262085 
	C1273.966553,682.593201 1276.521118,678.707947 1279.842163,677.873413 
	C1288.008911,675.821350 1296.495728,674.600708 1304.915039,674.123413 
	C1313.029419,673.663452 1317.869751,678.244690 1319.698608,686.186035 
	C1322.135010,696.765320 1321.015015,707.126892 1317.178467,717.114746 
	C1314.911011,723.017456 1314.670410,728.707886 1316.345459,734.697083 
	C1317.375366,738.379639 1318.410522,742.120178 1318.834717,745.902893 
	C1321.194214,766.938049 1304.880615,783.515381 1283.508301,781.700806 
	C1278.562500,781.280762 1273.607300,780.211548 1268.820435,778.859985 
	C1261.544556,776.805664 1259.689941,769.837891 1264.641235,764.000305 
	C1265.815063,762.616333 1267.257690,761.439026 1268.673462,760.285461 
	C1274.719971,755.358948 1274.836304,754.679993 1270.397949,748.027954 
	C1267.532227,743.732849 1264.466309,739.556824 1261.851318,735.114807 
	C1260.544312,732.894409 1260.046875,730.197388 1259.178101,727.324707 
z"/>
<path fill="#20273A" opacity="1.000000" stroke="none" 
	d="
M302.505707,764.069946 
	C306.494873,764.867554 310.207397,765.691956 313.824127,766.822876 
	C318.800049,768.378845 322.506348,771.297729 324.199829,776.566345 
	C326.048645,782.318115 329.544952,783.188477 334.008179,778.950867 
	C335.875549,777.177856 337.062256,774.687927 338.775330,772.263916 
	C340.642487,774.344849 342.883301,776.470764 343.829254,779.068237 
	C346.383545,786.082153 348.343262,793.310608 350.618530,800.428528 
	C354.079346,811.255127 351.994934,816.910339 341.046631,819.145447 
	C328.927673,821.619568 317.715118,826.135925 306.136261,830.032959 
	C289.698181,835.565308 272.631958,834.117981 256.075104,828.735413 
	C254.194244,828.123901 252.362854,827.215332 250.679031,826.169861 
	C245.674835,823.062866 244.733093,817.386658 248.689819,812.966187 
	C250.542358,810.896545 252.804993,808.954163 255.263489,807.705627 
	C271.202332,799.610779 283.304993,787.626160 291.938416,772.080750 
	C294.259705,767.901123 297.380402,765.035706 302.505707,764.069946 
z"/>
<path fill="#282E40" opacity="1.000000" stroke="none" 
	d="
M1010.776611,541.917114 
	C1014.030701,542.658752 1014.586731,544.841614 1014.558594,547.896179 
	C1014.503906,553.840149 1014.505432,559.844238 1015.328369,565.704834 
	C1015.622070,567.796570 1018.361267,569.544983 1020.346680,571.738525 
	C1020.709106,572.026917 1020.642761,572.064880 1020.642761,572.064880 
	C1010.124573,573.123840 999.606384,574.182800 989.554871,575.194763 
	C989.136414,573.604675 988.672546,570.410461 988.236816,570.414307 
	C984.977478,570.442932 981.723572,571.103638 978.204468,571.813232 
	C971.734985,562.316162 965.728516,552.437866 959.277832,542.858643 
	C948.824524,527.335693 942.814087,509.985046 937.382935,492.296844 
	C933.816833,480.682678 938.665344,470.809296 943.289673,460.482483 
	C944.277283,460.698730 945.135315,461.035370 945.237610,461.528717 
	C946.429199,467.275665 949.419434,471.072968 955.613159,471.774017 
	C956.307129,471.852600 957.012634,472.634888 957.541687,473.240265 
	C962.771606,479.224640 969.805115,481.869476 977.441467,484.104797 
	C983.880920,491.636658 984.687561,500.629395 984.813354,509.560974 
	C984.970398,520.718140 989.108398,530.537170 993.668640,540.320312 
	C994.985718,543.145874 996.925171,543.868896 1000.139221,543.033875 
	C1003.551392,542.147278 1007.219971,542.247742 1010.776611,541.917114 
M1008.873047,560.264771 
	C1009.755066,561.167542 1010.637085,562.070251 1011.519104,562.973022 
	C1012.042053,562.727417 1012.564941,562.481873 1013.087891,562.236267 
	C1012.677246,558.898560 1012.266602,555.560852 1011.855957,552.223083 
	C1011.007690,552.261414 1010.159424,552.299683 1009.311096,552.337952 
	C1009.082275,554.759155 1008.853455,557.180359 1008.873047,560.264771 
z"/>
<path fill="#5BCC9E" opacity="1.000000" stroke="none" 
	d="
M1144.001709,646.504517 
	C1137.769531,649.878296 1131.893188,653.414917 1125.610596,655.940918 
	C1118.852539,658.658081 1115.974365,657.205444 1112.640991,650.818726 
	C1106.345215,638.756226 1104.707642,625.973999 1106.367310,612.531067 
	C1107.691772,601.803650 1112.782959,592.656006 1117.590576,583.347595 
	C1118.063477,582.432068 1119.051514,581.520691 1120.008911,581.158264 
	C1129.032715,577.742004 1138.151978,575.434875 1147.681885,579.361206 
	C1149.522339,580.119446 1151.475098,580.604980 1153.716431,581.361816 
	C1166.399170,603.823608 1162.404053,629.997131 1144.001709,646.504517 
z"/>
<path fill="#222A3D" opacity="1.000000" stroke="none" 
	d="
M977.164734,483.926544 
	C969.805115,481.869476 962.771606,479.224640 957.541687,473.240265 
	C957.012634,472.634888 956.307129,471.852600 955.613159,471.774017 
	C949.419434,471.072968 946.429199,467.275665 945.237610,461.528717 
	C945.135315,461.035370 944.277283,460.698730 943.458618,460.165955 
	C945.990662,453.228241 948.834473,446.413879 952.127563,439.177185 
	C953.084351,437.525452 953.591919,436.296051 954.099487,435.066650 
	C957.593506,430.726898 961.107666,426.403168 964.571777,422.039703 
	C965.981262,420.264191 967.282104,418.402374 969.127808,416.375092 
	C974.585388,417.476410 977.375916,420.407043 977.137878,425.828247 
	C977.081421,427.112549 977.452454,428.498810 977.945923,429.707947 
	C979.248840,432.900238 987.754028,436.012451 988.838928,433.655304 
	C990.474487,430.101959 992.595764,424.910187 991.161743,422.162689 
	C987.200195,414.572754 990.393005,409.326233 994.673340,404.009277 
	C998.367188,399.420837 1000.111877,399.580627 1004.058716,404.091949 
	C997.802673,414.033386 993.033752,424.595490 991.229065,436.281067 
	C990.266235,442.515503 989.740601,448.817444 988.856323,455.653473 
	C988.802856,456.817383 988.910645,457.416748 989.018433,458.016113 
	C989.306702,460.397369 989.594849,462.778625 989.821045,465.842834 
	C989.530090,467.375519 989.301025,468.225281 989.044312,469.066925 
	C989.016663,469.058807 989.068481,469.033325 988.709961,469.093567 
	C986.749146,469.991913 985.194397,471.380676 983.532043,471.524384 
	C981.590820,471.692200 978.698914,471.457489 977.703979,470.211731 
	C972.331665,463.485474 972.491150,463.359070 968.854858,471.380280 
	C968.717957,471.682220 968.521912,471.957031 968.378845,472.256592 
	C966.594482,475.992126 967.984741,478.326782 971.686951,479.531799 
	C973.263184,480.044830 974.904236,480.358826 976.592468,481.159912 
	C976.834351,482.346558 976.999573,483.136536 977.164734,483.926544 
z"/>
<path fill="#2A3143" opacity="1.000000" stroke="none" 
	d="
M1113.025024,392.009216 
	C1116.586304,392.338104 1120.184937,392.450195 1123.698120,393.057098 
	C1127.180908,393.658813 1133.210571,389.307343 1134.684692,384.676758 
	C1135.438721,382.307922 1136.099121,379.909241 1136.954224,377.162292 
	C1137.891846,377.065552 1138.677124,377.330536 1139.731445,377.751831 
	C1141.360840,384.195770 1146.671631,384.176727 1151.365601,384.785706 
	C1160.272339,385.941162 1160.385010,386.097321 1158.982544,395.017822 
	C1158.712158,396.738098 1159.153198,399.323486 1160.303833,400.385742 
	C1165.764160,405.426941 1166.665039,412.253876 1168.115479,418.843536 
	C1168.821899,422.052765 1165.892456,424.158783 1161.798584,423.709076 
	C1159.334229,423.438416 1156.843872,423.207275 1154.437500,422.647766 
	C1148.756836,421.326996 1144.520508,424.769287 1140.057617,427.060791 
	C1136.752319,428.757874 1134.368652,437.373962 1135.498535,440.604858 
	C1132.119751,439.313049 1128.128906,438.461884 1126.121704,435.996063 
	C1122.765137,431.872559 1120.675049,426.717957 1118.313965,421.833923 
	C1121.310547,417.617310 1120.557617,415.964569 1114.975098,413.596375 
	C1114.259399,406.143707 1113.642212,399.076477 1113.025024,392.009216 
M1134.505981,418.282227 
	C1134.536987,418.100250 1134.567871,417.918304 1134.598755,417.736328 
	C1134.510010,417.899231 1134.421265,418.062134 1134.505981,418.282227 
z"/>
<path fill="#20273A" opacity="1.000000" stroke="none" 
	d="
M1004.300537,403.852356 
	C1000.111877,399.580627 998.367188,399.420837 994.673340,404.009277 
	C990.393005,409.326233 987.200195,414.572754 991.161743,422.162689 
	C992.595764,424.910187 990.474487,430.101959 988.838928,433.655304 
	C987.754028,436.012451 979.248840,432.900238 977.945923,429.707947 
	C977.452454,428.498810 977.081421,427.112549 977.137878,425.828247 
	C977.375916,420.407043 974.585388,417.476410 969.270996,416.063812 
	C971.707947,398.529083 989.658508,376.551697 1013.588989,377.171082 
	C1012.781799,382.240631 1011.539917,387.273071 1010.162476,392.661804 
	C1008.198730,396.549652 1006.370605,400.081207 1004.300537,403.852356 
z"/>
<path fill="#2A3143" opacity="1.000000" stroke="none" 
	d="
M327.981293,401.043030 
	C328.174316,404.181488 328.395172,407.318634 328.545715,410.459137 
	C328.600616,411.603699 328.965088,413.303558 328.375519,413.817230 
	C324.242889,417.418030 325.535034,421.419739 326.535583,425.852386 
	C326.956665,427.718079 325.063812,430.106049 324.753906,432.748566 
	C323.262604,435.618500 321.771301,438.488403 320.143402,441.669708 
	C314.406311,443.684235 309.971863,441.684814 306.081238,437.715179 
	C305.050201,436.663239 303.866516,435.468262 302.531769,435.057495 
	C296.826630,433.301605 294.023712,429.037506 292.035950,423.502136 
	C292.105865,419.617950 291.990295,415.991547 292.664215,412.518280 
	C292.942749,411.082947 294.914429,409.976166 296.609985,408.203583 
	C296.913910,410.009155 297.065094,410.907379 297.240112,411.947174 
	C301.723358,409.033661 306.097504,406.191040 311.117096,403.116180 
	C316.988861,400.685181 322.247986,398.775330 327.981293,401.043030 
z"/>
<path fill="#1E2538" opacity="1.000000" stroke="none" 
	d="
M1141.771973,654.815430 
	C1132.321045,670.484009 1117.205688,674.922363 1100.450806,675.960510 
	C1095.973145,676.237976 1091.463623,676.001709 1086.505127,675.997559 
	C1083.958496,672.494019 1081.875488,668.994202 1079.180176,664.465454 
	C1101.120483,666.170715 1121.319580,664.747620 1139.349854,652.064819 
	C1140.312988,652.804871 1140.979126,653.661072 1141.771973,654.815430 
z"/>
<path fill="#282E40" opacity="1.000000" stroke="none" 
	d="
M358.008545,236.020721 
	C359.463928,243.476913 353.274109,248.822174 352.414001,255.706223 
	C352.302094,256.601654 349.153625,257.777893 347.492889,257.661774 
	C345.118134,257.495728 342.818237,256.257935 340.448883,255.465286 
	C338.124420,264.539978 330.782867,267.652863 322.396973,269.988342 
	C327.254272,260.258118 332.504089,250.512589 337.876648,240.455566 
	C344.778351,242.070648 350.408752,238.771042 356.810303,236.057709 
	C357.624908,235.986069 357.816742,236.003387 358.008545,236.020721 
z"/>
<path fill="#282E40" opacity="1.000000" stroke="none" 
	d="
M428.944977,260.017670 
	C424.857452,257.061493 420.885895,253.921127 416.625732,251.239227 
	C414.908081,250.157944 412.558655,250.080307 410.281952,249.490250 
	C412.801422,243.367508 410.598114,235.619797 415.898499,229.565872 
	C420.124298,231.346268 424.285339,233.453842 428.723938,235.764587 
	C429.935089,239.050262 430.868713,242.132797 431.724915,245.889282 
	C430.746643,251.048050 429.845825,255.532852 428.944977,260.017670 
z"/>
<path fill="#1E2538" opacity="1.000000" stroke="none" 
	d="
M1036.148682,366.198059 
	C1047.361816,361.847382 1058.631470,357.838501 1070.306396,353.685455 
	C1063.955933,361.318787 1057.664429,368.881287 1050.837891,376.818909 
	C1045.922974,378.481476 1044.633179,381.357147 1045.854858,385.635193 
	C1046.355347,387.387848 1046.631470,389.204529 1047.009766,390.992065 
	C1046.005127,389.508850 1044.705322,388.145081 1044.048340,386.521240 
	C1041.518555,380.268707 1039.194458,373.932983 1036.569214,367.423340 
	C1036.298218,366.992218 1036.251831,366.766022 1036.148682,366.198059 
z"/>
<path fill="#1E2538" opacity="1.000000" stroke="none" 
	d="
M358.284241,236.215836 
	C357.816742,236.003387 357.624908,235.986069 357.144775,235.938736 
	C356.903473,233.893173 356.950470,231.877655 357.001190,229.427429 
	C367.263428,224.916458 377.521973,220.840195 388.285126,216.563431 
	C381.313477,225.902786 375.539978,236.010147 366.131744,243.690277 
	C365.900177,245.272232 365.805786,246.547089 365.681305,248.228546 
	C363.130493,243.995590 360.845215,240.203278 358.284241,236.215836 
z"/>
<path fill="#2C3244" opacity="1.000000" stroke="none" 
	d="
M414.277039,487.387878 
	C414.608215,485.977234 414.939362,484.566559 415.270538,483.155914 
	C415.618134,483.081482 415.965729,483.007019 416.313324,482.932587 
	C417.527618,486.028931 418.544983,489.220856 419.992737,492.203888 
	C424.554962,501.604340 429.033783,511.062531 434.106720,520.185974 
	C435.426178,522.558899 438.795746,523.791931 441.627319,525.886963 
	C442.063995,527.194763 442.097076,528.164124 442.130127,529.133545 
	C439.970215,534.777954 437.810272,540.422363 435.576294,546.452698 
	C434.896271,546.889709 434.290283,546.940857 433.351624,546.567627 
	C433.472046,542.519043 434.089050,538.905334 434.322540,535.267090 
	C434.487823,532.691406 434.844482,529.781555 433.894012,527.538513 
	C428.729858,515.350708 423.237122,503.300323 417.708008,491.271393 
	C417.017273,489.768707 415.442291,488.672455 414.277039,487.387878 
z"/>
<path fill="#2C3244" opacity="1.000000" stroke="none" 
	d="
M460.764954,440.562073 
	C452.843964,438.182343 444.906097,436.483673 436.709717,440.177765 
	C434.970032,440.961792 432.834045,440.866333 430.494049,441.147461 
	C438.638641,434.753357 447.847015,431.910248 458.815796,436.047150 
	C459.492157,436.665955 459.731659,436.873566 460.020874,437.023865 
	C460.020874,437.023865 460.005341,437.000122 459.992889,436.993225 
	C460.231567,438.070038 460.482697,439.153717 460.764954,440.562073 
z"/>


<path fill="#050C1A" opacity="1.000000" stroke="none" 
	d="
M1125.924072,529.964233 
	C1130.065918,516.132812 1133.982544,502.228333 1138.433350,488.497070 
	C1141.147095,480.124603 1144.683716,472.018829 1148.026367,463.106873 
	C1148.462524,461.313477 1148.722656,460.206482 1149.152832,458.949707 
	C1149.550293,458.600372 1149.745972,458.373627 1149.935791,457.780853 
	C1149.969238,456.989227 1149.977051,456.536377 1150.167236,455.922333 
	C1150.589355,455.541595 1150.800415,455.297150 1151.152100,454.736450 
	C1152.549194,452.947296 1153.776733,451.449585 1155.004272,449.951874 
	C1161.916138,455.688812 1168.798584,461.461761 1175.754761,467.144623 
	C1178.458252,469.353271 1181.202515,471.557068 1184.145874,473.418640 
	C1192.389160,478.631805 1196.170898,478.974670 1210.886108,475.972198 
	C1198.799316,483.325958 1194.767334,494.955872 1188.547974,505.305176 
	C1181.318726,517.335022 1172.247070,528.348572 1163.094238,539.049927 
	C1161.389526,541.043274 1155.359741,540.211182 1151.613525,539.382568 
	C1145.806763,538.098328 1140.301025,535.507629 1134.554688,533.866577 
	C1132.446289,533.264343 1130.016357,533.787903 1127.260498,533.577637 
	C1126.499878,532.226318 1126.212036,531.095276 1125.924072,529.964233 
z"/>
<path fill="#5BCC9E" opacity="1.000000" stroke="none" 
	d="
M1020.688049,572.528931 
	C1020.642761,572.064880 1020.709106,572.026917 1020.690369,571.993652 
	C1025.227539,571.389160 1029.770386,570.488831 1034.341797,570.304993 
	C1052.094116,569.591187 1069.793579,569.985046 1087.937988,574.147949 
	C1094.714844,576.913452 1100.783325,579.510620 1106.851807,582.107788 
	C1111.323120,587.651855 1110.835815,593.582397 1105.267944,599.210266 
	C1103.428589,601.069458 1101.275269,602.617981 1098.806885,604.790344 
	C1096.926880,606.100342 1095.600220,607.234192 1094.069214,607.709900 
	C1076.814087,613.070984 1059.133057,616.283508 1041.158691,617.958313 
	C1035.468018,617.695557 1029.777222,617.432800 1023.731873,616.870361 
	C1023.377197,616.570557 1023.432068,616.681091 1023.432068,616.681091 
	C1022.509155,614.480408 1020.831177,612.294189 1020.788513,610.076599 
	C1020.551147,597.719604 1020.710022,585.355042 1020.688049,572.528931 
z"/>
<path fill="#4E78DA" opacity="1.000000" stroke="none" 
	d="
M1041.112793,618.184814 
	C1059.133057,616.283508 1076.814087,613.070984 1094.069214,607.709900 
	C1095.600220,607.234192 1096.926880,606.100342 1098.657837,605.090576 
	C1100.776855,604.908936 1102.586426,604.908936 1103.863525,604.908936 
	C1103.863525,613.968262 1103.135986,622.925903 1104.069702,631.706970 
	C1104.988647,640.347656 1107.592285,648.809204 1109.725586,658.581177 
	C1106.281982,658.581177 1102.568970,658.868408 1098.914795,658.526184 
	C1088.864014,657.584717 1080.388428,652.472229 1071.574707,648.098877 
	C1063.107300,643.897400 1054.229248,640.529114 1045.572144,636.702942 
	C1040.267944,634.358582 1034.850952,632.167725 1029.854858,629.269653 
	C1027.197021,627.727966 1025.327515,624.827209 1022.438232,621.857544 
	C1027.915894,621.432007 1032.036255,621.306091 1036.086304,620.706238 
	C1037.821777,620.449219 1039.411255,619.206299 1041.112793,618.184814 
z"/>
<path fill="#4E78DA" opacity="1.000000" stroke="none" 
	d="
M1132.380493,732.620300 
	C1134.964966,735.861633 1137.898682,738.895935 1139.992188,742.428223 
	C1141.101685,744.300232 1141.808838,747.840027 1140.791626,749.180237 
	C1139.529297,750.843140 1136.093140,752.028381 1133.953735,751.606384 
	C1129.640991,750.755615 1125.292725,749.172241 1121.450806,747.015442 
	C1109.543457,740.330872 1100.103760,730.719788 1091.483765,720.292358 
	C1080.849243,707.427856 1071.875610,693.496521 1064.981445,677.848022 
	C1071.650879,677.392883 1078.360107,677.332031 1085.477295,677.234070 
	C1093.202148,685.964355 1100.207031,695.017639 1107.913696,703.427795 
	C1117.845459,714.266235 1130.409546,720.813721 1144.783569,723.942688 
	C1148.338989,724.716614 1151.956421,725.553345 1155.258301,727.011230 
	C1157.119995,727.833313 1158.396240,729.981384 1159.936157,731.532104 
	C1157.939941,732.749023 1155.924072,735.017700 1153.951294,734.980957 
	C1148.554565,734.880249 1143.167847,733.864380 1137.796265,733.080750 
	C1136.510498,732.893188 1135.298950,732.198242 1133.496826,731.505737 
	C1132.530396,731.277344 1132.120117,731.279724 1131.709961,731.282166 
	C1131.933472,731.728210 1132.156982,732.174255 1132.380493,732.620300 
z"/>
<path fill="#050C1A" opacity="1.000000" stroke="none" 
	d="
M977.441467,484.104797 
	C976.999573,483.136536 976.834351,482.346558 976.942017,481.035248 
	C981.166077,476.687073 985.117249,472.860199 989.068481,469.033325 
	C989.068481,469.033325 989.016663,469.058807 989.275024,468.959137 
	C989.992065,468.644104 990.450745,468.428711 990.909424,468.213318 
	C991.466370,469.236053 991.793640,470.522064 992.616577,471.239960 
	C999.342102,477.107117 999.122375,485.219513 1000.302490,493.080658 
	C1001.230591,499.263184 1003.762207,505.186737 1005.092590,511.331238 
	C1007.230103,521.202942 1008.963867,531.161987 1010.822388,541.500610 
	C1007.219971,542.247742 1003.551392,542.147278 1000.139221,543.033875 
	C996.925171,543.868896 994.985718,543.145874 993.668640,540.320312 
	C989.108398,530.537170 984.970398,520.718140 984.813354,509.560974 
	C984.687561,500.629395 983.880920,491.636658 977.441467,484.104797 
z"/>
<path fill="#1E2538" opacity="1.000000" stroke="none" 
	d="
M1148.982910,459.099487 
	C1148.722656,460.206482 1148.462524,461.313477 1148.053101,462.732697 
	C1140.104248,468.237366 1140.104248,468.237335 1133.106201,461.591370 
	C1128.706177,457.412689 1126.174072,457.020966 1121.372192,460.895172 
	C1116.643677,464.710144 1112.363647,469.080933 1106.991699,472.540588 
	C1107.603516,471.575653 1108.164673,470.573914 1108.834961,469.651520 
	C1113.817871,462.796112 1118.873291,455.992889 1123.795898,449.094696 
	C1125.910034,446.132172 1126.185059,443.188232 1123.760132,439.953491 
	C1114.447632,427.530884 1109.807251,413.607849 1110.917969,397.498810 
	C1111.246338,393.301788 1111.585327,389.567169 1111.924194,385.832581 
	C1112.294189,385.842682 1112.664062,385.852783 1113.033936,385.862854 
	C1113.033936,387.656982 1113.033936,389.451080 1113.029541,391.627197 
	C1113.642212,399.076477 1114.259399,406.143707 1115.051270,413.952332 
	C1116.167847,417.128265 1117.109985,419.562775 1118.052002,421.997314 
	C1120.675049,426.717957 1122.765137,431.872559 1126.121704,435.996063 
	C1128.128906,438.461884 1132.119751,439.313049 1135.616577,440.877075 
	C1140.598877,439.184479 1145.183594,437.504791 1149.768188,435.825104 
	C1145.180664,443.256256 1152.183716,445.518005 1154.812378,449.684021 
	C1153.776733,451.449585 1152.549194,452.947296 1150.986816,454.912354 
	C1150.432251,455.616577 1150.209839,455.851196 1149.984985,456.083527 
	C1149.977051,456.536377 1149.969238,456.989227 1149.781128,457.941833 
	C1149.396606,458.662598 1149.190674,458.881897 1148.982910,459.099487 
z"/>

<path fill="#1E2538" opacity="1.000000" stroke="none" 
	d="
M1107.218018,581.971069 
	C1100.783325,579.510620 1094.714844,576.913452 1088.336182,574.130127 
	C1088.136597,570.750427 1088.247192,567.556946 1088.668457,564.166748 
	C1088.978882,563.970093 1089.087280,564.061035 1089.087280,564.061035 
	C1087.751099,569.024292 1089.986938,570.151184 1094.388672,568.798645 
	C1093.659424,574.529663 1095.677490,576.279724 1101.112793,574.133606 
	C1105.410645,572.436646 1109.390259,569.940796 1113.532349,567.841125 
	C1119.075806,565.031128 1124.639282,562.260864 1130.194214,559.473511 
	C1130.509277,560.094971 1130.824341,560.716370 1131.139404,561.337830 
	C1129.179199,562.209473 1127.164673,562.977661 1125.268677,563.971741 
	C1119.229248,567.138123 1113.187988,570.307861 1107.264282,573.681274 
	C1106.201050,574.286743 1105.692993,575.867188 1104.928711,576.997559 
	C1106.189575,577.608582 1107.412109,578.612915 1108.719971,578.739868 
	C1110.761475,578.937988 1112.860474,578.541260 1114.935181,578.396606 
	C1115.032593,578.854370 1115.130127,579.312073 1115.227539,579.769836 
	C1112.679810,580.458008 1110.131958,581.146179 1107.218018,581.971069 
z"/>
<path fill="#1E2538" opacity="1.000000" stroke="none" 
	d="
M1125.589966,529.940186 
	C1126.212036,531.095276 1126.499878,532.226318 1126.886719,533.692810 
	C1119.590942,536.329773 1112.196167,538.631287 1104.400269,540.968384 
	C1103.999146,541.004028 1103.970581,540.980774 1103.970581,540.980774 
	C1109.691284,535.286804 1115.411987,529.592834 1120.368774,524.659180 
	C1122.399658,526.843872 1123.827759,528.380005 1125.589966,529.940186 
z"/>
<path fill="#1E2538" opacity="1.000000" stroke="none" 
	d="
M1088.925293,563.923828 
	C1089.809082,560.541687 1090.746460,557.205750 1091.686157,553.861633 
	C1094.003174,554.049316 1096.357544,554.240051 1099.694458,554.510376 
	C1096.055664,557.807678 1092.829956,560.730652 1089.345703,563.857361 
	C1089.087280,564.061035 1088.978882,563.970093 1088.925293,563.923828 
z"/>
<path fill="#1E2538" opacity="1.000000" stroke="none" 
	d="
M1114.587402,554.384888 
	C1117.939453,553.037109 1120.962891,551.830383 1123.986206,550.623657 
	C1124.144043,550.986816 1124.302002,551.350037 1124.459839,551.713257 
	C1119.915649,553.965637 1115.371582,556.217957 1110.827393,558.470337 
	C1110.575439,558.063965 1110.323486,557.657654 1110.071533,557.251282 
	C1111.467285,556.342834 1112.863037,555.434326 1114.587402,554.384888 
z"/>





<path fill="#1E2538" opacity="1.000000" stroke="none" 
	d="
M1103.030518,542.019104 
	C1102.690918,542.453735 1102.351196,542.888306 1102.011597,543.322937 
	C1101.869751,543.183899 1101.727905,543.044861 1101.586182,542.905884 
	C1101.921143,542.636353 1102.256104,542.366760 1102.796875,542.047607 
	C1103.002808,541.997925 1103.030518,542.019104 1103.030518,542.019104 
z"/>









<path fill="#1E2538" opacity="1.000000" stroke="none" 
	d="
M1102.992065,541.984253 
	C1103.177246,541.727661 1103.389648,541.500000 1103.794556,541.134277 
	C1103.970581,540.980774 1103.999146,541.004028 1104.011108,541.019409 
	C1103.827759,541.278015 1103.614990,541.504944 1103.207764,541.867310 
	C1103.030518,542.019104 1103.002808,541.997925 1102.992065,541.984253 
z"/>



<path fill="#1E2538" opacity="1.000000" stroke="none" 
	d="
M1096.011230,548.020996 
	C1095.828979,548.279602 1095.617188,548.506836 1095.213257,548.871704 
	C1095.037598,549.024597 1095.004517,548.997742 1094.990234,548.980957 
	C1095.173340,548.723267 1095.386353,548.496765 1095.790283,548.131531 
	C1095.965942,547.978210 1095.997803,548.005005 1096.011230,548.020996 
z"/>
<path fill="#4E78DA" opacity="1.000000" stroke="none" 
	d="
M414.087280,487.770355 
	C415.442291,488.672455 417.017273,489.768707 417.708008,491.271393 
	C423.237122,503.300323 428.729858,515.350708 433.894012,527.538513 
	C434.844482,529.781555 434.487823,532.691406 434.322540,535.267090 
	C434.089050,538.905334 433.472046,542.519043 433.043457,546.585571 
	C429.940552,561.205566 422.399506,572.828979 413.006531,583.704224 
	C406.427307,591.321716 401.050201,599.977539 395.034393,608.488770 
	C392.224274,611.031982 390.449493,610.310669 390.672821,606.901550 
	C390.919922,603.129578 391.548218,599.303040 392.619629,595.680420 
	C395.302704,586.608398 398.369385,577.650452 401.181396,568.615295 
	C401.663696,567.065613 401.649170,565.361328 401.815247,563.295410 
	C404.217072,546.436340 406.563354,529.993835 409.161469,513.591248 
	C410.510376,505.075348 412.304535,496.630035 414.087280,487.770355 
z"/>
<path fill="#2C3244" opacity="1.000000" stroke="none" 
	d="
M319.877167,352.265350 
	C321.128021,348.791687 322.182190,345.227814 323.715576,341.883698 
	C324.444733,340.293488 325.865509,338.768433 327.360291,337.832092 
	C330.811035,335.670471 334.622803,334.082977 338.061035,331.904175 
	C343.480804,328.469574 349.070984,329.735535 352.077667,335.380554 
	C355.449860,341.711700 368.897614,347.405334 375.946136,345.520081 
	C377.710358,345.048187 379.510468,344.710327 382.069763,344.194031 
	C391.564606,345.812622 400.184174,344.921021 408.468658,342.148590 
	C412.239105,340.886749 415.499725,338.101471 418.995789,336.003632 
	C419.000000,336.000000 419.009949,335.994537 419.336639,335.952209 
	C420.770935,335.275757 421.878540,334.641663 422.992004,334.003998 
	C422.997894,334.000427 423.009491,333.992035 423.334076,333.881805 
	C427.377441,330.749390 431.335510,327.974701 434.767944,324.656311 
	C443.372040,316.338104 443.318817,316.205414 450.650696,325.327393 
	C452.379944,327.478821 453.685181,327.581909 455.285461,325.333954 
	C456.819305,323.179382 458.461823,321.102173 460.039307,319.367004 
	C455.884064,328.774170 451.324036,337.639740 447.702057,346.873230 
	C441.505859,362.669189 433.394836,378.103271 435.964050,396.027100 
	C435.964050,396.027100 435.981873,396.021271 435.589417,396.033234 
	C430.191223,397.502258 425.185486,398.959320 419.189514,400.704620 
	C420.505524,397.057068 421.335266,394.757263 422.165039,392.457458 
	C421.748932,392.268097 421.332825,392.078705 420.916718,391.889343 
	C418.533966,396.255829 416.151184,400.622314 413.768402,404.988800 
	C411.976440,406.760376 410.184509,408.531982 407.948120,410.775146 
	C406.668793,412.495087 405.833862,413.743439 404.998962,414.991791 
	C404.998962,414.991791 404.998779,414.998779 404.768036,415.203064 
	C404.023102,416.270477 403.508911,417.133636 402.994751,417.996796 
	C402.994720,417.996796 402.999908,418.000000 402.997589,417.998352 
	C402.513763,420.175659 401.753784,422.336304 401.609039,424.537415 
	C401.312073,429.053040 401.496490,433.603210 401.116180,438.108185 
	C401.038483,439.028595 399.487671,440.238464 398.383667,440.594208 
	C387.779724,444.011139 377.253693,447.796051 366.451202,450.435486 
	C355.262482,453.169312 346.169342,447.846252 337.590820,441.135193 
	C329.434082,434.754089 327.038086,427.166351 329.495300,417.067871 
	C330.664307,412.263428 329.407867,406.868774 329.068970,400.950684 
	C328.581055,398.195557 328.331787,396.220215 327.958374,394.268646 
	C325.278778,380.264862 322.573944,366.265869 319.877167,352.265350 
M424.318359,387.596893 
	C424.455902,388.060211 424.593445,388.523560 424.730988,388.986877 
	C425.145386,388.566986 425.559784,388.147095 425.974213,387.727234 
	C425.513550,387.592072 425.052917,387.456909 424.318359,387.596893 
z"/>
<path fill="#050C1A" opacity="1.000000" stroke="none" 
	d="
M436.369812,396.096191 
	C433.394836,378.103271 441.505859,362.669189 447.702057,346.873230 
	C451.324036,337.639740 455.884064,328.774170 460.013000,319.365784 
	C460.003937,318.988525 460.016479,319.041962 460.233917,318.918518 
	C460.678375,318.551575 460.905396,318.308075 461.338562,317.799164 
	C462.726990,315.453400 463.909241,313.373047 465.091522,311.292694 
	C469.523132,315.274719 473.933472,319.280731 478.391083,323.233429 
	C485.944092,329.930847 493.383026,336.769745 501.178833,343.173126 
	C503.750458,345.285370 504.413116,346.445374 502.582306,349.534821 
	C498.698273,356.089203 495.874512,363.292908 491.784180,369.699310 
	C484.928528,380.436859 477.527954,390.834137 470.138733,401.219513 
	C467.211517,405.333649 463.089905,403.754303 459.196747,402.608337 
	C451.737122,400.412628 444.250793,398.307770 436.369812,396.096191 
z"/>
<path fill="#1E2538" opacity="1.000000" stroke="none" 
	d="
M465.005798,311.007629 
	C463.909241,313.373047 462.726990,315.453400 461.186951,317.842194 
	C460.558289,318.447754 460.287384,318.744843 460.016479,319.041962 
	C460.016479,319.041962 460.003937,318.988525 460.030243,318.989716 
	C458.461823,321.102173 456.819305,323.179382 455.285461,325.333954 
	C453.685181,327.581909 452.379944,327.478821 450.650696,325.327393 
	C443.318817,316.205414 443.372040,316.338104 434.767944,324.656311 
	C431.335510,327.974701 427.377441,330.749390 423.441742,333.560242 
	C427.274597,328.362915 431.601318,323.574036 435.319153,318.351746 
	C444.311066,305.721252 444.196564,305.639740 436.929169,292.022797 
	C434.283478,281.636688 431.637817,271.250549 428.968567,260.441040 
	C429.845825,255.532852 430.746643,251.048050 431.830994,246.235107 
	C432.050018,247.060059 432.312012,248.259430 432.087067,249.359222 
	C428.728516,265.778290 434.159943,280.325958 441.978638,294.190216 
	C446.060852,301.428925 450.339111,304.419861 457.725800,299.394073 
	C459.008728,298.521179 460.839539,298.453522 464.159485,297.528564 
	C457.364685,303.639221 464.046356,306.615173 465.005798,311.007629 
z"/>
<path fill="#1E2538" opacity="1.000000" stroke="none" 
	d="
M414.165710,404.951721 
	C416.151184,400.622314 418.533966,396.255829 420.916718,391.889343 
	C421.332825,392.078705 421.748932,392.268097 422.165039,392.457458 
	C421.335266,394.757263 420.505524,397.057068 419.189514,400.704620 
	C425.185486,398.959320 430.191223,397.502258 435.587952,396.025238 
	C428.840302,398.975067 421.701660,401.944855 414.165710,404.951721 
z"/>
<path fill="#1E2538" opacity="1.000000" stroke="none" 
	d="
M423.069824,411.067322 
	C422.579468,410.734436 422.339783,410.342560 422.100098,409.950684 
	C423.816681,409.240143 425.533234,408.529602 427.249817,407.819031 
	C427.421600,408.191406 427.593414,408.563782 427.765198,408.936157 
	C426.283630,409.626862 424.802032,410.317566 423.069824,411.067322 
z"/>



<path fill="#1E2538" opacity="1.000000" stroke="none" 
	d="
M415.911560,427.930481 
	C416.724792,427.009155 417.538025,426.087799 418.682495,425.077881 
	C419.013733,424.989349 419.101685,425.077637 419.101685,425.077637 
	C418.280609,425.991943 417.459534,426.906219 416.312531,427.913391 
	C415.986633,428.006287 415.911560,427.930481 415.911560,427.930481 
z"/>



<path fill="#1E2538" opacity="1.000000" stroke="none" 
	d="
M427.092682,419.070923 
	C426.610413,419.348541 426.128174,419.626160 425.395935,420.022522 
	C425.145905,420.141296 425.037933,420.019043 424.984406,419.955933 
	C425.421112,419.628204 425.911316,419.363617 426.704773,419.041687 
	C427.007996,418.984375 427.092682,419.070923 427.092682,419.070923 
z"/>









<path fill="#2A3143" opacity="1.000000" stroke="none" 
	d="
M1047.293457,390.818481 
	C1046.631470,389.204529 1046.355347,387.387848 1045.854858,385.635193 
	C1044.633179,381.357147 1045.922974,378.481476 1050.641113,377.087158 
	C1053.453857,377.498566 1055.928589,378.016876 1059.197754,378.701630 
	C1058.822876,379.579620 1058.328003,381.920715 1057.734375,381.945984 
	C1051.945190,382.192657 1050.717285,387.505371 1047.293457,390.818481 
z"/>
<path fill="#1E2538" opacity="1.000000" stroke="none" 
	d="
M1033.967041,384.454773 
	C1032.978027,385.116547 1032.209351,385.551483 1030.678223,386.417755 
	C1032.851685,382.266052 1034.583008,378.958832 1036.314453,375.651611 
	C1036.713745,375.763855 1037.113037,375.876068 1037.512329,375.988312 
	C1036.403931,378.734833 1035.295654,381.481384 1033.967041,384.454773 
z"/>


<path fill="#050C1A" opacity="1.000000" stroke="none" 
	d="
M319.705597,351.918762 
	C322.573944,366.265869 325.278778,380.264862 327.958374,394.268646 
	C328.331787,396.220215 328.581055,398.195557 328.897614,400.573792 
	C328.907410,400.987671 328.443848,401.004913 328.212585,401.023987 
	C322.247986,398.775330 316.988861,400.685181 311.384857,402.898438 
	C305.765717,392.862762 302.981720,382.293396 302.731995,370.840881 
	C302.596252,364.616241 301.022552,358.337219 299.418793,352.261841 
	C298.428894,348.511932 298.326019,345.740540 301.313324,342.822296 
	C304.598053,339.613525 307.337555,335.846619 310.722534,332.538635 
	C311.828522,333.830994 312.526581,334.907593 313.224640,335.984222 
	C315.327789,341.180206 317.430908,346.376190 319.705597,351.918762 
z"/>
<path fill="#2C3244" opacity="1.000000" stroke="none" 
	d="
M313.601501,336.002991 
	C312.526581,334.907593 311.828522,333.830994 311.040833,332.451477 
	C307.516937,318.489441 309.107697,305.047028 312.851807,291.346375 
	C317.003174,291.005066 321.028809,290.716064 324.982269,291.124939 
	C327.216827,291.356018 330.734009,292.274536 331.200104,293.694977 
	C332.074982,296.361389 331.762421,299.829742 330.803711,302.565002 
	C329.914886,305.100800 327.462952,307.062195 325.835205,309.372253 
	C323.822174,312.229004 323.910980,314.808685 326.813629,317.238800 
	C330.007172,319.912476 331.980835,330.211182 330.133240,333.335815 
	C328.379761,336.301270 322.126007,337.765686 316.933777,336.469696 
	C315.971344,336.229462 314.964630,336.166504 313.601501,336.002991 
z"/>
<path fill="#2C3244" opacity="1.000000" stroke="none" 
	d="
M436.612183,292.144592 
	C444.196564,305.639740 444.311066,305.721252 435.319153,318.351746 
	C431.601318,323.574036 427.274597,328.362915 423.117157,333.670471 
	C423.009491,333.992035 422.997894,334.000427 422.665314,334.044983 
	C421.225128,334.724548 420.117554,335.359528 419.009949,335.994537 
	C419.009949,335.994537 419.000000,336.000000 418.646942,336.095428 
	C416.768951,336.836121 415.238037,337.467621 413.720062,338.128845 
	C401.367676,343.509552 388.818024,344.694214 375.984558,339.919739 
	C376.284088,338.451874 376.664917,336.995239 376.869293,335.514221 
	C377.812500,328.677429 376.188110,326.850159 369.381958,326.329163 
	C367.741058,326.203552 366.094574,325.199371 364.607147,324.331146 
	C363.486603,323.677002 362.756531,322.302643 361.610840,321.751251 
	C354.824005,318.484772 351.291046,313.394775 351.504059,305.650055 
	C351.612762,301.697662 346.807434,297.963684 342.896240,298.897339 
	C339.036591,299.818726 336.533295,298.254913 335.292297,295.058655 
	C334.682678,293.488556 335.607635,291.322632 335.838135,289.426331 
	C337.348083,289.620514 339.073395,289.411652 340.328766,290.082306 
	C344.574432,292.350433 348.266632,290.673706 352.254547,289.292297 
	C354.296448,288.584991 357.249451,288.381165 359.001251,289.361084 
	C364.304260,292.327637 369.094543,296.203979 374.363495,299.242126 
	C376.028168,300.201996 379.211243,300.563568 380.596405,299.605011 
	C385.441071,296.252441 389.670593,292.026276 394.392303,288.475800 
	C398.133392,285.662689 398.603180,282.095428 398.281006,277.880890 
	C397.980347,273.947754 397.815887,269.940399 398.276917,266.046875 
	C398.442291,264.650269 400.695801,262.390594 401.841309,262.481262 
	C403.549988,262.616608 406.093628,264.200287 406.528076,265.682007 
	C407.216125,268.028687 406.213226,270.817139 406.388580,273.387085 
	C406.506012,275.108612 406.957062,277.756348 408.070312,278.286865 
	C411.725037,280.028503 415.692139,281.769043 419.647339,282.065063 
	C424.959839,282.462677 426.343842,286.524017 427.724243,289.849701 
	C429.864868,295.006927 432.433868,295.020233 436.612183,292.144592 
z"/>
<path fill="#1E2538" opacity="1.000000" stroke="none" 
	d="
M376.147827,340.217194 
	C388.818024,344.694214 401.367676,343.509552 413.720062,338.128845 
	C415.238037,337.467621 416.768951,336.836121 418.642761,336.099060 
	C415.499725,338.101471 412.239105,340.886749 408.468658,342.148590 
	C400.184174,344.921021 391.564606,345.812622 382.422760,344.049927 
	C380.103760,342.853333 378.207458,341.683990 376.147827,340.217194 
z"/>


<path fill="#282E40" opacity="1.000000" stroke="none" 
	d="
M387.401245,256.812469 
	C388.188873,256.737457 388.784424,256.737457 389.380005,256.737457 
	C389.386383,257.023193 389.392761,257.308899 389.399139,257.594635 
	C388.465302,257.594635 387.531433,257.594635 386.597565,257.594635 
	C386.664276,257.450928 386.704773,257.284363 386.804840,257.169830 
	C386.909821,257.049683 387.071960,256.979492 387.401245,256.812469 
z"/>


<path fill="#2C3244" opacity="1.000000" stroke="none" 
	d="
M1008.748840,559.933167 
	C1008.853455,557.180359 1009.082275,554.759155 1009.311096,552.337952 
	C1010.159424,552.299683 1011.007690,552.261414 1011.855957,552.223083 
	C1012.266602,555.560852 1012.677246,558.898560 1013.087891,562.236267 
	C1012.564941,562.481873 1012.042053,562.727417 1011.519104,562.973022 
	C1010.637085,562.070251 1009.755066,561.167542 1008.748840,559.933167 
z"/>
<path fill="#282E40" opacity="1.000000" stroke="none" 
	d="
M988.709961,469.093567 
	C985.117249,472.860199 981.166077,476.687073 976.865356,480.638611 
	C974.904236,480.358826 973.263184,480.044830 971.686951,479.531799 
	C967.984741,478.326782 966.594482,475.992126 968.378845,472.256592 
	C968.521912,471.957031 968.717957,471.682220 968.854858,471.380280 
	C972.491150,463.359070 972.331665,463.485474 977.703979,470.211731 
	C978.698914,471.457489 981.590820,471.692200 983.532043,471.524384 
	C985.194397,471.380676 986.749146,469.991913 988.709961,469.093567 
z"/>








</svg>